<svg width="20" height="20" viewBox="0 0 20 20" fill="none" xmlns="http://www.w3.org/2000/svg">
<path d="M11.8337 2.39551C10.8115 2.39551 9.83115 2.80157 9.10835 3.52437C8.38556 4.24716 7.97949 5.22749 7.97949 6.24967V8.39551H5.91699C5.81366 8.39551 5.72949 8.47884 5.72949 8.58301V11.4163C5.72949 11.5197 5.81283 11.6038 5.91699 11.6038H7.97949V17.4163C7.97949 17.5197 8.06283 17.6038 8.16699 17.6038H11.0003C11.1037 17.6038 11.1878 17.5205 11.1878 17.4163V11.6038H13.2687C13.3545 11.6038 13.4295 11.5455 13.4503 11.4622L14.1587 8.62884C14.1656 8.60119 14.1662 8.57232 14.1603 8.54442C14.1545 8.51652 14.1423 8.49032 14.1248 8.46782C14.1073 8.44532 14.0849 8.42712 14.0592 8.41459C14.0336 8.40205 14.0055 8.39553 13.977 8.39551H11.1878V6.24967C11.1878 6.16486 11.2045 6.08088 11.237 6.00252C11.2694 5.92417 11.317 5.85297 11.377 5.793C11.437 5.73303 11.5082 5.68546 11.5865 5.653C11.6649 5.62055 11.7488 5.60384 11.8337 5.60384H14.0003C14.1037 5.60384 14.1878 5.52051 14.1878 5.41634V2.58301C14.1878 2.47967 14.1045 2.39551 14.0003 2.39551H11.8337Z" fill="url(#paint0_linear_4337_610)"/>
<defs>
<linearGradient id="paint0_linear_4337_610" x1="5.72949" y1="9.99967" x2="14.1878" y2="9.99967" gradientUnits="userSpaceOnUse">
<stop stop-color="#21CFFF"/>
<stop offset="1" stop-color="#019AE6"/>
</linearGradient>
</defs>
</svg>
