<svg width="411" height="256" viewBox="0 0 411 256" fill="none" xmlns="http://www.w3.org/2000/svg">
<g clip-path="url(#clip0_2321_2584)">
<rect width="411" height="256" fill="#EDEEF1"/>
<g clip-path="url(#clip1_2321_2584)">
<path fill-rule="evenodd" clip-rule="evenodd" d="M255.526 82.4826C255.892 82.5959 256.097 82.9794 255.984 83.3454C255.873 83.7027 255.484 83.9119 255.119 83.7986C252.567 83.0927 248.006 82.195 243.908 81.829C240.968 81.5676 238.283 81.5415 236.902 82.2125C236.666 82.3258 236.536 82.6308 236.374 82.9969C236.107 83.5895 235.921 84.3651 235.797 85.254C235.633 86.4131 235.603 87.7552 235.697 89.1583C235.827 91.0581 236.205 93.0713 236.908 94.884C238.01 97.7251 239.886 100.104 243.001 100.453C246.36 100.845 248.766 99.8426 250.468 98.0125C252.28 96.0604 253.336 93.2368 253.943 90.2215C254.008 89.8467 254.367 89.6027 254.743 89.6637C255.12 89.7334 255.373 90.082 255.307 90.4568C254.802 93.8207 253.741 96.9668 251.844 99.2066C249.852 101.568 246.95 102.954 242.79 102.658C237.835 102.265 234.894 98.0562 233.679 93.2891C233.328 91.9122 233.127 90.4829 233.057 89.1146C232.931 86.6309 233.233 84.3215 233.816 82.7267C234.324 81.3236 235.089 80.4085 235.901 80.0512C237.56 79.3454 240.708 79.354 244.141 79.8421C248.325 80.4259 252.948 81.6198 255.526 82.4826Z" fill="#25272C"/>
<path fill-rule="evenodd" clip-rule="evenodd" d="M243.677 75.354C243.429 75.6416 242.991 75.6764 242.701 75.4324C242.41 75.1884 242.376 74.7526 242.624 74.4651C243.26 73.4977 244.582 72.5739 246.222 72.0161C246.675 71.8592 247.152 71.7547 247.644 71.6937C248.128 71.6327 248.628 71.6152 249.122 71.6588C249.867 71.7372 250.606 71.9203 251.296 72.2427C252.76 72.9138 254.05 74.0467 254.796 75.8681C254.978 76.1993 254.853 76.6176 254.517 76.8006C254.181 76.9749 253.761 76.8529 253.579 76.5218C252.626 75.1535 251.314 74.5871 249.977 74.3605C249.558 74.282 249.135 74.2733 248.714 74.2559C248.276 74.2385 247.842 74.2385 247.416 74.2646C246.397 74.3256 245.439 74.4738 244.674 74.8049C244.283 74.9705 243.934 75.1274 243.677 75.354Z" fill="#25272C"/>
<path fill-rule="evenodd" clip-rule="evenodd" d="M206.521 79.6679C206.532 79.6504 206.532 79.6417 206.512 79.6243C206.467 79.5894 206.439 79.6331 206.416 79.7115C206.378 79.7289 206.34 79.7463 206.302 79.7637C206.327 79.755 206.371 79.7375 206.414 79.7201C206.383 79.8421 206.365 80.0251 206.332 80.1559C206.237 80.5393 206.176 81.0186 206.139 81.5677C206.034 83.1015 206.176 85.1233 206.634 87.2236C207.026 89.0276 207.65 90.8751 208.601 92.5048C210.074 95.0321 212.327 97.0454 215.75 97.3243C219.986 97.6903 223.035 95.9298 225.112 93.3763C227.564 90.3609 228.72 86.2998 228.877 83.1625C228.887 82.779 229.207 82.4827 229.588 82.4914C229.97 82.5088 230.272 82.8226 230.26 83.1973C230.235 86.631 229.141 91.1191 226.595 94.5179C224.24 97.6552 220.661 99.8515 215.593 99.6075C210.2 99.3112 206.892 95.6597 205.15 91.3719C203.627 87.6158 203.34 83.4065 203.674 80.8182C203.815 79.7289 204.082 78.8923 204.385 78.3955C204.655 77.9598 204.977 77.6896 205.291 77.5588C207.454 76.6351 211.229 76.4521 215.202 76.731C221.418 77.158 228.117 78.5785 229.443 79.1276C229.798 79.267 229.973 79.6679 229.832 80.0164C229.693 80.3737 229.29 80.548 228.935 80.4085C227.632 79.9292 221.111 78.9184 215.105 78.7702C211.691 78.6831 208.447 78.8574 206.521 79.6679ZM206.521 79.6679C206.504 79.6853 206.46 79.7114 206.414 79.7201C206.415 79.7201 206.416 79.7115 206.416 79.7115C206.451 79.6941 206.486 79.6853 206.521 79.6679Z" fill="#25272C"/>
<path fill-rule="evenodd" clip-rule="evenodd" d="M234.943 83.5284C235.301 83.6591 235.484 84.06 235.351 84.4086C235.219 84.7659 234.82 84.9489 234.462 84.8182C234.462 84.8182 233.787 84.6439 232.593 84.9315C232.151 85.036 231.649 85.2103 231.087 85.4805C230.887 86.5176 230.295 89.4719 229.381 92.9927C228.949 94.6486 228.449 96.4352 227.868 98.1956C227.385 99.6597 226.842 101.106 226.274 102.457C225.625 104 224.926 105.411 224.235 106.597C223.698 107.512 223.16 108.374 222.879 109.141C222.79 109.377 222.717 109.603 222.71 109.804C222.708 109.908 222.694 110.004 222.758 110.074C223 110.353 223.482 110.483 224.25 110.562C225.423 110.684 227.102 110.614 229.454 110.318C229.831 110.257 230.188 110.51 230.252 110.884C230.314 111.259 230.06 111.608 229.683 111.669C226.575 112.314 224.539 112.444 223.261 112.27C222.318 112.139 221.714 111.799 221.32 111.416C220.731 110.832 220.568 110.048 220.729 109.098C220.899 108.096 221.541 106.832 222.209 105.507C222.794 104.366 223.345 102.997 223.901 101.525C224.402 100.2 224.888 98.7881 225.37 97.3675C225.959 95.6507 226.537 93.9252 227.055 92.3304C228.431 88.0601 229.406 84.6787 229.406 84.6787C229.469 84.4085 229.65 84.1907 229.901 84.0687C231.064 83.5894 232.031 83.3802 232.794 83.3192C234.195 83.2059 234.943 83.5284 234.943 83.5284Z" fill="#25272C"/>
<path fill-rule="evenodd" clip-rule="evenodd" d="M280.66 93.6899C280.855 94.4219 280.964 95.2062 280.981 96.0429C281.057 99.494 279.567 103.677 276.431 106.727C275.146 107.973 273.829 108.706 272.544 109.124C270.275 109.847 268.109 109.568 266.41 109.394C265.909 109.342 265.459 109.298 265.074 109.316C264.885 109.324 264.714 109.307 264.612 109.42C264.554 109.481 264.531 109.577 264.509 109.699C262.677 119.373 259.193 127.042 254.74 132.715C248.721 140.376 240.933 144.419 232.997 144.846C226.16 145.212 221.126 140.201 217.653 133.02C213.479 124.401 211.506 112.706 210.958 104.435C210.932 104.061 211.219 103.729 211.6 103.703C211.981 103.677 212.312 103.965 212.339 104.339C212.955 112.436 214.978 123.887 219.151 132.297C222.336 138.728 226.742 143.408 232.889 143.016C240.308 142.554 247.546 138.685 253.118 131.469C257.348 125.987 260.612 118.597 262.294 109.289C262.473 108.305 262.952 107.747 263.585 107.416C264.293 107.041 265.348 107.015 266.642 107.137C268.805 107.355 271.909 107.886 274.774 105.063C276.908 102.963 278.127 100.235 278.461 97.725C278.851 94.7968 278.115 92.1038 275.814 91.5897C274.3 91.2411 272.98 91.5025 271.834 91.9992C269.908 92.8359 268.432 94.326 267.312 95.1626C266.594 95.703 265.944 96.008 265.415 96.069C264.99 96.1213 264.572 96.008 264.195 95.6507C264.028 95.4852 263.85 95.2412 263.705 94.8926C263.549 94.5092 263.403 93.9078 263.28 93.1322C262.702 89.4371 262.472 80.9923 261.013 74.3952C260.361 71.4496 259.519 68.8787 258.172 67.4582C255.673 67.9723 246.581 69.7589 236.663 70.7001C231.613 71.1794 226.35 71.4409 221.628 71.2056C212.296 70.7437 205.582 69.1751 201.164 66.639C196.138 63.7544 193.92 59.6496 194.089 54.4033C194.177 51.7802 195.424 49.2964 197.66 47.0916C199.994 44.7821 203.427 42.7515 207.647 41.1392C215.147 38.272 225.163 36.686 235.734 37.052C242.094 37.2699 250.574 38.7775 257.08 43.2046C260.901 45.8017 264.05 49.401 265.728 54.3249C267.528 53.9675 271.84 53.3923 276.121 54.9871C279.188 56.12 282.246 58.3511 284.357 62.5517C287.436 68.687 288.265 74.4126 287.775 79.3017C287.102 86.0121 283.931 91.1626 280.66 93.6899ZM280.154 92.3217C283.038 89.8641 285.702 85.1668 286.256 79.1536C286.683 74.5086 285.842 69.0878 282.872 63.2924C280.968 59.5712 278.248 57.6017 275.514 56.6082C270.454 54.7693 265.369 56.2683 265.369 56.2683C264.887 56.4077 264.382 56.1288 264.237 55.6582C262.734 50.7779 259.694 47.2833 255.987 44.7995C249.777 40.6338 241.708 39.2917 235.669 39.1261C225.424 38.8385 215.724 40.4159 208.476 43.2483C204.614 44.7559 201.458 46.6123 199.33 48.7387C197.586 50.4904 196.552 52.4163 196.498 54.4729C196.38 58.7955 198.249 62.1508 202.401 64.5125C206.583 66.883 212.942 68.2599 221.751 68.6521C226.356 68.87 231.487 68.5911 236.41 68.1205C247.91 67.005 258.286 64.7653 258.286 64.7653C258.677 64.6781 259.087 64.7739 259.398 65.0267C261.343 66.5954 262.706 69.8983 263.569 73.8461C265.023 80.4955 265.235 89.0275 265.803 92.7487C265.821 92.862 265.842 92.984 265.865 93.0973C266.012 92.984 266.166 92.862 266.327 92.74C267.506 91.7901 268.999 90.509 270.832 89.7247C272.428 89.0362 274.265 88.705 276.368 89.1931C278.099 89.5852 279.385 90.7269 280.154 92.3217Z" fill="#25272C"/>
<path fill-rule="evenodd" clip-rule="evenodd" d="M279.401 93.7336C278.869 92.0255 277.762 90.7705 276.091 90.3871C270.481 89.1147 267.085 94.6138 265.27 94.8142C263.455 95.0234 264.676 70.9703 258.567 66.0377C258.567 66.0377 237.187 70.6653 221.69 69.9332C202.939 69.0443 195.018 63.6935 195.294 54.4382C195.585 44.6602 214.504 37.4267 235.701 38.0891C245.672 38.3941 261.01 41.8976 265.112 55.3968C265.112 55.3968 277.914 51.6844 283.615 62.9178C291.12 77.7157 285.138 90.1082 279.401 93.7336ZM203.597 47.8933C202.38 48.791 200.922 50.2986 199.85 52.1462C199.511 52.7301 199.258 53.3489 199.061 53.9938C198.847 54.6822 198.734 55.3968 198.736 56.1027C198.739 56.8696 198.851 57.6366 199.131 58.3512C199.975 60.4951 201.799 62.4646 205.696 63.0833C206.306 63.2664 206.95 62.9178 207.134 62.3164C207.317 61.7151 206.97 61.0702 206.361 60.8872C204.197 59.9198 203.359 58.6214 203.122 57.2618C203.048 56.8348 203.102 56.3991 203.136 55.9633C203.175 55.4666 203.234 54.961 203.338 54.4556C203.735 52.5297 204.435 50.6299 205.249 49.497C205.693 49.0438 205.684 48.3205 205.228 47.876C204.772 47.4315 204.041 47.4402 203.597 47.8933Z" fill="#25272C"/>
<path fill-rule="evenodd" clip-rule="evenodd" d="M264.05 45.61C263.897 45.2701 264.055 44.8606 264.404 44.7037C264.754 44.5556 265.162 44.7124 265.317 45.061C265.317 45.061 266.088 46.1766 266.696 48.0851C266.802 48.425 266.891 48.7736 266.961 49.1658C267.024 49.5144 267.07 49.8804 267.078 50.2638C267.089 50.8042 267.043 51.3618 266.95 51.9283C266.754 53.1309 266.384 54.3597 265.771 55.606C265.653 55.9633 265.261 56.1637 264.898 56.0504C264.535 55.9284 264.336 55.5363 264.456 55.179C264.64 54.168 264.641 53.2093 264.608 52.2857C264.591 51.8238 264.532 51.388 264.5 50.961C264.467 50.4991 264.429 50.0633 264.402 49.645C264.375 49.218 264.374 48.8171 264.354 48.4424C264.26 46.7342 264.05 45.61 264.05 45.61Z" fill="#25272C"/>
<path fill-rule="evenodd" clip-rule="evenodd" d="M295.409 49.7062C295.777 49.6016 296.16 49.8107 296.264 50.1767C296.368 50.5427 296.155 50.9263 295.786 51.0221C295.786 51.0221 295.031 51.4927 293.959 52.1376C293.714 52.2857 293.464 52.4426 293.188 52.5908C292.987 52.6953 292.779 52.7999 292.562 52.8958C292.243 53.0352 291.914 53.1397 291.591 53.2617C290.731 53.5929 289.912 53.8543 289.404 54.3424C289.182 54.6474 288.75 54.7259 288.439 54.508C288.127 54.2814 288.054 53.8544 288.275 53.5494C288.66 52.7303 289.419 51.9546 290.348 51.2313C290.68 50.9786 291.03 50.7432 291.405 50.5515C291.652 50.4208 291.91 50.3162 292.166 50.2378C292.437 50.1419 292.7 50.0722 292.961 50.0199C294.363 49.7323 295.409 49.7062 295.409 49.7062Z" fill="#25272C"/>
<path fill-rule="evenodd" clip-rule="evenodd" d="M288.509 57.593C288.174 57.41 288.049 57.0003 288.231 56.6604C288.413 56.3293 288.833 56.2073 289.169 56.3903C289.169 56.3903 290.43 56.765 291.995 57.5058C292.293 57.6452 292.592 57.8021 292.892 57.9764C293.179 58.1507 293.465 58.3337 293.734 58.5516C294.144 58.8741 294.52 59.2313 294.866 59.6061C295.957 60.7826 296.739 61.9852 296.829 62.9787C296.918 63.3448 296.689 63.7196 296.317 63.8067C295.945 63.8939 295.572 63.6672 295.483 63.2925C295.317 62.9003 294.891 62.5692 294.409 62.1683C293.895 61.7413 293.253 61.3752 292.62 60.9482C292.211 60.6693 291.802 60.3818 291.417 60.0854C291.104 59.8414 290.825 59.5886 290.55 59.3533C289.377 58.3424 288.509 57.593 288.509 57.593Z" fill="#25272C"/>
<path fill-rule="evenodd" clip-rule="evenodd" d="M210.4 74.2035C210.09 74.4301 209.657 74.3518 209.434 74.0467C209.211 73.7417 209.282 73.3146 209.592 73.088C210.273 72.4692 211.903 71.8418 213.956 71.5107C214.43 71.4322 214.925 71.3886 215.436 71.3625C215.923 71.345 216.423 71.3538 216.923 71.3974C217.667 71.4671 218.409 71.6152 219.128 71.8157C220.983 72.3298 222.659 73.1578 223.796 74.343C224.086 74.587 224.12 75.0228 223.871 75.3103C223.622 75.5979 223.185 75.6328 222.895 75.3888C222.235 74.9356 221.44 74.6655 220.578 74.4476C219.768 74.2384 218.906 74.1425 218.028 74.0728C217.507 74.0292 216.985 74.0118 216.467 73.9857C215.934 73.9595 215.41 73.9247 214.899 73.8985C213.645 73.8375 212.505 73.8114 211.611 73.9334C211.093 74.0032 210.673 74.0641 210.4 74.2035Z" fill="#25272C"/>
<path fill-rule="evenodd" clip-rule="evenodd" d="M225.715 125.795C225.337 125.743 225.073 125.395 225.127 125.02C225.18 124.645 225.53 124.384 225.909 124.436C227.576 124.462 228.933 124.14 230.136 123.783C230.592 123.643 231.016 123.495 231.421 123.355C231.869 123.19 232.291 123.042 232.681 122.867C235.128 121.787 236.375 120.201 236.375 120.201C236.558 119.869 236.979 119.747 237.314 119.922C237.65 120.105 237.774 120.523 237.591 120.854C237.591 120.854 236.903 122.554 235.014 124.183C234.363 124.741 233.572 125.299 232.598 125.7C231.976 125.961 231.278 126.153 230.521 126.24C229.109 126.406 227.523 126.275 225.715 125.795Z" fill="#25272C"/>
<path fill-rule="evenodd" clip-rule="evenodd" d="M222.85 88.9589C223.058 89.4821 223.018 90.0781 222.738 90.6157C222.457 91.1532 221.96 91.5883 221.355 91.8252C220.75 92.0622 220.087 92.0816 219.512 91.8792C218.937 91.6767 218.496 91.269 218.288 90.7457C218.079 90.2225 218.12 89.6265 218.4 89.089C218.68 88.5514 219.178 88.1163 219.783 87.8794C220.388 87.6424 221.051 87.623 221.626 87.8255C222.201 88.0279 222.641 88.4356 222.85 88.9589Z" fill="#1D64F3"/>
<path fill-rule="evenodd" clip-rule="evenodd" d="M243.495 91.1248C243.704 91.6481 243.663 92.2441 243.383 92.7816C243.103 93.3192 242.605 93.7542 242 93.9912C241.395 94.2281 240.732 94.2476 240.157 94.0451C239.582 93.8427 239.142 93.435 238.933 92.9117C238.725 92.3884 238.765 91.7925 239.046 91.2549C239.326 90.7174 239.823 90.2823 240.428 90.0454C241.033 89.8084 241.696 89.789 242.271 89.9914C242.847 90.1939 243.287 90.6016 243.495 91.1248Z" fill="#1D64F3"/>
<path fill-rule="evenodd" clip-rule="evenodd" d="M215.366 163.531C215.064 163.296 215.009 162.869 215.243 162.564C215.476 162.267 215.911 162.215 216.214 162.441C218.387 163.914 220.828 165.161 223.433 165.971C224.262 166.233 225.107 166.433 225.967 166.599C226.804 166.747 227.655 166.851 228.521 166.904C229.77 166.973 231.048 166.939 232.364 166.721C235.042 166.259 237.857 165.134 240.767 162.982C241.061 162.738 241.497 162.773 241.742 163.069C241.986 163.357 241.946 163.792 241.652 164.036C238.711 166.721 235.755 168.289 232.861 169.021C231.351 169.405 229.854 169.562 228.395 169.509C227.386 169.475 226.394 169.326 225.429 169.1C224.463 168.873 223.523 168.568 222.614 168.185C219.917 167.052 217.494 165.37 215.366 163.531Z" fill="#25272C"/>
<path fill-rule="evenodd" clip-rule="evenodd" d="M251.67 174.703C251.686 174.329 252.009 174.032 252.39 174.05C252.772 174.067 253.069 174.381 253.054 174.764C253.12 176.943 253.532 179.148 254.079 181.344C254.258 182.068 254.455 182.773 254.653 183.488C254.854 184.203 255.066 184.917 255.272 185.623C255.591 186.713 255.907 187.776 256.256 188.813C257.192 191.584 258.255 194.077 259.374 195.985C259.586 196.299 259.5 196.726 259.182 196.935C258.864 197.144 258.434 197.066 258.222 196.743C256.809 194.905 255.307 192.473 254.042 189.667C253.566 188.621 253.121 187.523 252.754 186.382C252.514 185.641 252.314 184.874 252.144 184.107C251.975 183.34 251.842 182.556 251.741 181.78C251.438 179.401 251.407 177.004 251.67 174.703Z" fill="#25272C"/>
<path fill-rule="evenodd" clip-rule="evenodd" d="M247.13 157.047C246.926 156.725 247.024 156.307 247.347 156.106C247.67 155.897 248.098 156.002 248.302 156.315C248.759 156.769 249.299 157.248 249.858 157.875C250.02 158.058 250.171 158.25 250.315 158.468C250.453 158.668 250.583 158.877 250.689 159.104C250.848 159.453 250.966 159.81 251.063 160.176C251.3 161.082 251.425 161.962 251.412 162.86C251.483 163.235 251.234 163.592 250.859 163.662C250.483 163.732 250.121 163.488 250.052 163.113C249.757 162.389 249.294 161.753 248.848 161.074C248.673 160.804 248.488 160.551 248.332 160.281C248.226 160.089 248.137 159.897 248.053 159.705C247.941 159.444 247.854 159.191 247.762 158.939C247.504 158.224 247.32 157.597 247.13 157.047Z" fill="#25272C"/>
<path fill-rule="evenodd" clip-rule="evenodd" d="M249.019 153.43C249.035 153.178 249.158 152.968 249.528 152.986C249.681 152.995 249.954 153.056 250.367 153.169C250.747 153.273 251.15 153.483 251.628 153.805C251.837 153.944 252.026 154.119 252.221 154.328C252.39 154.511 252.548 154.72 252.673 154.964C252.838 155.278 252.968 155.635 253.04 156.045C253.166 156.768 253.198 157.553 253.032 158.529C253.053 158.903 252.761 159.234 252.38 159.252C251.998 159.269 251.67 158.982 251.649 158.607C251.466 157.979 251.198 157.518 250.95 157.073C250.826 156.855 250.67 156.681 250.552 156.489C250.429 156.297 250.302 156.123 250.202 155.949C249.579 154.868 249.043 154.302 249.043 154.302C248.674 154.197 248.456 153.822 248.556 153.456C248.627 153.204 248.836 153.021 249.019 153.43Z" fill="#25272C"/>
<path fill-rule="evenodd" clip-rule="evenodd" d="M220.203 149.927C214.717 153.064 207.687 160.821 201.49 169.074C194.211 178.782 188.093 189.205 187.127 193.911C187.054 194.286 186.69 194.521 186.314 194.451C185.94 194.382 185.695 194.016 185.769 193.641C186.691 188.822 192.739 178.041 200.057 168.037C206.995 158.537 215.09 149.762 220.935 147.208C221.52 146.955 221.933 147.121 222.209 147.339C222.427 147.496 222.63 147.766 222.681 148.201C222.707 148.419 222.68 148.768 222.586 149.213C222.377 150.189 221.82 151.932 221.685 153.735C221.585 155.06 221.7 156.437 222.546 157.465C223.79 158.973 226.431 159.574 231.544 158.685C234.12 158.232 236.281 157.282 238.119 156.167C240.651 154.642 242.578 152.785 244.124 151.426C245.376 150.319 246.445 149.526 247.348 149.247C250.095 148.402 257.355 147.295 264.68 149.866C269.518 151.566 274.383 154.86 278.006 160.847C283.351 169.745 287.75 182.076 290.534 195.828C292.902 207.515 294.101 220.239 293.79 232.718C293.707 235.995 292.892 240.623 290.813 243.873C289.246 246.313 286.991 247.996 283.877 247.969C273.993 247.908 266.669 246.226 260.856 243.15C253.888 239.464 249.08 233.764 244.666 226.339C244.47 226.016 244.577 225.59 244.905 225.398C245.233 225.206 245.659 225.311 245.855 225.633C250.194 232.745 254.866 238.217 261.626 241.703C267.264 244.605 274.349 246.122 283.88 246.078C286.268 246.069 287.947 244.701 289.129 242.819C290.984 239.864 291.648 235.655 291.695 232.675C291.888 220.361 290.566 207.829 288.146 196.308C285.328 182.896 281.014 170.86 275.746 162.189C272.501 156.812 268.142 153.849 263.804 152.306C257.167 149.953 250.581 150.886 248.086 151.635C247.426 151.836 246.695 152.481 245.778 153.282C244.133 154.712 242.069 156.637 239.378 158.232C237.297 159.47 234.849 160.507 231.942 160.986C225.542 162.041 222.333 160.76 220.801 158.86C219.93 157.779 219.545 156.455 219.472 155.078C219.377 153.256 219.832 151.339 220.203 149.927Z" fill="#25272C"/>
<path fill-rule="evenodd" clip-rule="evenodd" d="M282.028 222.104C282.263 222.4 282.208 222.835 281.906 223.062C281.605 223.297 281.169 223.245 280.935 222.94C279.587 221.415 277.477 219.297 275.086 216.997C274.25 216.186 273.378 215.367 272.504 214.53C271.556 213.615 270.601 212.691 269.651 211.794C268.671 210.87 267.714 209.955 266.76 209.127C264.209 206.896 261.814 205.171 259.91 204.752C259.533 204.691 259.279 204.334 259.342 203.968C259.405 203.593 259.762 203.34 260.139 203.401C261.692 203.576 263.628 204.43 265.731 205.728C267.259 206.678 268.876 207.855 270.482 209.171C271.369 209.903 272.256 210.67 273.106 211.48C273.952 212.282 274.767 213.119 275.539 213.964C278.318 217.014 280.618 220.082 282.028 222.104Z" fill="#25272C"/>
<path fill-rule="evenodd" clip-rule="evenodd" d="M256.964 206.277C256.679 206.53 256.241 206.504 255.987 206.225C255.733 205.938 255.757 205.51 256.042 205.258C256.993 204.334 257.961 203.672 258.788 203.375C259.511 203.114 260.164 203.149 260.704 203.402C261.501 203.768 262.152 204.77 262.202 206.766C262.218 207.428 262.14 208.142 261.993 208.901C261.811 209.842 261.505 210.835 261.109 211.864C260.389 213.659 259.389 215.541 258.188 217.258C257.384 218.4 256.491 219.481 255.567 220.413C253.497 222.522 251.253 223.925 249.402 224.169C246.499 224.535 244.846 223.341 244.058 221.546C243 219.132 243.656 215.463 244.954 213.467C245.149 213.136 245.575 213.032 245.902 213.223C246.231 213.415 246.34 213.842 246.145 214.165C245.369 215.585 244.994 217.903 245.45 219.742C245.655 220.57 246.049 221.293 246.725 221.703C247.294 222.051 248.059 222.13 249.047 221.947C250.497 221.685 252.099 220.343 253.685 218.644C254.5 217.764 255.295 216.779 256.045 215.75C257.172 214.208 258.206 212.561 258.939 210.949C259.279 210.234 259.568 209.528 259.781 208.848C260.017 208.099 260.176 207.384 260.21 206.739C260.241 206.129 260.216 205.667 260.099 205.319C260.008 205.057 259.879 204.883 259.65 204.892C258.914 204.9 257.962 205.467 256.964 206.277Z" fill="#25272C"/>
<path fill-rule="evenodd" clip-rule="evenodd" d="M210.468 193.005C210.646 193.074 211.041 193.1 211.29 193.092C211.435 193.083 211.585 193.074 211.736 193.04C212.187 192.935 212.65 192.708 213.015 192.299C214.062 191.122 215.176 189.423 216.313 188.246C217.033 187.506 217.775 186.965 218.503 186.774C219.178 186.599 220.127 186.617 221.089 186.756C222.798 187.009 224.546 187.567 224.546 187.567C224.912 187.68 225.118 188.063 225.005 188.429C224.893 188.787 224.505 188.996 224.14 188.883C224.14 188.883 222.496 188.412 220.898 188.238C220.164 188.159 219.442 188.133 218.934 188.29C218.45 188.429 217.997 188.856 217.531 189.37C216.448 190.564 215.407 192.29 214.413 193.484C213.428 194.669 211.994 195.07 210.846 195C209.263 194.905 208.307 193.832 208.478 192.726C208.734 191.087 209.752 188.569 211.274 186.207C212.618 184.124 214.365 182.189 216.285 181.057C217.656 180.246 220.604 179.854 224.025 179.95C227.647 180.046 231.814 180.638 235.018 181.51C236.922 182.041 238.914 183.174 240.892 184.743C243.166 186.547 245.445 188.935 247.608 191.558C253.513 198.721 258.591 207.654 260.614 211.053C260.814 211.376 260.713 211.794 260.388 211.994C260.063 212.195 259.635 212.09 259.435 211.768C257.312 208.491 251.937 199.889 245.874 193.013C243.741 190.591 241.523 188.386 239.329 186.721C237.622 185.423 235.94 184.455 234.318 184.02C231.295 183.183 227.358 182.625 223.936 182.486C221.104 182.364 218.638 182.468 217.488 183.113C215.82 184.037 214.31 185.675 213.111 187.418C211.73 189.423 210.749 191.575 210.468 193.005ZM210.463 193.005C210.464 192.935 210.446 192.839 210.407 192.874C210.35 192.926 210.381 192.97 210.463 193.005Z" fill="#25272C"/>
<path fill-rule="evenodd" clip-rule="evenodd" d="M240.255 202.286C239.984 202.024 239.982 201.589 240.252 201.319C240.521 201.048 240.96 201.048 241.231 201.31C241.231 201.31 243.488 203.175 246.28 206.016C246.795 206.539 247.323 207.096 247.85 207.698C248.346 208.256 248.843 208.848 249.32 209.467C250.015 210.373 250.674 211.323 251.302 212.308C252.85 214.705 254.17 217.223 254.997 219.533C255.148 219.881 254.983 220.291 254.632 220.439C254.28 220.587 253.873 220.421 253.724 220.073C252.809 218.269 251.493 216.395 250.058 214.548C249.42 213.72 248.75 212.918 248.098 212.116C247.429 211.288 246.765 210.469 246.134 209.676C245.521 208.909 244.948 208.16 244.399 207.454C242.047 204.421 240.255 202.286 240.255 202.286Z" fill="#25272C"/>
<path fill-rule="evenodd" clip-rule="evenodd" d="M250.557 213.302C252.088 215.463 253.459 217.711 254.36 219.803C252.616 221.563 250.792 222.809 249.224 223.053C247.622 223.306 246.485 222.94 245.718 222.217C245.215 215.227 250.557 213.302 250.557 213.302Z" fill="#25272C"/>
<path fill-rule="evenodd" clip-rule="evenodd" d="M238.906 198.852C239.212 198.626 239.646 198.687 239.874 198.992C240.102 199.297 240.037 199.733 239.73 199.959C239.077 200.578 237.536 201.205 235.445 201.179C234.985 201.17 234.502 201.118 233.998 201.014C233.547 200.918 233.082 200.787 232.617 200.587C231.997 200.334 231.376 199.977 230.761 199.532C229.615 198.704 228.498 197.589 227.447 196.09C227.195 195.802 227.224 195.375 227.512 195.122C227.8 194.87 228.238 194.905 228.489 195.183C229.145 195.776 229.801 196.238 230.439 196.656C231.537 197.38 232.605 197.815 233.584 198.164C233.954 198.295 234.303 198.425 234.645 198.53C235.022 198.643 235.377 198.756 235.723 198.835C236.634 199.035 237.417 199.122 238.044 199.044C238.405 199 238.701 198.966 238.906 198.852Z" fill="#25272C"/>
<path fill-rule="evenodd" clip-rule="evenodd" d="M225.992 186.87C226.36 186.765 226.743 186.983 226.846 187.34C226.951 187.706 226.737 188.09 226.369 188.194C225.239 188.604 224.205 189.223 223.375 189.963C222.571 190.678 222.018 191.541 221.904 192.491C221.751 193.441 221.691 194.565 221.757 195.541C221.789 196.003 221.822 196.43 221.959 196.761C221.994 196.848 222.013 196.935 222.066 196.996C222.088 197.022 222.091 197.066 222.127 197.066C222.166 197.075 222.191 197.127 222.217 197.11C222.307 197.049 222.385 196.97 222.447 196.857C222.535 196.691 222.62 196.508 222.693 196.317C223.136 195.123 223.449 193.571 224.261 192.604C224.703 192.072 225.249 191.663 226.005 191.515C226.375 191.427 226.754 191.645 226.851 192.011C226.947 192.377 226.725 192.752 226.356 192.848C225.542 193.118 225.323 193.929 225.126 194.748C224.849 195.924 224.714 197.188 224.308 198.016C223.862 198.931 223.13 199.419 222.011 199.436C220.77 199.428 219.914 198.635 219.455 197.354C219.182 196.587 219.07 195.602 219.109 194.582C219.142 193.711 219.293 192.822 219.464 192.046C219.767 190.861 220.442 189.789 221.465 188.935C222.671 187.941 224.279 187.209 225.992 186.87Z" fill="#25272C"/>
<path fill-rule="evenodd" clip-rule="evenodd" d="M214.977 171.662C215.016 171.287 215.356 171.008 215.736 171.052C216.116 171.087 216.393 171.427 216.355 171.801C216.355 171.801 216.474 173.048 216.65 174.764C216.69 175.165 216.744 175.584 216.767 176.019C216.794 176.56 216.804 177.117 216.801 177.675C216.798 178.52 216.742 179.348 216.786 180.133C216.827 180.865 216.871 181.518 217.045 182.076C217.208 182.416 217.059 182.826 216.712 182.991C216.367 183.148 215.954 183 215.792 182.66C215.167 181.693 214.709 180.324 214.409 178.817C214.299 178.268 214.213 177.71 214.178 177.144C214.155 176.769 214.162 176.394 214.182 176.028C214.203 175.645 214.243 175.279 214.295 174.921C214.575 173.03 214.977 171.662 214.977 171.662Z" fill="#25272C"/>
<path fill-rule="evenodd" clip-rule="evenodd" d="M289.34 251.29C289.192 250.941 289.357 250.54 289.709 250.392C290.062 250.244 290.468 250.41 290.616 250.758C291.523 252.641 292.309 256.493 292.728 261.129C292.829 262.253 292.905 263.412 292.946 264.606C292.984 265.748 292.997 266.916 292.968 268.092C292.923 269.826 292.796 271.587 292.625 273.304C292.167 277.888 291.338 282.202 290.231 285.295C290.117 285.661 289.73 285.862 289.365 285.749C288.999 285.644 288.794 285.252 288.908 284.895C289.837 281.435 290.196 276.511 290.298 271.447C290.325 270.088 290.331 268.72 290.342 267.369C290.354 265.983 290.366 264.615 290.365 263.29C290.362 260.589 290.313 258.079 290.132 255.97C289.96 253.957 289.719 252.327 289.34 251.29Z" fill="#25272C"/>
<path fill-rule="evenodd" clip-rule="evenodd" d="M289.917 200.482C289.544 200.403 289.308 200.029 289.392 199.663C289.474 199.297 289.845 199.061 290.218 199.14C296.288 200.386 303.569 205.249 309.099 213.101C313.203 218.922 316.323 226.4 317.311 235.211C317.647 238.479 317.858 242.165 317.876 246.008C317.899 251.351 317.578 256.989 316.918 262.157C315.957 269.695 314.223 276.249 311.762 279.622C309.681 282.471 306.618 284.354 303.313 285.574C297.573 287.692 291.133 287.814 288.352 287.848C287.971 287.857 287.652 287.561 287.642 287.177C287.632 286.803 287.934 286.489 288.316 286.471C290.993 286.367 297.195 286.105 302.672 283.927C305.595 282.768 308.313 281.051 310.107 278.463C312.356 275.229 313.736 268.998 314.516 261.878C315.072 256.797 315.286 251.264 315.239 246.026C315.205 242.27 315.051 238.662 314.736 235.463C313.981 227.062 311.146 219.899 307.384 214.251C302.339 206.687 295.631 201.833 289.917 200.482Z" fill="#25272C"/>
<path fill-rule="evenodd" clip-rule="evenodd" d="M297.588 234.078C297.318 233.816 297.318 233.381 297.588 233.11C297.857 232.84 298.296 232.84 298.567 233.11C300.642 234.984 303.203 237.668 305.291 241.79C305.817 242.827 306.307 243.96 306.738 245.189C307.123 246.287 307.467 247.464 307.738 248.736C308.094 250.392 308.332 252.205 308.451 254.174C308.674 257.817 308.459 261.983 307.71 266.767C307.666 267.151 307.324 267.421 306.944 267.377C306.564 267.334 306.291 266.994 306.335 266.619C306.7 261.774 306.514 257.634 306.039 254.044C305.805 252.283 305.488 250.662 305.134 249.163C304.871 248.039 304.59 246.985 304.282 245.991C303.848 244.588 303.376 243.307 302.86 242.139C301.24 238.479 299.269 235.908 297.588 234.078Z" fill="#25272C"/>
<path fill-rule="evenodd" clip-rule="evenodd" d="M258.733 249.39C258.431 249.163 258.375 248.727 258.609 248.431C258.842 248.126 259.277 248.074 259.58 248.309C260.455 248.788 261.376 249.451 262.915 249.956C263.155 250.035 263.41 250.113 263.682 250.209C264.049 250.322 264.438 250.471 264.884 250.584C265.808 250.819 266.876 251.063 268.248 251.141C268.628 251.115 268.962 251.394 268.993 251.769C269.024 252.152 268.739 252.484 268.358 252.51C266.899 252.841 265.701 252.963 264.65 252.937C264.03 252.928 263.474 252.85 262.974 252.719C262.575 252.623 262.216 252.475 261.892 252.309C261.52 252.126 261.194 251.917 260.904 251.699C260.313 251.237 259.864 250.775 259.474 250.305C259.2 249.974 258.982 249.669 258.733 249.39Z" fill="#25272C"/>
<path fill-rule="evenodd" clip-rule="evenodd" d="M259.846 255.734C259.519 255.543 259.414 255.115 259.611 254.793C259.809 254.471 260.235 254.366 260.562 254.566C260.562 254.566 261.16 254.723 262.277 254.863C262.76 254.924 263.321 254.915 263.982 254.967C264.333 254.985 264.709 255.02 265.108 255.063C265.887 255.15 266.734 255.29 267.707 255.333C268.279 255.351 268.863 255.394 269.505 255.377C269.88 255.307 270.241 255.551 270.311 255.926C270.379 256.301 270.131 256.658 269.755 256.728C268.488 257.155 267.355 257.425 266.292 257.565C265.743 257.634 265.226 257.66 264.737 257.643C264.372 257.625 264.025 257.573 263.702 257.512C263.334 257.434 262.998 257.338 262.688 257.233C260.743 256.545 259.846 255.734 259.846 255.734Z" fill="#25272C"/>
<path fill-rule="evenodd" clip-rule="evenodd" d="M247.694 284.136C248.297 289.574 247.948 293.382 246.01 295.666C244.54 297.4 242.149 298.332 238.46 298.385C237.248 298.402 216.256 297.609 192.537 296.677C161.604 295.457 126.032 293.993 123.699 293.844C121.161 293.679 118.531 293.016 116.608 291.788C114.947 290.733 113.795 289.26 113.492 287.387C113.122 285.068 108.265 261.608 105.2 238.575C103.575 226.374 102.469 214.286 102.738 205.51C102.8 203.532 103.751 202.242 105.372 201.406C107.399 200.369 110.738 200.159 114.641 200.116C116.098 200.107 136.633 200.334 159.814 200.63C190.064 201.014 224.821 201.493 227.539 201.554C230.218 201.606 232.999 202.582 235.227 205.04C237.298 207.34 238.909 210.966 239.4 216.474C239.491 217.493 240.132 222.775 241.02 229.982C243.336 248.789 247.333 280.641 247.694 284.136ZM246.316 284.276C245.932 280.79 241.711 248.98 239.266 230.2C238.325 222.966 237.646 217.668 237.548 216.639C237.17 212.709 236.208 209.816 234.882 207.759C232.916 204.709 230.148 203.567 227.503 203.523L114.671 202.678C111.835 202.713 109.324 202.791 107.517 203.332C106.248 203.706 105.387 204.325 105.35 205.589C105.089 214.26 106.224 226.182 107.809 238.235C110.834 261.242 115.552 284.694 115.914 287.012C116.098 288.197 116.876 289.095 117.924 289.766C119.528 290.803 121.737 291.334 123.86 291.483C125.906 291.631 153.535 292.947 181.155 294.254C209.103 295.57 237.04 296.868 238.444 296.851C241.562 296.833 243.628 296.171 244.883 294.716C246.651 292.668 246.822 289.208 246.316 284.276Z" fill="#25272C"/>
<path fill-rule="evenodd" clip-rule="evenodd" d="M172.774 232.553C175.394 232.143 177.824 233.285 179.651 235.664C181.468 238.026 182.645 241.677 182.744 246.261C182.76 249.538 180.7 252.693 177.999 253.991C175.288 255.298 171.921 254.915 169.403 251.133C167.142 247.664 166.715 242.854 167.607 239.01C168.434 235.446 170.393 232.779 172.774 232.553ZM172.945 233.921C172.193 234.034 171.559 234.522 171.02 235.228C169.959 236.605 169.331 238.81 169.201 241.198C169.04 244.143 169.668 247.385 171.4 249.791C173.064 252.144 175.126 252.475 176.846 251.638C178.75 250.723 180.249 248.553 180.29 246.244C180.43 242.2 179.609 238.915 178.137 236.736C176.824 234.793 175.014 233.729 172.945 233.921Z" fill="#1D64F3"/>
<path fill-rule="evenodd" clip-rule="evenodd" d="M173.122 225.72C173.178 225.346 173.529 225.084 173.907 225.136C174.285 225.189 174.547 225.537 174.493 225.912C174.493 225.912 174.622 226.827 174.742 228.126C174.764 228.361 174.785 228.596 174.79 228.849C174.793 229.084 174.792 229.32 174.771 229.564C174.747 229.843 174.692 230.13 174.647 230.409C174.579 230.845 174.493 231.254 174.434 231.673C174.363 232.187 174.282 232.631 174.276 233.067C174.346 233.433 174.099 233.799 173.723 233.869C173.347 233.938 172.985 233.694 172.915 233.32C172.611 232.544 172.379 231.612 172.234 230.601C172.178 230.209 172.138 229.825 172.141 229.433C172.143 229.18 172.172 228.919 172.211 228.675C172.252 228.405 172.308 228.16 172.374 227.916C172.735 226.6 173.122 225.72 173.122 225.72Z" fill="#1D64F3"/>
<path fill-rule="evenodd" clip-rule="evenodd" d="M185.739 234.644C186.097 234.514 186.497 234.688 186.632 235.045C186.767 235.394 186.587 235.795 186.229 235.925C186.229 235.925 185.583 236.448 184.626 237.128C184.454 237.25 184.281 237.381 184.086 237.494C183.908 237.599 183.721 237.703 183.524 237.799C183.292 237.904 183.051 237.973 182.811 238.069C182.439 238.2 182.082 238.305 181.738 238.444C181.316 238.61 180.939 238.732 180.635 238.932C180.367 239.202 179.929 239.202 179.656 238.941C179.384 238.671 179.379 238.235 179.647 237.965C180.046 237.346 180.683 236.701 181.455 236.082C181.732 235.856 182.02 235.646 182.33 235.472C182.536 235.35 182.754 235.263 182.969 235.185C183.198 235.098 183.421 235.037 183.642 234.984C184.858 234.705 185.739 234.644 185.739 234.644Z" fill="#1D64F3"/>
<path fill-rule="evenodd" clip-rule="evenodd" d="M186.567 251.804C186.773 252.126 186.68 252.553 186.36 252.754C186.038 252.963 185.609 252.867 185.402 252.553C185.402 252.553 184.835 252.118 184.004 251.464C183.819 251.316 183.625 251.176 183.431 251.002C183.293 250.88 183.152 250.758 183.022 250.61C182.833 250.409 182.673 250.174 182.492 249.956C182.028 249.39 181.633 248.815 181.075 248.448C180.719 248.309 180.544 247.908 180.683 247.56C180.822 247.202 181.224 247.028 181.58 247.167C182.415 247.298 183.217 247.656 184.012 248.126C184.326 248.309 184.618 248.518 184.882 248.762C185.058 248.919 185.212 249.102 185.349 249.285C185.496 249.486 185.619 249.677 185.728 249.878C186.323 250.976 186.567 251.804 186.567 251.804Z" fill="#1D64F3"/>
<path fill-rule="evenodd" clip-rule="evenodd" d="M176.622 260.902C176.637 261.277 176.338 261.599 175.957 261.617C175.575 261.625 175.254 261.329 175.239 260.954C175.239 260.954 174.944 260.013 174.677 258.662C174.628 258.418 174.585 258.166 174.558 257.895C174.533 257.643 174.516 257.381 174.524 257.129C174.535 256.736 174.589 256.353 174.647 255.97C174.805 254.915 175.03 253.965 175.223 253.242C175.253 252.867 175.587 252.579 175.967 252.614C176.348 252.64 176.633 252.972 176.603 253.355C176.677 254.052 176.876 254.967 177.024 255.97C177.079 256.344 177.138 256.719 177.156 257.102C177.17 257.355 177.159 257.608 177.142 257.852C177.125 258.122 177.091 258.366 177.053 258.61C176.846 259.952 176.622 260.902 176.622 260.902Z" fill="#1D64F3"/>
<path fill-rule="evenodd" clip-rule="evenodd" d="M166.824 256.013C166.724 256.379 166.343 256.597 165.974 256.492C165.606 256.396 165.388 256.022 165.488 255.656C165.488 255.656 165.499 254.714 165.919 253.32C165.991 253.076 166.086 252.841 166.204 252.588C166.313 252.361 166.441 252.126 166.601 251.908C166.826 251.603 167.093 251.307 167.399 251.028C168.049 250.436 168.781 249.913 169.667 249.451C169.965 249.215 170.401 249.268 170.64 249.564C170.877 249.86 170.828 250.296 170.529 250.531C170.226 250.897 170.005 251.263 169.758 251.638C169.367 252.222 169.109 252.815 168.799 253.346C168.687 253.538 168.557 253.712 168.437 253.878C168.302 254.069 168.162 254.226 168.033 254.401C167.27 255.368 166.824 256.013 166.824 256.013Z" fill="#1D64F3"/>
<path fill-rule="evenodd" clip-rule="evenodd" d="M160.627 240.954C160.247 240.989 159.912 240.701 159.881 240.327C159.849 239.952 160.132 239.621 160.514 239.586C160.514 239.586 161.468 239.255 162.896 239.011C163.154 238.967 163.42 238.941 163.703 238.924C163.966 238.906 164.24 238.906 164.515 238.932C164.919 238.967 165.322 239.054 165.727 239.159C166.73 239.411 167.665 239.76 168.476 240.205C168.838 240.318 169.034 240.71 168.913 241.067C168.792 241.425 168.399 241.625 168.037 241.503C167.217 241.39 166.327 241.468 165.402 241.503C165.043 241.521 164.69 241.547 164.341 241.538C164.099 241.538 163.862 241.512 163.633 241.486C163.317 241.451 163.024 241.39 162.741 241.346C161.48 241.128 160.627 240.954 160.627 240.954Z" fill="#1D64F3"/>
</g>
<path fill-rule="evenodd" clip-rule="evenodd" d="M147.144 89.3003C146.899 89.3141 146.507 89.3476 146.159 89.4283C142.245 90.3328 133.618 94.6306 124.242 97.5717C118.48 99.3787 112.44 100.654 107.027 100.471C106.974 100.678 106.863 101.143 106.846 101.512C106.836 101.731 106.835 101.965 106.841 102.212C106.898 104.518 107.576 107.818 108.476 111.128C109.887 116.33 111.817 121.602 112.939 123.06C113.012 123.089 113.209 123.148 113.361 123.168C113.799 123.227 114.352 123.217 115 123.168C117.824 122.932 122.255 121.808 127.004 120.36C136.342 117.513 146.894 113.434 148.956 112.104C149.294 111.877 149.737 111.995 149.947 112.36C150.156 112.724 150.051 113.197 149.713 113.424C147.366 115.03 133.959 120.636 123.81 123.7C119.941 124.873 116.533 125.651 114.364 125.759C112.732 125.838 111.646 125.405 111.176 124.843C110.505 124.045 109.503 122.045 108.487 119.464C107.011 115.71 105.442 110.695 104.649 106.576C104.03 103.367 103.956 100.651 104.508 99.2674C104.989 98.0604 105.818 97.4653 106.975 97.5126C112.807 97.7954 119.415 96.21 125.582 94.2473C133.064 91.8659 139.907 88.9013 143.977 87.6628C145.841 87.0963 147.216 86.9248 147.933 87.1494C148.766 87.4115 149.186 87.98 149.176 88.8816C149.145 91.533 149.446 94.672 149.867 97.7353C150.802 104.539 152.338 110.97 152.338 110.97C152.444 111.384 152.218 111.808 151.835 111.916C151.451 112.035 151.055 111.788 150.949 111.374C150.949 111.374 149.201 104.915 148.072 98.0495C147.579 95.0435 147.21 91.9606 147.144 89.3003Z" fill="#25272C"/>
<path fill-rule="evenodd" clip-rule="evenodd" d="M105.138 102.585C104.786 102.386 104.651 101.916 104.835 101.537C105.02 101.158 105.455 101.011 105.807 101.21C105.807 101.21 113.603 105.184 119.636 107.591C122.103 108.566 124.224 109.355 125.285 109.236C126.14 109.167 127.229 108.547 128.492 107.69C130.006 106.675 131.706 105.303 133.424 103.797C139.107 98.8151 144.958 92.4108 144.958 92.4108C145.226 92.0936 145.681 92.0709 145.975 92.3586C146.269 92.6473 146.29 93.139 146.023 93.4552C146.023 93.4552 143.329 96.9185 139.8 100.839C137.695 103.179 135.297 105.676 133.008 107.709C131.601 108.96 130.231 110.034 128.996 110.793C127.665 111.621 126.455 112.074 125.499 112.163C124.924 112.202 124.113 112.094 123.144 111.818C121.914 111.463 120.37 110.852 118.712 110.084C112.724 107.295 105.138 102.585 105.138 102.585Z" fill="#1D64F3"/>
<path fill-rule="evenodd" clip-rule="evenodd" d="M100.443 95.0069C100.771 94.7665 101.22 94.8581 101.443 95.2128C101.666 95.5665 101.581 96.0493 101.252 96.2907C101.252 96.2907 100.296 97.3085 99.1232 98.7144C98.6981 99.2238 98.262 99.7854 97.8158 100.359C97.5388 100.716 97.2654 101.077 96.9966 101.433C96.5944 101.964 96.1958 102.466 95.9142 103.005C95.4241 103.947 95.1169 104.883 95.6911 105.817C95.9498 106.142 95.916 106.635 95.6152 106.911C95.3144 107.197 94.8591 107.157 94.5994 106.832C93.3204 105.594 93.2034 103.981 93.6175 102.287C93.7629 101.695 94.0143 101.11 94.3179 100.524C94.5327 100.108 94.7814 99.6958 95.0694 99.3105C95.479 98.7617 95.9526 98.2563 96.4417 97.8001C96.9519 97.3242 97.4721 96.9094 97.9713 96.5508C99.3454 95.5625 100.443 95.0069 100.443 95.0069Z" fill="#25272C"/>
<path fill-rule="evenodd" clip-rule="evenodd" d="M81.3766 183.282C81.6295 183.265 81.8039 183.54 81.7662 183.894C81.7284 184.249 81.4924 184.55 81.2399 184.566C80.1197 184.66 79.0116 184.114 78.4076 183.373C77.8867 182.735 77.749 181.914 77.9813 181.189C78.1995 180.511 78.5712 180.081 79.0358 179.805C79.6915 179.416 80.5968 179.423 81.3578 179.281C81.5254 179.249 81.683 179.208 81.8243 179.143C81.9309 179.094 82.0304 179.047 82.0726 178.909C82.1987 178.496 81.9761 178.273 81.7464 178.029C81.2081 177.456 80.3995 177.015 79.9318 176.45C79.5233 175.956 79.3407 175.352 79.4302 174.661C79.4903 174.2 79.6317 173.838 79.8139 173.547C80.0676 173.143 80.428 172.865 80.8745 172.726C81.6294 172.489 82.739 172.708 83.6822 172.656C83.9374 172.641 84.1759 172.607 84.3793 172.507C84.4741 172.46 84.5594 172.403 84.6016 172.273C84.6516 172.12 84.6023 172.014 84.5407 171.912C84.4502 171.761 84.3231 171.63 84.181 171.501C83.5088 170.889 82.5653 170.359 82.1291 169.587C81.7962 168.997 81.6842 168.294 81.9166 167.418C82.1285 166.625 82.614 166.047 83.3079 165.702C84.073 165.321 85.152 165.222 86.0496 164.985C86.3151 164.914 86.5606 164.834 86.7655 164.711C86.8609 164.653 86.9596 164.63 86.9885 164.513C87.0054 164.445 87.0293 164.391 87.0159 164.35C86.9928 164.279 86.9338 164.249 86.8718 164.212C86.771 164.153 86.6525 164.111 86.5241 164.075C85.7094 163.855 84.5976 163.854 84.0388 163.365C83.592 162.973 83.3663 162.371 83.5743 161.371C83.7363 160.593 84.0744 160.081 84.5248 159.734C85.0696 159.315 85.8331 159.191 86.5427 159.023C86.8158 158.957 87.0782 158.887 87.3016 158.749C87.4467 158.659 87.5763 158.547 87.6392 158.335C87.8711 157.554 87.558 156.75 87.1539 156.071C86.6778 155.271 86.0282 154.645 85.5986 154.551C85.3568 154.502 85.228 154.178 85.311 153.826C85.394 153.475 85.6575 153.229 85.8993 153.277C86.5448 153.393 87.6364 154.34 88.2558 155.593C88.7145 156.521 88.8931 157.615 88.6094 158.636C88.4164 159.33 88.0518 159.782 87.5826 160.089C87.0342 160.448 86.2972 160.558 85.6318 160.755C85.4205 160.818 85.2185 160.893 85.041 161.004C84.8781 161.105 84.7436 161.25 84.6934 161.511C84.6067 161.962 84.898 162.013 85.1904 162.096C85.6094 162.208 86.119 162.236 86.5774 162.305C87.006 162.37 87.3931 162.481 87.6717 162.68C88.1976 163.053 88.4421 163.678 88.1885 164.764C88.0035 165.557 87.5171 166.13 86.8085 166.477C86.0543 166.846 84.9821 166.954 84.09 167.221C83.8304 167.3 83.5905 167.391 83.3903 167.522C83.2975 167.583 83.206 167.626 83.1754 167.743C83.1231 167.943 83.1675 168.096 83.2407 168.232C83.3249 168.389 83.4442 168.524 83.5776 168.655C84.2311 169.297 85.172 169.798 85.6151 170.496C86.004 171.109 86.1192 171.84 85.8146 172.76C85.5191 173.647 84.9833 174.16 84.28 174.375C83.4663 174.622 82.3597 174.4 81.4558 174.411C81.2451 174.413 81.0493 174.427 80.8779 174.482C80.788 174.511 80.6969 174.523 80.6782 174.655C80.6618 174.77 80.7185 174.847 80.7744 174.935C80.887 175.113 81.0441 175.273 81.2192 175.43C81.8674 176.012 82.6973 176.564 83.0489 177.31C83.3124 177.869 83.3808 178.515 83.1267 179.298C82.8973 180.006 82.4805 180.444 81.922 180.665C81.2904 180.916 80.4224 180.843 79.6878 181.015C79.3635 181.091 79.0574 181.167 78.9191 181.571C78.8734 181.705 78.9242 181.829 78.985 181.961C79.1239 182.262 79.3758 182.538 79.6892 182.76C80.16 183.093 80.7639 183.308 81.3766 183.282Z" fill="#1D64F3"/>
</g>
<defs>
<clipPath id="clip0_2321_2584">
<rect width="411" height="256" fill="white"/>
</clipPath>
<clipPath id="clip1_2321_2584">
<rect width="245.029" height="268" fill="white" transform="translate(89.5751 37)"/>
</clipPath>
</defs>
</svg>
