<svg width="19" height="18" viewBox="0 0 19 18" fill="none" xmlns="http://www.w3.org/2000/svg">
<path d="M10.75 17H7.41667C4.27417 17 2.7025 17 1.72667 16.0233C0.750833 15.0467 0.75 13.4758 0.75 10.3333V8.66667C0.75 5.52417 0.75 3.9525 1.72667 2.97667C2.70333 2.00083 4.27417 2 7.41667 2H10.75C13.8925 2 15.4642 2 16.44 2.97667C17.4158 3.95333 17.4167 5.52417 17.4167 8.66667V10.3333C17.4167 13.4758 17.4167 15.0475 16.44 16.0233C15.8958 16.5683 15.1667 16.8092 14.0833 16.915M4.91667 2V0.75M13.25 2V0.75M17 6.16667H8.04167M0.75 6.16667H3.97917" stroke="#F54900" stroke-width="1.5" stroke-linecap="round"/>
<path d="M14.084 12.8337C14.084 13.0547 13.9962 13.2666 13.8399 13.4229C13.6836 13.5792 13.4717 13.667 13.2507 13.667C13.0296 13.667 12.8177 13.5792 12.6614 13.4229C12.5051 13.2666 12.4173 13.0547 12.4173 12.8337C12.4173 12.6126 12.5051 12.4007 12.6614 12.2444C12.8177 12.0881 13.0296 12.0003 13.2507 12.0003C13.4717 12.0003 13.6836 12.0881 13.8399 12.2444C13.9962 12.4007 14.084 12.6126 14.084 12.8337ZM14.084 9.50033C14.084 9.72134 13.9962 9.9333 13.8399 10.0896C13.6836 10.2459 13.4717 10.3337 13.2507 10.3337C13.0296 10.3337 12.8177 10.2459 12.6614 10.0896C12.5051 9.9333 12.4173 9.72134 12.4173 9.50033C12.4173 9.27931 12.5051 9.06735 12.6614 8.91107C12.8177 8.75479 13.0296 8.66699 13.2507 8.66699C13.4717 8.66699 13.6836 8.75479 13.8399 8.91107C13.9962 9.06735 14.084 9.27931 14.084 9.50033ZM9.91732 12.8337C9.91732 13.0547 9.82952 13.2666 9.67324 13.4229C9.51696 13.5792 9.305 13.667 9.08398 13.667C8.86297 13.667 8.65101 13.5792 8.49473 13.4229C8.33845 13.2666 8.25065 13.0547 8.25065 12.8337C8.25065 12.6126 8.33845 12.4007 8.49473 12.2444C8.65101 12.0881 8.86297 12.0003 9.08398 12.0003C9.305 12.0003 9.51696 12.0881 9.67324 12.2444C9.82952 12.4007 9.91732 12.6126 9.91732 12.8337ZM9.91732 9.50033C9.91732 9.72134 9.82952 9.9333 9.67324 10.0896C9.51696 10.2459 9.305 10.3337 9.08398 10.3337C8.86297 10.3337 8.65101 10.2459 8.49473 10.0896C8.33845 9.9333 8.25065 9.72134 8.25065 9.50033C8.25065 9.27931 8.33845 9.06735 8.49473 8.91107C8.65101 8.75479 8.86297 8.66699 9.08398 8.66699C9.305 8.66699 9.51696 8.75479 9.67324 8.91107C9.82952 9.06735 9.91732 9.27931 9.91732 9.50033ZM5.75065 12.8337C5.75065 13.0547 5.66285 13.2666 5.50657 13.4229C5.35029 13.5792 5.13833 13.667 4.91732 13.667C4.6963 13.667 4.48434 13.5792 4.32806 13.4229C4.17178 13.2666 4.08398 13.0547 4.08398 12.8337C4.08398 12.6126 4.17178 12.4007 4.32806 12.2444C4.48434 12.0881 4.6963 12.0003 4.91732 12.0003C5.13833 12.0003 5.35029 12.0881 5.50657 12.2444C5.66285 12.4007 5.75065 12.6126 5.75065 12.8337ZM5.75065 9.50033C5.75065 9.72134 5.66285 9.9333 5.50657 10.0896C5.35029 10.2459 5.13833 10.3337 4.91732 10.3337C4.6963 10.3337 4.48434 10.2459 4.32806 10.0896C4.17178 9.9333 4.08398 9.72134 4.08398 9.50033C4.08398 9.27931 4.17178 9.06735 4.32806 8.91107C4.48434 8.75479 4.6963 8.66699 4.91732 8.66699C5.13833 8.66699 5.35029 8.75479 5.50657 8.91107C5.66285 9.06735 5.75065 9.27931 5.75065 9.50033Z" fill="#F54900"/>
</svg>
