<svg width="22" height="22" viewBox="0 0 22 22" fill="none" xmlns="http://www.w3.org/2000/svg">
<path d="M10.75 20.75C12.0635 20.7516 13.3643 20.4937 14.5778 19.9911C15.7912 19.4884 16.8934 18.7509 17.821 17.821C18.7509 16.8934 19.4884 15.7912 19.9911 14.5778C20.4937 13.3643 20.7516 12.0635 20.75 10.75C20.7516 9.43655 20.4937 8.13572 19.9911 6.92225C19.4884 5.70878 18.7509 4.60659 17.821 3.67901C16.8934 2.74909 15.7912 2.01162 14.5778 1.50897C13.3643 1.00631 12.0635 0.748388 10.75 0.750008C9.43655 0.748388 8.13572 1.00631 6.92225 1.50897C5.70878 2.01162 4.60659 2.74909 3.67901 3.67901C2.74909 4.60659 2.01162 5.70878 1.50897 6.92225C1.00631 8.13572 0.748388 9.43655 0.750008 10.75C0.748388 12.0635 1.00631 13.3643 1.50897 14.5778C2.01162 15.7912 2.74909 16.8934 3.67901 17.821C4.60659 18.7509 5.70878 19.4884 6.92225 19.9911C8.13572 20.4937 9.43655 20.7516 10.75 20.75Z" stroke="#00A63D" stroke-width="1.5" stroke-linejoin="round"/>
<path d="M6.75001 10.75L9.75001 13.75L15.75 7.75" stroke="#00A63D" stroke-width="1.5" stroke-linecap="round" stroke-linejoin="round"/>
</svg>
