<svg width="20" height="20" viewBox="0 0 20 20" fill="none" xmlns="http://www.w3.org/2000/svg">
<g clip-path="url(#clip0_3515_2419)">
<path d="M18.9624 18.2121L9.61588 18.2133L9.0003 11.1372C8.97742 10.8878 9.13034 10.7176 9.38148 10.7137H19.2046C19.4367 10.7226 19.5779 10.8649 19.5802 11.0959L18.9629 18.2121H18.9624ZM14.1024 12.8698C13.0822 12.9792 12.3997 13.8876 12.518 14.8652C12.6341 15.8194 13.5058 16.5169 14.4691 16.417C15.4458 16.316 16.1635 15.4467 16.063 14.4607C15.9654 13.5071 15.1187 12.761 14.1024 12.8693V12.8698Z" fill="url(#paint0_linear_3515_2419)"/>
<path d="M8.28968 11.1054L8.39237 12.4167C7.21925 12.7733 6.10194 11.8688 5.18721 11.2527C4.62353 10.8727 4.23119 10.3264 4.11678 9.64679L3.92982 8.5358C3.90135 8.36505 3.77188 8.22109 3.58994 8.21774C3.18197 8.20993 2.86832 7.90693 2.8605 7.51131C2.85269 7.11568 3.15071 6.79985 3.55924 6.7859C3.77746 6.77809 3.93596 6.63022 3.92759 6.3953C3.91196 5.9461 4.19826 5.46455 4.67934 5.38922C5.75703 5.21958 6.78672 4.8965 7.72433 4.32845C7.77735 4.29664 7.93026 4.29162 7.98161 4.32175C8.93707 4.88534 9.96007 5.23074 11.0578 5.3814C11.5384 5.44725 11.7783 5.96731 11.7878 6.39976C11.7929 6.63691 11.9441 6.78088 12.1746 6.78925C12.5753 6.80431 12.8639 7.13689 12.8577 7.51075C12.8516 7.88461 12.5463 8.20546 12.1473 8.21383C11.9391 8.2222 11.8202 8.36394 11.785 8.55924L11.5239 9.99945H9.3696C8.77857 9.99945 8.23945 10.471 8.28912 11.1054H8.28968Z" fill="url(#paint1_linear_3515_2419)"/>
<path d="M7.85689 19.9994H0.380053C0.154023 19.9994 0.0022202 19.8393 0.000545904 19.6267C-0.00949986 18.2964 0.11384 16.9884 0.810346 15.8339C1.24343 15.1386 1.85566 14.618 2.64091 14.3602L5.76961 13.3329C6.08158 14.6214 7.38028 15.3005 8.60586 14.8641L8.89719 18.1954L8.62093 18.2183C8.18338 18.1909 7.85968 18.5302 7.85913 18.9532L7.85745 19.9994H7.85689Z" fill="url(#paint2_linear_3515_2419)"/>
<path d="M8.38734 3.72801C8.03909 3.52434 7.68246 3.52323 7.35374 3.71685C6.51046 4.21292 5.60243 4.52484 4.62855 4.6649C3.88907 4.77092 3.33265 5.34567 3.24279 6.09228L2.86105 6.24852L2.85938 4.94279C2.85603 2.15054 5.19502 -0.0407488 7.93249 0.000543567C10.7079 0.0423939 12.8711 2.3397 12.8599 5.15316L12.8555 6.2474L12.4793 6.10121C12.3426 5.38696 11.9017 4.7765 11.141 4.67048C10.1677 4.53489 9.25072 4.23412 8.38734 3.72857V3.72801Z" fill="url(#paint3_linear_3515_2419)"/>
<path d="M20.0002 19.9994H8.57812L8.5798 18.9269H19.9968L20.0002 19.9994Z" fill="url(#paint4_linear_3515_2419)"/>
<path d="M8.45341 13.1477L8.54159 14.1069C8.08172 14.3513 7.56101 14.3469 7.10505 14.0679C6.72945 13.838 6.43254 13.3971 6.43756 12.8726C7.08719 13.1561 7.729 13.3034 8.45341 13.1477Z" fill="url(#paint5_linear_3515_2419)"/>
<path d="M14.1872 13.5785C14.8106 13.5182 15.304 13.9841 15.3542 14.5449C15.4072 15.1426 14.9714 15.652 14.3843 15.7078C13.7971 15.7636 13.2976 15.3412 13.2284 14.7826C13.1542 14.19 13.5616 13.6393 14.1878 13.5785H14.1872Z" fill="url(#paint6_linear_3515_2419)"/>
</g>
<defs>
<linearGradient id="paint0_linear_3515_2419" x1="8.99805" y1="14.4635" x2="19.5802" y2="14.4635" gradientUnits="userSpaceOnUse">
<stop stop-color="#21CFFF"/>
<stop offset="1" stop-color="#019AE6"/>
</linearGradient>
<linearGradient id="paint1_linear_3515_2419" x1="2.86035" y1="8.39954" x2="12.8578" y2="8.39954" gradientUnits="userSpaceOnUse">
<stop stop-color="#21CFFF"/>
<stop offset="1" stop-color="#019AE6"/>
</linearGradient>
<linearGradient id="paint2_linear_3515_2419" x1="0" y1="16.6662" x2="8.89719" y2="16.6662" gradientUnits="userSpaceOnUse">
<stop stop-color="#21CFFF"/>
<stop offset="1" stop-color="#019AE6"/>
</linearGradient>
<linearGradient id="paint3_linear_3515_2419" x1="2.85938" y1="3.12425" x2="12.86" y2="3.12425" gradientUnits="userSpaceOnUse">
<stop stop-color="#21CFFF"/>
<stop offset="1" stop-color="#019AE6"/>
</linearGradient>
<linearGradient id="paint4_linear_3515_2419" x1="8.57812" y1="19.4632" x2="20.0002" y2="19.4632" gradientUnits="userSpaceOnUse">
<stop stop-color="#21CFFF"/>
<stop offset="1" stop-color="#019AE6"/>
</linearGradient>
<linearGradient id="paint5_linear_3515_2419" x1="6.4375" y1="13.5783" x2="8.54159" y2="13.5783" gradientUnits="userSpaceOnUse">
<stop stop-color="#21CFFF"/>
<stop offset="1" stop-color="#019AE6"/>
</linearGradient>
<linearGradient id="paint6_linear_3515_2419" x1="13.2197" y1="14.643" x2="15.3586" y2="14.643" gradientUnits="userSpaceOnUse">
<stop stop-color="#21CFFF"/>
<stop offset="1" stop-color="#019AE6"/>
</linearGradient>
<clipPath id="clip0_3515_2419">
<rect width="20" height="20" fill="white"/>
</clipPath>
</defs>
</svg>
