<svg width="36" height="45" viewBox="0 0 36 45" fill="none" xmlns="http://www.w3.org/2000/svg">
<g clip-path="url(#clip0_6313_5683)">
<path d="M35.9891 30.7496C33.62 26.9888 29.2828 25.0735 24.8556 25.9173C20.7066 26.7075 17.3665 29.9848 16.5604 34.0644C15.7066 38.3877 17.6447 42.6937 21.5086 44.996L8.07698 44.992C3.65524 44.9906 0 41.4119 0 37.0551V7.95024C0 3.59475 3.65524 0.0160719 8.07698 0.0133933L22.9052 0L22.923 6.63502C22.9325 10.1066 25.9345 12.8522 29.4465 12.8562L36 12.8615L35.9891 30.7496ZM18.0471 12.8535C19.0222 12.8535 19.6496 11.995 19.6251 11.2075C19.5978 10.3717 18.9159 9.64582 17.9925 9.64582H8.17382C7.20955 9.64582 6.51532 10.4253 6.53988 11.2999C6.56306 12.1182 7.24637 12.8602 8.17518 12.8589L18.0471 12.8535ZM24.5869 19.285C25.5785 19.285 26.195 18.4224 26.1704 17.6376C26.1445 16.8005 25.468 16.0746 24.5324 16.0746H8.18064C7.20409 16.0746 6.51805 16.8541 6.54124 17.7287C6.56442 18.547 7.24228 19.289 8.182 19.289L24.5869 19.285ZM13.1439 25.7084C14.104 25.707 14.7423 24.8579 14.7164 24.0637C14.6891 23.2293 14.0004 22.5033 13.0879 22.5033H8.16836C7.215 22.5033 6.51532 23.2828 6.53988 24.1574C6.56306 24.9744 7.25456 25.7177 8.16973 25.7164L13.1439 25.7084Z" fill="url(#paint0_linear_6313_5683)"/>
<path d="M35.4924 42.233C36.1907 42.9174 36.132 43.9487 35.4924 44.55C34.82 45.1808 33.823 45.138 33.1533 44.4817L30.7937 42.1714C27.5859 44.1201 23.5078 43.366 21.2247 40.5722C18.8883 37.7141 19.142 33.5675 21.7839 30.9974C24.4039 28.45 28.5856 28.2169 31.4811 30.4911C34.3617 32.7532 35.0709 36.7846 33.1178 39.9079L35.4924 42.2343V42.233ZM26.2765 32.2068C23.9756 32.5764 22.5681 34.7033 22.9773 36.8382C23.3769 38.9302 25.4282 40.3378 27.5681 39.9976C29.7531 39.6508 31.2479 37.623 30.9001 35.4922C30.5537 33.3693 28.5542 31.8412 26.2765 32.2054V32.2068Z" fill="url(#paint1_linear_6313_5683)"/>
<path d="M35.7778 9.63915L29.5584 9.6512C27.6285 9.65522 26.1678 8.21813 26.1719 6.327L26.1855 0.222351C27.0202 0.459412 27.709 0.841119 28.3132 1.4331L34.4916 7.49891C35.1068 8.10294 35.5159 8.76725 35.7778 9.63915Z" fill="url(#paint2_linear_6313_5683)"/>
</g>
<defs>
<linearGradient id="paint0_linear_6313_5683" x1="0" y1="22.498" x2="36" y2="22.498" gradientUnits="userSpaceOnUse">
<stop stop-color="#21CFFF"/>
<stop offset="1" stop-color="#019AE6"/>
</linearGradient>
<linearGradient id="paint1_linear_6313_5683" x1="19.625" y1="36.9625" x2="35.9943" y2="36.9625" gradientUnits="userSpaceOnUse">
<stop stop-color="#21CFFF"/>
<stop offset="1" stop-color="#019AE6"/>
</linearGradient>
<linearGradient id="paint2_linear_6313_5683" x1="26.1719" y1="4.93678" x2="35.7778" y2="4.93678" gradientUnits="userSpaceOnUse">
<stop stop-color="#21CFFF"/>
<stop offset="1" stop-color="#019AE6"/>
</linearGradient>
<clipPath id="clip0_6313_5683">
<rect width="36" height="45" fill="white"/>
</clipPath>
</defs>
</svg>
