<svg width="26" height="22" viewBox="0 0 26 22" fill="none" xmlns="http://www.w3.org/2000/svg">
<g clip-path="url(#clip0_3515_889)">
<path d="M15.4782 19.503L16.8737 20.5433C16.914 21.0002 16.6058 21.4237 16.2976 21.6205C15.8634 21.8981 15.3994 21.884 14.9739 21.6749L13.2089 20.8016L14.0476 19.735C14.4504 19.2219 14.5414 18.5506 14.2823 17.9181C14.0634 17.3856 13.5486 16.9657 12.9165 16.8444C13.1564 15.9201 12.7099 15.038 11.8467 14.6479C12.6889 14.4951 13.2772 13.9363 13.4768 13.1508L13.89 11.5166C13.9338 11.3427 14.0862 11.174 14.2718 11.1476L20.211 16.0519C20.6978 16.4543 20.9797 16.927 20.7713 17.5965C20.6417 18.0112 20.0097 18.6684 19.4704 18.4171C18.6597 18.0411 18.0346 17.3312 17.2589 16.876C17.1451 16.8093 16.9822 16.8356 16.9105 16.9217C16.8527 16.9885 16.8369 17.1906 16.9297 17.2591L19.1359 18.8986C19.2165 19.3502 18.9783 19.8229 18.6404 20.0706C18.2797 20.336 17.7106 20.48 17.3219 20.1989L15.7741 19.0778C15.6935 19.0198 15.5044 19.0532 15.4484 19.1165C15.3714 19.2026 15.3591 19.4117 15.4782 19.5013V19.503Z" fill="url(#paint0_linear_3515_889)"/>
<path d="M12.5927 17.3645C13.0812 17.2978 13.554 17.6387 13.7536 18.02C13.9935 18.4768 13.9585 19.0145 13.631 19.424L11.9519 21.5291C11.6262 21.9385 11.0939 22.0896 10.6054 21.949C10.1169 21.8085 9.76318 21.3973 9.69839 20.8701C9.66162 20.5661 9.41649 20.3851 9.11182 20.4238C8.39743 20.5134 7.76708 20.0267 7.66027 19.3203C7.62 19.0549 7.39413 18.8599 7.11923 18.8986C6.56242 18.9759 6.04414 18.7316 5.77274 18.2607C5.50134 17.7898 5.55562 17.2117 5.91457 16.7618L8.09801 14.0276C8.46046 13.5725 9.01727 13.4126 9.58458 13.6164C9.9908 13.7623 10.5476 14.351 10.3638 14.8623C9.91901 15.5933 9.29217 16.1837 8.79665 16.8778C8.74237 16.9551 8.74587 17.1115 8.78964 17.1765C8.83867 17.2468 9.05579 17.2819 9.12057 17.2046L10.8435 15.1013C11.332 14.9291 11.8976 15.1821 12.1725 15.5423C12.4772 15.943 12.6015 16.5668 12.2705 16.9815L10.6527 19.0093C10.5809 19.0989 10.6141 19.2658 10.6894 19.3273C10.7822 19.4046 10.9433 19.3906 11.0309 19.2834L12.5875 17.3663L12.5927 17.3645Z" fill="url(#paint1_linear_3515_889)"/>
<path d="M22.382 17.2433C22.0861 17.3118 21.855 17.1554 21.792 16.8796L20.062 9.29201C20.006 9.04601 20.1478 8.8 20.3842 8.74553L23.7058 7.98115C23.9491 7.92492 24.1943 8.07077 24.2521 8.3238L25.9925 15.9535C26.0258 16.2066 25.898 16.435 25.6511 16.493L22.3803 17.245L22.382 17.2433Z" fill="url(#paint2_linear_3515_889)"/>
<path d="M3.71068 17.2644L0.347084 16.4895C0.100198 16.4332 -0.0293728 16.2101 0.00564643 15.9535L1.7461 8.32381C1.80388 8.06901 2.04902 7.92492 2.2924 7.98115L5.57195 8.73147C5.82584 8.78946 5.99743 9.01789 5.9344 9.29377L4.20445 16.8813C4.14492 17.1238 3.98558 17.2626 3.70893 17.2661L3.71068 17.2644Z" fill="url(#paint3_linear_3515_889)"/>
<path d="M14.4329 10.6011C13.9111 10.5783 13.5032 10.9279 13.3788 11.4147L12.9604 13.0577C12.7678 13.8115 12.0289 14.249 11.297 14.0962C10.5651 13.9433 10.0555 13.2404 10.1921 12.4708L10.5458 10.4869C10.6684 9.8051 11.0536 9.34472 11.5789 8.93705C12.4894 8.2289 13.687 8.1182 14.6465 8.81932L17.231 10.5255L19.656 9.85606L21.0918 16.1626C20.8852 15.964 20.7294 15.8164 20.521 15.6425L14.4312 10.6011H14.4329Z" fill="url(#paint4_linear_3515_889)"/>
<path d="M7.70461 13.6832L5.39335 16.5844C5.33031 16.6652 5.27953 16.7759 5.21475 16.8813L4.79102 16.6652L6.34237 9.85784L8.77095 10.5221L10.191 9.78931C10.1314 10.03 10.0737 10.2163 10.0351 10.4201L9.68495 12.3284C9.64117 12.5657 9.65868 12.8187 9.67094 13.0788C8.94079 12.8732 8.18087 13.084 7.70286 13.6815L7.70461 13.6832Z" fill="url(#paint5_linear_3515_889)"/>
<path d="M13.4386 4.67763C13.4386 5.14856 13.0779 5.47364 12.6734 5.47013C12.2392 5.46661 11.917 5.1222 11.917 4.66885V0.76789C11.917 0.326836 12.2654 0.00351302 12.6699 -1.35993e-06C13.0744 -0.00351574 13.4351 0.311021 13.4368 0.748561L13.4403 4.67763H13.4386Z" fill="url(#paint6_linear_3515_889)"/>
<path d="M9.41103 5.36645C9.64216 5.76709 9.48107 6.21693 9.13788 6.41725C8.79469 6.61757 8.31843 6.51565 8.10131 6.13786L6.14024 2.73243C5.91962 2.34936 6.05794 1.88722 6.41864 1.68163C6.77934 1.47604 7.23634 1.5885 7.45696 1.97156L9.41103 5.36645Z" fill="url(#paint7_linear_3515_889)"/>
<path d="M17.2769 6.10448C17.0423 6.5139 16.5853 6.62987 16.2106 6.41198C15.8639 6.20991 15.7238 5.75128 15.9462 5.36646L17.8915 1.98387C18.1156 1.59377 18.5744 1.46725 18.9561 1.69217C19.2975 1.89425 19.4341 2.35288 19.2117 2.73946L17.2769 6.10448Z" fill="url(#paint8_linear_3515_889)"/>
</g>
<defs>
<linearGradient id="paint0_linear_3515_889" x1="11.8467" y1="16.4891" x2="20.8408" y2="16.4891" gradientUnits="userSpaceOnUse">
<stop stop-color="#21CFFF"/>
<stop offset="1" stop-color="#019AE6"/>
</linearGradient>
<linearGradient id="paint1_linear_3515_889" x1="5.60156" y1="17.7648" x2="13.9092" y2="17.7648" gradientUnits="userSpaceOnUse">
<stop stop-color="#21CFFF"/>
<stop offset="1" stop-color="#019AE6"/>
</linearGradient>
<linearGradient id="paint2_linear_3515_889" x1="20.0498" y1="12.6142" x2="25.9977" y2="12.6142" gradientUnits="userSpaceOnUse">
<stop stop-color="#21CFFF"/>
<stop offset="1" stop-color="#019AE6"/>
</linearGradient>
<linearGradient id="paint3_linear_3515_889" x1="0" y1="12.6176" x2="5.94749" y2="12.6176" gradientUnits="userSpaceOnUse">
<stop stop-color="#21CFFF"/>
<stop offset="1" stop-color="#019AE6"/>
</linearGradient>
<linearGradient id="paint4_linear_3515_889" x1="10.1699" y1="12.2544" x2="21.0918" y2="12.2544" gradientUnits="userSpaceOnUse">
<stop stop-color="#21CFFF"/>
<stop offset="1" stop-color="#019AE6"/>
</linearGradient>
<linearGradient id="paint5_linear_3515_889" x1="4.79102" y1="13.3353" x2="10.191" y2="13.3353" gradientUnits="userSpaceOnUse">
<stop stop-color="#21CFFF"/>
<stop offset="1" stop-color="#019AE6"/>
</linearGradient>
<linearGradient id="paint6_linear_3515_889" x1="11.917" y1="2.73506" x2="13.4403" y2="2.73506" gradientUnits="userSpaceOnUse">
<stop stop-color="#21CFFF"/>
<stop offset="1" stop-color="#019AE6"/>
</linearGradient>
<linearGradient id="paint7_linear_3515_889" x1="6.03418" y1="4.04905" x2="9.51932" y2="4.04905" gradientUnits="userSpaceOnUse">
<stop stop-color="#21CFFF"/>
<stop offset="1" stop-color="#019AE6"/>
</linearGradient>
<linearGradient id="paint8_linear_3515_889" x1="15.8389" y1="4.05061" x2="19.3202" y2="4.05061" gradientUnits="userSpaceOnUse">
<stop stop-color="#21CFFF"/>
<stop offset="1" stop-color="#019AE6"/>
</linearGradient>
<clipPath id="clip0_3515_889">
<rect width="26" height="22" fill="white"/>
</clipPath>
</defs>
</svg>
