<svg width="22" height="22" viewBox="0 0 22 22" fill="none" xmlns="http://www.w3.org/2000/svg">
<g clip-path="url(#clip0_6675_4712)">
<path d="M11.6828 0C11.7242 0.0269784 11.8091 0.0321444 11.9003 0.0396065C13.6154 0.180238 15.2193 0.709474 16.7255 1.60894C16.6905 1.34605 16.6498 1.08774 16.5993 0.836904C16.5121 0.403528 16.7777 0.0947113 17.1805 0H17.2666C17.6499 0.0792131 17.8295 0.330055 17.8955 0.714066L18.284 2.97336C18.3442 3.32351 18.0912 3.64438 17.7498 3.70465L15.3363 4.12769C14.9874 4.18854 14.6822 3.92908 14.6173 3.62142C14.5525 3.31375 14.7493 2.92859 15.1016 2.86774L16.0415 2.7053C11.9766 0.235343 6.72796 1.06478 3.62707 4.68735C2.13114 6.43463 1.28649 8.66121 1.29108 10.998C1.27387 11.3504 1.03057 11.5984 0.710955 11.6386C0.385029 11.6799 0.142306 11.4595 0 11.1708V10.3115C0.205425 7.63603 1.29969 5.13909 3.21967 3.21904C5.13907 1.29898 7.63459 0.207217 10.3086 0H11.6828Z" fill="#8B30FF"/>
<path d="M12.0092 18.5181L9.96416 18.517C9.68586 18.517 9.43223 18.3046 9.36796 18.0428L9.11721 17.0188L8.06885 16.5848L7.18747 17.1227C6.94705 17.2696 6.61882 17.2507 6.41168 17.0446L4.99436 15.6314C4.76656 15.4041 4.70745 15.0827 4.87788 14.8037L5.41324 13.9289C5.24282 13.5684 5.11256 13.2556 4.97887 12.8785L3.95805 12.6288C3.66369 12.5565 3.47949 12.2872 3.47949 11.9899V10.009C3.47949 9.71109 3.66311 9.44188 3.95748 9.36956L4.97829 9.11987C5.11199 8.74274 5.24225 8.42934 5.41267 8.06943L4.87673 7.1912C4.71721 6.92945 4.75623 6.60743 4.9737 6.38989L6.38815 4.97496C6.61997 4.74306 6.94647 4.72469 7.21903 4.8923L8.0677 5.41465C8.4292 5.24359 8.73906 5.11444 9.11835 4.97955L9.35591 3.99225C9.43739 3.65302 9.71168 3.47794 10.0514 3.47852L11.9851 3.48081C12.307 3.48081 12.5607 3.67999 12.6358 3.99111L12.874 4.9784C13.2533 5.11387 13.5643 5.24359 13.9258 5.41465L14.8054 4.8768C15.0453 4.73043 15.3746 4.74765 15.5818 4.95487L17.0393 6.41285C17.2613 6.63499 17.2562 6.96849 17.1018 7.2199L16.5791 8.07058C16.7501 8.43163 16.8798 8.74332 17.014 9.12101L18.0033 9.36038C18.3114 9.435 18.5134 9.69043 18.5134 10.0113V11.9893C18.5134 12.3102 18.3114 12.5656 18.0033 12.6403L17.014 12.8796L16.5796 13.9295L17.1173 14.8106C17.2636 15.0499 17.2458 15.3806 17.0393 15.5866L15.5812 17.0452C15.3741 17.2524 15.0447 17.2696 14.8054 17.1233L13.9258 16.5854L12.8745 17.0211L12.6347 18.0112C12.567 18.2902 12.3317 18.5192 12.0092 18.5192V18.5181ZM10.6516 8.01375C8.95883 8.20892 7.80719 9.74439 8.01376 11.378C8.21976 13.0093 9.70938 14.1757 11.3402 13.9869C12.9847 13.7969 14.1742 12.3027 13.982 10.6542C13.7898 9.00564 12.3329 7.81917 10.6516 8.01318V8.01375Z" fill="#8B30FF"/>
<path d="M4.13458 21.457L3.70594 19.0243C3.64856 18.6994 3.88267 18.3608 4.20745 18.3034L6.65477 17.8711C7.00422 17.8097 7.30949 18.0675 7.37433 18.3774C7.43917 18.6874 7.24235 19.0702 6.89003 19.1317L5.95471 19.2947C9.84746 21.6596 14.8632 21.0069 18.0157 17.6966C19.7274 15.8994 20.7052 13.5144 20.7006 10.9997C20.7172 10.6122 21.0196 10.3453 21.3696 10.3568C21.7495 10.3694 22.0203 10.696 21.9991 11.0835L21.9561 11.8619C21.8086 14.5471 20.5663 17.0417 18.6371 18.9078C15.0399 22.3886 9.59097 22.9982 5.26442 20.3876L5.39754 21.2354C5.45263 21.5838 5.22712 21.8961 4.8834 21.965C4.58043 22.0258 4.20114 21.8364 4.134 21.4558L4.13458 21.457Z" fill="#8B30FF"/>
</g>
<defs>
<clipPath id="clip0_6675_4712">
<rect width="22" height="22" fill="white"/>
</clipPath>
</defs>
</svg>
