<svg width="35" height="45" viewBox="0 0 35 45" fill="none" xmlns="http://www.w3.org/2000/svg">
<g clip-path="url(#clip0_6327_5767)">
<path d="M6.22172 23.592C5.93174 22.0443 2.98836 24.1013 2.44966 24.9323C0.877181 24.3123 -0.0670131 22.7256 0.00371301 20.994C0.0815117 19.0997 1.34397 17.5013 3.20643 17.1323C4.12469 16.9508 5.01112 17.2903 5.61229 17.9681C5.88341 18.2734 6.30069 18.3476 6.60482 18.0942C6.90894 17.8408 6.99263 17.3964 6.7003 17.0616C5.81151 16.0431 4.496 15.5421 3.13216 15.6812C2.56871 14.1924 3.19464 12.6412 4.47242 11.7594C6.0673 10.6596 8.17965 11.0816 9.16628 12.7307C9.38789 13.1021 9.83346 13.115 10.127 12.9594C11.3847 12.2911 8.94585 10.2895 8.04763 10.0207C8.54861 8.82897 9.85704 8.23133 11.1313 8.56021C12.3148 8.86552 13.1741 9.8439 13.1741 11.1229V31.2176C13.1741 32.1158 12.6991 32.8537 12.0425 33.35L8.86569 33.3441C8.22562 32.8419 7.83427 32.1311 7.78005 31.3248C7.66924 29.6722 9.48337 30.0329 9.07669 28.9307C8.93642 28.5512 8.51442 28.3897 8.09714 28.5547C7.04214 28.9708 6.41975 29.974 6.39028 31.1504C4.64099 31.1657 3.23354 29.9457 3.00368 28.2412C2.76439 26.4588 3.87007 24.8793 5.60758 24.4443C6.03076 24.3382 6.30069 24.0152 6.22172 23.592Z" fill="url(#paint0_linear_6327_5767)"/>
<path d="M23.5439 26.8197C21.5942 28.5254 20.4119 30.7686 20.1549 33.3502L16.2461 33.3466V8.65821C16.2473 8.14426 16.6457 7.72226 17.1479 7.7588C20.5427 8.00163 23.5592 9.80281 25.3815 12.6672C28.2625 17.1926 27.6978 23.1867 23.5439 26.8221V26.8197ZM25.1552 18.5447C25.0739 14.8315 22.7435 11.558 19.3085 10.2991C18.8924 10.147 18.494 10.3085 18.3502 10.6669C18.2064 11.0252 18.3467 11.459 18.7698 11.6122C21.7191 12.6755 23.6983 15.4692 23.7289 18.6142C23.7336 19.094 24.0578 19.3839 24.5104 19.3509C24.8664 19.3262 25.167 19.0621 25.1552 18.5447Z" fill="url(#paint1_linear_6327_5767)"/>
<path d="M21.2401 41.8161L7.89058 41.8243C7.17271 41.8243 6.64934 41.2184 6.43245 40.721C6.14719 40.0691 6.24384 39.3065 6.73775 38.8208H22.3187C22.7749 39.3312 22.8975 40.0008 22.6429 40.6432C22.4637 41.097 21.9792 41.8161 21.239 41.8161H21.2401Z" fill="url(#paint2_linear_6327_5767)"/>
<path d="M22.3447 37.5949H6.70711C6.24857 36.9949 6.14601 36.3607 6.43599 35.6853C6.64463 35.2008 7.1739 34.5819 7.89059 34.5819L20.9313 34.5725C21.6845 34.5725 22.2916 34.9886 22.5804 35.565C22.9093 36.2204 22.8468 36.9371 22.3435 37.5949H22.3447Z" fill="url(#paint3_linear_6327_5767)"/>
<path d="M17.1088 45L11.5285 44.9528C10.5148 44.9446 9.75804 44.0145 9.58594 43.0691L19.4676 43.0632C19.2919 44.2078 18.31 45.0094 17.1088 45Z" fill="url(#paint4_linear_6327_5767)"/>
<path d="M29.533 31.0657C29.8525 31.3863 29.7322 31.8201 29.4894 32.0488C29.1806 32.3376 28.781 32.3046 28.471 31.9934L25.2093 28.7234C24.9158 28.4287 25.0313 27.9867 25.2753 27.7627C25.583 27.481 25.9838 27.5105 26.295 27.8217L29.5342 31.0657H29.533Z" fill="url(#paint5_linear_6327_5767)"/>
<path d="M26.3131 9.71429C26.0125 10.0149 25.6129 10.0408 25.3359 9.83571C25.0589 9.6306 24.9103 9.12137 25.2015 8.83139L28.5928 5.44239C28.8757 5.16066 29.3296 5.29386 29.5453 5.53669C29.7999 5.82196 29.7987 6.22864 29.4958 6.53158L26.3143 9.71547L26.3131 9.71429Z" fill="url(#paint6_linear_6327_5767)"/>
<path d="M16.9536 5.24669C16.9536 5.71939 16.6589 6.00465 16.3017 6.02823C15.8833 6.05534 15.5391 5.75121 15.5391 5.29385L15.5414 0.701311C15.5414 0.289916 15.8703 0.0176171 16.2192 0.00229293C16.5681 -0.0130312 16.9489 0.274592 16.9489 0.707205L16.9536 5.24787V5.24669Z" fill="url(#paint7_linear_6327_5767)"/>
<path d="M34.2933 19.4652L29.7621 19.4699C29.3165 19.4699 29.0136 19.2047 28.99 18.8192C28.9617 18.3642 29.2812 18.0542 29.7609 18.0542L34.2615 18.0566C34.7023 18.0566 34.9852 18.3442 34.9982 18.7438C35.01 19.1033 34.7731 19.4652 34.2945 19.4664L34.2933 19.4652Z" fill="url(#paint8_linear_6327_5767)"/>
</g>
<defs>
<linearGradient id="paint0_linear_6327_5767" x1="0" y1="20.9103" x2="13.1741" y2="20.9103" gradientUnits="userSpaceOnUse">
<stop stop-color="#21CFFF"/>
<stop offset="1" stop-color="#019AE6"/>
</linearGradient>
<linearGradient id="paint1_linear_6327_5767" x1="16.2461" y1="20.5534" x2="27.1778" y2="20.5534" gradientUnits="userSpaceOnUse">
<stop stop-color="#21CFFF"/>
<stop offset="1" stop-color="#019AE6"/>
</linearGradient>
<linearGradient id="paint2_linear_6327_5767" x1="6.27344" y1="40.3226" x2="22.7735" y2="40.3226" gradientUnits="userSpaceOnUse">
<stop stop-color="#21CFFF"/>
<stop offset="1" stop-color="#019AE6"/>
</linearGradient>
<linearGradient id="paint3_linear_6327_5767" x1="6.27344" y1="36.0837" x2="22.7842" y2="36.0837" gradientUnits="userSpaceOnUse">
<stop stop-color="#21CFFF"/>
<stop offset="1" stop-color="#019AE6"/>
</linearGradient>
<linearGradient id="paint4_linear_6327_5767" x1="9.58594" y1="44.0316" x2="19.4676" y2="44.0316" gradientUnits="userSpaceOnUse">
<stop stop-color="#21CFFF"/>
<stop offset="1" stop-color="#019AE6"/>
</linearGradient>
<linearGradient id="paint5_linear_6327_5767" x1="25.0352" y1="29.9079" x2="29.7264" y2="29.9079" gradientUnits="userSpaceOnUse">
<stop stop-color="#21CFFF"/>
<stop offset="1" stop-color="#019AE6"/>
</linearGradient>
<linearGradient id="paint6_linear_6327_5767" x1="25.043" y1="7.62631" x2="29.73" y2="7.62631" gradientUnits="userSpaceOnUse">
<stop stop-color="#21CFFF"/>
<stop offset="1" stop-color="#019AE6"/>
</linearGradient>
<linearGradient id="paint7_linear_6327_5767" x1="15.5391" y1="3.01581" x2="16.9536" y2="3.01581" gradientUnits="userSpaceOnUse">
<stop stop-color="#21CFFF"/>
<stop offset="1" stop-color="#019AE6"/>
</linearGradient>
<linearGradient id="paint8_linear_6327_5767" x1="28.9883" y1="18.7621" x2="34.9986" y2="18.7621" gradientUnits="userSpaceOnUse">
<stop stop-color="#21CFFF"/>
<stop offset="1" stop-color="#019AE6"/>
</linearGradient>
<clipPath id="clip0_6327_5767">
<rect width="35" height="45" fill="white"/>
</clipPath>
</defs>
</svg>
