<svg width="45" height="46" viewBox="0 0 45 46" fill="none" xmlns="http://www.w3.org/2000/svg">
<g clip-path="url(#clip0_3515_1569)">
<path d="M21.6945 36.5894L18.7733 38.9804C18.1289 39.5069 17.3126 39.5508 16.6468 39.0243L13.6611 36.5894L10.611 39.0682C10.0525 39.5289 9.2148 39.5289 8.65633 39.0682L5.6062 36.5894L2.57757 39.0682C2.08353 39.463 1.41766 39.5289 0.837709 39.2217C0.386635 38.9585 0 38.432 0 37.7301V6.47115C0 2.93944 2.87828 0 6.33652 0H29.1265C32.6062 0 35.3556 3.04912 35.3556 6.55889V24.6123C33.0358 24.6123 30.8234 25.3143 28.9332 26.6743C27.3652 27.793 26.6563 29.6795 26.957 31.6099C26.2912 31.9609 25.7327 32.3996 25.2172 32.9261L24.0573 34.1106C23.2196 34.9661 22.7041 35.9752 22.5322 37.2036L21.6945 36.5675V36.5894ZM19.3317 21.3219C21.1575 21.278 22.5107 19.8302 22.5107 18.0534V16.3863C22.4893 14.5875 21.0931 13.1178 19.3103 13.1178H16.0883V11.4726H20.8138C21.7589 11.4726 22.4893 10.8145 22.5107 9.87124C22.5322 8.92799 21.8449 8.18217 20.9212 8.18217H19.3103C19.2673 7.19504 18.537 6.51502 17.6563 6.53696C16.8186 6.55889 16.1313 7.23891 16.0883 8.18217C14.241 8.2041 12.8663 9.69576 12.8663 11.5603V13.1178C12.8878 14.9165 14.3055 16.3863 16.0883 16.3863H19.3103V18.0315H14.4773C13.5322 18.0315 12.8449 18.8212 12.8878 19.7206C12.9093 20.5541 13.5967 21.3 14.4773 21.3H16.0883C16.1313 22.2651 16.8616 22.9671 17.7422 22.9452C18.6229 22.9232 19.2458 22.2651 19.3317 21.3V21.3219ZM19.3532 29.5479C20.3198 29.5479 20.9212 28.6705 20.8998 27.8588C20.8783 27.0033 20.2124 26.2575 19.2888 26.2575H9.64439C8.69928 26.2575 8.01193 27.0472 8.03341 27.9466C8.05489 28.7802 8.72076 29.5479 9.64439 29.5479H19.3317H19.3532Z" fill="url(#paint0_linear_3515_1569)"/>
<path d="M38.1054 41.8321C38.9431 41.2837 39.9527 41.4592 40.4682 42.2708C40.9837 43.0825 40.7474 44.0477 39.9097 44.5961C37.5899 46.1535 34.7331 46.5045 32.0267 45.2541C29.8572 44.2451 28.0314 42.0953 27.5159 39.4411C26.8071 39.463 26.2271 39.1778 25.9264 38.6075C25.6257 38.0372 25.6257 37.2694 26.0983 36.7868L27.7952 35.0319C28.4395 34.3519 29.4706 34.3519 30.1364 35.0319L31.7474 36.6771C32.1555 37.0939 32.2629 37.7301 32.0911 38.3223C31.9407 38.8269 31.5111 39.2437 30.8668 39.4191C31.3393 40.845 32.4777 41.8979 33.6376 42.3366C35.2271 42.9509 36.7737 42.7096 38.1269 41.8321H38.1054Z" fill="url(#paint1_linear_3515_1569)"/>
<path d="M40.661 38.8708L39.1789 37.3572C38.7278 36.8965 38.4916 36.3043 38.6634 35.6242C38.8138 35.0978 39.2433 34.6152 39.9092 34.4616C39.4367 33.0358 38.2982 31.9828 37.1383 31.5222C35.5488 30.908 33.9808 31.1493 32.6706 32.0267C31.9402 32.5093 31.0381 32.3338 30.5226 31.6757C30.05 31.0615 30.0071 29.9647 30.7589 29.4163C33.0142 27.7492 35.957 27.3982 38.6634 28.6047C40.8758 29.5918 42.7231 31.7635 43.2601 34.4397C43.9689 34.4397 44.5703 34.7468 44.8496 35.3171C45.1503 35.9313 45.0858 36.6772 44.5918 37.1817L42.9808 38.8269C42.3579 39.4631 41.3484 39.5289 40.6825 38.8269L40.661 38.8708Z" fill="url(#paint2_linear_3515_1569)"/>
</g>
<defs>
<linearGradient id="paint0_linear_3515_1569" x1="0" y1="19.7073" x2="35.3556" y2="19.7073" gradientUnits="userSpaceOnUse">
<stop stop-color="#21CFFF"/>
<stop offset="1" stop-color="#019AE6"/>
</linearGradient>
<linearGradient id="paint1_linear_3515_1569" x1="25.7188" y1="40.2668" x2="40.7397" y2="40.2668" gradientUnits="userSpaceOnUse">
<stop stop-color="#21CFFF"/>
<stop offset="1" stop-color="#019AE6"/>
</linearGradient>
<linearGradient id="paint2_linear_3515_1569" x1="30.1787" y1="33.609" x2="45.031" y2="33.609" gradientUnits="userSpaceOnUse">
<stop stop-color="#21CFFF"/>
<stop offset="1" stop-color="#019AE6"/>
</linearGradient>
<clipPath id="clip0_3515_1569">
<rect width="45" height="46" fill="white"/>
</clipPath>
</defs>
</svg>
