<svg width="23" height="24" viewBox="0 0 23 24" fill="none" xmlns="http://www.w3.org/2000/svg">
<g clip-path="url(#clip0_4665_43)">
<path d="M20.697 11.0475C17.3748 9.51243 13.4829 10.3489 11.1279 13.0925C8.75843 15.8533 8.54814 19.8234 10.6345 22.8535L1.14314 22.8557C0.484164 22.8557 0.0167605 22.3421 0.000916269 21.7064V1.15289C0.000196079 0.4693 0.523775 0.00142861 1.19787 0.00142861L14.9506 0L20.7006 5.70874L20.6963 11.0475H20.697Z" fill="url(#paint0_linear_4665_43)"/>
<path d="M16.9281 12.5847C20.1337 12.4046 22.8142 14.8504 22.9907 17.9648C23.1693 21.1142 20.7408 23.815 17.5741 23.9914C14.4247 24.1664 11.7139 21.7814 11.513 18.6498C11.3121 15.5205 13.706 12.7654 16.9281 12.5847ZM18.7329 15.1954C17.3386 14.5397 15.7988 14.8761 14.7992 15.8762C13.7996 16.8769 13.4928 18.4148 14.1395 19.762L18.7329 15.1962V15.1954ZM15.7693 21.3792C17.1622 22.0342 18.7048 21.6992 19.703 20.6985C20.7026 19.697 21.0073 18.1598 20.3627 16.8126L15.7693 21.3792Z" fill="url(#paint1_linear_4665_43)"/>
</g>
<defs>
<linearGradient id="paint0_linear_4665_43" x1="0.000915527" y1="11.4278" x2="20.7006" y2="11.4278" gradientUnits="userSpaceOnUse">
<stop stop-color="#21CFFF"/>
<stop offset="1" stop-color="#019AE6"/>
</linearGradient>
<linearGradient id="paint1_linear_4665_43" x1="11.5012" y1="18.2879" x2="22.9999" y2="18.2879" gradientUnits="userSpaceOnUse">
<stop stop-color="#21CFFF"/>
<stop offset="1" stop-color="#019AE6"/>
</linearGradient>
<clipPath id="clip0_4665_43">
<rect width="23" height="24" fill="white"/>
</clipPath>
</defs>
</svg>
