<svg width="46" height="46" viewBox="0 0 46 46" fill="none" xmlns="http://www.w3.org/2000/svg">
<g clip-path="url(#clip0_3515_1659)">
<path d="M27.2419 45.5583C24.4404 46.1476 21.6245 46.136 18.8792 45.5855C16.6349 45.1348 14.7018 44.0377 13.1886 42.3928C12.825 41.9977 12.5869 41.5509 12.5909 41.0056L12.6144 38.3776C12.6458 34.9064 15.3453 30.9158 18.8818 30.9158H27.1137C30.6581 30.9158 33.355 34.9193 33.3838 38.3776L33.406 41.0121C33.4086 41.389 33.2805 41.8384 33.0267 42.1363C31.5331 43.8888 29.583 45.0661 27.2406 45.5596L27.2419 45.5583Z" fill="url(#paint0_linear_3515_1659)"/>
<path d="M45.5804 38.6962C44.1954 40.2763 42.4075 41.2244 40.3658 41.6156C38.4864 41.9757 36.5742 42.0249 34.7027 41.8034L34.7628 39.3489C34.8518 35.7495 33.3608 32.1825 30.0479 30.3225C30.9817 29.4249 32.1143 28.8447 33.3778 28.8459L40.6209 28.8576C41.9863 28.8602 43.1817 29.614 44.0777 30.5828C45.2234 31.8237 45.8433 33.4116 45.9584 35.098C46.0199 36.0099 45.995 36.866 45.9846 37.8012C45.9819 38.0796 45.7962 38.4488 45.5791 38.6962H45.5804Z" fill="url(#paint1_linear_3515_1659)"/>
<path d="M11.2977 41.8086C7.38579 42.1687 3.296 41.8825 0.490562 38.7791C0.192362 38.4501 -0.00513011 38.0577 0.000101477 37.6108L0.0275673 35.269C0.0615726 32.3509 2.39747 28.868 5.37555 28.859L12.4238 28.8369C13.7539 28.8331 14.969 29.3486 15.9551 30.329C12.6475 32.1657 11.1342 35.769 11.248 39.349L11.299 41.8112L11.2977 41.8086Z" fill="url(#paint2_linear_3515_1659)"/>
<path d="M22.7065 15.6062C26.4105 15.4404 29.403 18.2977 29.5599 21.8207C29.7208 25.4202 26.9062 28.4445 23.3082 28.6155C19.7141 28.7852 16.647 26.0289 16.4469 22.4839C16.2455 18.9065 18.9882 15.772 22.7052 15.6062H22.7065Z" fill="url(#paint3_linear_3515_1659)"/>
<path d="M23.3892 10.6532C23.1446 10.5302 22.785 10.5678 22.577 10.6714L18.9149 12.5015L19.5348 8.40991C19.544 8.17677 19.4681 7.92161 19.3269 7.73898L16.3828 4.77032L20.47 4.10458C20.7211 4.04888 20.9565 3.88309 21.0873 3.66808L23.0008 0L24.9103 3.66938C25.0385 3.8818 25.2726 4.04888 25.5211 4.10328L29.6161 4.77291L26.7217 7.69236C26.4889 7.91384 26.417 8.25707 26.4955 8.5757L27.084 12.5015L23.3892 10.6545V10.6532Z" fill="url(#paint4_linear_3515_1659)"/>
<path d="M8.80114 16.6734C11.3855 16.1851 13.7332 17.8845 14.191 20.3415C14.6487 22.7986 13.0021 25.1831 10.5145 25.6494C8.02687 26.1157 5.67265 24.5316 5.15865 22.1121C4.64465 19.6926 6.1932 17.1669 8.80114 16.6747V16.6734Z" fill="url(#paint5_linear_3515_1659)"/>
<path d="M35.4313 16.6826C38.0027 16.1722 40.3765 17.8418 40.8552 20.2949C41.3339 22.7481 39.7082 25.1844 37.1643 25.652C34.7538 26.095 32.3473 24.5459 31.8307 22.0992C31.3141 19.6525 32.8365 17.1981 35.4313 16.6826Z" fill="url(#paint6_linear_3515_1659)"/>
</g>
<defs>
<linearGradient id="paint0_linear_3515_1659" x1="12.5908" y1="38.4576" x2="33.4061" y2="38.4576" gradientUnits="userSpaceOnUse">
<stop stop-color="#21CFFF"/>
<stop offset="1" stop-color="#019AE6"/>
</linearGradient>
<linearGradient id="paint1_linear_3515_1659" x1="30.0479" y1="35.3913" x2="45.9985" y2="35.3913" gradientUnits="userSpaceOnUse">
<stop stop-color="#21CFFF"/>
<stop offset="1" stop-color="#019AE6"/>
</linearGradient>
<linearGradient id="paint2_linear_3515_1659" x1="0" y1="35.3834" x2="15.9551" y2="35.3834" gradientUnits="userSpaceOnUse">
<stop stop-color="#21CFFF"/>
<stop offset="1" stop-color="#019AE6"/>
</linearGradient>
<linearGradient id="paint3_linear_3515_1659" x1="16.4365" y1="22.1111" x2="29.5665" y2="22.1111" gradientUnits="userSpaceOnUse">
<stop stop-color="#21CFFF"/>
<stop offset="1" stop-color="#019AE6"/>
</linearGradient>
<linearGradient id="paint4_linear_3515_1659" x1="16.3828" y1="6.25077" x2="29.6161" y2="6.25077" gradientUnits="userSpaceOnUse">
<stop stop-color="#21CFFF"/>
<stop offset="1" stop-color="#019AE6"/>
</linearGradient>
<linearGradient id="paint5_linear_3515_1659" x1="5.06055" y1="21.1602" x2="14.2674" y2="21.1602" gradientUnits="userSpaceOnUse">
<stop stop-color="#21CFFF"/>
<stop offset="1" stop-color="#019AE6"/>
</linearGradient>
<linearGradient id="paint6_linear_3515_1659" x1="31.7305" y1="21.159" x2="40.9387" y2="21.159" gradientUnits="userSpaceOnUse">
<stop stop-color="#21CFFF"/>
<stop offset="1" stop-color="#019AE6"/>
</linearGradient>
<clipPath id="clip0_3515_1659">
<rect width="46" height="46" fill="white"/>
</clipPath>
</defs>
</svg>
