<svg width="47" height="46" viewBox="0 0 47 46" fill="none" xmlns="http://www.w3.org/2000/svg">
<g clip-path="url(#clip0_4235_2898)">
<path d="M22.8538 12.094L13.35 23.8213C13.129 24.0939 13.0773 24.4242 13.1864 24.7306C13.2745 24.9807 13.6353 25.2463 13.964 25.2463L18.4676 25.2519C19.4103 25.2519 20.1418 26.0094 20.1418 26.972V42.6286C20.1418 43.7781 19.567 44.7618 18.7711 45.3436C17.8033 46.0519 16.6606 46.1714 15.5626 45.7723C8.36803 43.1499 2.86996 37.1816 0.855918 29.8627C-2.56237 17.437 4.56512 4.72035 16.662 1.0272C28.8735 -2.69968 41.7676 4.02472 45.7957 16.1427C49.8126 28.227 43.4824 41.406 31.3701 45.7709C30.3953 46.1222 29.2582 46.0393 28.3155 45.3746C27.5308 44.8223 26.8861 43.8653 26.8847 42.7312L26.8539 26.9734C26.8525 26.0052 27.5826 25.2547 28.5323 25.2533L33.0359 25.2477C33.324 25.2477 33.6835 25.0102 33.7814 24.8022C33.9282 24.4902 33.8905 24.1094 33.6541 23.8185L24.1126 12.0659C23.809 11.6921 23.195 11.6766 22.8552 12.0954L22.8538 12.094Z" fill="url(#paint0_linear_4235_2898)"/>
</g>
<defs>
<linearGradient id="paint0_linear_4235_2898" x1="-0.000488281" y1="22.9993" x2="47.001" y2="22.9993" gradientUnits="userSpaceOnUse">
<stop stop-color="#21CFFF"/>
<stop offset="1" stop-color="#019AE6"/>
</linearGradient>
<clipPath id="clip0_4235_2898">
<rect width="47" height="46" fill="white"/>
</clipPath>
</defs>
</svg>
