<svg width="18" height="20" viewBox="0 0 18 20" fill="none" xmlns="http://www.w3.org/2000/svg">
<g clip-path="url(#clip0_3515_2435)">
<path d="M11.8825 20H0.14967C0.0716805 19.9165 -0.00430899 19.8137 0.000190388 19.7072C0.00468976 19.6007 0.0951772 19.4536 0.233658 19.4536H11.7676C11.938 19.453 12.041 19.5512 12.058 19.7145C12.0685 19.8137 11.9765 19.9306 11.883 20H11.8825Z" fill="url(#paint0_linear_3515_2435)"/>
<path d="M15.1472 20H12.678C12.568 19.9238 12.4785 19.8048 12.5045 19.6738C12.5305 19.5428 12.6475 19.452 12.786 19.452L15.0757 19.4551C15.1972 19.4551 15.3021 19.6023 15.3051 19.7067C15.3081 19.8168 15.2312 19.9207 15.1477 20H15.1472Z" fill="url(#paint1_linear_3515_2435)"/>
<path d="M17.8489 20H16.0516C15.9376 19.9243 15.8477 19.8074 15.8736 19.6754C15.8996 19.5433 16.0196 19.451 16.1586 19.4515L17.7764 19.4557C17.8919 19.4557 17.9984 19.6039 17.9999 19.7062C18.0019 19.8142 17.9279 19.916 17.8489 19.9995V20Z" fill="url(#paint2_linear_3515_2435)"/>
<path d="M9.13558 11.0321L9.59701 10.732C9.6915 10.6704 9.74149 10.5169 9.6925 10.4032L9.18157 9.2174C9.43153 9.04987 9.54052 8.80092 9.54352 8.50761L13.589 8.374C13.8499 8.69393 14.2769 8.73777 14.5678 8.48047C14.8588 8.22317 14.9028 7.81451 14.6478 7.43561L15.6872 7.43352L15.6857 15.0836H2.31352L2.31152 7.43874L3.43537 7.43039C3.49836 7.58018 3.54635 7.70335 3.61984 7.83539L4.96166 10.2529C5.31011 10.8802 6.0595 11.0686 6.65942 10.7278L7.00537 10.531L8.01323 13.0179C8.12322 13.2893 8.41618 13.3932 8.66764 13.2909C8.9766 13.1656 9.26506 12.9877 9.52002 12.7711C10.1179 12.2638 9.50252 11.5592 9.13458 11.031L9.13558 11.0321Z" fill="url(#paint3_linear_3515_2435)"/>
<path d="M11.8674 16.9098L17.4707 16.9077L17.4737 17.6942C17.4757 18.2026 17.0887 18.5648 16.6033 18.5642L1.3579 18.5632C0.865971 18.5632 0.517519 18.1436 0.521518 17.6587L0.528018 16.9082H6.10274L6.37521 17.2517C6.4047 17.2887 6.49519 17.3811 6.54218 17.3811L11.482 17.3821C11.6455 17.2376 11.7315 17.1285 11.8664 16.9098H11.8674Z" fill="url(#paint4_linear_3515_2435)"/>
<path d="M14.3411 6.88396L14.1417 6.50819L15.8244 6.50193C16.2389 6.50036 16.5778 6.81559 16.5783 7.26965V16.3613L11.777 16.3623C11.7045 16.3623 11.6075 16.4182 11.5665 16.4547L11.2716 16.8362L6.72518 16.8352C6.5902 16.6577 6.48222 16.5205 6.32924 16.3628L1.41992 16.3613V7.26913C1.41992 6.84273 1.73538 6.50558 2.13632 6.50558H3.52213L3.41015 6.8824L2.06433 6.88396C1.89686 6.88396 1.78637 7.00661 1.78637 7.19137V15.3446C1.78687 15.522 1.90235 15.6285 2.07133 15.6285H15.9284C16.0964 15.6285 16.2129 15.5205 16.2129 15.3441V7.19137C16.2134 7.00766 16.1014 6.88344 15.9359 6.88344H14.3416L14.3411 6.88396Z" fill="url(#paint5_linear_3515_2435)"/>
<path d="M9.32282 7.97423L7.64355 4.95447L9.74026 1.43839L13.2838 7.83331L9.32282 7.97423Z" fill="url(#paint6_linear_3515_2435)"/>
<path d="M6.41587 10.2471C6.03892 10.4736 5.60548 10.3306 5.39951 9.95902L4.01671 7.45961C3.82173 7.10732 3.94921 6.647 4.28367 6.44554L6.79882 4.92992C6.87431 4.88452 7.01579 4.90905 7.05978 4.9889L8.99501 8.47941C9.02001 8.57597 8.99851 8.69392 8.91752 8.74246L6.41587 10.2471ZM4.7516 7.89227L5.37852 7.51702C5.5085 7.43925 5.54399 7.26494 5.4705 7.13498C5.40701 7.02382 5.24553 6.96588 5.11555 7.04417L4.49814 7.41681C4.36916 7.49458 4.34216 7.66837 4.41365 7.79728C4.46464 7.88966 4.62712 7.96638 4.7516 7.89175V7.89227ZM5.21854 8.73724L5.85245 8.35729C5.97893 8.28109 6.00443 8.10103 5.93744 7.98047C5.87595 7.86931 5.70997 7.81346 5.58599 7.88809L4.96507 8.2623C4.83859 8.3385 4.81259 8.51334 4.87159 8.62711C4.92658 8.73306 5.08956 8.81448 5.21854 8.73671V8.73724ZM5.71497 9.56602L6.30139 9.21374C6.43837 9.13128 6.48036 8.96583 6.41137 8.83379C6.35188 8.72001 6.1839 8.65634 6.06242 8.72941L5.43701 9.1057C5.30853 9.18295 5.27753 9.35883 5.34902 9.48617C5.41251 9.59943 5.57549 9.65057 5.71497 9.56655V9.56602Z" fill="url(#paint7_linear_3515_2435)"/>
<path d="M14.2658 7.83748C14.3203 7.93612 14.2648 8.05146 14.2158 8.07756C14.1668 8.10365 14.0323 8.09269 13.9943 8.02432L9.93941 0.705622C9.89992 0.634121 9.95391 0.499469 10.0039 0.475983C10.0539 0.452497 10.1804 0.465023 10.2184 0.533915L14.2658 7.838V7.83748Z" fill="url(#paint8_linear_3515_2435)"/>
<path d="M9.14813 11.9877C9.4101 12.3744 8.80368 12.6249 8.48823 12.781L7.46387 10.2471L8.11778 9.8562C8.17427 10.3421 8.32475 10.7727 8.59371 11.1693L9.14813 11.9871V11.9877Z" fill="url(#paint9_linear_3515_2435)"/>
<path d="M12.7377 1.44411C12.6677 1.5986 12.5117 1.64557 12.3772 1.58085C12.2632 1.52605 12.1957 1.35956 12.2632 1.21186L12.7442 0.152391C12.8076 0.0119976 12.9661 -0.0318426 13.0886 0.0234796C13.1991 0.0735826 13.2821 0.239027 13.2196 0.377854L12.7382 1.44463L12.7377 1.44411Z" fill="url(#paint10_linear_3515_2435)"/>
<path d="M15.6559 5.75299L14.7335 5.67366C14.59 5.66114 14.488 5.54057 14.4835 5.40592C14.479 5.27127 14.588 5.11574 14.743 5.12879L15.7069 5.20864C15.8558 5.22117 15.9518 5.36365 15.9478 5.48734C15.9428 5.63556 15.8358 5.76865 15.6554 5.75299H15.6559Z" fill="url(#paint11_linear_3515_2435)"/>
<path d="M14.3257 3.25826C14.1982 3.33446 14.0367 3.24991 13.9852 3.15335C13.9217 3.03436 13.9447 2.85952 14.0737 2.78228L14.8841 2.29534C15.0021 2.22436 15.1686 2.29638 15.2225 2.3945C15.299 2.53281 15.2565 2.70191 15.1211 2.78332L14.3252 3.25826H14.3257Z" fill="url(#paint12_linear_3515_2435)"/>
<path d="M13.1988 4.81094L12.2119 3.03281C12.9663 3.22591 13.4077 4.02286 13.1988 4.81094Z" fill="url(#paint13_linear_3515_2435)"/>
<path d="M9.1155 10.3875L8.85703 10.5504C8.71255 10.221 8.57507 9.88076 8.70055 9.46741L9.1155 10.3875Z" fill="url(#paint14_linear_3515_2435)"/>
</g>
<defs>
<linearGradient id="paint0_linear_3515_2435" x1="0" y1="19.7268" x2="12.0588" y2="19.7268" gradientUnits="userSpaceOnUse">
<stop stop-color="#21CFFF"/>
<stop offset="1" stop-color="#019AE6"/>
</linearGradient>
<linearGradient id="paint1_linear_3515_2435" x1="12.5" y1="19.726" x2="15.3052" y2="19.726" gradientUnits="userSpaceOnUse">
<stop stop-color="#21CFFF"/>
<stop offset="1" stop-color="#019AE6"/>
</linearGradient>
<linearGradient id="paint2_linear_3515_2435" x1="15.8691" y1="19.7257" x2="17.9999" y2="19.7257" gradientUnits="userSpaceOnUse">
<stop stop-color="#21CFFF"/>
<stop offset="1" stop-color="#019AE6"/>
</linearGradient>
<linearGradient id="paint3_linear_3515_2435" x1="2.31152" y1="11.257" x2="15.6872" y2="11.257" gradientUnits="userSpaceOnUse">
<stop stop-color="#21CFFF"/>
<stop offset="1" stop-color="#019AE6"/>
</linearGradient>
<linearGradient id="paint4_linear_3515_2435" x1="0.521484" y1="17.736" x2="17.4737" y2="17.736" gradientUnits="userSpaceOnUse">
<stop stop-color="#21CFFF"/>
<stop offset="1" stop-color="#019AE6"/>
</linearGradient>
<linearGradient id="paint5_linear_3515_2435" x1="1.41992" y1="11.6691" x2="16.5783" y2="11.6691" gradientUnits="userSpaceOnUse">
<stop stop-color="#21CFFF"/>
<stop offset="1" stop-color="#019AE6"/>
</linearGradient>
<linearGradient id="paint6_linear_3515_2435" x1="7.64355" y1="4.70631" x2="13.2838" y2="4.70631" gradientUnits="userSpaceOnUse">
<stop stop-color="#21CFFF"/>
<stop offset="1" stop-color="#019AE6"/>
</linearGradient>
<linearGradient id="paint7_linear_3515_2435" x1="3.9248" y1="7.6315" x2="9.00485" y2="7.6315" gradientUnits="userSpaceOnUse">
<stop stop-color="#21CFFF"/>
<stop offset="1" stop-color="#019AE6"/>
</linearGradient>
<linearGradient id="paint8_linear_3515_2435" x1="9.92578" y1="4.27784" x2="14.2883" y2="4.27784" gradientUnits="userSpaceOnUse">
<stop stop-color="#21CFFF"/>
<stop offset="1" stop-color="#019AE6"/>
</linearGradient>
<linearGradient id="paint9_linear_3515_2435" x1="7.46387" y1="11.3186" x2="9.21214" y2="11.3186" gradientUnits="userSpaceOnUse">
<stop stop-color="#21CFFF"/>
<stop offset="1" stop-color="#019AE6"/>
</linearGradient>
<linearGradient id="paint10_linear_3515_2435" x1="12.2363" y1="0.804676" x2="13.2411" y2="0.804676" gradientUnits="userSpaceOnUse">
<stop stop-color="#21CFFF"/>
<stop offset="1" stop-color="#019AE6"/>
</linearGradient>
<linearGradient id="paint11_linear_3515_2435" x1="14.4834" y1="5.44113" x2="15.948" y2="5.44113" gradientUnits="userSpaceOnUse">
<stop stop-color="#21CFFF"/>
<stop offset="1" stop-color="#019AE6"/>
</linearGradient>
<linearGradient id="paint12_linear_3515_2435" x1="13.9512" y1="2.77727" x2="15.2603" y2="2.77727" gradientUnits="userSpaceOnUse">
<stop stop-color="#21CFFF"/>
<stop offset="1" stop-color="#019AE6"/>
</linearGradient>
<linearGradient id="paint13_linear_3515_2435" x1="12.2119" y1="3.92188" x2="13.2506" y2="3.92188" gradientUnits="userSpaceOnUse">
<stop stop-color="#21CFFF"/>
<stop offset="1" stop-color="#019AE6"/>
</linearGradient>
<linearGradient id="paint14_linear_3515_2435" x1="8.65137" y1="10.0089" x2="9.1155" y2="10.0089" gradientUnits="userSpaceOnUse">
<stop stop-color="#21CFFF"/>
<stop offset="1" stop-color="#019AE6"/>
</linearGradient>
<clipPath id="clip0_3515_2435">
<rect width="18" height="20" fill="white"/>
</clipPath>
</defs>
</svg>
