<svg width="46" height="45" viewBox="0 0 46 45" fill="none" xmlns="http://www.w3.org/2000/svg">
<g clip-path="url(#clip0_4235_3094)">
<path d="M27.1328 39.8132C27.2685 39.9438 27.4086 40.2891 27.3761 40.4661L26.8615 43.3243C26.8202 43.555 26.5518 44.0134 26.2481 44.0134H7.94393C4.33412 44.0105 1.1313 42.3493 0.315848 38.6844C-0.358042 35.6565 0.0636924 32.4631 1.4159 29.6499C3.52457 25.2625 7.86725 23.1877 12.6921 23.1703L22.5262 23.137C26.0962 23.1239 29.4406 24.257 31.9577 26.7685C32.0963 26.9077 32.1671 27.2951 32.0831 27.4591L31.16 29.2886C31.0789 29.4482 30.7766 29.6847 30.5981 29.7094L27.6047 30.12C25.9016 30.3536 24.5184 31.4344 23.9403 32.8635C23.2709 34.519 23.5393 36.3659 24.7986 37.576L27.1314 39.8146L27.1328 39.8132Z" fill="url(#paint0_linear_4235_3094)"/>
<path d="M17.2173 0.0145245C22.4831 -0.264041 26.8376 3.71278 27.1369 8.71391C27.4437 13.8427 23.4446 18.2142 18.2628 18.5116C13.0944 18.8076 8.6352 14.9251 8.30489 9.8717C7.97163 4.77481 11.897 0.295992 17.2173 0.0145245Z" fill="url(#paint1_linear_4235_3094)"/>
<path d="M37.1638 42.8672C36.7878 42.6771 36.3484 42.6873 36.0092 42.86L31.9968 44.8912C31.6444 45.0696 31.1652 45.0159 30.8688 44.8215C30.5429 44.6082 30.3114 44.1614 30.388 43.7305L31.1622 39.375C31.2212 39.0471 31.0369 38.6495 30.8039 38.4305L27.4565 35.2966C27.1867 35.0441 27.0982 34.6292 27.1955 34.2505C27.2663 33.9807 27.6305 33.6339 28.008 33.5817L32.7577 32.9172C33.0394 32.878 33.4021 32.6154 33.5289 32.3688L35.5698 28.4064C35.7541 28.0481 36.1626 27.8087 36.5312 27.7956C36.9397 27.7811 37.3879 28.0104 37.59 28.4035L39.588 32.289C39.7384 32.5806 40.057 32.865 40.3932 32.9128L45.1414 33.5773C45.5218 33.631 45.8846 33.9778 45.9583 34.252C46.0733 34.6727 45.9435 35.0746 45.6427 35.3561L42.2969 38.4885C42.0978 38.6757 41.9518 39.0935 41.999 39.3634L42.7717 43.7348C42.841 44.1251 42.636 44.5633 42.3529 44.7765C42.0344 45.0174 41.5404 45.0812 41.1482 44.8825L37.1653 42.8672H37.1638Z" fill="url(#paint2_linear_4235_3094)"/>
</g>
<defs>
<linearGradient id="paint0_linear_4235_3094" x1="0" y1="33.5751" x2="32.1193" y2="33.5751" gradientUnits="userSpaceOnUse">
<stop stop-color="#21CFFF"/>
<stop offset="1" stop-color="#019AE6"/>
</linearGradient>
<linearGradient id="paint1_linear_4235_3094" x1="8.28516" y1="9.26409" x2="27.1535" y2="9.26409" gradientUnits="userSpaceOnUse">
<stop stop-color="#21CFFF"/>
<stop offset="1" stop-color="#019AE6"/>
</linearGradient>
<linearGradient id="paint2_linear_4235_3094" x1="27.1572" y1="36.3977" x2="45.9998" y2="36.3977" gradientUnits="userSpaceOnUse">
<stop stop-color="#21CFFF"/>
<stop offset="1" stop-color="#019AE6"/>
</linearGradient>
<clipPath id="clip0_4235_3094">
<rect width="46" height="45" fill="white"/>
</clipPath>
</defs>
</svg>
