<svg width="16" height="21" viewBox="0 0 16 21" fill="none" xmlns="http://www.w3.org/2000/svg">
<g clip-path="url(#clip0_3326_2408)">
<path d="M13.8789 13.4171C10.8158 16.7367 5.66048 16.8597 2.442 13.745C-0.831261 10.5771 -0.812091 5.34858 2.48855 2.20725C5.66185 -0.812462 10.657 -0.725696 13.7242 2.41563C16.688 5.45037 16.7735 10.2799 13.8789 13.4171ZM10.7501 12.8282C10.9589 12.9778 11.2807 12.8432 11.4135 12.7489C11.5833 12.628 11.7086 12.3684 11.634 12.1375L10.5995 8.94354L13.2408 7.02855C13.466 6.86527 13.5817 6.6364 13.4448 6.36858C13.3524 6.13698 13.1463 5.93134 12.8697 5.93066L9.54854 5.92656L8.52843 2.79138C8.44422 2.53314 8.20939 2.37259 7.9684 2.36302C7.72741 2.35346 7.46519 2.49283 7.38029 2.75449L6.34786 5.92656L3.03079 5.93066C2.76104 5.93066 2.55085 6.09599 2.47212 6.33374C2.4105 6.51889 2.44337 6.83657 2.64944 6.98619L5.37499 8.97087L4.35351 12.1231C4.26519 12.395 4.41581 12.6765 4.59861 12.8008C4.83412 12.9614 5.11346 12.9525 5.33733 12.7906L8.00058 10.8613L10.7508 12.8289L10.7501 12.8282Z" fill="url(#paint0_linear_3326_2408)"/>
<path d="M12.6684 20.9447L8.00465 18.5993L3.31213 20.9556C3.13961 21.0424 2.91504 20.9925 2.74662 20.9037C2.60627 20.8299 2.4981 20.6427 2.46387 20.4295L2.46934 15.3759C5.79326 17.8334 10.2229 17.8006 13.5091 15.378L13.5139 20.3578C13.4907 20.5703 13.4044 20.7534 13.2627 20.8565C13.1209 20.9597 12.88 21.0506 12.6691 20.9447H12.6684Z" fill="url(#paint1_linear_3326_2408)"/>
<path d="M8.36703 9.58588C8.21777 9.47999 7.87751 9.45403 7.73237 9.55719L6.15701 10.6769L6.71636 8.90132C6.77866 8.64103 6.68829 8.38073 6.48016 8.22018L5.01709 7.14347L6.8752 7.12775C7.14084 7.12024 7.35787 6.94534 7.42496 6.69529L8.00006 4.96408L8.58885 6.73833C8.67717 6.95696 8.88324 7.10521 9.12424 7.12912L11.009 7.14688L9.5001 8.25571C9.30977 8.38825 9.23446 8.61643 9.26732 8.85145L9.8924 10.6687L8.36703 9.58588Z" fill="url(#paint2_linear_3326_2408)"/>
</g>
<defs>
<linearGradient id="paint0_linear_3326_2408" x1="0" y1="7.99831" x2="15.9994" y2="7.99831" gradientUnits="userSpaceOnUse">
<stop stop-color="#21CFFF"/>
<stop offset="1" stop-color="#019AE6"/>
</linearGradient>
<linearGradient id="paint1_linear_3326_2408" x1="2.46387" y1="18.1883" x2="13.5139" y2="18.1883" gradientUnits="userSpaceOnUse">
<stop stop-color="#21CFFF"/>
<stop offset="1" stop-color="#019AE6"/>
</linearGradient>
<linearGradient id="paint2_linear_3326_2408" x1="5.01709" y1="7.82051" x2="11.009" y2="7.82051" gradientUnits="userSpaceOnUse">
<stop stop-color="#21CFFF"/>
<stop offset="1" stop-color="#019AE6"/>
</linearGradient>
<clipPath id="clip0_3326_2408">
<rect width="16" height="21" fill="white"/>
</clipPath>
</defs>
</svg>
