<svg width="12" height="16" viewBox="0 0 12 16" fill="none" xmlns="http://www.w3.org/2000/svg">
<g clip-path="url(#clip0_3270_984)">
<path d="M4.78812 15.7762C4.59407 16.0267 4.30299 16.0534 4.07982 15.9214C3.82888 15.7728 3.76449 15.4932 3.82447 15.1827L4.92528 9.48961L0.5776 9.48819C0.348705 9.48819 0.164796 9.36483 0.0757075 9.18908C-0.0394015 8.96189 -0.0266116 8.70945 0.125544 8.50512L6.28542 0.210062C6.45477 -0.018081 6.73659 -0.0471347 6.94652 0.0600305C7.17806 0.178627 7.29626 0.425821 7.25701 0.719692L6.5959 5.68215L11.4195 5.65453C11.6589 5.6531 11.8481 5.78837 11.9346 5.97603C12.0435 6.21131 12.0157 6.45755 11.8592 6.65902L4.78856 15.7771L4.78812 15.7762Z" fill="white"/>
</g>
<defs>
<clipPath id="clip0_3270_984">
<rect width="12" height="16" fill="white"/>
</clipPath>
</defs>
</svg>
