<svg width="20" height="20" viewBox="0 0 20 20" fill="none" xmlns="http://www.w3.org/2000/svg">
<g clip-path="url(#clip0_3294_1594)">
<path d="M9.33422 2.35554C13.5783 1.98221 17.2835 5.1511 17.6442 9.33332C18.0049 13.5155 14.8742 17.2844 10.6569 17.6489C6.43954 18.0133 2.74326 14.8978 2.35582 10.7022C1.96838 6.50666 5.08127 2.72888 9.33422 2.35554ZM13.2665 11.0889L12.1888 9.99999L13.2175 8.97332C13.841 8.3511 13.8366 7.35999 13.2175 6.75999C12.5985 6.15999 11.6366 6.17332 11.0265 6.78221L9.99777 7.81332L8.96904 6.78221C8.34557 6.15999 7.35693 6.16443 6.75573 6.78221C6.15453 7.39999 6.16789 8.35999 6.778 8.97332L7.81117 10.0044L6.778 11.0355C6.15453 11.6578 6.15898 12.6444 6.778 13.2489C7.39701 13.8533 8.35893 13.84 8.96904 13.2267L9.99777 12.1955L11.0265 13.2267C11.6321 13.8311 12.5852 13.8489 13.1997 13.2667C13.8143 12.6844 13.8766 11.7111 13.2621 11.0933L13.2665 11.0889Z" fill="url(#paint0_linear_3294_1594)"/>
<path d="M10.0157 0.666667C5.88745 0.675556 2.22234 3.40889 1.04666 7.34667C0.993217 7.52444 0.806176 7.60889 0.650309 7.56889C0.458815 7.52 0.351934 7.33333 0.414281 7.13778C1.67458 2.94222 5.58017 0.0222222 9.96672 0C10.1538 0 10.2963 0.106667 10.3274 0.275556C10.3542 0.431111 10.2562 0.662222 10.0202 0.662222L10.0157 0.666667Z" fill="url(#paint1_linear_3294_1594)"/>
<path d="M10.0244 20C9.79282 20 9.68149 19.8444 9.66813 19.6844C9.65477 19.5111 9.79282 19.3333 9.98877 19.3333C14.1215 19.3289 17.791 16.5778 18.9578 12.6222C19.0113 12.4444 19.2428 12.3911 19.372 12.44C19.5457 12.5022 19.6347 12.68 19.5813 12.8622C18.321 17.0578 14.4243 19.9822 10.0199 20H10.0244Z" fill="url(#paint2_linear_3294_1594)"/>
<path d="M0.663549 9.98223C0.654643 10.1956 0.525495 10.32 0.351815 10.3333C0.178134 10.3467 0 10.2044 0 10C0.00445335 9.67556 0.0222668 9.36445 0.0445335 9.04C0.0578936 8.84445 0.240481 8.73334 0.391895 8.74223C0.596749 8.75556 0.712536 8.91111 0.70363 9.12L0.663549 9.97778V9.98223Z" fill="url(#paint3_linear_3294_1594)"/>
<path d="M19.9555 10.96C19.9421 11.1556 19.7595 11.2667 19.6081 11.2578C19.4033 11.2444 19.2875 11.0889 19.2964 10.88L19.3409 10.0044C19.3498 9.81334 19.479 9.68445 19.6526 9.67556C19.8263 9.66667 20.0089 9.8 20.0045 10.0044C19.9956 10.3289 19.9822 10.64 19.9599 10.9644L19.9555 10.96Z" fill="url(#paint4_linear_3294_1594)"/>
<path d="M12.7587 11.5111C13.115 11.8667 13.0972 12.4133 12.7721 12.7511C12.447 13.0889 11.8948 13.1289 11.5474 12.7822L10.2337 11.4756C10.109 11.3511 9.89523 11.3467 9.77054 11.4756L8.50133 12.7422C8.14952 13.0933 7.60175 13.1022 7.24994 12.7645C6.89812 12.4267 6.88922 11.8533 7.24994 11.4933L8.51914 10.2267C8.64384 10.1022 8.63938 9.88446 8.51914 9.76001L7.23213 8.47112C6.88031 8.11557 6.90703 7.55112 7.24549 7.22223C7.58394 6.89335 8.14506 6.89335 8.49688 7.24446L9.76608 8.51112C9.89078 8.63557 10.1045 8.63557 10.2292 8.51112L11.5207 7.22223C11.8636 6.88001 12.4114 6.89335 12.7498 7.21779C13.0883 7.54223 13.1195 8.11557 12.7632 8.46668L11.4762 9.75557C11.3515 9.88001 11.3515 10.0933 11.4762 10.2178L12.7543 11.4978L12.7587 11.5111Z" fill="url(#paint5_linear_3294_1594)"/>
</g>
<defs>
<linearGradient id="paint0_linear_3294_1594" x1="2.32324" y1="10.0018" x2="17.6725" y2="10.0018" gradientUnits="userSpaceOnUse">
<stop stop-color="#21CFFF"/>
<stop offset="1" stop-color="#019AE6"/>
</linearGradient>
<linearGradient id="paint1_linear_3294_1594" x1="0.396484" y1="3.78933" x2="10.3317" y2="3.78933" gradientUnits="userSpaceOnUse">
<stop stop-color="#21CFFF"/>
<stop offset="1" stop-color="#019AE6"/>
</linearGradient>
<linearGradient id="paint2_linear_3294_1594" x1="9.66724" y1="16.2114" x2="19.5967" y2="16.2114" gradientUnits="userSpaceOnUse">
<stop stop-color="#21CFFF"/>
<stop offset="1" stop-color="#019AE6"/>
</linearGradient>
<linearGradient id="paint3_linear_3294_1594" x1="0" y1="9.53797" x2="0.704108" y2="9.53797" gradientUnits="userSpaceOnUse">
<stop stop-color="#21CFFF"/>
<stop offset="1" stop-color="#019AE6"/>
</linearGradient>
<linearGradient id="paint4_linear_3294_1594" x1="19.2959" y1="10.4667" x2="20.0045" y2="10.4667" gradientUnits="userSpaceOnUse">
<stop stop-color="#21CFFF"/>
<stop offset="1" stop-color="#019AE6"/>
</linearGradient>
<linearGradient id="paint5_linear_3294_1594" x1="6.97974" y1="9.99702" x2="13.0209" y2="9.99702" gradientUnits="userSpaceOnUse">
<stop stop-color="#21CFFF"/>
<stop offset="1" stop-color="#019AE6"/>
</linearGradient>
<clipPath id="clip0_3294_1594">
<rect width="20" height="20" fill="white"/>
</clipPath>
</defs>
</svg>
