<svg width="23" height="23" viewBox="0 0 23 23" fill="none" xmlns="http://www.w3.org/2000/svg">
<g clip-path="url(#clip0_3515_1514)">
<path d="M22.7367 9.06386C24.261 16.1672 18.9692 22.7789 11.8571 22.9943C4.68546 23.2123 -0.940952 16.8914 0.131557 9.77884C1.18639 2.7822 8.32007 -1.68515 15.1663 0.604507C18.9581 1.87275 21.8882 5.10983 22.7367 9.06451V9.06386ZM13.9105 15.3881C14.3439 15.8209 15.0072 15.7547 15.3857 15.3645C15.7746 14.9631 15.789 14.3156 15.3745 13.9005L12.544 11.0654L12.5394 5.18251C12.5394 4.58931 12.0051 4.17354 11.4774 4.18664C10.9202 4.20039 10.4553 4.6371 10.4553 5.23292V11.4982C10.4553 11.7856 10.564 12.0456 10.761 12.2427L13.9092 15.3881H13.9105Z" fill="url(#paint0_linear_3515_1514)"/>
</g>
<defs>
<linearGradient id="paint0_linear_3515_1514" x1="0" y1="11.5" x2="22.9998" y2="11.5" gradientUnits="userSpaceOnUse">
<stop stop-color="#21CFFF"/>
<stop offset="1" stop-color="#019AE6"/>
</linearGradient>
<clipPath id="clip0_3515_1514">
<rect width="23" height="23" fill="white"/>
</clipPath>
</defs>
</svg>
