<svg width="46" height="46" viewBox="0 0 46 46" fill="none" xmlns="http://www.w3.org/2000/svg">
<g clip-path="url(#clip0_3515_1070)">
<path d="M14.8774 43.8467L2.1881 31.1604C-0.592693 28.3808 -0.805439 23.7956 2.02514 20.9617L18.4036 4.56117C19.745 3.21828 21.4107 2.35629 23.2877 2.0614L35.6677 0.107552C38.5164 -0.34159 41.3229 0.653478 43.3161 2.62849C45.3183 4.61258 46.3473 7.44354 45.8947 10.3168L43.9392 22.7204C43.6435 24.5986 42.7834 26.2606 41.4406 27.6065L25.2915 43.7847C22.4126 46.6686 17.8212 46.7896 14.8774 43.8467ZM34.0291 11.8049C31.8459 9.76335 28.4495 9.87223 26.3899 11.9592C24.2307 14.1459 24.4012 17.6437 26.5875 19.6883C28.7512 21.7117 32.1748 21.6346 34.2389 19.4418C36.217 17.3398 36.2788 13.9085 34.0291 11.8064V11.8049Z" fill="url(#paint0_linear_3515_1070)"/>
</g>
<defs>
<linearGradient id="paint0_linear_3515_1070" x1="0" y1="23.0011" x2="46.0003" y2="23.0011" gradientUnits="userSpaceOnUse">
<stop stop-color="#21CFFF"/>
<stop offset="1" stop-color="#019AE6"/>
</linearGradient>
<clipPath id="clip0_3515_1070">
<rect width="46" height="46" fill="white"/>
</clipPath>
</defs>
</svg>
