<svg width="15" height="20" viewBox="0 0 15 20" fill="none" xmlns="http://www.w3.org/2000/svg">
<g clip-path="url(#clip0_3326_2260)">
<path d="M14.9766 20L7.5067 15.5649L0.0261116 19.9993L9.4749e-06 3.37715C-0.00132909 2.40036 0.138551 1.55468 0.808505 0.858857C1.47243 0.16858 2.29231 0 3.24872 0H11.7513C12.693 0 13.5015 0.158868 14.1641 0.82972C14.8501 1.52416 15.0013 2.37955 15 3.36883L14.9766 20ZM7.73091 10.7766L9.34924 11.6404C9.47038 11.7049 9.68589 11.6605 9.78294 11.5842C9.87998 11.5079 9.98172 11.3122 9.95762 11.1658L9.64975 9.33435C9.62499 9.18866 9.69526 9.01245 9.79365 8.91533L11.1068 7.61941C11.2165 7.51119 11.26 7.30722 11.2159 7.1768C11.1663 7.02973 11.0225 6.9104 10.8618 6.88681L9.01594 6.61487C8.90216 6.59822 8.75023 6.48167 8.69937 6.37691L7.89355 4.714C7.8206 4.56346 7.63052 4.46287 7.47525 4.46772C7.33269 4.47189 7.16068 4.58705 7.08773 4.73759L6.29262 6.38107C6.24577 6.47751 6.08849 6.60169 5.98341 6.61764L4.13686 6.8882C3.97422 6.91179 3.82765 7.02487 3.77812 7.17056C3.73796 7.2878 3.76674 7.50009 3.86245 7.59444L5.20303 8.9188C5.29873 9.01384 5.37235 9.19213 5.34826 9.33435L5.04641 11.1173C5.0163 11.297 5.08858 11.4926 5.2144 11.5904C5.3235 11.675 5.53231 11.7118 5.66349 11.6417L7.32064 10.7572C7.42505 10.701 7.6091 10.7142 7.73024 10.7787L7.73091 10.7766Z" fill="url(#paint0_linear_3326_2260)"/>
</g>
<defs>
<linearGradient id="paint0_linear_3326_2260" x1="0" y1="10" x2="15" y2="10" gradientUnits="userSpaceOnUse">
<stop stop-color="#21CFFF"/>
<stop offset="1" stop-color="#019AE6"/>
</linearGradient>
<clipPath id="clip0_3326_2260">
<rect width="15" height="20" fill="white"/>
</clipPath>
</defs>
</svg>
