<svg width="32" height="36" viewBox="0 0 32 36" fill="none" xmlns="http://www.w3.org/2000/svg">
<g clip-path="url(#clip0_4716_4290)">
<path d="M22.7324 0C23.1044 0.219799 23.4972 0.48938 23.4972 0.989093L23.501 3.16547C23.5019 3.77697 22.9813 4.22877 22.4134 4.21468C21.8455 4.20059 21.376 3.75818 21.3779 3.16829L21.3827 0.981579C21.3836 0.481866 21.7849 0.20383 22.1654 0L22.7324 0Z" fill="url(#paint0_linear_4716_4290)"/>
<path d="M20.1327 20.9334C18.3429 21.8135 16.7915 22.8975 15.297 24.1186L7.60742 16.482C10.2558 13.3785 12.0097 9.81103 12.7546 5.83118L25.987 18.9637C23.8734 19.376 21.9955 19.9838 20.1337 20.9325L20.1327 20.9334Z" fill="url(#paint1_linear_4716_4290)"/>
<path d="M3.95459 30.7614L0.963577 27.7941C-0.292457 26.5571 -0.327479 24.5995 0.899213 23.3221L6.19311 18.0695L13.7094 25.5266L8.48653 30.7126C7.2305 31.9619 5.25511 32.0041 3.95459 30.7614ZM6.9437 26.2706L8.44867 24.778C8.86703 24.3628 8.83958 23.7128 8.47233 23.3202C8.10508 22.9276 7.40371 22.8458 6.98535 23.2591L5.42643 24.8024C5.00049 25.2232 5.05634 25.9108 5.47281 26.2969C5.85993 26.6557 6.51209 26.6989 6.9437 26.2715V26.2706Z" fill="url(#paint2_linear_4716_4290)"/>
<path d="M30.9078 14.8965C31.7881 15.7701 31.7957 17.0748 30.9627 17.9164C30.1658 18.7223 28.8085 18.7805 27.9547 17.9333L13.8345 3.92347C12.9798 3.07528 12.9627 1.7593 13.7853 0.923318C14.6078 0.0873322 15.9509 0.0553957 16.8066 0.903593L30.9088 14.8965H30.9078Z" fill="url(#paint3_linear_4716_4290)"/>
<path d="M11.4565 30.7483L14.4589 27.7651L16.6151 29.8335L18.0282 28.4508C18.4996 27.9896 18.5223 27.3227 18.0576 26.8587L16.8082 25.6084L18.51 24.3291L19.5626 25.3661C20.8053 26.59 20.8725 28.5795 19.6288 29.8269L18.156 31.3044L19.2758 32.3987C20.1153 33.2197 20.0964 34.5516 19.2975 35.3594C18.4646 36.202 17.1432 36.2179 16.2668 35.3744L11.4565 30.7474V30.7483Z" fill="url(#paint4_linear_4716_4290)"/>
<path d="M27.4659 5.99655C27.0211 6.43896 26.3689 6.41642 25.961 6.03506C25.553 5.6537 25.4905 4.97833 25.9118 4.56034L28.0698 2.41402C28.4882 1.9979 29.1451 2.02326 29.5502 2.40556C29.9553 2.78786 30.0045 3.47356 29.5729 3.90282L27.4669 5.99561L27.4659 5.99655Z" fill="url(#paint5_linear_4716_4290)"/>
<path d="M30.9949 10.5371L28.8226 10.5465C28.2225 10.5494 27.7739 10.0675 27.7569 9.5255C27.7389 8.95065 28.2008 8.43778 28.8217 8.43872L30.9552 8.44154C31.5439 8.44154 31.9831 8.92341 32.0001 9.46163C32.0171 9.99986 31.6168 10.5353 30.9959 10.5381L30.9949 10.5371Z" fill="url(#paint6_linear_4716_4290)"/>
</g>
<defs>
<linearGradient id="paint0_linear_4716_4290" x1="21.3779" y1="2.1075" x2="23.501" y2="2.1075" gradientUnits="userSpaceOnUse">
<stop stop-color="#21CFFF"/>
<stop offset="1" stop-color="#019AE6"/>
</linearGradient>
<linearGradient id="paint1_linear_4716_4290" x1="7.60742" y1="14.9749" x2="25.987" y2="14.9749" gradientUnits="userSpaceOnUse">
<stop stop-color="#21CFFF"/>
<stop offset="1" stop-color="#019AE6"/>
</linearGradient>
<linearGradient id="paint2_linear_4716_4290" x1="0" y1="24.8706" x2="13.7094" y2="24.8706" gradientUnits="userSpaceOnUse">
<stop stop-color="#21CFFF"/>
<stop offset="1" stop-color="#019AE6"/>
</linearGradient>
<linearGradient id="paint3_linear_4716_4290" x1="13.1807" y1="9.41342" x2="31.578" y2="9.41342" gradientUnits="userSpaceOnUse">
<stop stop-color="#21CFFF"/>
<stop offset="1" stop-color="#019AE6"/>
</linearGradient>
<linearGradient id="paint4_linear_4716_4290" x1="11.4565" y1="30.1642" x2="20.5288" y2="30.1642" gradientUnits="userSpaceOnUse">
<stop stop-color="#21CFFF"/>
<stop offset="1" stop-color="#019AE6"/>
</linearGradient>
<linearGradient id="paint5_linear_4716_4290" x1="25.624" y1="4.21755" x2="29.8759" y2="4.21755" gradientUnits="userSpaceOnUse">
<stop stop-color="#21CFFF"/>
<stop offset="1" stop-color="#019AE6"/>
</linearGradient>
<linearGradient id="paint6_linear_4716_4290" x1="27.7563" y1="9.49263" x2="32.0006" y2="9.49263" gradientUnits="userSpaceOnUse">
<stop stop-color="#21CFFF"/>
<stop offset="1" stop-color="#019AE6"/>
</linearGradient>
<clipPath id="clip0_4716_4290">
<rect width="32" height="36" fill="white"/>
</clipPath>
</defs>
</svg>
