<svg width="40" height="46" viewBox="0 0 40 46" fill="none" xmlns="http://www.w3.org/2000/svg">
<g clip-path="url(#clip0_3515_1668)">
<path d="M26.4066 46H0.333576C0.160266 45.8079 -0.00859896 45.5714 0.00139965 45.3266C0.0113983 45.0817 0.212481 44.7432 0.520216 44.7432H26.1511C26.5299 44.742 26.7588 44.9676 26.7966 45.3434C26.8199 45.5714 26.6155 45.8403 26.4077 46H26.4066Z" fill="url(#paint0_linear_3515_1668)"/>
<path d="M33.6599 45.9999H28.1729C27.9285 45.8247 27.7297 45.551 27.7874 45.2497C27.8452 44.9484 28.1052 44.7395 28.4129 44.7395L33.5011 44.7467C33.771 44.7467 34.0043 45.0852 34.011 45.3253C34.0177 45.5786 33.8466 45.8174 33.661 45.9999H33.6599Z" fill="url(#paint1_linear_3515_1668)"/>
<path d="M39.6641 45.9999H35.6702C35.4169 45.8258 35.2169 45.5569 35.2747 45.2532C35.3324 44.9496 35.5991 44.7371 35.9079 44.7383L39.503 44.7479C39.7596 44.7479 39.9962 45.0888 39.9996 45.3241C40.004 45.5726 39.8396 45.8066 39.6641 45.9987V45.9999Z" fill="url(#paint2_linear_3515_1668)"/>
<path d="M20.3013 25.3737L21.3267 24.6835C21.5367 24.5418 21.6478 24.1889 21.5389 23.9272L20.4035 21.2C20.959 20.8146 21.2012 20.2421 21.2078 19.5674L30.1977 19.2601C30.7776 19.996 31.7264 20.0968 32.3729 19.505C33.0195 18.9132 33.1173 17.9733 32.5507 17.1018L34.8604 17.097L34.857 34.6923H5.14116L5.13672 17.1091L7.63415 17.0898C7.77413 17.4344 7.88078 17.7176 8.04409 18.0213L11.0259 23.5815C11.8002 25.0244 13.4656 25.4577 14.7987 24.6739L15.5675 24.2213L17.8072 29.9412C18.0516 30.5654 18.7026 30.8043 19.2614 30.569C19.948 30.2809 20.589 29.8716 21.1556 29.3734C22.4843 28.2066 21.1167 26.5861 20.2991 25.3713L20.3013 25.3737Z" fill="url(#paint3_linear_3515_1668)"/>
<path d="M26.3734 38.8925L38.825 38.8877L38.8317 40.6967C38.8361 41.8659 37.9762 42.6989 36.8975 42.6977L3.01886 42.6953C1.92568 42.6953 1.15134 41.7302 1.16023 40.6151L1.17467 38.8889H13.563L14.1684 39.6787C14.234 39.764 14.4351 39.9764 14.5395 39.9764L25.5169 39.9788C25.8801 39.6463 26.0712 39.3955 26.3712 38.8925H26.3734Z" fill="url(#paint4_linear_3515_1668)"/>
<path d="M31.87 15.833L31.4268 14.9688L35.1662 14.9544C36.0872 14.9508 36.8405 15.6758 36.8416 16.7201V37.6309L26.1719 37.6333C26.0109 37.6333 25.7953 37.7617 25.7042 37.8457L25.0488 38.7232L14.9457 38.7208C14.6458 38.3127 14.4058 37.997 14.0658 37.6345L3.15625 37.6309V16.7189C3.15625 15.7382 3.85726 14.9628 4.74825 14.9628H7.82782L7.57897 15.8294L4.58827 15.833C4.2161 15.833 3.97058 16.1151 3.97058 16.5401V35.2925C3.97169 35.7006 4.22832 35.9455 4.60383 35.9455H35.3973C35.7706 35.9455 36.0295 35.697 36.0295 35.2913V16.5401C36.0306 16.1175 35.7817 15.8318 35.414 15.8318H31.8712L31.87 15.833Z" fill="url(#paint5_linear_3515_1668)"/>
<path d="M20.718 18.3408L16.9863 11.3954L21.6457 3.30835L29.5201 18.0167L20.718 18.3408Z" fill="url(#paint6_linear_3515_1668)"/>
<path d="M14.2584 23.5685C13.4207 24.0894 12.4575 23.7605 11.9998 22.9059L8.92688 17.1572C8.49361 16.3469 8.7769 15.2882 9.52013 14.8249L15.1094 11.3389C15.2771 11.2345 15.5915 11.2909 15.6893 11.4746L19.9898 19.5028C20.0453 19.7248 19.9976 19.9961 19.8176 20.1078L14.2584 23.5685ZM10.56 18.1523L11.9531 17.2892C12.242 17.1104 12.3209 16.7095 12.1575 16.4106C12.0165 16.1549 11.6576 16.0216 11.3688 16.2017L9.99673 17.0588C9.7101 17.2376 9.65011 17.6374 9.80898 17.9339C9.9223 18.1463 10.2834 18.3228 10.56 18.1511V18.1523ZM11.5976 20.0957L13.0063 19.2219C13.2874 19.0466 13.344 18.6325 13.1952 18.3552C13.0585 18.0995 12.6897 17.9711 12.4142 18.1427L11.0344 19.0034C10.7533 19.1787 10.6955 19.5808 10.8266 19.8425C10.9488 20.0861 11.311 20.2734 11.5976 20.0945V20.0957ZM12.7008 22.002L14.004 21.1917C14.3084 21.002 14.4017 20.6215 14.2484 20.3178C14.1162 20.0561 13.7429 19.9097 13.4729 20.0777L12.0831 20.9432C11.7976 21.1209 11.7287 21.5254 11.8876 21.8183C12.0287 22.0788 12.3908 22.1964 12.7008 22.0032V22.002Z" fill="url(#paint7_linear_3515_1668)"/>
<path d="M31.7021 18.0263C31.8232 18.2531 31.6999 18.5184 31.591 18.5784C31.4822 18.6385 31.1833 18.6132 31.0989 18.456L22.0879 1.62298C22.0001 1.45853 22.1201 1.14883 22.2312 1.09481C22.3423 1.0408 22.6234 1.0696 22.7078 1.22806L31.7021 18.0275V18.0263Z" fill="url(#paint8_linear_3515_1668)"/>
<path d="M20.3288 27.5716C20.9109 28.4611 19.5633 29.0372 18.8623 29.3962L16.5859 23.5683L18.0391 22.6692C18.1646 23.7867 18.499 24.7771 19.0967 25.6894L20.3288 27.5704V27.5716Z" fill="url(#paint9_linear_3515_1668)"/>
<path d="M28.3064 3.32155C28.1509 3.67687 27.8043 3.7849 27.5055 3.63606C27.2522 3.51002 27.1022 3.12709 27.2522 2.78738L28.3209 0.350599C28.462 0.0276952 28.8142 -0.0731372 29.0863 0.0541037C29.3319 0.169341 29.5163 0.549863 29.3774 0.869166L28.3076 3.32276L28.3064 3.32155Z" fill="url(#paint10_linear_3515_1668)"/>
<path d="M34.791 13.2319L32.7413 13.0494C32.4225 13.0206 32.1958 12.7433 32.1858 12.4336C32.1758 12.1239 32.418 11.7662 32.7624 11.7962L34.9044 11.9799C35.2354 12.0087 35.4487 12.3364 35.4398 12.6209C35.4287 12.9618 35.191 13.2679 34.7899 13.2319H34.791Z" fill="url(#paint11_linear_3515_1668)"/>
<path d="M31.8352 7.49401C31.5519 7.66927 31.193 7.47481 31.0786 7.25273C30.9375 6.97905 30.9886 6.57692 31.2752 6.39926L33.0761 5.2793C33.3383 5.11605 33.7082 5.2817 33.8282 5.50737C33.9982 5.82548 33.9038 6.2144 33.6027 6.40166L31.834 7.49401H31.8352Z" fill="url(#paint12_linear_3515_1668)"/>
<path d="M29.3307 11.0651L27.1377 6.97534C28.8141 7.41948 29.7951 9.25247 29.3307 11.0651Z" fill="url(#paint13_linear_3515_1668)"/>
<path d="M20.257 23.8912L19.6826 24.2657C19.3616 23.5083 19.056 22.7256 19.3349 21.7749L20.257 23.8912Z" fill="url(#paint14_linear_3515_1668)"/>
</g>
<defs>
<linearGradient id="paint0_linear_3515_1668" x1="0.000976562" y1="45.3716" x2="26.7984" y2="45.3716" gradientUnits="userSpaceOnUse">
<stop stop-color="#21CFFF"/>
<stop offset="1" stop-color="#019AE6"/>
</linearGradient>
<linearGradient id="paint1_linear_3515_1668" x1="27.7773" y1="45.3697" x2="34.0112" y2="45.3697" gradientUnits="userSpaceOnUse">
<stop stop-color="#21CFFF"/>
<stop offset="1" stop-color="#019AE6"/>
</linearGradient>
<linearGradient id="paint2_linear_3515_1668" x1="35.2646" y1="45.3691" x2="39.9997" y2="45.3691" gradientUnits="userSpaceOnUse">
<stop stop-color="#21CFFF"/>
<stop offset="1" stop-color="#019AE6"/>
</linearGradient>
<linearGradient id="paint3_linear_3515_1668" x1="5.13672" y1="25.8911" x2="34.8604" y2="25.8911" gradientUnits="userSpaceOnUse">
<stop stop-color="#21CFFF"/>
<stop offset="1" stop-color="#019AE6"/>
</linearGradient>
<linearGradient id="paint4_linear_3515_1668" x1="1.16016" y1="40.7927" x2="38.8317" y2="40.7927" gradientUnits="userSpaceOnUse">
<stop stop-color="#21CFFF"/>
<stop offset="1" stop-color="#019AE6"/>
</linearGradient>
<linearGradient id="paint5_linear_3515_1668" x1="3.15625" y1="26.8388" x2="36.8416" y2="26.8388" gradientUnits="userSpaceOnUse">
<stop stop-color="#21CFFF"/>
<stop offset="1" stop-color="#019AE6"/>
</linearGradient>
<linearGradient id="paint6_linear_3515_1668" x1="16.9863" y1="10.8246" x2="29.5201" y2="10.8246" gradientUnits="userSpaceOnUse">
<stop stop-color="#21CFFF"/>
<stop offset="1" stop-color="#019AE6"/>
</linearGradient>
<linearGradient id="paint7_linear_3515_1668" x1="8.72266" y1="17.5526" x2="20.0117" y2="17.5526" gradientUnits="userSpaceOnUse">
<stop stop-color="#21CFFF"/>
<stop offset="1" stop-color="#019AE6"/>
</linearGradient>
<linearGradient id="paint8_linear_3515_1668" x1="22.0576" y1="9.83908" x2="31.7521" y2="9.83908" gradientUnits="userSpaceOnUse">
<stop stop-color="#21CFFF"/>
<stop offset="1" stop-color="#019AE6"/>
</linearGradient>
<linearGradient id="paint9_linear_3515_1668" x1="16.5859" y1="26.0327" x2="20.471" y2="26.0327" gradientUnits="userSpaceOnUse">
<stop stop-color="#21CFFF"/>
<stop offset="1" stop-color="#019AE6"/>
</linearGradient>
<linearGradient id="paint10_linear_3515_1668" x1="27.1924" y1="1.85086" x2="29.4252" y2="1.85086" gradientUnits="userSpaceOnUse">
<stop stop-color="#21CFFF"/>
<stop offset="1" stop-color="#019AE6"/>
</linearGradient>
<linearGradient id="paint11_linear_3515_1668" x1="32.1855" y1="12.5146" x2="35.4401" y2="12.5146" gradientUnits="userSpaceOnUse">
<stop stop-color="#21CFFF"/>
<stop offset="1" stop-color="#019AE6"/>
</linearGradient>
<linearGradient id="paint12_linear_3515_1668" x1="31.0029" y1="6.38773" x2="33.9122" y2="6.38773" gradientUnits="userSpaceOnUse">
<stop stop-color="#21CFFF"/>
<stop offset="1" stop-color="#019AE6"/>
</linearGradient>
<linearGradient id="paint13_linear_3515_1668" x1="27.1377" y1="9.0202" x2="29.4459" y2="9.0202" gradientUnits="userSpaceOnUse">
<stop stop-color="#21CFFF"/>
<stop offset="1" stop-color="#019AE6"/>
</linearGradient>
<linearGradient id="paint14_linear_3515_1668" x1="19.2256" y1="23.0203" x2="20.257" y2="23.0203" gradientUnits="userSpaceOnUse">
<stop stop-color="#21CFFF"/>
<stop offset="1" stop-color="#019AE6"/>
</linearGradient>
<clipPath id="clip0_3515_1668">
<rect width="40" height="46" fill="white"/>
</clipPath>
</defs>
</svg>
