<svg width="45" height="45" viewBox="0 0 45 45" fill="none" xmlns="http://www.w3.org/2000/svg">
<g clip-path="url(#clip0_4235_2660)">
<path d="M22.6226 30.2015C21.8728 32.4725 23.6095 33.9155 23.6908 34.2373C23.772 34.5591 21.8178 35.955 22.6317 38.3844C23.1665 39.9817 23.987 41.4024 25.0893 42.674C25.8731 43.5767 27.0173 44.0555 28.2074 43.9312L29.273 43.82L29.7396 45.0013L5.74214 44.9974C2.49949 44.9935 0 42.3666 0 39.1641V5.83595C0 2.63213 2.49949 0.00784929 5.73821 0.00654108L23.6619 0C24.755 0 25.6437 0.396389 26.3987 1.15254L35.5067 10.263C36.1817 10.9393 36.6194 11.8119 36.6194 12.7891L36.626 21.5843C35.0807 21.388 33.6193 21.3972 32.1356 21.7412C30.8052 22.05 29.8484 23.0547 29.446 24.3446L29.2547 24.686C29.1498 24.8744 26.8718 23.9403 25.2321 25.7261C24.0538 27.0081 23.1848 28.4969 22.6226 30.2002V30.2015ZM25.6424 13.0835L32.9351 13.0599L23.5676 3.69048L23.5479 10.7208C23.447 11.999 24.3514 13.056 25.6424 13.0835ZM25.683 20.9262C26.6359 20.9262 27.2257 20.085 27.2034 19.3171C27.1785 18.5008 26.5297 17.7904 25.6319 17.7904H8.87077C7.94673 17.7917 7.31235 18.5793 7.33201 19.3995C7.35167 20.2198 7.98212 20.9288 8.87208 20.9288H25.6843L25.683 20.9262ZM18.2357 25.1177H8.96514C8.0411 25.1177 7.35036 25.7705 7.32939 26.6706C7.31235 27.4634 7.9677 28.2562 8.87601 28.2562H18.3549C19.2514 28.2535 19.8963 27.4529 19.878 26.6719C19.8583 25.798 19.1977 25.1177 18.2357 25.1177ZM18.334 35.5782C19.2895 35.5782 19.9107 34.7567 19.8753 33.943C19.84 33.1293 19.1728 32.4411 18.2763 32.4411L8.8747 32.4451C7.9677 32.4451 7.31629 33.213 7.32939 34.0345C7.3425 34.8561 7.98343 35.5782 8.86552 35.5782H18.334Z" fill="url(#paint0_linear_4235_2660)"/>
<path d="M36.8919 44.7815C35.4501 45.0798 34.0726 45.0641 32.6806 44.7933C32.1694 44.6938 31.754 44.3262 31.5573 43.8592L30.8024 42.0656L29.9727 41.6078L28.0906 41.8459C27.5807 41.91 27.0525 41.736 26.7117 41.3514C25.7746 40.2917 25.0851 39.0908 24.6212 37.7498C24.4429 37.2344 24.5543 36.6823 24.8781 36.2598L26.0223 34.7658V33.7859L24.8781 32.288C24.5818 31.8995 24.4429 31.3592 24.6015 30.8778C25.0537 29.4976 25.7588 28.281 26.7143 27.1965C27.0158 26.855 27.5283 26.6392 27.987 26.6954L29.9753 26.9414L30.8024 26.4835L31.5573 24.6899C31.754 24.2242 32.1707 23.8566 32.6806 23.7559C34.0765 23.4811 35.4527 23.4785 36.8512 23.7559C37.3205 23.8487 37.7609 24.1863 37.9457 24.6219L38.7321 26.4783L39.5565 26.9427L41.4347 26.7046C41.9826 26.6352 42.5147 26.8289 42.8699 27.2449C43.79 28.3228 44.4886 29.5185 44.9343 30.8765C45.0889 31.3461 44.9539 31.9073 44.6656 32.2802L43.524 33.7545V34.792L44.6603 36.2611C44.9513 36.6365 45.0916 37.2017 44.9343 37.674C44.4755 39.0528 43.7756 40.2682 42.8201 41.3553C42.5187 41.698 41.9983 41.91 41.5422 41.8537L39.5552 41.6091L38.7321 42.0735L37.9771 43.8618C37.7962 44.2922 37.4096 44.6755 36.8919 44.7828V44.7815ZM34.2705 31.1826C32.463 31.4743 31.3752 33.1672 31.6845 34.8469C31.9925 36.5188 33.5889 37.6413 35.2587 37.3718C36.9286 37.1023 38.1475 35.4853 37.8605 33.765C37.5865 32.1193 36.0465 30.8948 34.2692 31.1826H34.2705Z" fill="url(#paint1_linear_4235_2660)"/>
</g>
<defs>
<linearGradient id="paint0_linear_4235_2660" x1="0" y1="22.5007" x2="36.626" y2="22.5007" gradientUnits="userSpaceOnUse">
<stop stop-color="#21CFFF"/>
<stop offset="1" stop-color="#019AE6"/>
</linearGradient>
<linearGradient id="paint1_linear_4235_2660" x1="24.5352" y1="34.2748" x2="44.9996" y2="34.2748" gradientUnits="userSpaceOnUse">
<stop stop-color="#21CFFF"/>
<stop offset="1" stop-color="#019AE6"/>
</linearGradient>
<clipPath id="clip0_4235_2660">
<rect width="45" height="45" fill="white"/>
</clipPath>
</defs>
</svg>
