<svg width="46" height="46" viewBox="0 0 46 46" fill="none" xmlns="http://www.w3.org/2000/svg">
<g clip-path="url(#clip0_3515_1073)">
<path d="M18.6909 46H17.792C17.2435 45.79 16.8199 45.514 16.3734 45.0687L7.52485 36.241L1.45816 36.2566C0.564064 36.259 0 35.6445 0 34.7623L0.00960108 23.9974C0.00960108 23.2245 0.644473 22.6808 1.38016 22.6796L17.5712 22.6592L13.9864 26.2959C13.0143 27.2825 12.623 28.6063 12.9255 30.0238C13.1667 31.1544 13.9624 32.2034 15.1325 32.7831C16.9027 33.6593 18.8793 33.7997 20.7767 33.1516C22.0717 32.7087 23.2694 32.0366 24.2451 31.0704L26.1906 29.1416C26.3538 28.9796 26.6778 28.9376 26.859 29.1188L31.7988 34.0446C32.6461 34.8895 32.5105 36.337 31.7568 37.1508C30.9707 38.0005 29.7394 38.1505 28.6568 37.4892C29.2749 38.507 29.1933 39.7108 28.4168 40.5078C27.6211 41.3239 26.475 41.42 25.3877 40.8511C26.0597 42.0297 25.8161 43.3031 24.8584 44.0473C23.9007 44.7914 22.625 44.6654 21.7621 43.8288L20.3135 42.4246C20.6159 43.2407 20.7383 43.9597 20.3279 44.7782C20.0363 45.3603 19.4098 45.7828 18.6885 46H18.6909Z" fill="url(#paint0_linear_3515_1073)"/>
<path d="M46.0003 23.8258V35.6541C45.7266 36.1162 45.3714 36.6443 44.7341 36.6479L39.3071 36.6767C38.7406 38.6379 37.2033 40.089 35.1282 40.1022L32.2503 40.1202C32.9932 39.6521 33.6389 39.244 34.1393 38.5107C35.3731 36.7019 35.4883 33.9558 33.8777 32.3403L28.4975 26.9452C27.373 25.817 25.652 25.8602 24.5442 26.968L22.4344 29.0781C21.7647 29.7466 20.9402 30.2207 20.0557 30.5495C18.7524 31.0356 17.317 30.9576 16.1313 30.2387C15.368 29.7754 15.3296 28.754 15.9381 28.1443L22.4764 21.5898C24.5418 19.5194 27.7066 19.2686 29.8692 21.3726C30.845 22.322 32.0991 22.8489 33.5225 22.8465L44.6465 22.8273C45.3234 22.8273 45.7062 23.3313 46.0003 23.8258Z" fill="url(#paint1_linear_3515_1073)"/>
<path d="M33.465 20.1507C32.7881 20.1459 32.2612 19.9214 31.8112 19.4977C29.7277 17.4249 26.6734 16.6748 23.8651 17.581C22.4561 18.0707 21.3316 18.9 20.3139 19.961L6.30469 19.9754L6.30709 1.36106C6.30709 0.612117 6.83755 0.0948181 7.56123 0H28.59L28.5924 9.51542C28.518 10.3544 29.0245 11.0181 29.8549 11.1153L39.6961 11.1177V20.1387L33.465 20.1507ZM19.1881 8.08355C20.0042 8.08355 20.5287 7.37661 20.5071 6.69728C20.4843 5.98194 19.9106 5.39023 19.1401 5.39143L13.029 5.39503C12.2454 5.39503 11.6777 6.06476 11.6981 6.7801C11.7185 7.45583 12.273 8.08715 13.029 8.08595L19.1881 8.08355ZM19.1881 13.4738C20.0042 13.4738 20.5287 12.7668 20.5071 12.0875C20.4843 11.3734 19.9106 10.7817 19.1401 10.7817L13.029 10.7853C12.2454 10.7853 11.6777 11.455 11.6981 12.1703C11.7185 12.8461 12.273 13.4774 13.029 13.4762L19.1881 13.4738Z" fill="url(#paint2_linear_3515_1073)"/>
<path d="M31.7685 8.42692C31.4553 8.42692 31.2849 8.25768 31.2812 7.99243L31.2969 0.0205078L39.6726 8.40291L31.7685 8.42572V8.42692Z" fill="url(#paint3_linear_3515_1073)"/>
</g>
<defs>
<linearGradient id="paint0_linear_3515_1073" x1="0" y1="34.3296" x2="32.38" y2="34.3296" gradientUnits="userSpaceOnUse">
<stop stop-color="#21CFFF"/>
<stop offset="1" stop-color="#019AE6"/>
</linearGradient>
<linearGradient id="paint1_linear_3515_1073" x1="15.5166" y1="30.0155" x2="46.0003" y2="30.0155" gradientUnits="userSpaceOnUse">
<stop stop-color="#21CFFF"/>
<stop offset="1" stop-color="#019AE6"/>
</linearGradient>
<linearGradient id="paint2_linear_3515_1073" x1="6.30469" y1="10.0753" x2="39.6961" y2="10.0753" gradientUnits="userSpaceOnUse">
<stop stop-color="#21CFFF"/>
<stop offset="1" stop-color="#019AE6"/>
</linearGradient>
<linearGradient id="paint3_linear_3515_1073" x1="31.2812" y1="4.22371" x2="39.6726" y2="4.22371" gradientUnits="userSpaceOnUse">
<stop stop-color="#21CFFF"/>
<stop offset="1" stop-color="#019AE6"/>
</linearGradient>
<clipPath id="clip0_3515_1073">
<rect width="46" height="46" fill="white"/>
</clipPath>
</defs>
</svg>
