<svg width="35" height="45" viewBox="0 0 35 45" fill="none" xmlns="http://www.w3.org/2000/svg">
<g clip-path="url(#clip0_6313_5688)">
<path d="M31.5 45H3.5C1.49334 44.6226 -0.00239029 43.0793 2.86771e-06 41.0308L0.0370969 6.62577C0.03949 4.43553 1.80205 2.65897 4.03368 2.64374L5.85727 2.63202L5.88 4.47186C5.90274 6.33983 7.46906 7.90546 9.42906 7.90546L25.5697 7.90897C27.5812 7.90897 29.1583 6.33983 29.1703 4.40038L29.1822 2.63788L30.9699 2.64022C33.1872 2.64374 35.0012 4.39569 34.9988 6.60585L34.9569 41.0824C34.9545 43.1144 33.4229 44.6086 31.4988 45H31.5ZM6.51299 17.748L8.20017 19.3945C8.72308 19.9055 9.57385 19.8867 10.0956 19.3734L14.1687 15.375C14.706 14.8476 14.5995 13.9992 14.1209 13.541C13.6422 13.0828 12.7891 13.0172 12.2757 13.5176L9.14547 16.5726L8.34257 15.8308C7.80171 15.3316 6.96411 15.4043 6.48787 15.8906C6.01163 16.3769 5.95898 17.2078 6.51299 17.748ZM27.5058 18.4558C28.3386 18.4558 28.8675 17.775 28.846 17.0976C28.8233 16.384 28.2429 15.818 27.458 15.8191L17.9511 15.8226C17.159 15.8226 16.5978 16.4789 16.6193 17.1773C16.6397 17.8394 17.1889 18.4558 17.9523 18.4558H27.507H27.5058ZM6.45197 27.1324L8.16188 28.8246C8.6812 29.3379 9.53795 29.3789 10.08 28.8469L14.1544 24.8508C14.6988 24.3164 14.6198 23.4574 14.1041 22.9851C13.5884 22.5129 12.7508 22.5047 12.2111 23.032L9.14667 26.0367L8.35812 25.3019C7.83402 24.8133 7.01915 24.8461 6.51778 25.3219C6.05351 25.7613 5.91231 26.5992 6.45197 27.1324ZM27.5058 27.2449C28.3386 27.2449 28.8675 26.5629 28.846 25.8867C28.8233 25.173 28.2417 24.6082 27.458 24.6082L17.9511 24.6117C17.159 24.6117 16.5978 25.2668 16.6193 25.9664C16.6397 26.6285 17.1877 27.2449 17.9523 27.2449H27.507H27.5058ZM6.45197 35.9215L8.16188 37.6137C8.6812 38.1281 9.53795 38.168 10.08 37.6359L14.1544 33.6398C14.6988 33.1055 14.6198 32.2476 14.1041 31.7742C13.5884 31.3008 12.7508 31.2937 12.2111 31.8211L9.14667 34.8258L8.35812 34.091C7.83402 33.6023 7.01915 33.6351 6.51778 34.1109C6.05351 34.5504 5.91231 35.3883 6.45197 35.9215ZM27.598 36.0293C28.408 36.0293 28.9058 35.3133 28.8855 34.6793C28.8651 34.0019 28.3111 33.3996 27.5489 33.3996H17.9511C17.159 33.3996 16.5978 34.057 16.6193 34.7555C16.6409 35.4539 17.1877 36.034 17.9523 36.034L27.5991 36.0293H27.598Z" fill="url(#paint0_linear_6313_5688)"/>
<path d="M25.848 0C26.2812 0.222656 26.4977 0.54375 26.4954 1.05352L26.4822 4.39805C26.4798 4.88203 26.0897 5.27227 25.568 5.27227H9.52544C8.97262 5.27344 8.55621 4.9043 8.5586 4.37461L8.56818 0.725391C8.56818 0.411328 8.95707 0.178125 9.1557 0L25.848 0Z" fill="url(#paint1_linear_6313_5688)"/>
</g>
<defs>
<linearGradient id="paint0_linear_6313_5688" x1="0" y1="23.816" x2="34.9988" y2="23.816" gradientUnits="userSpaceOnUse">
<stop stop-color="#21CFFF"/>
<stop offset="1" stop-color="#019AE6"/>
</linearGradient>
<linearGradient id="paint1_linear_6313_5688" x1="8.55859" y1="2.63613" x2="26.4954" y2="2.63613" gradientUnits="userSpaceOnUse">
<stop stop-color="#21CFFF"/>
<stop offset="1" stop-color="#019AE6"/>
</linearGradient>
<clipPath id="clip0_6313_5688">
<rect width="35" height="45" fill="white"/>
</clipPath>
</defs>
</svg>
