<svg width="98" height="32" viewBox="0 0 98 32" fill="none" xmlns="http://www.w3.org/2000/svg">
<g clip-path="url(#clip0_82_755)">
<path fill-rule="evenodd" clip-rule="evenodd" d="M32 0C22.9837 8.39148 9.01627 8.39148 0 0C8.39148 9.01627 8.39148 22.9837 0 32C2.38197 29.7831 5.1095 28.1519 8.00002 27.1063V27C8.00002 22.5817 11.5817 19 16 19C20.4183 19 24 22.5817 24 27V27.1063C26.8905 28.1519 29.618 29.7831 32 32C23.6085 22.9837 23.6085 9.01627 32 0ZM20 13C20 15.2091 18.2092 17 16 17C13.7909 17 12 15.2091 12 13C12 10.7909 13.7909 9 16 9C18.2092 9 20 10.7909 20 13Z" fill="#0A0A0A"/>
</g>
<path d="M42.712 25.288C41.448 25.288 40.256 25.088 39.136 24.688C38.032 24.272 37.096 23.616 36.328 22.72C35.56 21.808 35.096 20.656 34.936 19.264H37.816C38.088 20.544 38.68 21.464 39.592 22.024C40.504 22.568 41.56 22.84 42.76 22.84C43.928 22.84 44.84 22.6 45.496 22.12C46.168 21.624 46.504 20.904 46.504 19.96C46.504 19.256 46.296 18.696 45.88 18.28C45.464 17.848 44.944 17.536 44.32 17.344C43.696 17.136 42.84 16.912 41.752 16.672C40.424 16.384 39.352 16.096 38.536 15.808C37.72 15.504 37.024 15.024 36.448 14.368C35.872 13.696 35.584 12.776 35.584 11.608C35.584 10.52 35.848 9.584 36.376 8.8C36.904 8.016 37.64 7.424 38.584 7.024C39.528 6.608 40.608 6.4 41.824 6.4C43.616 6.4 45.16 6.864 46.456 7.792C47.752 8.704 48.544 10.08 48.832 11.92H46C45.76 10.88 45.256 10.112 44.488 9.616C43.736 9.12 42.832 8.872 41.776 8.872C40.72 8.872 39.896 9.096 39.304 9.544C38.712 9.976 38.416 10.584 38.416 11.368C38.416 11.976 38.608 12.464 38.992 12.832C39.392 13.2 39.88 13.48 40.456 13.672C41.032 13.864 41.832 14.072 42.856 14.296C44.248 14.6 45.368 14.912 46.216 15.232C47.08 15.552 47.816 16.08 48.424 16.816C49.032 17.536 49.336 18.528 49.336 19.792C49.336 21.488 48.752 22.832 47.584 23.824C46.432 24.8 44.808 25.288 42.712 25.288ZM57.5577 11.368C58.7257 11.368 59.7577 11.664 60.6537 12.256C61.5497 12.832 62.2377 13.648 62.7177 14.704C63.2137 15.76 63.4617 16.96 63.4617 18.304C63.4617 19.664 63.2137 20.872 62.7177 21.928C62.2377 22.984 61.5497 23.808 60.6537 24.4C59.7577 24.976 58.7257 25.264 57.5577 25.264C56.6777 25.264 55.9257 25.112 55.3017 24.808C54.6777 24.488 54.0697 23.928 53.4777 23.128V29.944H50.8377V11.632H53.4777V13.504C54.0697 12.72 54.6777 12.168 55.3017 11.848C55.9257 11.528 56.6777 11.368 57.5577 11.368ZM57.0777 13.672C56.3417 13.672 55.6777 13.872 55.0857 14.272C54.5097 14.656 54.0537 15.2 53.7177 15.904C53.3977 16.608 53.2377 17.408 53.2377 18.304C53.2377 19.2 53.3977 20.008 53.7177 20.728C54.0537 21.432 54.5097 21.984 55.0857 22.384C55.6777 22.768 56.3417 22.96 57.0777 22.96C58.2137 22.96 59.1177 22.528 59.7897 21.664C60.4777 20.784 60.8217 19.664 60.8217 18.304C60.8217 16.944 60.4777 15.832 59.7897 14.968C59.1177 14.104 58.2137 13.672 57.0777 13.672ZM68.7578 25.264C67.4458 25.264 66.3898 24.92 65.5898 24.232C64.7898 23.528 64.3898 22.576 64.3898 21.376C64.3898 20.144 64.8698 19.176 65.8298 18.472C66.5498 17.944 67.5818 17.552 68.9258 17.296L73.2938 16.456C73.2778 15.528 73.0298 14.816 72.5498 14.32C72.0218 13.792 71.3178 13.528 70.4378 13.528C69.7178 13.528 69.0858 13.736 68.5418 14.152C68.0138 14.552 67.6778 15.096 67.5338 15.784H64.9178C65.1418 14.376 65.7738 13.288 66.8138 12.52C67.8538 11.752 69.0698 11.368 70.4618 11.368C71.2458 11.368 71.9818 11.488 72.6698 11.728C73.3738 11.952 73.9658 12.288 74.4458 12.736C75.0858 13.328 75.4858 14.024 75.6458 14.824C75.8218 15.624 75.9098 16.544 75.9098 17.584V25H73.2698V23.032C72.9018 23.656 72.4378 24.144 71.8778 24.496C71.0778 25.008 70.0378 25.264 68.7578 25.264ZM69.2858 23.08C69.9898 23.08 70.6298 22.936 71.2058 22.648C71.9898 22.248 72.5338 21.72 72.8378 21.064C73.1578 20.392 73.3178 19.528 73.3178 18.472L69.5498 19.216C68.6218 19.408 67.9498 19.696 67.5338 20.08C67.1978 20.416 67.0298 20.824 67.0298 21.304C67.0298 21.864 67.2298 22.304 67.6298 22.624C68.0458 22.928 68.5978 23.08 69.2858 23.08ZM77.7574 25V11.632H80.3974V13.336C80.9414 12.632 81.5414 12.128 82.1974 11.824C82.8534 11.52 83.6134 11.368 84.4774 11.368H84.7414V13.96H84.0214C82.9494 13.96 82.1174 14.256 81.5254 14.848C80.7734 15.568 80.3974 16.752 80.3974 18.4V25H77.7574ZM88.2683 25H85.6283V6.688H88.2683V16.768L93.6443 11.632H97.1243L90.8843 17.464L97.6283 25H94.2443L88.2683 18.184V25Z" fill="#0A0A0A"/>
<defs>
<clipPath id="clip0_82_755">
<rect width="32" height="32" fill="white"/>
</clipPath>
</defs>
</svg>
