<svg width="82" height="56" viewBox="0 0 82 56" fill="none" xmlns="http://www.w3.org/2000/svg">
<g clip-path="url(#clip0_2501_3943)">
<g clip-path="url(#clip1_2501_3943)">
<path fill-rule="evenodd" clip-rule="evenodd" d="M35.4154 22.135L61.0737 8.72392C61.2229 8.64615 61.4019 8.64615 61.5554 8.7196C61.5554 8.7196 70.0001 12.7377 77.3024 16.246C82.8783 18.9205 87.7849 21.3011 87.7849 21.3011C88.0534 21.4307 88.1984 21.7289 88.1345 22.0227C88.0705 22.3165 87.8147 22.5238 87.5163 22.5282C87.5163 22.5282 77.7799 22.6059 66.739 22.6621C52.2751 22.7399 35.5689 22.7788 35.5689 22.7788C35.4154 22.7788 35.2748 22.6707 35.2407 22.5195C35.2023 22.364 35.2747 22.2085 35.4154 22.135ZM37.0524 22.0702C41.4517 21.9881 54.8456 21.7418 66.7262 21.5474C74.2247 21.4264 81.1177 21.327 84.7753 21.2752C82.8144 20.329 79.8943 18.9161 76.7654 17.391C70.2048 14.198 62.7405 10.5386 61.321 9.83862L37.0524 22.0702Z" fill="#D8DBDF"/>
<path fill-rule="evenodd" clip-rule="evenodd" d="M22.934 24.1182C22.7677 24.2003 22.5631 24.1311 22.4821 23.9626C22.3969 23.7985 22.4651 23.591 22.6313 23.509C22.6313 23.509 35.0235 17.0281 45.7745 11.4545C48.5411 10.0244 51.1969 8.6548 53.5074 7.47096C58.0558 5.13784 61.253 3.52193 61.253 3.52193C61.4363 3.42688 61.6537 3.42688 61.8328 3.52625C61.8328 3.52625 68.3209 6.98274 75.6616 10.9361C85.2786 16.1164 96.3621 22.135 96.3621 22.135C96.5241 22.2258 96.588 22.4288 96.5027 22.5973C96.4175 22.7615 96.2171 22.8263 96.0509 22.7399C96.0509 22.7399 84.8395 16.9632 75.15 11.9297C68.6704 8.56404 62.8729 5.52237 61.5344 4.82243C60.652 5.27177 57.8257 6.71054 54.07 8.60728C51.7511 9.77816 49.0825 11.1175 46.2945 12.5087C35.4626 17.9181 22.934 24.1182 22.934 24.1182Z" fill="#D8DBDF"/>
<path fill-rule="evenodd" clip-rule="evenodd" d="M114.124 25.6175L111.754 30.1465C111.694 30.2632 111.575 30.3367 111.445 30.3411C111.445 30.3411 79.5081 30.7916 51.8579 31.1279C30.7477 31.3878 12.1299 31.5774 12.1299 31.5774C11.9554 31.5818 11.7809 31.5041 11.6614 31.3746L6.92354 26.2222C6.74919 26.0322 6.70448 25.76 6.80427 25.5223C6.90411 25.289 7.13342 25.1377 7.38766 25.1333C7.38766 25.1333 27.3364 25.0943 49.9668 25.0885C79.6007 25.0798 113.83 25.1166 113.83 25.1166C113.945 25.1165 114.055 25.177 114.119 25.2806C114.179 25.3843 114.184 25.5138 114.124 25.6175ZM113.267 25.7993C108.701 25.8361 77.372 26.0571 49.9662 26.2161C30.9596 26.3239 13.8372 26.4007 8.85256 26.4201L12.3996 30.2855C14.8023 30.263 32.2488 30.1082 51.8486 29.9742C78.1926 29.7898 108.43 29.6338 111.226 29.6197L113.267 25.7993Z" fill="#D8DBDF"/>
<path fill-rule="evenodd" clip-rule="evenodd" d="M16.4717 24.8137C16.3097 24.9001 16.105 24.8353 16.0198 24.6669C15.9345 24.5027 15.9984 24.2953 16.1604 24.2089C16.1604 24.2089 30.5817 16.3972 43.089 9.68308C52.6422 4.55453 61.0826 0.0740794 61.0826 0.0740794C61.2617 -0.0209737 61.4705 -0.0253027 61.6538 0.0654298C61.6538 0.0654298 70.6144 4.41626 80.7558 9.39791C94.0389 15.9176 109.355 23.5046 109.355 23.5046C109.526 23.5867 109.594 23.7898 109.513 23.9583C109.436 24.1268 109.236 24.2002 109.066 24.1182C109.066 24.1182 93.6211 16.8077 80.2698 10.4305C71.1473 6.07105 63.0009 2.14797 61.3895 1.37026C59.8464 2.18685 52.1946 6.22228 43.6176 10.7027C31.0336 17.2786 16.4717 24.8137 16.4717 24.8137Z" fill="#D8DBDF"/>
<path fill-rule="evenodd" clip-rule="evenodd" d="M10.9896 34.5956C10.802 34.5956 10.6528 34.44 10.6528 34.2542C10.6528 34.0641 10.8063 33.9129 10.9896 33.9129C10.9896 33.9129 23.8294 33.8265 40.1775 33.8049C46.3288 33.7963 52.9832 33.7919 59.6333 33.8265C66.2833 33.8567 72.9377 33.9259 79.089 33.9907C95.4372 34.1592 108.273 34.3493 108.273 34.3493C108.46 34.3493 108.61 34.5048 108.61 34.6906C108.605 34.8764 108.456 35.032 108.268 35.0276C108.268 35.0276 95.433 35.1011 79.0848 35.127C72.9292 35.1356 66.2791 35.1486 59.629 35.1184C52.9747 35.0924 46.3246 35.0276 40.1733 34.9671C23.8251 34.7986 10.9896 34.5956 10.9896 34.5956Z" fill="#D8DBDF"/>
<path fill-rule="evenodd" clip-rule="evenodd" d="M10.7207 34.4574C10.6098 34.3062 10.6397 34.0944 10.7889 33.9821C10.9381 33.8697 11.147 33.9 11.2578 34.0512L15.7424 40.1043C15.7935 40.1734 15.8191 40.2599 15.8191 40.3463C15.8191 40.3463 15.8148 50.5947 15.7893 60.8431C15.7679 71.0915 15.7211 81.34 15.7211 81.34C15.7168 81.5344 15.6315 81.7115 15.4823 81.8325L12.8138 83.9323L25.3125 84.023L23.1086 81.772C22.9978 81.6597 22.9338 81.5041 22.9338 81.34C22.9338 81.34 22.9253 73.6623 22.9296 64.952C22.9381 53.5456 22.968 40.3765 22.968 40.3765C22.968 40.2815 23.002 40.1864 23.0617 40.1173L28.1943 34.1117C28.3179 33.9691 28.5268 33.9519 28.6674 34.0728C28.8124 34.1981 28.8252 34.4098 28.7058 34.5524L23.748 40.5148C23.7651 41.9752 23.9015 54.2413 24.0081 64.9477C24.0805 72.7204 24.1403 79.6765 24.1488 81.0764L27.2735 84.2175C27.4525 84.4033 27.5036 84.6755 27.4056 84.9131C27.3075 85.1507 27.0774 85.3063 26.8258 85.302L10.985 85.1983C10.7164 85.194 10.4777 85.0211 10.3925 84.7619C10.303 84.5027 10.3925 84.2175 10.6014 84.0533L14.4891 81.0246C14.5104 79.2531 14.617 70.0416 14.7406 60.8345C14.8685 51.2601 15.0134 41.6813 15.0347 40.4672L10.7207 34.4574Z" fill="#D8DBDF"/>
<path fill-rule="evenodd" clip-rule="evenodd" d="M15.4271 40.6832C15.2395 40.6832 15.0903 40.5277 15.0903 40.3419C15.0903 40.1518 15.2438 40.0006 15.4271 40.0006C15.4271 40.0006 16.4672 39.8623 17.8101 39.7716C18.3088 39.737 18.8502 39.7068 19.3958 39.7111C19.9372 39.7154 20.4786 39.7587 20.9816 39.7975C22.3202 39.9012 23.3603 40.0352 23.3603 40.0352C23.5436 40.0352 23.6928 40.1864 23.6928 40.3765C23.6928 40.5623 23.5436 40.7135 23.356 40.7135C23.356 40.7135 22.3202 40.8388 20.9774 40.9295C20.4743 40.9684 19.933 41.0073 19.3916 41.0073C18.8459 41.0073 18.3046 40.9684 17.8058 40.9295C16.463 40.8302 15.4271 40.6832 15.4271 40.6832Z" fill="#D8DBDF"/>
<path fill-rule="evenodd" clip-rule="evenodd" d="M13.4021 37.9138C13.2188 37.9094 13.0696 37.7582 13.0738 37.5681C13.0738 37.3823 13.2273 37.2311 13.4106 37.2311C13.4106 37.2311 15.0177 37.1015 17.0767 37.028C17.8483 36.9978 18.6837 36.9762 19.5193 36.9848C20.3548 36.9935 21.1861 37.0453 21.9619 37.0885C24.0167 37.2052 25.6195 37.3521 25.6195 37.3521C25.8071 37.3564 25.9563 37.5076 25.952 37.6977C25.952 37.8835 25.7985 38.0347 25.6152 38.0347C25.6152 38.0347 24.0081 38.147 21.9491 38.2248C21.1776 38.255 20.342 38.2853 19.5065 38.281C18.671 38.2723 17.8355 38.2334 17.0639 38.1902C15.0092 38.0736 13.4021 37.9138 13.4021 37.9138Z" fill="#D8DBDF"/>
<path fill-rule="evenodd" clip-rule="evenodd" d="M17.9681 43.6948C17.9681 43.5047 18.1215 43.3534 18.3048 43.3578C18.4924 43.3578 18.6416 43.509 18.6416 43.6991C18.6416 43.6991 18.7652 48.1234 18.8334 53.766C18.8632 55.8917 18.8846 58.186 18.876 60.4802C18.8633 62.7745 18.8121 65.0687 18.7695 67.1944C18.6501 72.8328 18.5009 77.2614 18.5009 77.2614C18.5009 77.4472 18.3517 77.5984 18.1642 77.5984C17.9809 77.5984 17.8317 77.4472 17.8317 77.2571C17.8317 77.2571 17.7208 72.8285 17.6483 67.1858C17.6185 65.0643 17.5887 62.7701 17.5972 60.4759C17.6057 58.1817 17.6484 55.8874 17.691 53.7617C17.8061 48.119 17.9681 43.6948 17.9681 43.6948Z" fill="#D8DBDF"/>
<path fill-rule="evenodd" clip-rule="evenodd" d="M21.3101 77.257C21.3101 77.4471 21.1609 77.5983 20.9776 77.5983C20.79 77.5983 20.6408 77.4471 20.6408 77.2614C20.6408 77.2614 20.4873 72.6383 20.3808 66.7407C20.3424 64.5242 20.3041 62.1306 20.3041 59.7327C20.2998 57.3348 20.3339 54.9369 20.368 52.7204C20.449 46.8272 20.5726 42.2041 20.5726 42.2041C20.5684 42.014 20.7218 41.8628 20.9051 41.8628C21.0927 41.8628 21.2419 42.014 21.2419 42.1998C21.2419 42.1998 21.3783 46.8271 21.4892 52.7161C21.5275 54.9369 21.5744 57.3305 21.5787 59.7284C21.5872 62.1263 21.5574 64.5242 21.5275 66.7407C21.4423 72.634 21.3101 77.257 21.3101 77.257Z" fill="#D8DBDF"/>
<path fill-rule="evenodd" clip-rule="evenodd" d="M29.5713 34.5395C29.4647 34.384 29.4988 34.1723 29.648 34.0643C29.7972 33.9519 30.0104 33.9865 30.117 34.142L34.7208 40.5278C34.772 40.5969 34.7976 40.679 34.7976 40.7655C34.7976 40.7655 34.8317 50.9059 34.8445 61.0506C34.8572 71.1953 34.8445 81.34 34.8445 81.34C34.8445 81.5172 34.772 81.6814 34.6441 81.8024L32.1929 84.0534L44.0693 84.412L41.7205 81.7505C41.6182 81.6382 41.5628 81.4913 41.5628 81.3357C41.5628 81.3357 41.5969 73.7575 41.6523 65.1595C41.7247 53.9044 41.8271 40.8994 41.8271 40.8994C41.8271 40.8043 41.8612 40.7093 41.9251 40.6401L47.5095 34.1982C47.6331 34.0556 47.842 34.0383 47.9827 34.1636C48.1233 34.2846 48.1404 34.5006 48.0167 34.6432L42.6199 41.0463C42.6242 42.5067 42.6924 54.6 42.735 65.1638C42.7649 72.8588 42.7819 79.7414 42.7862 81.0938L45.9833 84.6669C46.1496 84.8527 46.1922 85.1292 46.0856 85.3582C45.9791 85.5915 45.7489 85.7341 45.4974 85.7298L30.5944 85.2847C30.3343 85.2804 30.1084 85.1119 30.0189 84.87C29.9294 84.6237 29.9976 84.3472 30.1894 84.1744L33.6125 81.0549C33.6253 79.3612 33.6977 70.2059 33.7873 61.0463C33.881 51.5626 33.9919 42.0832 34.0089 40.8864L29.5713 34.5395Z" fill="#D8DBDF"/>
<path fill-rule="evenodd" clip-rule="evenodd" d="M34.3966 41.1024C34.2133 41.0981 34.0642 40.9425 34.0684 40.7567C34.0684 40.5666 34.2219 40.4197 34.4094 40.4197C34.4094 40.4197 35.4325 40.2944 36.7583 40.2253C37.2528 40.195 37.7899 40.1735 38.3228 40.1821C38.8599 40.1951 39.3928 40.2469 39.8873 40.2901C41.2088 40.4111 42.2276 40.5623 42.2276 40.5623C42.4151 40.5623 42.56 40.7178 42.56 40.9079C42.5558 41.0937 42.4024 41.2449 42.219 41.2406C42.219 41.2406 41.1917 41.353 39.866 41.4264C39.3715 41.4524 38.8386 41.4869 38.3015 41.4783C37.7643 41.4696 37.2315 41.4264 36.737 41.3832C35.4155 41.2622 34.3966 41.1024 34.3966 41.1024Z" fill="#D8DBDF"/>
<path fill-rule="evenodd" clip-rule="evenodd" d="M32.4236 38.3373C32.2403 38.3286 32.0953 38.1688 32.1039 37.9787C32.1124 37.7929 32.2701 37.646 32.4534 37.6546C32.4534 37.6546 34.0136 37.5812 36.0086 37.5769C36.7547 37.5769 37.5646 37.5812 38.3703 37.6201C39.1803 37.659 39.986 37.7368 40.7277 37.8059C42.7142 37.996 44.2616 38.1947 44.2616 38.1947C44.4449 38.2034 44.5898 38.3632 44.5813 38.549C44.5728 38.7391 44.415 38.8817 44.2317 38.873C44.2317 38.873 42.6715 38.9335 40.6808 38.9422C39.9305 38.9422 39.1206 38.9465 38.3149 38.9119C37.5049 38.8773 36.6992 38.8082 35.9575 38.7391C33.971 38.549 32.4236 38.3373 32.4236 38.3373Z" fill="#D8DBDF"/>
<path fill-rule="evenodd" clip-rule="evenodd" d="M37.2444 44.2045C37.2444 44.0187 37.3936 43.8674 37.5812 43.8674C37.7645 43.8674 37.9137 44.023 37.9137 44.2088C37.9137 44.2088 38.033 48.5683 38.1012 54.1245C38.1268 56.2157 38.1481 58.4753 38.1353 60.735C38.1225 62.9947 38.0714 65.2543 38.0245 67.3455C37.9009 72.9018 37.7517 77.2613 37.7517 77.2613C37.7475 77.4471 37.5982 77.6026 37.4107 77.5983C37.2274 77.5983 37.0781 77.4427 37.0781 77.257C37.0781 77.257 36.9716 72.8974 36.9034 67.3412C36.8778 65.25 36.8479 62.9904 36.8565 60.7307C36.865 58.471 36.9119 56.2114 36.9588 54.1202C37.0781 48.564 37.2444 44.2045 37.2444 44.2045Z" fill="#D8DBDF"/>
<path fill-rule="evenodd" clip-rule="evenodd" d="M40.4331 78.1082C40.4331 78.2983 40.2839 78.4495 40.0964 78.4495C39.9131 78.4495 39.7638 78.294 39.7638 78.1082C39.7638 78.1082 39.636 73.4938 39.5592 67.6134C39.5294 65.4013 39.5038 63.0077 39.5166 60.6141C39.5251 58.2248 39.572 55.8312 39.6146 53.6191C39.7297 47.7388 39.8747 43.1244 39.8747 43.1244C39.8747 42.9386 40.0238 42.7874 40.2114 42.7874C40.3947 42.7874 40.5439 42.9386 40.5439 43.1287C40.5439 43.1287 40.6591 47.7431 40.7358 53.6234C40.7656 55.8355 40.7997 58.2291 40.7912 60.6184C40.7869 63.012 40.7485 65.4013 40.7059 67.6134C40.5908 73.4981 40.4331 78.1082 40.4331 78.1082Z" fill="#D8DBDF"/>
<path fill-rule="evenodd" clip-rule="evenodd" d="M48.9804 34.6387C48.8653 34.4918 48.8908 34.2757 49.0358 34.1591C49.1807 34.0424 49.3896 34.0683 49.5047 34.2152L54.5178 40.5147C54.5732 40.5838 54.6031 40.6745 54.6031 40.7652C54.6031 40.7652 54.6201 51.0223 54.6158 61.2794C54.6116 71.5407 54.586 81.7978 54.586 81.7978C54.586 81.9706 54.5136 82.1391 54.3857 82.2558L52.1221 84.3729L63.9431 84.8006L61.5814 82.1391C61.4791 82.0268 61.4237 81.8799 61.4237 81.7243C61.4237 81.7243 61.428 74.0164 61.4493 65.2759C61.4748 53.8263 61.5303 40.601 61.5303 40.601C61.5303 40.4974 61.5687 40.398 61.6411 40.3245L67.4684 34.2714C67.5963 34.1375 67.8094 34.1331 67.9416 34.2628C68.0737 34.3924 68.078 34.6084 67.9501 34.7423L62.3189 40.7566C62.3317 42.2861 62.4468 54.5566 62.5321 65.2716C62.5917 73.1091 62.6386 80.1171 62.6472 81.4824L65.8698 85.0642C66.0361 85.2543 66.0787 85.5265 65.9721 85.7598C65.8656 85.9931 65.6311 86.1357 65.3796 86.1271L50.5449 85.5956C50.2891 85.5869 50.0631 85.4228 49.9736 85.1808C49.8883 84.9346 49.9523 84.6624 50.1399 84.4852L53.3541 81.517C53.3711 79.819 53.4564 70.547 53.563 61.275C53.6695 51.7092 53.7974 42.1478 53.8144 40.8991L48.9804 34.6387Z" fill="#D8DBDF"/>
<path fill-rule="evenodd" clip-rule="evenodd" d="M52.0324 38.3372C51.8491 38.3329 51.6999 38.1773 51.7042 37.9872C51.7085 37.8015 51.8619 37.6502 52.0495 37.6546C52.0495 37.6546 53.6438 37.5465 55.6857 37.4947C56.4487 37.4774 57.2757 37.4602 58.107 37.4818C58.934 37.5034 59.7568 37.5638 60.5241 37.6157C62.5618 37.7583 64.1475 37.9268 64.1475 37.9268C64.3351 37.9311 64.48 38.0866 64.4757 38.2724C64.4715 38.4582 64.3181 38.6094 64.1347 38.6051C64.1347 38.6051 62.5404 38.7001 60.4985 38.7519C59.7312 38.7736 58.9041 38.7952 58.0771 38.7779C57.2501 38.7606 56.4232 38.7088 55.6601 38.6569C53.6225 38.5143 52.0324 38.3372 52.0324 38.3372Z" fill="#D8DBDF"/>
<path fill-rule="evenodd" clip-rule="evenodd" d="M54.2152 41.1024C54.0319 41.1067 53.8784 40.9554 53.8741 40.7697C53.8698 40.5796 54.0191 40.424 54.2024 40.4197C54.2024 40.4197 55.2084 40.2555 56.5129 40.1345C56.9988 40.087 57.5232 40.0438 58.0518 40.0351C58.5804 40.0265 59.109 40.0525 59.5992 40.0827C60.9036 40.1518 61.9182 40.2598 61.9182 40.2598C62.1015 40.2555 62.255 40.4067 62.2592 40.5925C62.2635 40.7826 62.1143 40.9382 61.931 40.9425C61.931 40.9425 60.9249 41.0937 59.6205 41.219C59.1345 41.2622 58.6059 41.3141 58.0773 41.327C57.553 41.34 57.0244 41.3184 56.5342 41.2924C55.2254 41.2233 54.2152 41.1024 54.2152 41.1024Z" fill="#D8DBDF"/>
<path fill-rule="evenodd" clip-rule="evenodd" d="M56.9649 44.0664C56.9649 43.8806 57.1141 43.725 57.3017 43.7293C57.485 43.7293 57.6342 43.8806 57.6342 44.0707C57.6342 44.0707 57.7578 48.4906 57.8303 54.1247C57.8559 56.2418 57.8814 58.536 57.8686 60.8259C57.8558 63.1201 57.809 65.41 57.7621 67.5271C57.6427 73.1612 57.4978 77.5811 57.4978 77.5811C57.4978 77.7669 57.3443 77.9224 57.161 77.9224C56.9735 77.9181 56.8242 77.7669 56.8242 77.5768C56.8242 77.5768 56.7176 73.1568 56.6409 67.5228C56.6153 65.4057 56.5855 63.1115 56.5898 60.8216C56.5983 58.5317 56.641 56.2374 56.6836 54.1203C56.8029 48.4863 56.9649 44.0664 56.9649 44.0664Z" fill="#D8DBDF"/>
<path fill-rule="evenodd" clip-rule="evenodd" d="M59.9655 78.0649C59.9655 78.2551 59.8163 78.4062 59.6287 78.4062C59.4454 78.4062 59.2962 78.2551 59.2962 78.0649C59.2962 78.0649 59.1513 73.3598 59.0575 67.3628C59.0234 65.1031 58.9893 62.6664 58.9893 60.2252C58.9935 57.7841 59.0319 55.3473 59.0703 53.0876C59.1641 47.0907 59.2962 42.3855 59.2962 42.3855C59.2962 42.1954 59.4454 42.0442 59.6287 42.0442C59.8163 42.0442 59.9655 42.1954 59.9655 42.3855C59.9655 42.3855 60.0934 47.0907 60.1914 53.0876C60.2255 55.3473 60.2681 57.7841 60.2681 60.2252C60.2724 62.6664 60.2383 65.1031 60.2042 67.3628C60.1062 73.3598 59.9655 78.0649 59.9655 78.0649Z" fill="#D8DBDF"/>
<path fill-rule="evenodd" clip-rule="evenodd" d="M69.4677 34.7295C69.3526 34.5783 69.3781 34.3665 69.5231 34.2499C69.668 34.1332 69.8769 34.1592 69.992 34.3061L74.8901 40.5148C74.9455 40.5839 74.9753 40.6746 74.9753 40.7653C74.9753 40.7653 75.0009 51.0052 75.0009 61.2449C75.0052 71.4847 74.9838 81.7288 74.9838 81.7288C74.9838 81.9059 74.9071 82.0744 74.7749 82.1954L72.2087 84.4853L84.2598 84.3168L82.1114 82.1652C81.992 82.0485 81.928 81.893 81.928 81.7288C81.928 81.7288 81.9195 74.0511 81.928 65.3451C81.9366 53.9474 81.9707 40.7783 81.9707 40.7783C81.9707 40.6789 82.0048 40.5839 82.073 40.5104L87.5849 34.3709C87.7085 34.2283 87.9217 34.2197 88.0581 34.345C88.1988 34.4703 88.2073 34.6863 88.0837 34.8246L82.7593 40.9252C82.7721 42.4158 82.9085 54.656 83.0066 65.3408C83.0833 73.1049 83.1387 80.0481 83.1472 81.4609L86.2037 84.481C86.3828 84.6581 86.4424 84.9303 86.3487 85.168C86.2506 85.4056 86.0247 85.5655 85.7732 85.5698L70.5206 85.7858C70.252 85.7901 70.0133 85.6259 69.9195 85.3753C69.8257 85.1247 69.8939 84.8396 70.0943 84.6625L73.7518 81.435C73.7689 79.7197 73.8499 70.478 73.948 61.2406C74.0503 51.6878 74.1696 42.1393 74.1867 40.895L69.4677 34.7295Z" fill="#D8DBDF"/>
<path fill-rule="evenodd" clip-rule="evenodd" d="M72.3878 38.281C72.2002 38.2767 72.051 38.1255 72.0553 37.9354C72.0553 37.7496 72.2087 37.5984 72.3921 37.5984C72.3921 37.5984 74.0205 37.4731 76.1093 37.3996C76.8894 37.3694 77.7377 37.3435 78.5817 37.3564C79.43 37.3651 80.2741 37.4169 81.0585 37.4601C83.143 37.5768 84.7672 37.7237 84.7672 37.7237C84.9548 37.728 85.104 37.8793 85.0997 38.0694C85.0997 38.2551 84.9462 38.4063 84.7629 38.4063C84.7629 38.4063 83.1302 38.5186 81.0457 38.5964C80.2613 38.6267 79.4172 38.6569 78.5689 38.6483C77.7249 38.6439 76.8766 38.6007 76.0965 38.5575C74.0119 38.4409 72.3878 38.281 72.3878 38.281Z" fill="#D8DBDF"/>
<path fill-rule="evenodd" clip-rule="evenodd" d="M74.5829 41.1022C74.3953 41.1022 74.2461 40.9467 74.2461 40.7609C74.2461 40.5751 74.3996 40.4196 74.5829 40.4196C74.5829 40.4196 75.6017 40.2813 76.9189 40.1863C77.4091 40.1517 77.942 40.1171 78.4749 40.1215C79.0077 40.1258 79.5363 40.1646 80.0308 40.2035C81.3481 40.3029 82.3626 40.4369 82.3626 40.4369C82.5502 40.4369 82.6994 40.5881 82.6994 40.7782C82.6994 40.964 82.5459 41.1195 82.3626 41.1195C82.3626 41.1195 81.3438 41.2448 80.0265 41.3398C79.5363 41.3744 79.0034 41.4176 78.4706 41.4176C77.9377 41.4176 77.4091 41.3831 76.9147 41.3442C75.5974 41.2491 74.5829 41.1022 74.5829 41.1022Z" fill="#D8DBDF"/>
<path fill-rule="evenodd" clip-rule="evenodd" d="M77.3712 44.0231C77.3712 43.8373 77.5246 43.686 77.7079 43.686C77.8955 43.6904 78.0447 43.8415 78.0404 44.0317C78.0404 44.0317 78.1385 48.4387 78.1769 54.0597C78.1897 56.1725 78.1982 58.4581 78.1726 60.7437C78.147 63.0293 78.083 65.3149 78.0276 67.4276C77.8742 73.0444 77.6994 77.4514 77.6994 77.4514C77.6952 77.6415 77.5459 77.7927 77.3584 77.7884C77.1751 77.7884 77.0259 77.6329 77.0259 77.4471C77.0259 77.4471 76.9449 73.0358 76.9065 67.419C76.8895 65.3019 76.8724 63.0163 76.8937 60.7307C76.915 58.4451 76.9748 56.1595 77.0302 54.0468C77.1836 48.43 77.3712 44.0231 77.3712 44.0231Z" fill="#D8DBDF"/>
<path fill-rule="evenodd" clip-rule="evenodd" d="M80.4363 78.0737C80.4363 78.2638 80.2872 78.415 80.0996 78.415C79.9163 78.4106 79.7671 78.2594 79.7671 78.0737C79.7671 78.0737 79.652 73.347 79.5923 67.3241C79.571 65.0601 79.5497 62.6103 79.5667 60.1605C79.5838 57.7108 79.6392 55.261 79.6861 52.997C79.8182 46.9741 79.9717 42.2517 79.9717 42.2517C79.976 42.0616 80.1252 41.9104 80.3085 41.9104C80.4961 41.9147 80.6452 42.0659 80.6452 42.256C80.6452 42.256 80.7475 46.9785 80.8072 53.0013C80.8285 55.2696 80.8584 57.7194 80.8456 60.1649C80.8328 62.6146 80.7859 65.0644 80.739 67.3327C80.6069 73.3513 80.4363 78.0737 80.4363 78.0737Z" fill="#D8DBDF"/>
</g>
</g>
<defs>
<clipPath id="clip0_2501_3943">
<rect width="82" height="56" fill="white"/>
</clipPath>
<clipPath id="clip1_2501_3943">
<rect width="120" height="88" fill="white"/>
</clipPath>
</defs>
</svg>
