<svg width="181" height="181" viewBox="0 0 181 181" fill="none" xmlns="http://www.w3.org/2000/svg">
<path d="M68.1279 141.551C68.1279 136.028 72.6051 131.551 78.1279 131.551H123.534C129.057 131.551 133.534 127.074 133.534 121.551V78.1279C133.534 72.6051 138.011 68.1279 143.534 68.1279H186.958C192.481 68.1279 196.958 63.6508 196.958 58.1279V10C196.958 4.47716 192.481 0 186.958 0H138.83C133.307 0 128.83 4.47716 128.83 10V53.4229C128.83 58.9457 124.353 63.4229 118.83 63.4229H78.1279C72.6051 63.4229 68.1279 58.9457 68.1279 53.4229V10C68.1279 4.47716 63.6508 0 58.1279 0H10C4.47715 0 0 4.47716 0 10V58.1279C0 63.6508 4.47715 68.1279 10 68.1279H55.4062C60.9291 68.1279 65.4062 72.6051 65.4062 78.1279V119.62C65.4062 125.143 60.9291 129.62 55.4062 129.62H10C4.47715 129.62 0 134.097 0 139.62V187.748C0 193.271 4.47715 197.748 10 197.748H58.1279C63.6508 197.748 68.1279 193.271 68.1279 187.748V141.551Z" fill="url(#paint0_linear_6278_5413)"/>
<defs>
<linearGradient id="paint0_linear_6278_5413" x1="0" y1="98.8741" x2="196.958" y2="98.8741" gradientUnits="userSpaceOnUse">
<stop stop-color="#21CFFF"/>
<stop offset="1" stop-color="#019AE6"/>
</linearGradient>
</defs>
</svg>
