<svg width="16" height="16" viewBox="0 0 16 16" fill="none" xmlns="http://www.w3.org/2000/svg">
<path d="M13.9102 11.4829C13.4213 10.9936 12.8501 10.5943 12.2227 10.3032C13.1075 9.5864 13.6719 8.49265 13.6719 7.26608C13.6719 5.10202 11.8672 3.32663 9.70317 3.35983C7.57231 3.39304 5.85552 5.12936 5.85552 7.26608C5.85552 8.49265 6.42192 9.5864 7.30474 10.3032C6.67722 10.5941 6.10596 10.9934 5.61724 11.4829C4.55083 12.5512 3.94536 13.9614 3.9063 15.4653C3.90578 15.4861 3.90943 15.5069 3.91705 15.5263C3.92467 15.5457 3.9361 15.5634 3.95066 15.5783C3.96522 15.5932 3.98262 15.6051 4.00184 15.6132C4.02105 15.6213 4.0417 15.6255 4.06255 15.6255H5.1563C5.24028 15.6255 5.3106 15.5591 5.31255 15.4751C5.34966 14.3423 5.80864 13.2817 6.61528 12.477C7.02806 12.0621 7.51903 11.7331 8.0598 11.5091C8.60056 11.2852 9.18037 11.1707 9.76567 11.1723C10.9551 11.1723 12.0743 11.6352 12.9161 12.477C13.7208 13.2817 14.1797 14.3423 14.2188 15.4751C14.2208 15.5591 14.2911 15.6255 14.375 15.6255H15.4688C15.4897 15.6255 15.5103 15.6213 15.5295 15.6132C15.5487 15.6051 15.5661 15.5932 15.5807 15.5783C15.5953 15.5634 15.6067 15.5457 15.6143 15.5263C15.6219 15.5069 15.6256 15.4861 15.625 15.4653C15.586 13.9614 14.9805 12.5512 13.9102 11.4829ZM9.76567 9.76608C9.0977 9.76608 8.4688 9.50632 7.9981 9.03366C7.76187 8.7993 7.57527 8.51975 7.44944 8.21171C7.3236 7.90366 7.2611 7.57342 7.26567 7.24069C7.27153 6.60007 7.52739 5.98093 7.97466 5.52194C8.44341 5.04147 9.07036 4.7739 9.74028 4.76608C10.4024 4.76022 11.045 5.01804 11.5176 5.48093C12.002 5.95554 12.2676 6.5903 12.2676 7.26608C12.2676 7.93405 12.0079 8.56101 11.5352 9.03366C11.3033 9.26666 11.0275 9.45136 10.7238 9.57708C10.4201 9.7028 10.0944 9.76704 9.76567 9.76608ZM4.8731 7.78171C4.85552 7.61179 4.84575 7.43991 4.84575 7.26608C4.84575 6.95554 4.87505 6.6528 4.92974 6.35788C4.94341 6.28757 4.9063 6.2153 4.84185 6.18601C4.57622 6.06686 4.33208 5.9028 4.12114 5.69577C3.87259 5.45477 3.677 5.1646 3.54686 4.84378C3.41671 4.52297 3.35487 4.17854 3.36528 3.83249C3.38286 3.20554 3.63481 2.60983 4.07427 2.16061C4.55669 1.66647 5.20513 1.39694 5.89458 1.40475C6.51763 1.41061 7.11919 1.65085 7.57427 2.07663C7.72856 2.22116 7.86138 2.38132 7.97271 2.55319C8.01177 2.61374 8.08794 2.63913 8.15435 2.61569C8.4981 2.49655 8.86138 2.41257 9.23442 2.37351C9.3438 2.36179 9.4063 2.2446 9.35747 2.14694C8.7227 0.891083 7.42583 0.0238958 5.92583 0.000458276C3.75981 -0.0327449 1.95513 1.74265 1.95513 3.90476C1.95513 5.13132 2.51958 6.22507 3.40435 6.94186C2.78325 7.22897 2.21099 7.62546 1.71489 8.12155C0.64458 9.18991 0.0391113 10.6001 4.88398e-05 12.1059C-0.000472459 12.1268 0.00318384 12.1475 0.0108024 12.1669C0.018421 12.1863 0.0298476 12.204 0.044409 12.2189C0.0589704 12.2339 0.0763721 12.2457 0.0955884 12.2538C0.114805 12.2619 0.135447 12.2661 0.156299 12.2661H1.252C1.33599 12.2661 1.4063 12.1997 1.40825 12.1157C1.44536 10.9829 1.90435 9.92233 2.71099 9.11765C3.28521 8.54343 3.98833 8.14499 4.75591 7.95163C4.83208 7.9321 4.88286 7.85983 4.8731 7.78171Z" fill="#00A63D"/>
</svg>
