<svg width="1280" height="640" viewBox="0 0 1280 640" fill="none" xmlns="http://www.w3.org/2000/svg">
<g clip-path="url(#clip0_2999_2640)">
<rect width="1280" height="640" fill="#EDEEF1"/>
<path fill-rule="evenodd" clip-rule="evenodd" d="M463.728 246.324L642.48 135.858C643.519 135.217 644.767 135.217 645.836 135.822C645.836 135.822 704.667 168.919 755.54 197.817C794.385 219.846 828.567 239.455 828.567 239.455C830.438 240.523 831.448 242.979 831.003 245.399C830.557 247.819 828.775 249.527 826.696 249.563C826.696 249.563 758.866 250.203 681.948 250.666C581.183 251.307 464.797 251.627 464.797 251.627C463.728 251.627 462.748 250.737 462.51 249.491C462.243 248.21 462.748 246.929 463.728 246.324ZM475.132 245.79C505.781 245.114 599.091 243.085 681.859 241.484C734.098 240.487 782.12 239.669 807.601 239.242C793.939 231.448 773.596 219.81 751.798 207.248C706.093 180.948 654.092 150.805 644.203 145.039L475.132 245.79Z" fill="#B5BBC4"/>
<path fill-rule="evenodd" clip-rule="evenodd" d="M376.775 262.659C375.617 263.335 374.192 262.766 373.628 261.378C373.034 260.025 373.509 258.317 374.667 257.641C374.667 257.641 460.999 204.258 535.897 158.349C555.171 146.569 573.673 135.288 589.769 125.536C621.457 106.319 643.73 93.0084 643.73 93.0084C645.008 92.2254 646.522 92.2255 647.769 93.044C647.769 93.044 692.97 121.515 744.11 154.079C811.108 196.749 888.323 246.324 888.323 246.324C889.451 247.071 889.897 248.744 889.303 250.132C888.709 251.484 887.313 252.018 886.155 251.306C886.155 251.306 808.049 203.724 740.546 162.263C695.405 134.54 655.016 109.486 645.691 103.721C639.543 107.422 619.853 119.273 593.689 134.896C577.534 144.541 558.943 155.573 539.52 167.032C464.058 211.589 376.775 262.659 376.775 262.659Z" fill="#B5BBC4"/>
<path fill-rule="evenodd" clip-rule="evenodd" d="M1012.07 275.01L995.555 312.315C995.138 313.277 994.304 313.882 993.401 313.919C993.401 313.919 770.907 317.629 578.278 320.399C431.211 322.54 301.507 324.102 301.507 324.102C300.291 324.138 299.076 323.498 298.243 322.431L265.236 279.991C264.022 278.426 263.71 276.184 264.405 274.226C265.101 272.304 266.699 271.058 268.47 271.021C268.47 271.021 407.445 270.701 565.103 270.653C771.552 270.581 1010.02 270.884 1010.02 270.884C1010.82 270.884 1011.58 271.382 1012.03 272.235C1012.45 273.089 1012.48 274.156 1012.07 275.01ZM1006.09 276.508C974.282 276.81 756.026 278.632 565.099 279.941C432.687 280.829 313.402 281.461 278.675 281.622L303.386 313.46C320.125 313.275 441.668 312 578.213 310.897C761.743 309.377 972.394 308.093 991.875 307.976L1006.09 276.508Z" fill="#B5BBC4"/>
<path fill-rule="evenodd" clip-rule="evenodd" d="M331.755 268.388C330.627 269.1 329.201 268.566 328.607 267.179C328.013 265.826 328.459 264.118 329.587 263.406C329.587 263.406 430.055 199.062 517.189 143.758C583.743 101.514 642.544 64.6087 642.544 64.6087C643.792 63.8258 645.247 63.7901 646.524 64.5375C646.524 64.5375 708.949 100.375 779.6 141.409C872.139 195.112 978.844 257.605 978.844 257.605C980.032 258.281 980.507 259.954 979.943 261.342C979.408 262.73 978.012 263.335 976.824 262.659C976.824 262.659 869.228 202.443 776.214 149.915C712.661 114.006 655.908 81.6913 644.682 75.2853C633.932 82.0116 580.624 115.251 520.872 152.157C433.203 206.322 331.755 268.388 331.755 268.388Z" fill="#B5BBC4"/>
<path fill-rule="evenodd" clip-rule="evenodd" d="M293.563 348.962C292.256 348.962 291.217 347.68 291.217 346.15C291.217 344.584 292.286 343.339 293.563 343.339C293.563 343.339 383.013 342.627 496.905 342.449C539.759 342.378 586.117 342.342 632.446 342.627C678.775 342.876 725.133 343.445 767.987 343.979C881.879 345.367 971.3 346.933 971.3 346.933C972.606 346.933 973.646 348.214 973.646 349.745C973.616 351.275 972.577 352.556 971.27 352.521C971.27 352.521 881.85 353.126 767.958 353.339C725.074 353.41 678.745 353.517 632.416 353.268C586.058 353.054 539.729 352.521 496.875 352.022C382.983 350.634 293.563 348.962 293.563 348.962Z" fill="#B5BBC4"/>
<path fill-rule="evenodd" clip-rule="evenodd" d="M291.689 347.823C290.917 346.577 291.125 344.833 292.165 343.908C293.204 342.983 294.659 343.232 295.431 344.477L326.674 394.337C327.03 394.906 327.208 395.618 327.208 396.33C327.208 396.33 327.179 480.746 327 565.162C326.852 649.577 326.525 733.993 326.525 733.993C326.496 735.595 325.902 737.054 324.862 738.051L306.271 755.347L393.346 756.094L377.992 737.552C377.22 736.627 376.774 735.346 376.774 733.993C376.774 733.993 376.715 670.753 376.744 599.006C376.804 505.052 377.012 396.579 377.012 396.579C377.012 395.796 377.249 395.013 377.665 394.444L413.422 344.976C414.283 343.801 415.738 343.659 416.718 344.656C417.728 345.688 417.817 347.431 416.985 348.606L382.446 397.718C382.565 409.747 383.516 510.783 384.258 598.971C384.763 662.995 385.179 720.292 385.238 731.823L407.007 757.696C408.254 759.226 408.61 761.468 407.927 763.425C407.244 765.383 405.641 766.664 403.888 766.628L293.531 765.774C291.66 765.739 289.997 764.315 289.403 762.18C288.779 760.044 289.403 757.696 290.858 756.343L317.943 731.395C318.091 716.804 318.834 640.929 319.695 565.09C320.586 486.226 321.595 407.326 321.744 397.326L291.689 347.823Z" fill="#B5BBC4"/>
<path fill-rule="evenodd" clip-rule="evenodd" d="M324.481 399.105C323.174 399.105 322.135 397.824 322.135 396.294C322.135 394.728 323.204 393.482 324.481 393.482C324.481 393.482 331.727 392.343 341.082 391.596C344.557 391.311 348.328 391.062 352.13 391.097C355.901 391.133 359.673 391.489 363.177 391.809C372.502 392.663 379.749 393.766 379.749 393.766C381.026 393.766 382.065 395.012 382.065 396.578C382.065 398.108 381.026 399.354 379.719 399.354C379.719 399.354 372.502 400.386 363.148 401.134C359.643 401.454 355.872 401.774 352.1 401.774C348.299 401.774 344.527 401.454 341.052 401.134C331.698 400.315 324.481 399.105 324.481 399.105Z" fill="#B5BBC4"/>
<path fill-rule="evenodd" clip-rule="evenodd" d="M310.371 376.293C309.094 376.258 308.055 375.012 308.085 373.446C308.085 371.916 309.154 370.67 310.431 370.67C310.431 370.67 321.627 369.602 335.971 368.997C341.346 368.748 347.167 368.57 352.988 368.642C358.808 368.713 364.6 369.14 370.005 369.496C384.319 370.457 395.486 371.667 395.486 371.667C396.792 371.702 397.832 372.948 397.802 374.514C397.802 376.044 396.733 377.289 395.456 377.289C395.456 377.289 384.26 378.214 369.916 378.855C364.54 379.104 358.72 379.353 352.899 379.318C347.078 379.247 341.257 378.926 335.882 378.571C321.567 377.61 310.371 376.293 310.371 376.293Z" fill="#B5BBC4"/>
<path fill-rule="evenodd" clip-rule="evenodd" d="M342.176 423.91C342.176 422.344 343.245 421.099 344.522 421.134C345.829 421.134 346.868 422.38 346.868 423.946C346.868 423.946 347.729 460.388 348.204 506.867C348.412 524.376 348.561 543.274 348.502 562.172C348.413 581.069 348.056 599.966 347.759 617.476C346.928 663.919 345.888 700.398 345.888 700.398C345.888 701.928 344.849 703.173 343.542 703.173C342.265 703.173 341.226 701.928 341.226 700.362C341.226 700.362 340.454 663.883 339.949 617.405C339.741 599.931 339.533 581.033 339.592 562.136C339.652 543.238 339.949 524.341 340.246 506.831C341.048 460.353 342.176 423.91 342.176 423.91Z" fill="#B5BBC4"/>
<path fill-rule="evenodd" clip-rule="evenodd" d="M365.462 700.362C365.462 701.928 364.423 703.174 363.146 703.174C361.839 703.174 360.8 701.928 360.8 700.398C360.8 700.398 359.731 662.318 358.988 613.739C358.721 595.483 358.454 575.767 358.454 556.015C358.424 536.264 358.662 516.512 358.899 498.255C359.464 449.713 360.325 411.632 360.325 411.632C360.295 410.067 361.364 408.821 362.641 408.821C363.948 408.821 364.987 410.067 364.987 411.597C364.987 411.597 365.938 449.712 366.71 498.219C366.977 516.512 367.304 536.228 367.333 555.98C367.393 575.731 367.185 595.483 366.977 613.739C366.383 662.282 365.462 700.362 365.462 700.362Z" fill="#B5BBC4"/>
<path fill-rule="evenodd" clip-rule="evenodd" d="M423.018 348.499C422.276 347.218 422.513 345.474 423.552 344.584C424.592 343.659 426.077 343.944 426.82 345.225L458.893 397.824C459.249 398.394 459.428 399.07 459.428 399.782C459.428 399.782 459.665 483.308 459.754 566.87C459.843 650.432 459.754 733.993 459.754 733.993C459.754 735.453 459.249 736.805 458.358 737.802L441.282 756.343L524.02 759.297L507.657 737.375C506.944 736.449 506.558 735.239 506.558 733.958C506.558 733.958 506.796 671.536 507.182 600.715C507.687 508.007 508.4 400.885 508.4 400.885C508.4 400.102 508.637 399.319 509.083 398.75L547.987 345.687C548.848 344.513 550.303 344.371 551.283 345.403C552.263 346.399 552.382 348.179 551.521 349.353L513.923 402.095C513.953 414.124 514.428 513.737 514.725 600.75C514.933 664.134 515.052 720.826 515.081 731.965L537.355 761.397C538.513 762.927 538.81 765.205 538.068 767.091C537.325 769.013 535.721 770.187 533.969 770.152L430.145 766.486C428.334 766.45 426.76 765.063 426.136 763.07C425.512 761.041 425.988 758.763 427.324 757.34L451.171 731.645C451.261 717.694 451.765 642.282 452.389 566.835C453.042 488.718 453.815 410.637 453.933 400.779L423.018 348.499Z" fill="#B5BBC4"/>
<path fill-rule="evenodd" clip-rule="evenodd" d="M456.633 402.558C455.356 402.522 454.317 401.241 454.346 399.71C454.346 398.145 455.415 396.934 456.722 396.934C456.722 396.934 463.85 395.903 473.086 395.333C476.531 395.084 480.273 394.906 483.985 394.977C487.727 395.084 491.439 395.511 494.884 395.867C504.09 396.864 511.188 398.109 511.188 398.109C512.495 398.109 513.504 399.39 513.504 400.956C513.475 402.486 512.406 403.732 511.129 403.696C511.129 403.696 503.972 404.622 494.736 405.227C491.291 405.44 487.578 405.725 483.836 405.654C480.094 405.583 476.382 405.226 472.937 404.871C463.731 403.874 456.633 402.558 456.633 402.558Z" fill="#B5BBC4"/>
<path fill-rule="evenodd" clip-rule="evenodd" d="M442.886 379.781C441.609 379.71 440.599 378.393 440.659 376.827C440.718 375.297 441.817 374.087 443.094 374.158C443.094 374.158 453.963 373.553 467.862 373.518C473.059 373.518 478.702 373.553 484.315 373.874C489.957 374.194 495.57 374.835 500.738 375.404C514.577 376.97 525.357 378.607 525.357 378.607C526.634 378.678 527.644 379.995 527.585 381.525C527.525 383.091 526.426 384.265 525.149 384.194C525.149 384.194 514.28 384.692 500.411 384.764C495.184 384.764 489.542 384.799 483.929 384.514C478.286 384.229 472.673 383.66 467.506 383.091C453.666 381.525 442.886 379.781 442.886 379.781Z" fill="#B5BBC4"/>
<path fill-rule="evenodd" clip-rule="evenodd" d="M476.473 428.11C476.473 426.58 477.512 425.334 478.819 425.334C480.096 425.334 481.135 426.616 481.135 428.146C481.135 428.146 481.967 464.055 482.442 509.822C482.62 527.047 482.769 545.659 482.68 564.272C482.59 582.885 482.234 601.497 481.907 618.722C481.046 664.489 480.007 700.399 480.007 700.399C479.977 701.929 478.938 703.21 477.631 703.174C476.354 703.174 475.314 701.893 475.314 700.363C475.314 700.363 474.572 664.454 474.097 618.687C473.919 601.462 473.711 582.849 473.77 564.236C473.83 545.624 474.156 527.011 474.483 509.786C475.314 464.019 476.473 428.11 476.473 428.11Z" fill="#B5BBC4"/>
<path fill-rule="evenodd" clip-rule="evenodd" d="M498.688 707.373C498.688 708.939 497.649 710.184 496.342 710.184C495.065 710.184 494.026 708.903 494.026 707.373C494.026 707.373 493.135 669.364 492.6 620.928C492.392 602.707 492.214 582.991 492.303 563.275C492.362 543.595 492.689 523.879 492.986 505.657C493.788 457.221 494.798 419.213 494.798 419.213C494.798 417.683 495.837 416.437 497.144 416.437C498.421 416.437 499.46 417.683 499.46 419.248C499.46 419.248 500.262 457.257 500.797 505.693C501.005 523.914 501.242 543.63 501.182 563.311C501.153 583.027 500.886 602.707 500.589 620.928C499.787 669.4 498.688 707.373 498.688 707.373Z" fill="#B5BBC4"/>
<path fill-rule="evenodd" clip-rule="evenodd" d="M558.233 349.316C557.431 348.106 557.61 346.327 558.619 345.366C559.629 344.405 561.084 344.619 561.886 345.829L596.811 397.717C597.197 398.286 597.405 399.034 597.405 399.781C597.405 399.781 597.523 484.268 597.494 568.755C597.464 653.278 597.286 737.765 597.286 737.765C597.286 739.189 596.781 740.576 595.89 741.537L580.121 758.976L662.473 762.499L646.02 740.576C645.308 739.651 644.922 738.441 644.922 737.16C644.922 737.16 644.951 673.67 645.1 601.674C645.278 507.365 645.664 398.429 645.664 398.429C645.664 397.574 645.931 396.756 646.436 396.151L687.033 346.292C687.924 345.188 689.409 345.153 690.329 346.22C691.25 347.288 691.28 349.067 690.389 350.171L651.158 399.71C651.247 412.308 652.049 513.38 652.643 601.639C653.059 666.197 653.386 723.921 653.445 735.167L675.896 764.67C677.054 766.236 677.351 768.478 676.609 770.399C675.866 772.321 674.233 773.496 672.481 773.425L569.132 769.047C567.351 768.976 565.776 767.624 565.153 765.631C564.559 763.602 565.004 761.36 566.311 759.901L588.703 735.452C588.822 721.465 589.416 645.092 590.159 568.72C590.901 489.926 591.792 411.169 591.91 400.884L558.233 349.316Z" fill="#B5BBC4"/>
<path fill-rule="evenodd" clip-rule="evenodd" d="M579.494 379.781C578.217 379.745 577.178 378.464 577.208 376.899C577.237 375.368 578.306 374.123 579.613 374.158C579.613 374.158 590.72 373.268 604.945 372.841C610.261 372.699 616.023 372.557 621.814 372.735C627.575 372.913 633.307 373.411 638.653 373.838C652.848 375.012 663.896 376.4 663.896 376.4C665.203 376.436 666.212 377.717 666.183 379.247C666.153 380.777 665.084 382.023 663.807 381.988C663.807 381.988 652.7 382.77 638.474 383.197C633.129 383.375 627.367 383.553 621.606 383.411C615.844 383.269 610.083 382.842 604.767 382.415C590.572 381.24 579.494 379.781 579.494 379.781Z" fill="#B5BBC4"/>
<path fill-rule="evenodd" clip-rule="evenodd" d="M594.703 402.558C593.426 402.593 592.356 401.348 592.327 399.817C592.297 398.251 593.337 396.97 594.614 396.934C594.614 396.934 601.622 395.582 610.71 394.586C614.096 394.194 617.748 393.838 621.431 393.767C625.114 393.696 628.796 393.91 632.211 394.159C641.299 394.728 648.367 395.618 648.367 395.618C649.644 395.582 650.713 396.828 650.743 398.358C650.773 399.924 649.733 401.205 648.456 401.241C648.456 401.241 641.447 402.487 632.36 403.519C628.974 403.875 625.292 404.302 621.609 404.408C617.956 404.515 614.274 404.337 610.858 404.123C601.741 403.554 594.703 402.558 594.703 402.558Z" fill="#B5BBC4"/>
<path fill-rule="evenodd" clip-rule="evenodd" d="M613.858 426.971C613.858 425.441 614.898 424.16 616.205 424.195C617.482 424.195 618.521 425.441 618.521 427.007C618.521 427.007 619.382 463.414 619.887 509.821C620.065 527.259 620.244 546.157 620.154 565.019C620.065 583.917 619.739 602.778 619.412 620.216C618.58 666.624 617.571 703.031 617.571 703.031C617.571 704.562 616.502 705.842 615.225 705.842C613.918 705.807 612.879 704.561 612.879 702.996C612.879 702.996 612.136 666.588 611.601 620.181C611.423 602.742 611.215 583.845 611.245 564.983C611.304 546.121 611.602 527.224 611.899 509.785C612.73 463.378 613.858 426.971 613.858 426.971Z" fill="#B5BBC4"/>
<path fill-rule="evenodd" clip-rule="evenodd" d="M634.762 707.017C634.762 708.583 633.722 709.828 632.416 709.828C631.139 709.828 630.099 708.583 630.099 707.017C630.099 707.017 629.09 668.261 628.436 618.864C628.199 600.251 627.961 580.179 627.961 560.072C627.991 539.964 628.258 519.892 628.525 501.279C629.179 451.883 630.099 413.127 630.099 413.127C630.099 411.561 631.139 410.315 632.416 410.315C633.722 410.315 634.762 411.561 634.762 413.127C634.762 413.127 635.653 451.883 636.336 501.279C636.574 519.892 636.87 539.964 636.87 560.072C636.9 580.179 636.663 600.251 636.425 618.864C635.742 668.261 634.762 707.017 634.762 707.017Z" fill="#B5BBC4"/>
<path fill-rule="evenodd" clip-rule="evenodd" d="M700.958 350.064C700.156 348.819 700.334 347.075 701.344 346.114C702.354 345.153 703.809 345.367 704.611 346.577L738.734 397.717C739.12 398.287 739.327 399.034 739.327 399.781C739.327 399.781 739.506 484.126 739.506 568.471C739.535 652.816 739.387 737.196 739.387 737.196C739.387 738.655 738.852 740.043 737.932 741.039L720.053 759.902L804.009 758.514L789.042 740.791C788.21 739.83 787.765 738.548 787.765 737.196C787.765 737.196 787.705 673.955 787.765 602.244C787.824 508.362 788.062 399.888 788.062 399.888C788.062 399.07 788.299 398.287 788.774 397.682L827.174 347.111C828.035 345.936 829.52 345.865 830.471 346.897C831.451 347.929 831.51 349.709 830.649 350.847L793.556 401.098C793.645 413.376 794.595 514.198 795.278 602.209C795.813 666.161 796.199 723.352 796.258 734.99L817.552 759.866C818.799 761.325 819.215 763.567 818.562 765.524C817.879 767.482 816.305 768.799 814.552 768.834L708.293 770.614C706.422 770.649 704.759 769.297 704.106 767.233C703.452 765.169 703.928 762.82 705.323 761.361L730.804 734.776C730.923 720.647 731.487 644.524 732.17 568.436C732.883 489.749 733.715 411.099 733.833 400.849L700.958 350.064Z" fill="#B5BBC4"/>
<path fill-rule="evenodd" clip-rule="evenodd" d="M721.303 379.318C719.997 379.282 718.957 378.037 718.987 376.471C718.987 374.941 720.056 373.695 721.333 373.695C721.333 373.695 732.678 372.663 747.23 372.058C752.665 371.809 758.574 371.596 764.454 371.702C770.364 371.774 776.245 372.201 781.709 372.557C796.232 373.517 807.546 374.727 807.546 374.727C808.853 374.763 809.893 376.009 809.863 377.575C809.863 379.105 808.794 380.35 807.517 380.35C807.517 380.35 796.142 381.275 781.62 381.916C776.156 382.165 770.275 382.414 764.365 382.343C758.485 382.307 752.575 381.952 747.141 381.596C732.618 380.635 721.303 379.318 721.303 379.318Z" fill="#B5BBC4"/>
<path fill-rule="evenodd" clip-rule="evenodd" d="M736.594 402.557C735.288 402.557 734.248 401.276 734.248 399.745C734.248 398.215 735.317 396.934 736.594 396.934C736.594 396.934 743.692 395.795 752.869 395.012C756.284 394.728 759.996 394.443 763.708 394.478C767.421 394.514 771.103 394.834 774.548 395.154C783.725 395.973 790.793 397.076 790.793 397.076C792.1 397.076 793.139 398.322 793.139 399.888C793.139 401.418 792.07 402.699 790.793 402.699C790.793 402.699 783.695 403.731 774.518 404.514C771.103 404.799 767.391 405.155 763.679 405.155C759.966 405.155 756.284 404.87 752.839 404.55C743.662 403.767 736.594 402.557 736.594 402.557Z" fill="#B5BBC4"/>
<path fill-rule="evenodd" clip-rule="evenodd" d="M756.02 426.615C756.02 425.085 757.089 423.839 758.366 423.839C759.673 423.875 760.713 425.12 760.683 426.686C760.683 426.686 761.366 462.987 761.633 509.287C761.723 526.69 761.782 545.516 761.604 564.342C761.425 583.169 760.98 601.995 760.594 619.398C759.525 665.663 758.307 701.963 758.307 701.963C758.278 703.529 757.238 704.775 755.931 704.739C754.655 704.739 753.615 703.458 753.615 701.928C753.615 701.928 753.051 665.592 752.783 619.327C752.665 601.888 752.546 583.062 752.694 564.236C752.843 545.409 753.259 526.583 753.645 509.18C754.714 462.915 756.02 426.615 756.02 426.615Z" fill="#B5BBC4"/>
<path fill-rule="evenodd" clip-rule="evenodd" d="M777.373 707.088C777.373 708.654 776.334 709.899 775.027 709.899C773.75 709.863 772.71 708.618 772.71 707.088C772.71 707.088 771.908 668.154 771.493 618.544C771.344 599.895 771.196 579.717 771.315 559.538C771.433 539.359 771.819 519.181 772.146 500.532C773.067 450.922 774.136 412.023 774.136 412.023C774.166 410.458 775.205 409.212 776.482 409.212C777.789 409.248 778.828 410.493 778.828 412.059C778.828 412.059 779.541 450.958 779.957 500.568C780.105 519.252 780.313 539.431 780.224 559.574C780.135 579.752 779.808 599.931 779.482 618.615C778.561 668.19 777.373 707.088 777.373 707.088Z" fill="#B5BBC4"/>
<path fill-rule="evenodd" clip-rule="evenodd" d="M847.991 350.777C847.219 349.567 847.427 347.787 848.437 346.862C849.476 345.937 850.931 346.15 851.733 347.395L884.104 397.789C884.461 398.358 884.668 399.034 884.668 399.746C884.668 399.746 884.965 484.127 885.114 568.471C885.262 652.816 885.233 737.161 885.233 737.161C885.233 738.691 884.698 740.115 883.748 741.075L865.988 759.332L949.143 759.795L934.264 740.648C933.521 739.687 933.106 738.478 933.106 737.161C933.106 737.161 933.165 673.92 933.343 602.209C933.551 508.255 933.967 399.746 933.967 399.746C933.967 398.999 934.175 398.252 934.59 397.682L969.486 347.929C970.317 346.755 971.802 346.577 972.782 347.574C973.762 348.57 973.911 350.314 973.079 351.524L939.402 400.885C939.52 412.771 940.292 513.914 940.857 602.173C941.272 666.375 941.54 723.78 941.599 735.132L962.418 761.503C963.605 763.034 963.932 765.276 963.219 767.198C962.536 769.12 960.962 770.329 959.21 770.329L854.169 769.796C852.327 769.796 850.664 768.407 850.041 766.343C849.417 764.243 849.922 761.931 851.317 760.507L876.65 734.741C876.739 720.469 877.184 644.453 877.749 568.436C878.343 489.678 879.085 410.886 879.174 400.814L847.991 350.777Z" fill="#B5BBC4"/>
<path fill-rule="evenodd" clip-rule="evenodd" d="M867.774 380.208C866.467 380.208 865.428 378.926 865.458 377.396C865.458 375.83 866.527 374.585 867.834 374.62C867.834 374.62 878.822 373.588 892.928 372.983C898.215 372.734 903.917 372.521 909.648 372.628C915.35 372.734 921.052 373.126 926.338 373.517C940.445 374.478 951.404 375.724 951.404 375.724C952.71 375.724 953.75 377.005 953.72 378.535C953.72 380.101 952.651 381.346 951.374 381.311C951.374 381.311 940.356 382.236 926.279 382.877C920.963 383.09 915.261 383.339 909.529 383.304C903.827 383.233 898.125 382.877 892.839 382.521C878.733 381.56 867.774 380.208 867.774 380.208Z" fill="#B5BBC4"/>
<path fill-rule="evenodd" clip-rule="evenodd" d="M881.936 402.557C880.629 402.557 879.59 401.311 879.59 399.745C879.59 398.215 880.629 396.933 881.936 396.933C881.936 396.933 889.093 395.759 898.359 394.976C901.804 394.692 905.546 394.407 909.318 394.407C913.06 394.442 916.802 394.763 920.246 395.083C929.512 395.866 936.699 396.933 936.699 396.933C937.976 396.933 939.015 398.215 939.015 399.745C939.015 401.311 937.976 402.557 936.699 402.557C936.699 402.557 929.512 403.624 920.246 404.443C916.802 404.727 913.06 405.083 909.318 405.083C905.546 405.119 901.804 404.834 898.359 404.514C889.093 403.731 881.936 402.557 881.936 402.557Z" fill="#B5BBC4"/>
<path fill-rule="evenodd" clip-rule="evenodd" d="M902.131 427.398C902.161 425.832 903.23 424.622 904.507 424.622C905.784 424.658 906.824 425.939 906.794 427.505C906.794 427.505 907.239 463.734 907.18 509.892C907.18 527.26 907.121 546.015 906.824 564.805C906.527 583.561 905.932 602.351 905.428 619.683C904.061 665.841 902.606 702.035 902.606 702.035C902.577 703.565 901.507 704.811 900.23 704.775C898.924 704.74 897.914 703.458 897.944 701.928C897.944 701.928 897.587 665.699 897.617 619.54C897.647 602.137 897.647 583.383 897.914 564.592C898.182 545.837 898.716 527.082 899.221 509.714C900.587 463.592 902.131 427.398 902.131 427.398Z" fill="#B5BBC4"/>
<path fill-rule="evenodd" clip-rule="evenodd" d="M921.703 707.48C921.673 709.011 920.634 710.256 919.327 710.256C918.05 710.256 917.011 708.975 917.011 707.445C917.011 707.445 916.268 668.582 915.942 619.042C915.823 600.394 915.704 580.251 915.852 560.108C916.001 539.965 916.417 519.822 916.773 501.209C917.783 451.67 918.911 412.843 918.911 412.843C918.941 411.277 919.98 410.031 921.287 410.067C922.564 410.067 923.604 411.348 923.604 412.878C923.604 412.878 924.257 451.741 924.584 501.28C924.732 519.929 924.881 540.036 924.762 560.215C924.643 580.358 924.287 600.465 923.901 619.114C922.92 668.617 921.703 707.48 921.703 707.48Z" fill="#B5BBC4"/>
<rect x="217" y="63.9988" width="835.997" height="835.997" fill="url(#paint0_linear_2999_2640)"/>
<path d="M158 353C158 348.582 161.582 345 166 345H325C329.418 345 333 348.582 333 353V385C333 389.418 329.418 393 325 393H166C161.582 393 158 389.418 158 385V353Z" fill="white"/>
<path d="M190 359C190.552 359 191 359.448 191 360V363.757L189 365.757V361H175V377H189V374.242L191 372.242V378C191 378.552 190.552 379 190 379H174C173.448 379 173 378.552 173 378V360C173 359.448 173.448 359 174 359H190ZM191.778 365.808L193.192 367.222L185.414 375L183.998 374.998L184 373.586L191.778 365.808ZM183 369V371H178V369H183ZM186 365V367H178V365H186Z" fill="#8D95A3"/>
<path d="M203.438 376V362.909H205.413V374.3H211.345V376H203.438ZM216.142 376.217C215.52 376.217 214.958 376.102 214.455 375.872C213.952 375.638 213.553 375.299 213.259 374.856C212.97 374.413 212.825 373.869 212.825 373.226C212.825 372.672 212.931 372.216 213.144 371.858C213.357 371.5 213.645 371.217 214.007 371.008C214.369 370.799 214.774 370.641 215.222 370.535C215.669 370.428 216.125 370.347 216.59 370.292C217.178 370.224 217.655 370.168 218.021 370.126C218.388 370.079 218.654 370.004 218.82 369.902C218.987 369.8 219.07 369.634 219.07 369.403V369.359C219.07 368.8 218.912 368.368 218.597 368.061C218.286 367.754 217.821 367.601 217.203 367.601C216.56 367.601 216.053 367.744 215.682 368.029C215.315 368.31 215.062 368.624 214.921 368.969L213.125 368.56C213.338 367.963 213.649 367.482 214.058 367.115C214.472 366.744 214.947 366.476 215.484 366.31C216.021 366.139 216.585 366.054 217.178 366.054C217.57 366.054 217.985 366.101 218.424 366.195C218.867 366.284 219.281 366.45 219.664 366.693C220.052 366.936 220.369 367.283 220.617 367.735C220.864 368.183 220.987 368.764 220.987 369.48V376H219.121V374.658H219.044C218.921 374.905 218.735 375.148 218.488 375.386C218.241 375.625 217.923 375.823 217.536 375.981C217.148 376.138 216.683 376.217 216.142 376.217ZM216.558 374.683C217.086 374.683 217.538 374.579 217.913 374.37C218.292 374.161 218.58 373.888 218.776 373.552C218.976 373.211 219.076 372.847 219.076 372.459V371.193C219.008 371.261 218.876 371.325 218.68 371.385C218.488 371.44 218.269 371.489 218.021 371.532C217.774 371.57 217.534 371.607 217.299 371.641C217.065 371.67 216.869 371.696 216.711 371.717C216.34 371.764 216.002 371.843 215.695 371.954C215.392 372.065 215.149 372.224 214.966 372.433C214.787 372.638 214.698 372.911 214.698 373.251C214.698 373.724 214.872 374.082 215.222 374.325C215.571 374.564 216.016 374.683 216.558 374.683ZM225.502 376L222.612 366.182H224.587L226.511 373.392H226.607L228.538 366.182H230.513L232.431 373.36H232.526L234.438 366.182H236.413L233.53 376H231.58L229.586 368.911H229.439L227.445 376H225.502ZM249.964 366.348C249.895 365.743 249.614 365.274 249.12 364.942C248.625 364.605 248.003 364.437 247.253 364.437C246.716 364.437 246.252 364.522 245.86 364.692C245.468 364.859 245.163 365.089 244.946 365.383C244.733 365.673 244.626 366.003 244.626 366.374C244.626 366.685 244.699 366.953 244.843 367.179C244.993 367.405 245.187 367.594 245.425 367.748C245.668 367.897 245.928 368.023 246.205 368.125C246.482 368.223 246.748 368.304 247.004 368.368L248.282 368.7C248.7 368.803 249.128 368.941 249.567 369.116C250.006 369.29 250.413 369.521 250.788 369.806C251.163 370.092 251.466 370.445 251.696 370.867C251.93 371.289 252.047 371.794 252.047 372.382C252.047 373.124 251.856 373.782 251.472 374.357C251.093 374.933 250.541 375.386 249.816 375.719C249.096 376.051 248.225 376.217 247.202 376.217C246.222 376.217 245.374 376.062 244.658 375.751C243.942 375.44 243.382 374.999 242.977 374.428C242.572 373.852 242.348 373.17 242.306 372.382H244.287C244.326 372.855 244.479 373.249 244.748 373.565C245.02 373.876 245.368 374.108 245.79 374.261C246.216 374.411 246.682 374.485 247.189 374.485C247.748 374.485 248.244 374.398 248.679 374.223C249.118 374.044 249.463 373.797 249.714 373.482C249.966 373.162 250.091 372.789 250.091 372.363C250.091 371.975 249.981 371.658 249.759 371.411C249.542 371.163 249.245 370.959 248.87 370.797C248.5 370.635 248.08 370.492 247.611 370.369L246.064 369.947C245.016 369.661 244.185 369.241 243.571 368.688C242.962 368.134 242.657 367.401 242.657 366.489C242.657 365.734 242.862 365.076 243.271 364.513C243.68 363.951 244.234 363.514 244.933 363.203C245.632 362.888 246.42 362.73 247.298 362.73C248.184 362.73 248.966 362.886 249.644 363.197C250.326 363.508 250.863 363.936 251.255 364.482C251.647 365.023 251.851 365.645 251.868 366.348H249.964ZM258.23 376.198C257.309 376.198 256.506 375.987 255.82 375.565C255.134 375.143 254.601 374.553 254.222 373.795C253.843 373.036 253.653 372.15 253.653 371.136C253.653 370.117 253.843 369.227 254.222 368.464C254.601 367.701 255.134 367.109 255.82 366.687C256.506 366.265 257.309 366.054 258.23 366.054C259.15 366.054 259.954 366.265 260.64 366.687C261.326 367.109 261.858 367.701 262.238 368.464C262.617 369.227 262.807 370.117 262.807 371.136C262.807 372.15 262.617 373.036 262.238 373.795C261.858 374.553 261.326 375.143 260.64 375.565C259.954 375.987 259.15 376.198 258.23 376.198ZM258.236 374.594C258.833 374.594 259.327 374.436 259.719 374.121C260.111 373.805 260.401 373.386 260.588 372.862C260.78 372.337 260.876 371.76 260.876 371.129C260.876 370.503 260.78 369.928 260.588 369.403C260.401 368.875 260.111 368.451 259.719 368.131C259.327 367.812 258.833 367.652 258.236 367.652C257.635 367.652 257.137 367.812 256.74 368.131C256.348 368.451 256.057 368.875 255.865 369.403C255.677 369.928 255.584 370.503 255.584 371.129C255.584 371.76 255.677 372.337 255.865 372.862C256.057 373.386 256.348 373.805 256.74 374.121C257.137 374.436 257.635 374.594 258.236 374.594ZM266.691 362.909V376H264.78V362.909H266.691ZM275.322 371.928V366.182H277.239V376H275.36V374.3H275.258C275.032 374.824 274.67 375.261 274.171 375.61C273.677 375.955 273.061 376.128 272.324 376.128C271.693 376.128 271.135 375.989 270.649 375.712C270.168 375.431 269.788 375.016 269.511 374.466C269.239 373.916 269.102 373.237 269.102 372.427V366.182H271.014V372.197C271.014 372.866 271.199 373.398 271.57 373.795C271.94 374.191 272.422 374.389 273.014 374.389C273.372 374.389 273.728 374.3 274.082 374.121C274.44 373.942 274.736 373.671 274.97 373.309C275.209 372.947 275.326 372.487 275.322 371.928ZM284.23 366.182V367.716H278.868V366.182H284.23ZM280.306 363.83H282.217V373.117C282.217 373.488 282.272 373.767 282.383 373.955C282.494 374.138 282.637 374.263 282.811 374.332C282.99 374.396 283.184 374.428 283.393 374.428C283.547 374.428 283.681 374.417 283.796 374.396C283.911 374.374 284 374.357 284.064 374.344L284.409 375.923C284.299 375.966 284.141 376.009 283.936 376.051C283.732 376.098 283.476 376.124 283.169 376.128C282.667 376.136 282.198 376.047 281.763 375.859C281.328 375.672 280.977 375.382 280.708 374.99C280.44 374.598 280.306 374.106 280.306 373.513V363.83ZM286.185 376V366.182H288.096V376H286.185ZM287.15 364.667C286.817 364.667 286.532 364.556 286.293 364.335C286.059 364.109 285.942 363.84 285.942 363.529C285.942 363.214 286.059 362.945 286.293 362.724C286.532 362.498 286.817 362.385 287.15 362.385C287.482 362.385 287.766 362.498 288 362.724C288.239 362.945 288.358 363.214 288.358 363.529C288.358 363.84 288.239 364.109 288 364.335C287.766 364.556 287.482 364.667 287.15 364.667ZM294.643 376.198C293.722 376.198 292.919 375.987 292.233 375.565C291.547 375.143 291.014 374.553 290.635 373.795C290.256 373.036 290.066 372.15 290.066 371.136C290.066 370.117 290.256 369.227 290.635 368.464C291.014 367.701 291.547 367.109 292.233 366.687C292.919 366.265 293.722 366.054 294.643 366.054C295.563 366.054 296.366 366.265 297.053 366.687C297.739 367.109 298.271 367.701 298.651 368.464C299.03 369.227 299.219 370.117 299.219 371.136C299.219 372.15 299.03 373.036 298.651 373.795C298.271 374.553 297.739 375.143 297.053 375.565C296.366 375.987 295.563 376.198 294.643 376.198ZM294.649 374.594C295.246 374.594 295.74 374.436 296.132 374.121C296.524 373.805 296.814 373.386 297.001 372.862C297.193 372.337 297.289 371.76 297.289 371.129C297.289 370.503 297.193 369.928 297.001 369.403C296.814 368.875 296.524 368.451 296.132 368.131C295.74 367.812 295.246 367.652 294.649 367.652C294.048 367.652 293.55 367.812 293.153 368.131C292.761 368.451 292.469 368.875 292.278 369.403C292.09 369.928 291.996 370.503 291.996 371.129C291.996 371.76 292.09 372.337 292.278 372.862C292.469 373.386 292.761 373.805 293.153 374.121C293.55 374.436 294.048 374.594 294.649 374.594ZM303.104 370.17V376H301.193V366.182H303.027V367.78H303.149C303.375 367.26 303.728 366.842 304.21 366.527C304.696 366.212 305.307 366.054 306.044 366.054C306.713 366.054 307.299 366.195 307.802 366.476C308.305 366.753 308.695 367.166 308.972 367.716C309.249 368.266 309.387 368.945 309.387 369.755V376H307.476V369.985C307.476 369.273 307.291 368.717 306.92 368.317C306.549 367.912 306.04 367.71 305.392 367.71C304.949 367.71 304.555 367.805 304.21 367.997C303.869 368.189 303.598 368.47 303.398 368.841C303.202 369.207 303.104 369.651 303.104 370.17ZM319.148 368.579L317.416 368.886C317.343 368.664 317.228 368.453 317.07 368.253C316.917 368.053 316.708 367.888 316.444 367.761C316.18 367.633 315.85 367.569 315.453 367.569C314.912 367.569 314.46 367.69 314.098 367.933C313.736 368.172 313.555 368.481 313.555 368.86C313.555 369.188 313.676 369.452 313.919 369.653C314.162 369.853 314.554 370.017 315.095 370.145L316.655 370.503C317.558 370.712 318.232 371.033 318.675 371.468C319.118 371.903 319.34 372.467 319.34 373.162C319.34 373.75 319.169 374.274 318.828 374.734C318.492 375.19 318.021 375.548 317.416 375.808C316.815 376.068 316.118 376.198 315.325 376.198C314.226 376.198 313.329 375.964 312.634 375.495C311.94 375.022 311.514 374.351 311.356 373.482L313.203 373.2C313.318 373.682 313.555 374.046 313.913 374.293C314.271 374.536 314.737 374.658 315.313 374.658C315.939 374.658 316.44 374.528 316.815 374.268C317.19 374.004 317.377 373.682 317.377 373.303C317.377 372.996 317.262 372.738 317.032 372.529C316.806 372.32 316.459 372.163 315.99 372.056L314.328 371.692C313.412 371.483 312.734 371.151 312.296 370.695C311.861 370.239 311.644 369.661 311.644 368.962C311.644 368.383 311.805 367.876 312.129 367.441C312.453 367.006 312.901 366.668 313.472 366.425C314.043 366.178 314.697 366.054 315.434 366.054C316.495 366.054 317.33 366.284 317.94 366.744C318.549 367.2 318.952 367.812 319.148 368.579Z" fill="#8D95A3"/>
<path d="M331 226C331 221.582 334.582 218 339 218H484C488.418 218 492 221.582 492 226V258C492 262.418 488.418 266 484 266H339C334.582 266 331 262.418 331 258V226Z" fill="white"/>
<path d="M346.783 232.826L355 231L363.217 232.826C363.674 232.928 364 233.333 364 233.802V243.789C364 245.795 362.997 247.668 361.328 248.781L355 253L348.672 248.781C347.003 247.668 346 245.795 346 243.789V233.802C346 233.333 346.326 232.928 346.783 232.826ZM348 234.604V243.789C348 245.126 348.668 246.375 349.781 247.117L355 250.596L360.219 247.117C361.332 246.375 362 245.126 362 243.789V234.604L355 233.049L348 234.604ZM355 241C353.619 241 352.5 239.881 352.5 238.5C352.5 237.119 353.619 236 355 236C356.381 236 357.5 237.119 357.5 238.5C357.5 239.881 356.381 241 355 241ZM350.527 246C350.776 243.75 352.684 242 355 242C357.316 242 359.224 243.75 359.472 246H350.527Z" fill="#8D95A3"/>
<path d="M376.438 249V235.909H378.413V241.598H384.94V235.909H386.921V249H384.94V243.292H378.413V249H376.438ZM389.638 249V235.909H394.304C395.318 235.909 396.16 236.084 396.829 236.433C397.502 236.783 398.005 237.266 398.337 237.884C398.67 238.498 398.836 239.207 398.836 240.013C398.836 240.814 398.667 241.519 398.331 242.129C397.998 242.734 397.496 243.205 396.822 243.541C396.153 243.878 395.312 244.046 394.297 244.046H390.763V242.346H394.118C394.758 242.346 395.278 242.254 395.678 242.071C396.083 241.888 396.379 241.621 396.567 241.272C396.754 240.923 396.848 240.503 396.848 240.013C396.848 239.518 396.752 239.09 396.56 238.728C396.373 238.366 396.077 238.089 395.672 237.897C395.271 237.701 394.745 237.603 394.093 237.603H391.613V249H389.638ZM396.1 243.094L399.334 249H397.084L393.914 243.094H396.1ZM406.789 249H404.692L409.403 235.909H411.685L416.396 249H414.299L410.598 238.287H410.496L406.789 249ZM407.14 243.874H413.941V245.536H407.14V243.874ZM421.49 249.192C420.698 249.192 419.99 248.989 419.368 248.585C418.75 248.175 418.264 247.594 417.911 246.839C417.561 246.081 417.386 245.171 417.386 244.11C417.386 243.049 417.563 242.141 417.917 241.387C418.275 240.633 418.765 240.055 419.387 239.655C420.009 239.254 420.715 239.054 421.503 239.054C422.112 239.054 422.602 239.156 422.973 239.361C423.348 239.561 423.638 239.795 423.842 240.064C424.051 240.332 424.213 240.569 424.328 240.773H424.443V235.909H426.354V249H424.488V247.472H424.328C424.213 247.681 424.047 247.92 423.83 248.188C423.617 248.457 423.323 248.691 422.948 248.891C422.573 249.092 422.087 249.192 421.49 249.192ZM421.912 247.562C422.462 247.562 422.926 247.417 423.305 247.127C423.689 246.833 423.979 246.426 424.175 245.906C424.375 245.386 424.475 244.781 424.475 244.091C424.475 243.409 424.377 242.812 424.181 242.301C423.985 241.79 423.698 241.391 423.318 241.106C422.939 240.82 422.47 240.678 421.912 240.678C421.337 240.678 420.857 240.827 420.474 241.125C420.09 241.423 419.801 241.83 419.604 242.346C419.413 242.862 419.317 243.443 419.317 244.091C419.317 244.747 419.415 245.337 419.611 245.862C419.807 246.386 420.097 246.801 420.48 247.108C420.868 247.411 421.345 247.562 421.912 247.562ZM437.321 239.182L433.761 249H431.716L428.149 239.182H430.201L432.687 246.737H432.789L435.27 239.182H437.321ZM438.958 249V239.182H440.869V249H438.958ZM439.923 237.667C439.59 237.667 439.305 237.556 439.066 237.335C438.832 237.109 438.715 236.84 438.715 236.529C438.715 236.214 438.832 235.945 439.066 235.724C439.305 235.498 439.59 235.385 439.923 235.385C440.255 235.385 440.539 235.498 440.773 235.724C441.012 235.945 441.131 236.214 441.131 236.529C441.131 236.84 441.012 237.109 440.773 237.335C440.539 237.556 440.255 237.667 439.923 237.667ZM450.637 241.579L448.905 241.886C448.833 241.664 448.718 241.453 448.56 241.253C448.406 241.053 448.198 240.888 447.933 240.761C447.669 240.633 447.339 240.569 446.943 240.569C446.401 240.569 445.95 240.69 445.588 240.933C445.225 241.172 445.044 241.481 445.044 241.86C445.044 242.188 445.166 242.452 445.409 242.653C445.651 242.853 446.044 243.017 446.585 243.145L448.144 243.503C449.048 243.712 449.721 244.033 450.164 244.468C450.607 244.903 450.829 245.467 450.829 246.162C450.829 246.75 450.659 247.274 450.318 247.734C449.981 248.19 449.51 248.548 448.905 248.808C448.304 249.068 447.607 249.198 446.815 249.198C445.715 249.198 444.818 248.964 444.124 248.495C443.429 248.022 443.003 247.351 442.845 246.482L444.693 246.2C444.808 246.682 445.044 247.046 445.402 247.293C445.76 247.536 446.227 247.658 446.802 247.658C447.428 247.658 447.929 247.528 448.304 247.268C448.679 247.004 448.867 246.682 448.867 246.303C448.867 245.996 448.752 245.738 448.522 245.529C448.296 245.32 447.948 245.163 447.48 245.056L445.818 244.692C444.901 244.483 444.224 244.151 443.785 243.695C443.35 243.239 443.133 242.661 443.133 241.962C443.133 241.383 443.295 240.876 443.619 240.441C443.943 240.006 444.39 239.668 444.961 239.425C445.532 239.178 446.186 239.054 446.923 239.054C447.985 239.054 448.82 239.284 449.429 239.744C450.039 240.2 450.441 240.812 450.637 241.579ZM456.906 249.198C455.986 249.198 455.182 248.987 454.496 248.565C453.81 248.143 453.278 247.553 452.898 246.795C452.519 246.036 452.329 245.15 452.329 244.136C452.329 243.117 452.519 242.227 452.898 241.464C453.278 240.701 453.81 240.109 454.496 239.687C455.182 239.265 455.986 239.054 456.906 239.054C457.827 239.054 458.63 239.265 459.316 239.687C460.002 240.109 460.535 240.701 460.914 241.464C461.293 242.227 461.483 243.117 461.483 244.136C461.483 245.15 461.293 246.036 460.914 246.795C460.535 247.553 460.002 248.143 459.316 248.565C458.63 248.987 457.827 249.198 456.906 249.198ZM456.912 247.594C457.509 247.594 458.003 247.436 458.395 247.121C458.787 246.805 459.077 246.386 459.265 245.862C459.457 245.337 459.552 244.76 459.552 244.129C459.552 243.503 459.457 242.928 459.265 242.403C459.077 241.875 458.787 241.451 458.395 241.131C458.003 240.812 457.509 240.652 456.912 240.652C456.312 240.652 455.813 240.812 455.417 241.131C455.025 241.451 454.733 241.875 454.541 242.403C454.354 242.928 454.26 243.503 454.26 244.129C454.26 244.76 454.354 245.337 454.541 245.862C454.733 246.386 455.025 246.805 455.417 247.121C455.813 247.436 456.312 247.594 456.912 247.594ZM463.456 249V239.182H465.303V240.741H465.406C465.585 240.213 465.9 239.798 466.352 239.495C466.808 239.188 467.323 239.035 467.899 239.035C468.018 239.035 468.159 239.039 468.32 239.048C468.487 239.056 468.617 239.067 468.71 239.08V240.908C468.634 240.886 468.497 240.863 468.301 240.837C468.105 240.808 467.909 240.793 467.713 240.793C467.262 240.793 466.859 240.888 466.505 241.08C466.156 241.268 465.879 241.53 465.674 241.866C465.47 242.199 465.367 242.578 465.367 243.004V249H463.456ZM471.711 252.682C471.426 252.682 471.166 252.658 470.931 252.612C470.697 252.569 470.522 252.522 470.407 252.471L470.868 250.905C471.217 250.999 471.528 251.039 471.801 251.026C472.073 251.013 472.314 250.911 472.523 250.719C472.736 250.528 472.924 250.214 473.086 249.78L473.322 249.128L469.73 239.182H471.775L474.262 246.801H474.364L476.85 239.182H478.902L474.856 250.31C474.669 250.822 474.43 251.254 474.14 251.608C473.85 251.966 473.505 252.234 473.105 252.413C472.704 252.592 472.24 252.682 471.711 252.682Z" fill="#8D95A3"/>
<path d="M918 305C918 300.582 921.582 297 926 297H1111C1115.42 297 1119 300.582 1119 305V337C1119 341.418 1115.42 345 1111 345H926C921.582 345 918 341.418 918 337V305Z" fill="white"/>
<path d="M951 317V329.993C951 330.55 950.555 331 950.007 331H933.993C933.445 331 933 330.556 933 330.008V311.992C933 311.455 933.449 311 934.002 311H944.997L951 317ZM949 318H944V313H935V329H949V318ZM938 316H941V318H938V316ZM938 320H946V322H938V320ZM938 324H946V326H938V324Z" fill="#8D95A3"/>
<path d="M966.001 328L962.371 314.909H964.448L966.999 325.047H967.12L969.773 314.909H971.831L974.484 325.053H974.605L977.149 314.909H979.233L975.596 328H973.608L970.853 318.195H970.751L967.996 328H966.001ZM983.889 328.198C982.969 328.198 982.166 327.987 981.48 327.565C980.793 327.143 980.261 326.553 979.882 325.795C979.502 325.036 979.313 324.15 979.313 323.136C979.313 322.117 979.502 321.227 979.882 320.464C980.261 319.701 980.793 319.109 981.48 318.687C982.166 318.265 982.969 318.054 983.889 318.054C984.81 318.054 985.613 318.265 986.299 318.687C986.985 319.109 987.518 319.701 987.897 320.464C988.276 321.227 988.466 322.117 988.466 323.136C988.466 324.15 988.276 325.036 987.897 325.795C987.518 326.553 986.985 327.143 986.299 327.565C985.613 327.987 984.81 328.198 983.889 328.198ZM983.896 326.594C984.492 326.594 984.987 326.436 985.379 326.121C985.771 325.805 986.061 325.386 986.248 324.862C986.44 324.337 986.536 323.76 986.536 323.129C986.536 322.503 986.44 321.928 986.248 321.403C986.061 320.875 985.771 320.451 985.379 320.131C984.987 319.812 984.492 319.652 983.896 319.652C983.295 319.652 982.796 319.812 982.4 320.131C982.008 320.451 981.716 320.875 981.524 321.403C981.337 321.928 981.243 322.503 981.243 323.129C981.243 323.76 981.337 324.337 981.524 324.862C981.716 325.386 982.008 325.805 982.4 326.121C982.796 326.436 983.295 326.594 983.896 326.594ZM990.439 328V318.182H992.287V319.741H992.389C992.568 319.213 992.883 318.798 993.335 318.495C993.791 318.188 994.307 318.035 994.882 318.035C995.001 318.035 995.142 318.039 995.304 318.048C995.47 318.056 995.6 318.067 995.694 318.08V319.908C995.617 319.886 995.481 319.863 995.285 319.837C995.089 319.808 994.893 319.793 994.697 319.793C994.245 319.793 993.842 319.888 993.488 320.08C993.139 320.268 992.862 320.53 992.657 320.866C992.453 321.199 992.351 321.578 992.351 322.004V328H990.439ZM998.945 324.67L998.933 322.337H999.265L1003.18 318.182H1005.47L1001 322.912H1000.7L998.945 324.67ZM997.188 328V314.909H999.099V328H997.188ZM1003.39 328L999.872 323.334L1001.19 321.998L1005.73 328H1003.39ZM1007.05 331.682V318.182H1008.91V319.773H1009.07C1009.18 319.569 1009.34 319.332 1009.55 319.064C1009.76 318.795 1010.05 318.561 1010.42 318.361C1010.79 318.156 1011.28 318.054 1011.89 318.054C1012.68 318.054 1013.39 318.254 1014.01 318.655C1014.64 319.055 1015.12 319.633 1015.48 320.387C1015.84 321.141 1016.02 322.049 1016.02 323.11C1016.02 324.171 1015.84 325.081 1015.48 325.839C1015.13 326.594 1014.65 327.175 1014.03 327.585C1013.41 327.989 1012.7 328.192 1011.91 328.192C1011.31 328.192 1010.83 328.092 1010.45 327.891C1010.07 327.691 1009.78 327.457 1009.57 327.188C1009.35 326.92 1009.19 326.681 1009.07 326.472H1008.96V331.682H1007.05ZM1008.92 323.091C1008.92 323.781 1009.02 324.386 1009.22 324.906C1009.42 325.426 1009.71 325.833 1010.09 326.127C1010.47 326.417 1010.93 326.562 1011.48 326.562C1012.05 326.562 1012.53 326.411 1012.92 326.108C1013.3 325.801 1013.59 325.386 1013.78 324.862C1013.98 324.337 1014.08 323.747 1014.08 323.091C1014.08 322.443 1013.99 321.862 1013.79 321.346C1013.6 320.83 1013.31 320.423 1012.92 320.125C1012.54 319.827 1012.06 319.678 1011.48 319.678C1010.93 319.678 1010.46 319.82 1010.08 320.106C1009.7 320.391 1009.41 320.79 1009.21 321.301C1009.02 321.812 1008.92 322.409 1008.92 323.091ZM1019.91 314.909V328H1018V314.909H1019.91ZM1025.18 328.217C1024.55 328.217 1023.99 328.102 1023.49 327.872C1022.99 327.638 1022.59 327.299 1022.29 326.856C1022 326.413 1021.86 325.869 1021.86 325.226C1021.86 324.672 1021.97 324.216 1022.18 323.858C1022.39 323.5 1022.68 323.217 1023.04 323.008C1023.4 322.799 1023.81 322.641 1024.26 322.535C1024.7 322.428 1025.16 322.347 1025.62 322.292C1026.21 322.224 1026.69 322.168 1027.06 322.126C1027.42 322.079 1027.69 322.004 1027.85 321.902C1028.02 321.8 1028.1 321.634 1028.1 321.403V321.359C1028.1 320.8 1027.95 320.368 1027.63 320.061C1027.32 319.754 1026.86 319.601 1026.24 319.601C1025.59 319.601 1025.09 319.744 1024.72 320.029C1024.35 320.31 1024.1 320.624 1023.96 320.969L1022.16 320.56C1022.37 319.963 1022.68 319.482 1023.09 319.115C1023.51 318.744 1023.98 318.476 1024.52 318.31C1025.05 318.139 1025.62 318.054 1026.21 318.054C1026.6 318.054 1027.02 318.101 1027.46 318.195C1027.9 318.284 1028.31 318.45 1028.7 318.693C1029.09 318.936 1029.4 319.283 1029.65 319.735C1029.9 320.183 1030.02 320.764 1030.02 321.48V328H1028.15V326.658H1028.08C1027.95 326.905 1027.77 327.148 1027.52 327.386C1027.27 327.625 1026.96 327.823 1026.57 327.981C1026.18 328.138 1025.72 328.217 1025.18 328.217ZM1025.59 326.683C1026.12 326.683 1026.57 326.579 1026.95 326.37C1027.33 326.161 1027.61 325.888 1027.81 325.552C1028.01 325.211 1028.11 324.847 1028.11 324.459V323.193C1028.04 323.261 1027.91 323.325 1027.71 323.385C1027.52 323.44 1027.3 323.489 1027.06 323.532C1026.81 323.57 1026.57 323.607 1026.33 323.641C1026.1 323.67 1025.9 323.696 1025.75 323.717C1025.37 323.764 1025.04 323.843 1024.73 323.954C1024.43 324.065 1024.18 324.224 1024 324.433C1023.82 324.638 1023.73 324.911 1023.73 325.251C1023.73 325.724 1023.91 326.082 1024.26 326.325C1024.61 326.564 1025.05 326.683 1025.59 326.683ZM1036.54 328.198C1035.59 328.198 1034.77 327.983 1034.09 327.553C1033.41 327.118 1032.88 326.519 1032.52 325.756C1032.15 324.994 1031.97 324.12 1031.97 323.136C1031.97 322.138 1032.15 321.259 1032.53 320.496C1032.9 319.729 1033.43 319.13 1034.11 318.7C1034.8 318.269 1035.6 318.054 1036.52 318.054C1037.27 318.054 1037.93 318.192 1038.52 318.469C1039.1 318.742 1039.57 319.126 1039.93 319.62C1040.29 320.114 1040.51 320.692 1040.58 321.352H1038.72C1038.61 320.892 1038.38 320.496 1038.01 320.163C1037.65 319.831 1037.16 319.665 1036.56 319.665C1036.02 319.665 1035.56 319.805 1035.16 320.087C1034.76 320.364 1034.45 320.76 1034.23 321.276C1034.01 321.787 1033.9 322.392 1033.9 323.091C1033.9 323.807 1034 324.425 1034.22 324.945C1034.44 325.464 1034.75 325.867 1035.14 326.153C1035.54 326.438 1036.01 326.581 1036.56 326.581C1036.92 326.581 1037.25 326.515 1037.54 326.383C1037.84 326.246 1038.09 326.053 1038.29 325.801C1038.49 325.55 1038.63 325.247 1038.72 324.893H1040.58C1040.51 325.528 1040.3 326.095 1039.96 326.594C1039.61 327.092 1039.15 327.484 1038.57 327.77C1037.99 328.055 1037.32 328.198 1036.54 328.198ZM1046.69 328.198C1045.72 328.198 1044.89 327.991 1044.19 327.578C1043.5 327.161 1042.96 326.575 1042.58 325.82C1042.21 325.062 1042.02 324.173 1042.02 323.155C1042.02 322.149 1042.21 321.263 1042.58 320.496C1042.96 319.729 1043.49 319.13 1044.17 318.7C1044.85 318.269 1045.65 318.054 1046.56 318.054C1047.11 318.054 1047.65 318.146 1048.17 318.329C1048.69 318.512 1049.15 318.8 1049.57 319.192C1049.98 319.584 1050.31 320.093 1050.55 320.719C1050.78 321.342 1050.9 322.098 1050.9 322.989V323.666H1043.1V322.234H1049.03C1049.03 321.732 1048.93 321.286 1048.72 320.898C1048.52 320.506 1048.23 320.197 1047.86 319.972C1047.49 319.746 1047.06 319.633 1046.57 319.633C1046.03 319.633 1045.56 319.765 1045.16 320.029C1044.77 320.289 1044.46 320.63 1044.24 321.052C1044.03 321.469 1043.92 321.923 1043.92 322.413V323.532C1043.92 324.188 1044.04 324.746 1044.27 325.207C1044.5 325.667 1044.83 326.018 1045.25 326.261C1045.66 326.5 1046.15 326.619 1046.71 326.619C1047.07 326.619 1047.4 326.568 1047.7 326.466C1048 326.359 1048.26 326.202 1048.47 325.993C1048.69 325.784 1048.86 325.526 1048.97 325.219L1050.78 325.545C1050.64 326.078 1050.38 326.545 1050 326.945C1049.63 327.342 1049.17 327.651 1048.6 327.872C1048.04 328.089 1047.41 328.198 1046.69 328.198ZM1057.62 328V314.909H1062.29C1063.31 314.909 1064.15 315.094 1064.82 315.465C1065.49 315.836 1065.99 316.343 1066.32 316.987C1066.65 317.626 1066.82 318.346 1066.82 319.147C1066.82 319.952 1066.65 320.677 1066.31 321.32C1065.98 321.96 1065.48 322.467 1064.81 322.842C1064.14 323.212 1063.3 323.398 1062.28 323.398H1059.07V321.723H1062.1C1062.75 321.723 1063.27 321.612 1063.67 321.391C1064.07 321.165 1064.36 320.858 1064.55 320.47C1064.74 320.082 1064.83 319.641 1064.83 319.147C1064.83 318.653 1064.74 318.214 1064.55 317.83C1064.36 317.447 1064.07 317.146 1063.66 316.929C1063.26 316.712 1062.73 316.603 1062.08 316.603H1059.6V328H1057.62ZM1072.83 328.198C1071.91 328.198 1071.11 327.987 1070.42 327.565C1069.74 327.143 1069.21 326.553 1068.83 325.795C1068.45 325.036 1068.26 324.15 1068.26 323.136C1068.26 322.117 1068.45 321.227 1068.83 320.464C1069.21 319.701 1069.74 319.109 1070.42 318.687C1071.11 318.265 1071.91 318.054 1072.83 318.054C1073.75 318.054 1074.56 318.265 1075.24 318.687C1075.93 319.109 1076.46 319.701 1076.84 320.464C1077.22 321.227 1077.41 322.117 1077.41 323.136C1077.41 324.15 1077.22 325.036 1076.84 325.795C1076.46 326.553 1075.93 327.143 1075.24 327.565C1074.56 327.987 1073.75 328.198 1072.83 328.198ZM1072.84 326.594C1073.44 326.594 1073.93 326.436 1074.32 326.121C1074.72 325.805 1075.01 325.386 1075.19 324.862C1075.38 324.337 1075.48 323.76 1075.48 323.129C1075.48 322.503 1075.38 321.928 1075.19 321.403C1075.01 320.875 1074.72 320.451 1074.32 320.131C1073.93 319.812 1073.44 319.652 1072.84 319.652C1072.24 319.652 1071.74 319.812 1071.34 320.131C1070.95 320.451 1070.66 320.875 1070.47 321.403C1070.28 321.928 1070.19 322.503 1070.19 323.129C1070.19 323.76 1070.28 324.337 1070.47 324.862C1070.66 325.386 1070.95 325.805 1071.34 326.121C1071.74 326.436 1072.24 326.594 1072.84 326.594ZM1081.3 314.909V328H1079.38V314.909H1081.3ZM1083.71 328V318.182H1085.62V328H1083.71ZM1084.67 316.667C1084.34 316.667 1084.05 316.556 1083.82 316.335C1083.58 316.109 1083.46 315.84 1083.46 315.529C1083.46 315.214 1083.58 314.945 1083.82 314.724C1084.05 314.498 1084.34 314.385 1084.67 314.385C1085 314.385 1085.29 314.498 1085.52 314.724C1085.76 314.945 1085.88 315.214 1085.88 315.529C1085.88 315.84 1085.76 316.109 1085.52 316.335C1085.29 316.556 1085 316.667 1084.67 316.667ZM1092.16 328.198C1091.21 328.198 1090.4 327.983 1089.71 327.553C1089.03 327.118 1088.5 326.519 1088.14 325.756C1087.77 324.994 1087.59 324.12 1087.59 323.136C1087.59 322.138 1087.78 321.259 1088.15 320.496C1088.53 319.729 1089.05 319.13 1089.74 318.7C1090.42 318.269 1091.22 318.054 1092.15 318.054C1092.89 318.054 1093.56 318.192 1094.14 318.469C1094.72 318.742 1095.19 319.126 1095.55 319.62C1095.91 320.114 1096.13 320.692 1096.2 321.352H1094.34C1094.24 320.892 1094 320.496 1093.64 320.163C1093.27 319.831 1092.79 319.665 1092.18 319.665C1091.64 319.665 1091.18 319.805 1090.78 320.087C1090.38 320.364 1090.07 320.76 1089.85 321.276C1089.63 321.787 1089.52 322.392 1089.52 323.091C1089.52 323.807 1089.63 324.425 1089.84 324.945C1090.06 325.464 1090.37 325.867 1090.76 326.153C1091.17 326.438 1091.64 326.581 1092.18 326.581C1092.54 326.581 1092.87 326.515 1093.16 326.383C1093.46 326.246 1093.71 326.053 1093.91 325.801C1094.11 325.55 1094.26 325.247 1094.34 324.893H1096.2C1096.13 325.528 1095.92 326.095 1095.58 326.594C1095.23 327.092 1094.77 327.484 1094.19 327.77C1093.62 328.055 1092.94 328.198 1092.16 328.198ZM1099.29 331.682C1099 331.682 1098.74 331.658 1098.51 331.612C1098.28 331.569 1098.1 331.522 1097.99 331.471L1098.45 329.905C1098.8 329.999 1099.11 330.039 1099.38 330.026C1099.65 330.013 1099.89 329.911 1100.1 329.719C1100.32 329.528 1100.5 329.214 1100.66 328.78L1100.9 328.128L1097.31 318.182H1099.35L1101.84 325.801H1101.94L1104.43 318.182H1106.48L1102.44 329.31C1102.25 329.822 1102.01 330.254 1101.72 330.608C1101.43 330.966 1101.08 331.234 1100.68 331.413C1100.28 331.592 1099.82 331.682 1099.29 331.682Z" fill="#8D95A3"/>
<path d="M488.5 419C488.5 414.582 492.082 411 496.5 411H721.5C725.918 411 729.5 414.582 729.5 419V451C729.5 455.418 725.918 459 721.5 459H496.5C492.082 459 488.5 455.418 488.5 451V419Z" fill="white"/>
<path d="M503.662 427.469C506.086 425.045 509.948 424.936 512.501 427.141C515.053 424.936 518.915 425.045 521.339 427.469C523.759 429.889 523.872 433.741 521.679 436.295L513.915 444.086C513.169 444.832 511.981 444.866 511.196 444.188L511.086 444.086L503.322 436.295C501.129 433.741 501.242 429.889 503.662 427.469ZM505.076 428.883C503.369 430.591 503.32 433.328 504.93 435.094L505.076 435.247L512.5 442.672L517.803 437.368L514.268 433.833L513.208 434.894C512.036 436.065 510.136 436.065 508.965 434.894C507.793 433.722 507.793 431.823 508.965 430.651L511.066 428.549C509.353 427.178 506.871 427.24 505.229 428.737L505.076 428.883ZM513.561 431.712C513.952 431.321 514.585 431.321 514.975 431.712L519.217 435.954L519.925 435.247C521.682 433.49 521.682 430.641 519.925 428.883C518.218 427.176 515.48 427.128 513.714 428.737L513.561 428.883L510.379 432.065C510.016 432.428 509.991 433 510.301 433.392L510.379 433.48C510.742 433.842 511.314 433.868 511.706 433.557L511.793 433.48L513.561 431.712Z" fill="#8D95A3"/>
<path d="M533.938 442V428.909H542.146V430.609H535.913V434.598H541.717V436.292H535.913V440.3H542.222V442H533.938ZM544.471 442V432.182H546.305V433.78H546.426C546.631 433.239 546.966 432.817 547.43 432.514C547.895 432.207 548.451 432.054 549.098 432.054C549.755 432.054 550.304 432.207 550.747 432.514C551.195 432.821 551.525 433.243 551.738 433.78H551.841C552.075 433.256 552.448 432.838 552.959 432.527C553.471 432.212 554.08 432.054 554.787 432.054C555.678 432.054 556.404 432.333 556.967 432.891C557.534 433.45 557.817 434.291 557.817 435.416V442H555.906V435.595C555.906 434.93 555.725 434.449 555.363 434.151C555 433.852 554.568 433.703 554.065 433.703C553.443 433.703 552.959 433.895 552.614 434.278C552.269 434.658 552.096 435.146 552.096 435.742V442H550.191V435.474C550.191 434.941 550.025 434.513 549.693 434.189C549.36 433.865 548.928 433.703 548.395 433.703C548.033 433.703 547.698 433.799 547.392 433.991C547.089 434.178 546.844 434.44 546.657 434.777C546.473 435.114 546.382 435.504 546.382 435.947V442H544.471ZM560.219 445.682V432.182H562.085V433.773H562.245C562.356 433.569 562.516 433.332 562.724 433.064C562.933 432.795 563.223 432.561 563.594 432.361C563.964 432.156 564.455 432.054 565.064 432.054C565.856 432.054 566.564 432.254 567.186 432.655C567.808 433.055 568.296 433.633 568.65 434.387C569.008 435.141 569.187 436.049 569.187 437.11C569.187 438.171 569.01 439.081 568.656 439.839C568.303 440.594 567.817 441.175 567.199 441.585C566.581 441.989 565.876 442.192 565.083 442.192C564.486 442.192 563.999 442.092 563.619 441.891C563.244 441.691 562.95 441.457 562.737 441.188C562.524 440.92 562.36 440.681 562.245 440.472H562.13V445.682H560.219ZM562.092 437.091C562.092 437.781 562.192 438.386 562.392 438.906C562.592 439.426 562.882 439.833 563.261 440.127C563.641 440.417 564.105 440.562 564.655 440.562C565.226 440.562 565.703 440.411 566.087 440.108C566.47 439.801 566.76 439.386 566.956 438.862C567.156 438.337 567.256 437.747 567.256 437.091C567.256 436.443 567.158 435.862 566.962 435.346C566.771 434.83 566.481 434.423 566.093 434.125C565.709 433.827 565.23 433.678 564.655 433.678C564.101 433.678 563.632 433.82 563.249 434.106C562.869 434.391 562.582 434.79 562.386 435.301C562.19 435.812 562.092 436.409 562.092 437.091ZM573.079 428.909V442H571.168V428.909H573.079ZM579.626 442.198C578.706 442.198 577.902 441.987 577.216 441.565C576.53 441.143 575.998 440.553 575.618 439.795C575.239 439.036 575.049 438.15 575.049 437.136C575.049 436.117 575.239 435.227 575.618 434.464C575.998 433.701 576.53 433.109 577.216 432.687C577.902 432.265 578.706 432.054 579.626 432.054C580.547 432.054 581.35 432.265 582.036 432.687C582.722 433.109 583.255 433.701 583.634 434.464C584.013 435.227 584.203 436.117 584.203 437.136C584.203 438.15 584.013 439.036 583.634 439.795C583.255 440.553 582.722 441.143 582.036 441.565C581.35 441.987 580.547 442.198 579.626 442.198ZM579.633 440.594C580.229 440.594 580.723 440.436 581.116 440.121C581.508 439.805 581.797 439.386 581.985 438.862C582.177 438.337 582.272 437.76 582.272 437.129C582.272 436.503 582.177 435.928 581.985 435.403C581.797 434.875 581.508 434.451 581.116 434.131C580.723 433.812 580.229 433.652 579.633 433.652C579.032 433.652 578.533 433.812 578.137 434.131C577.745 434.451 577.453 434.875 577.261 435.403C577.074 435.928 576.98 436.503 576.98 437.129C576.98 437.76 577.074 438.337 577.261 438.862C577.453 439.386 577.745 439.805 578.137 440.121C578.533 440.436 579.032 440.594 579.633 440.594ZM587.05 445.682C586.765 445.682 586.505 445.658 586.27 445.612C586.036 445.569 585.861 445.522 585.746 445.471L586.207 443.905C586.556 443.999 586.867 444.039 587.14 444.026C587.413 444.013 587.653 443.911 587.862 443.719C588.075 443.528 588.263 443.214 588.425 442.78L588.661 442.128L585.069 432.182H587.114L589.601 439.801H589.703L592.19 432.182H594.241L590.195 443.31C590.008 443.822 589.769 444.254 589.479 444.608C589.19 444.966 588.844 445.234 588.444 445.413C588.043 445.592 587.579 445.682 587.05 445.682ZM599.775 442.198C598.808 442.198 597.975 441.991 597.276 441.578C596.581 441.161 596.044 440.575 595.665 439.82C595.29 439.062 595.103 438.173 595.103 437.155C595.103 436.149 595.29 435.263 595.665 434.496C596.044 433.729 596.573 433.13 597.25 432.7C597.932 432.269 598.729 432.054 599.641 432.054C600.195 432.054 600.732 432.146 601.252 432.329C601.772 432.512 602.238 432.8 602.652 433.192C603.065 433.584 603.391 434.093 603.629 434.719C603.868 435.342 603.987 436.098 603.987 436.989V437.666H596.183V436.234H602.115C602.115 435.732 602.012 435.286 601.808 434.898C601.603 434.506 601.316 434.197 600.945 433.972C600.578 433.746 600.148 433.633 599.654 433.633C599.117 433.633 598.648 433.765 598.247 434.029C597.851 434.289 597.544 434.63 597.327 435.052C597.114 435.469 597.007 435.923 597.007 436.413V437.532C597.007 438.188 597.122 438.746 597.353 439.207C597.587 439.667 597.913 440.018 598.33 440.261C598.748 440.5 599.236 440.619 599.794 440.619C600.156 440.619 600.487 440.568 600.785 440.466C601.083 440.359 601.341 440.202 601.558 439.993C601.776 439.784 601.942 439.526 602.057 439.219L603.866 439.545C603.721 440.078 603.461 440.545 603.086 440.945C602.715 441.342 602.249 441.651 601.686 441.872C601.128 442.089 600.491 442.198 599.775 442.198ZM610.18 442.198C609.212 442.198 608.379 441.991 607.68 441.578C606.986 441.161 606.449 440.575 606.069 439.82C605.694 439.062 605.507 438.173 605.507 437.155C605.507 436.149 605.694 435.263 606.069 434.496C606.449 433.729 606.977 433.13 607.655 432.7C608.336 432.269 609.133 432.054 610.045 432.054C610.599 432.054 611.136 432.146 611.656 432.329C612.176 432.512 612.643 432.8 613.056 433.192C613.469 433.584 613.795 434.093 614.034 434.719C614.273 435.342 614.392 436.098 614.392 436.989V437.666H606.587V436.234H612.519C612.519 435.732 612.417 435.286 612.212 434.898C612.008 434.506 611.72 434.197 611.349 433.972C610.983 433.746 610.552 433.633 610.058 433.633C609.521 433.633 609.052 433.765 608.652 434.029C608.256 434.289 607.949 434.63 607.731 435.052C607.518 435.469 607.412 435.923 607.412 436.413V437.532C607.412 438.188 607.527 438.746 607.757 439.207C607.991 439.667 608.317 440.018 608.735 440.261C609.153 440.5 609.64 440.619 610.199 440.619C610.561 440.619 610.891 440.568 611.189 440.466C611.488 440.359 611.746 440.202 611.963 439.993C612.18 439.784 612.346 439.526 612.461 439.219L614.27 439.545C614.126 440.078 613.866 440.545 613.491 440.945C613.12 441.342 612.653 441.651 612.091 441.872C611.533 442.089 610.895 442.198 610.18 442.198ZM621.11 442V428.909H623.085V434.598H629.611V428.909H631.592V442H629.611V436.292H623.085V442H621.11ZM637.013 442.217C636.391 442.217 635.828 442.102 635.325 441.872C634.822 441.638 634.424 441.299 634.13 440.856C633.84 440.413 633.695 439.869 633.695 439.226C633.695 438.672 633.802 438.216 634.015 437.858C634.228 437.5 634.516 437.217 634.878 437.008C635.24 436.799 635.645 436.641 636.092 436.535C636.54 436.428 636.996 436.347 637.46 436.292C638.048 436.224 638.526 436.168 638.892 436.126C639.258 436.079 639.525 436.004 639.691 435.902C639.857 435.8 639.94 435.634 639.94 435.403V435.359C639.94 434.8 639.783 434.368 639.467 434.061C639.156 433.754 638.692 433.601 638.074 433.601C637.43 433.601 636.923 433.744 636.553 434.029C636.186 434.31 635.932 434.624 635.792 434.969L633.996 434.56C634.209 433.963 634.52 433.482 634.929 433.115C635.342 432.744 635.817 432.476 636.354 432.31C636.891 432.139 637.456 432.054 638.048 432.054C638.44 432.054 638.856 432.101 639.295 432.195C639.738 432.284 640.151 432.45 640.535 432.693C640.923 432.936 641.24 433.283 641.487 433.735C641.734 434.183 641.858 434.764 641.858 435.48V442H639.991V440.658H639.915C639.791 440.905 639.606 441.148 639.359 441.386C639.111 441.625 638.794 441.823 638.406 441.981C638.018 442.138 637.554 442.217 637.013 442.217ZM637.428 440.683C637.957 440.683 638.408 440.579 638.783 440.37C639.163 440.161 639.45 439.888 639.646 439.552C639.847 439.211 639.947 438.847 639.947 438.459V437.193C639.879 437.261 639.746 437.325 639.55 437.385C639.359 437.44 639.139 437.489 638.892 437.532C638.645 437.57 638.404 437.607 638.17 437.641C637.935 437.67 637.739 437.696 637.582 437.717C637.211 437.764 636.872 437.843 636.565 437.954C636.263 438.065 636.02 438.224 635.837 438.433C635.658 438.638 635.568 438.911 635.568 439.251C635.568 439.724 635.743 440.082 636.092 440.325C636.442 440.564 636.887 440.683 637.428 440.683ZM646.155 436.17V442H644.244V432.182H646.078V433.78H646.2C646.425 433.26 646.779 432.842 647.261 432.527C647.746 432.212 648.358 432.054 649.095 432.054C649.764 432.054 650.35 432.195 650.853 432.476C651.356 432.753 651.746 433.166 652.023 433.716C652.3 434.266 652.438 434.945 652.438 435.755V442H650.527V435.985C650.527 435.273 650.342 434.717 649.971 434.317C649.6 433.912 649.091 433.71 648.443 433.71C648 433.71 647.606 433.805 647.261 433.997C646.92 434.189 646.649 434.47 646.449 434.841C646.253 435.207 646.155 435.651 646.155 436.17ZM658.517 442.192C657.724 442.192 657.017 441.989 656.395 441.585C655.777 441.175 655.291 440.594 654.937 439.839C654.588 439.081 654.413 438.171 654.413 437.11C654.413 436.049 654.59 435.141 654.944 434.387C655.302 433.633 655.792 433.055 656.414 432.655C657.036 432.254 657.741 432.054 658.53 432.054C659.139 432.054 659.629 432.156 660 432.361C660.375 432.561 660.665 432.795 660.869 433.064C661.078 433.332 661.24 433.569 661.355 433.773H661.47V428.909H663.381V442H661.515V440.472H661.355C661.24 440.681 661.074 440.92 660.856 441.188C660.643 441.457 660.349 441.691 659.974 441.891C659.599 442.092 659.113 442.192 658.517 442.192ZM658.939 440.562C659.488 440.562 659.953 440.417 660.332 440.127C660.716 439.833 661.005 439.426 661.201 438.906C661.402 438.386 661.502 437.781 661.502 437.091C661.502 436.409 661.404 435.812 661.208 435.301C661.012 434.79 660.724 434.391 660.345 434.106C659.966 433.82 659.497 433.678 658.939 433.678C658.363 433.678 657.884 433.827 657.5 434.125C657.117 434.423 656.827 434.83 656.631 435.346C656.439 435.862 656.343 436.443 656.343 437.091C656.343 437.747 656.442 438.337 656.638 438.862C656.834 439.386 657.123 439.801 657.507 440.108C657.895 440.411 658.372 440.562 658.939 440.562ZM666.102 442V428.909H668.014V433.773H668.129C668.239 433.569 668.399 433.332 668.608 433.064C668.817 432.795 669.107 432.561 669.477 432.361C669.848 432.156 670.338 432.054 670.948 432.054C671.74 432.054 672.448 432.254 673.07 432.655C673.692 433.055 674.18 433.633 674.533 434.387C674.891 435.141 675.07 436.049 675.07 437.11C675.07 438.171 674.894 439.081 674.54 439.839C674.186 440.594 673.7 441.175 673.082 441.585C672.465 441.989 671.759 442.192 670.967 442.192C670.37 442.192 669.882 442.092 669.503 441.891C669.128 441.691 668.834 441.457 668.621 441.188C668.408 440.92 668.244 440.681 668.129 440.472H667.969V442H666.102ZM667.975 437.091C667.975 437.781 668.075 438.386 668.276 438.906C668.476 439.426 668.766 439.833 669.145 440.127C669.524 440.417 669.989 440.562 670.538 440.562C671.109 440.562 671.587 440.411 671.97 440.108C672.354 439.801 672.644 439.386 672.84 438.862C673.04 438.337 673.14 437.747 673.14 437.091C673.14 436.443 673.042 435.862 672.846 435.346C672.654 434.83 672.364 434.423 671.977 434.125C671.593 433.827 671.114 433.678 670.538 433.678C669.984 433.678 669.516 433.82 669.132 434.106C668.753 434.391 668.465 434.79 668.269 435.301C668.073 435.812 667.975 436.409 667.975 437.091ZM681.192 442.198C680.272 442.198 679.468 441.987 678.782 441.565C678.096 441.143 677.564 440.553 677.184 439.795C676.805 439.036 676.615 438.15 676.615 437.136C676.615 436.117 676.805 435.227 677.184 434.464C677.564 433.701 678.096 433.109 678.782 432.687C679.468 432.265 680.272 432.054 681.192 432.054C682.113 432.054 682.916 432.265 683.602 432.687C684.288 433.109 684.821 433.701 685.2 434.464C685.579 435.227 685.769 436.117 685.769 437.136C685.769 438.15 685.579 439.036 685.2 439.795C684.821 440.553 684.288 441.143 683.602 441.565C682.916 441.987 682.113 442.198 681.192 442.198ZM681.199 440.594C681.795 440.594 682.289 440.436 682.682 440.121C683.074 439.805 683.363 439.386 683.551 438.862C683.743 438.337 683.838 437.76 683.838 437.129C683.838 436.503 683.743 435.928 683.551 435.403C683.363 434.875 683.074 434.451 682.682 434.131C682.289 433.812 681.795 433.652 681.199 433.652C680.598 433.652 680.099 433.812 679.703 434.131C679.311 434.451 679.019 434.875 678.827 435.403C678.64 435.928 678.546 436.503 678.546 437.129C678.546 437.76 678.64 438.337 678.827 438.862C679.019 439.386 679.311 439.805 679.703 440.121C680.099 440.436 680.598 440.594 681.199 440.594ZM691.878 442.198C690.957 442.198 690.154 441.987 689.468 441.565C688.782 441.143 688.249 440.553 687.87 439.795C687.491 439.036 687.301 438.15 687.301 437.136C687.301 436.117 687.491 435.227 687.87 434.464C688.249 433.701 688.782 433.109 689.468 432.687C690.154 432.265 690.957 432.054 691.878 432.054C692.798 432.054 693.602 432.265 694.288 432.687C694.974 433.109 695.506 433.701 695.886 434.464C696.265 435.227 696.455 436.117 696.455 437.136C696.455 438.15 696.265 439.036 695.886 439.795C695.506 440.553 694.974 441.143 694.288 441.565C693.602 441.987 692.798 442.198 691.878 442.198ZM691.884 440.594C692.481 440.594 692.975 440.436 693.367 440.121C693.759 439.805 694.049 439.386 694.237 438.862C694.428 438.337 694.524 437.76 694.524 437.129C694.524 436.503 694.428 435.928 694.237 435.403C694.049 434.875 693.759 434.451 693.367 434.131C692.975 433.812 692.481 433.652 691.884 433.652C691.283 433.652 690.785 433.812 690.389 434.131C689.996 434.451 689.705 434.875 689.513 435.403C689.325 435.928 689.232 436.503 689.232 437.129C689.232 437.76 689.325 438.337 689.513 438.862C689.705 439.386 689.996 439.805 690.389 440.121C690.785 440.436 691.283 440.594 691.884 440.594ZM700.186 438.67L700.173 436.337H700.505L704.417 432.182H706.706L702.244 436.912H701.944L700.186 438.67ZM698.428 442V428.909H700.339V442H698.428ZM704.628 442L701.113 437.334L702.429 435.998L706.974 442H704.628ZM715.645 434.579L713.912 434.886C713.84 434.664 713.725 434.453 713.567 434.253C713.414 434.053 713.205 433.888 712.941 433.761C712.677 433.633 712.346 433.569 711.95 433.569C711.409 433.569 710.957 433.69 710.595 433.933C710.233 434.172 710.052 434.481 710.052 434.86C710.052 435.188 710.173 435.452 710.416 435.653C710.659 435.853 711.051 436.017 711.592 436.145L713.152 436.503C714.055 436.712 714.729 437.033 715.172 437.468C715.615 437.903 715.836 438.467 715.836 439.162C715.836 439.75 715.666 440.274 715.325 440.734C714.988 441.19 714.518 441.548 713.912 441.808C713.312 442.068 712.615 442.198 711.822 442.198C710.723 442.198 709.826 441.964 709.131 441.495C708.437 441.022 708.01 440.351 707.853 439.482L709.7 439.2C709.815 439.682 710.052 440.046 710.41 440.293C710.768 440.536 711.234 440.658 711.809 440.658C712.436 440.658 712.937 440.528 713.312 440.268C713.687 440.004 713.874 439.682 713.874 439.303C713.874 438.996 713.759 438.738 713.529 438.529C713.303 438.32 712.956 438.163 712.487 438.056L710.825 437.692C709.909 437.483 709.231 437.151 708.792 436.695C708.358 436.239 708.14 435.661 708.14 434.962C708.14 434.383 708.302 433.876 708.626 433.441C708.95 433.006 709.398 432.668 709.969 432.425C710.54 432.178 711.194 432.054 711.931 432.054C712.992 432.054 713.827 432.284 714.437 432.744C715.046 433.2 715.449 433.812 715.645 434.579Z" fill="#8D95A3"/>
<path d="M700 154C700 149.582 703.582 146 708 146H868C872.418 146 876 149.582 876 154V186C876 190.418 872.418 194 868 194H708C703.582 194 700 190.418 700 186V154Z" fill="white"/>
<path d="M722.614 175.796C722.277 176.568 721.208 176.568 720.87 175.796L719.993 173.785C719.212 171.997 717.806 170.573 716.052 169.794L713.637 168.722C712.869 168.381 712.869 167.264 713.637 166.923L715.977 165.884C717.776 165.086 719.207 163.609 719.974 161.759L720.863 159.617C721.193 158.822 722.292 158.822 722.621 159.617L723.51 161.759C724.278 163.609 725.709 165.086 727.508 165.884L729.848 166.923C730.616 167.264 730.616 168.381 729.848 168.722L727.432 169.794C725.679 170.573 724.273 171.997 723.492 173.785L722.614 175.796ZM716.54 167.822C718.825 168.837 720.684 170.505 721.742 172.8C722.801 170.505 724.659 168.837 726.945 167.822C724.632 166.796 722.768 165.046 721.742 162.711C720.717 165.046 718.853 166.796 716.54 167.822ZM731.401 180.69L731.648 180.124C732.088 179.116 732.881 178.312 733.869 177.873L734.63 177.535C735.041 177.353 735.041 176.755 734.63 176.572L733.912 176.253C732.898 175.803 732.091 174.97 731.659 173.927L731.405 173.316C731.228 172.89 730.639 172.89 730.463 173.316L730.209 173.927C729.777 174.97 728.97 175.803 727.956 176.253L727.238 176.572C726.827 176.755 726.827 177.353 727.238 177.535L727.998 177.873C728.987 178.312 729.78 179.116 730.22 180.124L730.467 180.69C730.647 181.104 731.221 181.104 731.401 180.69ZM730.375 177.047L730.937 176.488L731.488 177.047L730.937 177.59L730.375 177.047Z" fill="#8D95A3"/>
<path d="M746.544 177H744.447L749.158 163.909H751.44L756.151 177H754.055L750.354 166.287H750.251L746.544 177ZM746.896 171.874H753.697V173.536H746.896V171.874ZM759.857 163.909V177H757.882V163.909H759.857ZM768.205 169.624V171.286H762.401V169.624H768.205ZM772.57 177L768.94 163.909H771.017L773.567 174.047H773.689L776.342 163.909H778.4L781.052 174.053H781.174L783.718 163.909H785.802L782.165 177H780.177L777.422 167.195H777.32L774.565 177H772.57ZM790.458 177.198C789.538 177.198 788.734 176.987 788.048 176.565C787.362 176.143 786.83 175.553 786.45 174.795C786.071 174.036 785.881 173.15 785.881 172.136C785.881 171.117 786.071 170.227 786.45 169.464C786.83 168.701 787.362 168.109 788.048 167.687C788.734 167.265 789.538 167.054 790.458 167.054C791.379 167.054 792.182 167.265 792.868 167.687C793.554 168.109 794.087 168.701 794.466 169.464C794.845 170.227 795.035 171.117 795.035 172.136C795.035 173.15 794.845 174.036 794.466 174.795C794.087 175.553 793.554 176.143 792.868 176.565C792.182 176.987 791.379 177.198 790.458 177.198ZM790.465 175.594C791.061 175.594 791.555 175.436 791.948 175.121C792.34 174.805 792.629 174.386 792.817 173.862C793.009 173.337 793.104 172.76 793.104 172.129C793.104 171.503 793.009 170.928 792.817 170.403C792.629 169.875 792.34 169.451 791.948 169.131C791.555 168.812 791.061 168.652 790.465 168.652C789.864 168.652 789.365 168.812 788.969 169.131C788.577 169.451 788.285 169.875 788.093 170.403C787.906 170.928 787.812 171.503 787.812 172.129C787.812 172.76 787.906 173.337 788.093 173.862C788.285 174.386 788.577 174.805 788.969 175.121C789.365 175.436 789.864 175.594 790.465 175.594ZM797.008 177V167.182H798.856V168.741H798.958C799.137 168.213 799.452 167.798 799.904 167.495C800.36 167.188 800.875 167.035 801.451 167.035C801.57 167.035 801.711 167.039 801.873 167.048C802.039 167.056 802.169 167.067 802.263 167.08V168.908C802.186 168.886 802.049 168.863 801.853 168.837C801.657 168.808 801.461 168.793 801.265 168.793C800.814 168.793 800.411 168.888 800.057 169.08C799.708 169.268 799.431 169.53 799.226 169.866C799.022 170.199 798.919 170.578 798.919 171.004V177H797.008ZM805.514 173.67L805.501 171.337H805.834L809.746 167.182H812.034L807.572 171.912H807.272L805.514 173.67ZM803.756 177V163.909H805.668V177H803.756ZM809.957 177L806.441 172.334L807.758 170.998L812.303 177H809.957ZM820.973 169.579L819.241 169.886C819.169 169.664 819.053 169.453 818.896 169.253C818.742 169.053 818.534 168.888 818.269 168.761C818.005 168.633 817.675 168.569 817.279 168.569C816.737 168.569 816.286 168.69 815.923 168.933C815.561 169.172 815.38 169.481 815.38 169.86C815.38 170.188 815.502 170.452 815.745 170.653C815.987 170.853 816.379 171.017 816.921 171.145L818.48 171.503C819.384 171.712 820.057 172.033 820.5 172.468C820.943 172.903 821.165 173.467 821.165 174.162C821.165 174.75 820.995 175.274 820.654 175.734C820.317 176.19 819.846 176.548 819.241 176.808C818.64 177.068 817.943 177.198 817.151 177.198C816.051 177.198 815.154 176.964 814.46 176.495C813.765 176.022 813.339 175.351 813.181 174.482L815.029 174.2C815.144 174.682 815.38 175.046 815.738 175.293C816.096 175.536 816.563 175.658 817.138 175.658C817.764 175.658 818.265 175.528 818.64 175.268C819.015 175.004 819.203 174.682 819.203 174.303C819.203 173.996 819.088 173.738 818.857 173.529C818.632 173.32 818.284 173.163 817.816 173.056L816.154 172.692C815.237 172.483 814.56 172.151 814.121 171.695C813.686 171.239 813.469 170.661 813.469 169.962C813.469 169.383 813.631 168.876 813.955 168.441C814.279 168.006 814.726 167.668 815.297 167.425C815.868 167.178 816.522 167.054 817.259 167.054C818.321 167.054 819.156 167.284 819.765 167.744C820.374 168.2 820.777 168.812 820.973 169.579ZM823.106 180.682V167.182H824.973V168.773H825.133C825.243 168.569 825.403 168.332 825.612 168.064C825.821 167.795 826.111 167.561 826.481 167.361C826.852 167.156 827.342 167.054 827.952 167.054C828.744 167.054 829.452 167.254 830.074 167.655C830.696 168.055 831.184 168.633 831.537 169.387C831.895 170.141 832.074 171.049 832.074 172.11C832.074 173.171 831.898 174.081 831.544 174.839C831.19 175.594 830.704 176.175 830.086 176.585C829.469 176.989 828.763 177.192 827.971 177.192C827.374 177.192 826.886 177.092 826.507 176.891C826.132 176.691 825.838 176.457 825.625 176.188C825.412 175.92 825.248 175.681 825.133 175.472H825.018V180.682H823.106ZM824.979 172.091C824.979 172.781 825.079 173.386 825.28 173.906C825.48 174.426 825.77 174.833 826.149 175.127C826.528 175.417 826.993 175.562 827.542 175.562C828.113 175.562 828.591 175.411 828.974 175.108C829.358 174.801 829.648 174.386 829.844 173.862C830.044 173.337 830.144 172.747 830.144 172.091C830.144 171.443 830.046 170.862 829.85 170.346C829.658 169.83 829.368 169.423 828.981 169.125C828.597 168.827 828.118 168.678 827.542 168.678C826.988 168.678 826.52 168.82 826.136 169.106C825.757 169.391 825.469 169.79 825.273 170.301C825.077 170.812 824.979 171.409 824.979 172.091ZM836.913 177.217C836.291 177.217 835.728 177.102 835.225 176.872C834.723 176.638 834.324 176.299 834.03 175.856C833.74 175.413 833.596 174.869 833.596 174.226C833.596 173.672 833.702 173.216 833.915 172.858C834.128 172.5 834.416 172.217 834.778 172.008C835.14 171.799 835.545 171.641 835.993 171.535C836.44 171.428 836.896 171.347 837.36 171.292C837.948 171.224 838.426 171.168 838.792 171.126C839.159 171.079 839.425 171.004 839.591 170.902C839.757 170.8 839.841 170.634 839.841 170.403V170.359C839.841 169.8 839.683 169.368 839.368 169.061C839.056 168.754 838.592 168.601 837.974 168.601C837.331 168.601 836.823 168.744 836.453 169.029C836.086 169.31 835.833 169.624 835.692 169.969L833.896 169.56C834.109 168.963 834.42 168.482 834.829 168.115C835.243 167.744 835.718 167.476 836.255 167.31C836.792 167.139 837.356 167.054 837.948 167.054C838.341 167.054 838.756 167.101 839.195 167.195C839.638 167.284 840.051 167.45 840.435 167.693C840.823 167.936 841.14 168.283 841.387 168.735C841.635 169.183 841.758 169.764 841.758 170.48V177H839.892V175.658H839.815C839.691 175.905 839.506 176.148 839.259 176.386C839.012 176.625 838.694 176.823 838.306 176.981C837.919 177.138 837.454 177.217 836.913 177.217ZM837.328 175.683C837.857 175.683 838.309 175.579 838.684 175.37C839.063 175.161 839.35 174.888 839.547 174.552C839.747 174.211 839.847 173.847 839.847 173.459V172.193C839.779 172.261 839.647 172.325 839.451 172.385C839.259 172.44 839.039 172.489 838.792 172.532C838.545 172.57 838.304 172.607 838.07 172.641C837.836 172.67 837.64 172.696 837.482 172.717C837.111 172.764 836.772 172.843 836.466 172.954C836.163 173.065 835.92 173.224 835.737 173.433C835.558 173.638 835.468 173.911 835.468 174.251C835.468 174.724 835.643 175.082 835.993 175.325C836.342 175.564 836.787 175.683 837.328 175.683ZM848.279 177.198C847.329 177.198 846.511 176.983 845.825 176.553C845.143 176.118 844.619 175.519 844.252 174.756C843.886 173.994 843.703 173.12 843.703 172.136C843.703 171.138 843.89 170.259 844.265 169.496C844.64 168.729 845.169 168.13 845.85 167.7C846.532 167.269 847.336 167.054 848.26 167.054C849.006 167.054 849.671 167.192 850.255 167.469C850.838 167.742 851.309 168.126 851.667 168.62C852.029 169.114 852.245 169.692 852.313 170.352H850.453C850.35 169.892 850.116 169.496 849.75 169.163C849.387 168.831 848.902 168.665 848.292 168.665C847.76 168.665 847.293 168.805 846.892 169.087C846.496 169.364 846.187 169.76 845.966 170.276C845.744 170.787 845.633 171.392 845.633 172.091C845.633 172.807 845.742 173.425 845.959 173.945C846.176 174.464 846.483 174.867 846.88 175.153C847.28 175.438 847.751 175.581 848.292 175.581C848.654 175.581 848.983 175.515 849.277 175.383C849.575 175.246 849.824 175.053 850.024 174.801C850.229 174.55 850.372 174.247 850.453 173.893H852.313C852.245 174.528 852.038 175.095 851.693 175.594C851.348 176.092 850.885 176.484 850.306 176.77C849.73 177.055 849.055 177.198 848.279 177.198ZM858.428 177.198C857.461 177.198 856.628 176.991 855.929 176.578C855.234 176.161 854.697 175.575 854.318 174.82C853.943 174.062 853.756 173.173 853.756 172.155C853.756 171.149 853.943 170.263 854.318 169.496C854.697 168.729 855.226 168.13 855.903 167.7C856.585 167.269 857.382 167.054 858.294 167.054C858.848 167.054 859.385 167.146 859.905 167.329C860.425 167.512 860.891 167.8 861.305 168.192C861.718 168.584 862.044 169.093 862.283 169.719C862.521 170.342 862.641 171.098 862.641 171.989V172.666H854.836V171.234H860.768C860.768 170.732 860.665 170.286 860.461 169.898C860.256 169.506 859.969 169.197 859.598 168.972C859.231 168.746 858.801 168.633 858.307 168.633C857.77 168.633 857.301 168.765 856.901 169.029C856.504 169.289 856.197 169.63 855.98 170.052C855.767 170.469 855.66 170.923 855.66 171.413V172.532C855.66 173.188 855.776 173.746 856.006 174.207C856.24 174.667 856.566 175.018 856.984 175.261C857.401 175.5 857.889 175.619 858.447 175.619C858.81 175.619 859.14 175.568 859.438 175.466C859.736 175.359 859.994 175.202 860.212 174.993C860.429 174.784 860.595 174.526 860.71 174.219L862.519 174.545C862.374 175.078 862.114 175.545 861.739 175.945C861.369 176.342 860.902 176.651 860.339 176.872C859.781 177.089 859.144 177.198 858.428 177.198Z" fill="#8D95A3"/>
<path fill-rule="evenodd" clip-rule="evenodd" d="M201.369 138.447C203.839 139.663 203.988 143.193 201.707 146.327C199.426 149.456 195.572 151.004 193.109 149.784C182.058 144.588 174.601 133.427 172.94 123.183C171.508 114.345 174.67 105.877 180.792 100.32C186.528 95.1247 192.364 93.0934 198.232 93.0248C206.513 92.926 214.99 97.9132 222.923 100.705C224.674 101.314 226.379 101.785 228.063 101.939C229.329 102.062 230.521 102.158 231.668 101.088C235.097 97.8889 234.212 94.5858 233.381 91.0357C231.427 82.7241 226.214 74.1862 224.884 66.3286C223.726 59.4581 225.286 52.7891 229.88 46.7777C232.953 42.7592 236.245 40.1303 239.539 38.3822C244.122 35.9559 249.022 35.3004 253.979 36.4128C262.366 38.2877 271.615 46.3758 280.775 51.0033C283.255 52.2512 285.684 53.2269 288.141 53.3908C289.288 53.4632 290.401 53.3876 291.504 52.3941C292.802 51.2334 292.915 49.9653 292.891 48.6691C292.86 46.7574 292.374 44.8365 291.738 42.8508C288.741 33.4379 282.739 23.335 282.829 13.702C282.901 6.3443 285.668 -0.881268 292.611 -7.85611C298.915 -14.1726 306.621 -16.972 315.024 -16.4496C324.291 -15.8795 334.976 -10.9437 344.712 -8.30493C347.593 -7.52799 350.335 -6.94207 352.933 -6.99137C354.142 -7.01351 355.198 -6.69595 356.106 -7.64008C356.633 -8.18743 357.152 -8.56551 357.25 -9.0269C357.418 -9.82134 357.023 -10.4193 356.645 -11.1112C356.015 -12.2105 355.13 -13.2513 354.117 -14.2862C347.647 -20.7792 337.19 -26.8235 334.592 -34.4626C332.518 -40.5786 333.665 -47.4692 341.051 -55.7432C346.802 -62.185 352.765 -65.1672 358.885 -65.9804C366.287 -66.9661 374.144 -63.9872 381.732 -61.7132C384.658 -60.8472 387.507 -60.0822 390.359 -60.1681C392.21 -60.2212 394.037 -60.5706 395.782 -62.2269C402.209 -68.3182 403.63 -77.5819 403.512 -86.1594C403.379 -96.2714 400.668 -105.688 397.141 -108.913C395.128 -110.68 395.679 -114.434 398.37 -117.29C401.059 -120.145 404.874 -121.028 406.886 -119.26C412.331 -114.665 417.458 -99.8305 416.476 -84.6736C415.752 -73.4534 411.488 -62.1862 403.276 -54.1286C397.693 -48.6501 391.806 -46.373 385.723 -46.0332C378.616 -45.6383 371.086 -48.6082 363.753 -50.3613C361.424 -50.9205 359.116 -51.3104 356.844 -51.2312C354.762 -51.1639 352.711 -50.535 350.818 -48.3464C347.557 -44.5806 350.016 -42.513 352.318 -40.1463C355.65 -36.8146 360.292 -33.7843 364.232 -30.6485C367.911 -27.7085 370.948 -24.5582 372.491 -21.1786C375.411 -14.8101 374.315 -7.60011 366.033 1.2352C359.986 7.69018 352.295 10.4422 343.746 9.85622C334.645 9.23294 323.97 4.42866 314.127 2.09489C311.259 1.42129 308.509 0.972933 305.912 1.1231C304.706 1.19388 303.614 1.09817 302.69 2.03466C301.11 3.6345 300.699 5.30997 300.648 6.98808C300.589 8.9215 300.975 10.8457 301.519 12.801C304.18 22.3885 310.313 32.2078 310.689 41.1849C311.02 49.0601 308.133 56.5629 300.267 63.5685C292.674 70.302 284.843 72.2238 277.062 70.4217C268.061 68.3332 258.857 60.2325 250.298 55.42C248.303 54.2978 246.385 53.3643 244.472 52.9556C243.47 52.7377 242.549 52.354 241.656 53.4938C240.878 54.4853 240.993 55.5171 241.041 56.6487C241.133 58.9353 241.742 61.2944 242.536 63.7231C245.472 72.7208 250.28 82.4235 249.538 91.3469C248.98 98.0395 246.117 104.485 239.468 110.479C233.465 115.892 227.169 117.743 220.711 116.794C213.409 115.72 205.636 110.323 197.794 107.949C194.33 106.902 191.038 105.953 187.54 109.007C186.381 110.02 186.191 111.455 186.043 113.032C185.712 116.622 186.585 120.583 188.329 124.371C190.948 130.064 195.459 135.37 201.369 138.447Z" fill="#D8DBDF"/>
<path fill-rule="evenodd" clip-rule="evenodd" d="M1005.17 123.006C1002.51 123.089 999.915 124.118 998.112 126.2C994.997 129.797 995.881 134.781 996.027 139.084C996.226 144.944 995.633 150.824 993.936 156.472L992.987 159.317C992.713 160.069 991.979 161.493 992.054 162.256C993.185 163.404 995.939 162.328 996.874 161.44L996.95 161.362C997.358 160.967 997.54 160.408 997.767 159.906L998.831 157.465C1001.22 151.487 1001.97 145.19 1001.87 138.827C1001.84 136.463 1001.54 134.014 1001.72 131.658C1001.91 129.141 1003.95 126.423 1006.88 126.689C1009.03 126.885 1011.82 128.546 1013.15 130.126C1016.7 134.356 1017.52 140.806 1017.14 146.125C1016.87 149.963 1014.86 152.907 1020.76 148.95C1024.98 146.123 1029.4 143.63 1033.95 141.323L1039.9 138.559C1042.28 137.545 1049.18 134.732 1051.46 137.103C1052.47 138.152 1052.96 139.973 1052.84 141.364C1052.56 144.736 1048.29 147.104 1045.66 148.711L1039.06 152.617C1038.25 153.084 1037.1 153.509 1036.43 154.134C1035.81 154.719 1036.56 155.758 1037.4 155.502C1041.02 154.404 1043.59 152.55 1047.83 152.028C1051.07 151.629 1056.25 152.299 1056.7 156.172C1056.89 157.844 1056.32 159.798 1055.14 161.065C1051.93 164.535 1038.91 168.125 1037.95 169.271C1037.48 172.049 1041.15 170.243 1042.64 169.822C1047.02 168.578 1055.66 165.621 1056.18 172.262C1056.82 180.552 1040.97 182.758 1034.43 183.815C1034.15 183.861 1028.38 184.346 1030.52 185.792C1031.89 186.724 1043.85 184.27 1046.06 183.864C1043.01 185.889 1039.73 187.828 1036.41 189.418L1031.49 191.491C1024.32 194.384 1018.05 195.652 1010.29 194.441C1009.73 194.354 1009.1 194.545 1008.99 193.949C1007.46 185.743 1001.29 169.971 993.805 164.626C991.653 163.09 991.167 164.606 989.4 165.48L986.571 166.866C983.647 168.143 973.283 172.214 974.039 176.214L974.063 176.348C974.234 177.252 974.867 178.096 975.383 178.855L974.283 178.82L974.134 179.577C973.71 183.407 977.115 188.426 978.829 191.683L980.365 194.858C981.029 196.111 982.116 198.019 983.081 199.109L983.173 199.208C983.256 199.682 983.433 200.064 983.646 200.495C983.98 201.5 983.857 202.77 984.149 203.472C985.603 206.904 989.76 209.251 993.586 208.979C997.946 208.668 1002.38 206.023 1005.77 203.588C1008.36 201.728 1009.41 201.386 1009.32 198.128L1009.21 195.92C1009.97 196.249 1010.82 196.373 1011.63 196.52C1019.06 197.871 1025.16 195.957 1031.88 193.215L1036.82 191.142C1040.22 189.545 1043.49 187.65 1046.69 185.725L1052.43 182.067C1056.34 179.359 1060.54 175.538 1059.31 170.407L1059.28 170.311C1058.66 167.591 1057.64 166.286 1055.11 165.171C1055.54 164.863 1056.02 164.615 1056.42 164.271C1062.11 159.418 1061.15 149.607 1052.56 147.896C1055.67 145.102 1057.45 140.396 1055.33 136.602C1050.4 127.766 1031.35 138.553 1025.58 141.955L1021.95 144.18C1021.05 144.764 1020.21 145.392 1019.25 145.889C1020.07 139.483 1017.8 129.613 1012.67 125.475C1010.57 123.783 1007.84 122.922 1005.17 123.006Z" fill="#8D95A3"/>
<path fill-rule="evenodd" clip-rule="evenodd" d="M203.415 470.003C200.361 469.939 197.274 470.781 194.534 472.09C189.838 474.362 185.946 478.393 185.784 483.778C177.401 479.22 167.134 481.986 162.501 490.454C158.852 497.126 162.2 506.804 168.825 510.284C172.423 512.174 176.608 512.61 180.554 513.33C184.617 514.072 188.921 514.987 192.741 516.583C195.589 517.714 198.393 518.96 200.977 520.619L203.675 522.484C204.929 523.396 207.585 525.199 208.435 522.819C208.691 522.102 208.324 521.039 208.239 520.287C207.603 514.56 209.053 508.798 211.255 503.54L214.728 495.755C218.435 486.692 218.605 474.353 207.527 470.692C206.187 470.249 204.804 470.032 203.415 470.003Z" fill="#8D95A3"/>
</g>
<defs>
<linearGradient id="paint0_linear_2999_2640" x1="634.999" y1="63.9988" x2="634.999" y2="899.996" gradientUnits="userSpaceOnUse">
<stop stop-color="#EDEEF1" stop-opacity="0"/>
<stop offset="0.65" stop-color="#EDEEF1"/>
<stop offset="1" stop-color="#EDEEF1"/>
</linearGradient>
<clipPath id="clip0_2999_2640">
<rect width="1280" height="640" fill="white"/>
</clipPath>
</defs>
</svg>
