<svg width="40" height="38" viewBox="0 0 40 38" fill="none" xmlns="http://www.w3.org/2000/svg">
<ellipse cx="5.05451" cy="32.3157" rx="5.05451" ry="5.0838" fill="#5167F6"/>
<ellipse cx="17.6908" cy="27.232" rx="3.36968" ry="3.3892" fill="#5167F6"/>
<path fill-rule="evenodd" clip-rule="evenodd" d="M15.9455 1.38924C12.7221 3.26104 11.6134 7.39907 13.469 10.6318L20.1926 22.3449C20.5753 23.0116 20.0941 23.8428 19.3254 23.8428H17.7104C15.8386 23.8428 14.3212 25.3602 14.3212 27.232C14.3212 29.1038 15.8386 30.6212 17.7104 30.6212H24.3644C24.7225 30.6212 25.0534 30.8127 25.2317 31.1233L26.9671 34.1467C28.8228 37.3794 32.9402 38.4826 36.1636 36.6108C39.3869 34.739 40.4957 30.601 38.6401 27.3683L25.1419 3.85337C23.2863 0.620668 19.1689 -0.482562 15.9455 1.38924Z" fill="#5167F6"/>
</svg>
