<svg width="272" height="268" viewBox="0 0 272 268" fill="none" xmlns="http://www.w3.org/2000/svg">
<path d="M546.011 67.8927C528.763 82.4805 481.825 103.167 410.734 79.2125C321.87 49.2691 310.794 -11.1659 162.434 29.3396C10.5784 70.7996 -23.0473 198.45 -117.613 120.893C-196.279 56.376 -63.9523 -26.0125 -53.5384 56.376C-43.6397 134.689 -203.428 244.77 -274.011 300.529" stroke="url(#paint0_radial_304_1967)" stroke-width="29.0424"/>
<path d="M2.28816 113.839L2.85312 114.701L-0.553865 116.983L-1.11883 116.122L2.28816 113.839ZM-1.16536 113.871L-0.15525 113.194L3.98026 119.502C4.16858 119.789 4.35119 119.977 4.5281 120.065C4.70598 120.148 4.87656 120.17 5.03983 120.131C5.20407 120.087 5.36038 120.016 5.50876 119.916C5.62004 119.842 5.70759 119.775 5.77139 119.715C5.83331 119.653 5.88285 119.604 5.92 119.566L6.7243 120.342C6.67277 120.414 6.59413 120.504 6.48838 120.612C6.38451 120.723 6.23842 120.841 6.05009 120.967C5.76475 121.159 5.44463 121.284 5.08972 121.344C4.73767 121.402 4.3889 121.365 4.04341 121.233C3.70078 121.099 3.40328 120.839 3.15094 120.454L-1.16536 113.871Z" fill="white"/>
<path d="M9.54697 118.683C9.13416 118.968 8.70669 119.148 8.26455 119.224C7.82049 119.296 7.39863 119.251 6.99896 119.089C6.59737 118.924 6.25247 118.627 5.96426 118.2C5.71064 117.825 5.57856 117.469 5.56803 117.134C5.55558 116.797 5.6272 116.476 5.78288 116.173C5.93855 115.869 6.14274 115.582 6.39542 115.312C6.64902 115.037 6.91363 114.775 7.18926 114.527C7.55052 114.203 7.84549 113.943 8.07418 113.748C8.30378 113.547 8.45303 113.376 8.52194 113.232C8.59367 113.087 8.57477 112.933 8.46525 112.771L8.4422 112.736C8.15783 112.315 7.82236 112.067 7.43578 111.991C7.05203 111.914 6.62972 112.034 6.16886 112.352C5.69102 112.681 5.38748 113.045 5.25823 113.443C5.12899 113.841 5.08993 114.197 5.14105 114.513L3.96047 114.826C3.86112 114.311 3.87788 113.844 4.01076 113.427C4.14453 113.005 4.34987 112.634 4.62677 112.314C4.90458 111.989 5.20747 111.713 5.53545 111.487C5.74468 111.343 6.0023 111.203 6.30832 111.067C6.61524 110.926 6.94781 110.845 7.30604 110.823C7.66709 110.799 8.03715 110.884 8.41623 111.077C8.79531 111.271 9.16066 111.628 9.51227 112.149L12.429 116.47L11.4281 117.161L10.8286 116.272L10.7777 116.308C10.8059 116.497 10.7956 116.727 10.7468 116.998C10.698 117.27 10.5805 117.553 10.3944 117.849C10.2083 118.144 9.92584 118.422 9.54697 118.683ZM9.08864 117.673C9.48448 117.4 9.76528 117.091 9.93103 116.748C10.0996 116.402 10.1696 116.057 10.141 115.714C10.1152 115.369 10.0101 115.06 9.82561 114.786L9.20307 113.864C9.19525 113.944 9.13364 114.056 9.01827 114.198C8.9038 114.335 8.76382 114.484 8.59835 114.644C8.43378 114.799 8.27153 114.949 8.1116 115.092C7.95258 115.231 7.82415 115.345 7.72632 115.433C7.48925 115.647 7.28356 115.87 7.10925 116.103C6.93584 116.331 6.83078 116.568 6.79407 116.815C6.75827 117.056 6.82683 117.305 6.99975 117.561C7.23609 117.912 7.54343 118.088 7.92177 118.089C8.30102 118.087 8.68997 117.948 9.08864 117.673Z" fill="white"/>
<path d="M15.0381 107.118L14.3217 108.003C14.1621 107.893 13.9787 107.806 13.7717 107.742C13.5655 107.673 13.3376 107.657 13.088 107.695C12.8384 107.732 12.5691 107.853 12.2801 108.057C11.8845 108.337 11.6183 108.661 11.4815 109.031C11.3456 109.396 11.3743 109.719 11.5676 109.998C11.7394 110.247 11.9649 110.38 12.2441 110.397C12.5232 110.415 12.8868 110.336 13.3347 110.163L14.4582 109.723C15.1338 109.456 15.7138 109.368 16.1983 109.459C16.6809 109.547 17.0793 109.818 17.3937 110.273C17.6515 110.646 17.7753 111.055 17.7651 111.499C17.7578 111.942 17.6234 112.382 17.3618 112.819C17.1002 113.256 16.7183 113.652 16.2161 114.006C15.5568 114.472 14.9115 114.713 14.2803 114.73C13.6491 114.747 13.0846 114.519 12.5868 114.047L13.3654 113.144C13.6974 113.43 14.0487 113.573 14.4195 113.572C14.793 113.569 15.1832 113.424 15.59 113.137C16.0529 112.81 16.3521 112.451 16.4876 112.061C16.6239 111.666 16.5954 111.329 16.402 111.049C16.2458 110.823 16.0364 110.69 15.7739 110.648C15.5094 110.603 15.188 110.658 14.8099 110.812L13.5568 111.318C12.8672 111.595 12.281 111.683 11.7982 111.582C11.3163 111.477 10.9201 111.2 10.6096 110.751C10.3557 110.383 10.2336 109.986 10.2431 109.559C10.2554 109.13 10.3841 108.709 10.6291 108.296C10.8769 107.881 11.2281 107.513 11.6826 107.192C12.3222 106.741 12.9221 106.527 13.4821 106.552C14.0449 106.575 14.5635 106.764 15.0381 107.118Z" fill="white"/>
<path d="M19.3879 108.012L18.5084 106.792L18.7095 106.648L19.5041 101.747L20.7276 100.871L19.8668 106.073L19.783 106.133L19.3879 108.012ZM20.1208 111.035L14.0694 102.392L15.0583 101.684L21.1096 110.328L20.1208 111.035ZM24.2103 108.109L19.4506 106.7L19.67 105.505L25.4673 107.21L24.2103 108.109Z" fill="white"/>
<path d="M32.8436 102.118C32.2629 102.534 31.6557 102.76 31.0222 102.795C30.3914 102.829 29.7777 102.683 29.181 102.359C28.5872 102.032 28.0556 101.534 27.5864 100.865C27.1132 100.19 26.8216 99.5137 26.7115 98.8363C26.6043 98.1568 26.6709 97.5219 26.9113 96.9314C27.1544 96.3389 27.5664 95.8346 28.1471 95.4185C28.7279 95.0025 29.3336 94.7776 29.9644 94.744C30.5979 94.7084 31.2126 94.8553 31.8085 95.1846C32.4071 95.512 32.943 96.0132 33.4162 96.6882C33.8855 97.3575 34.1727 98.0305 34.278 98.7072C34.386 99.3818 34.3185 100.015 34.0753 100.608C33.8349 101.198 33.4244 101.702 32.8436 102.118ZM32.2166 101.223C32.6578 100.907 32.9409 100.533 33.066 100.101C33.1911 99.6696 33.1919 99.2191 33.0684 98.7498C32.945 98.2806 32.7314 97.8294 32.4278 97.3963C32.1242 96.9632 31.7728 96.6086 31.3738 96.3326C30.9747 96.0566 30.552 95.9053 30.1055 95.8787C29.6591 95.8521 29.2153 95.9968 28.7741 96.3129C28.333 96.6289 28.0508 97.0043 27.9277 97.4389C27.8046 97.8736 27.8058 98.327 27.9312 98.799C28.0566 99.2711 28.2711 99.7237 28.5748 100.157C28.8784 100.59 29.2287 100.943 29.6258 101.216C30.0229 101.489 30.4437 101.638 30.8882 101.662C31.3327 101.686 31.7755 101.539 32.2166 101.223Z" fill="white"/>
<path d="M35.6012 90.2286L36.1894 91.0746L32.7121 93.5456L32.1238 92.6996L35.6012 90.2286ZM37.6831 98.4567L32.5418 91.0627C32.283 90.6905 32.1541 90.3186 32.1551 89.9471C32.1561 89.5756 32.2521 89.2293 32.443 88.9083C32.6339 88.5873 32.8834 88.3173 33.1913 88.0985C33.4349 87.9254 33.6474 87.8039 33.8289 87.7339C34.0103 87.664 34.1506 87.6191 34.2497 87.5992L34.5642 88.6651C34.502 88.6839 34.4173 88.7125 34.3101 88.7508C34.2056 88.7871 34.082 88.856 33.9392 88.9575C33.6116 89.1902 33.4329 89.4415 33.403 89.7114C33.3759 89.9792 33.4741 90.2739 33.6976 90.5953L38.6742 97.7524L37.6831 98.4567Z" fill="white"/>
<path d="M42.9234 88.9307L45.6003 92.8672L44.6019 93.5611L40.1519 87.0173L41.1165 86.347L41.8118 87.3694L41.8964 87.3106C41.8227 86.8725 41.8725 86.4448 42.0456 86.0275C42.2168 85.6074 42.5477 85.2268 43.0385 84.8858C43.4785 84.58 43.9253 84.4033 44.3789 84.3558C44.8306 84.3054 45.2727 84.3997 45.7051 84.6387C46.1357 84.8748 46.5403 85.2712 46.9188 85.8279L49.7464 89.9859L48.748 90.6798L45.9667 86.5899C45.6171 86.0758 45.2122 85.7675 44.752 85.6649C44.2899 85.5594 43.8276 85.6674 43.365 85.9889C43.0463 86.2104 42.8088 86.4779 42.6524 86.7915C42.4988 87.1032 42.4409 87.4425 42.4786 87.8094C42.5163 88.1764 42.6646 88.5501 42.9234 88.9307Z" fill="white"/>
<path d="M54.2976 87.0813C53.7062 87.482 53.0933 87.6919 52.459 87.7109C51.8275 87.7281 51.2177 87.5666 50.6297 87.2266C50.0445 86.8846 49.526 86.373 49.0743 85.6917C48.6188 85.0046 48.3449 84.3211 48.2526 83.641C48.1631 82.9591 48.2462 82.3261 48.5019 81.7422C48.7604 81.1563 49.1854 80.663 49.7769 80.2623C50.3683 79.8616 50.9798 79.6527 51.6113 79.6356C52.2456 79.6165 52.8563 79.7794 53.4434 80.1242C54.0334 80.4671 54.5561 80.9821 55.0116 81.6691C55.4633 82.3505 55.7329 83.0307 55.8205 83.7098C55.9109 84.3869 55.8269 85.0184 55.5683 85.6043C55.3126 86.1882 54.8891 86.6806 54.2976 87.0813ZM53.6941 86.1709C54.1434 85.8666 54.4362 85.5002 54.5725 85.0718C54.7088 84.6434 54.7213 84.1931 54.6102 83.7208C54.499 83.2485 54.2972 82.792 54.005 82.3511C53.7127 81.9103 53.3707 81.5467 52.9789 81.2603C52.5872 80.974 52.1685 80.8117 51.7228 80.7734C51.2772 80.7352 50.8297 80.8683 50.3804 81.1727C49.9311 81.4771 49.6393 81.8449 49.5049 82.2761C49.3705 82.7074 49.3598 83.1605 49.4729 83.6357C49.586 84.1108 49.7886 84.5688 50.0809 85.0097C50.3732 85.4505 50.7142 85.8127 51.1041 86.0962C51.494 86.3797 51.9108 86.5391 52.3545 86.5745C52.7983 86.6098 53.2448 86.4753 53.6941 86.1709Z" fill="white"/>
<path d="M57.3561 75.3256L57.9159 76.1907L54.4952 78.4528L53.9354 77.5877L57.3561 75.3256ZM53.9024 75.3366L54.9165 74.666L59.0143 80.9983C59.2009 81.2867 59.3823 81.4755 59.5587 81.5647C59.7361 81.6492 59.9065 81.6723 60.0701 81.6342C60.2346 81.5913 60.3913 81.5206 60.5403 81.4221C60.652 81.3482 60.74 81.2818 60.8041 81.2229C60.8664 81.1611 60.9162 81.1117 60.9536 81.0746L61.7533 81.8552C61.7013 81.9266 61.6221 82.016 61.5157 82.1234C61.4112 82.2337 61.2644 82.3514 61.0753 82.4765C60.7888 82.6659 60.4679 82.7896 60.1127 82.8475C59.7603 82.9034 59.4117 82.8642 59.067 82.7298C58.7252 82.5936 58.4293 82.3322 58.1792 81.9458L53.9024 75.3366Z" fill="white"/>
<path d="M65.6656 79.5664C65.0244 79.9789 64.3815 80.1923 63.7372 80.2066C63.0938 80.2162 62.4846 80.0446 61.9094 79.6917C61.3353 79.3342 60.8323 78.8124 60.4005 78.1264C59.9687 77.4404 59.7123 76.7559 59.6314 76.0729C59.5515 75.3851 59.643 74.7504 59.9059 74.1688C60.1699 73.5824 60.6023 73.096 61.2032 72.7095C61.5498 72.4865 61.9287 72.3244 62.3398 72.2233C62.751 72.1221 63.1776 72.1132 63.6196 72.1964C64.0597 72.2767 64.4966 72.4775 64.9302 72.7989C65.3638 73.1203 65.7774 73.5934 66.1708 74.2184L66.4452 74.6544L61.3151 77.9546L60.7552 77.0651L64.8454 74.4339C64.6076 74.056 64.3202 73.7672 63.9834 73.5673C63.6494 73.3656 63.2912 73.2672 62.9089 73.2723C62.5294 73.2755 62.1548 73.396 61.785 73.6338C61.3777 73.8958 61.0894 74.2243 60.9199 74.6191C60.7515 75.0092 60.6895 75.4167 60.7337 75.8416C60.7779 76.2664 60.9162 76.6634 61.1486 77.0326L61.5219 77.6255C61.8403 78.1313 62.1968 78.5043 62.5915 78.7445C62.9873 78.98 63.3988 79.0889 63.826 79.0713C64.2515 79.0509 64.6707 78.9078 65.0838 78.6421C65.3524 78.4692 65.5713 78.2754 65.7403 78.0604C65.9105 77.8407 66.0265 77.6027 66.0884 77.3465C66.1484 77.0873 66.1486 76.8136 66.0889 76.5253L67.2524 76.1688C67.3607 76.5729 67.3726 76.9818 67.2881 77.3956C67.2017 77.8064 67.0229 78.1992 66.7514 78.5739C66.4782 78.9457 66.1163 79.2765 65.6656 79.5664Z" fill="white"/>
<path d="M71.3847 69.7598L71.9728 70.7287L68.05 73.162L67.4619 72.1931L71.3847 69.7598Z" fill="white"/>
<path d="M74.4998 64.5763L75.0238 65.4636L71.5127 67.5826L70.9887 66.6953L74.4998 64.5763ZM71.048 64.4452L72.089 63.817L75.9244 70.3116C76.099 70.6073 76.2727 70.8034 76.4453 70.8998C76.6191 70.9915 76.7884 71.0216 76.9534 70.9903C77.1196 70.9542 77.2791 70.89 77.432 70.7977C77.5467 70.7285 77.6373 70.6658 77.7038 70.6096C77.7686 70.5504 77.8204 70.5031 77.8593 70.4676L78.6264 71.2803C78.5716 71.3495 78.4888 71.4356 78.3781 71.5385C78.2691 71.6444 78.1175 71.7559 77.9235 71.873C77.6294 72.0505 77.3037 72.1608 76.9463 72.204C76.5918 72.2455 76.2451 72.192 75.9061 72.0435C75.5701 71.8933 75.2851 71.62 75.051 71.2237L71.048 64.4452Z" fill="white"/>
<path d="M81.5957 69.7931C81.1625 70.0458 80.7226 70.1932 80.2759 70.2351C79.8276 70.2741 79.4101 70.1975 79.0236 70.0055C78.6354 69.8105 78.3136 69.4893 78.0582 69.0419C77.8334 68.6482 77.7283 68.284 77.7429 67.9494C77.7558 67.6119 77.8513 67.2977 78.0293 67.0069C78.2074 66.7161 78.4325 66.4455 78.7049 66.1952C78.9784 65.9401 79.262 65.6991 79.5556 65.4721C79.9403 65.1761 80.254 64.9393 80.4968 64.7619C80.7408 64.5797 80.9025 64.4197 80.982 64.2819C81.0645 64.1423 81.0572 63.9875 80.9601 63.8175L80.9397 63.7817C80.6876 63.3403 80.3716 63.0674 79.9917 62.963C79.6147 62.8569 79.1844 62.9449 78.7009 63.2271C78.1995 63.5196 77.8695 63.8593 77.7107 64.2462C77.5519 64.6331 77.4862 64.9856 77.5136 65.3037L76.3125 65.5274C76.252 65.0059 76.3037 64.5423 76.4675 64.1366C76.6326 63.7261 76.8653 63.3717 77.1655 63.0732C77.467 62.77 77.7898 62.5181 78.1339 62.3173C78.3535 62.1892 78.6209 62.0689 78.9364 61.9564C79.2531 61.8392 79.5909 61.7832 79.9499 61.7885C80.3118 61.792 80.6746 61.9044 81.0382 62.1257C81.4019 62.347 81.7395 62.7305 82.0512 63.2763L84.6364 67.8041L83.5862 68.4169L83.0549 67.4863L83.0015 67.5174C83.0154 67.7081 82.9879 67.9369 82.9188 68.2039C82.8498 68.4708 82.7114 68.7444 82.5036 69.0247C82.2958 69.305 81.9932 69.5611 81.5957 69.7931ZM81.2143 68.7511C81.6296 68.5088 81.9328 68.2225 82.124 67.8923C82.318 67.5603 82.4137 67.2222 82.4109 66.8779C82.411 66.5318 82.3294 66.2156 82.1659 65.9293L81.6141 64.9629C81.6003 65.0425 81.5305 65.1489 81.4047 65.2819C81.2802 65.4102 81.1294 65.5479 80.9524 65.6949C80.7766 65.8373 80.6035 65.9741 80.4332 66.1052C80.2642 66.2317 80.1276 66.3353 80.0234 66.416C79.7709 66.611 79.5489 66.8181 79.3576 67.0371C79.1675 67.2514 79.0449 67.48 78.9898 67.7229C78.936 67.9611 78.9857 68.2144 79.139 68.4828C79.3485 68.8497 79.6418 69.0483 80.0191 69.0787C80.3976 69.1044 80.796 68.9952 81.2143 68.7511Z" fill="white"/>
<path d="M85.9862 63.7252L85.248 62.4144L85.464 62.294L86.801 57.5148L88.1151 56.7824L86.6787 61.853L86.5887 61.9031L85.9862 63.7252ZM86.3775 66.8099L81.3257 57.5465L82.3878 56.9546L87.4396 66.218L86.3775 66.8099ZM90.7698 64.362L86.1949 62.4293L86.5465 61.2661L92.1199 63.6096L90.7698 64.362Z" fill="white"/>
<path d="M93.2984 62.9876L89.6128 55.9848L90.6836 55.4089L94.3692 62.4117L93.2984 62.9876ZM89.543 54.5248C89.3343 54.6371 89.1167 54.6624 88.8903 54.6009C88.6669 54.5378 88.5024 54.4059 88.3968 54.2053C88.2912 54.0047 88.2749 53.7931 88.348 53.5706C88.424 53.3464 88.5664 53.1781 88.7752 53.0659C88.9839 52.9536 89.1999 52.9291 89.4233 52.9922C89.6498 53.0537 89.8158 53.1848 89.9214 53.3854C90.0269 53.586 90.0417 53.7984 89.9656 54.0226C89.8926 54.2451 89.7517 54.4126 89.543 54.5248Z" fill="white"/>
<path d="M95.3984 56.4743L97.5466 60.7225L96.4664 61.2807L92.8954 54.2187L93.939 53.6795L94.4969 54.7829L94.5885 54.7356C94.5719 54.2918 94.6764 53.8744 94.902 53.4833C95.1261 53.0892 95.5036 52.755 96.0345 52.4806C96.5105 52.2346 96.9766 52.1175 97.4328 52.1291C97.8875 52.1378 98.3139 52.2885 98.7122 52.5814C99.1089 52.8713 99.4592 53.3166 99.763 53.9173L102.032 58.4046L100.952 58.9628L98.72 54.5491C98.4395 53.9943 98.0775 53.6362 97.6341 53.4749C97.1892 53.3104 96.7166 53.3575 96.2161 53.6161C95.8713 53.7943 95.6011 54.0286 95.4055 54.3192C95.2129 54.6081 95.1117 54.9369 95.1018 55.3054C95.0918 55.6739 95.1907 56.0636 95.3984 56.4743Z" fill="white"/>
<path d="M108.523 58.6934C107.994 58.9498 107.508 59.1021 107.063 59.15C106.619 59.2011 106.219 59.178 105.861 59.0807C105.507 58.985 105.197 58.8491 104.931 58.6728L105.511 57.6356C105.671 57.7179 105.867 57.8061 106.098 57.9001C106.331 57.9973 106.608 58.0442 106.929 58.0408C107.255 58.039 107.633 57.9339 108.063 57.7254C108.638 57.4464 109.046 57.0766 109.287 56.6159C109.528 56.1552 109.507 55.627 109.224 55.0313L108.535 53.5793L108.442 53.6243C108.423 53.7936 108.386 54.0105 108.329 54.2748C108.273 54.5346 108.144 54.8056 107.939 55.088C107.737 55.3658 107.404 55.6172 106.94 55.8422C106.365 56.1212 105.785 56.2351 105.198 56.1841C104.614 56.1315 104.065 55.9091 103.552 55.5169C103.042 55.1232 102.61 54.554 102.256 53.8094C101.908 53.0772 101.734 52.3774 101.732 51.71C101.729 51.0395 101.886 50.4443 102.202 49.9245C102.516 49.4016 102.973 48.9946 103.572 48.7037C104.036 48.4787 104.44 48.3778 104.786 48.4009C105.133 48.4195 105.426 48.4912 105.664 48.6162C105.904 48.7365 106.093 48.8393 106.232 48.9244L106.344 48.8704L105.804 47.7349L106.861 47.2219L110.353 54.5748C110.645 55.1891 110.743 55.7561 110.648 56.2758C110.557 56.7971 110.321 57.261 109.94 57.6674C109.564 58.0754 109.091 58.4174 108.523 58.6934ZM106.62 54.7836C107.059 54.5706 107.382 54.2898 107.589 53.9412C107.796 53.5925 107.888 53.1907 107.866 52.7357C107.844 52.2807 107.707 51.7895 107.457 51.2621C107.212 50.7471 106.919 50.3301 106.577 50.011C106.236 49.692 105.86 49.4943 105.452 49.4179C105.043 49.3415 104.616 49.4113 104.171 49.6273C103.707 49.8522 103.377 50.1576 103.18 50.5434C102.986 50.9277 102.906 51.3558 102.94 51.828C102.978 52.2986 103.111 52.7759 103.341 53.2599C103.577 53.7563 103.863 54.1578 104.198 54.4644C104.536 54.7664 104.909 54.9517 105.318 55.0204C105.729 55.0845 106.163 55.0056 106.62 54.7836Z" fill="white"/>
<path d="M113.65 51.2113L113.804 51.7529C113.912 52.1343 114.004 52.5536 114.078 53.0109C114.156 53.4668 114.218 53.9014 114.265 54.3146C114.312 54.7278 114.347 55.0582 114.368 55.3056L113.526 55.6941C113.476 55.475 113.409 55.186 113.327 54.8271C113.244 54.4682 113.143 54.0701 113.025 53.633C112.911 53.1975 112.781 52.7584 112.634 52.3156L112.452 51.7638L113.65 51.2113Z" fill="white"/>
<path d="M121.608 49.2393L116.376 42.8545L117.554 42.3595L121.435 47.3004L121.511 47.2685L120.765 41.0103L121.962 40.5073L125.797 45.4451L125.873 45.4132L125.153 39.1661L126.331 38.6711L127.118 46.9241L126.016 47.3871L122.108 42.4352L121.994 42.4831L122.71 48.7763L121.608 49.2393Z" fill="white"/>
<path d="M133.84 44.4449C133.129 44.7191 132.456 44.7982 131.821 44.6822C131.188 44.5617 130.625 44.2707 130.132 43.8094C129.64 43.3436 129.252 42.7315 128.965 41.9731C128.679 41.2146 128.565 40.4931 128.623 39.8084C128.682 39.1192 128.899 38.5166 129.273 38.0006C129.649 37.4801 130.171 37.0913 130.837 36.8344C131.222 36.6861 131.626 36.604 132.05 36.588C132.473 36.5721 132.893 36.6494 133.31 36.82C133.725 36.9874 134.114 37.2721 134.474 37.6741C134.835 38.0761 135.146 38.6226 135.407 39.3135L135.589 39.7956L129.897 41.9896L129.526 41.0062L134.064 39.2569C133.906 38.8392 133.682 38.4985 133.392 38.2349C133.105 37.9701 132.773 37.8016 132.397 37.7294C132.025 37.6559 131.633 37.6982 131.223 37.8563C130.771 38.0305 130.423 38.2937 130.177 38.6459C129.934 38.9936 129.792 39.3799 129.75 39.8045C129.708 40.2292 129.764 40.6456 129.918 41.0537L130.165 41.7093C130.376 42.2685 130.651 42.7054 130.99 43.0202C131.331 43.3304 131.713 43.5201 132.135 43.5892C132.557 43.655 132.996 43.5996 133.455 43.4229C133.753 43.308 134.006 43.1625 134.215 42.9863C134.426 42.8056 134.587 42.5962 134.699 42.3579C134.81 42.1164 134.865 41.8486 134.864 41.5544L136.077 41.4405C136.102 41.8577 136.032 42.2603 135.866 42.6481C135.699 43.0327 135.445 43.3809 135.104 43.6928C134.761 44.0015 134.34 44.2522 133.84 44.4449Z" fill="white"/>
<path d="M143.123 32.4722L143.456 33.4475L139.427 34.8512L139.095 33.8759L143.123 32.4722ZM142.855 40.9455L139.949 32.4217C139.803 31.9926 139.781 31.5999 139.885 31.2438C139.988 30.8876 140.176 30.5821 140.449 30.3272C140.721 30.0723 141.035 29.8826 141.392 29.7583C141.674 29.66 141.912 29.6025 142.106 29.5859C142.3 29.5692 142.448 29.5651 142.549 29.5736L142.557 30.6837C142.492 30.6845 142.402 30.6884 142.289 30.6953C142.178 30.7011 142.04 30.7328 141.875 30.7904C141.495 30.9227 141.254 31.1141 141.151 31.3646C141.051 31.6141 141.064 31.9241 141.19 32.2947L144.003 40.5455L142.855 40.9455Z" fill="white"/>
<path d="M147.332 39.4028L144.892 31.8747L146.007 31.5054L146.376 32.6425L146.454 32.6166C146.47 32.1987 146.62 31.8144 146.904 31.4637C147.187 31.1129 147.554 30.863 148.004 30.714C148.089 30.686 148.195 30.6525 148.323 30.6137C148.452 30.5748 148.549 30.5479 148.617 30.5328L148.998 31.7091C148.955 31.7122 148.861 31.7272 148.715 31.754C148.57 31.7765 148.421 31.8131 148.268 31.8639C147.903 31.9848 147.602 32.1696 147.365 32.4182C147.13 32.6624 146.972 32.946 146.893 33.269C146.816 33.5877 146.832 33.9169 146.942 34.2567L148.486 39.0206L147.332 39.4028Z" fill="white"/>
<path d="M155.499 36.9478C154.77 37.1728 154.093 37.2058 153.468 37.0467C152.844 36.8834 152.302 36.5549 151.84 36.0611C151.381 35.5631 151.034 34.9261 150.8 34.1501C150.565 33.3742 150.5 32.6468 150.603 31.9678C150.709 31.2845 150.966 30.6983 151.374 30.2091C151.785 29.7157 152.331 29.3635 153.014 29.1527C153.408 29.0311 153.817 28.9767 154.24 28.9897C154.664 29.0026 155.078 29.1083 155.483 29.3069C155.886 29.5023 156.254 29.8127 156.587 30.2382C156.921 30.6638 157.194 31.23 157.408 31.9368L157.557 32.43L151.728 34.2301L151.424 33.224L156.071 31.7888C155.942 31.3614 155.741 31.0064 155.469 30.7237C155.201 30.4401 154.881 30.2494 154.511 30.1517C154.144 30.053 153.75 30.0685 153.33 30.1982C152.867 30.3411 152.502 30.5799 152.233 30.9144C151.967 31.2446 151.799 31.6201 151.729 32.0408C151.658 32.4615 151.686 32.8806 151.813 33.2982L152.015 33.9689C152.188 34.541 152.433 34.9955 152.75 35.3325C153.07 35.6652 153.438 35.8804 153.855 35.9781C154.271 36.0725 154.714 36.0472 155.183 35.9022C155.488 35.808 155.751 35.6801 155.971 35.5186C156.194 35.3528 156.369 35.1549 156.497 34.9249C156.624 34.6916 156.697 34.4283 156.716 34.1348L157.933 34.1038C157.93 34.5217 157.833 34.9184 157.642 35.2939C157.449 35.666 157.172 35.996 156.811 36.2838C156.448 36.5683 156.011 36.7897 155.499 36.9478Z" fill="white"/>
<path d="M163.735 34.523C163.001 34.7295 162.323 34.7454 161.702 34.5706C161.082 34.3916 160.548 34.0495 160.099 33.5443C159.653 33.0348 159.322 32.3894 159.106 31.6078C158.891 30.8263 158.844 30.0975 158.964 29.4215C159.087 28.7412 159.358 28.1617 159.779 27.6831C160.201 27.2002 160.757 26.862 161.444 26.6685C161.841 26.5569 162.251 26.5129 162.675 26.5365C163.098 26.5602 163.509 26.6763 163.909 26.8851C164.307 27.0905 164.668 27.4101 164.99 27.8439C165.313 28.2776 165.572 28.8505 165.768 29.5625L165.905 30.0592L160.033 31.7112L159.754 30.6979L164.435 29.3807C164.317 28.9502 164.125 28.5903 163.86 28.3009C163.599 28.0106 163.284 27.8119 162.916 27.7049C162.551 27.597 162.158 27.6025 161.734 27.7216C161.268 27.8527 160.897 28.0821 160.62 28.4097C160.346 28.7331 160.168 29.1042 160.087 29.5229C160.007 29.9416 160.024 30.3613 160.14 30.7818L160.326 31.4574C160.485 32.0336 160.718 32.4941 161.027 32.839C161.338 33.1796 161.701 33.404 162.116 33.5122C162.529 33.617 162.972 33.6029 163.445 33.4699C163.753 33.3834 164.018 33.2622 164.243 33.1064C164.469 32.9463 164.65 32.7529 164.783 32.5262C164.916 32.2962 164.995 32.0348 165.021 31.742L166.24 31.7418C166.226 32.1594 166.119 32.5535 165.919 32.9239C165.717 33.2911 165.432 33.6139 165.063 33.8925C164.693 34.1677 164.251 34.3779 163.735 34.523Z" fill="white"/>
<path d="M177.058 27.4686L175.925 22.9296L177.104 22.6293L179.019 30.3075L177.841 30.6078L177.516 29.3081L177.436 29.3285C177.354 29.7642 177.157 30.1671 176.846 30.5371C176.534 30.9037 176.088 31.1608 175.509 31.3085C175.03 31.4306 174.578 31.4342 174.152 31.3193C173.726 31.201 173.354 30.9558 173.034 30.5835C172.714 30.2079 172.473 29.6935 172.31 29.0403L171.093 24.1614L172.271 23.8611L173.468 28.66C173.608 29.2199 173.875 29.6266 174.271 29.8801C174.671 30.1327 175.115 30.1967 175.604 30.072C175.897 29.9973 176.176 29.8464 176.442 29.6193C176.711 29.3913 176.909 29.096 177.038 28.7335C177.171 28.3701 177.177 27.9484 177.058 27.4686Z" fill="white"/>
<path d="M181.877 32.6546L179.414 22.0559L180.557 21.7845L180.841 23.009L180.982 22.9757C181.038 22.8212 181.118 22.622 181.224 22.3781C181.332 22.1301 181.512 21.8896 181.765 21.6566C182.02 21.4195 182.398 21.2414 182.9 21.1224C183.548 20.9685 184.157 20.9951 184.727 21.2022C185.297 21.4093 185.79 21.7776 186.206 22.3073C186.621 22.837 186.923 23.5066 187.111 24.3162C187.301 25.1326 187.327 25.8731 187.189 26.5378C187.05 27.1991 186.772 27.7521 186.357 28.1966C185.942 28.6377 185.413 28.9345 184.771 29.0868C184.277 29.2042 183.862 29.2163 183.526 29.123C183.19 29.0263 182.917 28.8916 182.708 28.7189C182.497 28.5429 182.333 28.395 182.213 28.2751L182.113 28.2989L183.06 32.3738L181.877 32.6546ZM181.472 25.6339C181.608 26.216 181.812 26.7093 182.086 27.1138C182.359 27.515 182.689 27.8021 183.074 27.9753C183.459 28.1451 183.889 28.1737 184.364 28.061C184.858 27.9436 185.241 27.7151 185.511 27.3756C185.784 27.032 185.952 26.6178 186.016 26.1332C186.082 25.6444 186.051 25.1257 185.924 24.577C185.798 24.035 185.601 23.5664 185.333 23.1712C185.067 22.7718 184.738 22.4846 184.344 22.3097C183.954 22.1306 183.508 22.1006 183.006 22.2196C182.525 22.3339 182.149 22.552 181.879 22.874C181.607 23.1926 181.438 23.5892 181.372 24.0638C181.305 24.5351 181.339 25.0584 181.472 25.6339Z" fill="white"/>
<path d="M195.275 18.4656L195.486 19.4742L191.475 20.3305L191.264 19.3218L195.275 18.4656ZM192.046 17.2164L193.235 16.9625L194.777 24.3457C194.847 24.6819 194.949 24.9237 195.081 25.071C195.216 25.2142 195.367 25.2979 195.534 25.3221C195.703 25.3421 195.875 25.3335 196.049 25.2963C196.18 25.2683 196.286 25.2386 196.368 25.2072C196.448 25.1725 196.512 25.1447 196.561 25.1239L197.026 26.1414C196.952 26.1888 196.845 26.2431 196.707 26.3042C196.57 26.3687 196.39 26.4246 196.169 26.4719C195.833 26.5436 195.488 26.5416 195.136 26.4659C194.787 26.3894 194.475 26.2259 194.202 25.9752C193.932 25.7238 193.75 25.3728 193.655 24.9223L192.046 17.2164Z" fill="white"/>
<path d="M201.535 25.4478C200.787 25.5947 200.11 25.5562 199.504 25.3322C198.9 25.1041 198.395 24.7204 197.987 24.1809C197.581 23.6374 197.302 22.9677 197.149 22.1717C196.996 21.3756 197.007 20.6456 197.18 19.9816C197.356 19.3135 197.672 18.7578 198.129 18.3146C198.589 17.8673 199.169 17.5748 199.87 17.4372C200.275 17.3578 200.687 17.3468 201.107 17.4043C201.527 17.4618 201.928 17.6106 202.31 17.8507C202.692 18.0873 203.026 18.4347 203.313 18.8928C203.601 19.3509 203.814 19.9426 203.953 20.6678L204.051 21.1737L198.065 22.349L197.867 21.3168L202.639 20.3798C202.555 19.9413 202.392 19.5673 202.15 19.2576C201.912 18.9473 201.614 18.7241 201.256 18.588C200.901 18.4512 200.508 18.4251 200.076 18.5098C199.601 18.6031 199.212 18.8019 198.911 19.1062C198.612 19.4064 198.405 19.7619 198.292 20.1727C198.179 20.5835 198.163 21.0031 198.245 21.4315L198.377 22.1196C198.49 22.7065 198.687 23.1841 198.968 23.5525C199.251 23.9169 199.595 24.1697 200 24.3107C200.404 24.4483 200.847 24.4699 201.329 24.3752C201.642 24.3137 201.917 24.2143 202.153 24.0769C202.392 23.9356 202.587 23.7573 202.738 23.5421C202.888 23.3236 202.988 23.0695 203.037 22.7798L204.252 22.8773C204.206 23.2924 204.068 23.6765 203.838 24.0295C203.608 24.3792 203.299 24.6781 202.909 24.9261C202.519 25.1707 202.061 25.3446 201.535 25.4478Z" fill="white"/>
<path d="M208.903 24.1001C208.409 24.1858 207.944 24.1704 207.51 24.054C207.075 23.9342 206.709 23.7171 206.412 23.4026C206.114 23.0847 205.922 22.6718 205.836 22.1639C205.76 21.7169 205.787 21.3393 205.915 21.0311C206.044 20.7196 206.242 20.4587 206.509 20.2485C206.776 20.0383 207.081 19.8634 207.423 19.7239C207.768 19.5804 208.118 19.4536 208.472 19.3434C208.935 19.2003 209.312 19.088 209.601 19.0064C209.893 18.9209 210.1 18.8275 210.222 18.7261C210.348 18.6242 210.394 18.4767 210.361 18.2837L210.354 18.2431C210.269 17.7419 210.066 17.3762 209.745 17.1461C209.427 16.9154 208.992 16.8478 208.441 16.9435C207.869 17.0427 207.442 17.2457 207.159 17.5526C206.877 17.8595 206.694 18.1667 206.61 18.474L205.404 18.2648C205.527 17.7555 205.735 17.3395 206.029 17.0167C206.325 16.6899 206.666 16.4391 207.05 16.2643C207.438 16.0855 207.828 15.9621 208.221 15.894C208.471 15.8506 208.764 15.8312 209.099 15.8358C209.437 15.8364 209.774 15.9018 210.11 16.0318C210.449 16.1613 210.751 16.393 211.017 16.7269C211.283 17.0608 211.468 17.5375 211.573 18.1572L212.445 23.2976L211.247 23.5053L211.068 22.4488L211.007 22.4594C210.955 22.6428 210.85 22.8474 210.693 23.0733C210.536 23.2992 210.312 23.5071 210.02 23.6971C209.729 23.8872 209.356 24.0215 208.903 24.1001ZM208.903 22.9916C209.376 22.9095 209.76 22.7471 210.053 22.5045C210.35 22.2613 210.556 21.9781 210.672 21.6547C210.791 21.3308 210.823 21.0063 210.768 20.6812L210.582 19.584C210.542 19.6538 210.439 19.729 210.275 19.8097C210.114 19.8865 209.925 19.9629 209.708 20.0388C209.494 20.1108 209.284 20.1786 209.079 20.2421C208.876 20.3016 208.712 20.3509 208.587 20.3901C208.282 20.4848 208.002 20.6013 207.747 20.7396C207.495 20.874 207.301 21.0454 207.165 21.2536C207.033 21.4578 206.993 21.7124 207.044 22.0171C207.115 22.4336 207.322 22.7219 207.666 22.8818C208.013 23.0377 208.426 23.0744 208.903 22.9916Z" fill="white"/>
<path d="M214.472 22.9381L213.389 15.099L214.552 14.9348L214.722 16.1597L214.824 16.1453C214.929 15.7037 215.148 15.3416 215.48 15.0589C215.811 14.7728 216.232 14.5937 216.742 14.5217C217.259 14.4487 217.705 14.5054 218.081 14.6917C218.46 14.8741 218.776 15.1608 219.027 15.552L219.109 15.5405C219.254 15.1073 219.51 14.7433 219.879 14.4484C220.246 14.1502 220.711 13.9615 221.272 13.8823C221.973 13.7834 222.576 13.922 223.082 14.298C223.588 14.6707 223.904 15.318 224.032 16.24L224.756 21.4865L223.552 21.6564L222.828 16.41C222.748 15.8316 222.533 15.4405 222.182 15.2368C221.832 15.033 221.442 14.9614 221.014 15.0219C220.463 15.0996 220.059 15.3266 219.802 15.7028C219.545 16.0755 219.451 16.5154 219.521 17.0223L220.226 22.1259L219.002 22.2987L218.26 16.9297C218.199 16.484 218.005 16.1455 217.678 15.9141C217.351 15.6793 216.96 15.5941 216.504 15.6584C216.191 15.7025 215.91 15.8272 215.661 16.0323C215.415 16.2369 215.23 16.499 215.104 16.8185C214.981 17.1342 214.946 17.4842 214.999 17.8687L215.676 22.7681L214.472 22.9381Z" fill="white"/>
<path d="M232.028 14.5521L230.973 14.9728C230.886 14.7988 230.768 14.6334 230.617 14.4764C230.469 14.3156 230.277 14.1906 230.04 14.1014C229.803 14.0121 229.509 13.9858 229.157 14.0224C228.675 14.0726 228.285 14.2255 227.987 14.4811C227.691 14.7328 227.561 15.0279 227.595 15.3662C227.626 15.6668 227.76 15.8929 227.996 16.0444C228.232 16.1959 228.589 16.3055 229.065 16.3733L230.263 16.5386C230.984 16.6362 231.535 16.8429 231.916 17.1589C232.296 17.4715 232.515 17.9029 232.571 18.453C232.617 18.904 232.528 19.3208 232.305 19.7032C232.085 20.0852 231.755 20.4028 231.314 20.6559C230.874 20.9089 230.348 21.0673 229.737 21.131C228.934 21.2147 228.252 21.1096 227.69 20.8159C227.128 20.5222 226.743 20.0477 226.535 19.3926L227.654 18.986C227.806 19.3983 228.045 19.6946 228.371 19.8747C228.7 20.0546 229.112 20.1187 229.607 20.0671C230.171 20.0083 230.606 19.8421 230.913 19.5684C231.224 19.2909 231.361 18.983 231.327 18.6448C231.299 18.3714 231.18 18.1524 230.97 17.9879C230.759 17.8198 230.451 17.7104 230.046 17.6594L228.702 17.4885C227.964 17.3928 227.408 17.1831 227.033 16.8596C226.661 16.5322 226.448 16.0969 226.392 15.5536C226.347 15.1094 226.432 14.7035 226.646 14.3358C226.864 13.9678 227.18 13.6638 227.594 13.4238C228.012 13.1835 228.497 13.0345 229.05 12.9769C229.829 12.8957 230.458 13.0029 230.937 13.2983C231.419 13.5934 231.783 14.0113 232.028 14.5521Z" fill="white"/>
<path d="M241.55 12.0865L241.612 13.115L237.519 13.3695L237.456 12.341L241.55 12.0865ZM238.534 10.3744L239.748 10.2989L240.206 17.8276C240.227 18.1704 240.292 18.4244 240.402 18.5897C240.515 18.7513 240.652 18.8563 240.813 18.9048C240.978 18.9496 241.149 18.9665 241.327 18.9554C241.461 18.9471 241.57 18.9334 241.655 18.9144C241.74 18.8919 241.807 18.8739 241.858 18.8604L242.171 19.9353C242.091 19.9713 241.978 20.0093 241.833 20.0493C241.687 20.0927 241.501 20.1215 241.275 20.1356C240.932 20.1569 240.592 20.1041 240.254 19.9771C239.919 19.8499 239.635 19.6422 239.4 19.3539C239.17 19.0655 239.04 18.6915 239.012 18.2321L238.534 10.3744Z" fill="white"/>
<path d="M246.528 19.9768C245.814 19.9985 245.182 19.8476 244.633 19.5241C244.088 19.2005 243.655 18.7377 243.334 18.1358C243.018 17.5338 242.847 16.8242 242.823 16.0071C242.798 15.1832 242.926 14.4594 243.207 13.8358C243.49 13.2121 243.895 12.7221 244.421 12.366C244.949 12.0097 245.571 11.8207 246.285 11.799C246.999 11.7773 247.629 11.9283 248.175 12.2519C248.724 12.5754 249.157 13.0399 249.474 13.6454C249.794 14.2507 249.967 14.9654 249.991 15.7893C250.015 16.6064 249.885 17.3251 249.602 17.9454C249.321 18.5656 248.916 19.0538 248.387 19.41C247.862 19.7662 247.242 19.9551 246.528 19.9768ZM246.496 18.8851C247.038 18.8686 247.48 18.716 247.822 18.4273C248.164 18.1385 248.412 17.765 248.567 17.3068C248.722 16.8485 248.791 16.355 248.776 15.8263C248.76 15.2976 248.661 14.8074 248.479 14.3559C248.298 13.9045 248.027 13.5433 247.669 13.2724C247.31 13.0015 246.86 12.8743 246.317 12.8908C245.775 12.9073 245.333 13.0616 244.991 13.3538C244.649 13.6459 244.401 14.0229 244.246 14.4846C244.092 14.9463 244.022 15.4415 244.038 15.9702C244.054 16.4989 244.152 16.9873 244.334 17.4354C244.516 17.8834 244.786 18.2412 245.144 18.5086C245.503 18.7761 245.953 18.9016 246.496 18.8851Z" fill="white"/>
<path d="M256.388 19.7387L256.806 9.19567L258.02 9.24482L257.866 13.1367L257.969 13.1409C258.064 13.0072 258.195 12.8372 258.361 12.6308C258.531 12.4211 258.768 12.2382 259.073 12.0821C259.382 11.9227 259.794 11.8534 260.309 11.8743C260.975 11.9012 261.555 12.0914 262.05 12.4448C262.544 12.7983 262.922 13.2862 263.183 13.9086C263.443 14.531 263.557 15.2575 263.524 16.0881C263.491 16.9255 263.32 17.6456 263.011 18.2484C262.702 18.8478 262.289 19.3054 261.771 19.6213C261.253 19.9338 260.665 20.0767 260.006 20.0501C259.498 20.0295 259.095 19.929 258.796 19.7485C258.497 19.5645 258.27 19.3611 258.114 19.1382C257.958 18.9119 257.838 18.7249 257.754 18.5771L257.61 18.5713L257.562 19.7862L256.388 19.7387ZM257.739 15.8334C257.715 16.4306 257.782 16.9609 257.939 17.4245C258.096 17.8846 258.338 18.2501 258.664 18.5211C258.99 18.7887 259.397 18.9323 259.884 18.952C260.392 18.9726 260.821 18.8559 261.172 18.6019C261.526 18.3447 261.797 17.9913 261.987 17.5418C262.18 17.089 262.288 16.5812 262.31 16.0183C262.332 15.4623 262.266 14.9578 262.112 14.5047C261.962 14.0483 261.72 13.6828 261.388 13.408C261.058 13.13 260.636 12.9806 260.121 12.9598C259.627 12.9398 259.207 13.0483 258.861 13.2852C258.515 13.5187 258.247 13.8551 258.058 14.2943C257.869 14.7301 257.762 15.2431 257.739 15.8334Z" fill="white"/>
<path d="M268.745 20.6703C267.986 20.596 267.347 20.3644 266.829 19.9755C266.315 19.5835 265.938 19.0704 265.698 18.4361C265.462 17.7987 265.383 17.0766 265.46 16.2697C265.538 15.4628 265.753 14.766 266.106 14.1794C266.462 13.5896 266.922 13.148 267.485 12.8545C268.052 12.558 268.69 12.4445 269.401 12.5141C269.812 12.5542 270.21 12.6622 270.597 12.8381C270.984 13.014 271.327 13.2719 271.625 13.6117C271.924 13.9481 272.147 14.3772 272.294 14.8988C272.441 15.4205 272.479 16.0489 272.409 16.784L272.36 17.2968L266.289 16.7027L266.389 15.6565L271.229 16.1302C271.272 15.6857 271.221 15.2804 271.076 14.9143C270.935 14.5485 270.712 14.2488 270.407 14.0153C270.105 13.7821 269.735 13.6441 269.297 13.6013C268.815 13.5542 268.387 13.633 268.012 13.8379C267.641 14.0397 267.343 14.3211 267.119 14.6823C266.894 15.0434 266.761 15.441 266.72 15.8753L266.653 16.5727C266.596 17.1677 266.65 17.682 266.816 18.1158C266.985 18.5465 267.244 18.8876 267.592 19.1391C267.941 19.3872 268.36 19.5352 268.849 19.583C269.167 19.6141 269.458 19.5978 269.723 19.534C269.992 19.4671 270.229 19.3522 270.434 19.1894C270.64 19.0232 270.807 18.8083 270.936 18.5449L272.073 18.9875C271.912 19.3721 271.672 19.7006 271.353 19.973C271.034 20.242 270.653 20.4394 270.209 20.5651C269.766 20.6874 269.278 20.7225 268.745 20.6703Z" fill="white"/>
<rect x="-274.011" y="0.125" width="820.021" height="407.875" fill="url(#paint1_linear_304_1967)"/>
<path d="M-229.591 141.346C-214.172 129.205 -158.448 103.362 -94.8976 123.299C-15.4599 148.221 -7.37453 211.995 115.047 177.65C249.906 139.817 326.591 9.5327 410.503 96.6971C486.981 176.14 353.151 245.076 328.542 166.624C304.958 91.436 434.066 -11.6972 503.449 -52.2744" stroke="url(#paint2_radial_304_1967)" stroke-width="26.775"/>
<path d="M0.589384 171.366L-0.641733 171.143C-0.621467 170.929 -0.636001 170.705 -0.685333 170.47C-0.7296 170.233 -0.836457 170.004 -1.0059 169.782C-1.17535 169.56 -1.43518 169.363 -1.78539 169.191C-2.2648 168.956 -2.71844 168.871 -3.1463 168.936C-3.5691 168.998 -3.86293 169.198 -4.02781 169.535C-4.17436 169.834 -4.18131 170.123 -4.04864 170.403C-3.91597 170.683 -3.64674 170.994 -3.24095 171.337L-2.21802 172.192C-1.60087 172.705 -1.20636 173.221 -1.03449 173.739C-0.860951 174.254 -0.908249 174.785 -1.17638 175.333C-1.39622 175.781 -1.72194 176.119 -2.15355 176.346C-2.58176 176.575 -3.07533 176.679 -3.63427 176.658C-4.19321 176.637 -4.77699 176.478 -5.3856 176.18C-6.18462 175.788 -6.761 175.291 -7.11475 174.688C-7.46849 174.085 -7.55185 173.416 -7.36483 172.681L-6.0825 172.955C-6.18021 173.43 -6.12939 173.847 -5.93004 174.206C-5.72729 174.566 -5.3794 174.868 -4.88639 175.109C-4.32538 175.384 -3.82167 175.483 -3.37529 175.407C-2.92383 175.328 -2.61567 175.121 -2.45079 174.784C-2.31756 174.512 -2.30118 174.238 -2.40165 173.961C-2.50046 173.681 -2.72458 173.398 -3.07403 173.113L-4.22977 172.168C-4.86392 171.646 -5.26187 171.125 -5.42361 170.603C-5.58028 170.079 -5.52622 169.547 -5.26142 169.006C-5.04491 168.564 -4.72929 168.234 -4.31454 168.016C-3.89639 167.799 -3.42394 167.699 -2.8972 167.717C-2.36706 167.736 -1.82659 167.881 -1.27577 168.151C-0.500551 168.53 0.0247942 168.999 0.300264 169.555C0.579134 170.113 0.675507 170.717 0.589384 171.366Z" fill="white"/>
<path d="M-1.84361 181.304L2.74237 170.221L3.93882 170.716L3.409 171.996L3.55593 172.057C3.7048 171.955 3.90457 171.829 4.15524 171.678C4.41086 171.526 4.72632 171.427 5.10161 171.382C5.48185 171.334 5.93435 171.419 6.45911 171.636C7.13779 171.917 7.66581 172.334 8.04315 172.888C8.4205 173.441 8.62552 174.089 8.65821 174.832C8.6909 175.575 8.53209 176.37 8.18177 177.217C7.82856 178.07 7.37721 178.75 6.82772 179.256C6.27969 179.759 5.6776 180.075 5.02148 180.205C4.3668 180.331 3.70361 180.256 3.03192 179.978C2.51416 179.764 2.13507 179.506 1.89464 179.206C1.65567 178.902 1.49782 178.606 1.42109 178.316C1.34582 178.022 1.2931 177.783 1.26294 177.599L1.15799 177.555L-0.605183 181.816L-1.84361 181.304ZM2.29218 174.755C2.0403 175.364 1.9073 175.938 1.89319 176.477C1.88052 177.012 1.99133 177.482 2.2256 177.886C2.46132 178.287 2.82756 178.59 3.32434 178.796C3.8421 179.01 4.3306 179.052 4.78986 178.923C5.25405 178.791 5.66988 178.529 6.03733 178.136C6.40972 177.741 6.71462 177.257 6.95203 176.683C7.18654 176.116 7.31043 175.569 7.3237 175.042C7.34191 174.513 7.23111 174.043 6.99129 173.632C6.75641 173.22 6.3766 172.905 5.85184 172.688C5.34807 172.479 4.87193 172.432 4.42341 172.545C3.97634 172.655 3.57126 172.902 3.20815 173.284C2.84649 173.663 2.54117 174.153 2.29218 174.755Z" fill="white"/>
<path d="M11.4873 183.096C10.7387 182.851 10.14 182.459 9.6913 181.918C9.24619 181.378 8.96987 180.736 8.86234 179.992C8.7584 179.25 8.84628 178.45 9.12597 177.593C9.40802 176.729 9.81078 176.027 10.3343 175.485C10.8613 174.944 11.4638 174.587 12.1416 174.414C12.8229 174.242 13.5379 174.278 14.2866 174.523C15.0352 174.767 15.632 175.159 16.0771 175.699C16.5258 176.24 16.8016 176.883 16.9043 177.63C17.0107 178.378 16.9228 179.183 16.6408 180.047C16.3611 180.904 15.9583 181.6 15.4324 182.138C14.9101 182.676 14.3083 183.031 13.6269 183.203C12.9491 183.376 12.2359 183.34 11.4873 183.096ZM11.861 181.951C12.4296 182.137 12.9451 182.144 13.4074 181.972C13.8697 181.801 14.2666 181.506 14.598 181.089C14.9295 180.671 15.1858 180.185 15.3667 179.631C15.5477 179.077 15.6282 178.531 15.6081 177.995C15.5881 177.459 15.4427 176.983 15.1719 176.568C14.9012 176.153 14.4815 175.853 13.9128 175.667C13.3442 175.482 12.8281 175.476 12.3647 175.652C11.9012 175.827 11.5031 176.125 11.1705 176.546C10.8378 176.967 10.581 177.455 10.4 178.009C10.2191 178.563 10.1392 179.107 10.1604 179.64C10.1816 180.172 10.3282 180.644 10.6001 181.056C10.872 181.467 11.2923 181.766 11.861 181.951Z" fill="white"/>
<path d="M19.3442 181.908L19.7131 180.291L19.9781 180.355L24.6026 177.48L26.2142 177.871L21.2932 180.908L21.1828 180.881L19.3442 181.908ZM17.3803 184.704L20.1224 173.401L21.4249 173.717L18.6827 185.02L17.3803 184.704ZM22.7668 186.011L20.473 181.013L21.6198 180.333L24.4225 186.413L22.7668 186.011Z" fill="white"/>
<path d="M28.6856 187.312C27.8569 187.171 27.1731 186.867 26.6342 186.399C26.0997 185.928 25.7261 185.335 25.5135 184.619C25.3052 183.9 25.2758 183.1 25.4253 182.219C25.5747 181.338 25.867 180.589 26.302 179.972C26.7414 179.351 27.2823 178.902 27.9249 178.623C28.5718 178.341 29.2834 178.266 30.0598 178.398C30.5078 178.474 30.9374 178.623 31.3488 178.847C31.7602 179.07 32.1166 179.38 32.4179 179.777C32.7199 180.17 32.9307 180.659 33.0504 181.244C33.17 181.828 33.1618 182.522 33.0256 183.325L32.9306 183.885L26.3013 182.76L26.4951 181.617L31.7806 182.514C31.863 182.029 31.8394 181.58 31.7099 181.166C31.5841 180.753 31.3626 180.406 31.0454 180.126C30.7319 179.846 30.3362 179.666 29.8584 179.585C29.3321 179.495 28.8546 179.549 28.4258 179.745C28.0013 179.938 27.6513 180.224 27.3757 180.603C27.1001 180.983 26.9221 181.41 26.8416 181.884L26.7124 182.645C26.6022 183.295 26.6208 183.864 26.7681 184.354C26.9198 184.84 27.1773 185.235 27.5405 185.539C27.9044 185.839 28.3532 186.034 28.887 186.125C29.2341 186.184 29.5559 186.188 29.8523 186.139C30.1531 186.086 30.4229 185.978 30.6618 185.815C30.9013 185.648 31.1024 185.425 31.265 185.146L32.4808 185.721C32.273 186.131 31.9825 186.473 31.6095 186.748C31.2371 187.019 30.8021 187.206 30.3045 187.31C29.8075 187.41 29.2679 187.41 28.6856 187.312Z" fill="white"/>
<path d="M35.8122 182.856L35.2955 188.078L33.9618 187.946L34.8207 179.266L36.1093 179.393L35.9751 180.749L36.0881 180.761C36.3352 180.34 36.6792 180.016 37.1201 179.79C37.5614 179.56 38.1098 179.477 38.7654 179.542C39.3531 179.6 39.8555 179.771 40.2724 180.056C40.6897 180.337 40.9968 180.733 41.1936 181.243C41.3908 181.75 41.4529 182.372 41.3798 183.11L40.834 188.626L39.5002 188.494L40.0371 183.069C40.1046 182.387 39.98 181.838 39.6635 181.423C39.3474 181.003 38.8804 180.763 38.2625 180.702C37.8368 180.66 37.4471 180.714 37.0935 180.866C36.7437 181.018 36.4552 181.261 36.228 181.596C36.0008 181.931 35.8622 182.351 35.8122 182.856Z" fill="white"/>
<path d="M44.5114 188.904C44.2315 188.89 43.9963 188.779 43.8056 188.568C43.6149 188.358 43.5264 188.113 43.5401 187.833C43.5537 187.553 43.6656 187.318 43.8758 187.128C44.086 186.937 44.331 186.848 44.6108 186.862C44.8907 186.876 45.1259 186.988 45.3166 187.198C45.5072 187.408 45.5957 187.653 45.5821 187.933C45.5731 188.118 45.5175 188.286 45.4154 188.436C45.3171 188.587 45.1881 188.706 45.0285 188.793C44.8728 188.876 44.7004 188.913 44.5114 188.904Z" fill="white"/>
<path d="M61.813 177.174L62.1438 188.8L60.7813 188.839L54.1863 179.891L54.0728 179.894L54.3325 189.023L52.9246 189.063L52.5939 177.437L53.9563 177.398L60.5747 186.368L60.6882 186.365L60.4278 177.214L61.813 177.174Z" fill="white"/>
<path d="M68.4148 188.504C67.63 188.569 66.926 188.438 66.3029 188.114C65.6835 187.788 65.1802 187.304 64.793 186.659C64.4095 186.015 64.1809 185.243 64.1071 184.345C64.0326 183.44 64.1318 182.636 64.4046 181.933C64.6811 181.23 65.0983 180.668 65.6563 180.246C66.218 179.824 66.8913 179.58 67.6761 179.516C68.461 179.451 69.1631 179.582 69.7824 179.907C70.4055 180.232 70.909 180.719 71.2928 181.367C71.6803 182.015 71.9113 182.792 71.9858 183.698C72.0596 184.596 71.9581 185.394 71.6812 186.093C71.4081 186.792 70.9907 187.352 70.429 187.774C69.8711 188.196 69.1997 188.44 68.4148 188.504ZM68.3162 187.304C68.9124 187.255 69.3904 187.062 69.7501 186.725C70.1099 186.387 70.3618 185.962 70.5057 185.449C70.6497 184.936 70.6978 184.388 70.65 183.807C70.6023 183.226 70.4653 182.692 70.2392 182.206C70.013 181.719 69.6948 181.337 69.2845 181.059C68.8742 180.781 68.3709 180.667 67.7747 180.716C67.1786 180.765 66.7007 180.96 66.3413 181.301C65.9818 181.642 65.7303 182.071 65.5866 182.588C65.443 183.105 65.3951 183.654 65.4428 184.235C65.4906 184.816 65.6274 185.348 65.8532 185.831C66.079 186.314 66.3969 186.693 66.8069 186.967C67.2169 187.241 67.72 187.353 68.3162 187.304Z" fill="white"/>
<path d="M77.3919 187.593C76.6703 187.68 76.0111 187.576 75.4144 187.278C74.8171 186.977 74.3219 186.511 73.9287 185.88C73.5351 185.245 73.2826 184.469 73.1712 183.552C73.0607 182.642 73.1208 181.834 73.3515 181.127C73.5822 180.42 73.9536 179.851 74.4656 179.419C74.9775 178.986 75.5981 178.726 76.3272 178.637C76.891 178.569 77.3478 178.609 77.6976 178.757C78.0507 178.901 78.3281 179.081 78.5297 179.297C78.7347 179.508 78.8951 179.683 79.0111 179.822L79.1238 179.808L78.6062 175.546L79.9367 175.384L81.339 186.93L80.0536 187.087L79.892 185.756L79.7341 185.775C79.6556 185.945 79.5407 186.161 79.3895 186.423C79.2379 186.682 79.0062 186.926 78.6945 187.154C78.3824 187.379 77.9482 187.525 77.3919 187.593ZM77.4272 186.376C77.9609 186.311 78.395 186.117 78.7296 185.794C79.0637 185.468 79.2964 185.045 79.4279 184.525C79.5588 184.002 79.5846 183.414 79.5052 182.76C79.4267 182.113 79.264 181.559 79.0172 181.097C78.7699 180.631 78.4457 180.285 78.0445 180.059C77.6429 179.83 77.1714 179.748 76.6302 179.814C76.0665 179.882 75.6142 180.084 75.2735 180.419C74.9361 180.75 74.7034 181.173 74.5752 181.688C74.4504 182.199 74.425 182.759 74.4989 183.368C74.5738 183.984 74.7358 184.533 74.9849 185.013C75.2372 185.49 75.5675 185.854 75.9757 186.106C76.3871 186.353 76.8709 186.443 77.4272 186.376Z" fill="white"/>
<path d="M86.5812 186.355C86.035 186.441 85.5233 186.415 85.046 186.279C84.5682 186.139 84.1677 185.893 83.8445 185.541C83.5207 185.185 83.315 184.727 83.2274 184.166C83.1503 183.672 83.185 183.257 83.3317 182.92C83.4777 182.579 83.6997 182.295 83.9977 182.068C84.2957 181.842 84.6343 181.655 85.0137 181.507C85.3962 181.356 85.7835 181.222 86.1755 181.108C86.6887 180.958 87.1054 180.842 87.4256 180.757C87.7489 180.668 87.9787 180.569 88.1149 180.46C88.2548 180.35 88.3082 180.188 88.2749 179.975L88.2678 179.93C88.1814 179.376 87.9627 178.97 87.6118 178.711C87.2647 178.451 86.7862 178.368 86.1765 178.463C85.5443 178.562 85.0703 178.778 84.7544 179.111C84.4385 179.444 84.2321 179.779 84.1353 180.116L82.8083 179.863C82.951 179.304 83.1866 178.85 83.5151 178.5C83.8468 178.145 84.2261 177.875 84.6531 177.69C85.0833 177.5 85.5154 177.371 85.9493 177.303C86.2261 177.26 86.5494 177.244 86.919 177.255C87.2918 177.262 87.6623 177.34 88.0305 177.49C88.4024 177.639 88.7324 177.899 89.0206 178.272C89.3087 178.645 89.5062 179.173 89.6131 179.858L90.4998 185.536L89.1756 185.743L88.9934 184.576L88.926 184.587C88.8655 184.788 88.7471 185.011 88.5709 185.257C88.3947 185.503 88.1444 185.728 87.8198 185.932C87.4953 186.136 87.0824 186.277 86.5812 186.355ZM86.5974 185.134C87.1211 185.052 87.5465 184.881 87.8734 184.619C88.2042 184.356 88.4358 184.048 88.5682 183.694C88.7044 183.339 88.7445 182.983 88.6884 182.623L88.4992 181.411C88.4536 181.488 88.3398 181.569 88.1578 181.654C87.9789 181.736 87.7692 181.817 87.5288 181.896C87.2915 181.972 87.0592 182.043 86.8319 182.109C86.6078 182.17 86.4262 182.222 86.287 182.263C85.9498 182.361 85.6395 182.485 85.356 182.632C85.0757 182.776 84.8594 182.961 84.707 183.188C84.5578 183.41 84.5095 183.69 84.5621 184.027C84.634 184.487 84.8585 184.808 85.2357 184.99C85.6161 185.169 86.07 185.217 86.5974 185.134Z" fill="white"/>
<path d="M98.9321 184.014L94.5985 175.99L95.979 175.711L99.1504 181.884L99.2395 181.866L99.742 174.95L101.145 174.667L104.267 180.826L104.356 180.808L104.885 173.911L106.266 173.631L105.389 182.708L104.098 182.969L100.9 176.779L100.766 176.806L100.224 183.752L98.9321 184.014Z" fill="white"/>
<path d="M112.313 181.385C111.774 181.509 111.262 181.52 110.776 181.418C110.29 181.312 109.873 181.095 109.525 180.767C109.177 180.436 108.94 179.993 108.812 179.439C108.7 178.952 108.706 178.535 108.828 178.189C108.949 177.838 109.151 177.54 109.432 177.292C109.713 177.045 110.038 176.835 110.405 176.661C110.776 176.482 111.153 176.322 111.536 176.179C112.037 175.994 112.445 175.848 112.758 175.741C113.074 175.63 113.296 175.515 113.425 175.396C113.556 175.276 113.598 175.111 113.55 174.901L113.539 174.856C113.414 174.31 113.167 173.92 112.799 173.687C112.434 173.452 111.951 173.404 111.349 173.542C110.726 173.685 110.268 173.934 109.977 174.289C109.685 174.643 109.503 174.992 109.431 175.335L108.089 175.177C108.192 174.61 108.394 174.14 108.697 173.767C109.003 173.39 109.362 173.093 109.775 172.878C110.191 172.658 110.612 172.499 111.04 172.401C111.313 172.338 111.635 172.299 112.004 172.284C112.377 172.265 112.752 172.316 113.13 172.439C113.511 172.561 113.859 172.798 114.173 173.149C114.486 173.501 114.721 174.014 114.876 174.689L116.164 180.29L114.858 180.59L114.593 179.439L114.526 179.455C114.48 179.659 114.378 179.891 114.22 180.149C114.062 180.406 113.828 180.648 113.519 180.875C113.209 181.101 112.808 181.271 112.313 181.385ZM112.243 180.166C112.759 180.047 113.171 179.846 113.479 179.561C113.79 179.276 113.999 178.952 114.106 178.59C114.217 178.226 114.232 177.867 114.15 177.513L113.875 176.318C113.835 176.397 113.728 176.486 113.552 176.584C113.379 176.678 113.176 176.774 112.942 176.87C112.71 176.962 112.484 177.049 112.262 177.131C112.043 177.209 111.865 177.273 111.729 177.324C111.4 177.446 111.099 177.591 110.827 177.758C110.557 177.921 110.355 178.121 110.219 178.359C110.086 178.591 110.057 178.873 110.134 179.206C110.238 179.659 110.485 179.964 110.874 180.119C111.266 180.27 111.722 180.286 112.243 180.166Z" fill="white"/>
<path d="M122.697 171.704L121.611 172.325C121.489 172.149 121.333 171.987 121.144 171.839C120.958 171.686 120.729 171.579 120.456 171.518C120.184 171.457 119.858 171.474 119.48 171.568C118.961 171.697 118.56 171.924 118.274 172.249C117.99 172.569 117.894 172.911 117.985 173.275C118.065 173.598 118.246 173.824 118.528 173.953C118.81 174.082 119.216 174.146 119.747 174.147L121.08 174.143C121.883 174.138 122.516 174.279 122.982 174.565C123.446 174.848 123.752 175.285 123.899 175.876C124.02 176.361 123.988 176.829 123.804 177.281C123.623 177.732 123.312 178.129 122.871 178.473C122.43 178.817 121.881 179.07 121.223 179.234C120.36 179.449 119.598 179.439 118.939 179.205C118.28 178.971 117.786 178.513 117.456 177.83L118.614 177.215C118.845 177.641 119.152 177.927 119.536 178.074C119.923 178.219 120.383 178.226 120.916 178.093C121.522 177.942 121.971 177.694 122.264 177.348C122.559 176.998 122.661 176.641 122.571 176.277C122.498 175.983 122.333 175.762 122.078 175.615C121.822 175.464 121.469 175.392 121.018 175.399L119.525 175.419C118.704 175.429 118.064 175.286 117.604 174.99C117.147 174.69 116.846 174.248 116.7 173.664C116.582 173.187 116.611 172.731 116.787 172.297C116.968 171.862 117.265 171.481 117.68 171.156C118.098 170.829 118.605 170.592 119.2 170.444C120.037 170.236 120.741 170.256 121.31 170.504C121.883 170.752 122.345 171.152 122.697 171.704Z" fill="white"/>
<path d="M131.495 176.4L128.361 165.199L129.652 164.838L130.809 168.973L130.918 168.942C130.972 168.77 131.051 168.547 131.156 168.274C131.263 167.996 131.45 167.724 131.717 167.456C131.987 167.184 132.395 166.972 132.942 166.819C133.65 166.621 134.323 166.623 134.961 166.826C135.6 167.029 136.161 167.412 136.645 167.977C137.13 168.541 137.495 169.264 137.742 170.147C137.991 171.036 138.055 171.85 137.935 172.587C137.814 173.321 137.536 173.941 137.1 174.448C136.663 174.952 136.094 175.302 135.394 175.498C134.854 175.649 134.397 175.68 134.023 175.592C133.647 175.501 133.34 175.365 133.101 175.184C132.86 174.999 132.671 174.844 132.534 174.717L132.381 174.76L132.742 176.051L131.495 176.4ZM131.588 171.845C131.766 172.479 132.016 173.013 132.337 173.446C132.658 173.875 133.035 174.176 133.469 174.35C133.902 174.519 134.377 174.532 134.895 174.387C135.434 174.236 135.845 173.968 136.126 173.583C136.41 173.193 136.575 172.73 136.622 172.194C136.671 171.653 136.612 171.084 136.445 170.486C136.28 169.895 136.04 169.388 135.725 168.965C135.413 168.538 135.035 168.236 134.593 168.061C134.154 167.881 133.661 167.868 133.114 168.021C132.589 168.168 132.185 168.424 131.902 168.791C131.618 169.153 131.451 169.597 131.401 170.122C131.351 170.643 131.413 171.217 131.588 171.845Z" fill="white"/>
<path d="M144.276 172.856C143.524 173.091 142.809 173.119 142.13 172.939C141.454 172.758 140.856 172.396 140.337 171.853C139.821 171.308 139.428 170.606 139.158 169.746C138.887 168.879 138.806 168.073 138.918 167.328C139.033 166.582 139.316 165.941 139.768 165.407C140.223 164.872 140.826 164.486 141.577 164.25C142.329 164.015 143.042 163.987 143.718 164.168C144.397 164.348 144.996 164.712 145.513 165.26C146.033 165.807 146.43 166.514 146.702 167.381C146.971 168.241 147.048 169.042 146.932 169.785C146.819 170.526 146.535 171.165 146.08 171.701C145.629 172.235 145.027 172.62 144.276 172.856ZM143.916 171.707C144.486 171.528 144.91 171.234 145.187 170.826C145.464 170.418 145.616 169.948 145.643 169.415C145.671 168.883 145.597 168.338 145.423 167.782C145.248 167.226 144.997 166.735 144.669 166.31C144.342 165.885 143.947 165.582 143.486 165.402C143.024 165.221 142.508 165.22 141.938 165.399C141.367 165.578 140.944 165.874 140.668 166.285C140.392 166.697 140.241 167.171 140.215 167.707C140.189 168.243 140.263 168.789 140.437 169.345C140.612 169.902 140.862 170.391 141.189 170.812C141.515 171.233 141.909 171.533 142.369 171.71C142.829 171.887 143.345 171.886 143.916 171.707Z" fill="white"/>
<path d="M149.87 170.858L147.052 162.603L148.278 162.184L148.703 163.431L148.789 163.402C148.8 162.942 148.96 162.518 149.267 162.129C149.574 161.74 149.975 161.461 150.47 161.292C150.563 161.26 150.68 161.222 150.821 161.178C150.962 161.134 151.069 161.104 151.143 161.086L151.584 162.376C151.537 162.38 151.433 162.398 151.272 162.429C151.113 162.455 150.949 162.497 150.78 162.554C150.379 162.691 150.05 162.898 149.792 163.174C149.536 163.445 149.367 163.759 149.285 164.115C149.205 164.466 149.228 164.828 149.355 165.201L151.139 170.425L149.87 170.858Z" fill="white"/>
<path d="M155.08 163.493L156.898 168.415L155.64 168.88L152.619 160.696L153.834 160.248L154.306 161.527L154.413 161.487C154.451 161.001 154.619 160.559 154.917 160.163C155.213 159.763 155.67 159.449 156.288 159.221C156.842 159.016 157.369 158.951 157.868 159.025C158.366 159.095 158.816 159.317 159.216 159.69C159.614 160.059 159.942 160.592 160.199 161.288L162.119 166.488L160.861 166.952L158.973 161.838C158.736 161.195 158.384 160.756 157.918 160.52C157.45 160.281 156.925 160.269 156.343 160.484C155.941 160.632 155.615 160.852 155.363 161.142C155.115 161.432 154.961 161.777 154.904 162.178C154.846 162.578 154.905 163.017 155.08 163.493Z" fill="white"/>
<path d="M168.987 154.314L169.422 155.363L165.078 157.164L164.643 156.115L168.987 154.314ZM169.285 163.633L165.483 154.463C165.292 154.001 165.241 153.572 165.33 153.174C165.419 152.776 165.605 152.429 165.887 152.131C166.17 151.834 166.503 151.605 166.888 151.446C167.192 151.32 167.451 151.241 167.664 151.211C167.876 151.18 168.038 151.166 168.15 151.169L168.237 152.387C168.166 152.392 168.067 152.402 167.942 152.417C167.821 152.43 167.671 152.474 167.493 152.548C167.083 152.718 166.831 152.943 166.734 153.225C166.641 153.505 166.678 153.845 166.843 154.244L170.523 163.12L169.285 163.633Z" fill="white"/>
<path d="M174.11 161.608L170.623 153.612L171.81 153.095L172.336 154.303L172.42 154.266C172.393 153.807 172.517 153.371 172.791 152.958C173.065 152.545 173.442 152.234 173.921 152.026C174.011 151.986 174.125 151.939 174.261 151.883C174.398 151.828 174.503 151.788 174.575 151.765L175.12 153.014C175.074 153.022 174.972 153.048 174.813 153.092C174.657 153.132 174.497 153.187 174.334 153.258C173.946 153.427 173.634 153.66 173.4 153.956C173.167 154.248 173.025 154.574 172.972 154.936C172.921 155.293 172.974 155.652 173.132 156.013L175.338 161.073L174.11 161.608Z" fill="white"/>
<path d="M182.666 157.976C181.952 158.309 181.247 158.43 180.55 158.341C179.856 158.25 179.216 157.969 178.63 157.498C178.047 157.026 177.566 156.381 177.186 155.564C176.803 154.74 176.618 153.952 176.631 153.198C176.647 152.443 176.844 151.771 177.222 151.182C177.603 150.592 178.15 150.131 178.864 149.799C179.578 149.467 180.282 149.346 180.976 149.437C181.673 149.526 182.313 149.809 182.898 150.284C183.486 150.759 183.971 151.408 184.354 152.232C184.734 153.049 184.915 153.833 184.897 154.584C184.882 155.334 184.685 156.005 184.304 156.595C183.926 157.184 183.38 157.644 182.666 157.976ZM182.159 156.885C182.701 156.633 183.083 156.286 183.304 155.845C183.525 155.404 183.614 154.918 183.571 154.387C183.529 153.855 183.385 153.325 183.139 152.797C182.893 152.268 182.58 151.814 182.199 151.436C181.819 151.058 181.388 150.809 180.907 150.69C180.426 150.572 179.914 150.638 179.372 150.891C178.829 151.143 178.448 151.491 178.229 151.935C178.01 152.38 177.922 152.869 177.966 153.404C178.01 153.939 178.155 154.471 178.401 154.999C178.647 155.528 178.959 155.98 179.338 156.355C179.717 156.73 180.146 156.975 180.626 157.09C181.105 157.205 181.616 157.137 182.159 156.885Z" fill="white"/>
<path d="M188.403 155.095L184.435 147.326L185.589 146.737L186.208 147.951L186.31 147.9C186.26 147.402 186.357 146.947 186.6 146.533C186.842 146.116 187.216 145.779 187.722 145.52C188.234 145.259 188.72 145.157 189.18 145.216C189.641 145.27 190.073 145.455 190.477 145.771L190.558 145.73C190.552 145.227 190.688 144.756 190.965 144.317C191.241 143.874 191.657 143.511 192.213 143.227C192.908 142.872 193.587 142.799 194.251 143.009C194.913 143.215 195.477 143.775 195.944 144.688L198.599 149.888L197.406 150.497L194.75 145.298C194.458 144.725 194.092 144.395 193.652 144.309C193.213 144.223 192.781 144.289 192.356 144.506C191.81 144.785 191.471 145.166 191.34 145.65C191.207 146.13 191.268 146.621 191.525 147.124L194.108 152.181L192.894 152.801L190.177 147.481C189.951 147.039 189.626 146.756 189.202 146.633C188.776 146.506 188.337 146.558 187.885 146.789C187.575 146.947 187.327 147.178 187.142 147.481C186.96 147.782 186.861 148.122 186.846 148.499C186.832 148.872 186.922 149.249 187.117 149.63L189.596 154.485L188.403 155.095Z" fill="white"/>
<path d="M207.018 145.445C206.537 145.718 206.05 145.876 205.555 145.917C205.059 145.956 204.597 145.868 204.17 145.653C203.741 145.436 203.386 145.08 203.106 144.586C202.859 144.152 202.744 143.751 202.761 143.384C202.777 143.013 202.884 142.669 203.083 142.352C203.281 142.034 203.531 141.739 203.834 141.467C204.138 141.19 204.453 140.928 204.779 140.681C205.206 140.36 205.554 140.103 205.823 139.911C206.094 139.713 206.274 139.539 206.363 139.388C206.454 139.236 206.447 139.066 206.34 138.878L206.318 138.839C206.041 138.352 205.692 138.049 205.272 137.931C204.855 137.811 204.379 137.903 203.842 138.209C203.286 138.525 202.919 138.895 202.742 139.318C202.565 139.741 202.49 140.127 202.519 140.477L201.189 140.711C201.124 140.138 201.183 139.629 201.367 139.186C201.551 138.737 201.81 138.35 202.144 138.025C202.479 137.695 202.837 137.421 203.219 137.204C203.462 137.066 203.759 136.936 204.109 136.816C204.46 136.69 204.834 136.632 205.231 136.641C205.632 136.649 206.033 136.775 206.434 137.022C206.836 137.268 207.208 137.693 207.55 138.295L210.392 143.29L209.227 143.953L208.643 142.926L208.583 142.96C208.598 143.169 208.567 143.42 208.489 143.713C208.411 144.005 208.257 144.304 208.026 144.61C207.795 144.916 207.459 145.194 207.018 145.445ZM206.6 144.297C207.061 144.035 207.398 143.724 207.611 143.363C207.827 143.001 207.934 142.63 207.933 142.252C207.934 141.872 207.845 141.524 207.666 141.208L207.059 140.142C207.043 140.229 206.966 140.346 206.826 140.49C206.688 140.63 206.52 140.78 206.324 140.94C206.128 141.094 205.936 141.243 205.747 141.385C205.559 141.522 205.408 141.635 205.292 141.722C205.012 141.934 204.765 142.159 204.553 142.398C204.341 142.631 204.205 142.881 204.143 143.147C204.082 143.408 204.136 143.687 204.304 143.983C204.535 144.388 204.858 144.608 205.276 144.645C205.695 144.677 206.136 144.561 206.6 144.297Z" fill="white"/>
<path d="M217.577 131.064L216.728 131.983C216.558 131.852 216.361 131.744 216.137 131.659C215.913 131.57 215.662 131.537 215.384 131.561C215.105 131.584 214.8 131.698 214.467 131.902C214.012 132.18 213.697 132.518 213.522 132.913C213.348 133.304 213.359 133.659 213.554 133.979C213.728 134.263 213.969 134.424 214.277 134.462C214.584 134.5 214.991 134.44 215.497 134.281L216.768 133.876C217.532 133.631 218.179 133.574 218.708 133.707C219.236 133.837 219.659 134.162 219.977 134.682C220.238 135.108 220.349 135.564 220.309 136.05C220.272 136.534 220.095 137.007 219.778 137.467C219.46 137.928 219.013 138.335 218.435 138.689C217.676 139.153 216.947 139.373 216.248 139.348C215.549 139.323 214.94 139.034 214.42 138.482L215.339 137.547C215.687 137.884 216.067 138.065 216.477 138.089C216.89 138.112 217.33 137.98 217.799 137.693C218.332 137.367 218.685 136.995 218.86 136.577C219.036 136.154 219.027 135.783 218.831 135.463C218.673 135.205 218.45 135.044 218.162 134.98C217.873 134.913 217.514 134.951 217.086 135.093L215.668 135.561C214.888 135.817 214.234 135.873 213.707 135.729C213.181 135.581 212.761 135.25 212.447 134.736C212.19 134.316 212.081 133.873 212.119 133.406C212.16 132.937 212.329 132.484 212.627 132.049C212.928 131.612 213.339 131.234 213.863 130.914C214.599 130.463 215.276 130.271 215.893 130.337C216.514 130.401 217.075 130.643 217.577 131.064Z" fill="white"/>
<path d="M223.206 135.512L218.545 128.139L219.678 127.423L224.339 134.796L223.206 135.512ZM218.344 126.546C218.123 126.685 217.885 126.731 217.63 126.681C217.378 126.63 217.185 126.499 217.052 126.288C216.918 126.076 216.882 125.846 216.944 125.596C217.009 125.345 217.152 125.149 217.373 125.01C217.594 124.87 217.83 124.826 218.082 124.877C218.337 124.926 218.531 125.057 218.665 125.268C218.798 125.479 218.833 125.711 218.768 125.962C218.706 126.212 218.565 126.406 218.344 126.546Z" fill="white"/>
<path d="M226.693 133.332L221.896 126.047L222.977 125.335L223.727 126.473L223.822 126.411C223.717 125.922 223.764 125.458 223.96 125.021C224.155 124.58 224.489 124.203 224.964 123.891C225.444 123.574 225.916 123.42 226.379 123.428C226.843 123.43 227.294 123.567 227.73 123.837L227.806 123.787C227.745 123.288 227.828 122.805 228.055 122.338C228.28 121.868 228.654 121.461 229.176 121.117C229.827 120.688 230.494 120.541 231.177 120.676C231.858 120.808 232.48 121.303 233.044 122.16L236.255 127.036L235.136 127.773L231.925 122.897C231.571 122.359 231.171 122.072 230.725 122.035C230.279 121.998 229.857 122.11 229.458 122.372C228.946 122.71 228.651 123.126 228.574 123.621C228.494 124.113 228.61 124.595 228.92 125.066L232.044 129.809L230.905 130.559L227.619 125.569C227.347 125.155 226.993 124.91 226.557 124.834C226.12 124.755 225.689 124.855 225.265 125.134C224.975 125.325 224.754 125.582 224.603 125.903C224.455 126.223 224.394 126.571 224.42 126.948C224.448 127.32 224.579 127.685 224.814 128.042L227.813 132.595L226.693 133.332Z" fill="white"/>
<path d="M240.166 128.317L233.38 118.427L234.447 117.695L235.231 118.837L235.362 118.747C235.358 118.567 235.361 118.33 235.372 118.038C235.384 117.741 235.473 117.423 235.639 117.083C235.807 116.739 236.125 116.406 236.593 116.084C237.199 115.669 237.836 115.454 238.506 115.439C239.176 115.425 239.831 115.607 240.472 115.985C241.112 116.363 241.691 116.929 242.21 117.685C242.733 118.446 243.056 119.196 243.181 119.932C243.303 120.666 243.239 121.343 242.99 121.964C242.739 122.581 242.314 123.096 241.715 123.507C241.253 123.824 240.83 124.002 240.448 124.039C240.063 124.074 239.728 124.044 239.443 123.95C239.156 123.854 238.927 123.767 238.756 123.692L238.662 123.756L241.271 127.558L240.166 128.317ZM236.934 121.278C237.307 121.821 237.715 122.246 238.159 122.552C238.601 122.854 239.055 123.018 239.522 123.042C239.987 123.063 240.44 122.922 240.884 122.617C241.346 122.3 241.648 121.914 241.79 121.458C241.933 120.998 241.94 120.506 241.811 119.984C241.683 119.456 241.443 118.936 241.092 118.424C240.745 117.919 240.354 117.517 239.919 117.218C239.486 116.914 239.032 116.75 238.557 116.727C238.083 116.699 237.611 116.846 237.143 117.167C236.694 117.475 236.394 117.849 236.245 118.286C236.093 118.721 236.078 119.195 236.201 119.708C236.321 120.218 236.565 120.741 236.934 121.278Z" fill="white"/>
<path d="M240.646 109.876L247.302 119.414L246.203 120.181L239.547 110.643L240.646 109.876Z" fill="white"/>
<path d="M252.217 116.183C251.53 116.668 250.831 116.934 250.119 116.982C249.408 117.025 248.724 116.868 248.069 116.51C247.414 116.147 246.829 115.601 246.314 114.871C245.799 114.141 245.478 113.403 245.351 112.659C245.225 111.909 245.292 111.209 245.551 110.558C245.811 109.902 246.263 109.347 246.906 108.893C247.277 108.631 247.687 108.434 248.137 108.302C248.586 108.171 249.057 108.139 249.551 108.208C250.042 108.274 250.536 108.472 251.033 108.802C251.531 109.133 252.014 109.63 252.483 110.296L252.811 110.76L247.316 114.636L246.649 113.69L251.029 110.599C250.745 110.197 250.412 109.895 250.028 109.693C249.648 109.488 249.246 109.399 248.823 109.423C248.404 109.446 247.996 109.597 247.6 109.877C247.164 110.184 246.863 110.559 246.697 111C246.532 111.436 246.486 111.886 246.558 112.35C246.63 112.813 246.805 113.241 247.082 113.634L247.527 114.265C247.907 114.803 248.322 115.194 248.771 115.438C249.222 115.676 249.683 115.774 250.155 115.733C250.624 115.689 251.08 115.511 251.523 115.199C251.81 114.996 252.042 114.773 252.217 114.529C252.393 114.279 252.508 114.012 252.563 113.728C252.615 113.441 252.6 113.141 252.519 112.828L253.786 112.379C253.928 112.816 253.963 113.264 253.893 113.722C253.82 114.176 253.643 114.616 253.363 115.04C253.082 115.462 252.699 115.842 252.217 116.183Z" fill="white"/>
<path d="M261.005 109.726L254.281 100.236L255.374 99.4611L257.856 102.964L257.949 102.898C257.942 102.718 257.941 102.482 257.948 102.189C257.955 101.892 258.039 101.572 258.201 101.23C258.363 100.883 258.676 100.546 259.14 100.217C259.739 99.7927 260.373 99.5682 261.043 99.5438C261.712 99.5195 262.37 99.6915 263.016 100.06C263.662 100.428 264.25 100.986 264.78 101.733C265.314 102.487 265.649 103.231 265.784 103.966C265.917 104.697 265.864 105.375 265.625 106C265.383 106.621 264.965 107.142 264.372 107.562C263.915 107.886 263.495 108.07 263.113 108.114C262.729 108.154 262.394 108.129 262.107 108.04C261.819 107.947 261.589 107.864 261.416 107.792L261.287 107.884L262.062 108.977L261.005 109.726ZM259.558 105.405C259.939 105.943 260.354 106.361 260.803 106.66C261.249 106.957 261.706 107.113 262.173 107.13C262.638 107.144 263.089 106.996 263.528 106.685C263.985 106.361 264.281 105.97 264.416 105.513C264.552 105.05 264.552 104.558 264.415 104.038C264.279 103.512 264.032 102.996 263.673 102.49C263.318 101.989 262.922 101.593 262.483 101.301C262.045 101.003 261.588 100.847 261.113 100.831C260.638 100.81 260.169 100.963 259.706 101.292C259.261 101.607 258.967 101.984 258.824 102.424C258.679 102.861 258.672 103.335 258.802 103.846C258.93 104.354 259.182 104.874 259.558 105.405Z" fill="white"/>
<path d="M271.928 102.25C271.238 102.731 270.537 102.993 269.825 103.037C269.114 103.076 268.431 102.914 267.778 102.553C267.126 102.186 266.544 101.636 266.034 100.903C265.523 100.169 265.206 99.4302 265.084 98.6849C264.963 97.9343 265.033 97.2344 265.296 96.5852C265.56 95.9308 266.015 95.3785 266.661 94.9283C267.034 94.6687 267.446 94.4744 267.896 94.3454C268.346 94.2165 268.817 94.188 269.31 94.2598C269.801 94.3286 270.294 94.5296 270.789 94.8629C271.284 95.1963 271.765 95.6969 272.23 96.3648L272.555 96.8308L267.037 100.674L266.375 99.7235L270.774 96.6592C270.493 96.2554 270.161 95.9513 269.779 95.7469C269.399 95.5404 268.998 95.4483 268.576 95.4706C268.156 95.4907 267.747 95.6393 267.35 95.9163C266.911 96.2214 266.608 96.5941 266.44 97.0345C266.272 97.4696 266.223 97.9191 266.292 98.3829C266.362 98.8468 266.534 99.276 266.809 99.6705L267.25 100.304C267.627 100.845 268.039 101.238 268.487 101.484C268.936 101.725 269.397 101.826 269.869 101.788C270.339 101.747 270.796 101.572 271.24 101.263C271.529 101.061 271.762 100.839 271.938 100.596C272.116 100.348 272.233 100.082 272.289 99.798C272.343 99.5112 272.33 99.2111 272.25 98.8977L273.52 98.4558C273.66 98.8941 273.692 99.3419 273.619 99.7992C273.543 100.253 273.364 100.692 273.082 101.115C272.797 101.534 272.413 101.913 271.928 102.25Z" fill="white"/>
<path d="M270.882 88.6305L277.429 98.2437L276.321 98.9981L269.774 89.3849L270.882 88.6305Z" fill="white"/>
<rect x="-241.5" y="-84" width="756" height="336" fill="url(#paint3_linear_304_1967)"/>
<defs>
<radialGradient id="paint0_radial_304_1967" cx="0" cy="0" r="1" gradientTransform="matrix(-819.865 286.084 -6702.47 -8203.14 545.825 14.7001)" gradientUnits="userSpaceOnUse">
<stop stop-color="#368CFB"/>
<stop offset="0.4" stop-color="#5CAEFE"/>
<stop offset="1" stop-color="#FFEB85"/>
</radialGradient>
<linearGradient id="paint1_linear_304_1967" x1="546.011" y1="204.063" x2="-274.011" y2="204.063" gradientUnits="userSpaceOnUse">
<stop stop-color="white"/>
<stop offset="0.2" stop-color="white" stop-opacity="0"/>
<stop offset="0.8" stop-color="white" stop-opacity="0"/>
<stop offset="1" stop-color="white"/>
</linearGradient>
<radialGradient id="paint2_radial_304_1967" cx="0" cy="0" r="1" gradientTransform="matrix(732.9 -253.575 5991.52 7270.98 -229.425 201.075)" gradientUnits="userSpaceOnUse">
<stop stop-color="#368CFB"/>
<stop offset="0.4" stop-color="#5CAEFE"/>
<stop offset="1" stop-color="#FFEB85"/>
</radialGradient>
<linearGradient id="paint3_linear_304_1967" x1="514.5" y1="84" x2="-241.5" y2="84" gradientUnits="userSpaceOnUse">
<stop stop-color="#F4F4F5"/>
<stop offset="0.2" stop-color="#F4F4F5" stop-opacity="0"/>
<stop offset="0.8" stop-color="#F4F4F5" stop-opacity="0"/>
<stop offset="1" stop-color="#F4F4F5"/>
</linearGradient>
</defs>
</svg>
