<svg width="256" height="256" viewBox="0 0 256 256" fill="none" xmlns="http://www.w3.org/2000/svg">
<g clip-path="url(#clip0_2324_2757)">
<rect width="256" height="256" fill="#F7F8F8"/>
<g clip-path="url(#clip1_2324_2757)">
<path fill-rule="evenodd" clip-rule="evenodd" d="M37.0347 161.568C36.5684 161.353 36.3586 160.803 36.5568 160.325C36.7666 159.846 37.3028 159.631 37.769 159.834L119.417 195.762C124.208 194.805 171.402 185.393 212.581 177.26C237.431 172.356 260.078 167.931 269.869 166.017L191.041 125.892L42.8625 158.471C42.373 158.578 41.8835 158.256 41.7786 157.753C41.662 157.239 41.9767 156.737 42.4779 156.629L190.925 122.675C191.263 122.591 191.612 122.639 191.927 122.794L276.081 165.18C276.746 165.515 277.142 166.257 277.037 167.022C276.932 167.788 276.373 168.397 275.627 168.541C275.627 168.541 246.383 174.246 213.199 180.621C169.735 188.981 119.51 198.536 119.51 198.536C119.254 198.584 118.974 198.548 118.729 198.441L37.0347 161.568Z" fill="black"/>
<path fill-rule="evenodd" clip-rule="evenodd" d="M33.5381 120.414C33.2817 119.96 33.4332 119.386 33.8761 119.123C34.3074 118.872 34.8668 119.015 35.1233 119.47C35.1233 119.47 36.79 121.634 38.7715 124.923C39.4709 126.083 40.2168 127.363 40.8929 128.762C41.499 130.054 42.0352 131.441 42.5364 132.841C43.3173 135.005 43.9234 137.194 44.4129 139.227C44.5878 139.718 44.3314 140.256 43.8535 140.423C43.3756 140.591 42.8511 140.34 42.6762 139.849C41.8603 138.019 40.788 136.106 39.7506 134.132C39.063 132.865 38.3636 131.609 37.7575 130.353C37.0931 128.978 36.522 127.638 36.0091 126.418C34.5172 122.926 33.5381 120.414 33.5381 120.414Z" fill="black"/>
<path fill-rule="evenodd" clip-rule="evenodd" d="M16.2639 150.087C15.7976 150.29 15.2615 150.075 15.0517 149.596C14.8535 149.118 15.0633 148.568 15.5295 148.352C15.5295 148.352 17.1847 147.192 19.6907 146.307C20.6114 145.984 21.6371 145.721 22.7211 145.602C23.502 145.518 24.3063 145.542 25.1105 145.649C27.0221 145.901 28.852 146.534 30.3905 147.719C30.8335 147.97 30.985 148.544 30.7403 148.998C30.4955 149.453 29.936 149.62 29.4931 149.357C28.2692 148.879 26.9754 148.867 25.67 148.915C24.9357 148.938 24.213 149.046 23.4904 149.13C22.9892 149.178 22.488 149.225 22.0101 149.273C21.1942 149.357 20.4366 149.429 19.7256 149.513C17.6858 149.788 16.2639 150.087 16.2639 150.087Z" fill="#1D64F3"/>
<path fill-rule="evenodd" clip-rule="evenodd" d="M270.557 307.468C270.836 302.421 271.314 285.856 271.839 265.787C272.946 223.916 274.275 166.783 274.275 166.783C274.287 166.269 274.706 165.85 275.207 165.862C275.72 165.874 276.116 166.304 276.116 166.819C276.116 166.819 275.289 223.963 274.52 265.847C274.123 287.004 273.739 304.274 273.506 308.329C273.482 308.7 273.331 309.238 272.725 309.716C272.293 310.051 271.268 310.541 269.683 311.115C264.997 312.802 254.833 315.589 241.86 318.889C224.132 323.398 201.124 328.888 179.724 333.851C146.668 341.518 117.424 347.964 117.424 347.964C117.074 348.036 116.713 348 116.387 347.856L38.3519 313.304C37.7924 313.065 37.4312 312.503 37.4428 311.881C37.4428 311.881 38.282 250.718 38.0256 206.023C37.8974 183.168 37.5011 164.642 36.522 160.958C36.3821 160.456 36.6735 159.93 37.1514 159.798C37.641 159.655 38.1538 159.954 38.2937 160.444C39.3194 164.176 39.9254 182.893 40.2401 205.999C40.7996 247.309 40.4965 302.696 40.4383 310.876L117.226 344.4C120.152 343.742 134.826 340.441 154.07 336.076C170.866 332.261 191.123 327.632 210.064 323.171C233.923 317.562 255.672 312.24 265.72 309.166C268.027 308.448 269.694 307.886 270.557 307.468Z" fill="black"/>
<path fill-rule="evenodd" clip-rule="evenodd" d="M118.344 197.209C118.332 196.695 118.729 196.264 119.23 196.24C119.743 196.228 120.162 196.635 120.185 197.149C120.185 197.149 120.85 210.52 121.444 229.381C121.654 235.983 121.852 243.266 121.992 250.885C122.132 257.858 122.225 265.105 122.225 272.389C122.225 277.185 122.179 281.993 122.109 286.729C121.946 297.29 121.631 307.515 121.153 316.617C120.465 329.761 119.405 340.525 117.959 346.457C117.843 346.959 117.342 347.27 116.852 347.15C116.362 347.031 116.048 346.528 116.164 346.026C117.889 338.001 118.519 321.162 118.694 301.607C118.775 293.582 118.752 285.09 118.74 276.563C118.729 270.978 118.729 265.368 118.717 259.867C118.705 251.1 118.682 242.585 118.647 234.811C118.554 213.163 118.344 197.209 118.344 197.209Z" fill="black"/>
<path fill-rule="evenodd" clip-rule="evenodd" d="M61.5465 254.389C61.057 254.294 60.7306 253.791 60.8239 253.289C60.9288 252.775 61.4067 252.44 61.9079 252.547C61.9079 252.547 66.4769 253.074 72.4097 253.947C74.601 254.27 76.9787 254.617 79.3681 255.059C81.7108 255.502 84.042 256.028 86.2683 256.506C90.5576 257.439 94.334 258.3 96.5602 258.587C97.0614 258.623 97.4462 259.078 97.4112 259.592C97.3762 260.118 96.9332 260.513 96.432 260.477C94.1475 260.453 90.2078 260.154 85.767 259.616C83.5058 259.329 81.1047 259.018 78.7504 258.587C76.3493 258.157 73.9949 257.619 71.8386 257.104C65.9874 255.705 61.5465 254.389 61.5465 254.389Z" fill="black"/>
<path fill-rule="evenodd" clip-rule="evenodd" d="M96.8981 224.777C97.1079 224.884 97.2595 225.064 97.3527 225.279C98.0404 226.989 98.355 232.096 97.4342 236.21C97.0613 237.885 96.4669 239.392 95.6627 240.48C94.8584 241.568 93.8443 242.238 92.6204 242.429C89.7881 242.86 80.1722 241.042 72.0016 238.399C68.4583 237.251 65.1946 235.935 62.8635 234.644C60.9286 233.579 59.5882 232.419 59.0171 231.414C57.3037 228.4 56.616 223.341 57.4435 219.096C58.1079 215.711 59.7048 212.888 62.1525 211.692C62.8285 211.369 63.8309 211.202 65.113 211.334C67.246 211.549 70.3581 212.482 73.8315 213.821C83.832 217.696 96.8981 224.777 96.8981 224.777ZM95.7325 226.296C93.5995 225.267 81.9322 219.706 72.8641 216.584C70.16 215.651 67.7006 214.933 65.8123 214.646C64.7983 214.491 64.0174 214.407 63.5628 214.646C62.7702 215.053 62.1991 215.771 61.7445 216.644C61.0452 217.983 60.6838 219.682 60.5673 221.44C60.3575 224.406 60.8587 227.587 62.0242 229.608C62.3856 230.242 63.3064 230.84 64.5186 231.534C66.6982 232.778 69.7404 234.034 73.0273 235.194C77.6197 236.82 82.6898 238.243 86.6178 239.069C89.1821 239.607 91.2335 239.918 92.2825 239.798C93.0285 239.714 93.5763 239.188 94.0425 238.459C94.5321 237.681 94.9167 236.701 95.1964 235.624C96.1056 232.264 96.1871 228.078 95.7325 226.296Z" fill="black"/>
<path fill-rule="evenodd" clip-rule="evenodd" d="M96.4894 225.626C97.5501 228.388 97.2471 240.468 92.4566 241.114C87.6661 241.76 63.2124 235.217 60.5199 230.505C57.8158 225.805 58.0838 215.567 62.851 213.175C67.6182 210.771 96.4894 225.626 96.4894 225.626Z" fill="black"/>
<path fill-rule="evenodd" clip-rule="evenodd" d="M190.33 124.254C190.318 123.739 190.703 123.297 191.215 123.285C191.717 123.261 192.148 123.667 192.16 124.182C192.16 124.182 192.812 131.609 193.243 141.883C193.395 145.542 193.535 149.549 193.535 153.711C193.547 157.574 193.418 161.58 193.255 165.527C192.999 171.77 192.533 177.882 191.996 183.252C191.961 183.778 191.53 184.173 191.017 184.137C190.516 184.101 190.131 183.647 190.166 183.132C190.33 177.774 190.26 171.687 190.19 165.479C190.143 161.545 190.061 157.574 190.038 153.711C190.026 149.573 190.073 145.578 190.12 141.942C190.225 131.693 190.33 124.254 190.33 124.254Z" fill="black"/>
<path fill-rule="evenodd" clip-rule="evenodd" d="M191.25 124.217L275.3 166.783L191.075 183.192C192.579 160.468 191.25 124.217 191.25 124.217Z" fill="black"/>
</g>
<path fill-rule="evenodd" clip-rule="evenodd" d="M171.385 24.0038C169.557 24.0614 167.779 24.7672 166.542 26.1955C164.405 28.6634 165.012 32.0824 165.111 35.0342C165.248 39.0544 164.842 43.0883 163.677 46.9635L163.026 48.9154C162.838 49.4312 162.334 50.4081 162.386 50.9314C163.162 51.7187 165.051 50.9805 165.693 50.3719L165.745 50.318C166.025 50.0473 166.15 49.664 166.305 49.319L167.035 47.6448C168.674 43.5433 169.185 39.2236 169.12 34.8583C169.097 33.2362 168.891 31.5561 169.016 29.9395C169.149 28.2132 170.546 26.3483 172.557 26.5311C174.035 26.6656 175.949 27.8051 176.858 28.8886C179.293 31.7906 179.854 36.2155 179.596 39.8651C179.41 42.4977 178.034 44.5176 182.082 41.803C184.975 39.8631 188.007 38.1532 191.125 36.5705L195.209 34.6745C196.846 33.9783 201.579 32.0489 203.142 33.6756C203.833 34.3948 204.168 35.6443 204.089 36.5985C203.899 38.9118 200.967 40.5366 199.162 41.6391L194.632 44.3183C194.08 44.639 193.288 44.9303 192.832 45.3592C192.405 45.7605 192.918 46.4738 193.497 46.2982C195.981 45.5445 197.74 44.2727 200.649 43.9147C202.876 43.6408 206.426 44.1007 206.735 46.7577C206.868 47.9048 206.473 49.2454 205.668 50.1142C203.463 52.4949 194.528 54.9582 193.873 55.7442C193.548 57.6498 196.067 56.4109 197.087 56.1218C200.098 55.2685 206.025 53.2398 206.377 57.796C206.817 63.4832 195.942 64.9968 191.458 65.7216C191.263 65.7531 187.307 66.0865 188.772 67.0782C189.717 67.7178 197.922 66.0342 199.438 65.7556C197.345 67.1447 195.095 68.475 192.815 69.5656L189.444 70.988C184.522 72.9729 180.22 73.8426 174.895 73.0119C174.512 72.9521 174.079 73.083 174.004 72.6743C172.954 67.0445 168.722 56.2243 163.587 52.5576C162.111 51.5037 161.777 52.5437 160.565 53.1429L158.624 54.094C156.619 54.9703 149.508 57.763 150.027 60.5072L150.043 60.5991C150.161 61.2194 150.595 61.7983 150.949 62.3193L150.194 62.2953L150.092 62.8147C149.801 65.4417 152.137 68.8853 153.313 71.1199L154.367 73.2976C154.822 74.1578 155.568 75.4664 156.23 76.2145L156.293 76.2824C156.35 76.6072 156.471 76.8694 156.618 77.1655C156.847 77.8546 156.762 78.726 156.963 79.2074C157.96 81.562 160.812 83.1719 163.437 82.9853C166.428 82.7725 169.467 80.9576 171.794 79.2872C173.572 78.0109 174.293 77.7767 174.233 75.5412L174.157 74.0268C174.675 74.252 175.257 74.3375 175.814 74.4384C180.913 75.3649 185.1 74.0521 189.71 72.1708L193.1 70.7483C195.43 69.6526 197.672 68.3527 199.868 67.0323L203.808 64.5229C206.49 62.6649 209.368 60.0434 208.524 56.5234L208.509 56.4574C208.083 54.5917 207.383 53.6962 205.646 52.9312C205.943 52.7202 206.267 52.5499 206.543 52.3138C210.45 48.9842 209.791 42.2538 203.896 41.0797C206.026 39.1628 207.253 35.9348 205.799 33.3319C202.411 27.2697 189.343 34.6703 185.388 37.0041L182.899 38.5304C182.282 38.931 181.704 39.3617 181.046 39.7032C181.609 35.3082 180.046 28.5369 176.529 25.6981C175.091 24.5372 173.213 23.9463 171.385 24.0038Z" fill="#25272C"/>
<path fill-rule="evenodd" clip-rule="evenodd" d="M83.7817 24.0024C81.7089 23.9574 79.6145 24.5497 77.7552 25.4707C74.5684 27.0698 71.9274 29.9061 71.8178 33.6955C66.1293 30.4882 59.162 32.4343 56.0187 38.3939C53.5426 43.0884 55.8141 49.8989 60.3101 52.3481C62.7513 53.6781 65.591 53.9846 68.2687 54.4916C71.0261 55.0138 73.9462 55.6576 76.5383 56.7809C78.4709 57.5765 80.3736 58.4532 82.1274 59.6211L83.9579 60.9329C84.809 61.5749 86.6111 62.844 87.1878 61.1687C87.3617 60.6642 87.1124 59.9163 87.0551 59.3874C86.6232 55.3568 87.6073 51.3025 89.1013 47.6024L91.4584 42.1237C93.974 35.7465 94.0894 27.0635 86.5721 24.487C85.6624 24.1752 84.7239 24.0228 83.7817 24.0024Z" fill="#1D64F3"/>
</g>
<defs>
<clipPath id="clip0_2324_2757">
<rect width="256" height="256" fill="white"/>
</clipPath>
<clipPath id="clip1_2324_2757">
<rect width="295" height="229" fill="white" transform="translate(-10 119)"/>
</clipPath>
</defs>
</svg>
