<svg width="256" height="256" viewBox="0 0 256 256" fill="none" xmlns="http://www.w3.org/2000/svg">
<g clip-path="url(#clip0_2324_2780)">
<rect width="256" height="256" fill="#F7F8F8"/>
<g clip-path="url(#clip1_2324_2780)">
<path fill-rule="evenodd" clip-rule="evenodd" d="M195.526 80.4824C195.892 80.5957 196.097 80.9792 195.984 81.3452C195.873 81.7025 195.484 81.9117 195.119 81.7984C192.567 81.0925 188.006 80.1948 183.908 79.8288C180.968 79.5674 178.283 79.5413 176.902 80.2123C176.666 80.3256 176.536 80.6307 176.374 80.9967C176.107 81.5893 175.921 82.3649 175.797 83.2538C175.633 84.4129 175.602 85.755 175.697 87.1581C175.827 89.0579 176.205 91.0711 176.908 92.8838C178.01 95.7249 179.886 98.104 183.001 98.4525C186.36 98.8447 188.766 97.8425 190.468 96.0123C192.28 94.0602 193.336 91.2366 193.942 88.2213C194.008 87.8465 194.367 87.6025 194.743 87.6635C195.12 87.7332 195.372 88.0818 195.307 88.4566C194.802 91.8205 193.741 94.9667 191.844 97.2064C189.852 99.5681 186.95 100.954 182.79 100.657C177.835 100.265 174.894 96.056 173.679 91.2889C173.328 89.912 173.127 88.4827 173.057 87.1145C172.931 84.6307 173.233 82.3213 173.816 80.7265C174.324 79.3234 175.089 78.4084 175.901 78.0511C177.56 77.3452 180.708 77.3539 184.141 77.8419C188.325 78.4257 192.948 79.6197 195.526 80.4824Z" fill="#25272C"/>
<path fill-rule="evenodd" clip-rule="evenodd" d="M183.677 73.3542C183.429 73.6418 182.991 73.6766 182.701 73.4326C182.41 73.1886 182.376 72.7528 182.624 72.4652C183.26 71.4979 184.582 70.5741 186.222 70.0163C186.675 69.8594 187.152 69.7549 187.644 69.6939C188.128 69.6328 188.628 69.6154 189.122 69.659C189.867 69.7374 190.606 69.9204 191.296 70.2429C192.76 70.9139 194.05 72.0469 194.796 73.8683C194.978 74.1995 194.853 74.6178 194.517 74.8008C194.181 74.9751 193.761 74.8531 193.579 74.5219C192.626 73.1537 191.314 72.5873 189.977 72.3607C189.558 72.2822 189.135 72.2735 188.714 72.2561C188.276 72.2387 187.842 72.2387 187.416 72.2648C186.397 72.3258 185.439 72.474 184.674 72.8051C184.283 72.9707 183.934 73.1276 183.677 73.3542Z" fill="#25272C"/>
<path fill-rule="evenodd" clip-rule="evenodd" d="M146.521 77.6678C146.532 77.6503 146.532 77.6416 146.512 77.6241C146.467 77.5893 146.439 77.6329 146.416 77.7114C146.378 77.7288 146.34 77.7462 146.302 77.7636C146.327 77.7549 146.371 77.7374 146.414 77.72C146.383 77.842 146.365 78.025 146.332 78.1557C146.237 78.5392 146.176 79.0185 146.139 79.5675C146.034 81.1014 146.176 83.1232 146.634 85.2235C147.026 87.0275 147.65 88.875 148.601 90.5047C150.074 93.032 152.327 95.0453 155.75 95.3241C159.986 95.6902 163.035 93.9296 165.112 91.3762C167.564 88.3608 168.72 84.2997 168.877 81.1623C168.887 80.7789 169.206 80.4826 169.588 80.4913C169.97 80.5087 170.272 80.8225 170.26 81.1972C170.235 84.6309 169.141 89.119 166.595 92.5178C164.24 95.6551 160.661 97.8514 155.593 97.6073C150.2 97.311 146.892 93.6595 145.15 89.3718C143.627 85.6157 143.34 81.4064 143.674 78.8181C143.815 77.7288 144.082 76.8922 144.385 76.3954C144.655 75.9597 144.977 75.6894 145.291 75.5587C147.454 74.6349 151.229 74.452 155.202 74.7308C161.418 75.1579 168.117 76.5784 169.443 77.1274C169.798 77.2669 169.973 77.6678 169.832 78.0163C169.693 78.3736 169.29 78.5478 168.935 78.4084C167.632 77.9291 161.111 76.9182 155.105 76.7701C151.691 76.6829 148.447 76.8573 146.521 77.6678ZM146.521 77.6678C146.504 77.6852 146.459 77.7113 146.414 77.72C146.415 77.72 146.416 77.7114 146.416 77.7114C146.451 77.6939 146.486 77.6852 146.521 77.6678Z" fill="#25272C"/>
<path fill-rule="evenodd" clip-rule="evenodd" d="M174.943 81.5282C175.301 81.6589 175.484 82.0598 175.351 82.4084C175.219 82.7657 174.82 82.9487 174.462 82.818C174.462 82.818 173.787 82.6437 172.593 82.9313C172.151 83.0359 171.649 83.2102 171.087 83.4803C170.887 84.5174 170.295 87.4717 169.381 90.9926C168.949 92.6484 168.449 94.435 167.868 96.1954C167.385 97.6595 166.842 99.1061 166.275 100.457C165.625 101.999 164.926 103.411 164.235 104.597C163.698 105.511 163.16 106.374 162.879 107.141C162.79 107.376 162.717 107.603 162.71 107.804C162.708 107.908 162.694 108.004 162.758 108.074C163 108.353 163.482 108.483 164.25 108.562C165.423 108.684 167.102 108.614 169.455 108.318C169.831 108.257 170.188 108.509 170.252 108.884C170.314 109.259 170.06 109.607 169.683 109.668C166.575 110.313 164.539 110.444 163.261 110.27C162.318 110.139 161.714 109.799 161.32 109.416C160.731 108.832 160.568 108.047 160.729 107.098C160.899 106.095 161.541 104.832 162.209 103.507C162.794 102.365 163.345 100.997 163.901 99.5244C164.402 98.1997 164.888 96.7879 165.37 95.3674C165.959 93.6505 166.537 91.9251 167.055 90.3302C168.431 86.0599 169.406 82.6785 169.406 82.6785C169.469 82.4084 169.651 82.1905 169.901 82.0685C171.064 81.5892 172.031 81.3801 172.794 81.3191C174.195 81.2058 174.943 81.5282 174.943 81.5282Z" fill="#25272C"/>
<path fill-rule="evenodd" clip-rule="evenodd" d="M220.66 91.6899C220.855 92.422 220.964 93.2063 220.981 94.0429C221.057 97.494 219.567 101.677 216.431 104.727C215.146 105.974 213.829 106.706 212.544 107.124C210.275 107.847 208.108 107.569 206.41 107.394C205.909 107.342 205.459 107.298 205.073 107.316C204.885 107.324 204.714 107.307 204.612 107.42C204.554 107.481 204.531 107.577 204.509 107.699C202.677 117.373 199.192 125.042 194.74 130.715C188.721 138.376 180.932 142.419 172.997 142.846C166.16 143.212 161.126 138.201 157.653 131.02C153.479 122.401 151.506 110.706 150.958 102.435C150.932 102.061 151.219 101.729 151.6 101.703C151.981 101.677 152.312 101.965 152.339 102.34C152.955 110.436 154.978 121.887 159.151 130.297C162.336 136.728 166.742 141.408 172.889 141.016C180.308 140.554 187.546 136.685 193.118 129.469C197.348 123.987 200.612 116.597 202.294 107.29C202.473 106.305 202.952 105.747 203.585 105.416C204.293 105.041 205.348 105.015 206.642 105.137C208.805 105.355 211.909 105.886 214.774 103.063C216.908 100.963 218.127 98.2349 218.461 95.7251C218.851 92.7968 218.115 90.1039 215.814 89.5897C214.3 89.2411 212.98 89.5026 211.834 89.9993C209.908 90.8359 208.432 92.3261 207.312 93.1627C206.594 93.703 205.944 94.0081 205.415 94.0691C204.99 94.1214 204.572 94.0081 204.195 93.6508C204.028 93.4852 203.85 93.2413 203.705 92.8927C203.549 92.5093 203.403 91.9079 203.28 91.1323C202.702 87.4372 202.472 78.9923 201.013 72.3953C200.361 69.4496 199.519 66.8788 198.172 65.4582C195.673 65.9724 186.581 67.7589 176.663 68.7001C171.613 69.1795 166.35 69.441 161.628 69.2057C152.296 68.7438 145.581 67.1751 141.164 64.6391C136.138 61.7544 133.92 57.6497 134.089 52.4033C134.177 49.7802 135.424 47.2965 137.66 45.0916C139.994 42.7822 143.427 40.7515 147.647 39.1393C155.147 36.2721 165.163 34.686 175.734 35.052C182.094 35.2699 190.574 36.7775 197.08 41.2047C200.901 43.8017 204.05 47.4011 205.728 52.3249C207.527 51.9676 211.84 51.3923 216.121 52.9872C219.188 54.1201 222.246 56.3512 224.357 60.5517C227.436 66.687 228.265 72.4127 227.775 77.3017C227.102 84.0121 223.931 89.1626 220.66 91.6899ZM220.154 90.3218C223.038 87.8642 225.702 83.1669 226.256 77.1537C226.683 72.5086 225.842 67.0879 222.872 61.2925C220.968 57.5712 218.248 55.6017 215.514 54.6082C210.453 52.7694 205.369 54.2683 205.369 54.2683C204.887 54.4078 204.382 54.1288 204.237 53.6582C202.734 48.778 199.694 45.2833 195.987 42.7996C189.777 38.6339 181.708 37.2918 175.669 37.1262C165.424 36.8386 155.724 38.416 148.476 41.2483C144.614 42.756 141.458 44.6123 139.33 46.7387C137.586 48.4904 136.552 50.4164 136.498 52.473C136.38 56.7956 138.249 60.1508 142.401 62.5126C146.583 64.883 152.942 66.26 161.751 66.6522C166.356 66.87 171.487 66.5912 176.41 66.1206C187.91 65.0051 198.286 62.7654 198.286 62.7654C198.677 62.6782 199.087 62.774 199.398 63.0267C201.343 64.5954 202.706 67.8984 203.569 71.8462C205.023 78.4956 205.235 87.0275 205.803 90.7488C205.821 90.8621 205.842 90.9841 205.865 91.0974C206.012 90.9841 206.166 90.8621 206.327 90.74C207.506 89.7901 208.999 88.5091 210.832 87.7247C212.428 87.0363 214.265 86.7051 216.368 87.1931C218.099 87.5853 219.385 88.7269 220.154 90.3218Z" fill="#25272C"/>
<path fill-rule="evenodd" clip-rule="evenodd" d="M219.401 91.7335C218.869 90.0253 217.762 88.7704 216.091 88.387C210.481 87.1146 207.085 92.6137 205.27 92.8141C203.455 93.0233 204.676 68.9702 198.567 64.0376C198.567 64.0376 177.187 68.6652 161.69 67.9331C142.939 67.0442 135.018 61.6933 135.294 52.4381C135.585 42.6601 154.504 35.4266 175.701 36.0889C185.672 36.394 201.01 39.8974 205.112 53.3967C205.112 53.3967 217.914 49.6843 223.615 60.9177C231.12 75.7156 225.138 88.1081 219.401 91.7335ZM143.597 45.8932C142.38 46.7908 140.922 48.2985 139.85 50.1461C139.511 50.73 139.258 51.3487 139.061 51.9936C138.847 52.6821 138.734 53.3967 138.736 54.1026C138.739 54.8695 138.851 55.6365 139.131 56.3511C139.975 58.495 141.799 60.4645 145.696 61.0832C146.306 61.2662 146.95 60.9176 147.134 60.3163C147.317 59.715 146.97 59.0701 146.361 58.887C144.197 57.9197 143.359 56.6213 143.122 55.2617C143.048 54.8347 143.102 54.399 143.136 53.9632C143.175 53.4665 143.234 52.9609 143.338 52.4554C143.735 50.5295 144.435 48.6298 145.249 47.4968C145.693 47.0437 145.684 46.3203 145.228 45.8759C144.772 45.4314 144.041 45.44 143.597 45.8932Z" fill="#25272C"/>
<path fill-rule="evenodd" clip-rule="evenodd" d="M204.05 43.61C203.897 43.2701 204.055 42.8605 204.404 42.7037C204.754 42.5555 205.162 42.7123 205.317 43.0609C205.317 43.0609 206.088 44.1765 206.696 46.0851C206.802 46.4249 206.891 46.7735 206.961 47.1657C207.024 47.5143 207.07 47.8803 207.077 48.2638C207.089 48.8041 207.043 49.3618 206.95 49.9283C206.754 51.1308 206.384 52.3597 205.771 53.6059C205.653 53.9632 205.261 54.1637 204.898 54.0504C204.535 53.9284 204.336 53.5362 204.456 53.1789C204.64 52.168 204.641 51.2093 204.608 50.2856C204.591 49.8237 204.532 49.3879 204.5 48.9609C204.467 48.499 204.429 48.0633 204.402 47.645C204.375 47.2179 204.374 46.817 204.354 46.4423C204.26 44.7342 204.05 43.61 204.05 43.61Z" fill="#25272C"/>
<path fill-rule="evenodd" clip-rule="evenodd" d="M235.409 47.7061C235.777 47.6015 236.16 47.8106 236.264 48.1767C236.368 48.5427 236.155 48.9262 235.786 49.0221C235.786 49.0221 235.031 49.4926 233.959 50.1375C233.714 50.2857 233.464 50.4425 233.188 50.5907C232.987 50.6953 232.779 50.7998 232.562 50.8957C232.243 51.0351 231.914 51.1397 231.591 51.2617C230.731 51.5928 229.912 51.8543 229.404 52.3423C229.182 52.6473 228.75 52.7258 228.438 52.5079C228.127 52.2814 228.053 51.8543 228.275 51.5493C228.66 50.7302 229.418 49.9546 230.348 49.2312C230.68 48.9785 231.03 48.7432 231.405 48.5514C231.652 48.4207 231.91 48.3162 232.166 48.2377C232.437 48.1419 232.7 48.0721 232.961 48.0198C234.363 47.7323 235.409 47.7061 235.409 47.7061Z" fill="#25272C"/>
<path fill-rule="evenodd" clip-rule="evenodd" d="M228.509 55.593C228.174 55.41 228.049 55.0003 228.231 54.6604C228.413 54.3293 228.833 54.2073 229.169 54.3903C229.169 54.3903 230.43 54.765 231.995 55.5058C232.293 55.6452 232.592 55.8021 232.892 55.9764C233.179 56.1507 233.465 56.3337 233.734 56.5516C234.144 56.8741 234.52 57.2313 234.866 57.6061C235.957 58.7826 236.739 59.9852 236.829 60.9787C236.918 61.3448 236.689 61.7196 236.317 61.8067C235.945 61.8939 235.572 61.6672 235.483 61.2925C235.317 60.9003 234.891 60.5692 234.409 60.1683C233.895 59.7413 233.253 59.3752 232.62 58.9482C232.211 58.6693 231.802 58.3818 231.417 58.0854C231.104 57.8414 230.825 57.5886 230.55 57.3533C229.377 56.3424 228.509 55.593 228.509 55.593Z" fill="#25272C"/>
<path fill-rule="evenodd" clip-rule="evenodd" d="M150.4 72.2035C150.09 72.4301 149.657 72.3517 149.434 72.0467C149.211 71.7416 149.282 71.3145 149.592 71.0879C150.273 70.4692 151.903 69.8418 153.956 69.5106C154.43 69.4322 154.925 69.3886 155.436 69.3624C155.923 69.345 156.423 69.3537 156.923 69.3973C157.667 69.467 158.409 69.6152 159.128 69.8156C160.983 70.3298 162.659 71.1577 163.795 72.3429C164.086 72.587 164.12 73.0227 163.871 73.3103C163.622 73.5979 163.185 73.6327 162.895 73.3887C162.235 72.9355 161.44 72.6654 160.578 72.4475C159.768 72.2384 158.906 72.1425 158.028 72.0727C157.507 72.0292 156.985 72.0118 156.467 71.9856C155.934 71.9595 155.41 71.9246 154.899 71.8985C153.645 71.8375 152.505 71.8114 151.611 71.9334C151.093 72.0031 150.673 72.064 150.4 72.2035Z" fill="#25272C"/>
<path fill-rule="evenodd" clip-rule="evenodd" d="M165.715 123.795C165.337 123.743 165.073 123.395 165.127 123.02C165.18 122.645 165.53 122.384 165.909 122.436C167.576 122.462 168.933 122.14 170.136 121.782C170.592 121.643 171.016 121.495 171.421 121.355C171.869 121.19 172.291 121.042 172.681 120.867C175.128 119.787 176.375 118.2 176.375 118.2C176.558 117.869 176.979 117.747 177.314 117.922C177.65 118.105 177.774 118.523 177.591 118.854C177.591 118.854 176.903 120.554 175.014 122.183C174.363 122.741 173.572 123.299 172.598 123.7C171.976 123.961 171.278 124.153 170.521 124.24C169.109 124.405 167.523 124.275 165.715 123.795Z" fill="#25272C"/>
<path fill-rule="evenodd" clip-rule="evenodd" d="M162.85 86.959C163.058 87.4823 163.018 88.0782 162.738 88.6158C162.457 89.1533 161.96 89.5884 161.355 89.8254C160.75 90.0623 160.087 90.0817 159.512 89.8793C158.937 89.6768 158.496 89.2691 158.288 88.7459C158.079 88.2226 158.12 87.6266 158.4 87.0891C158.68 86.5516 159.178 86.1165 159.783 85.8795C160.388 85.6426 161.051 85.6232 161.626 85.8256C162.201 86.028 162.641 86.4358 162.85 86.959Z" fill="#1D64F3"/>
<path fill-rule="evenodd" clip-rule="evenodd" d="M183.495 89.125C183.704 89.6483 183.663 90.2443 183.383 90.7818C183.103 91.3194 182.605 91.7544 182 91.9914C181.395 92.2283 180.732 92.2477 180.157 92.0453C179.582 91.8428 179.142 91.4351 178.933 90.9119C178.725 90.3886 178.765 89.7927 179.046 89.2551C179.326 88.7176 179.823 88.2825 180.428 88.0455C181.033 87.8086 181.696 87.7892 182.271 87.9916C182.847 88.1941 183.287 88.6018 183.495 89.125Z" fill="#1D64F3"/>
<path fill-rule="evenodd" clip-rule="evenodd" d="M155.366 161.531C155.064 161.296 155.009 160.869 155.243 160.564C155.476 160.268 155.911 160.215 156.214 160.442C158.387 161.915 160.828 163.161 163.433 163.971C164.262 164.233 165.107 164.433 165.966 164.599C166.804 164.747 167.655 164.852 168.521 164.904C169.77 164.974 171.048 164.939 172.364 164.721C175.042 164.259 177.857 163.135 180.767 160.982C181.061 160.738 181.497 160.773 181.742 161.069C181.986 161.357 181.946 161.793 181.652 162.037C178.711 164.721 175.755 166.289 172.861 167.022C171.351 167.405 169.854 167.562 168.395 167.51C167.386 167.475 166.394 167.327 165.429 167.1C164.463 166.873 163.523 166.568 162.614 166.185C159.917 165.052 157.493 163.37 155.366 161.531Z" fill="#25272C"/>
<path fill-rule="evenodd" clip-rule="evenodd" d="M191.67 172.704C191.686 172.329 192.009 172.033 192.39 172.05C192.772 172.067 193.069 172.381 193.054 172.765C193.12 174.943 193.532 177.148 194.079 179.345C194.258 180.068 194.455 180.774 194.653 181.488C194.854 182.203 195.066 182.918 195.272 183.623C195.591 184.713 195.907 185.776 196.256 186.813C197.192 189.584 198.255 192.077 199.374 193.985C199.586 194.299 199.5 194.726 199.182 194.935C198.864 195.145 198.434 195.066 198.222 194.744C196.809 192.905 195.307 190.473 194.042 187.667C193.566 186.621 193.121 185.523 192.754 184.382C192.514 183.641 192.314 182.874 192.144 182.107C191.975 181.34 191.842 180.556 191.741 179.78C191.438 177.401 191.407 175.004 191.67 172.704Z" fill="#25272C"/>
<path fill-rule="evenodd" clip-rule="evenodd" d="M187.13 155.048C186.926 154.725 187.024 154.307 187.347 154.106C187.67 153.897 188.098 154.002 188.302 154.316C188.759 154.769 189.299 155.248 189.857 155.876C190.02 156.059 190.171 156.25 190.315 156.468C190.453 156.669 190.583 156.878 190.689 157.104C190.848 157.453 190.966 157.81 191.062 158.176C191.3 159.082 191.425 159.963 191.412 160.86C191.483 161.235 191.234 161.592 190.859 161.662C190.483 161.732 190.121 161.488 190.052 161.113C189.757 160.39 189.294 159.754 188.848 159.074C188.673 158.804 188.488 158.551 188.332 158.281C188.226 158.089 188.137 157.897 188.053 157.706C187.941 157.444 187.853 157.191 187.762 156.939C187.504 156.224 187.32 155.597 187.13 155.048Z" fill="#25272C"/>
<path fill-rule="evenodd" clip-rule="evenodd" d="M189.019 151.43C189.034 151.178 189.158 150.968 189.528 150.986C189.681 150.995 189.954 151.056 190.367 151.169C190.747 151.273 191.15 151.483 191.628 151.805C191.837 151.944 192.026 152.119 192.221 152.328C192.39 152.511 192.548 152.72 192.673 152.964C192.838 153.278 192.968 153.635 193.04 154.045C193.166 154.768 193.198 155.553 193.032 156.529C193.053 156.903 192.761 157.234 192.38 157.252C191.998 157.269 191.67 156.982 191.649 156.607C191.466 155.979 191.198 155.518 190.95 155.073C190.826 154.855 190.67 154.681 190.552 154.489C190.429 154.298 190.302 154.123 190.202 153.949C189.579 152.868 189.043 152.302 189.043 152.302C188.674 152.197 188.456 151.823 188.556 151.457C188.627 151.204 188.836 151.021 189.019 151.43Z" fill="#25272C"/>
<path fill-rule="evenodd" clip-rule="evenodd" d="M160.203 147.927C154.717 151.064 147.687 158.821 141.49 167.074C134.211 176.782 128.093 187.205 127.127 191.911C127.054 192.286 126.69 192.521 126.314 192.451C125.94 192.381 125.695 192.016 125.769 191.641C126.691 186.821 132.739 176.041 140.057 166.037C146.995 156.537 155.09 147.761 160.935 145.208C161.52 144.955 161.933 145.121 162.209 145.339C162.427 145.495 162.63 145.766 162.682 146.201C162.707 146.419 162.68 146.768 162.586 147.212C162.377 148.189 161.82 149.931 161.685 151.735C161.585 153.06 161.7 154.437 162.546 155.465C163.79 156.973 166.431 157.574 171.544 156.685C174.12 156.232 176.281 155.282 178.119 154.167C180.651 152.642 182.578 150.785 184.124 149.426C185.376 148.319 186.445 147.526 187.348 147.247C190.095 146.402 197.355 145.295 204.68 147.866C209.518 149.565 214.383 152.86 218.006 158.847C223.351 167.745 227.75 180.076 230.534 193.828C232.902 205.515 234.101 218.239 233.79 230.718C233.707 233.995 232.892 238.623 230.813 241.873C229.246 244.313 226.991 245.995 223.877 245.969C213.993 245.908 206.669 244.226 200.856 241.15C193.888 237.464 189.08 231.764 184.666 224.339C184.47 224.016 184.577 223.59 184.905 223.398C185.233 223.206 185.659 223.311 185.855 223.633C190.194 230.745 194.866 236.217 201.626 239.703C207.264 242.605 214.349 244.122 223.88 244.078C226.268 244.069 227.947 242.701 229.129 240.819C230.984 237.864 231.648 233.655 231.695 230.675C231.888 218.36 230.566 205.829 228.146 194.308C225.328 180.895 221.014 168.86 215.746 160.189C212.501 154.812 208.142 151.849 203.804 150.306C197.167 147.953 190.581 148.886 188.086 149.635C187.426 149.835 186.695 150.48 185.778 151.282C184.133 152.711 182.069 154.637 179.378 156.232C177.297 157.47 174.849 158.507 171.942 158.986C165.542 160.04 162.333 158.76 160.801 156.86C159.93 155.779 159.545 154.455 159.472 153.078C159.377 151.256 159.832 149.339 160.203 147.927Z" fill="#25272C"/>
<path fill-rule="evenodd" clip-rule="evenodd" d="M222.028 220.104C222.263 220.4 222.208 220.836 221.906 221.062C221.605 221.298 221.169 221.245 220.935 220.94C219.587 219.415 217.477 217.298 215.086 214.997C214.25 214.186 213.378 213.367 212.504 212.531C211.556 211.616 210.601 210.692 209.651 209.794C208.671 208.87 207.714 207.955 206.76 207.127C204.209 204.896 201.814 203.171 199.91 202.753C199.533 202.692 199.279 202.334 199.342 201.968C199.405 201.593 199.762 201.341 200.139 201.402C201.692 201.576 203.628 202.43 205.731 203.728C207.259 204.678 208.876 205.855 210.482 207.171C211.369 207.903 212.256 208.67 213.106 209.48C213.952 210.282 214.767 211.119 215.539 211.964C218.318 215.014 220.618 218.082 222.028 220.104Z" fill="#25272C"/>
<path fill-rule="evenodd" clip-rule="evenodd" d="M196.964 204.277C196.679 204.53 196.241 204.504 195.987 204.225C195.733 203.937 195.757 203.51 196.042 203.258C196.993 202.334 197.961 201.672 198.788 201.375C199.511 201.114 200.164 201.149 200.704 201.401C201.501 201.767 202.152 202.77 202.202 204.765C202.218 205.428 202.14 206.142 201.993 206.901C201.811 207.842 201.505 208.835 201.109 209.864C200.389 211.659 199.389 213.541 198.188 215.258C197.384 216.4 196.491 217.48 195.567 218.413C193.496 220.522 191.253 221.925 189.401 222.169C186.499 222.535 184.846 221.341 184.058 219.546C183 217.132 183.656 213.463 184.954 211.467C185.149 211.136 185.575 211.031 185.902 211.223C186.231 211.415 186.34 211.842 186.145 212.164C185.369 213.585 184.994 215.903 185.45 217.742C185.655 218.57 186.049 219.293 186.725 219.703C187.294 220.051 188.058 220.13 189.047 219.947C190.497 219.685 192.099 218.343 193.685 216.644C194.5 215.764 195.295 214.779 196.045 213.75C197.172 212.208 198.206 210.561 198.939 208.948C199.279 208.234 199.568 207.528 199.781 206.848C200.017 206.099 200.176 205.384 200.21 204.739C200.241 204.129 200.216 203.667 200.099 203.319C200.008 203.057 199.879 202.883 199.65 202.892C198.914 202.9 197.962 203.467 196.964 204.277Z" fill="#25272C"/>
<path fill-rule="evenodd" clip-rule="evenodd" d="M150.468 191.005C150.646 191.074 151.041 191.1 151.29 191.092C151.435 191.083 151.585 191.074 151.736 191.04C152.187 190.935 152.65 190.708 153.015 190.299C154.062 189.122 155.176 187.423 156.313 186.246C157.033 185.506 157.775 184.965 158.503 184.774C159.178 184.599 160.127 184.617 161.089 184.756C162.798 185.009 164.546 185.567 164.546 185.567C164.912 185.68 165.118 186.063 165.005 186.429C164.893 186.787 164.505 186.996 164.14 186.883C164.14 186.883 162.496 186.412 160.898 186.238C160.164 186.159 159.441 186.133 158.934 186.29C158.45 186.429 157.997 186.856 157.531 187.37C156.448 188.564 155.407 190.29 154.413 191.484C153.428 192.669 151.994 193.07 150.846 193C149.263 192.905 148.307 191.832 148.478 190.726C148.734 189.087 149.752 186.569 151.273 184.207C152.618 182.124 154.365 180.189 156.285 179.057C157.656 178.246 160.604 177.854 164.025 177.95C167.647 178.046 171.814 178.638 175.018 179.51C176.922 180.041 178.914 181.174 180.892 182.743C183.166 184.547 185.445 186.935 187.608 189.558C193.513 196.721 198.591 205.654 200.614 209.053C200.814 209.376 200.713 209.794 200.388 209.994C200.063 210.195 199.635 210.09 199.435 209.768C197.312 206.491 191.937 197.889 185.874 191.013C183.741 188.591 181.523 186.386 179.329 184.721C177.621 183.423 175.94 182.455 174.318 182.02C171.295 181.183 167.358 180.625 163.936 180.486C161.104 180.364 158.638 180.468 157.488 181.113C155.82 182.037 154.31 183.675 153.111 185.418C151.73 187.423 150.749 189.575 150.468 191.005ZM150.463 191.005C150.464 190.935 150.446 190.839 150.407 190.874C150.35 190.926 150.381 190.97 150.463 191.005Z" fill="#25272C"/>
<path fill-rule="evenodd" clip-rule="evenodd" d="M180.255 200.286C179.984 200.024 179.982 199.589 180.252 199.318C180.521 199.048 180.96 199.048 181.231 199.31C181.231 199.31 183.488 201.175 186.28 204.016C186.795 204.539 187.323 205.096 187.85 205.698C188.346 206.255 188.843 206.848 189.32 207.467C190.015 208.373 190.674 209.323 191.302 210.308C192.85 212.704 194.17 215.223 194.997 217.533C195.148 217.881 194.983 218.291 194.632 218.439C194.28 218.587 193.873 218.421 193.724 218.073C192.809 216.269 191.493 214.395 190.058 212.548C189.42 211.72 188.75 210.918 188.098 210.116C187.429 209.288 186.765 208.469 186.134 207.676C185.521 206.909 184.948 206.159 184.399 205.454C182.047 202.421 180.255 200.286 180.255 200.286Z" fill="#25272C"/>
<path fill-rule="evenodd" clip-rule="evenodd" d="M190.557 211.302C192.088 213.463 193.459 215.711 194.36 217.803C192.616 219.563 190.792 220.809 189.224 221.053C187.622 221.306 186.485 220.94 185.718 220.217C185.215 213.228 190.557 211.302 190.557 211.302Z" fill="#25272C"/>
<path fill-rule="evenodd" clip-rule="evenodd" d="M178.906 196.853C179.212 196.626 179.646 196.687 179.874 196.992C180.102 197.297 180.037 197.733 179.73 197.959C179.077 198.578 177.536 199.206 175.445 199.179C174.985 199.171 174.502 199.118 173.998 199.014C173.547 198.918 173.082 198.787 172.617 198.587C171.997 198.334 171.376 197.977 170.761 197.532C169.615 196.704 168.498 195.589 167.447 194.09C167.195 193.802 167.224 193.375 167.512 193.123C167.8 192.87 168.238 192.905 168.489 193.184C169.145 193.776 169.801 194.238 170.439 194.656C171.537 195.38 172.605 195.815 173.584 196.164C173.954 196.295 174.303 196.425 174.645 196.53C175.022 196.643 175.377 196.757 175.723 196.835C176.634 197.036 177.417 197.123 178.044 197.044C178.405 197.001 178.701 196.966 178.906 196.853Z" fill="#25272C"/>
<path fill-rule="evenodd" clip-rule="evenodd" d="M165.992 184.87C166.36 184.765 166.743 184.983 166.846 185.34C166.951 185.706 166.737 186.09 166.369 186.194C165.239 186.604 164.205 187.223 163.375 187.963C162.571 188.678 162.018 189.541 161.904 190.491C161.751 191.441 161.691 192.565 161.757 193.541C161.789 194.003 161.822 194.43 161.959 194.761C161.994 194.848 162.013 194.935 162.066 194.996C162.088 195.022 162.091 195.066 162.127 195.066C162.166 195.075 162.191 195.127 162.217 195.11C162.307 195.049 162.385 194.97 162.446 194.857C162.535 194.691 162.62 194.508 162.693 194.317C163.136 193.123 163.449 191.571 164.261 190.604C164.703 190.072 165.249 189.663 166.005 189.515C166.375 189.427 166.754 189.645 166.851 190.011C166.947 190.377 166.725 190.752 166.356 190.848C165.542 191.118 165.323 191.929 165.126 192.748C164.849 193.924 164.714 195.188 164.308 196.016C163.862 196.931 163.13 197.419 162.011 197.436C160.77 197.428 159.914 196.635 159.455 195.354C159.182 194.587 159.07 193.602 159.109 192.582C159.142 191.711 159.293 190.822 159.464 190.046C159.767 188.861 160.442 187.789 161.465 186.935C162.671 185.941 164.279 185.209 165.992 184.87Z" fill="#25272C"/>
<path fill-rule="evenodd" clip-rule="evenodd" d="M154.977 169.662C155.016 169.287 155.356 169.008 155.736 169.052C156.116 169.087 156.393 169.426 156.355 169.801C156.355 169.801 156.474 171.048 156.65 172.764C156.69 173.165 156.744 173.584 156.767 174.019C156.794 174.56 156.804 175.117 156.801 175.675C156.798 176.52 156.742 177.348 156.786 178.133C156.827 178.865 156.871 179.518 157.045 180.076C157.208 180.416 157.059 180.826 156.712 180.991C156.367 181.148 155.954 181 155.792 180.66C155.167 179.693 154.709 178.324 154.409 176.817C154.299 176.268 154.213 175.71 154.178 175.144C154.155 174.769 154.162 174.394 154.182 174.028C154.203 173.645 154.243 173.279 154.295 172.921C154.575 171.03 154.977 169.662 154.977 169.662Z" fill="#25272C"/>
<path fill-rule="evenodd" clip-rule="evenodd" d="M229.34 249.29C229.192 248.941 229.357 248.54 229.709 248.392C230.062 248.244 230.468 248.41 230.616 248.758C231.523 250.641 232.309 254.493 232.728 259.129C232.829 260.253 232.905 261.412 232.946 262.606C232.984 263.748 232.997 264.916 232.968 266.092C232.923 267.826 232.796 269.587 232.625 271.304C232.167 275.888 231.338 280.202 230.231 283.295C230.117 283.661 229.73 283.862 229.365 283.749C228.999 283.644 228.794 283.252 228.908 282.895C229.837 279.435 230.196 274.511 230.298 269.447C230.325 268.088 230.331 266.72 230.342 265.369C230.354 263.983 230.366 262.615 230.365 261.29C230.362 258.589 230.313 256.079 230.132 253.97C229.96 251.957 229.719 250.327 229.34 249.29Z" fill="#25272C"/>
<path fill-rule="evenodd" clip-rule="evenodd" d="M229.917 198.482C229.544 198.404 229.308 198.029 229.392 197.663C229.474 197.297 229.845 197.062 230.218 197.14C236.288 198.386 243.569 203.249 249.099 211.101C253.203 216.923 256.323 224.4 257.311 233.211C257.647 236.479 257.858 240.165 257.876 244.009C257.899 249.351 257.578 254.989 256.918 260.157C255.957 267.695 254.223 274.249 251.762 277.622C249.681 280.472 246.618 282.354 243.313 283.574C237.573 285.692 231.133 285.814 228.352 285.849C227.971 285.857 227.652 285.561 227.642 285.178C227.632 284.803 227.934 284.489 228.316 284.472C230.993 284.367 237.195 284.106 242.672 281.927C245.595 280.768 248.313 279.051 250.107 276.463C252.356 273.229 253.736 266.998 254.516 259.878C255.072 254.798 255.286 249.264 255.239 244.026C255.205 240.27 255.051 236.662 254.736 233.464C253.981 225.062 251.146 217.899 247.384 212.252C242.339 204.687 235.631 199.833 229.917 198.482Z" fill="#25272C"/>
<path fill-rule="evenodd" clip-rule="evenodd" d="M237.588 232.078C237.318 231.816 237.318 231.38 237.588 231.11C237.857 230.84 238.296 230.84 238.567 231.11C240.642 232.984 243.203 235.668 245.291 239.79C245.817 240.827 246.307 241.96 246.738 243.189C247.123 244.287 247.467 245.464 247.738 246.736C248.094 248.392 248.332 250.205 248.451 252.174C248.674 255.817 248.459 259.983 247.71 264.767C247.666 265.151 247.324 265.421 246.944 265.377C246.564 265.334 246.291 264.994 246.335 264.619C246.7 259.774 246.514 255.634 246.039 252.044C245.805 250.283 245.488 248.662 245.134 247.163C244.871 246.039 244.59 244.984 244.282 243.991C243.848 242.588 243.376 241.307 242.86 240.139C241.241 236.479 239.269 233.908 237.588 232.078Z" fill="#25272C"/>
<path fill-rule="evenodd" clip-rule="evenodd" d="M198.733 247.39C198.431 247.163 198.375 246.727 198.609 246.431C198.842 246.126 199.277 246.074 199.58 246.309C200.455 246.788 201.376 247.451 202.915 247.956C203.155 248.034 203.41 248.113 203.682 248.209C204.049 248.322 204.438 248.47 204.884 248.584C205.808 248.819 206.876 249.063 208.248 249.141C208.628 249.115 208.962 249.394 208.993 249.769C209.024 250.152 208.739 250.484 208.359 250.51C206.899 250.841 205.701 250.963 204.65 250.937C204.03 250.928 203.474 250.85 202.974 250.719C202.575 250.623 202.216 250.475 201.892 250.309C201.52 250.126 201.194 249.917 200.904 249.699C200.313 249.237 199.864 248.775 199.474 248.305C199.2 247.974 198.982 247.669 198.733 247.39Z" fill="#25272C"/>
<path fill-rule="evenodd" clip-rule="evenodd" d="M199.846 253.734C199.519 253.543 199.414 253.116 199.611 252.793C199.809 252.471 200.235 252.366 200.562 252.566C200.562 252.566 201.16 252.723 202.277 252.863C202.76 252.924 203.321 252.915 203.982 252.967C204.333 252.985 204.709 253.02 205.108 253.063C205.887 253.15 206.734 253.29 207.707 253.333C208.279 253.351 208.863 253.395 209.505 253.377C209.88 253.307 210.241 253.551 210.311 253.926C210.379 254.301 210.131 254.658 209.755 254.728C208.488 255.155 207.355 255.425 206.292 255.565C205.743 255.634 205.226 255.66 204.737 255.643C204.372 255.625 204.025 255.573 203.702 255.512C203.334 255.434 202.998 255.338 202.688 255.233C200.743 254.545 199.846 253.734 199.846 253.734Z" fill="#25272C"/>
<path fill-rule="evenodd" clip-rule="evenodd" d="M187.693 282.136C188.297 287.574 187.947 291.383 186.01 293.666C184.54 295.4 182.149 296.332 178.46 296.385C177.248 296.402 156.256 295.609 132.537 294.677C101.604 293.457 66.0322 291.993 63.6986 291.845C61.1611 291.679 58.5313 291.017 56.6082 289.788C54.947 288.733 53.7947 287.26 53.4923 285.387C53.1223 283.068 48.2653 259.608 45.2004 236.575C43.5752 224.374 42.4687 212.286 42.7376 203.51C42.8 201.532 43.751 200.242 45.3718 199.406C47.3986 198.369 50.7377 198.16 54.6411 198.116C56.0984 198.107 76.6331 198.334 99.8143 198.63C130.064 199.014 164.821 199.493 167.539 199.554C170.217 199.606 172.999 200.582 175.227 203.04C177.298 205.341 178.909 208.966 179.4 214.474C179.491 215.493 180.132 220.775 181.02 227.982C183.336 246.789 187.333 278.641 187.693 282.136ZM186.316 282.276C185.932 278.79 181.711 246.98 179.266 228.2C178.325 220.966 177.646 215.668 177.548 214.639C177.17 210.709 176.207 207.816 174.882 205.759C172.916 202.709 170.148 201.567 167.503 201.523L54.671 200.678C51.8347 200.713 49.3244 200.791 47.5173 201.332C46.2481 201.706 45.3867 202.325 45.3498 203.589C45.0888 212.26 46.2235 224.182 47.8091 236.235C50.8344 259.242 55.5517 282.694 55.9138 285.012C56.0984 286.197 56.8763 287.095 57.924 287.766C59.528 288.803 61.7368 289.334 63.8603 289.483C65.9056 289.631 93.5351 290.947 121.155 292.254C149.103 293.57 177.04 294.868 178.443 294.851C181.562 294.833 183.627 294.171 184.883 292.716C186.651 290.668 186.822 287.208 186.316 282.276Z" fill="#25272C"/>
<path fill-rule="evenodd" clip-rule="evenodd" d="M112.774 230.553C115.394 230.143 117.824 231.285 119.651 233.664C121.468 236.026 122.644 239.677 122.744 244.261C122.76 247.538 120.7 250.693 117.999 251.991C115.288 253.298 111.921 252.915 109.403 249.133C107.142 245.664 106.715 240.853 107.607 237.01C108.434 233.446 110.393 230.779 112.774 230.553ZM112.944 231.921C112.193 232.034 111.559 232.522 111.02 233.228C109.959 234.605 109.331 236.81 109.201 239.198C109.04 242.143 109.668 245.385 111.4 247.79C113.064 250.143 115.126 250.475 116.846 249.638C118.75 248.723 120.249 246.553 120.29 244.244C120.43 240.2 119.609 236.914 118.137 234.736C116.824 232.792 115.014 231.729 112.944 231.921Z" fill="#1D64F3"/>
<path fill-rule="evenodd" clip-rule="evenodd" d="M113.122 223.72C113.178 223.346 113.529 223.084 113.907 223.137C114.285 223.189 114.547 223.537 114.493 223.912C114.493 223.912 114.622 224.827 114.742 226.126C114.764 226.361 114.785 226.596 114.79 226.849C114.793 227.084 114.792 227.32 114.771 227.564C114.748 227.843 114.692 228.13 114.647 228.409C114.579 228.845 114.493 229.254 114.434 229.673C114.363 230.187 114.282 230.631 114.276 231.067C114.346 231.433 114.099 231.799 113.723 231.869C113.347 231.939 112.985 231.694 112.915 231.32C112.611 230.544 112.379 229.612 112.234 228.601C112.178 228.209 112.138 227.825 112.141 227.433C112.143 227.18 112.172 226.919 112.211 226.675C112.252 226.405 112.308 226.161 112.374 225.917C112.735 224.601 113.122 223.72 113.122 223.72Z" fill="#1D64F3"/>
<path fill-rule="evenodd" clip-rule="evenodd" d="M125.739 232.644C126.097 232.514 126.497 232.688 126.632 233.045C126.767 233.394 126.587 233.795 126.229 233.925C126.229 233.925 125.583 234.448 124.626 235.128C124.454 235.25 124.281 235.381 124.086 235.494C123.908 235.599 123.721 235.703 123.524 235.799C123.292 235.904 123.051 235.973 122.811 236.069C122.439 236.2 122.082 236.305 121.738 236.444C121.316 236.61 120.939 236.732 120.635 236.932C120.367 237.202 119.929 237.202 119.656 236.941C119.384 236.671 119.379 236.235 119.647 235.965C120.046 235.346 120.683 234.701 121.455 234.082C121.732 233.856 122.02 233.647 122.33 233.472C122.536 233.35 122.754 233.263 122.969 233.185C123.198 233.098 123.421 233.037 123.642 232.984C124.858 232.706 125.739 232.644 125.739 232.644Z" fill="#1D64F3"/>
<path fill-rule="evenodd" clip-rule="evenodd" d="M126.567 249.804C126.773 250.126 126.68 250.554 126.359 250.754C126.038 250.963 125.609 250.867 125.402 250.554C125.402 250.554 124.834 250.118 124.004 249.464C123.819 249.316 123.625 249.177 123.431 249.002C123.293 248.88 123.152 248.758 123.022 248.61C122.833 248.41 122.673 248.174 122.492 247.956C122.028 247.39 121.633 246.815 121.075 246.449C120.719 246.309 120.544 245.908 120.683 245.56C120.822 245.202 121.224 245.028 121.58 245.168C122.415 245.298 123.217 245.656 124.012 246.126C124.326 246.309 124.618 246.519 124.882 246.763C125.058 246.919 125.212 247.103 125.349 247.286C125.495 247.486 125.619 247.678 125.728 247.878C126.323 248.976 126.567 249.804 126.567 249.804Z" fill="#1D64F3"/>
<path fill-rule="evenodd" clip-rule="evenodd" d="M116.622 258.902C116.637 259.277 116.338 259.599 115.957 259.617C115.575 259.625 115.254 259.329 115.239 258.954C115.239 258.954 114.944 258.013 114.677 256.662C114.628 256.418 114.585 256.166 114.558 255.895C114.533 255.643 114.516 255.381 114.524 255.129C114.535 254.736 114.589 254.353 114.647 253.97C114.805 252.915 115.03 251.965 115.223 251.242C115.253 250.867 115.587 250.579 115.967 250.614C116.348 250.64 116.633 250.972 116.603 251.355C116.677 252.052 116.876 252.967 117.024 253.97C117.079 254.344 117.138 254.719 117.156 255.102C117.17 255.355 117.159 255.608 117.142 255.852C117.125 256.122 117.091 256.366 117.053 256.61C116.846 257.952 116.622 258.902 116.622 258.902Z" fill="#1D64F3"/>
<path fill-rule="evenodd" clip-rule="evenodd" d="M106.824 254.013C106.724 254.379 106.343 254.597 105.974 254.492C105.606 254.396 105.388 254.022 105.488 253.656C105.488 253.656 105.499 252.715 105.919 251.32C105.991 251.076 106.086 250.841 106.204 250.588C106.313 250.361 106.441 250.126 106.601 249.908C106.826 249.603 107.093 249.307 107.399 249.028C108.049 248.436 108.781 247.913 109.667 247.451C109.965 247.215 110.401 247.268 110.64 247.564C110.877 247.86 110.828 248.296 110.529 248.531C110.226 248.897 110.005 249.263 109.758 249.638C109.367 250.222 109.109 250.815 108.799 251.346C108.687 251.538 108.557 251.712 108.437 251.878C108.302 252.07 108.162 252.226 108.033 252.401C107.27 253.368 106.824 254.013 106.824 254.013Z" fill="#1D64F3"/>
<path fill-rule="evenodd" clip-rule="evenodd" d="M100.627 238.954C100.247 238.989 99.9117 238.701 99.8809 238.327C99.8493 237.952 100.132 237.621 100.514 237.586C100.514 237.586 101.468 237.255 102.896 237.011C103.154 236.967 103.42 236.941 103.703 236.924C103.966 236.906 104.24 236.906 104.515 236.932C104.919 236.967 105.322 237.054 105.727 237.159C106.73 237.412 107.665 237.76 108.476 238.205C108.838 238.318 109.034 238.71 108.913 239.068C108.792 239.425 108.399 239.625 108.037 239.503C107.217 239.39 106.327 239.468 105.402 239.503C105.043 239.521 104.69 239.547 104.341 239.538C104.099 239.538 103.862 239.512 103.633 239.486C103.317 239.451 103.024 239.39 102.741 239.346C101.48 239.128 100.627 238.954 100.627 238.954Z" fill="#1D64F3"/>
</g>
<path fill-rule="evenodd" clip-rule="evenodd" d="M87.1436 87.3002C86.8985 87.314 86.5072 87.3474 86.1589 87.4282C82.2449 88.3327 73.6179 92.6305 64.2421 95.5716C58.4804 97.3786 52.4399 98.6535 47.0265 98.4712C46.9735 98.6781 46.8629 99.1432 46.8464 99.5117C46.8364 99.7314 46.8354 99.9649 46.8409 100.212C46.8976 102.518 47.576 105.817 48.4756 109.128C49.8873 114.33 51.8173 119.601 52.9391 121.06C53.0122 121.089 53.2088 121.148 53.3615 121.168C53.7994 121.227 54.3516 121.217 54.9998 121.168C57.824 120.932 62.2545 119.808 67.0041 118.36C76.3424 115.513 86.894 111.434 88.9556 110.103C89.2939 109.877 89.7373 109.995 89.9467 110.36C90.1561 110.724 90.0509 111.197 89.7126 111.424C87.3657 113.03 73.959 118.636 63.8097 121.7C59.9405 122.873 56.5331 123.651 54.3635 123.759C52.7315 123.838 51.6463 123.405 51.1764 122.843C50.5053 122.045 49.5033 120.045 48.4866 117.463C47.011 113.71 45.4421 108.694 44.6485 104.576C44.0305 101.367 43.9564 98.6506 44.5077 97.2672C44.9886 96.0603 45.8179 95.4652 46.9753 95.5125C52.8074 95.7952 59.4148 94.2099 65.5825 92.2472C73.0639 89.8658 79.9072 86.9012 83.9775 85.6627C85.8407 85.0961 87.2158 84.9246 87.9326 85.1493C88.7664 85.4114 89.186 85.9799 89.176 86.8815C89.1449 89.5328 89.4457 92.6719 89.8672 95.7351C90.8015 102.538 92.3375 108.97 92.3375 108.97C92.4436 109.384 92.2177 109.808 91.8347 109.916C91.4507 110.034 91.0548 109.788 90.9487 109.374C90.9487 109.374 89.2007 102.915 88.0725 96.0494C87.5788 93.0433 87.2103 89.9604 87.1436 87.3002Z" fill="#25272C"/>
<path fill-rule="evenodd" clip-rule="evenodd" d="M45.1379 100.585C44.7859 100.385 44.6506 99.9155 44.8353 99.5372C45.02 99.1578 45.4552 99.0111 45.8072 99.2101C45.8072 99.2101 53.6031 103.184 59.6363 105.591C62.103 106.566 64.2241 107.354 65.2847 107.236C66.1404 107.167 67.2293 106.546 68.4919 105.689C70.0059 104.674 71.7055 103.303 73.4244 101.796C79.1065 96.8149 84.9578 90.4106 84.9578 90.4106C85.2257 90.0933 85.681 90.0706 85.9754 90.3583C86.2689 90.647 86.2899 91.1387 86.0229 91.455C86.0229 91.455 83.3286 94.9182 79.8004 98.8386C77.6949 101.179 75.2968 103.675 73.0084 105.709C71.6013 106.96 70.2308 108.034 68.9957 108.793C67.6654 109.621 66.4549 110.074 65.4986 110.162C64.9235 110.202 64.1126 110.093 63.1444 109.818C61.9138 109.463 60.3696 108.852 58.712 108.083C52.7236 105.295 45.1379 100.585 45.1379 100.585Z" fill="#1D64F3"/>
<path fill-rule="evenodd" clip-rule="evenodd" d="M40.4425 93.0066C40.7707 92.7662 41.2196 92.8578 41.4427 93.2125C41.6658 93.5662 41.5808 94.049 41.2516 94.2904C41.2516 94.2904 40.2962 95.3081 39.1232 96.7141C38.6981 97.2235 38.262 97.7851 37.8158 98.3586C37.5388 98.7152 37.2654 99.0769 36.9966 99.4325C36.5944 99.9636 36.1958 100.466 35.9142 101.005C35.4241 101.947 35.1169 102.883 35.6911 103.817C35.9498 104.142 35.916 104.635 35.6152 104.911C35.3144 105.196 34.8591 105.157 34.5994 104.832C33.3204 103.593 33.2034 101.98 33.6175 100.287C33.7629 99.6946 34.0143 99.1094 34.3179 98.5241C34.5327 98.1074 34.7814 97.6955 35.0694 97.3102C35.479 96.7614 35.9526 96.256 36.4417 95.7998C36.9518 95.3239 37.4721 94.9091 37.9713 94.5505C39.3454 93.5622 40.4425 93.0066 40.4425 93.0066Z" fill="#25272C"/>
<path fill-rule="evenodd" clip-rule="evenodd" d="M21.3766 181.282C21.6295 181.265 21.8039 181.539 21.7662 181.894C21.7284 182.249 21.4924 182.55 21.2399 182.566C20.1197 182.66 19.0116 182.114 18.4076 181.373C17.8867 180.735 17.749 179.914 17.9813 179.189C18.1995 178.511 18.5712 178.08 19.0358 177.805C19.6915 177.416 20.5968 177.423 21.3578 177.281C21.5254 177.249 21.683 177.208 21.8243 177.142C21.9309 177.094 22.0304 177.047 22.0726 176.909C22.1987 176.496 21.9761 176.273 21.7464 176.028C21.2081 175.456 20.3995 175.015 19.9318 174.45C19.5233 173.955 19.3407 173.352 19.4302 172.661C19.4903 172.199 19.6317 171.838 19.8139 171.547C20.0676 171.143 20.428 170.865 20.8745 170.726C21.6294 170.489 22.739 170.708 23.6822 170.656C23.9374 170.641 24.1759 170.607 24.3793 170.507C24.4741 170.46 24.5594 170.403 24.6016 170.273C24.6516 170.12 24.6023 170.014 24.5407 169.912C24.4502 169.761 24.3231 169.63 24.181 169.501C23.5088 168.889 22.5653 168.359 22.1291 167.587C21.7962 166.997 21.6842 166.294 21.9166 165.418C22.1285 164.625 22.614 164.047 23.3079 163.702C24.073 163.32 25.152 163.222 26.0496 162.984C26.3151 162.914 26.5606 162.834 26.7655 162.711C26.8609 162.653 26.9596 162.63 26.9885 162.513C27.0054 162.445 27.0293 162.391 27.0159 162.35C26.9928 162.279 26.9338 162.249 26.8718 162.211C26.771 162.153 26.6525 162.111 26.5241 162.075C25.7094 161.855 24.5976 161.854 24.0388 161.365C23.592 160.973 23.3663 160.371 23.5743 159.371C23.7363 158.593 24.0744 158.081 24.5248 157.734C25.0696 157.315 25.8331 157.191 26.5427 157.023C26.8158 156.957 27.0782 156.887 27.3016 156.749C27.4467 156.659 27.5763 156.547 27.6392 156.335C27.8711 155.554 27.558 154.75 27.1539 154.071C26.6778 153.271 26.0282 152.645 25.5986 152.551C25.3568 152.502 25.228 152.178 25.311 151.826C25.394 151.475 25.6575 151.229 25.8993 151.277C26.5448 151.393 27.6364 152.339 28.2558 153.593C28.7145 154.521 28.8931 155.615 28.6094 156.636C28.4164 157.329 28.0518 157.782 27.5826 158.089C27.0342 158.448 26.2972 158.557 25.6318 158.755C25.4205 158.818 25.2185 158.893 25.041 159.004C24.8781 159.105 24.7436 159.25 24.6934 159.511C24.6067 159.962 24.898 160.013 25.1904 160.096C25.6094 160.208 26.119 160.236 26.5774 160.305C27.006 160.37 27.3931 160.481 27.6717 160.68C28.1976 161.053 28.4421 161.678 28.1885 162.764C28.0035 163.557 27.5171 164.13 26.8085 164.477C26.0543 164.846 24.9821 164.954 24.09 165.221C23.8304 165.3 23.5905 165.39 23.3903 165.522C23.2975 165.583 23.206 165.626 23.1754 165.743C23.1231 165.943 23.1675 166.096 23.2407 166.232C23.3249 166.389 23.4442 166.524 23.5776 166.655C24.2311 167.297 25.172 167.798 25.6151 168.496C26.004 169.109 26.1192 169.84 25.8146 170.76C25.5191 171.646 24.9833 172.16 24.28 172.374C23.4663 172.622 22.3597 172.4 21.4558 172.41C21.2451 172.413 21.0493 172.427 20.8779 172.482C20.788 172.511 20.6969 172.523 20.6782 172.655C20.6618 172.769 20.7185 172.846 20.7744 172.934C20.887 173.113 21.0441 173.273 21.2192 173.43C21.8674 174.012 22.6973 174.564 23.0489 175.31C23.3124 175.869 23.3808 176.514 23.1267 177.298C22.8973 178.006 22.4805 178.444 21.922 178.665C21.2904 178.916 20.4224 178.843 19.6878 179.015C19.3635 179.091 19.0574 179.167 18.9191 179.571C18.8734 179.705 18.9242 179.828 18.985 179.961C19.1239 180.262 19.3758 180.538 19.6892 180.76C20.16 181.093 20.7639 181.308 21.3766 181.282Z" fill="#1D64F3"/>
</g>
<defs>
<clipPath id="clip0_2324_2780">
<rect width="256" height="256" fill="white"/>
</clipPath>
<clipPath id="clip1_2324_2780">
<rect width="245.029" height="268" fill="white" transform="translate(29.5751 35)"/>
</clipPath>
</defs>
</svg>
