<svg width="1440" height="560" viewBox="0 0 1440 560" fill="none" xmlns="http://www.w3.org/2000/svg">
<g clip-path="url(#clip0_3015_3505)">
<path fill-rule="evenodd" clip-rule="evenodd" d="M546.977 261.454L728.082 151.516C729.135 150.878 730.399 150.878 731.482 151.48C731.482 151.48 791.088 184.419 842.629 213.179C881.986 235.103 916.618 254.618 916.618 254.618C918.514 255.681 919.537 258.125 919.085 260.533C918.634 262.942 916.829 264.642 914.722 264.677C914.722 264.677 845.999 265.315 768.07 265.775C665.979 266.413 548.06 266.732 548.06 266.732C546.977 266.732 545.985 265.846 545.744 264.606C545.473 263.331 545.984 262.057 546.977 261.454ZM558.532 260.923C589.583 260.25 684.122 258.231 767.979 256.637C820.906 255.645 869.559 254.831 895.375 254.406C881.534 246.649 860.924 235.067 838.839 222.565C792.532 196.39 739.847 166.391 729.827 160.654L558.532 260.923Z" fill="#B5BBC4"/>
<path fill-rule="evenodd" clip-rule="evenodd" d="M458.881 277.71C457.707 278.383 456.263 277.816 455.691 276.435C455.09 275.089 455.571 273.389 456.745 272.716C456.745 272.716 544.213 219.588 620.096 173.898C639.624 162.175 658.37 150.948 674.678 141.243C706.782 122.117 729.349 108.871 729.349 108.871C730.643 108.091 732.177 108.091 733.441 108.906C733.441 108.906 779.236 137.241 831.049 169.649C898.93 212.115 977.16 261.453 977.16 261.453C978.304 262.197 978.755 263.861 978.153 265.243C977.551 266.588 976.137 267.12 974.964 266.411C974.964 266.411 895.83 219.057 827.438 177.794C781.703 150.204 740.783 125.269 731.335 119.532C725.107 123.215 705.158 135.009 678.649 150.558C662.281 160.157 643.445 171.136 623.767 182.541C547.312 226.885 458.881 277.71 458.881 277.71Z" fill="#B5BBC4"/>
<path fill-rule="evenodd" clip-rule="evenodd" d="M1102.53 290.003L1085.8 327.13C1085.38 328.086 1084.53 328.689 1083.62 328.725C1083.62 328.725 858.196 332.418 663.033 335.175C514.03 337.305 382.619 338.86 382.619 338.86C381.388 338.895 380.156 338.259 379.312 337.197L345.871 294.96C344.641 293.402 344.325 291.171 345.029 289.223C345.734 287.31 347.353 286.069 349.147 286.033C349.147 286.033 489.952 285.714 649.685 285.666C858.85 285.595 1100.45 285.897 1100.45 285.897C1101.26 285.896 1102.04 286.391 1102.49 287.241C1102.92 288.091 1102.95 289.153 1102.53 290.003ZM1096.48 291.493C1064.25 291.794 843.119 293.607 649.68 294.91C515.526 295.794 394.67 296.423 359.487 296.583L384.523 328.269C401.482 328.085 524.625 326.816 662.967 325.718C848.912 324.206 1062.33 322.927 1082.07 322.811L1096.48 291.493Z" fill="#B5BBC4"/>
<path fill-rule="evenodd" clip-rule="evenodd" d="M413.265 283.412C412.122 284.121 410.677 283.59 410.076 282.209C409.474 280.863 409.925 279.162 411.068 278.454C411.068 278.454 512.859 214.418 601.139 159.378C668.569 117.336 728.144 80.6073 728.144 80.6073C729.408 79.8281 730.882 79.7926 732.176 80.5364C732.176 80.5364 795.422 116.203 867.004 157.04C960.76 210.486 1068.87 272.681 1068.87 272.681C1070.07 273.354 1070.55 275.019 1069.98 276.4C1069.44 277.781 1068.03 278.383 1066.82 277.71C1066.82 277.71 957.811 217.782 863.573 165.505C799.183 129.768 741.684 97.6081 730.31 91.2328C719.418 97.9269 665.409 131.008 604.87 167.737C516.048 221.643 413.265 283.412 413.265 283.412Z" fill="#B5BBC4"/>
<path fill-rule="evenodd" clip-rule="evenodd" d="M374.57 363.601C373.246 363.601 372.193 362.325 372.193 360.802C372.193 359.244 373.276 358.004 374.57 358.004C374.57 358.004 465.198 357.296 580.588 357.119C624.006 357.048 670.975 357.012 717.913 357.296C764.852 357.544 811.82 358.11 855.238 358.642C970.629 360.023 1061.23 361.582 1061.23 361.582C1062.55 361.582 1063.6 362.857 1063.6 364.38C1063.57 365.903 1062.52 367.178 1061.2 367.143C1061.2 367.143 970.599 367.745 855.209 367.957C811.76 368.028 764.822 368.134 717.883 367.886C670.915 367.674 623.976 367.143 580.558 366.647C465.168 365.265 374.57 363.601 374.57 363.601Z" fill="#B5BBC4"/>
<path fill-rule="evenodd" clip-rule="evenodd" d="M372.672 362.467C371.89 361.228 372.1 359.492 373.153 358.571C374.206 357.65 375.681 357.898 376.463 359.138L408.117 408.759C408.478 409.325 408.658 410.034 408.658 410.742C408.658 410.742 408.628 494.755 408.448 578.767C408.297 662.779 407.966 746.791 407.966 746.791C407.936 748.385 407.334 749.837 406.281 750.829L387.446 768.042L475.666 768.786L460.11 750.333C459.328 749.412 458.876 748.137 458.876 746.791C458.876 746.791 458.816 683.853 458.846 612.449C458.906 518.945 459.117 410.99 459.117 410.99C459.117 410.211 459.358 409.432 459.779 408.865L496.006 359.634C496.879 358.465 498.353 358.323 499.346 359.315C500.369 360.342 500.459 362.078 499.617 363.247L464.623 412.124C464.744 424.095 465.706 524.648 466.459 612.414C466.97 676.132 467.392 733.155 467.452 744.631L489.507 770.38C490.771 771.903 491.131 774.134 490.439 776.082C489.747 778.03 488.123 779.306 486.347 779.27L374.537 778.42C372.642 778.385 370.957 776.968 370.355 774.843C369.723 772.718 370.355 770.38 371.83 769.034L399.271 744.206C399.421 729.684 400.173 654.172 401.046 578.696C401.948 500.209 402.971 421.686 403.122 411.734L372.672 362.467Z" fill="#B5BBC4"/>
<path fill-rule="evenodd" clip-rule="evenodd" d="M405.895 413.504C404.571 413.504 403.518 412.229 403.518 410.706C403.518 409.148 404.601 407.908 405.895 407.908C405.895 407.908 413.236 406.774 422.714 406.031C426.235 405.747 430.056 405.499 433.907 405.535C437.729 405.57 441.55 405.925 445.1 406.243C454.548 407.093 461.89 408.191 461.89 408.191C463.184 408.191 464.237 409.431 464.237 410.99C464.237 412.513 463.184 413.752 461.86 413.752C461.86 413.752 454.548 414.78 445.07 415.524C441.52 415.842 437.698 416.161 433.877 416.161C430.026 416.161 426.205 415.842 422.684 415.524C413.206 414.709 405.895 413.504 405.895 413.504Z" fill="#B5BBC4"/>
<path fill-rule="evenodd" clip-rule="evenodd" d="M391.599 390.802C390.305 390.767 389.252 389.527 389.282 387.968C389.282 386.445 390.365 385.205 391.659 385.205C391.659 385.205 403.002 384.143 417.535 383.541C422.981 383.293 428.878 383.116 434.776 383.187C440.673 383.257 446.541 383.682 452.017 384.037C466.52 384.993 477.833 386.197 477.833 386.197C479.157 386.233 480.21 387.473 480.18 389.031C480.18 390.554 479.097 391.794 477.803 391.794C477.803 391.794 466.46 392.714 451.927 393.352C446.481 393.6 440.583 393.848 434.686 393.812C428.788 393.742 422.891 393.423 417.445 393.069C402.942 392.113 391.599 390.802 391.599 390.802Z" fill="#B5BBC4"/>
<path fill-rule="evenodd" clip-rule="evenodd" d="M423.823 438.191C423.823 436.632 424.907 435.393 426.201 435.428C427.524 435.428 428.577 436.668 428.577 438.226C428.577 438.226 429.45 474.494 429.931 520.75C430.142 538.176 430.293 556.984 430.232 575.791C430.142 594.598 429.781 613.405 429.48 630.831C428.638 677.052 427.585 713.356 427.585 713.356C427.585 714.879 426.532 716.118 425.208 716.118C423.914 716.118 422.861 714.879 422.861 713.32C422.861 713.32 422.078 677.016 421.567 630.76C421.356 613.369 421.146 594.563 421.206 575.755C421.266 556.948 421.567 538.141 421.868 520.715C422.68 474.459 423.823 438.191 423.823 438.191Z" fill="#B5BBC4"/>
<path fill-rule="evenodd" clip-rule="evenodd" d="M447.416 713.32C447.416 714.879 446.363 716.118 445.069 716.118C443.745 716.118 442.692 714.879 442.692 713.356C442.692 713.356 441.609 675.458 440.856 627.112C440.586 608.942 440.315 589.321 440.315 569.663C440.285 550.006 440.526 530.349 440.766 512.179C441.338 463.869 442.211 425.971 442.211 425.971C442.181 424.413 443.264 423.173 444.557 423.173C445.881 423.173 446.934 424.413 446.934 425.936C446.934 425.936 447.898 463.869 448.68 512.144C448.951 530.349 449.282 549.971 449.312 569.628C449.372 589.285 449.161 608.942 448.951 627.112C448.349 675.422 447.416 713.32 447.416 713.32Z" fill="#B5BBC4"/>
<path fill-rule="evenodd" clip-rule="evenodd" d="M505.729 363.14C504.977 361.865 505.217 360.13 506.27 359.244C507.323 358.323 508.828 358.607 509.58 359.882L542.076 412.23C542.437 412.796 542.617 413.47 542.617 414.178C542.617 414.178 542.858 497.305 542.948 580.467C543.039 663.629 542.948 746.791 542.948 746.791C542.948 748.243 542.437 749.59 541.534 750.581L524.233 769.034L608.06 771.974L591.482 750.156C590.76 749.235 590.369 748.031 590.369 746.756C590.369 746.756 590.609 684.633 591 614.15C591.512 521.885 592.234 415.276 592.234 415.276C592.234 414.497 592.475 413.717 592.926 413.151L632.342 360.342C633.215 359.173 634.689 359.032 635.682 360.059C636.675 361.051 636.795 362.822 635.923 363.99L597.83 416.48C597.86 428.452 598.342 527.588 598.643 614.185C598.853 677.266 598.974 733.687 599.004 744.773L621.57 774.064C622.744 775.587 623.045 777.853 622.292 779.731C621.54 781.643 619.915 782.812 618.14 782.777L512.95 779.128C511.114 779.093 509.52 777.712 508.888 775.728C508.256 773.709 508.738 771.443 510.092 770.026L534.253 744.454C534.343 730.57 534.855 655.519 535.486 580.432C536.148 502.688 536.931 424.981 537.051 415.17L505.729 363.14Z" fill="#B5BBC4"/>
<path fill-rule="evenodd" clip-rule="evenodd" d="M539.788 416.941C538.494 416.905 537.441 415.63 537.471 414.107C537.471 412.548 538.554 411.344 539.878 411.344C539.878 411.344 547.1 410.317 556.457 409.75C559.948 409.502 563.739 409.325 567.5 409.396C571.291 409.502 575.052 409.927 578.542 410.282C587.87 411.273 595.061 412.513 595.061 412.513C596.385 412.513 597.408 413.788 597.408 415.347C597.378 416.87 596.295 418.109 595.001 418.074C595.001 418.074 587.75 418.995 578.392 419.597C574.902 419.81 571.141 420.093 567.349 420.022C563.558 419.951 559.797 419.597 556.307 419.243C546.979 418.251 539.788 416.941 539.788 416.941Z" fill="#B5BBC4"/>
<path fill-rule="evenodd" clip-rule="evenodd" d="M525.859 394.273C524.565 394.202 523.542 392.891 523.602 391.333C523.662 389.81 524.775 388.606 526.069 388.676C526.069 388.676 537.082 388.074 551.163 388.039C556.429 388.039 562.146 388.074 567.833 388.393C573.55 388.712 579.236 389.35 584.472 389.916C598.493 391.475 609.415 393.104 609.415 393.104C610.709 393.175 611.732 394.485 611.672 396.008C611.612 397.567 610.498 398.736 609.205 398.665C609.205 398.665 598.192 399.161 584.141 399.232C578.845 399.232 573.128 399.267 567.441 398.983C561.725 398.7 556.038 398.133 550.802 397.567C536.781 396.008 525.859 394.273 525.859 394.273Z" fill="#B5BBC4"/>
<path fill-rule="evenodd" clip-rule="evenodd" d="M559.885 442.371C559.885 440.848 560.939 439.608 562.263 439.608C563.556 439.608 564.609 440.883 564.609 442.406C564.609 442.406 565.452 478.143 565.933 523.691C566.114 540.834 566.264 559.357 566.174 577.881C566.084 596.405 565.723 614.929 565.392 632.071C564.519 677.619 563.466 713.357 563.466 713.357C563.436 714.88 562.383 716.154 561.059 716.119C559.765 716.119 558.712 714.844 558.712 713.321C558.712 713.321 557.96 677.584 557.478 632.036C557.298 614.893 557.087 596.37 557.147 577.846C557.207 559.322 557.538 540.798 557.869 523.656C558.712 478.108 559.885 442.371 559.885 442.371Z" fill="#B5BBC4"/>
<path fill-rule="evenodd" clip-rule="evenodd" d="M582.395 720.298C582.395 721.856 581.342 723.096 580.019 723.096C578.725 723.096 577.672 721.821 577.672 720.298C577.672 720.298 576.769 682.471 576.227 634.267C576.017 616.132 575.836 596.511 575.926 576.889C575.986 557.303 576.318 537.681 576.618 519.547C577.431 471.343 578.454 433.516 578.454 433.516C578.454 431.993 579.507 430.753 580.831 430.753C582.124 430.753 583.178 431.993 583.178 433.551C583.178 433.551 583.99 471.378 584.532 519.582C584.743 537.716 584.983 557.338 584.923 576.924C584.893 596.546 584.622 616.132 584.321 634.267C583.509 682.506 582.395 720.298 582.395 720.298Z" fill="#B5BBC4"/>
<path fill-rule="evenodd" clip-rule="evenodd" d="M642.724 363.954C641.912 362.75 642.092 360.979 643.115 360.023C644.138 359.067 645.613 359.279 646.425 360.483L681.809 412.123C682.2 412.69 682.411 413.434 682.411 414.177C682.411 414.177 682.531 498.261 682.501 582.344C682.471 666.462 682.291 750.545 682.291 750.545C682.291 751.962 681.779 753.343 680.877 754.299L664.9 771.655L748.336 775.161L731.667 753.343C730.945 752.422 730.553 751.218 730.553 749.943C730.553 749.943 730.583 686.757 730.734 615.105C730.914 521.247 731.306 412.831 731.306 412.831C731.306 411.981 731.577 411.167 732.088 410.565L773.219 360.944C774.122 359.846 775.626 359.81 776.559 360.873C777.492 361.935 777.522 363.706 776.619 364.804L736.872 414.106C736.962 426.645 737.775 527.233 738.377 615.07C738.798 679.319 739.129 736.768 739.189 747.96L761.936 777.321C763.109 778.88 763.41 781.111 762.658 783.024C761.906 784.936 760.251 786.106 758.476 786.035L653.767 781.678C651.962 781.607 650.367 780.261 649.735 778.278C649.133 776.259 649.584 774.028 650.908 772.575L673.595 748.243C673.716 734.324 674.318 658.316 675.07 582.308C675.822 503.892 676.724 425.511 676.845 415.275L642.724 363.954Z" fill="#B5BBC4"/>
<path fill-rule="evenodd" clip-rule="evenodd" d="M664.265 394.273C662.971 394.237 661.918 392.962 661.948 391.404C661.978 389.881 663.061 388.641 664.385 388.676C664.385 388.676 675.638 387.791 690.05 387.366C695.436 387.224 701.274 387.083 707.141 387.26C712.978 387.437 718.786 387.933 724.202 388.358C738.584 389.527 749.777 390.908 749.777 390.908C751.101 390.943 752.124 392.219 752.094 393.741C752.064 395.264 750.981 396.504 749.687 396.469C749.687 396.469 738.434 397.248 724.021 397.673C718.605 397.85 712.768 398.027 706.93 397.886C701.093 397.744 695.256 397.319 689.87 396.894C675.488 395.725 664.265 394.273 664.265 394.273Z" fill="#B5BBC4"/>
<path fill-rule="evenodd" clip-rule="evenodd" d="M679.674 416.94C678.38 416.976 677.296 415.736 677.266 414.213C677.236 412.654 678.289 411.379 679.583 411.344C679.583 411.344 686.684 409.998 695.891 409.006C699.322 408.616 703.022 408.262 706.754 408.191C710.485 408.12 714.216 408.333 717.676 408.581C726.883 409.148 734.044 410.033 734.044 410.033C735.338 409.998 736.421 411.237 736.451 412.76C736.481 414.319 735.428 415.594 734.134 415.63C734.134 415.63 727.033 416.87 717.826 417.897C714.396 418.251 710.665 418.676 706.934 418.782C703.233 418.888 699.502 418.711 696.042 418.499C686.804 417.932 679.674 416.94 679.674 416.94Z" fill="#B5BBC4"/>
<path fill-rule="evenodd" clip-rule="evenodd" d="M699.08 441.237C699.08 439.714 700.134 438.439 701.458 438.474C702.751 438.474 703.805 439.714 703.805 441.273C703.805 441.273 704.677 477.506 705.189 523.691C705.369 541.046 705.55 559.853 705.459 578.625C705.369 597.432 705.038 616.203 704.707 633.558C703.865 679.744 702.842 715.977 702.842 715.977C702.842 717.5 701.759 718.775 700.465 718.775C699.141 718.739 698.088 717.5 698.088 715.942C698.088 715.942 697.335 679.709 696.794 633.523C696.613 616.168 696.402 597.361 696.433 578.589C696.493 559.818 696.794 541.01 697.095 523.655C697.937 477.47 699.08 441.237 699.08 441.237Z" fill="#B5BBC4"/>
<path fill-rule="evenodd" clip-rule="evenodd" d="M720.258 719.944C720.258 721.502 719.204 722.741 717.881 722.741C716.587 722.741 715.534 721.502 715.534 719.944C715.534 719.944 714.511 681.373 713.849 632.212C713.608 613.688 713.367 593.713 713.367 573.701C713.397 553.69 713.668 533.714 713.939 515.19C714.601 466.029 715.534 427.459 715.534 427.459C715.534 425.9 716.587 424.661 717.881 424.661C719.204 424.661 720.258 425.9 720.258 427.459C720.258 427.459 721.16 466.029 721.852 515.19C722.093 533.714 722.394 553.69 722.394 573.701C722.424 593.713 722.184 613.688 721.943 632.212C721.251 681.373 720.258 719.944 720.258 719.944Z" fill="#B5BBC4"/>
<path fill-rule="evenodd" clip-rule="evenodd" d="M787.328 364.698C786.515 363.458 786.696 361.723 787.719 360.767C788.742 359.81 790.216 360.023 791.029 361.227L825.601 412.123C825.992 412.69 826.202 413.434 826.202 414.177C826.202 414.177 826.383 498.119 826.383 582.06C826.413 666.002 826.263 749.979 826.263 749.979C826.263 751.431 825.721 752.812 824.788 753.804L806.675 772.576L891.736 771.194L876.571 753.556C875.729 752.6 875.277 751.324 875.277 749.979C875.277 749.979 875.217 687.04 875.277 615.672C875.337 522.239 875.578 414.284 875.578 414.284C875.578 413.469 875.819 412.69 876.3 412.088L915.205 361.758C916.078 360.59 917.582 360.519 918.545 361.546C919.538 362.573 919.598 364.344 918.726 365.477L881.145 415.488C881.235 427.707 882.198 528.047 882.89 615.637C883.431 679.284 883.822 736.201 883.882 747.783L905.456 772.54C906.72 773.992 907.141 776.224 906.479 778.172C905.787 780.12 904.192 781.43 902.417 781.466L794.76 783.237C792.864 783.272 791.179 781.926 790.517 779.872C789.855 777.817 790.336 775.48 791.751 774.028L817.567 747.57C817.687 733.509 818.259 657.749 818.951 582.025C819.673 503.715 820.516 425.441 820.636 415.24L787.328 364.698Z" fill="#B5BBC4"/>
<path fill-rule="evenodd" clip-rule="evenodd" d="M807.939 393.812C806.616 393.776 805.562 392.537 805.592 390.978C805.592 389.455 806.676 388.215 807.97 388.215C807.97 388.215 819.463 387.188 834.207 386.586C839.713 386.338 845.701 386.126 851.658 386.232C857.646 386.303 863.604 386.728 869.14 387.082C883.854 388.039 895.317 389.243 895.317 389.243C896.641 389.278 897.694 390.518 897.664 392.077C897.664 393.599 896.581 394.839 895.287 394.839C895.287 394.839 883.763 395.76 869.05 396.397C863.513 396.645 857.556 396.893 851.568 396.822C845.61 396.787 839.623 396.433 834.117 396.079C819.403 395.122 807.939 393.812 807.939 393.812Z" fill="#B5BBC4"/>
<path fill-rule="evenodd" clip-rule="evenodd" d="M823.432 416.94C822.108 416.94 821.055 415.665 821.055 414.142C821.055 412.619 822.138 411.343 823.432 411.343C823.432 411.343 830.623 410.21 839.92 409.431C843.38 409.148 847.142 408.864 850.903 408.899C854.664 408.935 858.395 409.253 861.885 409.572C871.183 410.387 878.344 411.485 878.344 411.485C879.668 411.485 880.721 412.725 880.721 414.284C880.721 415.807 879.637 417.081 878.344 417.081C878.344 417.081 871.152 418.109 861.855 418.888C858.395 419.171 854.634 419.526 850.873 419.526C847.111 419.526 843.38 419.242 839.89 418.923C830.593 418.144 823.432 416.94 823.432 416.94Z" fill="#B5BBC4"/>
<path fill-rule="evenodd" clip-rule="evenodd" d="M843.114 440.883C843.114 439.36 844.197 438.12 845.491 438.12C846.815 438.156 847.868 439.395 847.838 440.953C847.838 440.953 848.53 477.08 848.801 523.159C848.891 540.479 848.951 559.215 848.771 577.952C848.59 596.688 848.139 615.424 847.747 632.744C846.664 678.788 845.431 714.914 845.431 714.914C845.401 716.473 844.348 717.712 843.024 717.677C841.73 717.677 840.677 716.402 840.677 714.879C840.677 714.879 840.105 678.717 839.834 632.673C839.714 615.318 839.594 596.582 839.744 577.845C839.894 559.109 840.316 540.373 840.707 523.053C841.79 477.009 843.114 440.883 843.114 440.883Z" fill="#B5BBC4"/>
<path fill-rule="evenodd" clip-rule="evenodd" d="M864.746 720.014C864.746 721.572 863.693 722.811 862.369 722.811C861.076 722.776 860.022 721.537 860.022 720.014C860.022 720.014 859.21 681.266 858.789 631.893C858.638 613.334 858.488 593.252 858.608 573.169C858.729 553.087 859.119 533.005 859.45 514.446C860.383 465.073 861.467 426.36 861.467 426.36C861.497 424.802 862.55 423.562 863.844 423.562C865.168 423.598 866.22 424.837 866.22 426.396C866.22 426.396 866.943 465.108 867.364 514.481C867.514 533.076 867.725 553.158 867.635 573.205C867.545 593.287 867.214 613.369 866.883 631.964C865.95 681.301 864.746 720.014 864.746 720.014Z" fill="#B5BBC4"/>
<path fill-rule="evenodd" clip-rule="evenodd" d="M936.294 365.407C935.512 364.203 935.723 362.432 936.746 361.511C937.799 360.59 939.273 360.802 940.085 362.042L972.882 412.194C973.243 412.761 973.454 413.434 973.454 414.142C973.454 414.142 973.755 498.119 973.905 582.061C974.056 666.002 974.026 749.943 974.026 749.943C974.026 751.466 973.484 752.883 972.521 753.839L954.528 772.009L1038.78 772.47L1023.7 753.414C1022.95 752.458 1022.53 751.254 1022.53 749.943C1022.53 749.943 1022.59 687.005 1022.77 615.637C1022.98 522.133 1023.4 414.142 1023.4 414.142C1023.4 413.399 1023.61 412.655 1024.03 412.088L1059.39 362.573C1060.23 361.404 1061.73 361.227 1062.73 362.219C1063.72 363.211 1063.87 364.946 1063.03 366.151L1028.91 415.276C1029.03 427.105 1029.81 527.764 1030.38 615.602C1030.8 679.496 1031.07 736.626 1031.13 747.925L1052.23 774.17C1053.43 775.693 1053.76 777.924 1053.04 779.837C1052.35 781.749 1050.75 782.953 1048.98 782.953L942.553 782.422C940.687 782.422 939.002 781.041 938.371 778.986C937.739 776.897 938.25 774.595 939.664 773.178L965.33 747.535C965.42 733.332 965.872 657.679 966.443 582.025C967.045 503.644 967.797 425.228 967.888 415.205L936.294 365.407Z" fill="#B5BBC4"/>
<path fill-rule="evenodd" clip-rule="evenodd" d="M956.336 394.697C955.012 394.697 953.959 393.422 953.989 391.899C953.989 390.341 955.072 389.101 956.396 389.136C956.396 389.136 967.529 388.109 981.821 387.507C987.177 387.259 992.954 387.047 998.761 387.153C1004.54 387.259 1010.31 387.649 1015.67 388.039C1029.96 388.995 1041.07 390.235 1041.07 390.235C1042.39 390.235 1043.44 391.51 1043.41 393.033C1043.41 394.591 1042.33 395.83 1041.04 395.795C1041.04 395.795 1029.87 396.716 1015.61 397.354C1010.22 397.566 1004.45 397.814 998.641 397.779C992.864 397.708 987.087 397.354 981.731 397C967.439 396.043 956.336 394.697 956.336 394.697Z" fill="#B5BBC4"/>
<path fill-rule="evenodd" clip-rule="evenodd" d="M970.688 416.94C969.364 416.94 968.311 415.7 968.311 414.141C968.311 412.618 969.364 411.343 970.688 411.343C970.688 411.343 977.939 410.174 987.327 409.395C990.817 409.112 994.608 408.828 998.43 408.828C1002.22 408.864 1006.01 409.182 1009.5 409.501C1018.89 410.28 1026.17 411.343 1026.17 411.343C1027.46 411.343 1028.52 412.618 1028.52 414.141C1028.52 415.7 1027.46 416.94 1026.17 416.94C1026.17 416.94 1018.89 418.002 1009.5 418.817C1006.01 419.1 1002.22 419.454 998.43 419.454C994.608 419.49 990.817 419.206 987.327 418.887C977.939 418.108 970.688 416.94 970.688 416.94Z" fill="#B5BBC4"/>
<path fill-rule="evenodd" clip-rule="evenodd" d="M991.15 441.662C991.18 440.104 992.263 438.899 993.557 438.899C994.851 438.935 995.904 440.21 995.874 441.769C995.874 441.769 996.325 477.824 996.265 523.762C996.265 541.046 996.205 559.711 995.904 578.412C995.603 597.078 995.001 615.778 994.489 633.027C993.105 678.965 991.631 714.986 991.631 714.986C991.601 716.509 990.518 717.748 989.224 717.713C987.9 717.677 986.877 716.402 986.907 714.879C986.907 714.879 986.546 678.823 986.576 632.885C986.606 615.566 986.606 596.901 986.877 578.2C987.148 559.534 987.689 540.869 988.201 523.585C989.585 477.683 991.15 441.662 991.15 441.662Z" fill="#B5BBC4"/>
<path fill-rule="evenodd" clip-rule="evenodd" d="M1010.97 720.405C1010.94 721.928 1009.89 723.167 1008.57 723.167C1007.27 723.167 1006.22 721.892 1006.22 720.369C1006.22 720.369 1005.47 681.692 1005.14 632.389C1005.02 613.83 1004.9 593.784 1005.05 573.737C1005.2 553.69 1005.62 533.643 1005.98 515.119C1007 465.817 1008.15 427.176 1008.15 427.176C1008.18 425.618 1009.23 424.378 1010.55 424.413C1011.85 424.413 1012.9 425.688 1012.9 427.211C1012.9 427.211 1013.56 465.888 1013.89 515.19C1014.04 533.75 1014.19 553.761 1014.07 573.843C1013.95 593.89 1013.59 613.901 1013.2 632.46C1012.21 681.727 1010.97 720.405 1010.97 720.405Z" fill="#B5BBC4"/>
<path d="M80 329.988C80 325.57 83.5817 321.988 88 321.988H247C251.418 321.988 255 325.57 255 329.988V361.988C255 366.407 251.418 369.988 247 369.988H88C83.5817 369.988 80 366.407 80 361.988V329.988Z" fill="white"/>
<path d="M112 335.988C112.552 335.988 113 336.436 113 336.988V340.745L111 342.745V337.988H97V353.988H111V351.23L113 349.23V354.988C113 355.541 112.552 355.988 112 355.988H96C95.4477 355.988 95 355.541 95 354.988V336.988C95 336.436 95.4477 335.988 96 335.988H112ZM113.778 342.796L115.192 344.21L107.414 351.988L105.998 351.986L106 350.574L113.778 342.796ZM105 345.988V347.988H100V345.988H105ZM108 341.988V343.988H100V341.988H108Z" fill="#8D95A3"/>
<path d="M125.438 352.988V339.897H127.413V351.288H133.345V352.988H125.438ZM138.142 353.206C137.52 353.206 136.958 353.091 136.455 352.86C135.952 352.626 135.553 352.287 135.259 351.844C134.97 351.401 134.825 350.858 134.825 350.214C134.825 349.66 134.931 349.204 135.144 348.846C135.357 348.488 135.645 348.205 136.007 347.996C136.369 347.787 136.774 347.63 137.222 347.523C137.669 347.417 138.125 347.336 138.59 347.28C139.178 347.212 139.655 347.157 140.021 347.114C140.388 347.067 140.654 346.993 140.82 346.89C140.987 346.788 141.07 346.622 141.07 346.392V346.347C141.07 345.789 140.912 345.356 140.597 345.049C140.286 344.743 139.821 344.589 139.203 344.589C138.56 344.589 138.053 344.732 137.682 345.017C137.315 345.299 137.062 345.612 136.921 345.957L135.125 345.548C135.338 344.951 135.649 344.47 136.058 344.103C136.472 343.733 136.947 343.464 137.484 343.298C138.021 343.127 138.585 343.042 139.178 343.042C139.57 343.042 139.985 343.089 140.424 343.183C140.867 343.272 141.281 343.439 141.664 343.681C142.052 343.924 142.369 344.272 142.617 344.723C142.864 345.171 142.987 345.752 142.987 346.468V352.988H141.121V351.646H141.044C140.921 351.893 140.735 352.136 140.488 352.375C140.241 352.613 139.923 352.811 139.536 352.969C139.148 353.127 138.683 353.206 138.142 353.206ZM138.558 351.672C139.086 351.672 139.538 351.567 139.913 351.358C140.292 351.15 140.58 350.877 140.776 350.54C140.976 350.199 141.076 349.835 141.076 349.447V348.181C141.008 348.25 140.876 348.314 140.68 348.373C140.488 348.429 140.269 348.478 140.021 348.52C139.774 348.559 139.534 348.595 139.299 348.629C139.065 348.659 138.869 348.684 138.711 348.706C138.34 348.752 138.002 348.831 137.695 348.942C137.392 349.053 137.149 349.213 136.966 349.422C136.787 349.626 136.698 349.899 136.698 350.24C136.698 350.713 136.872 351.071 137.222 351.314C137.571 351.552 138.016 351.672 138.558 351.672ZM147.502 352.988L144.612 343.17H146.587L148.511 350.38H148.607L150.538 343.17H152.513L154.431 350.348H154.526L156.438 343.17H158.413L155.53 352.988H153.58L151.586 345.9H151.439L149.445 352.988H147.502ZM171.964 343.336C171.895 342.731 171.614 342.262 171.12 341.93C170.625 341.593 170.003 341.425 169.253 341.425C168.716 341.425 168.252 341.51 167.86 341.681C167.468 341.847 167.163 342.077 166.946 342.371C166.733 342.661 166.626 342.991 166.626 343.362C166.626 343.673 166.699 343.941 166.843 344.167C166.993 344.393 167.187 344.583 167.425 344.736C167.668 344.885 167.928 345.011 168.205 345.113C168.482 345.211 168.748 345.292 169.004 345.356L170.282 345.689C170.7 345.791 171.128 345.929 171.567 346.104C172.006 346.279 172.413 346.509 172.788 346.794C173.163 347.08 173.466 347.434 173.696 347.855C173.93 348.277 174.047 348.782 174.047 349.37C174.047 350.112 173.856 350.77 173.472 351.346C173.093 351.921 172.541 352.375 171.816 352.707C171.096 353.039 170.225 353.206 169.202 353.206C168.222 353.206 167.374 353.05 166.658 352.739C165.942 352.428 165.382 351.987 164.977 351.416C164.572 350.841 164.348 350.159 164.306 349.37H166.287C166.326 349.843 166.479 350.238 166.748 350.553C167.02 350.864 167.368 351.096 167.79 351.25C168.216 351.399 168.682 351.473 169.189 351.473C169.748 351.473 170.244 351.386 170.679 351.211C171.118 351.032 171.463 350.785 171.714 350.47C171.966 350.15 172.091 349.777 172.091 349.351C172.091 348.963 171.981 348.646 171.759 348.399C171.542 348.152 171.245 347.947 170.87 347.785C170.5 347.623 170.08 347.48 169.611 347.357L168.064 346.935C167.016 346.65 166.185 346.23 165.571 345.676C164.962 345.122 164.657 344.389 164.657 343.477C164.657 342.723 164.862 342.064 165.271 341.502C165.68 340.939 166.234 340.502 166.933 340.191C167.632 339.876 168.42 339.718 169.298 339.718C170.184 339.718 170.966 339.874 171.644 340.185C172.326 340.496 172.863 340.924 173.255 341.47C173.647 342.011 173.851 342.633 173.868 343.336H171.964ZM180.23 353.186C179.309 353.186 178.506 352.975 177.82 352.554C177.134 352.132 176.601 351.542 176.222 350.783C175.843 350.025 175.653 349.138 175.653 348.124C175.653 347.105 175.843 346.215 176.222 345.452C176.601 344.689 177.134 344.097 177.82 343.675C178.506 343.253 179.309 343.042 180.23 343.042C181.15 343.042 181.954 343.253 182.64 343.675C183.326 344.097 183.858 344.689 184.238 345.452C184.617 346.215 184.807 347.105 184.807 348.124C184.807 349.138 184.617 350.025 184.238 350.783C183.858 351.542 183.326 352.132 182.64 352.554C181.954 352.975 181.15 353.186 180.23 353.186ZM180.236 351.582C180.833 351.582 181.327 351.424 181.719 351.109C182.111 350.794 182.401 350.374 182.588 349.85C182.78 349.326 182.876 348.748 182.876 348.118C182.876 347.491 182.78 346.916 182.588 346.392C182.401 345.863 182.111 345.439 181.719 345.12C181.327 344.8 180.833 344.64 180.236 344.64C179.635 344.64 179.137 344.8 178.74 345.12C178.348 345.439 178.057 345.863 177.865 346.392C177.677 346.916 177.584 347.491 177.584 348.118C177.584 348.748 177.677 349.326 177.865 349.85C178.057 350.374 178.348 350.794 178.74 351.109C179.137 351.424 179.635 351.582 180.236 351.582ZM188.691 339.897V352.988H186.78V339.897H188.691ZM197.322 348.917V343.17H199.239V352.988H197.36V351.288H197.258C197.032 351.812 196.67 352.249 196.171 352.598C195.677 352.944 195.061 353.116 194.324 353.116C193.693 353.116 193.135 352.978 192.649 352.701C192.168 352.419 191.788 352.004 191.511 351.454C191.239 350.904 191.102 350.225 191.102 349.415V343.17H193.014V349.185C193.014 349.854 193.199 350.387 193.57 350.783C193.94 351.179 194.422 351.377 195.014 351.377C195.372 351.377 195.728 351.288 196.082 351.109C196.44 350.93 196.736 350.659 196.97 350.297C197.209 349.935 197.326 349.475 197.322 348.917ZM206.23 343.17V344.704H200.868V343.17H206.23ZM202.306 340.818H204.217V350.105C204.217 350.476 204.272 350.755 204.383 350.943C204.494 351.126 204.637 351.252 204.811 351.32C204.99 351.384 205.184 351.416 205.393 351.416C205.547 351.416 205.681 351.405 205.796 351.384C205.911 351.363 206 351.346 206.064 351.333L206.409 352.912C206.299 352.954 206.141 352.997 205.936 353.039C205.732 353.086 205.476 353.112 205.169 353.116C204.667 353.125 204.198 353.035 203.763 352.848C203.328 352.66 202.977 352.37 202.708 351.978C202.44 351.586 202.306 351.094 202.306 350.502V340.818ZM208.185 352.988V343.17H210.096V352.988H208.185ZM209.15 341.655C208.817 341.655 208.532 341.544 208.293 341.323C208.059 341.097 207.942 340.828 207.942 340.517C207.942 340.202 208.059 339.934 208.293 339.712C208.532 339.486 208.817 339.373 209.15 339.373C209.482 339.373 209.766 339.486 210 339.712C210.239 339.934 210.358 340.202 210.358 340.517C210.358 340.828 210.239 341.097 210 341.323C209.766 341.544 209.482 341.655 209.15 341.655ZM216.643 353.186C215.722 353.186 214.919 352.975 214.233 352.554C213.547 352.132 213.014 351.542 212.635 350.783C212.256 350.025 212.066 349.138 212.066 348.124C212.066 347.105 212.256 346.215 212.635 345.452C213.014 344.689 213.547 344.097 214.233 343.675C214.919 343.253 215.722 343.042 216.643 343.042C217.563 343.042 218.366 343.253 219.053 343.675C219.739 344.097 220.271 344.689 220.651 345.452C221.03 346.215 221.219 347.105 221.219 348.124C221.219 349.138 221.03 350.025 220.651 350.783C220.271 351.542 219.739 352.132 219.053 352.554C218.366 352.975 217.563 353.186 216.643 353.186ZM216.649 351.582C217.246 351.582 217.74 351.424 218.132 351.109C218.524 350.794 218.814 350.374 219.001 349.85C219.193 349.326 219.289 348.748 219.289 348.118C219.289 347.491 219.193 346.916 219.001 346.392C218.814 345.863 218.524 345.439 218.132 345.12C217.74 344.8 217.246 344.64 216.649 344.64C216.048 344.64 215.55 344.8 215.153 345.12C214.761 345.439 214.469 345.863 214.278 346.392C214.09 346.916 213.996 347.491 213.996 348.118C213.996 348.748 214.09 349.326 214.278 349.85C214.469 350.374 214.761 350.794 215.153 351.109C215.55 351.424 216.048 351.582 216.649 351.582ZM225.104 347.159V352.988H223.193V343.17H225.027V344.768H225.149C225.375 344.248 225.728 343.831 226.21 343.515C226.696 343.2 227.307 343.042 228.044 343.042C228.713 343.042 229.299 343.183 229.802 343.464C230.305 343.741 230.695 344.154 230.972 344.704C231.249 345.254 231.387 345.934 231.387 346.743V352.988H229.476V346.973C229.476 346.262 229.291 345.706 228.92 345.305C228.549 344.9 228.04 344.698 227.392 344.698C226.949 344.698 226.555 344.794 226.21 344.985C225.869 345.177 225.598 345.458 225.398 345.829C225.202 346.196 225.104 346.639 225.104 347.159ZM241.148 345.567L239.416 345.874C239.343 345.652 239.228 345.441 239.07 345.241C238.917 345.041 238.708 344.877 238.444 344.749C238.18 344.621 237.85 344.557 237.453 344.557C236.912 344.557 236.46 344.679 236.098 344.922C235.736 345.16 235.555 345.469 235.555 345.848C235.555 346.176 235.676 346.441 235.919 346.641C236.162 346.841 236.554 347.005 237.095 347.133L238.655 347.491C239.558 347.7 240.232 348.022 240.675 348.456C241.118 348.891 241.34 349.456 241.34 350.15C241.34 350.738 241.169 351.262 240.828 351.723C240.492 352.179 240.021 352.537 239.416 352.797C238.815 353.056 238.118 353.186 237.325 353.186C236.226 353.186 235.329 352.952 234.634 352.483C233.94 352.01 233.514 351.339 233.356 350.47L235.203 350.189C235.318 350.67 235.555 351.034 235.913 351.282C236.271 351.525 236.737 351.646 237.313 351.646C237.939 351.646 238.44 351.516 238.815 351.256C239.19 350.992 239.377 350.67 239.377 350.291C239.377 349.984 239.262 349.726 239.032 349.517C238.806 349.309 238.459 349.151 237.99 349.044L236.328 348.68C235.412 348.471 234.734 348.139 234.296 347.683C233.861 347.227 233.644 346.65 233.644 345.951C233.644 345.371 233.805 344.864 234.129 344.429C234.453 343.995 234.901 343.656 235.472 343.413C236.043 343.166 236.697 343.042 237.434 343.042C238.495 343.042 239.33 343.272 239.94 343.733C240.549 344.189 240.952 344.8 241.148 345.567Z" fill="#8D95A3"/>
<path d="M383 202.988C383 198.57 386.582 194.988 391 194.988H536C540.418 194.988 544 198.57 544 202.988V234.988C544 239.407 540.418 242.988 536 242.988H391C386.582 242.988 383 239.407 383 234.988V202.988Z" fill="white"/>
<path d="M398.783 209.814L407 207.988L415.217 209.814C415.674 209.916 416 210.322 416 210.79V220.777C416 222.783 414.997 224.657 413.328 225.769L407 229.988L400.672 225.769C399.003 224.657 398 222.783 398 220.777V210.79C398 210.322 398.326 209.916 398.783 209.814ZM400 211.593V220.777C400 222.115 400.668 223.363 401.781 224.105L407 227.585L412.219 224.105C413.332 223.363 414 222.115 414 220.777V211.593L407 210.037L400 211.593ZM407 217.988C405.619 217.988 404.5 216.869 404.5 215.488C404.5 214.108 405.619 212.988 407 212.988C408.381 212.988 409.5 214.108 409.5 215.488C409.5 216.869 408.381 217.988 407 217.988ZM402.527 222.988C402.776 220.738 404.684 218.988 407 218.988C409.316 218.988 411.224 220.738 411.472 222.988H402.527Z" fill="#8D95A3"/>
<path d="M428.438 225.988V212.897H430.413V218.586H436.94V212.897H438.921V225.988H436.94V220.28H430.413V225.988H428.438ZM441.638 225.988V212.897H446.304C447.318 212.897 448.16 213.072 448.829 213.422C449.502 213.771 450.005 214.255 450.337 214.873C450.67 215.486 450.836 216.196 450.836 217.001C450.836 217.802 450.667 218.507 450.331 219.117C449.998 219.722 449.496 220.193 448.822 220.529C448.153 220.866 447.312 221.034 446.297 221.034H442.763V219.334H446.118C446.758 219.334 447.278 219.243 447.678 219.059C448.083 218.876 448.379 218.61 448.567 218.26C448.754 217.911 448.848 217.491 448.848 217.001C448.848 216.507 448.752 216.078 448.56 215.716C448.373 215.354 448.077 215.077 447.672 214.885C447.271 214.689 446.745 214.591 446.093 214.591H443.613V225.988H441.638ZM448.1 220.082L451.334 225.988H449.084L445.914 220.082H448.1ZM458.789 225.988H456.692L461.403 212.897H463.685L468.396 225.988H466.299L462.598 215.275H462.496L458.789 225.988ZM459.14 220.862H465.941V222.524H459.14V220.862ZM473.49 226.18C472.698 226.18 471.99 225.978 471.368 225.573C470.75 225.164 470.264 224.582 469.911 223.828C469.561 223.069 469.386 222.159 469.386 221.098C469.386 220.037 469.563 219.13 469.917 218.375C470.275 217.621 470.765 217.044 471.387 216.643C472.009 216.243 472.715 216.042 473.503 216.042C474.112 216.042 474.602 216.145 474.973 216.349C475.348 216.549 475.638 216.784 475.842 217.052C476.051 217.321 476.213 217.557 476.328 217.762H476.443V212.897H478.354V225.988H476.488V224.461H476.328C476.213 224.669 476.047 224.908 475.83 225.176C475.617 225.445 475.323 225.679 474.948 225.88C474.573 226.08 474.087 226.18 473.49 226.18ZM473.912 224.55C474.462 224.55 474.926 224.405 475.305 224.115C475.689 223.821 475.979 223.414 476.175 222.895C476.375 222.375 476.475 221.77 476.475 221.079C476.475 220.397 476.377 219.801 476.181 219.289C475.985 218.778 475.698 218.38 475.318 218.094C474.939 217.809 474.47 217.666 473.912 217.666C473.337 217.666 472.857 217.815 472.474 218.113C472.09 218.412 471.801 218.819 471.604 219.334C471.413 219.85 471.317 220.431 471.317 221.079C471.317 221.735 471.415 222.326 471.611 222.85C471.807 223.374 472.097 223.789 472.48 224.096C472.868 224.399 473.345 224.55 473.912 224.55ZM489.321 216.17L485.761 225.988H483.716L480.149 216.17H482.201L484.687 223.725H484.789L487.27 216.17H489.321ZM490.958 225.988V216.17H492.869V225.988H490.958ZM491.923 214.655C491.59 214.655 491.305 214.544 491.066 214.323C490.832 214.097 490.715 213.828 490.715 213.517C490.715 213.202 490.832 212.934 491.066 212.712C491.305 212.486 491.59 212.373 491.923 212.373C492.255 212.373 492.539 212.486 492.773 212.712C493.012 212.934 493.131 213.202 493.131 213.517C493.131 213.828 493.012 214.097 492.773 214.323C492.539 214.544 492.255 214.655 491.923 214.655ZM502.637 218.567L500.905 218.874C500.833 218.652 500.718 218.441 500.56 218.241C500.406 218.041 500.198 217.877 499.933 217.749C499.669 217.621 499.339 217.557 498.943 217.557C498.401 217.557 497.95 217.679 497.588 217.922C497.225 218.16 497.044 218.469 497.044 218.848C497.044 219.176 497.166 219.441 497.409 219.641C497.651 219.841 498.044 220.005 498.585 220.133L500.144 220.491C501.048 220.7 501.721 221.022 502.164 221.456C502.607 221.891 502.829 222.456 502.829 223.15C502.829 223.738 502.659 224.262 502.318 224.723C501.981 225.179 501.51 225.537 500.905 225.797C500.304 226.056 499.607 226.186 498.815 226.186C497.715 226.186 496.818 225.952 496.124 225.483C495.429 225.01 495.003 224.339 494.845 223.47L496.693 223.189C496.808 223.67 497.044 224.034 497.402 224.282C497.76 224.525 498.227 224.646 498.802 224.646C499.428 224.646 499.929 224.516 500.304 224.256C500.679 223.992 500.867 223.67 500.867 223.291C500.867 222.984 500.752 222.726 500.522 222.517C500.296 222.309 499.948 222.151 499.48 222.044L497.818 221.68C496.901 221.471 496.224 221.139 495.785 220.683C495.35 220.227 495.133 219.65 495.133 218.951C495.133 218.371 495.295 217.864 495.619 217.429C495.943 216.995 496.39 216.656 496.961 216.413C497.532 216.166 498.186 216.042 498.923 216.042C499.985 216.042 500.82 216.272 501.429 216.733C502.039 217.189 502.441 217.8 502.637 218.567ZM508.906 226.186C507.986 226.186 507.182 225.975 506.496 225.554C505.81 225.132 505.278 224.542 504.898 223.783C504.519 223.025 504.329 222.138 504.329 221.124C504.329 220.105 504.519 219.215 504.898 218.452C505.278 217.689 505.81 217.097 506.496 216.675C507.182 216.253 507.986 216.042 508.906 216.042C509.827 216.042 510.63 216.253 511.316 216.675C512.002 217.097 512.535 217.689 512.914 218.452C513.293 219.215 513.483 220.105 513.483 221.124C513.483 222.138 513.293 223.025 512.914 223.783C512.535 224.542 512.002 225.132 511.316 225.554C510.63 225.975 509.827 226.186 508.906 226.186ZM508.912 224.582C509.509 224.582 510.003 224.424 510.395 224.109C510.787 223.794 511.077 223.374 511.265 222.85C511.457 222.326 511.552 221.748 511.552 221.118C511.552 220.491 511.457 219.916 511.265 219.392C511.077 218.863 510.787 218.439 510.395 218.12C510.003 217.8 509.509 217.64 508.912 217.64C508.312 217.64 507.813 217.8 507.417 218.12C507.025 218.439 506.733 218.863 506.541 219.392C506.354 219.916 506.26 220.491 506.26 221.118C506.26 221.748 506.354 222.326 506.541 222.85C506.733 223.374 507.025 223.794 507.417 224.109C507.813 224.424 508.312 224.582 508.912 224.582ZM515.456 225.988V216.17H517.303V217.73H517.406C517.585 217.201 517.9 216.786 518.352 216.483C518.808 216.176 519.323 216.023 519.899 216.023C520.018 216.023 520.159 216.027 520.32 216.036C520.487 216.044 520.617 216.055 520.71 216.068V217.896C520.634 217.875 520.497 217.851 520.301 217.826C520.105 217.796 519.909 217.781 519.713 217.781C519.262 217.781 518.859 217.877 518.505 218.069C518.156 218.256 517.879 218.518 517.674 218.855C517.47 219.187 517.367 219.566 517.367 219.993V225.988H515.456ZM523.711 229.67C523.426 229.67 523.166 229.647 522.931 229.6C522.697 229.557 522.522 229.51 522.407 229.459L522.868 227.893C523.217 227.987 523.528 228.027 523.801 228.015C524.073 228.002 524.314 227.9 524.523 227.708C524.736 227.516 524.924 227.203 525.086 226.768L525.322 226.116L521.73 216.17H523.775L526.262 223.789H526.364L528.85 216.17H530.902L526.856 227.299C526.669 227.81 526.43 228.243 526.14 228.596C525.85 228.954 525.505 229.223 525.105 229.402C524.704 229.581 524.24 229.67 523.711 229.67Z" fill="#8D95A3"/>
<path d="M1060 281.988C1060 277.57 1063.58 273.988 1068 273.988H1253C1257.42 273.988 1261 277.57 1261 281.988V313.988C1261 318.407 1257.42 321.988 1253 321.988H1068C1063.58 321.988 1060 318.407 1060 313.988V281.988Z" fill="white"/>
<path d="M1093 293.988V306.981C1093 307.538 1092.56 307.988 1092.01 307.988H1075.99C1075.44 307.988 1075 307.544 1075 306.996V288.98C1075 288.444 1075.45 287.988 1076 287.988H1087L1093 293.988ZM1091 294.988H1086V289.988H1077V305.988H1091V294.988ZM1080 292.988H1083V294.988H1080V292.988ZM1080 296.988H1088V298.988H1080V296.988ZM1080 300.988H1088V302.988H1080V300.988Z" fill="#8D95A3"/>
<path d="M1108 304.988L1104.37 291.897H1106.45L1109 302.035H1109.12L1111.77 291.897H1113.83L1116.48 302.042H1116.61L1119.15 291.897H1121.23L1117.6 304.988H1115.61L1112.85 295.183H1112.75L1110 304.988H1108ZM1125.89 305.186C1124.97 305.186 1124.17 304.975 1123.48 304.554C1122.79 304.132 1122.26 303.542 1121.88 302.783C1121.5 302.025 1121.31 301.138 1121.31 300.124C1121.31 299.105 1121.5 298.215 1121.88 297.452C1122.26 296.689 1122.79 296.097 1123.48 295.675C1124.17 295.253 1124.97 295.042 1125.89 295.042C1126.81 295.042 1127.61 295.253 1128.3 295.675C1128.99 296.097 1129.52 296.689 1129.9 297.452C1130.28 298.215 1130.47 299.105 1130.47 300.124C1130.47 301.138 1130.28 302.025 1129.9 302.783C1129.52 303.542 1128.99 304.132 1128.3 304.554C1127.61 304.975 1126.81 305.186 1125.89 305.186ZM1125.9 303.582C1126.49 303.582 1126.99 303.424 1127.38 303.109C1127.77 302.794 1128.06 302.374 1128.25 301.85C1128.44 301.326 1128.54 300.748 1128.54 300.118C1128.54 299.491 1128.44 298.916 1128.25 298.392C1128.06 297.863 1127.77 297.439 1127.38 297.12C1126.99 296.8 1126.49 296.64 1125.9 296.64C1125.29 296.64 1124.8 296.8 1124.4 297.12C1124.01 297.439 1123.72 297.863 1123.52 298.392C1123.34 298.916 1123.24 299.491 1123.24 300.118C1123.24 300.748 1123.34 301.326 1123.52 301.85C1123.72 302.374 1124.01 302.794 1124.4 303.109C1124.8 303.424 1125.29 303.582 1125.9 303.582ZM1132.44 304.988V295.17H1134.29V296.73H1134.39C1134.57 296.201 1134.88 295.786 1135.34 295.483C1135.79 295.176 1136.31 295.023 1136.88 295.023C1137 295.023 1137.14 295.027 1137.3 295.036C1137.47 295.044 1137.6 295.055 1137.69 295.068V296.896C1137.62 296.875 1137.48 296.851 1137.28 296.826C1137.09 296.796 1136.89 296.781 1136.7 296.781C1136.24 296.781 1135.84 296.877 1135.49 297.069C1135.14 297.256 1134.86 297.518 1134.66 297.855C1134.45 298.187 1134.35 298.566 1134.35 298.993V304.988H1132.44ZM1140.95 301.658L1140.93 299.325H1141.27L1145.18 295.17H1147.47L1143 299.9H1142.7L1140.95 301.658ZM1139.19 304.988V291.897H1141.1V304.988H1139.19ZM1145.39 304.988L1141.87 300.322L1143.19 298.986L1147.73 304.988H1145.39ZM1149.05 308.67V295.17H1150.91V296.762H1151.07C1151.18 296.557 1151.34 296.321 1151.55 296.052C1151.76 295.784 1152.05 295.549 1152.42 295.349C1152.79 295.145 1153.28 295.042 1153.89 295.042C1154.68 295.042 1155.39 295.243 1156.01 295.643C1156.64 296.044 1157.12 296.621 1157.48 297.375C1157.84 298.13 1158.02 299.037 1158.02 300.098C1158.02 301.159 1157.84 302.069 1157.48 302.828C1157.13 303.582 1156.65 304.164 1156.03 304.573C1155.41 304.978 1154.7 305.18 1153.91 305.18C1153.31 305.18 1152.83 305.08 1152.45 304.88C1152.07 304.679 1151.78 304.445 1151.57 304.176C1151.35 303.908 1151.19 303.669 1151.07 303.461H1150.96V308.67H1149.05ZM1150.92 300.079C1150.92 300.77 1151.02 301.375 1151.22 301.895C1151.42 302.414 1151.71 302.821 1152.09 303.115C1152.47 303.405 1152.93 303.55 1153.48 303.55C1154.05 303.55 1154.53 303.399 1154.92 303.096C1155.3 302.789 1155.59 302.374 1155.78 301.85C1155.98 301.326 1156.08 300.735 1156.08 300.079C1156.08 299.431 1155.99 298.85 1155.79 298.334C1155.6 297.819 1155.31 297.412 1154.92 297.113C1154.54 296.815 1154.06 296.666 1153.48 296.666C1152.93 296.666 1152.46 296.809 1152.08 297.094C1151.7 297.38 1151.41 297.778 1151.21 298.289C1151.02 298.801 1150.92 299.397 1150.92 300.079ZM1161.91 291.897V304.988H1160V291.897H1161.91ZM1167.18 305.206C1166.55 305.206 1165.99 305.091 1165.49 304.86C1164.99 304.626 1164.59 304.287 1164.29 303.844C1164 303.401 1163.86 302.858 1163.86 302.214C1163.86 301.66 1163.97 301.204 1164.18 300.846C1164.39 300.488 1164.68 300.205 1165.04 299.996C1165.4 299.787 1165.81 299.63 1166.26 299.523C1166.7 299.417 1167.16 299.336 1167.62 299.28C1168.21 299.212 1168.69 299.157 1169.06 299.114C1169.42 299.067 1169.69 298.993 1169.85 298.89C1170.02 298.788 1170.1 298.622 1170.1 298.392V298.347C1170.1 297.789 1169.95 297.356 1169.63 297.049C1169.32 296.743 1168.86 296.589 1168.24 296.589C1167.59 296.589 1167.09 296.732 1166.72 297.017C1166.35 297.299 1166.1 297.612 1165.96 297.957L1164.16 297.548C1164.37 296.951 1164.68 296.47 1165.09 296.103C1165.51 295.733 1165.98 295.464 1166.52 295.298C1167.05 295.127 1167.62 295.042 1168.21 295.042C1168.6 295.042 1169.02 295.089 1169.46 295.183C1169.9 295.272 1170.31 295.439 1170.7 295.681C1171.09 295.924 1171.4 296.272 1171.65 296.723C1171.9 297.171 1172.02 297.752 1172.02 298.468V304.988H1170.15V303.646H1170.08C1169.95 303.893 1169.77 304.136 1169.52 304.375C1169.27 304.613 1168.96 304.811 1168.57 304.969C1168.18 305.127 1167.72 305.206 1167.18 305.206ZM1167.59 303.672C1168.12 303.672 1168.57 303.567 1168.95 303.358C1169.33 303.15 1169.61 302.877 1169.81 302.54C1170.01 302.199 1170.11 301.835 1170.11 301.447V300.181C1170.04 300.25 1169.91 300.314 1169.71 300.373C1169.52 300.429 1169.3 300.478 1169.06 300.52C1168.81 300.559 1168.57 300.595 1168.33 300.629C1168.1 300.659 1167.9 300.684 1167.75 300.706C1167.37 300.752 1167.04 300.831 1166.73 300.942C1166.43 301.053 1166.18 301.213 1166 301.422C1165.82 301.626 1165.73 301.899 1165.73 302.24C1165.73 302.713 1165.91 303.071 1166.26 303.314C1166.61 303.552 1167.05 303.672 1167.59 303.672ZM1178.54 305.186C1177.59 305.186 1176.77 304.971 1176.09 304.541C1175.41 304.106 1174.88 303.507 1174.52 302.745C1174.15 301.982 1173.97 301.108 1173.97 300.124C1173.97 299.127 1174.15 298.247 1174.53 297.484C1174.9 296.717 1175.43 296.118 1176.11 295.688C1176.8 295.257 1177.6 295.042 1178.52 295.042C1179.27 295.042 1179.93 295.181 1180.52 295.458C1181.1 295.73 1181.57 296.114 1181.93 296.608C1182.29 297.103 1182.51 297.68 1182.58 298.341H1180.72C1180.61 297.88 1180.38 297.484 1180.01 297.152C1179.65 296.819 1179.16 296.653 1178.56 296.653C1178.02 296.653 1177.56 296.794 1177.16 297.075C1176.76 297.352 1176.45 297.748 1176.23 298.264C1176.01 298.775 1175.9 299.38 1175.9 300.079C1175.9 300.795 1176 301.413 1176.22 301.933C1176.44 302.453 1176.75 302.855 1177.14 303.141C1177.54 303.426 1178.01 303.569 1178.56 303.569C1178.92 303.569 1179.25 303.503 1179.54 303.371C1179.84 303.235 1180.09 303.041 1180.29 302.789C1180.49 302.538 1180.63 302.235 1180.72 301.882H1182.58C1182.51 302.517 1182.3 303.083 1181.96 303.582C1181.61 304.081 1181.15 304.473 1180.57 304.758C1179.99 305.044 1179.32 305.186 1178.54 305.186ZM1188.69 305.186C1187.72 305.186 1186.89 304.98 1186.19 304.566C1185.5 304.149 1184.96 303.563 1184.58 302.809C1184.21 302.05 1184.02 301.162 1184.02 300.143C1184.02 299.137 1184.21 298.251 1184.58 297.484C1184.96 296.717 1185.49 296.118 1186.17 295.688C1186.85 295.257 1187.65 295.042 1188.56 295.042C1189.11 295.042 1189.65 295.134 1190.17 295.317C1190.69 295.5 1191.15 295.788 1191.57 296.18C1191.98 296.572 1192.31 297.081 1192.55 297.708C1192.78 298.33 1192.9 299.086 1192.9 299.977V300.654H1185.1V299.223H1191.03C1191.03 298.72 1190.93 298.275 1190.72 297.887C1190.52 297.495 1190.23 297.186 1189.86 296.96C1189.49 296.734 1189.06 296.621 1188.57 296.621C1188.03 296.621 1187.56 296.753 1187.16 297.017C1186.77 297.277 1186.46 297.618 1186.24 298.04C1186.03 298.458 1185.92 298.912 1185.92 299.402V300.52C1185.92 301.176 1186.04 301.735 1186.27 302.195C1186.5 302.655 1186.83 303.007 1187.25 303.25C1187.66 303.488 1188.15 303.608 1188.71 303.608C1189.07 303.608 1189.4 303.556 1189.7 303.454C1190 303.348 1190.26 303.19 1190.47 302.981C1190.69 302.772 1190.86 302.515 1190.97 302.208L1192.78 302.534C1192.64 303.066 1192.38 303.533 1192 303.934C1191.63 304.33 1191.17 304.639 1190.6 304.86C1190.04 305.078 1189.41 305.186 1188.69 305.186ZM1199.62 304.988V291.897H1204.29C1205.31 291.897 1206.15 292.083 1206.82 292.453C1207.49 292.824 1207.99 293.331 1208.32 293.975C1208.65 294.614 1208.82 295.334 1208.82 296.135C1208.82 296.941 1208.65 297.665 1208.31 298.309C1207.98 298.948 1207.48 299.455 1206.81 299.83C1206.14 300.201 1205.3 300.386 1204.28 300.386H1201.07V298.711H1204.1C1204.75 298.711 1205.27 298.6 1205.67 298.379C1206.07 298.153 1206.36 297.846 1206.55 297.458C1206.74 297.071 1206.83 296.63 1206.83 296.135C1206.83 295.641 1206.74 295.202 1206.55 294.819C1206.36 294.435 1206.07 294.135 1205.66 293.917C1205.26 293.7 1204.73 293.591 1204.08 293.591H1201.6V304.988H1199.62ZM1214.83 305.186C1213.91 305.186 1213.11 304.975 1212.42 304.554C1211.74 304.132 1211.21 303.542 1210.83 302.783C1210.45 302.025 1210.26 301.138 1210.26 300.124C1210.26 299.105 1210.45 298.215 1210.83 297.452C1211.21 296.689 1211.74 296.097 1212.42 295.675C1213.11 295.253 1213.91 295.042 1214.83 295.042C1215.75 295.042 1216.56 295.253 1217.24 295.675C1217.93 296.097 1218.46 296.689 1218.84 297.452C1219.22 298.215 1219.41 299.105 1219.41 300.124C1219.41 301.138 1219.22 302.025 1218.84 302.783C1218.46 303.542 1217.93 304.132 1217.24 304.554C1216.56 304.975 1215.75 305.186 1214.83 305.186ZM1214.84 303.582C1215.44 303.582 1215.93 303.424 1216.32 303.109C1216.72 302.794 1217.01 302.374 1217.19 301.85C1217.38 301.326 1217.48 300.748 1217.48 300.118C1217.48 299.491 1217.38 298.916 1217.19 298.392C1217.01 297.863 1216.72 297.439 1216.32 297.12C1215.93 296.8 1215.44 296.64 1214.84 296.64C1214.24 296.64 1213.74 296.8 1213.34 297.12C1212.95 297.439 1212.66 297.863 1212.47 298.392C1212.28 298.916 1212.19 299.491 1212.19 300.118C1212.19 300.748 1212.28 301.326 1212.47 301.85C1212.66 302.374 1212.95 302.794 1213.34 303.109C1213.74 303.424 1214.24 303.582 1214.84 303.582ZM1223.3 291.897V304.988H1221.38V291.897H1223.3ZM1225.71 304.988V295.17H1227.62V304.988H1225.71ZM1226.67 293.655C1226.34 293.655 1226.05 293.544 1225.82 293.323C1225.58 293.097 1225.46 292.828 1225.46 292.517C1225.46 292.202 1225.58 291.934 1225.82 291.712C1226.05 291.486 1226.34 291.373 1226.67 291.373C1227 291.373 1227.29 291.486 1227.52 291.712C1227.76 291.934 1227.88 292.202 1227.88 292.517C1227.88 292.828 1227.76 293.097 1227.52 293.323C1227.29 293.544 1227 293.655 1226.67 293.655ZM1234.16 305.186C1233.21 305.186 1232.4 304.971 1231.71 304.541C1231.03 304.106 1230.5 303.507 1230.14 302.745C1229.77 301.982 1229.59 301.108 1229.59 300.124C1229.59 299.127 1229.78 298.247 1230.15 297.484C1230.53 296.717 1231.05 296.118 1231.74 295.688C1232.42 295.257 1233.22 295.042 1234.15 295.042C1234.89 295.042 1235.56 295.181 1236.14 295.458C1236.72 295.73 1237.19 296.114 1237.55 296.608C1237.91 297.103 1238.13 297.68 1238.2 298.341H1236.34C1236.24 297.88 1236 297.484 1235.64 297.152C1235.27 296.819 1234.79 296.653 1234.18 296.653C1233.64 296.653 1233.18 296.794 1232.78 297.075C1232.38 297.352 1232.07 297.748 1231.85 298.264C1231.63 298.775 1231.52 299.38 1231.52 300.079C1231.52 300.795 1231.63 301.413 1231.84 301.933C1232.06 302.453 1232.37 302.855 1232.76 303.141C1233.17 303.426 1233.64 303.569 1234.18 303.569C1234.54 303.569 1234.87 303.503 1235.16 303.371C1235.46 303.235 1235.71 303.041 1235.91 302.789C1236.11 302.538 1236.26 302.235 1236.34 301.882H1238.2C1238.13 302.517 1237.92 303.083 1237.58 303.582C1237.23 304.081 1236.77 304.473 1236.19 304.758C1235.62 305.044 1234.94 305.186 1234.16 305.186ZM1241.29 308.67C1241 308.67 1240.74 308.647 1240.51 308.6C1240.28 308.557 1240.1 308.51 1239.99 308.459L1240.45 306.893C1240.8 306.987 1241.11 307.027 1241.38 307.015C1241.65 307.002 1241.89 306.9 1242.1 306.708C1242.32 306.516 1242.5 306.203 1242.66 305.768L1242.9 305.116L1239.31 295.17H1241.35L1243.84 302.789H1243.94L1246.43 295.17H1248.48L1244.44 306.299C1244.25 306.81 1244.01 307.243 1243.72 307.596C1243.43 307.954 1243.08 308.223 1242.68 308.402C1242.28 308.581 1241.82 308.67 1241.29 308.67Z" fill="#8D95A3"/>
<path d="M789.5 395.988C789.5 391.57 793.082 387.988 797.5 387.988H1022.5C1026.92 387.988 1030.5 391.57 1030.5 395.988V427.988C1030.5 432.407 1026.92 435.988 1022.5 435.988H797.5C793.082 435.988 789.5 432.407 789.5 427.988V395.988Z" fill="white"/>
<path d="M804.662 404.458C807.086 402.034 810.948 401.924 813.501 404.13C816.053 401.924 819.915 402.034 822.339 404.458C824.759 406.877 824.872 410.73 822.679 413.283L814.915 421.074C814.169 421.82 812.981 421.854 812.196 421.176L812.086 421.074L804.322 413.283C802.129 410.73 802.242 406.877 804.662 404.458ZM806.076 405.872C804.369 407.579 804.32 410.316 805.93 412.082L806.076 412.236L813.5 419.66L818.803 414.356L815.268 410.821L814.208 411.882C813.036 413.054 811.136 413.054 809.965 411.882C808.793 410.711 808.793 408.811 809.965 407.64L812.066 405.537C810.353 404.166 807.871 404.229 806.229 405.725L806.076 405.872ZM814.561 408.7C814.952 408.31 815.585 408.31 815.975 408.7L820.217 412.942L820.925 412.236C822.682 410.478 822.682 407.629 820.925 405.872C819.218 404.165 816.48 404.116 814.714 405.725L814.561 405.872L811.379 409.054C811.016 409.416 810.991 409.988 811.301 410.381L811.379 410.468C811.742 410.831 812.314 410.856 812.706 410.546L812.793 410.468L814.561 408.7Z" fill="#8D95A3"/>
<path d="M834.938 418.988V405.897H843.146V407.598H836.913V411.586H842.717V413.28H836.913V417.288H843.222V418.988H834.938ZM845.471 418.988V409.17H847.305V410.768H847.426C847.631 410.227 847.966 409.805 848.43 409.502C848.895 409.196 849.451 409.042 850.098 409.042C850.755 409.042 851.304 409.196 851.747 409.502C852.195 409.809 852.525 410.231 852.738 410.768H852.841C853.075 410.244 853.448 409.826 853.959 409.515C854.471 409.2 855.08 409.042 855.787 409.042C856.678 409.042 857.404 409.321 857.967 409.88C858.534 410.438 858.817 411.279 858.817 412.404V418.988H856.906V412.583C856.906 411.919 856.725 411.437 856.363 411.139C856 410.841 855.568 410.691 855.065 410.691C854.443 410.691 853.959 410.883 853.614 411.267C853.269 411.646 853.096 412.134 853.096 412.73V418.988H851.191V412.462C851.191 411.929 851.025 411.501 850.693 411.177C850.36 410.853 849.928 410.691 849.395 410.691C849.033 410.691 848.698 410.787 848.392 410.979C848.089 411.167 847.844 411.429 847.657 411.765C847.473 412.102 847.382 412.492 847.382 412.935V418.988H845.471ZM861.219 422.67V409.17H863.085V410.762H863.245C863.356 410.557 863.516 410.321 863.724 410.052C863.933 409.784 864.223 409.549 864.594 409.349C864.964 409.145 865.455 409.042 866.064 409.042C866.856 409.042 867.564 409.243 868.186 409.643C868.808 410.044 869.296 410.621 869.65 411.375C870.008 412.13 870.187 413.037 870.187 414.098C870.187 415.159 870.01 416.069 869.656 416.828C869.303 417.582 868.817 418.164 868.199 418.573C867.581 418.978 866.876 419.18 866.083 419.18C865.486 419.18 864.999 419.08 864.619 418.88C864.244 418.679 863.95 418.445 863.737 418.176C863.524 417.908 863.36 417.669 863.245 417.461H863.13V422.67H861.219ZM863.092 414.079C863.092 414.77 863.192 415.375 863.392 415.895C863.592 416.414 863.882 416.821 864.261 417.115C864.641 417.405 865.105 417.55 865.655 417.55C866.226 417.55 866.703 417.399 867.087 417.096C867.47 416.789 867.76 416.374 867.956 415.85C868.156 415.326 868.256 414.735 868.256 414.079C868.256 413.431 868.158 412.85 867.962 412.334C867.771 411.819 867.481 411.412 867.093 411.113C866.709 410.815 866.23 410.666 865.655 410.666C865.101 410.666 864.632 410.809 864.249 411.094C863.869 411.38 863.582 411.778 863.386 412.289C863.19 412.801 863.092 413.397 863.092 414.079ZM874.079 405.897V418.988H872.168V405.897H874.079ZM880.626 419.186C879.706 419.186 878.902 418.975 878.216 418.554C877.53 418.132 876.998 417.542 876.618 416.783C876.239 416.025 876.049 415.138 876.049 414.124C876.049 413.105 876.239 412.215 876.618 411.452C876.998 410.689 877.53 410.097 878.216 409.675C878.902 409.253 879.706 409.042 880.626 409.042C881.547 409.042 882.35 409.253 883.036 409.675C883.722 410.097 884.255 410.689 884.634 411.452C885.013 412.215 885.203 413.105 885.203 414.124C885.203 415.138 885.013 416.025 884.634 416.783C884.255 417.542 883.722 418.132 883.036 418.554C882.35 418.975 881.547 419.186 880.626 419.186ZM880.633 417.582C881.229 417.582 881.723 417.424 882.116 417.109C882.508 416.794 882.797 416.374 882.985 415.85C883.177 415.326 883.272 414.748 883.272 414.118C883.272 413.491 883.177 412.916 882.985 412.392C882.797 411.863 882.508 411.439 882.116 411.12C881.723 410.8 881.229 410.64 880.633 410.64C880.032 410.64 879.533 410.8 879.137 411.12C878.745 411.439 878.453 411.863 878.261 412.392C878.074 412.916 877.98 413.491 877.98 414.118C877.98 414.748 878.074 415.326 878.261 415.85C878.453 416.374 878.745 416.794 879.137 417.109C879.533 417.424 880.032 417.582 880.633 417.582ZM888.05 422.67C887.765 422.67 887.505 422.647 887.27 422.6C887.036 422.557 886.861 422.51 886.746 422.459L887.207 420.893C887.556 420.987 887.867 421.027 888.14 421.015C888.413 421.002 888.653 420.9 888.862 420.708C889.075 420.516 889.263 420.203 889.425 419.768L889.661 419.116L886.069 409.17H888.114L890.601 416.789H890.703L893.19 409.17H895.241L891.195 420.299C891.008 420.81 890.769 421.243 890.479 421.596C890.19 421.954 889.844 422.223 889.444 422.402C889.043 422.581 888.579 422.67 888.05 422.67ZM900.775 419.186C899.808 419.186 898.975 418.98 898.276 418.566C897.581 418.149 897.044 417.563 896.665 416.809C896.29 416.05 896.103 415.162 896.103 414.143C896.103 413.137 896.29 412.251 896.665 411.484C897.044 410.717 897.573 410.118 898.25 409.688C898.932 409.257 899.729 409.042 900.641 409.042C901.195 409.042 901.732 409.134 902.252 409.317C902.772 409.5 903.238 409.788 903.652 410.18C904.065 410.572 904.391 411.081 904.629 411.708C904.868 412.33 904.987 413.086 904.987 413.977V414.654H897.183V413.223H903.115C903.115 412.72 903.012 412.275 902.808 411.887C902.603 411.495 902.316 411.186 901.945 410.96C901.578 410.734 901.148 410.621 900.654 410.621C900.117 410.621 899.648 410.753 899.247 411.017C898.851 411.277 898.544 411.618 898.327 412.04C898.114 412.458 898.007 412.912 898.007 413.402V414.52C898.007 415.176 898.122 415.735 898.353 416.195C898.587 416.655 898.913 417.007 899.33 417.25C899.748 417.488 900.236 417.608 900.794 417.608C901.156 417.608 901.487 417.556 901.785 417.454C902.083 417.348 902.341 417.19 902.558 416.981C902.776 416.772 902.942 416.515 903.057 416.208L904.866 416.534C904.721 417.066 904.461 417.533 904.086 417.934C903.715 418.33 903.249 418.639 902.686 418.86C902.128 419.078 901.491 419.186 900.775 419.186ZM911.18 419.186C910.212 419.186 909.379 418.98 908.68 418.566C907.986 418.149 907.449 417.563 907.069 416.809C906.694 416.05 906.507 415.162 906.507 414.143C906.507 413.137 906.694 412.251 907.069 411.484C907.449 410.717 907.977 410.118 908.655 409.688C909.336 409.257 910.133 409.042 911.045 409.042C911.599 409.042 912.136 409.134 912.656 409.317C913.176 409.5 913.643 409.788 914.056 410.18C914.469 410.572 914.795 411.081 915.034 411.708C915.273 412.33 915.392 413.086 915.392 413.977V414.654H907.587V413.223H913.519C913.519 412.72 913.417 412.275 913.212 411.887C913.008 411.495 912.72 411.186 912.349 410.96C911.983 410.734 911.552 410.621 911.058 410.621C910.521 410.621 910.052 410.753 909.652 411.017C909.256 411.277 908.949 411.618 908.731 412.04C908.518 412.458 908.412 412.912 908.412 413.402V414.52C908.412 415.176 908.527 415.735 908.757 416.195C908.991 416.655 909.317 417.007 909.735 417.25C910.153 417.488 910.64 417.608 911.199 417.608C911.561 417.608 911.891 417.556 912.189 417.454C912.488 417.348 912.746 417.19 912.963 416.981C913.18 416.772 913.346 416.515 913.461 416.208L915.27 416.534C915.126 417.066 914.866 417.533 914.491 417.934C914.12 418.33 913.653 418.639 913.091 418.86C912.533 419.078 911.895 419.186 911.18 419.186ZM922.11 418.988V405.897H924.085V411.586H930.611V405.897H932.592V418.988H930.611V413.28H924.085V418.988H922.11ZM938.013 419.206C937.391 419.206 936.828 419.091 936.325 418.86C935.822 418.626 935.424 418.287 935.13 417.844C934.84 417.401 934.695 416.858 934.695 416.214C934.695 415.66 934.802 415.204 935.015 414.846C935.228 414.488 935.516 414.205 935.878 413.996C936.24 413.787 936.645 413.63 937.092 413.523C937.54 413.417 937.996 413.336 938.46 413.28C939.048 413.212 939.526 413.157 939.892 413.114C940.258 413.067 940.525 412.993 940.691 412.89C940.857 412.788 940.94 412.622 940.94 412.392V412.347C940.94 411.789 940.783 411.356 940.467 411.049C940.156 410.743 939.692 410.589 939.074 410.589C938.43 410.589 937.923 410.732 937.553 411.017C937.186 411.299 936.932 411.612 936.792 411.957L934.996 411.548C935.209 410.951 935.52 410.47 935.929 410.103C936.342 409.733 936.817 409.464 937.354 409.298C937.891 409.127 938.456 409.042 939.048 409.042C939.44 409.042 939.856 409.089 940.295 409.183C940.738 409.272 941.151 409.439 941.535 409.681C941.923 409.924 942.24 410.272 942.487 410.723C942.734 411.171 942.858 411.752 942.858 412.468V418.988H940.991V417.646H940.915C940.791 417.893 940.606 418.136 940.359 418.375C940.111 418.613 939.794 418.811 939.406 418.969C939.018 419.127 938.554 419.206 938.013 419.206ZM938.428 417.672C938.957 417.672 939.408 417.567 939.783 417.358C940.163 417.15 940.45 416.877 940.646 416.54C940.847 416.199 940.947 415.835 940.947 415.447V414.181C940.879 414.25 940.746 414.314 940.55 414.373C940.359 414.429 940.139 414.478 939.892 414.52C939.645 414.559 939.404 414.595 939.17 414.629C938.935 414.659 938.739 414.684 938.582 414.706C938.211 414.752 937.872 414.831 937.565 414.942C937.263 415.053 937.02 415.213 936.837 415.422C936.658 415.626 936.568 415.899 936.568 416.24C936.568 416.713 936.743 417.071 937.092 417.314C937.442 417.552 937.887 417.672 938.428 417.672ZM947.155 413.159V418.988H945.244V409.17H947.078V410.768H947.2C947.425 410.248 947.779 409.831 948.261 409.515C948.746 409.2 949.358 409.042 950.095 409.042C950.764 409.042 951.35 409.183 951.853 409.464C952.356 409.741 952.746 410.154 953.023 410.704C953.3 411.254 953.438 411.934 953.438 412.743V418.988H951.527V412.973C951.527 412.262 951.342 411.706 950.971 411.305C950.6 410.9 950.091 410.698 949.443 410.698C949 410.698 948.606 410.794 948.261 410.985C947.92 411.177 947.649 411.458 947.449 411.829C947.253 412.196 947.155 412.639 947.155 413.159ZM959.517 419.18C958.724 419.18 958.017 418.978 957.395 418.573C956.777 418.164 956.291 417.582 955.937 416.828C955.588 416.069 955.413 415.159 955.413 414.098C955.413 413.037 955.59 412.13 955.944 411.375C956.302 410.621 956.792 410.044 957.414 409.643C958.036 409.243 958.741 409.042 959.53 409.042C960.139 409.042 960.629 409.145 961 409.349C961.375 409.549 961.665 409.784 961.869 410.052C962.078 410.321 962.24 410.557 962.355 410.762H962.47V405.897H964.381V418.988H962.515V417.461H962.355C962.24 417.669 962.074 417.908 961.856 418.176C961.643 418.445 961.349 418.679 960.974 418.88C960.599 419.08 960.113 419.18 959.517 419.18ZM959.939 417.55C960.488 417.55 960.953 417.405 961.332 417.115C961.716 416.821 962.005 416.414 962.201 415.895C962.402 415.375 962.502 414.77 962.502 414.079C962.502 413.397 962.404 412.801 962.208 412.289C962.012 411.778 961.724 411.38 961.345 411.094C960.966 410.809 960.497 410.666 959.939 410.666C959.363 410.666 958.884 410.815 958.5 411.113C958.117 411.412 957.827 411.819 957.631 412.334C957.439 412.85 957.343 413.431 957.343 414.079C957.343 414.735 957.442 415.326 957.638 415.85C957.834 416.374 958.123 416.789 958.507 417.096C958.895 417.399 959.372 417.55 959.939 417.55ZM967.102 418.988V405.897H969.014V410.762H969.129C969.239 410.557 969.399 410.321 969.608 410.052C969.817 409.784 970.107 409.549 970.477 409.349C970.848 409.145 971.338 409.042 971.948 409.042C972.74 409.042 973.448 409.243 974.07 409.643C974.692 410.044 975.18 410.621 975.533 411.375C975.891 412.13 976.07 413.037 976.07 414.098C976.07 415.159 975.894 416.069 975.54 416.828C975.186 417.582 974.7 418.164 974.082 418.573C973.465 418.978 972.759 419.18 971.967 419.18C971.37 419.18 970.882 419.08 970.503 418.88C970.128 418.679 969.834 418.445 969.621 418.176C969.408 417.908 969.244 417.669 969.129 417.461H968.969V418.988H967.102ZM968.975 414.079C968.975 414.77 969.075 415.375 969.276 415.895C969.476 416.414 969.766 416.821 970.145 417.115C970.524 417.405 970.989 417.55 971.538 417.55C972.109 417.55 972.587 417.399 972.97 417.096C973.354 416.789 973.644 416.374 973.84 415.85C974.04 415.326 974.14 414.735 974.14 414.079C974.14 413.431 974.042 412.85 973.846 412.334C973.654 411.819 973.364 411.412 972.977 411.113C972.593 410.815 972.114 410.666 971.538 410.666C970.984 410.666 970.516 410.809 970.132 411.094C969.753 411.38 969.465 411.778 969.269 412.289C969.073 412.801 968.975 413.397 968.975 414.079ZM982.192 419.186C981.272 419.186 980.468 418.975 979.782 418.554C979.096 418.132 978.564 417.542 978.184 416.783C977.805 416.025 977.615 415.138 977.615 414.124C977.615 413.105 977.805 412.215 978.184 411.452C978.564 410.689 979.096 410.097 979.782 409.675C980.468 409.253 981.272 409.042 982.192 409.042C983.113 409.042 983.916 409.253 984.602 409.675C985.288 410.097 985.821 410.689 986.2 411.452C986.579 412.215 986.769 413.105 986.769 414.124C986.769 415.138 986.579 416.025 986.2 416.783C985.821 417.542 985.288 418.132 984.602 418.554C983.916 418.975 983.113 419.186 982.192 419.186ZM982.199 417.582C982.795 417.582 983.289 417.424 983.682 417.109C984.074 416.794 984.363 416.374 984.551 415.85C984.743 415.326 984.838 414.748 984.838 414.118C984.838 413.491 984.743 412.916 984.551 412.392C984.363 411.863 984.074 411.439 983.682 411.12C983.289 410.8 982.795 410.64 982.199 410.64C981.598 410.64 981.099 410.8 980.703 411.12C980.311 411.439 980.019 411.863 979.827 412.392C979.64 412.916 979.546 413.491 979.546 414.118C979.546 414.748 979.64 415.326 979.827 415.85C980.019 416.374 980.311 416.794 980.703 417.109C981.099 417.424 981.598 417.582 982.199 417.582ZM992.878 419.186C991.957 419.186 991.154 418.975 990.468 418.554C989.782 418.132 989.249 417.542 988.87 416.783C988.491 416.025 988.301 415.138 988.301 414.124C988.301 413.105 988.491 412.215 988.87 411.452C989.249 410.689 989.782 410.097 990.468 409.675C991.154 409.253 991.957 409.042 992.878 409.042C993.798 409.042 994.602 409.253 995.288 409.675C995.974 410.097 996.506 410.689 996.886 411.452C997.265 412.215 997.455 413.105 997.455 414.124C997.455 415.138 997.265 416.025 996.886 416.783C996.506 417.542 995.974 418.132 995.288 418.554C994.602 418.975 993.798 419.186 992.878 419.186ZM992.884 417.582C993.481 417.582 993.975 417.424 994.367 417.109C994.759 416.794 995.049 416.374 995.237 415.85C995.428 415.326 995.524 414.748 995.524 414.118C995.524 413.491 995.428 412.916 995.237 412.392C995.049 411.863 994.759 411.439 994.367 411.12C993.975 410.8 993.481 410.64 992.884 410.64C992.283 410.64 991.785 410.8 991.389 411.12C990.996 411.439 990.705 411.863 990.513 412.392C990.325 412.916 990.232 413.491 990.232 414.118C990.232 414.748 990.325 415.326 990.513 415.85C990.705 416.374 990.996 416.794 991.389 417.109C991.785 417.424 992.283 417.582 992.884 417.582ZM1001.19 415.658L1001.17 413.325H1001.51L1005.42 409.17H1007.71L1003.24 413.9H1002.94L1001.19 415.658ZM999.428 418.988V405.897H1001.34V418.988H999.428ZM1005.63 418.988L1002.11 414.322L1003.43 412.986L1007.97 418.988H1005.63ZM1016.64 411.567L1014.91 411.874C1014.84 411.652 1014.72 411.441 1014.57 411.241C1014.41 411.041 1014.21 410.877 1013.94 410.749C1013.68 410.621 1013.35 410.557 1012.95 410.557C1012.41 410.557 1011.96 410.679 1011.59 410.922C1011.23 411.16 1011.05 411.469 1011.05 411.848C1011.05 412.176 1011.17 412.441 1011.42 412.641C1011.66 412.841 1012.05 413.005 1012.59 413.133L1014.15 413.491C1015.06 413.7 1015.73 414.022 1016.17 414.456C1016.61 414.891 1016.84 415.456 1016.84 416.15C1016.84 416.738 1016.67 417.262 1016.33 417.723C1015.99 418.179 1015.52 418.537 1014.91 418.797C1014.31 419.056 1013.61 419.186 1012.82 419.186C1011.72 419.186 1010.83 418.952 1010.13 418.483C1009.44 418.01 1009.01 417.339 1008.85 416.47L1010.7 416.189C1010.82 416.67 1011.05 417.034 1011.41 417.282C1011.77 417.525 1012.23 417.646 1012.81 417.646C1013.44 417.646 1013.94 417.516 1014.31 417.256C1014.69 416.992 1014.87 416.67 1014.87 416.291C1014.87 415.984 1014.76 415.726 1014.53 415.517C1014.3 415.309 1013.96 415.151 1013.49 415.044L1011.83 414.68C1010.91 414.471 1010.23 414.139 1009.79 413.683C1009.36 413.227 1009.14 412.65 1009.14 411.951C1009.14 411.371 1009.3 410.864 1009.63 410.429C1009.95 409.995 1010.4 409.656 1010.97 409.413C1011.54 409.166 1012.19 409.042 1012.93 409.042C1013.99 409.042 1014.83 409.272 1015.44 409.733C1016.05 410.189 1016.45 410.8 1016.64 411.567Z" fill="#8D95A3"/>
<path d="M712 130.988C712 126.57 715.582 122.988 720 122.988H880C884.418 122.988 888 126.57 888 130.988V162.988C888 167.407 884.418 170.988 880 170.988H720C715.582 170.988 712 167.407 712 162.988V130.988Z" fill="white"/>
<path d="M734.614 152.784C734.277 153.556 733.208 153.556 732.87 152.784L731.993 150.774C731.212 148.985 729.806 147.561 728.052 146.782L725.637 145.71C724.869 145.369 724.869 144.252 725.637 143.911L727.977 142.872C729.776 142.074 731.207 140.597 731.974 138.747L732.863 136.605C733.193 135.81 734.292 135.81 734.621 136.605L735.51 138.747C736.278 140.597 737.709 142.074 739.508 142.872L741.848 143.911C742.616 144.252 742.616 145.369 741.848 145.71L739.432 146.782C737.679 147.561 736.273 148.985 735.492 150.774L734.614 152.784ZM728.54 144.811C730.825 145.825 732.684 147.493 733.742 149.788C734.801 147.493 736.659 145.825 738.945 144.811C736.632 143.784 734.768 142.035 733.742 139.699C732.717 142.035 730.853 143.784 728.54 144.811ZM743.401 157.678L743.648 157.112C744.088 156.104 744.881 155.301 745.869 154.861L746.63 154.524C747.041 154.341 747.041 153.743 746.63 153.56L745.912 153.241C744.898 152.791 744.091 151.958 743.659 150.915L743.405 150.304C743.228 149.878 742.639 149.878 742.463 150.304L742.209 150.915C741.777 151.958 740.97 152.791 739.956 153.241L739.238 153.56C738.827 153.743 738.827 154.341 739.238 154.524L739.998 154.861C740.987 155.301 741.78 156.104 742.22 157.112L742.467 157.678C742.647 158.092 743.221 158.092 743.401 157.678ZM742.375 154.035L742.937 153.477L743.488 154.035L742.937 154.578L742.375 154.035Z" fill="#8D95A3"/>
<path d="M758.544 153.988H756.447L761.158 140.897H763.44L768.151 153.988H766.055L762.354 143.275H762.251L758.544 153.988ZM758.896 148.862H765.697V150.524H758.896V148.862ZM771.857 140.897V153.988H769.882V140.897H771.857ZM780.205 146.612V148.274H774.401V146.612H780.205ZM784.57 153.988L780.94 140.897H783.017L785.567 151.035H785.689L788.342 140.897H790.4L793.052 151.042H793.174L795.718 140.897H797.802L794.165 153.988H792.177L789.422 144.183H789.32L786.565 153.988H784.57ZM802.458 154.186C801.538 154.186 800.734 153.975 800.048 153.554C799.362 153.132 798.83 152.542 798.45 151.783C798.071 151.025 797.881 150.138 797.881 149.124C797.881 148.105 798.071 147.215 798.45 146.452C798.83 145.689 799.362 145.097 800.048 144.675C800.734 144.253 801.538 144.042 802.458 144.042C803.379 144.042 804.182 144.253 804.868 144.675C805.554 145.097 806.087 145.689 806.466 146.452C806.845 147.215 807.035 148.105 807.035 149.124C807.035 150.138 806.845 151.025 806.466 151.783C806.087 152.542 805.554 153.132 804.868 153.554C804.182 153.975 803.379 154.186 802.458 154.186ZM802.465 152.582C803.061 152.582 803.555 152.424 803.948 152.109C804.34 151.794 804.629 151.374 804.817 150.85C805.009 150.326 805.104 149.748 805.104 149.118C805.104 148.491 805.009 147.916 804.817 147.392C804.629 146.863 804.34 146.439 803.948 146.12C803.555 145.8 803.061 145.64 802.465 145.64C801.864 145.64 801.365 145.8 800.969 146.12C800.577 146.439 800.285 146.863 800.093 147.392C799.906 147.916 799.812 148.491 799.812 149.118C799.812 149.748 799.906 150.326 800.093 150.85C800.285 151.374 800.577 151.794 800.969 152.109C801.365 152.424 801.864 152.582 802.465 152.582ZM809.008 153.988V144.17H810.856V145.73H810.958C811.137 145.201 811.452 144.786 811.904 144.483C812.36 144.176 812.875 144.023 813.451 144.023C813.57 144.023 813.711 144.027 813.873 144.036C814.039 144.044 814.169 144.055 814.263 144.068V145.896C814.186 145.875 814.049 145.851 813.853 145.826C813.657 145.796 813.461 145.781 813.265 145.781C812.814 145.781 812.411 145.877 812.057 146.069C811.708 146.256 811.431 146.518 811.226 146.855C811.022 147.187 810.919 147.566 810.919 147.993V153.988H809.008ZM817.514 150.658L817.501 148.325H817.834L821.746 144.17H824.034L819.572 148.9H819.272L817.514 150.658ZM815.756 153.988V140.897H817.668V153.988H815.756ZM821.957 153.988L818.441 149.322L819.758 147.986L824.303 153.988H821.957ZM832.973 146.567L831.241 146.874C831.169 146.652 831.053 146.441 830.896 146.241C830.742 146.041 830.534 145.877 830.269 145.749C830.005 145.621 829.675 145.557 829.279 145.557C828.737 145.557 828.286 145.679 827.923 145.922C827.561 146.16 827.38 146.469 827.38 146.848C827.38 147.176 827.502 147.441 827.745 147.641C827.987 147.841 828.379 148.005 828.921 148.133L830.48 148.491C831.384 148.7 832.057 149.022 832.5 149.456C832.943 149.891 833.165 150.456 833.165 151.15C833.165 151.738 832.995 152.262 832.654 152.723C832.317 153.179 831.846 153.537 831.241 153.797C830.64 154.056 829.943 154.186 829.151 154.186C828.051 154.186 827.154 153.952 826.46 153.483C825.765 153.01 825.339 152.339 825.181 151.47L827.029 151.189C827.144 151.67 827.38 152.034 827.738 152.282C828.096 152.525 828.563 152.646 829.138 152.646C829.764 152.646 830.265 152.516 830.64 152.256C831.015 151.992 831.203 151.67 831.203 151.291C831.203 150.984 831.088 150.726 830.857 150.517C830.632 150.309 830.284 150.151 829.816 150.044L828.154 149.68C827.237 149.471 826.56 149.139 826.121 148.683C825.686 148.227 825.469 147.65 825.469 146.951C825.469 146.371 825.631 145.864 825.955 145.429C826.279 144.995 826.726 144.656 827.297 144.413C827.868 144.166 828.522 144.042 829.259 144.042C830.321 144.042 831.156 144.272 831.765 144.733C832.374 145.189 832.777 145.8 832.973 146.567ZM835.106 157.67V144.17H836.973V145.762H837.133C837.243 145.557 837.403 145.321 837.612 145.052C837.821 144.784 838.111 144.549 838.481 144.349C838.852 144.145 839.342 144.042 839.952 144.042C840.744 144.042 841.452 144.243 842.074 144.643C842.696 145.044 843.184 145.621 843.537 146.375C843.895 147.13 844.074 148.037 844.074 149.098C844.074 150.159 843.898 151.069 843.544 151.828C843.19 152.582 842.704 153.164 842.086 153.573C841.469 153.978 840.763 154.18 839.971 154.18C839.374 154.18 838.886 154.08 838.507 153.88C838.132 153.679 837.838 153.445 837.625 153.176C837.412 152.908 837.248 152.669 837.133 152.461H837.018V157.67H835.106ZM836.979 149.079C836.979 149.77 837.079 150.375 837.28 150.895C837.48 151.414 837.77 151.821 838.149 152.115C838.528 152.405 838.993 152.55 839.542 152.55C840.113 152.55 840.591 152.399 840.974 152.096C841.358 151.789 841.648 151.374 841.844 150.85C842.044 150.326 842.144 149.735 842.144 149.079C842.144 148.431 842.046 147.85 841.85 147.334C841.658 146.819 841.368 146.412 840.981 146.113C840.597 145.815 840.118 145.666 839.542 145.666C838.988 145.666 838.52 145.809 838.136 146.094C837.757 146.38 837.469 146.778 837.273 147.289C837.077 147.801 836.979 148.397 836.979 149.079ZM848.913 154.206C848.291 154.206 847.728 154.091 847.225 153.86C846.723 153.626 846.324 153.287 846.03 152.844C845.74 152.401 845.596 151.858 845.596 151.214C845.596 150.66 845.702 150.204 845.915 149.846C846.128 149.488 846.416 149.205 846.778 148.996C847.14 148.787 847.545 148.63 847.993 148.523C848.44 148.417 848.896 148.336 849.36 148.28C849.948 148.212 850.426 148.157 850.792 148.114C851.159 148.067 851.425 147.993 851.591 147.89C851.757 147.788 851.841 147.622 851.841 147.392V147.347C851.841 146.789 851.683 146.356 851.368 146.049C851.056 145.743 850.592 145.589 849.974 145.589C849.331 145.589 848.823 145.732 848.453 146.017C848.086 146.299 847.833 146.612 847.692 146.957L845.896 146.548C846.109 145.951 846.42 145.47 846.829 145.103C847.243 144.733 847.718 144.464 848.255 144.298C848.792 144.127 849.356 144.042 849.948 144.042C850.341 144.042 850.756 144.089 851.195 144.183C851.638 144.272 852.051 144.439 852.435 144.681C852.823 144.924 853.14 145.272 853.387 145.723C853.635 146.171 853.758 146.752 853.758 147.468V153.988H851.892V152.646H851.815C851.691 152.893 851.506 153.136 851.259 153.375C851.012 153.613 850.694 153.811 850.306 153.969C849.919 154.127 849.454 154.206 848.913 154.206ZM849.328 152.672C849.857 152.672 850.309 152.567 850.684 152.358C851.063 152.15 851.35 151.877 851.547 151.54C851.747 151.199 851.847 150.835 851.847 150.447V149.181C851.779 149.25 851.647 149.314 851.451 149.373C851.259 149.429 851.039 149.478 850.792 149.52C850.545 149.559 850.304 149.595 850.07 149.629C849.836 149.659 849.64 149.684 849.482 149.706C849.111 149.752 848.772 149.831 848.466 149.942C848.163 150.053 847.92 150.213 847.737 150.422C847.558 150.626 847.468 150.899 847.468 151.24C847.468 151.713 847.643 152.071 847.993 152.314C848.342 152.552 848.787 152.672 849.328 152.672ZM860.279 154.186C859.329 154.186 858.511 153.971 857.825 153.541C857.143 153.106 856.619 152.507 856.252 151.745C855.886 150.982 855.703 150.108 855.703 149.124C855.703 148.127 855.89 147.247 856.265 146.484C856.64 145.717 857.169 145.118 857.85 144.688C858.532 144.257 859.336 144.042 860.26 144.042C861.006 144.042 861.671 144.181 862.255 144.458C862.838 144.73 863.309 145.114 863.667 145.608C864.029 146.103 864.245 146.68 864.313 147.341H862.453C862.35 146.88 862.116 146.484 861.75 146.152C861.387 145.819 860.902 145.653 860.292 145.653C859.76 145.653 859.293 145.794 858.892 146.075C858.496 146.352 858.187 146.748 857.966 147.264C857.744 147.775 857.633 148.38 857.633 149.079C857.633 149.795 857.742 150.413 857.959 150.933C858.176 151.453 858.483 151.855 858.88 152.141C859.28 152.426 859.751 152.569 860.292 152.569C860.654 152.569 860.983 152.503 861.277 152.371C861.575 152.235 861.824 152.041 862.024 151.789C862.229 151.538 862.372 151.235 862.453 150.882H864.313C864.245 151.517 864.038 152.083 863.693 152.582C863.348 153.081 862.885 153.473 862.306 153.758C861.73 154.044 861.055 154.186 860.279 154.186ZM870.428 154.186C869.461 154.186 868.628 153.98 867.929 153.566C867.234 153.149 866.697 152.563 866.318 151.809C865.943 151.05 865.756 150.162 865.756 149.143C865.756 148.137 865.943 147.251 866.318 146.484C866.697 145.717 867.226 145.118 867.903 144.688C868.585 144.257 869.382 144.042 870.294 144.042C870.848 144.042 871.385 144.134 871.905 144.317C872.425 144.5 872.891 144.788 873.305 145.18C873.718 145.572 874.044 146.081 874.283 146.708C874.521 147.33 874.641 148.086 874.641 148.977V149.654H866.836V148.223H872.768C872.768 147.72 872.665 147.275 872.461 146.887C872.256 146.495 871.969 146.186 871.598 145.96C871.231 145.734 870.801 145.621 870.307 145.621C869.77 145.621 869.301 145.753 868.901 146.017C868.504 146.277 868.197 146.618 867.98 147.04C867.767 147.458 867.66 147.912 867.66 148.402V149.52C867.66 150.176 867.776 150.735 868.006 151.195C868.24 151.655 868.566 152.007 868.984 152.25C869.401 152.488 869.889 152.608 870.447 152.608C870.81 152.608 871.14 152.556 871.438 152.454C871.736 152.348 871.994 152.19 872.212 151.981C872.429 151.772 872.595 151.515 872.71 151.208L874.519 151.534C874.374 152.066 874.114 152.533 873.739 152.934C873.369 153.33 872.902 153.639 872.339 153.86C871.781 154.078 871.144 154.186 870.428 154.186Z" fill="#8D95A3"/>
<path fill-rule="evenodd" clip-rule="evenodd" d="M176.602 144.674C179.951 146.093 180.153 150.212 177.06 153.867C173.967 157.518 168.742 159.324 165.402 157.9C150.417 151.839 140.307 138.818 138.054 126.866C136.113 116.556 140.4 106.676 148.701 100.193C156.479 94.1317 164.392 91.7618 172.348 91.6817C183.577 91.5665 195.071 97.3849 205.829 100.643C208.202 101.352 210.515 101.902 212.797 102.081C214.513 102.226 216.13 102.337 217.685 101.089C222.335 97.3566 221.136 93.503 220.008 89.3612C217.358 79.6643 210.29 69.7034 208.486 60.5363C206.916 52.5207 209.032 44.7402 215.261 37.7268C219.428 33.0387 223.891 29.9716 228.359 27.9321C234.573 25.1014 241.217 24.3366 247.938 25.6345C259.31 27.8219 271.851 37.258 284.272 42.6567C287.634 44.1126 290.927 45.2509 294.259 45.4422C295.814 45.5266 297.324 45.4384 298.819 44.2793C300.579 42.9252 300.732 41.4458 300.699 39.9335C300.658 37.7031 299.998 35.4621 299.137 33.1455C295.073 22.1638 286.934 10.3771 287.056 -0.861429C287.154 -9.44544 290.906 -17.8753 300.32 -26.0126C308.868 -33.3818 319.317 -36.6478 330.71 -36.0383C343.277 -35.3732 357.765 -29.6147 370.965 -26.5362C374.873 -25.6298 378.59 -24.9462 382.112 -25.0037C383.752 -25.0295 385.184 -24.6591 386.414 -25.7605C387.13 -26.3991 387.833 -26.8402 387.966 -27.3785C388.195 -28.3053 387.658 -29.003 387.145 -29.8101C386.292 -31.0927 385.092 -32.3069 383.719 -33.5144C374.945 -41.0895 360.766 -48.1412 357.243 -57.0535C354.431 -64.1888 355.987 -72.2278 366.001 -81.8808C373.8 -89.3963 381.885 -92.8755 390.183 -93.8242C400.22 -94.9742 410.873 -91.4989 421.162 -88.8458C425.129 -87.8355 428.993 -86.9431 432.86 -87.0432C435.369 -87.1052 437.847 -87.5128 440.213 -89.4452C448.927 -96.5517 450.854 -107.359 450.695 -117.366C450.514 -129.164 446.838 -140.15 442.055 -143.912C439.326 -145.974 440.073 -150.353 443.722 -153.685C447.368 -157.016 452.541 -158.046 455.269 -155.984C462.652 -150.623 469.604 -133.316 468.273 -115.633C467.291 -102.543 461.509 -89.3976 450.375 -79.9971C442.804 -73.6056 434.821 -70.949 426.574 -70.5525C416.937 -70.0918 406.727 -73.5567 396.783 -75.602C393.626 -76.2544 390.497 -76.7092 387.416 -76.6168C384.593 -76.5383 381.812 -75.8046 379.244 -73.2513C374.823 -68.8578 378.158 -66.4456 381.279 -63.6845C385.796 -59.7974 392.092 -56.2621 397.434 -52.6038C402.422 -49.1737 406.539 -45.4983 408.632 -41.5555C412.591 -34.1256 411.106 -25.7139 399.876 -15.4061C391.676 -7.87525 381.248 -4.66454 369.656 -5.3482C357.315 -6.07536 342.84 -11.6804 329.495 -14.4031C325.606 -15.1889 321.877 -15.712 318.355 -15.5368C316.72 -15.4543 315.24 -15.5659 313.987 -14.4733C311.844 -12.6069 311.287 -10.6522 311.218 -8.69437C311.138 -6.43871 311.661 -4.19376 312.399 -1.91259C316.007 9.27275 324.323 20.7286 324.833 31.2019C325.281 40.3897 321.367 49.143 310.701 57.3161C300.405 65.1718 289.788 67.414 279.237 65.3115C267.032 62.875 254.552 53.4241 242.947 47.8095C240.241 46.5003 237.641 45.4112 235.046 44.9344C233.688 44.6802 232.44 44.2325 231.228 45.5623C230.174 46.7191 230.33 47.9228 230.395 49.243C230.52 51.9107 231.346 54.663 232.422 57.4965C236.403 67.9938 242.922 79.3136 241.916 89.7242C241.159 97.5323 237.277 105.052 228.262 112.045C220.123 118.361 211.585 120.52 202.829 119.413C192.928 118.159 182.388 111.863 171.754 109.093C167.058 107.871 162.594 106.765 157.851 110.328C156.28 111.51 156.021 113.183 155.821 115.023C155.373 119.212 156.556 123.833 158.921 128.253C162.471 134.894 168.589 141.085 176.602 144.674Z" fill="#D8DBDF"/>
<path fill-rule="evenodd" clip-rule="evenodd" d="M1214.62 95.0065C1211.75 95.1044 1208.95 96.3046 1207.01 98.7336C1203.65 102.93 1204.6 108.745 1204.76 113.764C1204.97 120.601 1204.33 127.461 1202.5 134.051L1201.48 137.37C1201.18 138.247 1200.39 139.909 1200.47 140.799C1201.69 142.137 1204.66 140.882 1205.67 139.847L1205.75 139.755C1206.19 139.295 1206.39 138.643 1206.64 138.057L1207.78 135.209C1210.36 128.235 1211.16 120.889 1211.06 113.465C1211.02 110.707 1210.7 107.85 1210.9 105.101C1211.11 102.165 1213.3 98.9934 1216.46 99.3043C1218.79 99.5331 1221.8 101.471 1223.23 103.313C1227.06 108.249 1227.94 115.773 1227.53 121.98C1227.24 126.457 1225.08 129.892 1231.44 125.275C1235.99 121.976 1240.76 119.068 1245.66 116.377L1252.08 113.153C1254.65 111.969 1262.09 108.688 1264.55 111.454C1265.64 112.677 1266.16 114.802 1266.04 116.425C1265.74 120.359 1261.13 123.122 1258.29 124.997L1251.17 129.553C1250.3 130.098 1249.06 130.593 1248.34 131.323C1247.67 132.005 1248.48 133.218 1249.39 132.92C1253.29 131.638 1256.06 129.475 1260.63 128.866C1264.13 128.4 1269.72 129.183 1270.2 133.701C1270.41 135.652 1269.79 137.931 1268.52 139.409C1265.06 143.457 1251.01 147.646 1249.98 148.983C1249.47 152.224 1253.43 150.117 1255.03 149.625C1259.77 148.174 1269.08 144.724 1269.64 152.472C1270.33 162.144 1253.23 164.718 1246.18 165.95C1245.87 166.004 1239.66 166.571 1241.96 168.257C1243.44 169.345 1256.34 166.482 1258.73 166.008C1255.44 168.37 1251.9 170.633 1248.32 172.487L1243.01 174.906C1235.28 178.282 1228.51 179.761 1220.14 178.348C1219.54 178.246 1218.86 178.469 1218.74 177.774C1217.09 168.2 1210.43 149.799 1202.36 143.564C1200.04 141.772 1199.52 143.54 1197.61 144.559L1194.56 146.177C1191.41 147.667 1180.23 152.416 1181.04 157.083L1181.07 157.239C1181.25 158.294 1181.94 159.279 1182.49 160.164L1181.31 160.124L1181.14 161.007C1180.69 165.474 1184.36 171.33 1186.21 175.13L1187.87 178.834C1188.58 180.297 1189.75 182.522 1190.8 183.794L1190.89 183.91C1190.98 184.462 1191.17 184.908 1191.4 185.411C1191.76 186.583 1191.63 188.065 1191.95 188.884C1193.52 192.888 1198 195.626 1202.13 195.308C1206.83 194.946 1211.61 191.86 1215.27 189.02C1218.06 186.849 1219.19 186.451 1219.1 182.649L1218.98 180.074C1219.8 180.457 1220.71 180.602 1221.59 180.774C1229.6 182.349 1236.18 180.117 1243.43 176.918L1248.76 174.499C1252.43 172.635 1255.95 170.425 1259.4 168.179L1265.6 163.912C1269.82 160.752 1274.34 156.294 1273.01 150.308L1272.99 150.196C1272.32 147.023 1271.22 145.5 1268.49 144.199C1268.95 143.841 1269.46 143.551 1269.9 143.149C1276.04 137.487 1275.01 126.042 1265.74 124.045C1269.09 120.785 1271.02 115.296 1268.73 110.87C1263.4 100.56 1242.86 113.145 1236.64 117.114L1232.72 119.71C1231.75 120.391 1230.85 121.124 1229.81 121.704C1230.7 114.23 1228.24 102.715 1222.71 97.8876C1220.45 95.9136 1217.5 94.9087 1214.62 95.0065Z" fill="#8D95A3"/>
<path fill-rule="evenodd" clip-rule="evenodd" d="M298.474 464.004C294.983 463.929 291.456 464.911 288.325 466.438C282.957 469.089 278.509 473.792 278.325 480.074C268.744 474.757 257.01 477.983 251.716 487.864C247.545 495.646 251.371 506.938 258.943 510.998C263.055 513.203 267.838 513.711 272.347 514.552C276.991 515.418 281.909 516.485 286.275 518.347C289.53 519.666 292.734 521.12 295.688 523.056L298.771 525.231C300.205 526.295 303.24 528.399 304.211 525.622C304.504 524.785 304.084 523.545 303.988 522.669C303.26 515.986 304.918 509.265 307.434 503.13L311.404 494.047C315.64 483.475 315.835 469.079 303.174 464.807C301.642 464.29 300.061 464.038 298.474 464.004Z" fill="#8D95A3"/>
</g>
<defs>
<clipPath id="clip0_3015_3505">
<rect width="1440" height="560" fill="white"/>
</clipPath>
</defs>
</svg>
