<svg width="411" height="256" viewBox="0 0 411 256" fill="none" xmlns="http://www.w3.org/2000/svg">
<g clip-path="url(#clip0_2321_2637)">
<rect width="411" height="256" fill="#EDEEF1"/>
<path fill-rule="evenodd" clip-rule="evenodd" d="M147.638 107.067L207.507 70.0687C207.855 69.8541 208.273 69.8541 208.631 70.0568C208.631 70.0568 228.335 81.1419 245.374 90.8205C258.384 98.1987 269.832 104.766 269.832 104.766C270.459 105.124 270.797 105.946 270.648 106.757C270.499 107.567 269.902 108.14 269.206 108.151C269.206 108.151 246.488 108.366 220.726 108.521C186.977 108.736 147.996 108.843 147.996 108.843C147.638 108.843 147.31 108.545 147.23 108.128C147.141 107.698 147.31 107.27 147.638 107.067ZM151.458 106.888C161.723 106.662 192.975 105.982 220.696 105.446C238.192 105.112 254.276 104.838 262.81 104.695C258.235 102.084 251.421 98.1867 244.12 93.9791C228.813 85.1705 211.396 75.0749 208.084 73.1439L151.458 106.888Z" fill="#B5BBC4"/>
<path fill-rule="evenodd" clip-rule="evenodd" d="M118.515 112.538C118.127 112.765 117.65 112.574 117.461 112.109C117.262 111.656 117.421 111.084 117.809 110.857C117.809 110.857 146.724 92.978 171.809 77.6018C178.265 73.6565 184.461 69.8781 189.852 66.6122C200.465 60.1756 207.925 55.7177 207.925 55.7177C208.353 55.4554 208.86 55.4554 209.278 55.7296C209.278 55.7296 224.417 65.2653 241.545 76.1717C263.985 90.4631 289.846 107.067 289.846 107.067C290.224 107.317 290.373 107.878 290.174 108.342C289.975 108.795 289.508 108.974 289.12 108.736C289.12 108.736 262.96 92.7992 240.351 78.9129C225.232 69.6277 211.705 61.2364 208.582 59.3055C206.523 60.5451 199.928 64.5143 191.165 69.747C185.754 72.9772 179.528 76.6723 173.023 80.5102C147.748 95.4335 118.515 112.538 118.515 112.538Z" fill="#B5BBC4"/>
<path fill-rule="evenodd" clip-rule="evenodd" d="M331.29 116.675L325.76 129.169C325.621 129.491 325.342 129.694 325.039 129.706C325.039 129.706 250.52 130.949 186.004 131.877C136.747 132.594 93.3058 133.117 93.3058 133.117C92.8987 133.129 92.4917 132.915 92.2127 132.557L81.1579 118.343C80.7511 117.819 80.6467 117.068 80.8796 116.412C81.1125 115.768 81.6476 115.351 82.2408 115.339C82.2408 115.339 128.787 115.232 181.591 115.215C250.736 115.191 330.605 115.293 330.605 115.293C330.872 115.293 331.128 115.459 331.279 115.745C331.419 116.031 331.43 116.389 331.29 116.675ZM329.29 117.176C318.636 117.278 245.536 117.888 181.59 118.326C137.241 118.624 97.2897 118.835 85.6589 118.889L93.9353 129.553C99.5414 129.491 140.249 129.064 185.982 128.694C247.451 128.185 318.003 127.755 324.528 127.716L329.29 117.176Z" fill="#B5BBC4"/>
<path fill-rule="evenodd" clip-rule="evenodd" d="M103.437 114.457C103.059 114.695 102.581 114.517 102.382 114.052C102.183 113.599 102.333 113.027 102.711 112.788C102.711 112.788 136.36 91.2378 165.543 72.7149C187.834 58.5664 207.528 46.2058 207.528 46.2058C207.946 45.9436 208.433 45.9317 208.861 46.182C208.861 46.182 229.769 58.1849 253.432 71.9282C284.425 89.9147 320.163 110.845 320.163 110.845C320.561 111.072 320.72 111.632 320.531 112.097C320.352 112.562 319.885 112.764 319.487 112.538C319.487 112.538 283.45 92.3701 252.298 74.777C231.012 62.7501 212.004 51.9272 208.244 49.7817C204.643 52.0345 186.789 63.1673 166.777 75.5279C137.414 93.6693 103.437 114.457 103.437 114.457Z" fill="#B5BBC4"/>
<path fill-rule="evenodd" clip-rule="evenodd" d="M90.6447 141.443C90.2071 141.443 89.859 141.014 89.859 140.501C89.859 139.977 90.217 139.56 90.6447 139.56C90.6447 139.56 120.604 139.321 158.749 139.262C173.102 139.238 188.629 139.226 204.146 139.321C219.662 139.405 235.189 139.595 249.542 139.774C287.687 140.239 317.637 140.764 317.637 140.764C318.074 140.764 318.422 141.193 318.422 141.705C318.412 142.218 318.064 142.647 317.627 142.635C317.627 142.635 287.677 142.838 249.532 142.909C235.169 142.933 219.652 142.969 204.136 142.885C188.609 142.814 173.092 142.635 158.739 142.468C120.594 142.003 90.6447 141.443 90.6447 141.443Z" fill="#B5BBC4"/>
<path fill-rule="evenodd" clip-rule="evenodd" d="M90.0177 141.062C89.7591 140.644 89.8288 140.06 90.1769 139.75C90.525 139.44 91.0124 139.524 91.271 139.941L101.735 156.64C101.854 156.831 101.914 157.069 101.914 157.308C101.914 157.308 101.904 185.581 101.844 213.854C101.795 242.127 101.685 270.4 101.685 270.4C101.675 270.936 101.476 271.425 101.128 271.759L94.9016 277.552L124.065 277.802L118.923 271.592C118.664 271.282 118.515 270.853 118.515 270.4C118.515 270.4 118.495 249.219 118.505 225.189C118.525 193.722 118.594 157.391 118.594 157.391C118.594 157.129 118.674 156.867 118.813 156.676L130.789 140.108C131.077 139.715 131.565 139.667 131.893 140.001C132.231 140.346 132.261 140.93 131.983 141.324L120.415 157.773C120.454 161.802 120.773 195.641 121.021 225.178C121.19 246.621 121.33 265.811 121.35 269.673L128.641 278.339C129.058 278.851 129.178 279.602 128.949 280.258C128.72 280.913 128.183 281.342 127.596 281.33L90.6344 281.044C90.0078 281.032 89.4509 280.556 89.2519 279.84C89.043 279.125 89.2519 278.339 89.7393 277.886L98.8106 269.53C98.8604 264.643 99.109 239.231 99.3975 213.83C99.6959 187.416 100.034 160.991 100.084 157.641L90.0177 141.062Z" fill="#B5BBC4"/>
<path fill-rule="evenodd" clip-rule="evenodd" d="M101 158.237C100.562 158.237 100.214 157.808 100.214 157.296C100.214 156.771 100.572 156.354 101 156.354C101 156.354 103.426 155.973 106.56 155.722C107.723 155.627 108.987 155.544 110.26 155.555C111.523 155.567 112.786 155.687 113.96 155.794C117.083 156.08 119.51 156.449 119.51 156.449C119.938 156.449 120.286 156.867 120.286 157.391C120.286 157.904 119.938 158.321 119.5 158.321C119.5 158.321 117.083 158.667 113.95 158.917C112.776 159.024 111.513 159.131 110.25 159.131C108.977 159.131 107.713 159.024 106.55 158.917C103.417 158.643 101 158.237 101 158.237Z" fill="#B5BBC4"/>
<path fill-rule="evenodd" clip-rule="evenodd" d="M96.2746 150.597C95.8469 150.585 95.4987 150.168 95.5087 149.643C95.5087 149.131 95.8668 148.714 96.2945 148.714C96.2945 148.714 100.044 148.356 104.849 148.154C106.649 148.07 108.598 148.011 110.548 148.034C112.497 148.058 114.437 148.201 116.247 148.32C121.042 148.642 124.782 149.047 124.782 149.047C125.219 149.059 125.567 149.477 125.557 150.001C125.557 150.514 125.199 150.931 124.772 150.931C124.772 150.931 121.022 151.241 116.218 151.455C114.417 151.539 112.468 151.622 110.518 151.61C108.569 151.586 106.619 151.479 104.819 151.36C100.024 151.038 96.2746 150.597 96.2746 150.597Z" fill="#B5BBC4"/>
<path fill-rule="evenodd" clip-rule="evenodd" d="M106.928 166.545C106.928 166.021 107.286 165.604 107.713 165.616C108.151 165.616 108.499 166.033 108.499 166.557C108.499 166.557 108.788 178.763 108.947 194.33C109.016 200.194 109.066 206.523 109.046 212.853C109.016 219.182 108.897 225.511 108.798 231.376C108.519 246.931 108.171 259.148 108.171 259.148C108.171 259.661 107.823 260.078 107.385 260.078C106.958 260.078 106.609 259.661 106.609 259.136C106.609 259.136 106.351 246.919 106.182 231.352C106.112 225.499 106.042 219.17 106.062 212.841C106.082 206.511 106.182 200.182 106.281 194.318C106.55 178.751 106.928 166.545 106.928 166.545Z" fill="#B5BBC4"/>
<path fill-rule="evenodd" clip-rule="evenodd" d="M114.726 259.136C114.726 259.661 114.378 260.078 113.95 260.078C113.512 260.078 113.164 259.661 113.164 259.148C113.164 259.148 112.806 246.394 112.557 230.124C112.468 224.009 112.378 217.406 112.378 210.791C112.368 204.175 112.448 197.56 112.528 191.445C112.717 175.187 113.005 162.433 113.005 162.433C112.995 161.908 113.353 161.491 113.781 161.491C114.218 161.491 114.567 161.908 114.567 162.421C114.567 162.421 114.885 175.187 115.144 191.433C115.233 197.56 115.343 204.163 115.352 210.779C115.372 217.394 115.303 224.009 115.233 230.124C115.034 246.382 114.726 259.136 114.726 259.136Z" fill="#B5BBC4"/>
<path fill-rule="evenodd" clip-rule="evenodd" d="M134.003 141.288C133.754 140.859 133.833 140.275 134.181 139.977C134.53 139.667 135.027 139.762 135.276 140.191L146.018 157.808C146.137 157.999 146.197 158.226 146.197 158.464C146.197 158.464 146.277 186.439 146.306 214.426C146.336 242.413 146.306 270.4 146.306 270.4C146.306 270.889 146.137 271.342 145.839 271.676L140.12 277.886L167.831 278.875L162.35 271.533C162.112 271.223 161.982 270.817 161.982 270.388C161.982 270.388 162.062 249.481 162.191 225.762C162.36 194.711 162.599 158.833 162.599 158.833C162.599 158.571 162.679 158.309 162.828 158.118L175.858 140.346C176.146 139.953 176.634 139.905 176.962 140.251C177.29 140.585 177.33 141.181 177.041 141.574L164.449 159.239C164.459 163.268 164.618 196.63 164.718 225.773C164.787 247.002 164.827 265.99 164.837 269.721L172.297 279.578C172.685 280.091 172.784 280.854 172.536 281.485C172.287 282.129 171.75 282.522 171.163 282.51L136.39 281.283C135.783 281.271 135.256 280.806 135.047 280.138C134.838 279.459 134.997 278.696 135.445 278.219L143.432 269.613C143.462 264.941 143.631 239.684 143.84 214.414C144.058 188.251 144.317 162.099 144.357 158.798L134.003 141.288Z" fill="#B5BBC4"/>
<path fill-rule="evenodd" clip-rule="evenodd" d="M145.261 159.394C144.834 159.382 144.486 158.953 144.496 158.44C144.496 157.916 144.854 157.51 145.291 157.51C145.291 157.51 147.678 157.165 150.772 156.974C151.926 156.891 153.179 156.831 154.422 156.855C155.676 156.891 156.919 157.034 158.073 157.153C161.156 157.487 163.533 157.904 163.533 157.904C163.971 157.904 164.309 158.333 164.309 158.857C164.299 159.37 163.941 159.787 163.513 159.775C163.513 159.775 161.116 160.085 158.023 160.288C156.869 160.359 155.626 160.454 154.373 160.431C153.119 160.407 151.876 160.288 150.722 160.168C147.639 159.835 145.261 159.394 145.261 159.394Z" fill="#B5BBC4"/>
<path fill-rule="evenodd" clip-rule="evenodd" d="M140.657 151.765C140.229 151.741 139.891 151.3 139.911 150.776C139.931 150.263 140.299 149.858 140.727 149.882C140.727 149.882 144.367 149.679 149.022 149.667C150.763 149.667 152.653 149.679 154.533 149.787C156.423 149.894 158.302 150.109 160.033 150.299C164.668 150.824 168.279 151.372 168.279 151.372C168.707 151.396 169.045 151.837 169.025 152.349C169.005 152.874 168.637 153.267 168.209 153.243C168.209 153.243 164.569 153.41 159.924 153.434C158.173 153.434 156.283 153.446 154.403 153.35C152.513 153.255 150.634 153.064 148.903 152.874C144.268 152.349 140.657 151.765 140.657 151.765Z" fill="#B5BBC4"/>
<path fill-rule="evenodd" clip-rule="evenodd" d="M151.906 167.952C151.906 167.439 152.254 167.022 152.692 167.022C153.119 167.022 153.468 167.451 153.468 167.964C153.468 167.964 153.746 179.991 153.905 195.319C153.965 201.088 154.015 207.322 153.985 213.556C153.955 219.79 153.836 226.024 153.726 231.793C153.438 247.121 153.09 259.148 153.09 259.148C153.08 259.661 152.732 260.09 152.294 260.078C151.866 260.078 151.518 259.649 151.518 259.136C151.518 259.136 151.269 247.109 151.11 231.781C151.051 226.012 150.981 219.778 151.001 213.544C151.021 207.31 151.13 201.076 151.239 195.307C151.518 179.979 151.906 167.952 151.906 167.952Z" fill="#B5BBC4"/>
<path fill-rule="evenodd" clip-rule="evenodd" d="M159.346 261.484C159.346 262.009 158.998 262.426 158.561 262.426C158.133 262.426 157.785 261.997 157.785 261.484C157.785 261.484 157.486 248.754 157.307 232.532C157.238 226.429 157.178 219.825 157.208 213.222C157.228 206.631 157.337 200.027 157.437 193.924C157.705 177.702 158.043 164.972 158.043 164.972C158.043 164.459 158.391 164.042 158.829 164.042C159.257 164.042 159.605 164.459 159.605 164.984C159.605 164.984 159.874 177.714 160.053 193.936C160.122 200.039 160.202 206.642 160.182 213.234C160.172 219.837 160.082 226.429 159.983 232.532C159.714 248.766 159.346 261.484 159.346 261.484Z" fill="#B5BBC4"/>
<path fill-rule="evenodd" clip-rule="evenodd" d="M179.29 141.562C179.021 141.157 179.081 140.561 179.419 140.239C179.757 139.917 180.245 139.989 180.513 140.394L192.21 157.772C192.34 157.963 192.409 158.213 192.409 158.464C192.409 158.464 192.449 186.761 192.439 215.058C192.429 243.366 192.369 271.663 192.369 271.663C192.369 272.14 192.2 272.605 191.902 272.927L186.62 278.767L214.202 279.947L208.692 272.605C208.453 272.295 208.324 271.89 208.324 271.461C208.324 271.461 208.334 250.196 208.384 226.083C208.443 194.496 208.573 158.011 208.573 158.011C208.573 157.725 208.662 157.451 208.831 157.248L222.428 140.549C222.726 140.179 223.224 140.167 223.532 140.525C223.841 140.882 223.85 141.478 223.552 141.848L210.413 158.44C210.443 162.659 210.711 196.511 210.91 226.071C211.049 247.693 211.159 267.027 211.179 270.793L218.698 280.675C219.086 281.199 219.185 281.95 218.937 282.594C218.688 283.237 218.141 283.631 217.554 283.607L182.94 282.141C182.343 282.117 181.816 281.664 181.607 280.996C181.408 280.317 181.558 279.566 181.995 279.077L189.495 270.889C189.535 266.204 189.734 240.625 189.982 215.046C190.231 188.656 190.529 162.278 190.569 158.833L179.29 141.562Z" fill="#B5BBC4"/>
<path fill-rule="evenodd" clip-rule="evenodd" d="M186.411 151.765C185.983 151.753 185.635 151.324 185.645 150.8C185.655 150.287 186.013 149.87 186.451 149.882C186.451 149.882 190.171 149.584 194.935 149.441C196.715 149.393 198.645 149.346 200.585 149.405C202.514 149.465 204.434 149.632 206.224 149.775C210.979 150.168 214.679 150.633 214.679 150.633C215.117 150.645 215.455 151.074 215.445 151.586C215.435 152.099 215.077 152.516 214.649 152.504C214.649 152.504 210.929 152.766 206.165 152.909C204.374 152.969 202.445 153.029 200.515 152.981C198.585 152.933 196.656 152.79 194.875 152.647C190.121 152.254 186.411 151.765 186.411 151.765Z" fill="#B5BBC4"/>
<path fill-rule="evenodd" clip-rule="evenodd" d="M191.504 159.394C191.077 159.405 190.718 158.988 190.708 158.476C190.699 157.951 191.047 157.522 191.474 157.51C191.474 157.51 193.822 157.057 196.865 156.724C197.999 156.592 199.223 156.473 200.456 156.449C201.69 156.425 202.923 156.497 204.067 156.581C207.111 156.771 209.478 157.069 209.478 157.069C209.905 157.057 210.264 157.474 210.274 157.987C210.284 158.511 209.935 158.941 209.508 158.953C209.508 158.953 207.16 159.37 204.117 159.715C202.983 159.835 201.749 159.978 200.516 160.013C199.292 160.049 198.059 159.989 196.915 159.918C193.862 159.727 191.504 159.394 191.504 159.394Z" fill="#B5BBC4"/>
<path fill-rule="evenodd" clip-rule="evenodd" d="M197.92 167.57C197.92 167.058 198.268 166.629 198.706 166.641C199.133 166.641 199.482 167.058 199.482 167.582C199.482 167.582 199.77 179.776 199.939 195.319C199.999 201.16 200.058 207.489 200.029 213.806C199.999 220.135 199.889 226.453 199.78 232.293C199.501 247.836 199.163 260.03 199.163 260.03C199.163 260.543 198.805 260.972 198.378 260.972C197.94 260.96 197.592 260.543 197.592 260.018C197.592 260.018 197.343 247.824 197.164 232.281C197.104 226.441 197.035 220.112 197.045 213.794C197.064 207.477 197.164 201.148 197.264 195.307C197.542 179.764 197.92 167.57 197.92 167.57Z" fill="#B5BBC4"/>
<path fill-rule="evenodd" clip-rule="evenodd" d="M204.921 261.365C204.921 261.89 204.573 262.307 204.135 262.307C203.708 262.307 203.36 261.89 203.36 261.365C203.36 261.365 203.021 248.385 202.802 231.841C202.723 225.607 202.643 218.884 202.643 212.15C202.653 205.415 202.743 198.692 202.832 192.458C203.051 175.914 203.36 162.934 203.36 162.934C203.36 162.409 203.708 161.992 204.135 161.992C204.573 161.992 204.921 162.409 204.921 162.934C204.921 162.934 205.22 175.914 205.448 192.458C205.528 198.692 205.627 205.415 205.627 212.15C205.637 218.884 205.558 225.607 205.478 231.841C205.249 248.385 204.921 261.365 204.921 261.365Z" fill="#B5BBC4"/>
<path fill-rule="evenodd" clip-rule="evenodd" d="M227.092 141.812C226.824 141.395 226.883 140.811 227.222 140.489C227.56 140.167 228.047 140.239 228.316 140.644L239.744 157.773C239.874 157.963 239.943 158.214 239.943 158.464C239.943 158.464 240.003 186.713 240.003 214.962C240.013 243.212 239.963 271.473 239.963 271.473C239.963 271.962 239.784 272.426 239.476 272.76L233.488 279.078L261.607 278.613L256.594 272.677C256.315 272.355 256.166 271.926 256.166 271.473C256.166 271.473 256.146 250.292 256.166 226.274C256.186 194.83 256.266 158.5 256.266 158.5C256.266 158.226 256.345 157.963 256.504 157.761L269.365 140.823C269.654 140.43 270.151 140.406 270.469 140.752C270.798 141.097 270.818 141.693 270.529 142.075L258.106 158.905C258.136 163.017 258.454 196.785 258.683 226.262C258.862 247.681 258.991 266.836 259.011 270.734L266.143 279.066C266.56 279.554 266.7 280.305 266.481 280.961C266.252 281.616 265.725 282.057 265.138 282.069L229.549 282.665C228.922 282.677 228.365 282.224 228.147 281.533C227.928 280.842 228.087 280.055 228.554 279.566L237.089 270.662C237.128 265.93 237.317 240.434 237.546 214.951C237.785 188.596 238.063 162.254 238.103 158.822L227.092 141.812Z" fill="#B5BBC4"/>
<path fill-rule="evenodd" clip-rule="evenodd" d="M233.906 151.61C233.468 151.598 233.12 151.181 233.13 150.657C233.13 150.144 233.488 149.727 233.916 149.727C233.916 149.727 237.715 149.381 242.589 149.179C244.409 149.095 246.389 149.024 248.358 149.06C250.337 149.084 252.307 149.227 254.137 149.346C259.001 149.668 262.791 150.073 262.791 150.073C263.228 150.085 263.577 150.502 263.567 151.026C263.567 151.539 263.208 151.956 262.781 151.956C262.781 151.956 258.971 152.266 254.107 152.48C252.277 152.564 250.308 152.647 248.328 152.623C246.359 152.612 244.379 152.492 242.559 152.373C237.695 152.051 233.906 151.61 233.906 151.61Z" fill="#B5BBC4"/>
<path fill-rule="evenodd" clip-rule="evenodd" d="M239.029 159.393C238.591 159.393 238.243 158.964 238.243 158.452C238.243 157.939 238.601 157.51 239.029 157.51C239.029 157.51 241.406 157.129 244.479 156.867C245.623 156.771 246.866 156.676 248.11 156.688C249.353 156.7 250.586 156.807 251.74 156.914C254.814 157.188 257.181 157.558 257.181 157.558C257.619 157.558 257.967 157.975 257.967 158.5C257.967 159.012 257.609 159.441 257.181 159.441C257.181 159.441 254.804 159.787 251.73 160.049C250.586 160.144 249.343 160.264 248.1 160.264C246.856 160.264 245.623 160.168 244.469 160.061C241.396 159.799 239.029 159.393 239.029 159.393Z" fill="#B5BBC4"/>
<path fill-rule="evenodd" clip-rule="evenodd" d="M245.534 167.451C245.534 166.939 245.892 166.522 246.319 166.522C246.757 166.533 247.105 166.951 247.095 167.475C247.095 167.475 247.324 179.633 247.414 195.14C247.443 200.969 247.463 207.274 247.404 213.58C247.344 219.885 247.195 226.191 247.065 232.019C246.707 247.515 246.299 259.673 246.299 259.673C246.29 260.197 245.941 260.614 245.504 260.602C245.076 260.602 244.728 260.173 244.728 259.661C244.728 259.661 244.539 247.491 244.449 231.995C244.41 226.155 244.37 219.849 244.42 213.544C244.469 207.239 244.609 200.933 244.738 195.104C245.096 179.609 245.534 167.451 245.534 167.451Z" fill="#B5BBC4"/>
<path fill-rule="evenodd" clip-rule="evenodd" d="M252.686 261.389C252.686 261.913 252.338 262.33 251.9 262.33C251.472 262.319 251.124 261.901 251.124 261.389C251.124 261.389 250.855 248.349 250.716 231.733C250.666 225.487 250.617 218.729 250.657 211.971C250.696 205.212 250.826 198.454 250.935 192.208C251.243 175.592 251.601 162.564 251.601 162.564C251.611 162.04 251.96 161.623 252.387 161.623C252.825 161.635 253.173 162.052 253.173 162.576C253.173 162.576 253.412 175.604 253.551 192.22C253.601 198.478 253.67 205.236 253.641 211.983C253.611 218.741 253.501 225.499 253.392 231.757C253.084 248.361 252.686 261.389 252.686 261.389Z" fill="#B5BBC4"/>
<path fill-rule="evenodd" clip-rule="evenodd" d="M276.337 142.051C276.079 141.646 276.148 141.05 276.487 140.74C276.835 140.43 277.322 140.501 277.591 140.919L288.432 157.796C288.552 157.987 288.621 158.214 288.621 158.452C288.621 158.452 288.721 186.713 288.771 214.963C288.82 243.212 288.81 271.461 288.81 271.461C288.81 271.974 288.631 272.45 288.313 272.772L282.365 278.887L310.216 279.042L305.232 272.629C304.984 272.307 304.844 271.902 304.844 271.461C304.844 271.461 304.864 250.28 304.924 226.262C304.994 194.795 305.133 158.452 305.133 158.452C305.133 158.202 305.202 157.952 305.342 157.761L317.029 141.097C317.308 140.704 317.805 140.644 318.133 140.978C318.461 141.312 318.511 141.896 318.233 142.301L306.953 158.833C306.993 162.815 307.251 196.69 307.44 226.25C307.58 247.753 307.669 266.979 307.689 270.782L314.662 279.614C315.06 280.127 315.169 280.878 314.93 281.521C314.701 282.165 314.174 282.57 313.587 282.57L278.406 282.391C277.79 282.391 277.233 281.926 277.024 281.235C276.815 280.532 276.984 279.757 277.451 279.28L285.936 270.65C285.966 265.871 286.115 240.411 286.304 214.951C286.503 188.573 286.751 162.183 286.781 158.81L276.337 142.051Z" fill="#B5BBC4"/>
<path fill-rule="evenodd" clip-rule="evenodd" d="M282.963 151.908C282.525 151.908 282.177 151.479 282.187 150.966C282.187 150.442 282.545 150.025 282.983 150.037C282.983 150.037 286.663 149.691 291.388 149.488C293.158 149.405 295.068 149.334 296.988 149.369C298.898 149.405 300.807 149.536 302.578 149.667C307.302 149.989 310.973 150.406 310.973 150.406C311.41 150.406 311.759 150.835 311.749 151.348C311.749 151.872 311.39 152.289 310.963 152.277C310.963 152.277 307.272 152.587 302.558 152.802C300.777 152.874 298.868 152.957 296.948 152.945C295.038 152.921 293.128 152.802 291.358 152.683C286.633 152.361 282.963 151.908 282.963 151.908Z" fill="#B5BBC4"/>
<path fill-rule="evenodd" clip-rule="evenodd" d="M287.707 159.393C287.269 159.393 286.921 158.976 286.921 158.452C286.921 157.939 287.269 157.51 287.707 157.51C287.707 157.51 290.104 157.117 293.207 156.855C294.361 156.759 295.615 156.664 296.878 156.664C298.131 156.676 299.384 156.783 300.538 156.89C303.641 157.152 306.048 157.51 306.048 157.51C306.476 157.51 306.824 157.939 306.824 158.452C306.824 158.976 306.476 159.393 306.048 159.393C306.048 159.393 303.641 159.751 300.538 160.025C299.384 160.12 298.131 160.24 296.878 160.24C295.615 160.252 294.361 160.156 293.207 160.049C290.104 159.787 287.707 159.393 287.707 159.393Z" fill="#B5BBC4"/>
<path fill-rule="evenodd" clip-rule="evenodd" d="M294.472 167.713C294.482 167.189 294.84 166.784 295.267 166.784C295.695 166.796 296.043 167.225 296.033 167.749C296.033 167.749 296.183 179.883 296.163 195.343C296.163 201.16 296.143 207.441 296.043 213.735C295.944 220.016 295.745 226.31 295.576 232.115C295.118 247.574 294.631 259.696 294.631 259.696C294.621 260.209 294.263 260.626 293.835 260.614C293.397 260.602 293.059 260.173 293.069 259.661C293.069 259.661 292.95 247.527 292.96 232.067C292.97 226.238 292.97 219.957 293.059 213.663C293.149 207.382 293.328 201.1 293.497 195.283C293.954 179.836 294.472 167.713 294.472 167.713Z" fill="#B5BBC4"/>
<path fill-rule="evenodd" clip-rule="evenodd" d="M301.025 261.52C301.015 262.033 300.667 262.45 300.23 262.45C299.802 262.45 299.454 262.021 299.454 261.508C299.454 261.508 299.205 248.492 299.096 231.9C299.056 225.654 299.016 218.908 299.066 212.162C299.116 205.415 299.255 198.669 299.374 192.435C299.713 175.843 300.09 162.839 300.09 162.839C300.1 162.314 300.448 161.897 300.886 161.909C301.314 161.909 301.662 162.338 301.662 162.85C301.662 162.85 301.881 175.867 301.99 192.458C302.04 198.704 302.09 205.439 302.05 212.197C302.01 218.944 301.891 225.678 301.761 231.924C301.433 248.504 301.025 261.52 301.025 261.52Z" fill="#B5BBC4"/>
<rect x="65.0027" y="46.0017" width="279.997" height="279.997" fill="url(#paint0_linear_2321_2637)"/>
<path d="M220 187C220 182.582 223.582 179 228 179H345C349.418 179 353 182.582 353 187V203C353 207.418 349.418 211 345 211H228C223.582 211 220 207.418 220 203V187Z" fill="white"/>
<path d="M241.333 188.333C241.702 188.333 242 188.632 242 189V191.505L236.001 197.504L235.997 200.33L238.828 200.334L242 197.161V201C242 201.368 241.702 201.667 241.333 201.667H230.667C230.298 201.667 230 201.368 230 201V189C230 188.632 230.298 188.333 230.667 188.333H241.333ZM242.519 192.872L243.462 193.815L238.276 199L237.332 198.999L237.333 198.057L242.519 192.872ZM236 195H232.667V196.333H236V195ZM238 192.333H232.667V193.667H238V192.333Z" fill="#1D64F3"/>
<path d="M253.119 200V189.818H254.655V198.678H259.268V200H253.119ZM263.044 200.169C262.56 200.169 262.123 200.08 261.731 199.901C261.34 199.718 261.03 199.455 260.802 199.11C260.576 198.765 260.464 198.343 260.464 197.842C260.464 197.411 260.547 197.057 260.712 196.778C260.878 196.5 261.102 196.28 261.383 196.117C261.665 195.955 261.98 195.832 262.328 195.749C262.676 195.666 263.031 195.603 263.392 195.56C263.849 195.507 264.221 195.464 264.506 195.431C264.791 195.395 264.998 195.337 265.127 195.257C265.256 195.178 265.321 195.048 265.321 194.869V194.835C265.321 194.4 265.198 194.064 264.953 193.825C264.711 193.587 264.35 193.467 263.869 193.467C263.369 193.467 262.974 193.578 262.686 193.8C262.401 194.019 262.204 194.263 262.094 194.531L260.697 194.213C260.863 193.749 261.105 193.375 261.423 193.089C261.745 192.801 262.114 192.592 262.532 192.463C262.949 192.33 263.389 192.264 263.849 192.264C264.154 192.264 264.477 192.301 264.819 192.374C265.163 192.443 265.485 192.572 265.783 192.761C266.085 192.95 266.332 193.22 266.524 193.572C266.716 193.92 266.812 194.372 266.812 194.929V200H265.361V198.956H265.301C265.205 199.148 265.061 199.337 264.869 199.523C264.676 199.708 264.429 199.862 264.128 199.985C263.826 200.108 263.465 200.169 263.044 200.169ZM263.367 198.976C263.778 198.976 264.129 198.895 264.421 198.732C264.716 198.57 264.94 198.358 265.092 198.096C265.248 197.831 265.326 197.547 265.326 197.246V196.261C265.273 196.314 265.17 196.364 265.018 196.411C264.869 196.454 264.698 196.492 264.506 196.525C264.313 196.555 264.126 196.583 263.944 196.609C263.762 196.633 263.609 196.652 263.486 196.669C263.198 196.705 262.935 196.767 262.696 196.853C262.461 196.939 262.272 197.063 262.129 197.226C261.99 197.385 261.92 197.597 261.92 197.862C261.92 198.23 262.056 198.509 262.328 198.697C262.6 198.883 262.946 198.976 263.367 198.976ZM270.368 200L268.121 192.364H269.657L271.153 197.972H271.228L272.729 192.364H274.266L275.757 197.947H275.832L277.318 192.364H278.854L276.612 200H275.096L273.545 194.487H273.43L271.879 200H270.368ZM289.483 192.493C289.43 192.022 289.211 191.658 288.826 191.399C288.442 191.137 287.958 191.006 287.375 191.006C286.957 191.006 286.596 191.073 286.291 191.205C285.986 191.335 285.749 191.513 285.58 191.742C285.414 191.968 285.331 192.224 285.331 192.513C285.331 192.755 285.388 192.964 285.5 193.139C285.616 193.315 285.767 193.462 285.953 193.582C286.142 193.698 286.344 193.795 286.559 193.875C286.775 193.951 286.982 194.014 287.181 194.064L288.175 194.322C288.5 194.402 288.833 194.51 289.174 194.646C289.516 194.781 289.832 194.96 290.124 195.183C290.416 195.405 290.651 195.68 290.83 196.008C291.012 196.336 291.103 196.729 291.103 197.186C291.103 197.763 290.954 198.275 290.656 198.722C290.361 199.17 289.932 199.523 289.368 199.781C288.808 200.04 288.13 200.169 287.335 200.169C286.573 200.169 285.913 200.048 285.356 199.806C284.799 199.564 284.364 199.221 284.049 198.777C283.734 198.33 283.56 197.799 283.527 197.186H285.068C285.098 197.554 285.217 197.861 285.426 198.106C285.638 198.348 285.908 198.528 286.236 198.648C286.568 198.764 286.931 198.822 287.325 198.822C287.759 198.822 288.145 198.754 288.483 198.618C288.825 198.479 289.093 198.286 289.289 198.041C289.484 197.793 289.582 197.503 289.582 197.171C289.582 196.87 289.496 196.623 289.324 196.43C289.155 196.238 288.924 196.079 288.633 195.953C288.344 195.827 288.018 195.716 287.653 195.62L286.45 195.292C285.635 195.07 284.988 194.743 284.511 194.312C284.037 193.882 283.8 193.312 283.8 192.602C283.8 192.016 283.959 191.504 284.277 191.066C284.596 190.629 285.027 190.289 285.57 190.047C286.114 189.802 286.727 189.679 287.41 189.679C288.099 189.679 288.707 189.8 289.234 190.042C289.764 190.284 290.182 190.617 290.487 191.041C290.792 191.462 290.951 191.946 290.964 192.493H289.483ZM295.957 200.154C295.241 200.154 294.616 199.99 294.082 199.662C293.549 199.334 293.134 198.875 292.839 198.285C292.544 197.695 292.397 197.005 292.397 196.217C292.397 195.424 292.544 194.732 292.839 194.138C293.134 193.545 293.549 193.085 294.082 192.756C294.616 192.428 295.241 192.264 295.957 192.264C296.672 192.264 297.297 192.428 297.831 192.756C298.364 193.085 298.779 193.545 299.074 194.138C299.369 194.732 299.516 195.424 299.516 196.217C299.516 197.005 299.369 197.695 299.074 198.285C298.779 198.875 298.364 199.334 297.831 199.662C297.297 199.99 296.672 200.154 295.957 200.154ZM295.962 198.906C296.426 198.906 296.81 198.784 297.115 198.538C297.42 198.293 297.645 197.967 297.791 197.559C297.94 197.151 298.015 196.702 298.015 196.212C298.015 195.724 297.94 195.277 297.791 194.869C297.645 194.458 297.42 194.129 297.115 193.88C296.81 193.631 296.426 193.507 295.962 193.507C295.494 193.507 295.106 193.631 294.798 193.88C294.493 194.129 294.266 194.458 294.117 194.869C293.971 195.277 293.898 195.724 293.898 196.212C293.898 196.702 293.971 197.151 294.117 197.559C294.266 197.967 294.493 198.293 294.798 198.538C295.106 198.784 295.494 198.906 295.962 198.906ZM302.582 189.818V200H301.095V189.818H302.582ZM309.339 196.833V192.364H310.831V200H309.369V198.678H309.289C309.114 199.085 308.832 199.425 308.444 199.697C308.06 199.965 307.581 200.099 307.007 200.099C306.517 200.099 306.083 199.992 305.705 199.776C305.33 199.558 305.035 199.234 304.82 198.807C304.608 198.379 304.502 197.851 304.502 197.221V192.364H305.988V197.042C305.988 197.562 306.132 197.977 306.421 198.285C306.709 198.593 307.084 198.747 307.544 198.747C307.823 198.747 308.1 198.678 308.375 198.538C308.653 198.399 308.883 198.189 309.066 197.907C309.251 197.625 309.342 197.267 309.339 196.833ZM316.313 192.364V193.557H312.141V192.364H316.313ZM313.26 190.534H314.747V197.758C314.747 198.046 314.79 198.263 314.876 198.409C314.962 198.552 315.073 198.649 315.209 198.702C315.348 198.752 315.499 198.777 315.661 198.777C315.781 198.777 315.885 198.769 315.975 198.752C316.064 198.736 316.134 198.722 316.183 198.712L316.452 199.94C316.366 199.973 316.243 200.007 316.084 200.04C315.925 200.076 315.726 200.096 315.487 200.099C315.096 200.106 314.732 200.036 314.394 199.891C314.055 199.745 313.782 199.519 313.573 199.214C313.364 198.91 313.26 198.527 313.26 198.066V190.534ZM317.877 200V192.364H319.363V200H317.877ZM318.628 191.185C318.369 191.185 318.147 191.099 317.961 190.927C317.779 190.751 317.688 190.542 317.688 190.3C317.688 190.055 317.779 189.846 317.961 189.674C318.147 189.498 318.369 189.411 318.628 189.411C318.886 189.411 319.107 189.498 319.289 189.674C319.474 189.846 319.567 190.055 319.567 190.3C319.567 190.542 319.474 190.751 319.289 190.927C319.107 191.099 318.886 191.185 318.628 191.185ZM324.5 200.154C323.784 200.154 323.159 199.99 322.626 199.662C322.092 199.334 321.678 198.875 321.383 198.285C321.088 197.695 320.94 197.005 320.94 196.217C320.94 195.424 321.088 194.732 321.383 194.138C321.678 193.545 322.092 193.085 322.626 192.756C323.159 192.428 323.784 192.264 324.5 192.264C325.216 192.264 325.841 192.428 326.374 192.756C326.908 193.085 327.322 193.545 327.617 194.138C327.912 194.732 328.06 195.424 328.06 196.217C328.06 197.005 327.912 197.695 327.617 198.285C327.322 198.875 326.908 199.334 326.374 199.662C325.841 199.99 325.216 200.154 324.5 200.154ZM324.505 198.906C324.969 198.906 325.353 198.784 325.658 198.538C325.963 198.293 326.189 197.967 326.334 197.559C326.484 197.151 326.558 196.702 326.558 196.212C326.558 195.724 326.484 195.277 326.334 194.869C326.189 194.458 325.963 194.129 325.658 193.88C325.353 193.631 324.969 193.507 324.505 193.507C324.038 193.507 323.65 193.631 323.342 193.88C323.037 194.129 322.81 194.458 322.66 194.869C322.515 195.277 322.442 195.724 322.442 196.212C322.442 196.702 322.515 197.151 322.66 197.559C322.81 197.967 323.037 198.293 323.342 198.538C323.65 198.784 324.038 198.906 324.505 198.906ZM331.125 195.466V200H329.639V192.364H331.066V193.607H331.16C331.336 193.202 331.611 192.877 331.985 192.632C332.363 192.387 332.839 192.264 333.412 192.264C333.933 192.264 334.388 192.374 334.779 192.592C335.171 192.808 335.474 193.129 335.689 193.557C335.905 193.984 336.012 194.513 336.012 195.143V200H334.526V195.322C334.526 194.768 334.382 194.336 334.093 194.024C333.805 193.709 333.409 193.552 332.905 193.552C332.56 193.552 332.254 193.626 331.985 193.776C331.72 193.925 331.51 194.143 331.354 194.432C331.202 194.717 331.125 195.062 331.125 195.466ZM343.648 194.228L342.301 194.467C342.245 194.294 342.155 194.13 342.033 193.974C341.913 193.819 341.751 193.691 341.545 193.592C341.34 193.492 341.083 193.442 340.775 193.442C340.354 193.442 340.002 193.537 339.721 193.726C339.439 193.911 339.298 194.152 339.298 194.447C339.298 194.702 339.393 194.907 339.582 195.063C339.77 195.219 340.075 195.347 340.496 195.446L341.709 195.724C342.412 195.887 342.936 196.137 343.28 196.475C343.625 196.813 343.797 197.252 343.797 197.793C343.797 198.25 343.665 198.658 343.4 199.016C343.138 199.37 342.772 199.649 342.301 199.851C341.834 200.053 341.292 200.154 340.675 200.154C339.82 200.154 339.123 199.972 338.582 199.607C338.042 199.239 337.711 198.717 337.588 198.041L339.025 197.822C339.114 198.197 339.298 198.48 339.577 198.673C339.855 198.862 340.218 198.956 340.665 198.956C341.153 198.956 341.542 198.855 341.834 198.653C342.125 198.447 342.271 198.197 342.271 197.902C342.271 197.663 342.182 197.463 342.003 197.3C341.827 197.138 341.557 197.015 341.192 196.933L339.9 196.649C339.187 196.487 338.66 196.228 338.319 195.874C337.981 195.519 337.812 195.07 337.812 194.526C337.812 194.076 337.938 193.681 338.19 193.343C338.441 193.005 338.789 192.741 339.234 192.553C339.678 192.36 340.186 192.264 340.76 192.264C341.585 192.264 342.235 192.443 342.709 192.801C343.183 193.156 343.496 193.631 343.648 194.228Z" fill="#154EE0"/>
<path d="M33 60C33 55.5817 36.5817 52 41 52H147C151.418 52 155 55.5817 155 60V76C155 80.4183 151.418 84 147 84H41C36.5817 84 33 80.4183 33 76V60Z" fill="white"/>
<path d="M43.522 61.884L49 60.6667L54.4779 61.884C54.783 61.9518 55 62.2223 55 62.5348V69.1926C55 70.53 54.3316 71.779 53.2188 72.5208L49 75.3334L44.7812 72.5208C43.6684 71.779 43 70.53 43 69.1926V62.5348C43 62.2223 43.217 61.9518 43.522 61.884ZM49 67.3334C49.9205 67.3334 50.6667 66.5872 50.6667 65.6667C50.6667 64.7462 49.9205 64 49 64C48.0795 64 47.3333 64.7462 47.3333 65.6667C47.3333 66.5872 48.0795 67.3334 49 67.3334ZM46.0183 70.6667H51.9817C51.8159 69.1667 50.5442 68 49 68C47.4558 68 46.1841 69.1667 46.0183 70.6667Z" fill="#1D64F3"/>
<path d="M66.1186 73V62.8182H67.6548V67.2429H72.7308V62.8182H74.272V73H72.7308V68.5604H67.6548V73H66.1186ZM76.4292 73V62.8182H80.0585C80.8473 62.8182 81.5019 62.9541 82.0223 63.2259C82.5459 63.4976 82.937 63.8738 83.1956 64.3544C83.4541 64.8317 83.5834 65.3835 83.5834 66.0099C83.5834 66.633 83.4524 67.1816 83.1906 67.6555C82.9321 68.1262 82.541 68.4924 82.0173 68.7543C81.4969 69.0161 80.8423 69.147 80.0535 69.147H77.3042V67.8246H79.9143C80.4115 67.8246 80.8158 67.7533 81.1274 67.6108C81.4423 67.4683 81.6726 67.2611 81.8184 66.9893C81.9643 66.7176 82.0372 66.3911 82.0372 66.0099C82.0372 65.6255 81.9626 65.2924 81.8135 65.0107C81.6676 64.7289 81.4373 64.5135 81.1224 64.3643C80.8109 64.2119 80.4015 64.1357 79.8944 64.1357H77.9655V73H76.4292ZM81.4555 68.4062L83.9711 73H82.2211L79.7552 68.4062H81.4555ZM89.8578 73H88.2272L91.8912 62.8182H93.6661L97.3301 73H95.6995L92.8209 64.6676H92.7414L89.8578 73ZM90.1313 69.0128H95.421V70.3054H90.1313V69.0128ZM101.337 73.1491C100.72 73.1491 100.17 72.9917 99.6862 72.6768C99.2056 72.3587 98.8278 71.9062 98.5527 71.3196C98.2809 70.7296 98.145 70.022 98.145 69.1967C98.145 68.3714 98.2826 67.6655 98.5577 67.0788C98.8361 66.4922 99.2172 66.0431 99.7011 65.7315C100.185 65.42 100.734 65.2642 101.347 65.2642C101.821 65.2642 102.202 65.3438 102.49 65.5028C102.782 65.6586 103.007 65.8409 103.166 66.0497C103.329 66.2585 103.455 66.4425 103.544 66.6016H103.634V62.8182H105.12V73H103.668V71.8118H103.544C103.455 71.9742 103.325 72.1598 103.156 72.3686C102.991 72.5774 102.762 72.7597 102.47 72.9155C102.179 73.0713 101.801 73.1491 101.337 73.1491ZM101.665 71.8814C102.092 71.8814 102.454 71.7687 102.749 71.5433C103.047 71.3146 103.272 70.9981 103.425 70.5938C103.581 70.1894 103.659 69.7187 103.659 69.1818C103.659 68.6515 103.582 68.1875 103.43 67.7898C103.277 67.392 103.054 67.0821 102.759 66.8601C102.464 66.638 102.099 66.527 101.665 66.527C101.217 66.527 100.845 66.643 100.546 66.875C100.248 67.107 100.023 67.4235 99.8702 67.8246C99.721 68.2256 99.6464 68.678 99.6464 69.1818C99.6464 69.6922 99.7227 70.1513 99.8751 70.5589C100.028 70.9666 100.253 71.2898 100.551 71.5284C100.853 71.7637 101.224 71.8814 101.665 71.8814ZM113.694 65.3636L110.925 73H109.334L106.56 65.3636H108.156L110.09 71.2401H110.17L112.099 65.3636H113.694ZM115.011 73V65.3636H116.498V73H115.011ZM115.762 64.1854C115.504 64.1854 115.282 64.0992 115.096 63.9268C114.914 63.7512 114.823 63.5424 114.823 63.3004C114.823 63.0552 114.914 62.8464 115.096 62.674C115.282 62.4983 115.504 62.4105 115.762 62.4105C116.021 62.4105 116.241 62.4983 116.423 62.674C116.609 62.8464 116.702 63.0552 116.702 63.3004C116.702 63.5424 116.609 63.7512 116.423 63.9268C116.241 64.0992 116.021 64.1854 115.762 64.1854ZM124.14 67.228L122.793 67.4666C122.736 67.2943 122.647 67.1302 122.524 66.9744C122.405 66.8187 122.243 66.6911 122.037 66.5916C121.832 66.4922 121.575 66.4425 121.267 66.4425C120.846 66.4425 120.494 66.5369 120.213 66.7259C119.931 66.9115 119.79 67.1518 119.79 67.4467C119.79 67.7019 119.884 67.9074 120.073 68.0632C120.262 68.219 120.567 68.3466 120.988 68.446L122.201 68.7244C122.904 68.8868 123.428 69.1371 123.772 69.4751C124.117 69.8132 124.289 70.2524 124.289 70.7926C124.289 71.25 124.157 71.6577 123.892 72.0156C123.63 72.3703 123.263 72.6487 122.793 72.8509C122.325 73.053 121.784 73.1541 121.167 73.1541C120.312 73.1541 119.614 72.9718 119.074 72.6072C118.534 72.2393 118.202 71.7173 118.08 71.0412L119.517 70.8224C119.606 71.197 119.79 71.4804 120.068 71.6726C120.347 71.8615 120.71 71.956 121.157 71.956C121.644 71.956 122.034 71.8549 122.325 71.6527C122.617 71.4472 122.763 71.197 122.763 70.902C122.763 70.6634 122.673 70.4628 122.495 70.3004C122.319 70.138 122.049 70.0154 121.684 69.9325L120.392 69.6491C119.679 69.4867 119.152 69.2282 118.811 68.8736C118.472 68.5189 118.303 68.0698 118.303 67.5263C118.303 67.0755 118.429 66.6811 118.681 66.343C118.933 66.005 119.281 65.7415 119.725 65.5526C120.169 65.3603 120.678 65.2642 121.252 65.2642C122.077 65.2642 122.727 65.4432 123.2 65.8011C123.674 66.1558 123.988 66.6314 124.14 67.228ZM129.06 73.1541C128.344 73.1541 127.72 72.9901 127.186 72.6619C126.652 72.3338 126.238 71.8748 125.943 71.2848C125.648 70.6948 125.501 70.0054 125.501 69.2166C125.501 68.4245 125.648 67.7318 125.943 67.1385C126.238 66.5452 126.652 66.0845 127.186 65.7564C127.72 65.4283 128.344 65.2642 129.06 65.2642C129.776 65.2642 130.401 65.4283 130.935 65.7564C131.468 66.0845 131.882 66.5452 132.177 67.1385C132.472 67.7318 132.62 68.4245 132.62 69.2166C132.62 70.0054 132.472 70.6948 132.177 71.2848C131.882 71.8748 131.468 72.3338 130.935 72.6619C130.401 72.9901 129.776 73.1541 129.06 73.1541ZM129.065 71.9062C129.529 71.9062 129.914 71.7836 130.219 71.5384C130.524 71.2931 130.749 70.9666 130.895 70.5589C131.044 70.1513 131.119 69.7022 131.119 69.2116C131.119 68.7244 131.044 68.277 130.895 67.8693C130.749 67.4583 130.524 67.1286 130.219 66.88C129.914 66.6314 129.529 66.5071 129.065 66.5071C128.598 66.5071 128.21 66.6314 127.902 66.88C127.597 67.1286 127.37 67.4583 127.221 67.8693C127.075 68.277 127.002 68.7244 127.002 69.2116C127.002 69.7022 127.075 70.1513 127.221 70.5589C127.37 70.9666 127.597 71.2931 127.902 71.5384C128.21 71.7836 128.598 71.9062 129.065 71.9062ZM134.199 73V65.3636H135.636V66.5767H135.716C135.855 66.1657 136.1 65.8426 136.451 65.6072C136.806 65.3686 137.207 65.2493 137.654 65.2493C137.747 65.2493 137.857 65.2526 137.983 65.2592C138.112 65.2659 138.213 65.2741 138.286 65.2841V66.706C138.226 66.6894 138.12 66.6712 137.968 66.6513C137.815 66.6281 137.663 66.6165 137.51 66.6165C137.159 66.6165 136.846 66.6911 136.571 66.8402C136.299 66.986 136.083 67.1899 135.924 67.4517C135.765 67.7102 135.686 68.0052 135.686 68.3366V73H134.199ZM140.664 75.8636C140.442 75.8636 140.24 75.8454 140.058 75.8089C139.875 75.7758 139.74 75.7393 139.65 75.6996L140.008 74.4815C140.28 74.5545 140.522 74.5859 140.734 74.576C140.946 74.5661 141.133 74.4865 141.296 74.3374C141.461 74.1882 141.607 73.9446 141.733 73.6065L141.917 73.0994L139.123 65.3636H140.714L142.648 71.2898H142.728L144.661 65.3636H146.257L143.11 74.0192C142.964 74.4169 142.779 74.7533 142.554 75.0284C142.328 75.3068 142.06 75.5156 141.748 75.6548C141.437 75.794 141.075 75.8636 140.664 75.8636Z" fill="#154EE0"/>
</g>
<defs>
<linearGradient id="paint0_linear_2321_2637" x1="205.001" y1="46.0017" x2="205.001" y2="325.999" gradientUnits="userSpaceOnUse">
<stop stop-color="#EDEEF1" stop-opacity="0"/>
<stop offset="0.7" stop-color="#EDEEF1"/>
<stop offset="1" stop-color="#EDEEF1"/>
</linearGradient>
<clipPath id="clip0_2321_2637">
<rect width="411" height="256" fill="white"/>
</clipPath>
</defs>
</svg>
