<svg width="184" height="38" viewBox="0 0 184 38" fill="none" xmlns="http://www.w3.org/2000/svg">
<path d="M3.09944e-05 9.17241C3.09944e-05 4.10663 4.10666 0 9.17244 0H28.8276C33.8934 0 38 4.10663 38 9.17241V28.8276C38 33.8934 33.8934 38 28.8276 38H9.17244C4.10666 38 3.09944e-05 33.8934 3.09944e-05 28.8276V9.17241Z" fill="url(#paint0_linear_90_10)"/>
<path d="M12.7689 10.2213C12.1674 10.2273 11.592 10.4679 11.1652 10.8918C10.7384 11.3156 10.4939 11.8893 10.4836 12.4908V19.9178C11.3113 19.3852 12.2722 19.0964 13.2563 19.0844H21.1184C22.0933 19.0844 23.0123 18.6293 23.8754 17.7191L24.4362 17.0167C25.0192 16.2756 25.3309 15.3572 25.3194 14.4144C25.328 13.8623 25.2245 13.3142 25.015 12.8034C24.8055 12.2925 24.4945 11.8296 24.1008 11.4425C23.7203 11.0472 23.2622 10.7346 22.7554 10.5245C22.2485 10.3144 21.7037 10.2111 21.1551 10.2213H12.7689Z" fill="white"/>
<path d="M27.89 23.7264C27.8861 22.8682 27.6199 22.0318 27.1271 21.3291C26.6344 20.6265 25.9386 20.0914 25.1331 19.7953L24.5487 19.5752C24.0835 20.0335 23.5313 20.3942 22.9246 20.6359C22.3179 20.8776 21.6689 20.9954 21.016 20.9825H13.2797C12.5949 20.9827 11.9243 21.1772 11.3456 21.5433C10.7796 21.9155 10.4939 22.3295 10.4834 22.7934V25.65C10.4896 26.2541 10.7323 26.8318 11.1595 27.2591C11.5868 27.6863 12.1645 27.9291 12.7687 27.9352H23.6838C24.7965 27.9283 25.8614 27.4821 26.6467 26.6939C27.432 25.9056 27.8742 24.8391 27.8769 23.7264H27.89Z" fill="white"/>
<path d="M66.7383 16.231C66.3301 16.4158 66.2559 16.6005 66.2559 16.9331C66.2559 17.4135 66.5528 17.5982 66.8497 17.6352C70.1524 18.3373 71.5626 20.5913 71.5626 23.141C71.5626 27.4274 68.668 30.6053 63.3243 30.6053H49V4.59123H61.1719C66.8868 4.59123 70.3751 6.84529 70.3751 11.5012C70.3751 13.7553 68.7794 15.3442 66.7383 16.231ZM60.8008 9.76447H55.2344V14.7899H60.6524C62.9161 14.7899 64.1407 13.7183 64.1407 12.1294C64.1407 10.5035 63.0645 9.76447 60.8008 9.76447ZM55.2344 25.432H61.4688C63.9922 25.432 65.3282 24.4343 65.3282 22.6237C65.3282 20.9239 63.8438 19.8154 61.3204 19.8154H55.2344V25.432Z" fill="white"/>
<path d="M83.4623 10.5035C89.9193 10.5035 93.8529 15.1594 93.8529 20.85C93.8529 26.5406 89.9193 31.1965 83.4623 31.1965C77.0052 31.1965 73.0716 26.5406 73.0716 20.85C73.0716 15.1594 77.0052 10.5035 83.4623 10.5035ZM83.4623 26.1711C86.3939 26.1711 87.9154 23.7322 87.9154 20.85C87.9154 17.9678 86.3939 15.5289 83.4623 15.5289C80.5306 15.5289 79.0091 17.9678 79.0091 20.85C79.0091 23.7322 80.5306 26.1711 83.4623 26.1711Z" fill="white"/>
<path d="M101.578 4V30.6053H95.6406V4H101.578Z" fill="white"/>
<path d="M118.502 11.686V4H124.439V30.6053H118.502V29.9032C118.502 29.3489 118.687 28.8685 118.947 28.3143C119.244 27.6861 119.578 27.0579 119.021 26.8731C118.65 26.7623 118.465 27.1688 118.353 27.3905C117.166 29.7554 115.125 31.1965 112.193 31.1965C106.812 31.1965 103.658 26.6145 103.658 20.85C103.658 15.0855 106.812 10.5035 112.193 10.5035C115.162 10.5035 117.092 12.0555 118.353 14.2726C118.502 14.5312 118.762 15.0486 119.207 14.8269C119.689 14.6052 119.207 13.94 118.91 13.3118C118.65 12.7945 118.502 12.2402 118.502 11.686ZM113.9 26.1711C116.721 26.1711 118.502 23.6953 118.502 20.85C118.502 18.0047 116.721 15.5289 113.9 15.5289C110.931 15.5289 109.595 18.0047 109.595 20.85C109.595 23.6953 110.931 26.1711 113.9 26.1711Z" fill="white"/>
<path d="M140.485 11.0947V15.8246H135.142V23.9539C135.142 25.8015 135.216 25.8754 136.923 25.8754H140.485V30.6053H134.993C131.06 30.6053 129.204 29.312 129.204 24.6191V15.8246H125.642V11.0947H129.204V5.77368H135.142V11.0947H140.485Z" fill="white"/>
<path d="M161.535 20.2588C161.535 20.813 161.498 21.7738 161.424 22.3281H147.211C147.619 24.8038 149.289 26.4667 151.775 26.4667C153.631 26.4667 154.781 25.5429 155.263 24.1018H161.164C160.384 27.7969 157.341 31.1965 151.812 31.1965C144.984 31.1965 141.347 26.6145 141.347 20.85C141.347 14.7899 145.132 10.5035 151.701 10.5035C156.674 10.5035 161.535 13.5336 161.535 20.2588ZM151.812 15.0855C148.992 15.0855 147.804 16.6745 147.359 18.7807H155.709C155.486 16.4158 154.002 15.0855 151.812 15.0855Z" fill="white"/>
<path d="M177.862 11.686V11.0947H183.8V37.7H177.862V29.9032C177.862 29.3489 178.048 28.8685 178.308 28.3143C178.605 27.6861 178.939 27.0579 178.382 26.8731C178.011 26.7623 177.825 27.1688 177.714 27.3905C176.527 29.7554 174.486 31.1965 171.554 31.1965C166.173 31.1965 163.019 26.6145 163.019 20.85C163.019 15.0855 166.173 10.5035 171.554 10.5035C174.523 10.5035 176.452 12.0555 177.714 14.2726C177.862 14.5312 178.122 15.0486 178.568 14.8269C179.05 14.6052 178.568 13.94 178.271 13.3118C178.011 12.7945 177.862 12.2402 177.862 11.686ZM173.261 26.1711C176.081 26.1711 177.862 23.6953 177.862 20.85C177.862 18.0047 176.081 15.5289 173.261 15.5289C170.292 15.5289 168.956 18.0047 168.956 20.85C168.956 23.6953 170.292 26.1711 173.261 26.1711Z" fill="white"/>
<defs>
<linearGradient id="paint0_linear_90_10" x1="3.09944e-05" y1="19" x2="38" y2="19" gradientUnits="userSpaceOnUse">
<stop stop-color="#21CFFF"/>
<stop offset="1" stop-color="#019AE6"/>
</linearGradient>
</defs>
</svg>
