<svg width="364" height="296" viewBox="0 0 364 296" fill="none" xmlns="http://www.w3.org/2000/svg">
<g clip-path="url(#clip0_530_2610)">
<g clip-path="url(#clip1_530_2610)">
<rect x="16" y="16" width="332" height="160" rx="8" fill="white"/>
<path d="M32.744 60L35.696 43.656H38.192L42.464 55.32L46.76 43.656H49.232L52.208 60H49.328L48.08 52.392C47.904 51.32 47.752 50.264 47.624 49.224C47.496 48.168 47.408 47.104 47.36 46.032H48.104C47.816 47.264 47.528 48.376 47.24 49.368C46.952 50.344 46.624 51.344 46.256 52.368L43.544 59.76H41.384L38.672 52.368C38.304 51.328 37.976 50.32 37.688 49.344C37.4 48.368 37.112 47.264 36.824 46.032H37.568C37.52 47.104 37.432 48.168 37.304 49.224C37.192 50.264 37.04 51.32 36.848 52.392L35.6 60H32.744ZM57.3977 58.728L52.7417 48.288H55.6217L59.8457 57.768L57.3977 58.728ZM54.5177 64.56L61.7897 48.288H64.6697L57.3977 64.56H54.5177ZM75.3419 60V45.408H78.1259V60H75.3419ZM70.3259 46.296V43.656H83.3339V46.296H70.3259ZM86.1812 60.336C85.2852 60.336 84.5092 60.176 83.8532 59.856C83.2132 59.52 82.7172 59.056 82.3652 58.464C82.0132 57.872 81.8372 57.168 81.8372 56.352C81.8372 55.552 82.0132 54.856 82.3652 54.264C82.7332 53.672 83.2452 53.208 83.9012 52.872C84.5572 52.52 85.3172 52.344 86.1812 52.344C87.3172 52.344 88.2292 52.6 88.9172 53.112C89.6212 53.624 90.1012 54.344 90.3572 55.272L88.9652 55.176V52.272C88.9652 51.792 88.7972 51.36 88.4612 50.976C88.1412 50.592 87.5892 50.4 86.8052 50.4C86.3572 50.4 85.8612 50.456 85.3172 50.568C84.7732 50.664 84.2132 50.848 83.6372 51.12L82.7972 49.056C83.4692 48.72 84.1732 48.464 84.9092 48.288C85.6612 48.112 86.4052 48.024 87.1412 48.024C88.1812 48.024 89.0372 48.216 89.7092 48.6C90.3972 48.968 90.9092 49.472 91.2452 50.112C91.5812 50.752 91.7492 51.488 91.7492 52.32V60H89.6132L88.9892 57.816L90.3572 57.408C90.0852 58.368 89.5812 59.096 88.8452 59.592C88.1252 60.088 87.2372 60.336 86.1812 60.336ZM86.8292 58.056C87.4692 58.056 87.9812 57.904 88.3652 57.6C88.7652 57.296 88.9652 56.88 88.9652 56.352C88.9652 55.792 88.7652 55.368 88.3652 55.08C87.9812 54.776 87.4692 54.624 86.8292 54.624C86.1892 54.624 85.6692 54.776 85.2692 55.08C84.8852 55.368 84.6932 55.792 84.6932 56.352C84.6932 56.88 84.8852 57.296 85.2692 57.6C85.6692 57.904 86.1892 58.056 86.8292 58.056ZM97.8526 60.288C96.9886 60.288 96.1566 60.096 95.3566 59.712C94.5566 59.328 93.8686 58.68 93.2926 57.768L95.1886 56.328C95.6686 56.904 96.1246 57.32 96.5566 57.576C96.9886 57.832 97.5166 57.96 98.1406 57.96C98.5886 57.96 98.9406 57.848 99.1966 57.624C99.4526 57.4 99.5806 57.12 99.5806 56.784C99.5806 56.56 99.5166 56.36 99.3886 56.184C99.2606 56.008 99.0206 55.848 98.6686 55.704C98.3326 55.544 97.8446 55.384 97.2046 55.224C96.0206 54.92 95.1166 54.504 94.4926 53.976C93.8846 53.448 93.5806 52.664 93.5806 51.624C93.5806 50.968 93.7486 50.368 94.0846 49.824C94.4206 49.264 94.9086 48.824 95.5486 48.504C96.1886 48.168 96.9406 48 97.8046 48C98.8446 48 99.7326 48.208 100.469 48.624C101.205 49.04 101.789 49.536 102.221 50.112L100.277 51.648C100.005 51.344 99.6366 51.064 99.1726 50.808C98.7246 50.536 98.1806 50.4 97.5406 50.4C97.1566 50.4 96.8126 50.496 96.5086 50.688C96.2046 50.88 96.0526 51.152 96.0526 51.504C96.0526 51.84 96.2046 52.12 96.5086 52.344C96.8126 52.568 97.3886 52.776 98.2366 52.968C99.6606 53.304 100.677 53.752 101.285 54.312C101.893 54.872 102.197 55.608 102.197 56.52C102.197 57.288 101.997 57.96 101.597 58.536C101.197 59.096 100.669 59.528 100.013 59.832C99.3566 60.136 98.6366 60.288 97.8526 60.288ZM105.955 54.096V53.712L110.947 48.288H114.163L108.595 54.456L108.403 53.04L114.235 60H110.947L105.955 54.096ZM103.963 43.656H106.699V60H103.963V43.656ZM118.392 60.288C117.528 60.288 116.696 60.096 115.896 59.712C115.096 59.328 114.408 58.68 113.832 57.768L115.728 56.328C116.208 56.904 116.664 57.32 117.096 57.576C117.528 57.832 118.056 57.96 118.68 57.96C119.128 57.96 119.48 57.848 119.736 57.624C119.992 57.4 120.12 57.12 120.12 56.784C120.12 56.56 120.056 56.36 119.928 56.184C119.8 56.008 119.56 55.848 119.208 55.704C118.872 55.544 118.384 55.384 117.744 55.224C116.56 54.92 115.656 54.504 115.032 53.976C114.424 53.448 114.12 52.664 114.12 51.624C114.12 50.968 114.288 50.368 114.624 49.824C114.96 49.264 115.448 48.824 116.088 48.504C116.728 48.168 117.48 48 118.344 48C119.384 48 120.272 48.208 121.008 48.624C121.744 49.04 122.328 49.536 122.76 50.112L120.816 51.648C120.544 51.344 120.176 51.064 119.712 50.808C119.264 50.536 118.72 50.4 118.08 50.4C117.696 50.4 117.352 50.496 117.048 50.688C116.744 50.88 116.592 51.152 116.592 51.504C116.592 51.84 116.744 52.12 117.048 52.344C117.352 52.568 117.928 52.776 118.776 52.968C120.2 53.304 121.216 53.752 121.824 54.312C122.432 54.872 122.736 55.608 122.736 56.52C122.736 57.288 122.536 57.96 122.136 58.536C121.736 59.096 121.208 59.528 120.552 59.832C119.896 60.136 119.176 60.288 118.392 60.288Z" fill="black"/>
<rect x="32.5" y="80.5" width="83" height="23" rx="11.5" stroke="#EDEEF1"/>
<path d="M48.5 87.5H50.5C50.7761 87.5 51 87.7239 51 88V96C51 96.2761 50.7761 96.5 50.5 96.5H41.5C41.2239 96.5 41 96.2761 41 96V88C41 87.7239 41.2239 87.5 41.5 87.5H43.5V86.5H44.5V87.5H47.5V86.5H48.5V87.5ZM42 90.5V95.5H50V90.5H42ZM43 92.5H45.5V94.5H43V92.5Z" fill="#40444C"/>
<path d="M59.02 96V87.828H61.708C62.492 87.828 63.192 87.992 63.808 88.32C64.424 88.648 64.908 89.12 65.26 89.736C65.612 90.344 65.788 91.076 65.788 91.932C65.788 92.804 65.608 93.544 65.248 94.152C64.896 94.752 64.412 95.212 63.796 95.532C63.18 95.844 62.48 96 61.696 96H59.02ZM60.22 95.136L59.86 94.872H61.636C62.172 94.872 62.656 94.768 63.088 94.56C63.528 94.344 63.88 94.02 64.144 93.588C64.408 93.156 64.54 92.604 64.54 91.932C64.54 91.284 64.408 90.74 64.144 90.3C63.888 89.852 63.54 89.516 63.1 89.292C62.668 89.068 62.184 88.956 61.648 88.956H59.776L60.22 88.524V95.136ZM68.7605 96.12C68.3205 96.12 67.9725 96.052 67.7165 95.916C67.4605 95.772 67.2725 95.584 67.1525 95.352C67.0325 95.112 66.9525 94.844 66.9125 94.548C66.8805 94.252 66.8645 93.948 66.8645 93.636V90.144H68.0645V93.888C68.0645 94.304 68.1565 94.584 68.3405 94.728C68.5325 94.872 68.7565 94.944 69.0125 94.944C69.2765 94.944 69.5365 94.892 69.7925 94.788C70.0565 94.684 70.2925 94.544 70.5005 94.368C70.7165 94.184 70.8765 93.988 70.9805 93.78V94.452H70.7885V90.144H71.9885V96H71.0765L70.8245 94.968L71.1245 94.932C70.9165 95.18 70.6845 95.396 70.4285 95.58C70.1725 95.756 69.9045 95.892 69.6245 95.988C69.3445 96.076 69.0565 96.12 68.7605 96.12ZM75.9713 96.12C75.4033 96.12 74.9033 95.996 74.4713 95.748C74.0393 95.492 73.7033 95.136 73.4633 94.68C73.2233 94.224 73.1033 93.692 73.1033 93.084C73.1033 92.468 73.2233 91.932 73.4633 91.476C73.7033 91.02 74.0393 90.664 74.4713 90.408C74.9033 90.152 75.4033 90.024 75.9713 90.024C76.5473 90.024 77.0513 90.152 77.4833 90.408C77.9153 90.664 78.2513 91.02 78.4913 91.476C78.7313 91.932 78.8513 92.468 78.8513 93.084C78.8513 93.14 78.8473 93.2 78.8393 93.264C78.8393 93.32 78.8353 93.372 78.8273 93.42H74.2433V92.388H77.9633L77.6273 93.084C77.6273 92.476 77.4913 91.976 77.2193 91.584C76.9473 91.192 76.5313 90.996 75.9713 90.996C75.4753 90.996 75.0793 91.156 74.7833 91.476C74.4873 91.788 74.3393 92.2 74.3393 92.712V93.336C74.3393 93.872 74.4833 94.3 74.7713 94.62C75.0593 94.932 75.4593 95.088 75.9713 95.088C76.4433 95.088 76.8073 94.988 77.0633 94.788C77.3193 94.588 77.5433 94.34 77.7353 94.044L78.6353 94.608C78.3633 95.112 78.0113 95.492 77.5793 95.748C77.1553 95.996 76.6193 96.12 75.9713 96.12ZM85.4361 96.12C84.9001 96.12 84.4281 95.992 84.0201 95.736C83.6121 95.48 83.2961 95.124 83.0721 94.668C82.8481 94.204 82.7361 93.668 82.7361 93.06C82.7361 92.452 82.8481 91.92 83.0721 91.464C83.2961 91.008 83.6121 90.656 84.0201 90.408C84.4281 90.152 84.9001 90.024 85.4361 90.024C85.9641 90.024 86.4241 90.152 86.8161 90.408C87.2081 90.656 87.5121 91.008 87.7281 91.464C87.9521 91.92 88.0641 92.452 88.0641 93.06C88.0641 93.668 87.9521 94.204 87.7281 94.668C87.5121 95.124 87.2081 95.48 86.8161 95.736C86.4241 95.992 85.9641 96.12 85.4361 96.12ZM85.6161 95.088C86.1121 95.088 86.5081 94.904 86.8041 94.536C87.1081 94.168 87.2601 93.68 87.2601 93.072C87.2601 92.464 87.1081 91.976 86.8041 91.608C86.5081 91.24 86.1121 91.056 85.6161 91.056C85.1201 91.056 84.7201 91.24 84.4161 91.608C84.1121 91.976 83.9601 92.46 83.9601 93.06C83.9601 93.668 84.1121 94.16 84.4161 94.536C84.7201 94.904 85.1201 95.088 85.6161 95.088ZM87.4881 96L87.2001 94.824H87.3201V91.488H87.2001V87.828H88.4001V96H87.4881ZM91.7639 96.168C91.3079 96.168 90.9159 96.088 90.5879 95.928C90.2599 95.768 90.0079 95.54 89.8319 95.244C89.6639 94.94 89.5799 94.58 89.5799 94.164C89.5799 93.78 89.6679 93.44 89.8439 93.144C90.0199 92.84 90.2719 92.6 90.5999 92.424C90.9279 92.248 91.3159 92.16 91.7639 92.16C92.3239 92.16 92.7719 92.288 93.1079 92.544C93.4519 92.792 93.6919 93.136 93.8279 93.576H93.1559V92.076C93.1559 91.828 93.0719 91.6 92.9039 91.392C92.7359 91.184 92.4399 91.08 92.0159 91.08C91.7919 91.08 91.5439 91.108 91.2719 91.164C91.0079 91.212 90.7319 91.3 90.4439 91.428L90.0839 90.504C90.4119 90.344 90.7519 90.224 91.1039 90.144C91.4559 90.064 91.7999 90.024 92.1359 90.024C92.6399 90.024 93.0559 90.116 93.3839 90.3C93.7119 90.484 93.9559 90.732 94.1159 91.044C94.2759 91.348 94.3559 91.692 94.3559 92.076V96H93.4919L93.1919 94.932L93.8279 94.752C93.6839 95.224 93.4279 95.58 93.0599 95.82C92.6919 96.052 92.2599 96.168 91.7639 96.168ZM91.9799 95.1C92.3319 95.1 92.6159 95.02 92.8319 94.86C93.0479 94.692 93.1559 94.46 93.1559 94.164C93.1559 93.86 93.0479 93.628 92.8319 93.468C92.6159 93.308 92.3319 93.228 91.9799 93.228C91.6279 93.228 91.3439 93.308 91.1279 93.468C90.9119 93.628 90.8039 93.86 90.8039 94.164C90.8039 94.46 90.9119 94.692 91.1279 94.86C91.3439 95.02 91.6279 95.1 91.9799 95.1ZM97.8303 96.108C97.3183 96.108 96.9103 95.96 96.6063 95.664C96.3103 95.36 96.1623 94.892 96.1623 94.26V90.216V90.144L96.3903 88.824H97.3623V94.284C97.3623 94.508 97.4183 94.676 97.5303 94.788C97.6503 94.9 97.7983 94.956 97.9743 94.956C98.1103 94.956 98.2303 94.948 98.3343 94.932C98.4383 94.916 98.5303 94.896 98.6103 94.872V95.988C98.5063 96.02 98.3903 96.048 98.2623 96.072C98.1423 96.096 97.9983 96.108 97.8303 96.108ZM95.2623 91.248V90.144H98.6103V91.248H95.2623ZM102.374 96.12C101.806 96.12 101.306 95.996 100.874 95.748C100.442 95.492 100.106 95.136 99.8657 94.68C99.6257 94.224 99.5057 93.692 99.5057 93.084C99.5057 92.468 99.6257 91.932 99.8657 91.476C100.106 91.02 100.442 90.664 100.874 90.408C101.306 90.152 101.806 90.024 102.374 90.024C102.95 90.024 103.454 90.152 103.886 90.408C104.318 90.664 104.654 91.02 104.894 91.476C105.134 91.932 105.254 92.468 105.254 93.084C105.254 93.14 105.25 93.2 105.242 93.264C105.242 93.32 105.238 93.372 105.23 93.42H100.646V92.388H104.366L104.03 93.084C104.03 92.476 103.894 91.976 103.622 91.584C103.35 91.192 102.934 90.996 102.374 90.996C101.878 90.996 101.482 91.156 101.186 91.476C100.89 91.788 100.742 92.2 100.742 92.712V93.336C100.742 93.872 100.886 94.3 101.174 94.62C101.462 94.932 101.862 95.088 102.374 95.088C102.846 95.088 103.21 94.988 103.466 94.788C103.722 94.588 103.946 94.34 104.138 94.044L105.038 94.608C104.766 95.112 104.414 95.492 103.982 95.748C103.558 95.996 103.022 96.12 102.374 96.12Z" fill="#40444C"/>
<rect x="120.5" y="80.5" width="83" height="23" rx="11.5" stroke="#EDEEF1"/>
<path d="M135 93.126V94.1707C134.687 94.0602 134.351 94 134 94C132.343 94 131 95.3432 131 97H130C130 94.7908 131.791 93 134 93C134.345 93 134.68 93.0437 135 93.126ZM134 92.5C132.342 92.5 131 91.1575 131 89.5C131 87.8425 132.342 86.5 134 86.5C135.658 86.5 137 87.8425 137 89.5C137 91.1575 135.658 92.5 134 92.5ZM134 91.5C135.105 91.5 136 90.605 136 89.5C136 88.395 135.105 87.5 134 87.5C132.895 87.5 132 88.395 132 89.5C132 90.605 132.895 91.5 134 91.5ZM137 94.5V93H138V94.5H139.5V95.5H138V97H137V95.5H135.5V94.5H137Z" fill="#40444C"/>
<path d="M147.776 92.964H152.18V94.092H147.776V92.964ZM146.24 96L149.156 87.828H150.788L153.704 96H152.48L149.864 88.668H150.08L147.464 96H146.24ZM156.351 96.12C155.943 96.12 155.539 96.024 155.139 95.832C154.747 95.64 154.423 95.312 154.167 94.848L155.079 94.248C155.303 94.544 155.515 94.76 155.715 94.896C155.915 95.024 156.175 95.088 156.495 95.088C156.751 95.088 156.947 95.024 157.083 94.896C157.227 94.76 157.299 94.596 157.299 94.404C157.299 94.276 157.263 94.164 157.191 94.068C157.127 93.972 157.011 93.884 156.843 93.804C156.675 93.716 156.435 93.632 156.123 93.552C155.547 93.4 155.103 93.2 154.791 92.952C154.479 92.704 154.323 92.312 154.323 91.776C154.323 91.456 154.403 91.164 154.563 90.9C154.723 90.636 154.955 90.424 155.259 90.264C155.563 90.104 155.923 90.024 156.339 90.024C156.835 90.024 157.259 90.128 157.611 90.336C157.963 90.536 158.239 90.776 158.439 91.056L157.515 91.74C157.403 91.596 157.239 91.456 157.023 91.32C156.807 91.176 156.535 91.104 156.207 91.104C156.007 91.104 155.823 91.16 155.655 91.272C155.487 91.384 155.403 91.54 155.403 91.74C155.403 91.94 155.479 92.104 155.631 92.232C155.791 92.352 156.079 92.46 156.495 92.556C157.199 92.724 157.699 92.944 157.995 93.216C158.291 93.48 158.439 93.832 158.439 94.272C158.439 94.656 158.339 94.988 158.139 95.268C157.947 95.54 157.691 95.752 157.371 95.904C157.059 96.048 156.719 96.12 156.351 96.12ZM161.355 96.12C160.947 96.12 160.543 96.024 160.143 95.832C159.751 95.64 159.427 95.312 159.171 94.848L160.083 94.248C160.307 94.544 160.519 94.76 160.719 94.896C160.919 95.024 161.179 95.088 161.499 95.088C161.755 95.088 161.951 95.024 162.087 94.896C162.231 94.76 162.303 94.596 162.303 94.404C162.303 94.276 162.267 94.164 162.195 94.068C162.131 93.972 162.015 93.884 161.847 93.804C161.679 93.716 161.439 93.632 161.127 93.552C160.551 93.4 160.107 93.2 159.795 92.952C159.483 92.704 159.327 92.312 159.327 91.776C159.327 91.456 159.407 91.164 159.567 90.9C159.727 90.636 159.959 90.424 160.263 90.264C160.567 90.104 160.927 90.024 161.343 90.024C161.839 90.024 162.263 90.128 162.615 90.336C162.967 90.536 163.243 90.776 163.443 91.056L162.519 91.74C162.407 91.596 162.243 91.456 162.027 91.32C161.811 91.176 161.539 91.104 161.211 91.104C161.011 91.104 160.827 91.16 160.659 91.272C160.491 91.384 160.407 91.54 160.407 91.74C160.407 91.94 160.483 92.104 160.635 92.232C160.795 92.352 161.083 92.46 161.499 92.556C162.203 92.724 162.703 92.944 162.999 93.216C163.295 93.48 163.443 93.832 163.443 94.272C163.443 94.656 163.343 94.988 163.143 95.268C162.951 95.54 162.695 95.752 162.375 95.904C162.063 96.048 161.723 96.12 161.355 96.12ZM165.887 96H164.687V90.144H165.887V96ZM164.507 88.344C164.507 88.112 164.575 87.924 164.711 87.78C164.855 87.628 165.047 87.552 165.287 87.552C165.519 87.552 165.707 87.628 165.851 87.78C165.995 87.924 166.067 88.112 166.067 88.344C166.067 88.568 165.995 88.756 165.851 88.908C165.707 89.052 165.519 89.124 165.287 89.124C165.047 89.124 164.855 89.052 164.711 88.908C164.575 88.756 164.507 88.568 164.507 88.344ZM170.032 98.376C169.696 98.376 169.376 98.328 169.072 98.232C168.776 98.144 168.504 97.996 168.256 97.788C168.016 97.58 167.8 97.304 167.608 96.96L167.524 96.804L168.472 96.288C168.68 96.632 168.9 96.888 169.132 97.056C169.372 97.232 169.672 97.32 170.032 97.32C170.52 97.32 170.904 97.168 171.184 96.864C171.472 96.56 171.616 96.092 171.616 95.46V94.212H171.736V91.32H171.616L171.904 90.144H172.816V95.268C172.816 95.956 172.692 96.532 172.444 96.996C172.204 97.46 171.876 97.804 171.46 98.028C171.044 98.26 170.568 98.376 170.032 98.376ZM169.888 95.64C169.344 95.64 168.864 95.524 168.448 95.292C168.04 95.06 167.72 94.736 167.488 94.32C167.264 93.896 167.152 93.404 167.152 92.844C167.152 92.276 167.264 91.784 167.488 91.368C167.72 90.944 168.04 90.616 168.448 90.384C168.864 90.144 169.344 90.024 169.888 90.024C170.408 90.024 170.86 90.144 171.244 90.384C171.636 90.616 171.94 90.944 172.156 91.368C172.372 91.784 172.48 92.276 172.48 92.844C172.48 93.404 172.372 93.896 172.156 94.32C171.94 94.736 171.636 95.06 171.244 95.292C170.86 95.524 170.408 95.64 169.888 95.64ZM170.032 94.608C170.528 94.608 170.924 94.448 171.22 94.128C171.524 93.8 171.676 93.368 171.676 92.832C171.676 92.296 171.524 91.868 171.22 91.548C170.924 91.22 170.528 91.056 170.032 91.056C169.536 91.056 169.136 91.22 168.832 91.548C168.528 91.876 168.376 92.308 168.376 92.844C168.376 93.372 168.528 93.8 168.832 94.128C169.136 94.448 169.536 94.608 170.032 94.608ZM177.702 90.024C178.118 90.024 178.446 90.096 178.686 90.24C178.926 90.376 179.102 90.564 179.214 90.804C179.326 91.036 179.398 91.3 179.43 91.596C179.462 91.892 179.478 92.196 179.478 92.508V96H178.278V92.256C178.278 91.84 178.182 91.56 177.99 91.416C177.806 91.272 177.586 91.2 177.33 91.2C177.074 91.2 176.814 91.252 176.55 91.356C176.286 91.46 176.05 91.6 175.842 91.776C175.634 91.952 175.474 92.148 175.362 92.364V91.692H175.554V96H174.354V90.144H175.266L175.518 91.176L175.218 91.212C175.442 90.956 175.686 90.74 175.95 90.564C176.214 90.388 176.494 90.256 176.79 90.168C177.086 90.072 177.39 90.024 177.702 90.024ZM183.413 96.12C182.845 96.12 182.345 95.996 181.913 95.748C181.481 95.492 181.145 95.136 180.905 94.68C180.665 94.224 180.545 93.692 180.545 93.084C180.545 92.468 180.665 91.932 180.905 91.476C181.145 91.02 181.481 90.664 181.913 90.408C182.345 90.152 182.845 90.024 183.413 90.024C183.989 90.024 184.493 90.152 184.925 90.408C185.357 90.664 185.693 91.02 185.933 91.476C186.173 91.932 186.293 92.468 186.293 93.084C186.293 93.14 186.289 93.2 186.281 93.264C186.281 93.32 186.277 93.372 186.269 93.42H181.685V92.388H185.405L185.069 93.084C185.069 92.476 184.933 91.976 184.661 91.584C184.389 91.192 183.973 90.996 183.413 90.996C182.917 90.996 182.521 91.156 182.225 91.476C181.929 91.788 181.781 92.2 181.781 92.712V93.336C181.781 93.872 181.925 94.3 182.213 94.62C182.501 94.932 182.901 95.088 183.413 95.088C183.885 95.088 184.249 94.988 184.505 94.788C184.761 94.588 184.985 94.34 185.177 94.044L186.077 94.608C185.805 95.112 185.453 95.492 185.021 95.748C184.597 95.996 184.061 96.12 183.413 96.12ZM189.928 96.12C189.36 96.12 188.86 95.996 188.428 95.748C187.996 95.492 187.66 95.136 187.42 94.68C187.18 94.224 187.06 93.692 187.06 93.084C187.06 92.468 187.18 91.932 187.42 91.476C187.66 91.02 187.996 90.664 188.428 90.408C188.86 90.152 189.36 90.024 189.928 90.024C190.504 90.024 191.008 90.152 191.44 90.408C191.872 90.664 192.208 91.02 192.448 91.476C192.688 91.932 192.808 92.468 192.808 93.084C192.808 93.14 192.804 93.2 192.796 93.264C192.796 93.32 192.792 93.372 192.784 93.42H188.2V92.388H191.92L191.584 93.084C191.584 92.476 191.448 91.976 191.176 91.584C190.904 91.192 190.488 90.996 189.928 90.996C189.432 90.996 189.036 91.156 188.74 91.476C188.444 91.788 188.296 92.2 188.296 92.712V93.336C188.296 93.872 188.44 94.3 188.728 94.62C189.016 94.932 189.416 95.088 189.928 95.088C190.4 95.088 190.764 94.988 191.02 94.788C191.276 94.588 191.5 94.34 191.692 94.044L192.592 94.608C192.32 95.112 191.968 95.492 191.536 95.748C191.112 95.996 190.576 96.12 189.928 96.12Z" fill="#40444C"/>
<rect x="208.5" y="80.5" width="73" height="23" rx="11.5" stroke="#EDEEF1"/>
<path d="M222 96C224.209 96 226 94.2092 226 92C226 89.7909 224.209 88 222 88C219.791 88 218 89.7909 218 92C218 94.2092 219.791 96 222 96ZM222 97C219.239 97 217 94.7614 217 92C217 89.2386 219.239 87 222 87C224.761 87 227 89.2386 227 92C227 94.7614 224.761 97 222 97ZM222 94C223.105 94 224 93.1046 224 92C224 90.8954 223.105 90 222 90C220.895 90 220 90.8954 220 92C220 93.1046 220.895 94 222 94ZM222 95C220.343 95 219 93.6568 219 92C219 90.3431 220.343 89 222 89C223.657 89 225 90.3431 225 92C225 93.6568 223.657 95 222 95ZM222 93C221.448 93 221 92.5523 221 92C221 91.4477 221.448 91 222 91C222.552 91 223 91.4477 223 92C223 92.5523 222.552 93 222 93Z" fill="black"/>
<path d="M236.004 92.232H237.696C238.224 92.232 238.648 92.088 238.968 91.8C239.288 91.512 239.448 91.112 239.448 90.6C239.448 90.056 239.288 89.648 238.968 89.376C238.656 89.096 238.236 88.956 237.708 88.956H236.004L236.22 88.68V96H235.02V87.828H237.912C238.472 87.828 238.96 87.952 239.376 88.2C239.792 88.448 240.116 88.78 240.348 89.196C240.58 89.612 240.696 90.08 240.696 90.6C240.696 91.112 240.58 91.58 240.348 92.004C240.116 92.42 239.788 92.752 239.364 93C238.948 93.24 238.46 93.36 237.9 93.36H236.004V92.232ZM242.618 90.144L242.906 91.728V96H241.706V90.144H242.618ZM242.726 92.22L242.438 92.088V91.212L242.546 91.08C242.626 90.936 242.75 90.784 242.918 90.624C243.094 90.456 243.298 90.316 243.53 90.204C243.762 90.084 243.998 90.024 244.238 90.024C244.358 90.024 244.47 90.032 244.574 90.048C244.686 90.064 244.77 90.092 244.826 90.132V91.212H244.454C243.91 91.212 243.514 91.296 243.266 91.464C243.018 91.624 242.838 91.876 242.726 92.22ZM247.066 96H245.866V90.144H247.066V96ZM245.686 88.344C245.686 88.112 245.754 87.924 245.89 87.78C246.034 87.628 246.226 87.552 246.466 87.552C246.698 87.552 246.886 87.628 247.03 87.78C247.174 87.924 247.246 88.112 247.246 88.344C247.246 88.568 247.174 88.756 247.03 88.908C246.886 89.052 246.698 89.124 246.466 89.124C246.226 89.124 246.034 89.052 245.89 88.908C245.754 88.756 245.686 88.568 245.686 88.344ZM251.271 96.12C250.679 96.12 250.155 95.996 249.699 95.748C249.251 95.492 248.903 95.136 248.655 94.68C248.407 94.224 248.283 93.692 248.283 93.084C248.283 92.468 248.407 91.932 248.655 91.476C248.903 91.02 249.251 90.664 249.699 90.408C250.155 90.152 250.679 90.024 251.271 90.024C251.871 90.024 252.395 90.152 252.843 90.408C253.291 90.664 253.639 91.02 253.887 91.476C254.143 91.932 254.271 92.468 254.271 93.084C254.271 93.692 254.143 94.224 253.887 94.68C253.639 95.136 253.291 95.492 252.843 95.748C252.395 95.996 251.871 96.12 251.271 96.12ZM251.271 94.968C251.807 94.968 252.235 94.796 252.555 94.452C252.883 94.1 253.047 93.644 253.047 93.084C253.047 92.516 252.883 92.056 252.555 91.704C252.235 91.352 251.807 91.176 251.271 91.176C250.743 91.176 250.315 91.352 249.987 91.704C249.667 92.048 249.507 92.504 249.507 93.072C249.507 93.64 249.667 94.1 249.987 94.452C250.315 94.796 250.743 94.968 251.271 94.968ZM256.317 90.144L256.605 91.728V96H255.405V90.144H256.317ZM256.425 92.22L256.137 92.088V91.212L256.245 91.08C256.325 90.936 256.449 90.784 256.617 90.624C256.793 90.456 256.997 90.316 257.229 90.204C257.461 90.084 257.697 90.024 257.937 90.024C258.057 90.024 258.169 90.032 258.273 90.048C258.385 90.064 258.469 90.092 258.525 90.132V91.212H258.153C257.609 91.212 257.213 91.296 256.965 91.464C256.717 91.624 256.537 91.876 256.425 92.22ZM260.765 96H259.565V90.144H260.765V96ZM259.385 88.344C259.385 88.112 259.453 87.924 259.589 87.78C259.733 87.628 259.925 87.552 260.165 87.552C260.397 87.552 260.585 87.628 260.729 87.78C260.873 87.924 260.945 88.112 260.945 88.344C260.945 88.568 260.873 88.756 260.729 88.908C260.585 89.052 260.397 89.124 260.165 89.124C259.925 89.124 259.733 89.052 259.589 88.908C259.453 88.756 259.385 88.568 259.385 88.344ZM264.491 96.108C263.979 96.108 263.571 95.96 263.267 95.664C262.971 95.36 262.823 94.892 262.823 94.26V90.216V90.144L263.051 88.824H264.023V94.284C264.023 94.508 264.079 94.676 264.191 94.788C264.311 94.9 264.459 94.956 264.635 94.956C264.771 94.956 264.891 94.948 264.995 94.932C265.099 94.916 265.191 94.896 265.271 94.872V95.988C265.167 96.02 265.051 96.048 264.923 96.072C264.803 96.096 264.659 96.108 264.491 96.108ZM261.923 91.248V90.144H265.271V91.248H261.923ZM268.371 95.256L266.055 90.144H267.315L269.367 94.668L268.371 95.256ZM266.835 98.28L270.531 90.144H271.791L268.095 98.28H266.835Z" fill="#40444C"/>
<rect x="308.5" y="80.5" width="23" height="23" rx="11.5" stroke="#EDEEF1"/>
<path d="M316.5 91C315.95 91 315.5 91.45 315.5 92C315.5 92.55 315.95 93 316.5 93C317.05 93 317.5 92.55 317.5 92C317.5 91.45 317.05 91 316.5 91ZM323.5 91C322.95 91 322.5 91.45 322.5 92C322.5 92.55 322.95 93 323.5 93C324.05 93 324.5 92.55 324.5 92C324.5 91.45 324.05 91 323.5 91ZM320 91C319.45 91 319 91.45 319 92C319 92.55 319.45 93 320 93C320.55 93 321 92.55 321 92C321 91.45 320.55 91 320 91Z" fill="black"/>
<path d="M16 120H348" stroke="#F7F8F8"/>
<rect x="32.5" y="136.5" width="103" height="23" rx="11.5" stroke="#EDEEF1"/>
<path d="M43.1912 144.984C43.961 144.368 44.9375 144 46 144C47.0625 144 48.039 144.368 48.8089 144.984L49.5356 144.257L50.2427 144.964L49.516 145.691C50.1318 146.461 50.5 147.438 50.5 148.5C50.5 150.985 48.4853 153 46 153C43.5147 153 41.5 150.985 41.5 148.5C41.5 147.438 41.8682 146.461 42.4841 145.691L41.7574 144.964L42.4645 144.257L43.1912 144.984ZM46 152C47.933 152 49.5 150.433 49.5 148.5C49.5 146.567 47.933 145 46 145C44.067 145 42.5 146.567 42.5 148.5C42.5 150.433 44.067 152 46 152ZM46.5 148H48L45.5 151.25V149H44L46.5 145.748V148ZM44 142.5H48V143.5H44V142.5Z" fill="black"/>
<path d="M61.54 152.18C61.116 152.18 60.704 152.116 60.304 151.988C59.912 151.86 59.552 151.652 59.224 151.364C58.896 151.068 58.62 150.668 58.396 150.164L59.392 149.6C59.672 150.104 59.98 150.468 60.316 150.692C60.652 150.916 61.072 151.028 61.576 151.028C62.064 151.028 62.432 150.92 62.68 150.704C62.936 150.488 63.064 150.192 63.064 149.816C63.064 149.592 63.008 149.396 62.896 149.228C62.792 149.06 62.604 148.904 62.332 148.76C62.06 148.616 61.676 148.484 61.18 148.364C60.556 148.204 60.068 148.008 59.716 147.776C59.372 147.536 59.132 147.264 58.996 146.96C58.86 146.648 58.792 146.312 58.792 145.952C58.792 145.504 58.896 145.116 59.104 144.788C59.312 144.452 59.612 144.192 60.004 144.008C60.396 143.816 60.86 143.72 61.396 143.72C62.036 143.72 62.564 143.844 62.98 144.092C63.396 144.332 63.748 144.664 64.036 145.088L63.028 145.736C62.78 145.432 62.52 145.216 62.248 145.088C61.984 144.952 61.7 144.884 61.396 144.884C60.932 144.884 60.576 144.976 60.328 145.16C60.088 145.344 59.968 145.608 59.968 145.952C59.968 146.248 60.08 146.504 60.304 146.72C60.536 146.936 60.984 147.124 61.648 147.284C62.32 147.452 62.844 147.652 63.22 147.884C63.604 148.108 63.872 148.38 64.024 148.7C64.184 149.012 64.264 149.388 64.264 149.828C64.264 150.268 64.152 150.664 63.928 151.016C63.704 151.368 63.388 151.652 62.98 151.868C62.572 152.076 62.092 152.18 61.54 152.18ZM67.6979 152.12C67.1299 152.12 66.6299 151.996 66.1979 151.748C65.7659 151.492 65.4299 151.136 65.1899 150.68C64.9499 150.224 64.8299 149.692 64.8299 149.084C64.8299 148.468 64.9499 147.932 65.1899 147.476C65.4299 147.02 65.7659 146.664 66.1979 146.408C66.6299 146.152 67.1299 146.024 67.6979 146.024C68.2739 146.024 68.7779 146.152 69.2099 146.408C69.6419 146.664 69.9779 147.02 70.2179 147.476C70.4579 147.932 70.5779 148.468 70.5779 149.084C70.5779 149.14 70.5739 149.2 70.5659 149.264C70.5659 149.32 70.5619 149.372 70.5539 149.42H65.9699V148.388H69.6899L69.3539 149.084C69.3539 148.476 69.2179 147.976 68.9459 147.584C68.6739 147.192 68.2579 146.996 67.6979 146.996C67.2019 146.996 66.8059 147.156 66.5099 147.476C66.2139 147.788 66.0659 148.2 66.0659 148.712V149.336C66.0659 149.872 66.2099 150.3 66.4979 150.62C66.7859 150.932 67.1859 151.088 67.6979 151.088C68.1699 151.088 68.5339 150.988 68.7899 150.788C69.0459 150.588 69.2699 150.34 69.4619 150.044L70.3619 150.608C70.0899 151.112 69.7379 151.492 69.3059 151.748C68.8819 151.996 68.3459 152.12 67.6979 152.12ZM73.8069 152.108C73.2949 152.108 72.8869 151.96 72.5829 151.664C72.2869 151.36 72.1389 150.892 72.1389 150.26V146.216V146.144L72.3669 144.824H73.3389V150.284C73.3389 150.508 73.3949 150.676 73.5069 150.788C73.6269 150.9 73.7749 150.956 73.9509 150.956C74.0869 150.956 74.2069 150.948 74.3109 150.932C74.4149 150.916 74.5069 150.896 74.5869 150.872V151.988C74.4829 152.02 74.3669 152.048 74.2389 152.072C74.1189 152.096 73.9749 152.108 73.8069 152.108ZM71.2389 147.248V146.144H74.5869V147.248H71.2389ZM79.9886 146.144L80.2766 147.728V152H79.0766V146.144H79.9886ZM80.0966 148.22L79.8086 148.088V147.212L79.9166 147.08C79.9966 146.936 80.1206 146.784 80.2886 146.624C80.4646 146.456 80.6686 146.316 80.9006 146.204C81.1326 146.084 81.3686 146.024 81.6086 146.024C81.7286 146.024 81.8406 146.032 81.9446 146.048C82.0566 146.064 82.1406 146.092 82.1966 146.132V147.212H81.8246C81.2806 147.212 80.8846 147.296 80.6366 147.464C80.3886 147.624 80.2086 147.876 80.0966 148.22ZM85.2994 152.12C84.7314 152.12 84.2314 151.996 83.7994 151.748C83.3674 151.492 83.0314 151.136 82.7914 150.68C82.5514 150.224 82.4314 149.692 82.4314 149.084C82.4314 148.468 82.5514 147.932 82.7914 147.476C83.0314 147.02 83.3674 146.664 83.7994 146.408C84.2314 146.152 84.7314 146.024 85.2994 146.024C85.8754 146.024 86.3794 146.152 86.8114 146.408C87.2434 146.664 87.5794 147.02 87.8194 147.476C88.0594 147.932 88.1794 148.468 88.1794 149.084C88.1794 149.14 88.1754 149.2 88.1674 149.264C88.1674 149.32 88.1634 149.372 88.1554 149.42H83.5714V148.388H87.2914L86.9554 149.084C86.9554 148.476 86.8194 147.976 86.5474 147.584C86.2754 147.192 85.8594 146.996 85.2994 146.996C84.8034 146.996 84.4074 147.156 84.1114 147.476C83.8154 147.788 83.6674 148.2 83.6674 148.712V149.336C83.6674 149.872 83.8114 150.3 84.0994 150.62C84.3874 150.932 84.7874 151.088 85.2994 151.088C85.7714 151.088 86.1354 150.988 86.3914 150.788C86.6474 150.588 86.8714 150.34 87.0634 150.044L87.9634 150.608C87.6914 151.112 87.3394 151.492 86.9074 151.748C86.4834 151.996 85.9474 152.12 85.2994 152.12ZM89.3071 152V146.144H90.2191L90.4711 147.176L90.1711 147.212C90.3871 146.956 90.6151 146.74 90.8551 146.564C91.0951 146.388 91.3511 146.256 91.6231 146.168C91.8951 146.072 92.1791 146.024 92.4751 146.024C92.8911 146.024 93.2191 146.096 93.4591 146.24C93.6991 146.376 93.8751 146.564 93.9871 146.804C94.0991 147.036 94.1711 147.3 94.2031 147.596C94.2351 147.892 94.2511 148.196 94.2511 148.508V152H93.0511V148.256C93.0511 147.84 92.9551 147.56 92.7631 147.416C92.5791 147.272 92.3591 147.2 92.1031 147.2C91.7351 147.2 91.3831 147.316 91.0471 147.548C90.7111 147.772 90.4671 148.044 90.3151 148.364V147.692H90.5071V152H89.3071ZM96.7951 152V148.256C96.7951 147.84 96.6991 147.56 96.5071 147.416C96.3231 147.272 96.1031 147.2 95.8471 147.2C95.4791 147.2 95.1271 147.316 94.7911 147.548C94.4551 147.772 94.2111 148.044 94.0591 148.364L93.9151 147.212C94.1311 146.956 94.3591 146.74 94.5991 146.564C94.8391 146.388 95.0951 146.256 95.3671 146.168C95.6391 146.072 95.9231 146.024 96.2191 146.024C96.6351 146.024 96.9631 146.096 97.2031 146.24C97.4431 146.376 97.6191 146.564 97.7311 146.804C97.8431 147.036 97.9151 147.3 97.9471 147.596C97.9791 147.892 97.9951 148.196 97.9951 148.508V152H96.7951ZM100.703 152H99.5029V146.144H100.703V152ZM99.3229 144.344C99.3229 144.112 99.3909 143.924 99.5269 143.78C99.6709 143.628 99.8629 143.552 100.103 143.552C100.335 143.552 100.523 143.628 100.667 143.78C100.811 143.924 100.883 144.112 100.883 144.344C100.883 144.568 100.811 144.756 100.667 144.908C100.523 145.052 100.335 145.124 100.103 145.124C99.8629 145.124 99.6709 145.052 99.5269 144.908C99.3909 144.756 99.3229 144.568 99.3229 144.344ZM105.616 146.024C106.032 146.024 106.36 146.096 106.6 146.24C106.84 146.376 107.016 146.564 107.128 146.804C107.24 147.036 107.312 147.3 107.344 147.596C107.376 147.892 107.392 148.196 107.392 148.508V152H106.192V148.256C106.192 147.84 106.096 147.56 105.904 147.416C105.72 147.272 105.5 147.2 105.244 147.2C104.988 147.2 104.728 147.252 104.464 147.356C104.2 147.46 103.964 147.6 103.756 147.776C103.548 147.952 103.388 148.148 103.276 148.364V147.692H103.468V152H102.268V146.144H103.18L103.432 147.176L103.132 147.212C103.356 146.956 103.6 146.74 103.864 146.564C104.128 146.388 104.408 146.256 104.704 146.168C105 146.072 105.304 146.024 105.616 146.024ZM111.159 152.12C110.623 152.12 110.151 151.992 109.743 151.736C109.335 151.48 109.019 151.124 108.795 150.668C108.571 150.204 108.459 149.668 108.459 149.06C108.459 148.452 108.571 147.92 108.795 147.464C109.019 147.008 109.335 146.656 109.743 146.408C110.151 146.152 110.623 146.024 111.159 146.024C111.687 146.024 112.147 146.152 112.539 146.408C112.931 146.656 113.235 147.008 113.451 147.464C113.675 147.92 113.787 148.452 113.787 149.06C113.787 149.668 113.675 150.204 113.451 150.668C113.235 151.124 112.931 151.48 112.539 151.736C112.147 151.992 111.687 152.12 111.159 152.12ZM111.339 151.088C111.835 151.088 112.231 150.904 112.527 150.536C112.831 150.168 112.983 149.68 112.983 149.072C112.983 148.464 112.831 147.976 112.527 147.608C112.231 147.24 111.835 147.056 111.339 147.056C110.843 147.056 110.443 147.24 110.139 147.608C109.835 147.976 109.683 148.46 109.683 149.06C109.683 149.668 109.835 150.16 110.139 150.536C110.443 150.904 110.843 151.088 111.339 151.088ZM113.211 152L112.923 150.824H113.043V147.488H112.923V143.828H114.123V152H113.211ZM118.112 152.12C117.544 152.12 117.044 151.996 116.612 151.748C116.18 151.492 115.844 151.136 115.604 150.68C115.364 150.224 115.244 149.692 115.244 149.084C115.244 148.468 115.364 147.932 115.604 147.476C115.844 147.02 116.18 146.664 116.612 146.408C117.044 146.152 117.544 146.024 118.112 146.024C118.688 146.024 119.192 146.152 119.624 146.408C120.056 146.664 120.392 147.02 120.632 147.476C120.872 147.932 120.992 148.468 120.992 149.084C120.992 149.14 120.988 149.2 120.98 149.264C120.98 149.32 120.976 149.372 120.968 149.42H116.384V148.388H120.104L119.768 149.084C119.768 148.476 119.632 147.976 119.36 147.584C119.088 147.192 118.672 146.996 118.112 146.996C117.616 146.996 117.22 147.156 116.924 147.476C116.628 147.788 116.48 148.2 116.48 148.712V149.336C116.48 149.872 116.624 150.3 116.912 150.62C117.2 150.932 117.6 151.088 118.112 151.088C118.584 151.088 118.948 150.988 119.204 150.788C119.46 150.588 119.684 150.34 119.876 150.044L120.776 150.608C120.504 151.112 120.152 151.492 119.72 151.748C119.296 151.996 118.76 152.12 118.112 152.12ZM123.032 146.144L123.32 147.728V152H122.12V146.144H123.032ZM123.14 148.22L122.852 148.088V147.212L122.96 147.08C123.04 146.936 123.164 146.784 123.332 146.624C123.508 146.456 123.712 146.316 123.944 146.204C124.176 146.084 124.412 146.024 124.652 146.024C124.772 146.024 124.884 146.032 124.988 146.048C125.1 146.064 125.184 146.092 125.24 146.132V147.212H124.868C124.324 147.212 123.928 147.296 123.68 147.464C123.432 147.624 123.252 147.876 123.14 148.22Z" fill="#40444C"/>
<rect x="250" y="136" width="82" height="24" rx="12" fill="#C1FF71"/>
<rect x="254" y="140" width="16" height="16" rx="8" fill="black"/>
<path d="M261.5 147.5V144.5H262.5V147.5H265.5V148.5H262.5V151.5H261.5V148.5H258.5V147.5H261.5Z" fill="white"/>
<path d="M277.824 148.928H282.036V150.224H277.824V148.928ZM276.204 152L279.108 143.828H280.848L283.716 152H282.3L279.816 144.788H280.152L277.608 152H276.204ZM286.537 152.132C286.009 152.132 285.541 152.004 285.133 151.748C284.725 151.484 284.405 151.124 284.173 150.668C283.949 150.204 283.837 149.668 283.837 149.06C283.837 148.452 283.949 147.92 284.173 147.464C284.405 147.008 284.725 146.652 285.133 146.396C285.541 146.14 286.013 146.012 286.549 146.012C287.069 146.012 287.521 146.136 287.905 146.384C288.297 146.624 288.601 146.976 288.817 147.44C289.033 147.896 289.141 148.436 289.141 149.06C289.141 149.676 289.033 150.216 288.817 150.68C288.601 151.136 288.297 151.492 287.905 151.748C287.513 152.004 287.057 152.132 286.537 152.132ZM286.777 150.884C287.225 150.884 287.585 150.72 287.857 150.392C288.137 150.056 288.277 149.616 288.277 149.072C288.277 148.528 288.137 148.092 287.857 147.764C287.585 147.428 287.225 147.26 286.777 147.26C286.329 147.26 285.961 147.428 285.673 147.764C285.393 148.092 285.253 148.524 285.253 149.06C285.253 149.604 285.393 150.044 285.673 150.38C285.961 150.716 286.329 150.884 286.777 150.884ZM288.553 152L288.217 150.716H288.325V147.584H288.217V143.828H289.609V152H288.553ZM293.31 152.132C292.782 152.132 292.314 152.004 291.906 151.748C291.498 151.484 291.178 151.124 290.946 150.668C290.722 150.204 290.61 149.668 290.61 149.06C290.61 148.452 290.722 147.92 290.946 147.464C291.178 147.008 291.498 146.652 291.906 146.396C292.314 146.14 292.786 146.012 293.322 146.012C293.842 146.012 294.294 146.136 294.678 146.384C295.07 146.624 295.374 146.976 295.59 147.44C295.806 147.896 295.914 148.436 295.914 149.06C295.914 149.676 295.806 150.216 295.59 150.68C295.374 151.136 295.07 151.492 294.678 151.748C294.286 152.004 293.83 152.132 293.31 152.132ZM293.55 150.884C293.998 150.884 294.358 150.72 294.63 150.392C294.91 150.056 295.05 149.616 295.05 149.072C295.05 148.528 294.91 148.092 294.63 147.764C294.358 147.428 293.998 147.26 293.55 147.26C293.102 147.26 292.734 147.428 292.446 147.764C292.166 148.092 292.026 148.524 292.026 149.06C292.026 149.604 292.166 150.044 292.446 150.38C292.734 150.716 293.102 150.884 293.55 150.884ZM295.326 152L294.99 150.716H295.098V147.584H294.99V143.828H296.382V152H295.326ZM303.247 152.108C302.687 152.108 302.243 151.956 301.915 151.652C301.595 151.34 301.435 150.852 301.435 150.188V146.216V146.144L301.699 144.788H302.827V150.068C302.827 150.308 302.887 150.484 303.007 150.596C303.127 150.708 303.283 150.764 303.475 150.764C303.603 150.764 303.719 150.756 303.823 150.74C303.927 150.724 304.019 150.704 304.099 150.68V151.976C303.979 152.016 303.851 152.048 303.715 152.072C303.587 152.096 303.431 152.108 303.247 152.108ZM300.535 147.416V146.144H304.099V147.416H300.535ZM307.149 152.168C306.701 152.168 306.313 152.088 305.985 151.928C305.665 151.76 305.417 151.528 305.241 151.232C305.065 150.936 304.977 150.584 304.977 150.176C304.977 149.776 305.065 149.428 305.241 149.132C305.425 148.836 305.681 148.604 306.009 148.436C306.337 148.26 306.717 148.172 307.149 148.172C307.717 148.172 308.173 148.3 308.517 148.556C308.869 148.812 309.109 149.172 309.237 149.636L308.541 149.588V148.136C308.541 147.896 308.457 147.68 308.289 147.488C308.129 147.296 307.853 147.2 307.461 147.2C307.237 147.2 306.989 147.228 306.717 147.284C306.445 147.332 306.165 147.424 305.877 147.56L305.457 146.528C305.793 146.36 306.145 146.232 306.513 146.144C306.889 146.056 307.261 146.012 307.629 146.012C308.149 146.012 308.577 146.108 308.913 146.3C309.257 146.484 309.513 146.736 309.681 147.056C309.849 147.376 309.933 147.744 309.933 148.16V152H308.865L308.553 150.908L309.237 150.704C309.101 151.184 308.849 151.548 308.481 151.796C308.121 152.044 307.677 152.168 307.149 152.168ZM307.473 151.028C307.793 151.028 308.049 150.952 308.241 150.8C308.441 150.648 308.541 150.44 308.541 150.176C308.541 149.896 308.441 149.684 308.241 149.54C308.049 149.388 307.793 149.312 307.473 149.312C307.153 149.312 306.893 149.388 306.693 149.54C306.501 149.684 306.405 149.896 306.405 150.176C306.405 150.44 306.501 150.648 306.693 150.8C306.893 150.952 307.153 151.028 307.473 151.028ZM313.235 152.144C312.803 152.144 312.387 152.048 311.987 151.856C311.587 151.664 311.243 151.34 310.955 150.884L311.903 150.164C312.143 150.452 312.371 150.66 312.587 150.788C312.803 150.916 313.067 150.98 313.379 150.98C313.603 150.98 313.779 150.924 313.907 150.812C314.035 150.7 314.099 150.56 314.099 150.392C314.099 150.28 314.067 150.18 314.003 150.092C313.939 150.004 313.819 149.924 313.643 149.852C313.475 149.772 313.231 149.692 312.911 149.612C312.319 149.46 311.867 149.252 311.555 148.988C311.251 148.724 311.099 148.332 311.099 147.812C311.099 147.484 311.183 147.184 311.351 146.912C311.519 146.632 311.763 146.412 312.083 146.252C312.403 146.084 312.779 146 313.211 146C313.731 146 314.175 146.104 314.543 146.312C314.911 146.52 315.203 146.768 315.419 147.056L314.447 147.824C314.311 147.672 314.127 147.532 313.895 147.404C313.671 147.268 313.399 147.2 313.079 147.2C312.887 147.2 312.715 147.248 312.563 147.344C312.411 147.44 312.335 147.576 312.335 147.752C312.335 147.92 312.411 148.06 312.563 148.172C312.715 148.284 313.003 148.388 313.427 148.484C314.139 148.652 314.647 148.876 314.951 149.156C315.255 149.436 315.407 149.804 315.407 150.26C315.407 150.644 315.307 150.98 315.107 151.268C314.907 151.548 314.643 151.764 314.315 151.916C313.987 152.068 313.627 152.144 313.235 152.144ZM317.536 149.048V148.856L320.032 146.144H321.64L318.856 149.228L318.76 148.52L321.676 152H320.032L317.536 149.048ZM316.54 143.828H317.908V152H316.54V143.828Z" fill="black"/>
</g>
<path d="M16 196.8C16 192.32 16 190.079 16.8719 188.368C17.6389 186.863 18.8628 185.639 20.3681 184.872C22.0794 184 24.3196 184 28.8 184H335.2C339.68 184 341.921 184 343.632 184.872C345.137 185.639 346.361 186.863 347.128 188.368C348 190.079 348 192.32 348 196.8V207.2C348 211.68 348 213.921 347.128 215.632C346.361 217.137 345.137 218.361 343.632 219.128C341.921 220 339.68 220 335.2 220H28.8C24.3196 220 22.0794 220 20.3681 219.128C18.8628 218.361 17.6389 217.137 16.8719 215.632C16 213.921 16 211.68 16 207.2V196.8Z" fill="#F7F8F8"/>
<path d="M29.6665 198.667C30.2188 198.667 30.6665 198.219 30.6665 197.667C30.6665 197.114 30.2188 196.667 29.6665 196.667C29.1142 196.667 28.6665 197.114 28.6665 197.667C28.6665 198.219 29.1142 198.667 29.6665 198.667ZM29.6665 203C30.2188 203 30.6665 202.552 30.6665 202C30.6665 201.448 30.2188 201 29.6665 201C29.1142 201 28.6665 201.448 28.6665 202C28.6665 202.552 29.1142 203 29.6665 203ZM30.6665 206.333C30.6665 206.886 30.2188 207.333 29.6665 207.333C29.1142 207.333 28.6665 206.886 28.6665 206.333C28.6665 205.781 29.1142 205.333 29.6665 205.333C30.2188 205.333 30.6665 205.781 30.6665 206.333ZM34.3332 198.667C34.8854 198.667 35.3332 198.219 35.3332 197.667C35.3332 197.114 34.8854 196.667 34.3332 196.667C33.7809 196.667 33.3332 197.114 33.3332 197.667C33.3332 198.219 33.7809 198.667 34.3332 198.667ZM35.3332 202C35.3332 202.552 34.8854 203 34.3332 203C33.7809 203 33.3332 202.552 33.3332 202C33.3332 201.448 33.7809 201 34.3332 201C34.8854 201 35.3332 201.448 35.3332 202ZM34.3332 207.333C34.8854 207.333 35.3332 206.886 35.3332 206.333C35.3332 205.781 34.8854 205.333 34.3332 205.333C33.7809 205.333 33.3332 205.781 33.3332 206.333C33.3332 206.886 33.7809 207.333 34.3332 207.333Z" fill="black"/>
<path d="M60.0002 208.667C56.3183 208.667 53.3335 205.682 53.3335 202C53.3335 198.318 56.3183 195.333 60.0002 195.333C63.682 195.333 66.6668 198.318 66.6668 202C66.6668 205.682 63.682 208.667 60.0002 208.667ZM60.0002 207.333C62.9457 207.333 65.3335 204.945 65.3335 202C65.3335 199.054 62.9457 196.667 60.0002 196.667C57.0546 196.667 54.6668 199.054 54.6668 202C54.6668 204.945 57.0546 207.333 60.0002 207.333Z" fill="black"/>
<path d="M85.016 207L82.398 198.502L82.076 197.466H83.448L86.122 206.3L85.506 206.16L87.83 197.466H89.244L86.654 207H85.016ZM78.87 207L76.28 197.466H77.694L80.018 206.16L79.402 206.3L82.076 197.466H83.448L83.126 198.502L80.508 207H78.87ZM92.7029 207.14C92.0403 207.14 91.4569 206.995 90.9529 206.706C90.4489 206.407 90.0569 205.992 89.7769 205.46C89.4969 204.928 89.3569 204.307 89.3569 203.598C89.3569 202.879 89.4969 202.254 89.7769 201.722C90.0569 201.19 90.4489 200.775 90.9529 200.476C91.4569 200.177 92.0403 200.028 92.7029 200.028C93.3749 200.028 93.9629 200.177 94.4669 200.476C94.9709 200.775 95.3629 201.19 95.6429 201.722C95.9229 202.254 96.0629 202.879 96.0629 203.598C96.0629 203.663 96.0583 203.733 96.0489 203.808C96.0489 203.873 96.0443 203.934 96.0349 203.99H90.6869V202.786H95.0269L94.6349 203.598C94.6349 202.889 94.4763 202.305 94.1589 201.848C93.8416 201.391 93.3563 201.162 92.7029 201.162C92.1243 201.162 91.6623 201.349 91.3169 201.722C90.9716 202.086 90.7989 202.567 90.7989 203.164V203.892C90.7989 204.517 90.9669 205.017 91.3029 205.39C91.6389 205.754 92.1056 205.936 92.7029 205.936C93.2536 205.936 93.6783 205.819 93.9769 205.586C94.2756 205.353 94.5369 205.063 94.7609 204.718L95.8109 205.376C95.4936 205.964 95.0829 206.407 94.5789 206.706C94.0843 206.995 93.4589 207.14 92.7029 207.14ZM100.225 207.14C99.5618 207.14 98.9785 206.995 98.4745 206.706C97.9705 206.407 97.5785 205.992 97.2985 205.46C97.0185 204.928 96.8785 204.307 96.8785 203.598C96.8785 202.879 97.0185 202.254 97.2985 201.722C97.5785 201.19 97.9705 200.775 98.4745 200.476C98.9785 200.177 99.5618 200.028 100.225 200.028C100.897 200.028 101.485 200.177 101.989 200.476C102.493 200.775 102.885 201.19 103.165 201.722C103.445 202.254 103.585 202.879 103.585 203.598C103.585 203.663 103.58 203.733 103.571 203.808C103.571 203.873 103.566 203.934 103.557 203.99H98.2085V202.786H102.549L102.157 203.598C102.157 202.889 101.998 202.305 101.681 201.848C101.363 201.391 100.878 201.162 100.225 201.162C99.6458 201.162 99.1838 201.349 98.8385 201.722C98.4932 202.086 98.3205 202.567 98.3205 203.164V203.892C98.3205 204.517 98.4885 205.017 98.8245 205.39C99.1605 205.754 99.6272 205.936 100.225 205.936C100.775 205.936 101.2 205.819 101.499 205.586C101.797 205.353 102.059 205.063 102.283 204.718L103.333 205.376C103.015 205.964 102.605 206.407 102.101 206.706C101.606 206.995 100.981 207.14 100.225 207.14ZM105.856 203.556V203.36L108.824 200.168H110.476L107.144 203.822L107.018 202.898L110.504 207H108.824L105.856 203.556ZM104.82 197.466H106.192V207H104.82V197.466ZM112.426 207.07C112.183 207.07 111.968 207.014 111.782 206.902C111.595 206.781 111.446 206.608 111.334 206.384C111.231 206.16 111.18 205.885 111.18 205.558V197.466H112.552V205.068C112.552 205.357 112.622 205.553 112.762 205.656C112.911 205.759 113.079 205.81 113.266 205.81V206.93C113.144 206.977 113.014 207.009 112.874 207.028C112.734 207.056 112.584 207.07 112.426 207.07ZM116.301 206.132L113.599 200.168H115.069L117.463 205.446L116.301 206.132ZM114.509 209.66L118.821 200.168H120.291L115.979 209.66H114.509ZM127.799 209.772C127.407 209.772 127.034 209.716 126.679 209.604C126.334 209.501 126.016 209.329 125.727 209.086C125.447 208.843 125.195 208.521 124.971 208.12L124.873 207.938L125.979 207.336C126.222 207.737 126.478 208.036 126.749 208.232C127.029 208.437 127.379 208.54 127.799 208.54C128.368 208.54 128.816 208.363 129.143 208.008C129.479 207.653 129.647 207.107 129.647 206.37V204.914H129.787V201.54H129.647L129.983 200.168H131.047V206.146C131.047 206.949 130.902 207.621 130.613 208.162C130.333 208.703 129.95 209.105 129.465 209.366C128.98 209.637 128.424 209.772 127.799 209.772ZM127.631 206.58C126.996 206.58 126.436 206.445 125.951 206.174C125.475 205.903 125.102 205.525 124.831 205.04C124.57 204.545 124.439 203.971 124.439 203.318C124.439 202.655 124.57 202.081 124.831 201.596C125.102 201.101 125.475 200.719 125.951 200.448C126.436 200.168 126.996 200.028 127.631 200.028C128.238 200.028 128.765 200.168 129.213 200.448C129.67 200.719 130.025 201.101 130.277 201.596C130.529 202.081 130.655 202.655 130.655 203.318C130.655 203.971 130.529 204.545 130.277 205.04C130.025 205.525 129.67 205.903 129.213 206.174C128.765 206.445 128.238 206.58 127.631 206.58ZM127.799 205.376C128.378 205.376 128.84 205.189 129.185 204.816C129.54 204.433 129.717 203.929 129.717 203.304C129.717 202.679 129.54 202.179 129.185 201.806C128.84 201.423 128.378 201.232 127.799 201.232C127.22 201.232 126.754 201.423 126.399 201.806C126.044 202.189 125.867 202.693 125.867 203.318C125.867 203.934 126.044 204.433 126.399 204.816C126.754 205.189 127.22 205.376 127.799 205.376ZM133.826 200.168L134.162 202.016V207H132.762V200.168H133.826ZM133.952 202.59L133.616 202.436V201.414L133.742 201.26C133.835 201.092 133.98 200.915 134.176 200.728C134.381 200.532 134.619 200.369 134.89 200.238C135.161 200.098 135.436 200.028 135.716 200.028C135.856 200.028 135.987 200.037 136.108 200.056C136.239 200.075 136.337 200.107 136.402 200.154V201.414H135.968C135.333 201.414 134.871 201.512 134.582 201.708C134.293 201.895 134.083 202.189 133.952 202.59ZM140.096 207.14C139.405 207.14 138.794 206.995 138.262 206.706C137.739 206.407 137.333 205.992 137.044 205.46C136.755 204.928 136.61 204.307 136.61 203.598C136.61 202.879 136.755 202.254 137.044 201.722C137.333 201.19 137.739 200.775 138.262 200.476C138.794 200.177 139.405 200.028 140.096 200.028C140.796 200.028 141.407 200.177 141.93 200.476C142.453 200.775 142.859 201.19 143.148 201.722C143.447 202.254 143.596 202.879 143.596 203.598C143.596 204.307 143.447 204.928 143.148 205.46C142.859 205.992 142.453 206.407 141.93 206.706C141.407 206.995 140.796 207.14 140.096 207.14ZM140.096 205.796C140.721 205.796 141.221 205.595 141.594 205.194C141.977 204.783 142.168 204.251 142.168 203.598C142.168 202.935 141.977 202.399 141.594 201.988C141.221 201.577 140.721 201.372 140.096 201.372C139.48 201.372 138.981 201.577 138.598 201.988C138.225 202.389 138.038 202.921 138.038 203.584C138.038 204.247 138.225 204.783 138.598 205.194C138.981 205.595 139.48 205.796 140.096 205.796ZM147.643 207.14C146.943 207.14 146.336 206.991 145.823 206.692C145.31 206.384 144.913 205.964 144.633 205.432C144.353 204.9 144.213 204.284 144.213 203.584C144.213 202.884 144.353 202.268 144.633 201.736C144.913 201.204 145.31 200.789 145.823 200.49C146.336 200.182 146.943 200.028 147.643 200.028C148.306 200.028 148.908 200.21 149.449 200.574C149.99 200.929 150.382 201.405 150.625 202.002L149.295 202.562C149.146 202.17 148.922 201.876 148.623 201.68C148.324 201.475 147.984 201.372 147.601 201.372C147.041 201.372 146.574 201.568 146.201 201.96C145.828 202.343 145.641 202.884 145.641 203.584C145.641 204.284 145.828 204.83 146.201 205.222C146.574 205.605 147.041 205.796 147.601 205.796C147.984 205.796 148.324 205.698 148.623 205.502C148.922 205.297 149.146 204.998 149.295 204.606L150.625 205.166C150.373 205.763 149.976 206.244 149.435 206.608C148.903 206.963 148.306 207.14 147.643 207.14ZM154.534 207.14C153.871 207.14 153.288 206.995 152.784 206.706C152.28 206.407 151.888 205.992 151.608 205.46C151.328 204.928 151.188 204.307 151.188 203.598C151.188 202.879 151.328 202.254 151.608 201.722C151.888 201.19 152.28 200.775 152.784 200.476C153.288 200.177 153.871 200.028 154.534 200.028C155.206 200.028 155.794 200.177 156.298 200.476C156.802 200.775 157.194 201.19 157.474 201.722C157.754 202.254 157.894 202.879 157.894 203.598C157.894 203.663 157.889 203.733 157.88 203.808C157.88 203.873 157.875 203.934 157.866 203.99H152.518V202.786H156.858L156.466 203.598C156.466 202.889 156.307 202.305 155.99 201.848C155.672 201.391 155.187 201.162 154.534 201.162C153.955 201.162 153.493 201.349 153.148 201.722C152.802 202.086 152.63 202.567 152.63 203.164V203.892C152.63 204.517 152.798 205.017 153.134 205.39C153.47 205.754 153.936 205.936 154.534 205.936C155.084 205.936 155.509 205.819 155.808 205.586C156.106 205.353 156.368 205.063 156.592 204.718L157.642 205.376C157.324 205.964 156.914 206.407 156.41 206.706C155.915 206.995 155.29 207.14 154.534 207.14ZM160.193 200.168L160.529 202.016V207H159.129V200.168H160.193ZM160.319 202.59L159.983 202.436V201.414L160.109 201.26C160.203 201.092 160.347 200.915 160.543 200.728C160.749 200.532 160.987 200.369 161.257 200.238C161.528 200.098 161.803 200.028 162.083 200.028C162.223 200.028 162.354 200.037 162.475 200.056C162.606 200.075 162.704 200.107 162.769 200.154V201.414H162.335C161.701 201.414 161.239 201.512 160.949 201.708C160.66 201.895 160.45 202.189 160.319 202.59ZM165.304 207H163.904V200.168H165.304V207ZM163.694 198.068C163.694 197.797 163.773 197.578 163.932 197.41C164.1 197.233 164.324 197.144 164.604 197.144C164.874 197.144 165.094 197.233 165.262 197.41C165.43 197.578 165.514 197.797 165.514 198.068C165.514 198.329 165.43 198.549 165.262 198.726C165.094 198.894 164.874 198.978 164.604 198.978C164.324 198.978 164.1 198.894 163.932 198.726C163.773 198.549 163.694 198.329 163.694 198.068ZM169.975 207.14C169.313 207.14 168.729 206.995 168.225 206.706C167.721 206.407 167.329 205.992 167.049 205.46C166.769 204.928 166.629 204.307 166.629 203.598C166.629 202.879 166.769 202.254 167.049 201.722C167.329 201.19 167.721 200.775 168.225 200.476C168.729 200.177 169.313 200.028 169.975 200.028C170.647 200.028 171.235 200.177 171.739 200.476C172.243 200.775 172.635 201.19 172.915 201.722C173.195 202.254 173.335 202.879 173.335 203.598C173.335 203.663 173.331 203.733 173.321 203.808C173.321 203.873 173.317 203.934 173.307 203.99H167.959V202.786H172.299L171.907 203.598C171.907 202.889 171.749 202.305 171.431 201.848C171.114 201.391 170.629 201.162 169.975 201.162C169.397 201.162 168.935 201.349 168.589 201.722C168.244 202.086 168.071 202.567 168.071 203.164V203.892C168.071 204.517 168.239 205.017 168.575 205.39C168.911 205.754 169.378 205.936 169.975 205.936C170.526 205.936 170.951 205.819 171.249 205.586C171.548 205.353 171.809 205.063 172.033 204.718L173.083 205.376C172.766 205.964 172.355 206.407 171.851 206.706C171.357 206.995 170.731 207.14 169.975 207.14ZM176.618 207.14C176.142 207.14 175.671 207.028 175.204 206.804C174.747 206.58 174.369 206.197 174.07 205.656L175.134 204.956C175.396 205.301 175.643 205.553 175.876 205.712C176.11 205.861 176.413 205.936 176.786 205.936C177.085 205.936 177.314 205.861 177.472 205.712C177.64 205.553 177.724 205.362 177.724 205.138C177.724 204.989 177.682 204.858 177.598 204.746C177.524 204.634 177.388 204.531 177.192 204.438C176.996 204.335 176.716 204.237 176.352 204.144C175.68 203.967 175.162 203.733 174.798 203.444C174.434 203.155 174.252 202.697 174.252 202.072C174.252 201.699 174.346 201.358 174.532 201.05C174.719 200.742 174.99 200.495 175.344 200.308C175.699 200.121 176.119 200.028 176.604 200.028C177.183 200.028 177.678 200.149 178.088 200.392C178.499 200.625 178.821 200.905 179.054 201.232L177.976 202.03C177.846 201.862 177.654 201.699 177.402 201.54C177.15 201.372 176.833 201.288 176.45 201.288C176.217 201.288 176.002 201.353 175.806 201.484C175.61 201.615 175.512 201.797 175.512 202.03C175.512 202.263 175.601 202.455 175.778 202.604C175.965 202.744 176.301 202.87 176.786 202.982C177.608 203.178 178.191 203.435 178.536 203.752C178.882 204.06 179.054 204.471 179.054 204.984C179.054 205.432 178.938 205.819 178.704 206.146C178.48 206.463 178.182 206.711 177.808 206.888C177.444 207.056 177.048 207.14 176.618 207.14ZM185.2 207.07C184.957 207.07 184.743 207.014 184.556 206.902C184.369 206.781 184.22 206.608 184.108 206.384C184.005 206.16 183.954 205.885 183.954 205.558V197.466H185.326V205.068C185.326 205.357 185.396 205.553 185.536 205.656C185.685 205.759 185.853 205.81 186.04 205.81V206.93C185.919 206.977 185.788 207.009 185.648 207.028C185.508 207.056 185.359 207.07 185.2 207.07ZM188.761 207H187.361V200.168H188.761V207ZM187.151 198.068C187.151 197.797 187.23 197.578 187.389 197.41C187.557 197.233 187.781 197.144 188.061 197.144C188.332 197.144 188.551 197.233 188.719 197.41C188.887 197.578 188.971 197.797 188.971 198.068C188.971 198.329 188.887 198.549 188.719 198.726C188.551 198.894 188.332 198.978 188.061 198.978C187.781 198.978 187.557 198.894 187.389 198.726C187.23 198.549 187.151 198.329 187.151 198.068ZM192.691 207.14C192.215 207.14 191.744 207.028 191.277 206.804C190.82 206.58 190.442 206.197 190.143 205.656L191.207 204.956C191.468 205.301 191.716 205.553 191.949 205.712C192.182 205.861 192.486 205.936 192.859 205.936C193.158 205.936 193.386 205.861 193.545 205.712C193.713 205.553 193.797 205.362 193.797 205.138C193.797 204.989 193.755 204.858 193.671 204.746C193.596 204.634 193.461 204.531 193.265 204.438C193.069 204.335 192.789 204.237 192.425 204.144C191.753 203.967 191.235 203.733 190.871 203.444C190.507 203.155 190.325 202.697 190.325 202.072C190.325 201.699 190.418 201.358 190.605 201.05C190.792 200.742 191.062 200.495 191.417 200.308C191.772 200.121 192.192 200.028 192.677 200.028C193.256 200.028 193.75 200.149 194.161 200.392C194.572 200.625 194.894 200.905 195.127 201.232L194.049 202.03C193.918 201.862 193.727 201.699 193.475 201.54C193.223 201.372 192.906 201.288 192.523 201.288C192.29 201.288 192.075 201.353 191.879 201.484C191.683 201.615 191.585 201.797 191.585 202.03C191.585 202.263 191.674 202.455 191.851 202.604C192.038 202.744 192.374 202.87 192.859 202.982C193.68 203.178 194.264 203.435 194.609 203.752C194.954 204.06 195.127 204.471 195.127 204.984C195.127 205.432 195.01 205.819 194.777 206.146C194.553 206.463 194.254 206.711 193.881 206.888C193.517 207.056 193.12 207.14 192.691 207.14ZM198.99 207.126C198.392 207.126 197.916 206.953 197.562 206.608C197.216 206.253 197.044 205.707 197.044 204.97V200.252V200.168L197.31 198.628H198.444V204.998C198.444 205.259 198.509 205.455 198.64 205.586C198.78 205.717 198.952 205.782 199.158 205.782C199.316 205.782 199.456 205.773 199.578 205.754C199.699 205.735 199.806 205.712 199.9 205.684V206.986C199.778 207.023 199.643 207.056 199.494 207.084C199.354 207.112 199.186 207.126 198.99 207.126ZM195.994 201.456V200.168H199.9V201.456H195.994ZM203.605 207.14C203.129 207.14 202.658 207.028 202.191 206.804C201.734 206.58 201.356 206.197 201.057 205.656L202.121 204.956C202.382 205.301 202.63 205.553 202.863 205.712C203.096 205.861 203.4 205.936 203.773 205.936C204.072 205.936 204.3 205.861 204.459 205.712C204.627 205.553 204.711 205.362 204.711 205.138C204.711 204.989 204.669 204.858 204.585 204.746C204.51 204.634 204.375 204.531 204.179 204.438C203.983 204.335 203.703 204.237 203.339 204.144C202.667 203.967 202.149 203.733 201.785 203.444C201.421 203.155 201.239 202.697 201.239 202.072C201.239 201.699 201.332 201.358 201.519 201.05C201.706 200.742 201.976 200.495 202.331 200.308C202.686 200.121 203.106 200.028 203.591 200.028C204.17 200.028 204.664 200.149 205.075 200.392C205.486 200.625 205.808 200.905 206.041 201.232L204.963 202.03C204.832 201.862 204.641 201.699 204.389 201.54C204.137 201.372 203.82 201.288 203.437 201.288C203.204 201.288 202.989 201.353 202.793 201.484C202.597 201.615 202.499 201.797 202.499 202.03C202.499 202.263 202.588 202.455 202.765 202.604C202.952 202.744 203.288 202.87 203.773 202.982C204.594 203.178 205.178 203.435 205.523 203.752C205.868 204.06 206.041 204.471 206.041 204.984C206.041 205.432 205.924 205.819 205.691 206.146C205.467 206.463 205.168 206.711 204.795 206.888C204.431 207.056 204.034 207.14 203.605 207.14Z" fill="#40444C"/>
<rect width="40" height="8" rx="4" transform="matrix(1 0 0 -1 272 206)" fill="#EDEEF1"/>
<path d="M325.189 203.333L325.47 200.667H322.667V199.333H325.61L325.96 196H327.301L326.95 199.333H329.61L329.96 196H331.301L330.95 199.333H333.333V200.667H330.81L330.53 203.333H333.333V204.667H330.39L330.04 208H328.699L329.049 204.667H326.39L326.04 208H324.699L325.049 204.667H322.667V203.333H325.189ZM326.53 203.333H329.189L329.47 200.667H326.81L326.53 203.333Z" fill="#FF4B0E"/>
<path d="M16 240.8C16 236.32 16 234.079 16.8719 232.368C17.6389 230.863 18.8628 229.639 20.3681 228.872C22.0794 228 24.3196 228 28.8 228H335.2C339.68 228 341.921 228 343.632 228.872C345.137 229.639 346.361 230.863 347.128 232.368C348 234.079 348 236.32 348 240.8V251.2C348 255.68 348 257.921 347.128 259.632C346.361 261.137 345.137 262.361 343.632 263.128C341.921 264 339.68 264 335.2 264H28.8C24.3196 264 22.0794 264 20.3681 263.128C18.8628 262.361 17.6389 261.137 16.8719 259.632C16 257.921 16 255.68 16 251.2V240.8Z" fill="white"/>
<path d="M29.6665 242.667C30.2188 242.667 30.6665 242.219 30.6665 241.667C30.6665 241.114 30.2188 240.667 29.6665 240.667C29.1142 240.667 28.6665 241.114 28.6665 241.667C28.6665 242.219 29.1142 242.667 29.6665 242.667ZM29.6665 247C30.2188 247 30.6665 246.552 30.6665 246C30.6665 245.448 30.2188 245 29.6665 245C29.1142 245 28.6665 245.448 28.6665 246C28.6665 246.552 29.1142 247 29.6665 247ZM30.6665 250.333C30.6665 250.886 30.2188 251.333 29.6665 251.333C29.1142 251.333 28.6665 250.886 28.6665 250.333C28.6665 249.781 29.1142 249.333 29.6665 249.333C30.2188 249.333 30.6665 249.781 30.6665 250.333ZM34.3332 242.667C34.8854 242.667 35.3332 242.219 35.3332 241.667C35.3332 241.114 34.8854 240.667 34.3332 240.667C33.7809 240.667 33.3332 241.114 33.3332 241.667C33.3332 242.219 33.7809 242.667 34.3332 242.667ZM35.3332 246C35.3332 246.552 34.8854 247 34.3332 247C33.7809 247 33.3332 246.552 33.3332 246C33.3332 245.448 33.7809 245 34.3332 245C34.8854 245 35.3332 245.448 35.3332 246ZM34.3332 251.333C34.8854 251.333 35.3332 250.886 35.3332 250.333C35.3332 249.781 34.8854 249.333 34.3332 249.333C33.7809 249.333 33.3332 249.781 33.3332 250.333C33.3332 250.886 33.7809 251.333 34.3332 251.333Z" fill="black"/>
<path d="M60.0002 252.667C56.3183 252.667 53.3335 249.682 53.3335 246C53.3335 242.318 56.3183 239.333 60.0002 239.333C63.682 239.333 66.6668 242.318 66.6668 246C66.6668 249.682 63.682 252.667 60.0002 252.667ZM59.3352 248.667L64.0493 243.953L63.1065 243.01L59.3352 246.781L57.4496 244.895L56.5068 245.838L59.3352 248.667Z" fill="#FF4B0E"/>
<path d="M76.504 251L78.254 241.466H79.5L82.118 248.424H82.16L84.778 241.466H86.024L87.774 251H86.304L85.534 246.464C85.422 245.811 85.3287 245.167 85.254 244.532C85.1793 243.888 85.1327 243.244 85.114 242.6H85.464C85.296 243.375 85.1187 244.056 84.932 244.644C84.7547 245.232 84.5493 245.839 84.316 246.464L82.678 250.846H81.6L79.962 246.464C79.7287 245.829 79.5187 245.223 79.332 244.644C79.1547 244.056 78.982 243.375 78.814 242.6H79.164C79.1453 243.244 79.0987 243.888 79.024 244.532C78.9493 245.167 78.856 245.811 78.744 246.464L77.974 251H76.504ZM92.1733 251.14C91.4827 251.14 90.8713 250.995 90.3393 250.706C89.8167 250.407 89.4107 249.992 89.1213 249.46C88.832 248.928 88.6873 248.307 88.6873 247.598C88.6873 246.879 88.832 246.254 89.1213 245.722C89.4107 245.19 89.8167 244.775 90.3393 244.476C90.8713 244.177 91.4827 244.028 92.1733 244.028C92.8733 244.028 93.4847 244.177 94.0073 244.476C94.53 244.775 94.936 245.19 95.2253 245.722C95.524 246.254 95.6733 246.879 95.6733 247.598C95.6733 248.307 95.524 248.928 95.2253 249.46C94.936 249.992 94.53 250.407 94.0073 250.706C93.4847 250.995 92.8733 251.14 92.1733 251.14ZM92.1733 249.796C92.7987 249.796 93.298 249.595 93.6713 249.194C94.054 248.783 94.2453 248.251 94.2453 247.598C94.2453 246.935 94.054 246.399 93.6713 245.988C93.298 245.577 92.7987 245.372 92.1733 245.372C91.5573 245.372 91.058 245.577 90.6753 245.988C90.302 246.389 90.1153 246.921 90.1153 247.584C90.1153 248.247 90.302 248.783 90.6753 249.194C91.058 249.595 91.5573 249.796 92.1733 249.796ZM97.9797 244.168L98.3157 246.016V251H96.9157V244.168H97.9797ZM98.1057 246.59L97.7697 246.436V245.414L97.8957 245.26C97.989 245.092 98.1337 244.915 98.3297 244.728C98.535 244.532 98.773 244.369 99.0437 244.238C99.3144 244.098 99.5897 244.028 99.8697 244.028C100.01 244.028 100.14 244.037 100.262 244.056C100.392 244.075 100.49 244.107 100.556 244.154V245.414H100.122C99.487 245.414 99.025 245.512 98.7357 245.708C98.4464 245.895 98.2364 246.189 98.1057 246.59ZM105.568 244.028C106.053 244.028 106.436 244.112 106.716 244.28C106.996 244.439 107.201 244.658 107.332 244.938C107.463 245.209 107.547 245.517 107.584 245.862C107.621 246.207 107.64 246.562 107.64 246.926V251H106.24V246.632C106.24 246.147 106.128 245.82 105.904 245.652C105.689 245.484 105.433 245.4 105.134 245.4C104.835 245.4 104.532 245.461 104.224 245.582C103.916 245.703 103.641 245.867 103.398 246.072C103.155 246.277 102.969 246.506 102.838 246.758V245.974H103.062V251H101.662V244.168H102.726L103.02 245.372L102.67 245.414C102.931 245.115 103.216 244.863 103.524 244.658C103.832 244.453 104.159 244.299 104.504 244.196C104.849 244.084 105.204 244.028 105.568 244.028ZM110.721 251H109.321V244.168H110.721V251ZM109.111 242.068C109.111 241.797 109.19 241.578 109.349 241.41C109.517 241.233 109.741 241.144 110.021 241.144C110.291 241.144 110.511 241.233 110.679 241.41C110.847 241.578 110.931 241.797 110.931 242.068C110.931 242.329 110.847 242.549 110.679 242.726C110.511 242.894 110.291 242.978 110.021 242.978C109.741 242.978 109.517 242.894 109.349 242.726C109.19 242.549 109.111 242.329 109.111 242.068ZM116.373 244.028C116.858 244.028 117.241 244.112 117.521 244.28C117.801 244.439 118.006 244.658 118.137 244.938C118.267 245.209 118.351 245.517 118.389 245.862C118.426 246.207 118.445 246.562 118.445 246.926V251H117.045V246.632C117.045 246.147 116.933 245.82 116.709 245.652C116.494 245.484 116.237 245.4 115.939 245.4C115.64 245.4 115.337 245.461 115.029 245.582C114.721 245.703 114.445 245.867 114.203 246.072C113.96 246.277 113.773 246.506 113.643 246.758V245.974H113.867V251H112.467V244.168H113.531L113.825 245.372L113.475 245.414C113.736 245.115 114.021 244.863 114.329 244.658C114.637 244.453 114.963 244.299 115.309 244.196C115.654 244.084 116.009 244.028 116.373 244.028ZM123.039 253.772C122.647 253.772 122.274 253.716 121.919 253.604C121.574 253.501 121.257 253.329 120.967 253.086C120.687 252.843 120.435 252.521 120.211 252.12L120.113 251.938L121.219 251.336C121.462 251.737 121.719 252.036 121.989 252.232C122.269 252.437 122.619 252.54 123.039 252.54C123.609 252.54 124.057 252.363 124.383 252.008C124.719 251.653 124.887 251.107 124.887 250.37V248.914H125.027V245.54H124.887L125.223 244.168H126.287V250.146C126.287 250.949 126.143 251.621 125.853 252.162C125.573 252.703 125.191 253.105 124.705 253.366C124.22 253.637 123.665 253.772 123.039 253.772ZM122.871 250.58C122.237 250.58 121.677 250.445 121.191 250.174C120.715 249.903 120.342 249.525 120.071 249.04C119.81 248.545 119.679 247.971 119.679 247.318C119.679 246.655 119.81 246.081 120.071 245.596C120.342 245.101 120.715 244.719 121.191 244.448C121.677 244.168 122.237 244.028 122.871 244.028C123.478 244.028 124.005 244.168 124.453 244.448C124.911 244.719 125.265 245.101 125.517 245.596C125.769 246.081 125.895 246.655 125.895 247.318C125.895 247.971 125.769 248.545 125.517 249.04C125.265 249.525 124.911 249.903 124.453 250.174C124.005 250.445 123.478 250.58 122.871 250.58ZM123.039 249.376C123.618 249.376 124.08 249.189 124.425 248.816C124.78 248.433 124.957 247.929 124.957 247.304C124.957 246.679 124.78 246.179 124.425 245.806C124.08 245.423 123.618 245.232 123.039 245.232C122.461 245.232 121.994 245.423 121.639 245.806C121.285 246.189 121.107 246.693 121.107 247.318C121.107 247.934 121.285 248.433 121.639 248.816C121.994 249.189 122.461 249.376 123.039 249.376ZM134.079 251.126C133.481 251.126 133.005 250.953 132.651 250.608C132.305 250.253 132.133 249.707 132.133 248.97V244.252V244.168L132.399 242.628H133.533V248.998C133.533 249.259 133.598 249.455 133.729 249.586C133.869 249.717 134.041 249.782 134.247 249.782C134.405 249.782 134.545 249.773 134.667 249.754C134.788 249.735 134.895 249.712 134.989 249.684V250.986C134.867 251.023 134.732 251.056 134.583 251.084C134.443 251.112 134.275 251.126 134.079 251.126ZM131.083 245.456V244.168H134.989V245.456H131.083ZM139.299 251.14C138.637 251.14 138.053 250.995 137.549 250.706C137.045 250.407 136.653 249.992 136.373 249.46C136.093 248.928 135.953 248.307 135.953 247.598C135.953 246.879 136.093 246.254 136.373 245.722C136.653 245.19 137.045 244.775 137.549 244.476C138.053 244.177 138.637 244.028 139.299 244.028C139.971 244.028 140.559 244.177 141.063 244.476C141.567 244.775 141.959 245.19 142.239 245.722C142.519 246.254 142.659 246.879 142.659 247.598C142.659 247.663 142.655 247.733 142.645 247.808C142.645 247.873 142.641 247.934 142.631 247.99H137.283V246.786H141.623L141.231 247.598C141.231 246.889 141.073 246.305 140.755 245.848C140.438 245.391 139.953 245.162 139.299 245.162C138.721 245.162 138.259 245.349 137.913 245.722C137.568 246.086 137.395 246.567 137.395 247.164V247.892C137.395 248.517 137.563 249.017 137.899 249.39C138.235 249.754 138.702 249.936 139.299 249.936C139.85 249.936 140.275 249.819 140.573 249.586C140.872 249.353 141.133 249.063 141.357 248.718L142.407 249.376C142.09 249.964 141.679 250.407 141.175 250.706C140.681 250.995 140.055 251.14 139.299 251.14ZM146.023 251.196C145.491 251.196 145.033 251.103 144.651 250.916C144.268 250.729 143.974 250.463 143.769 250.118C143.573 249.763 143.475 249.343 143.475 248.858C143.475 248.41 143.577 248.013 143.783 247.668C143.988 247.313 144.282 247.033 144.665 246.828C145.047 246.623 145.5 246.52 146.023 246.52C146.676 246.52 147.199 246.669 147.591 246.968C147.992 247.257 148.272 247.659 148.431 248.172H147.647V246.422C147.647 246.133 147.549 245.867 147.353 245.624C147.157 245.381 146.811 245.26 146.317 245.26C146.055 245.26 145.766 245.293 145.449 245.358C145.141 245.414 144.819 245.517 144.483 245.666L144.063 244.588C144.445 244.401 144.842 244.261 145.253 244.168C145.663 244.075 146.065 244.028 146.457 244.028C147.045 244.028 147.53 244.135 147.913 244.35C148.295 244.565 148.58 244.854 148.767 245.218C148.953 245.573 149.047 245.974 149.047 246.422V251H148.039L147.689 249.754L148.431 249.544C148.263 250.095 147.964 250.51 147.535 250.79C147.105 251.061 146.601 251.196 146.023 251.196ZM146.275 249.95C146.685 249.95 147.017 249.857 147.269 249.67C147.521 249.474 147.647 249.203 147.647 248.858C147.647 248.503 147.521 248.233 147.269 248.046C147.017 247.859 146.685 247.766 146.275 247.766C145.864 247.766 145.533 247.859 145.281 248.046C145.029 248.233 144.903 248.503 144.903 248.858C144.903 249.203 145.029 249.474 145.281 249.67C145.533 249.857 145.864 249.95 146.275 249.95ZM150.705 251V244.168H151.769L152.063 245.372L151.713 245.414C151.965 245.115 152.231 244.863 152.511 244.658C152.791 244.453 153.09 244.299 153.407 244.196C153.725 244.084 154.056 244.028 154.401 244.028C154.887 244.028 155.269 244.112 155.549 244.28C155.829 244.439 156.035 244.658 156.165 244.938C156.296 245.209 156.38 245.517 156.417 245.862C156.455 246.207 156.473 246.562 156.473 246.926V251H155.073V246.632C155.073 246.147 154.961 245.82 154.737 245.652C154.523 245.484 154.266 245.4 153.967 245.4C153.538 245.4 153.127 245.535 152.735 245.806C152.343 246.067 152.059 246.385 151.881 246.758V245.974H152.105V251H150.705ZM159.441 251V246.632C159.441 246.147 159.329 245.82 159.105 245.652C158.891 245.484 158.634 245.4 158.335 245.4C157.906 245.4 157.495 245.535 157.103 245.806C156.711 246.067 156.427 246.385 156.249 246.758L156.081 245.414C156.333 245.115 156.599 244.863 156.879 244.658C157.159 244.453 157.458 244.299 157.775 244.196C158.093 244.084 158.424 244.028 158.769 244.028C159.255 244.028 159.637 244.112 159.917 244.28C160.197 244.439 160.403 244.658 160.533 244.938C160.664 245.209 160.748 245.517 160.785 245.862C160.823 246.207 160.841 246.562 160.841 246.926V251H159.441ZM166.049 251V244.168H167.113L167.407 245.372L167.057 245.414C167.309 245.115 167.575 244.863 167.855 244.658C168.135 244.453 168.434 244.299 168.751 244.196C169.069 244.084 169.4 244.028 169.745 244.028C170.231 244.028 170.613 244.112 170.893 244.28C171.173 244.439 171.379 244.658 171.509 244.938C171.64 245.209 171.724 245.517 171.761 245.862C171.799 246.207 171.817 246.562 171.817 246.926V251H170.417V246.632C170.417 246.147 170.305 245.82 170.081 245.652C169.867 245.484 169.61 245.4 169.311 245.4C168.882 245.4 168.471 245.535 168.079 245.806C167.687 246.067 167.403 246.385 167.225 246.758V245.974H167.449V251H166.049ZM174.785 251V246.632C174.785 246.147 174.673 245.82 174.449 245.652C174.235 245.484 173.978 245.4 173.679 245.4C173.25 245.4 172.839 245.535 172.447 245.806C172.055 246.067 171.771 246.385 171.593 246.758L171.425 245.414C171.677 245.115 171.943 244.863 172.223 244.658C172.503 244.453 172.802 244.299 173.119 244.196C173.437 244.084 173.768 244.028 174.113 244.028C174.599 244.028 174.981 244.112 175.261 244.28C175.541 244.439 175.747 244.658 175.877 244.938C176.008 245.209 176.092 245.517 176.129 245.862C176.167 246.207 176.185 246.562 176.185 246.926V251H174.785ZM180.694 251.14C180.032 251.14 179.448 250.995 178.944 250.706C178.44 250.407 178.048 249.992 177.768 249.46C177.488 248.928 177.348 248.307 177.348 247.598C177.348 246.879 177.488 246.254 177.768 245.722C178.048 245.19 178.44 244.775 178.944 244.476C179.448 244.177 180.032 244.028 180.694 244.028C181.366 244.028 181.954 244.177 182.458 244.476C182.962 244.775 183.354 245.19 183.634 245.722C183.914 246.254 184.054 246.879 184.054 247.598C184.054 247.663 184.05 247.733 184.04 247.808C184.04 247.873 184.036 247.934 184.026 247.99H178.678V246.786H183.018L182.626 247.598C182.626 246.889 182.468 246.305 182.15 245.848C181.833 245.391 181.348 245.162 180.694 245.162C180.116 245.162 179.654 245.349 179.308 245.722C178.963 246.086 178.79 246.567 178.79 247.164V247.892C178.79 248.517 178.958 249.017 179.294 249.39C179.63 249.754 180.097 249.936 180.694 249.936C181.245 249.936 181.67 249.819 181.968 249.586C182.267 249.353 182.528 249.063 182.752 248.718L183.802 249.376C183.485 249.964 183.074 250.407 182.57 250.706C182.076 250.995 181.45 251.14 180.694 251.14ZM188.216 251.14C187.553 251.14 186.97 250.995 186.466 250.706C185.962 250.407 185.57 249.992 185.29 249.46C185.01 248.928 184.87 248.307 184.87 247.598C184.87 246.879 185.01 246.254 185.29 245.722C185.57 245.19 185.962 244.775 186.466 244.476C186.97 244.177 187.553 244.028 188.216 244.028C188.888 244.028 189.476 244.177 189.98 244.476C190.484 244.775 190.876 245.19 191.156 245.722C191.436 246.254 191.576 246.879 191.576 247.598C191.576 247.663 191.571 247.733 191.562 247.808C191.562 247.873 191.557 247.934 191.548 247.99H186.2V246.786H190.54L190.148 247.598C190.148 246.889 189.989 246.305 189.672 245.848C189.354 245.391 188.869 245.162 188.216 245.162C187.637 245.162 187.175 245.349 186.83 245.722C186.484 246.086 186.312 246.567 186.312 247.164V247.892C186.312 248.517 186.48 249.017 186.816 249.39C187.152 249.754 187.618 249.936 188.216 249.936C188.766 249.936 189.191 249.819 189.49 249.586C189.788 249.353 190.05 249.063 190.274 248.718L191.324 249.376C191.006 249.964 190.596 250.407 190.092 250.706C189.597 250.995 188.972 251.14 188.216 251.14ZM195.263 251.126C194.666 251.126 194.19 250.953 193.835 250.608C193.49 250.253 193.317 249.707 193.317 248.97V244.252V244.168L193.583 242.628H194.717V248.998C194.717 249.259 194.782 249.455 194.913 249.586C195.053 249.717 195.226 249.782 195.431 249.782C195.59 249.782 195.73 249.773 195.851 249.754C195.972 249.735 196.08 249.712 196.173 249.684V250.986C196.052 251.023 195.916 251.056 195.767 251.084C195.627 251.112 195.459 251.126 195.263 251.126ZM192.267 245.456V244.168H196.173V245.456H192.267ZM199.122 251H197.722V244.168H199.122V251ZM197.512 242.068C197.512 241.797 197.592 241.578 197.75 241.41C197.918 241.233 198.142 241.144 198.422 241.144C198.693 241.144 198.912 241.233 199.08 241.41C199.248 241.578 199.332 241.797 199.332 242.068C199.332 242.329 199.248 242.549 199.08 242.726C198.912 242.894 198.693 242.978 198.422 242.978C198.142 242.978 197.918 242.894 197.75 242.726C197.592 242.549 197.512 242.329 197.512 242.068ZM204.774 244.028C205.259 244.028 205.642 244.112 205.922 244.28C206.202 244.439 206.407 244.658 206.538 244.938C206.669 245.209 206.753 245.517 206.79 245.862C206.827 246.207 206.846 246.562 206.846 246.926V251H205.446V246.632C205.446 246.147 205.334 245.82 205.11 245.652C204.895 245.484 204.639 245.4 204.34 245.4C204.041 245.4 203.738 245.461 203.43 245.582C203.122 245.703 202.847 245.867 202.604 246.072C202.361 246.277 202.175 246.506 202.044 246.758V245.974H202.268V251H200.868V244.168H201.932L202.226 245.372L201.876 245.414C202.137 245.115 202.422 244.863 202.73 244.658C203.038 244.453 203.365 244.299 203.71 244.196C204.055 244.084 204.41 244.028 204.774 244.028ZM211.441 253.772C211.049 253.772 210.675 253.716 210.321 253.604C209.975 253.501 209.658 253.329 209.369 253.086C209.089 252.843 208.837 252.521 208.613 252.12L208.515 251.938L209.621 251.336C209.863 251.737 210.12 252.036 210.391 252.232C210.671 252.437 211.021 252.54 211.441 252.54C212.01 252.54 212.458 252.363 212.785 252.008C213.121 251.653 213.289 251.107 213.289 250.37V248.914H213.429V245.54H213.289L213.625 244.168H214.689V250.146C214.689 250.949 214.544 251.621 214.255 252.162C213.975 252.703 213.592 253.105 213.107 253.366C212.621 253.637 212.066 253.772 211.441 253.772ZM211.273 250.58C210.638 250.58 210.078 250.445 209.593 250.174C209.117 249.903 208.743 249.525 208.473 249.04C208.211 248.545 208.081 247.971 208.081 247.318C208.081 246.655 208.211 246.081 208.473 245.596C208.743 245.101 209.117 244.719 209.593 244.448C210.078 244.168 210.638 244.028 211.273 244.028C211.879 244.028 212.407 244.168 212.855 244.448C213.312 244.719 213.667 245.101 213.919 245.596C214.171 246.081 214.297 246.655 214.297 247.318C214.297 247.971 214.171 248.545 213.919 249.04C213.667 249.525 213.312 249.903 212.855 250.174C212.407 250.445 211.879 250.58 211.273 250.58ZM211.441 249.376C212.019 249.376 212.481 249.189 212.827 248.816C213.181 248.433 213.359 247.929 213.359 247.304C213.359 246.679 213.181 246.179 212.827 245.806C212.481 245.423 212.019 245.232 211.441 245.232C210.862 245.232 210.395 245.423 210.041 245.806C209.686 246.189 209.509 246.693 209.509 247.318C209.509 247.934 209.686 248.433 210.041 248.816C210.395 249.189 210.862 249.376 211.441 249.376Z" fill="#40444C"/>
<path d="M304.6 242.57L307.428 245.398L300.828 251.998H298V249.169L304.6 242.57ZM305.542 241.627L306.957 240.213C307.217 239.952 307.639 239.952 307.899 240.213L309.785 242.098C310.045 242.359 310.045 242.781 309.785 243.041L308.371 244.455L305.542 241.627Z" fill="black"/>
<path d="M330 241.5C331.197 241.5 332.167 240.53 332.167 239.333H333.167C333.167 240.53 334.137 241.5 335.333 241.5V242.5C334.137 242.5 333.167 243.47 333.167 244.667H332.167C332.167 243.47 331.197 242.5 330 242.5V241.5ZM322.667 242.667C322.667 241.93 323.264 241.333 324 241.333H328.667V240H324C322.527 240 321.333 241.194 321.333 242.667V249.333C321.333 250.806 322.527 252 324 252H332C333.473 252 334.667 250.806 334.667 249.333V246H333.333V249.333C333.333 250.07 332.737 250.667 332 250.667H324C323.264 250.667 322.667 250.07 322.667 249.333V242.667Z" fill="black"/>
<path d="M16 284.8C16 280.32 16 278.079 16.8719 276.368C17.6389 274.863 18.8628 273.639 20.3681 272.872C22.0794 272 24.3196 272 28.8 272H335.2C339.68 272 341.921 272 343.632 272.872C345.137 273.639 346.361 274.863 347.128 276.368C348 278.079 348 280.32 348 284.8V295.2C348 299.68 348 301.921 347.128 303.632C346.361 305.137 345.137 306.361 343.632 307.128C341.921 308 339.68 308 335.2 308H28.8C24.3196 308 22.0794 308 20.3681 307.128C18.8628 306.361 17.6389 305.137 16.8719 303.632C16 301.921 16 299.68 16 295.2V284.8Z" fill="#F7F8F8"/>
<path d="M29.6665 286.667C30.2188 286.667 30.6665 286.219 30.6665 285.667C30.6665 285.114 30.2188 284.667 29.6665 284.667C29.1142 284.667 28.6665 285.114 28.6665 285.667C28.6665 286.219 29.1142 286.667 29.6665 286.667ZM29.6665 291C30.2188 291 30.6665 290.552 30.6665 290C30.6665 289.448 30.2188 289 29.6665 289C29.1142 289 28.6665 289.448 28.6665 290C28.6665 290.552 29.1142 291 29.6665 291ZM30.6665 294.333C30.6665 294.886 30.2188 295.333 29.6665 295.333C29.1142 295.333 28.6665 294.886 28.6665 294.333C28.6665 293.781 29.1142 293.333 29.6665 293.333C30.2188 293.333 30.6665 293.781 30.6665 294.333ZM34.3332 286.667C34.8854 286.667 35.3332 286.219 35.3332 285.667C35.3332 285.114 34.8854 284.667 34.3332 284.667C33.7809 284.667 33.3332 285.114 33.3332 285.667C33.3332 286.219 33.7809 286.667 34.3332 286.667ZM35.3332 290C35.3332 290.552 34.8854 291 34.3332 291C33.7809 291 33.3332 290.552 33.3332 290C33.3332 289.448 33.7809 289 34.3332 289C34.8854 289 35.3332 289.448 35.3332 290ZM34.3332 295.333C34.8854 295.333 35.3332 294.886 35.3332 294.333C35.3332 293.781 34.8854 293.333 34.3332 293.333C33.7809 293.333 33.3332 293.781 33.3332 294.333C33.3332 294.886 33.7809 295.333 34.3332 295.333Z" fill="black"/>
<path d="M60.0002 296.667C56.3183 296.667 53.3335 293.682 53.3335 290C53.3335 286.318 56.3183 283.333 60.0002 283.333C63.682 283.333 66.6668 286.318 66.6668 290C66.6668 293.682 63.682 296.667 60.0002 296.667ZM60.0002 295.333C62.9457 295.333 65.3335 292.946 65.3335 290C65.3335 287.055 62.9457 284.667 60.0002 284.667C57.0546 284.667 54.6668 287.055 54.6668 290C54.6668 292.946 57.0546 295.333 60.0002 295.333Z" fill="black"/>
<path d="M83.966 295L77.806 287.006L78.59 286.782V295H77.19V285.466H78.38L84.33 293.18H83.756V285.466H85.156V295H83.966ZM90.0916 295.14C89.4289 295.14 88.8456 294.995 88.3416 294.706C87.8376 294.407 87.4456 293.992 87.1656 293.46C86.8856 292.928 86.7456 292.307 86.7456 291.598C86.7456 290.879 86.8856 290.254 87.1656 289.722C87.4456 289.19 87.8376 288.775 88.3416 288.476C88.8456 288.177 89.4289 288.028 90.0916 288.028C90.7636 288.028 91.3516 288.177 91.8556 288.476C92.3596 288.775 92.7516 289.19 93.0316 289.722C93.3116 290.254 93.4516 290.879 93.4516 291.598C93.4516 291.663 93.4469 291.733 93.4376 291.808C93.4376 291.873 93.4329 291.934 93.4236 291.99H88.0756V290.786H92.4156L92.0236 291.598C92.0236 290.889 91.8649 290.305 91.5476 289.848C91.2303 289.391 90.7449 289.162 90.0916 289.162C89.5129 289.162 89.0509 289.349 88.7056 289.722C88.3603 290.086 88.1876 290.567 88.1876 291.164V291.892C88.1876 292.517 88.3556 293.017 88.6916 293.39C89.0276 293.754 89.4943 293.936 90.0916 293.936C90.6423 293.936 91.0669 293.819 91.3656 293.586C91.6643 293.353 91.9256 293.063 92.1496 292.718L93.1996 293.376C92.8823 293.964 92.4716 294.407 91.9676 294.706C91.4729 294.995 90.8476 295.14 90.0916 295.14ZM96.1292 295L93.9732 288.168H95.3732L96.7872 293.194H96.6612L98.2572 288.168H99.5312L101.127 293.194H101.001L102.415 288.168H103.815L101.659 295H100.469L98.7752 289.666H99.0132L97.3192 295H96.1292ZM109.805 290.604H111.779C112.395 290.604 112.89 290.436 113.263 290.1C113.636 289.764 113.823 289.297 113.823 288.7C113.823 288.065 113.636 287.589 113.263 287.272C112.899 286.945 112.409 286.782 111.793 286.782H109.805L110.057 286.46V295H108.657V285.466H112.031C112.684 285.466 113.254 285.611 113.739 285.9C114.224 286.189 114.602 286.577 114.873 287.062C115.144 287.547 115.279 288.093 115.279 288.7C115.279 289.297 115.144 289.843 114.873 290.338C114.602 290.823 114.22 291.211 113.725 291.5C113.24 291.78 112.67 291.92 112.017 291.92H109.805V290.604ZM117.441 288.168L117.777 290.016V295H116.377V288.168H117.441ZM117.567 290.59L117.231 290.436V289.414L117.357 289.26C117.45 289.092 117.595 288.915 117.791 288.728C117.996 288.532 118.234 288.369 118.505 288.238C118.776 288.098 119.051 288.028 119.331 288.028C119.471 288.028 119.602 288.037 119.723 288.056C119.854 288.075 119.952 288.107 120.017 288.154V289.414H119.583C118.948 289.414 118.486 289.512 118.197 289.708C117.908 289.895 117.698 290.189 117.567 290.59ZM123.711 295.14C123.02 295.14 122.409 294.995 121.877 294.706C121.354 294.407 120.948 293.992 120.659 293.46C120.37 292.928 120.225 292.307 120.225 291.598C120.225 290.879 120.37 290.254 120.659 289.722C120.948 289.19 121.354 288.775 121.877 288.476C122.409 288.177 123.02 288.028 123.711 288.028C124.411 288.028 125.022 288.177 125.545 288.476C126.068 288.775 126.474 289.19 126.763 289.722C127.062 290.254 127.211 290.879 127.211 291.598C127.211 292.307 127.062 292.928 126.763 293.46C126.474 293.992 126.068 294.407 125.545 294.706C125.022 294.995 124.411 295.14 123.711 295.14ZM123.711 293.796C124.336 293.796 124.836 293.595 125.209 293.194C125.592 292.783 125.783 292.251 125.783 291.598C125.783 290.935 125.592 290.399 125.209 289.988C124.836 289.577 124.336 289.372 123.711 289.372C123.095 289.372 122.596 289.577 122.213 289.988C121.84 290.389 121.653 290.921 121.653 291.584C121.653 292.247 121.84 292.783 122.213 293.194C122.596 293.595 123.095 293.796 123.711 293.796ZM128.466 297.716C128.232 297.716 128.046 297.693 127.906 297.646C127.766 297.609 127.672 297.581 127.626 297.562V296.386C127.672 296.395 127.733 296.409 127.808 296.428C127.882 296.447 127.966 296.456 128.06 296.456C128.246 296.456 128.386 296.395 128.48 296.274C128.573 296.153 128.62 295.989 128.62 295.784V288.168H130.02V295.742C130.02 296.097 129.964 296.423 129.852 296.722C129.749 297.03 129.581 297.273 129.348 297.45C129.124 297.627 128.83 297.716 128.466 297.716ZM128.41 286.068C128.41 285.797 128.489 285.578 128.648 285.41C128.816 285.233 129.04 285.144 129.32 285.144C129.59 285.144 129.81 285.233 129.978 285.41C130.146 285.578 130.23 285.797 130.23 286.068C130.23 286.329 130.146 286.549 129.978 286.726C129.81 286.894 129.59 286.978 129.32 286.978C129.04 286.978 128.816 286.894 128.648 286.726C128.489 286.549 128.41 286.329 128.41 286.068ZM134.676 295.14C134.013 295.14 133.43 294.995 132.926 294.706C132.422 294.407 132.03 293.992 131.75 293.46C131.47 292.928 131.33 292.307 131.33 291.598C131.33 290.879 131.47 290.254 131.75 289.722C132.03 289.19 132.422 288.775 132.926 288.476C133.43 288.177 134.013 288.028 134.676 288.028C135.348 288.028 135.936 288.177 136.44 288.476C136.944 288.775 137.336 289.19 137.616 289.722C137.896 290.254 138.036 290.879 138.036 291.598C138.036 291.663 138.031 291.733 138.022 291.808C138.022 291.873 138.017 291.934 138.008 291.99H132.66V290.786H137L136.608 291.598C136.608 290.889 136.449 290.305 136.132 289.848C135.815 289.391 135.329 289.162 134.676 289.162C134.097 289.162 133.635 289.349 133.29 289.722C132.945 290.086 132.772 290.567 132.772 291.164V291.892C132.772 292.517 132.94 293.017 133.276 293.39C133.612 293.754 134.079 293.936 134.676 293.936C135.227 293.936 135.651 293.819 135.95 293.586C136.249 293.353 136.51 293.063 136.734 292.718L137.784 293.376C137.467 293.964 137.056 294.407 136.552 294.706C136.057 294.995 135.432 295.14 134.676 295.14ZM142.282 295.14C141.582 295.14 140.975 294.991 140.462 294.692C139.948 294.384 139.552 293.964 139.272 293.432C138.992 292.9 138.852 292.284 138.852 291.584C138.852 290.884 138.992 290.268 139.272 289.736C139.552 289.204 139.948 288.789 140.462 288.49C140.975 288.182 141.582 288.028 142.282 288.028C142.944 288.028 143.546 288.21 144.088 288.574C144.629 288.929 145.021 289.405 145.264 290.002L143.934 290.562C143.784 290.17 143.56 289.876 143.262 289.68C142.963 289.475 142.622 289.372 142.24 289.372C141.68 289.372 141.213 289.568 140.84 289.96C140.466 290.343 140.28 290.884 140.28 291.584C140.28 292.284 140.466 292.83 140.84 293.222C141.213 293.605 141.68 293.796 142.24 293.796C142.622 293.796 142.963 293.698 143.262 293.502C143.56 293.297 143.784 292.998 143.934 292.606L145.264 293.166C145.012 293.763 144.615 294.244 144.074 294.608C143.542 294.963 142.944 295.14 142.282 295.14ZM148.835 295.126C148.237 295.126 147.761 294.953 147.407 294.608C147.061 294.253 146.889 293.707 146.889 292.97V288.252V288.168L147.155 286.628H148.289V292.998C148.289 293.259 148.354 293.455 148.485 293.586C148.625 293.717 148.797 293.782 149.003 293.782C149.161 293.782 149.301 293.773 149.423 293.754C149.544 293.735 149.651 293.712 149.745 293.684V294.986C149.623 295.023 149.488 295.056 149.339 295.084C149.199 295.112 149.031 295.126 148.835 295.126ZM145.839 289.456V288.168H149.745V289.456H145.839Z" fill="#40444C"/>
<rect width="40" height="8" rx="4" transform="matrix(1 0 0 -1 272 294)" fill="#EDEEF1"/>
<path d="M325.189 291.333L325.47 288.667H322.667V287.333H325.61L325.96 284H327.301L326.95 287.333H329.61L329.96 284H331.301L330.95 287.333H333.333V288.667H330.81L330.53 291.333H333.333V292.667H330.39L330.04 296H328.699L329.049 292.667H326.39L326.04 296H324.699L325.049 292.667H322.667V291.333H325.189ZM326.53 291.333H329.189L329.47 288.667H326.81L326.53 291.333Z" fill="#FF4B0E"/>
</g>
<defs>
<clipPath id="clip0_530_2610">
<rect width="364" height="296" fill="white"/>
</clipPath>
<clipPath id="clip1_530_2610">
<rect x="16" y="16" width="332" height="160" rx="8" fill="white"/>
</clipPath>
</defs>
</svg>
