<svg width="364" height="296" viewBox="0 0 364 296" fill="none" xmlns="http://www.w3.org/2000/svg">
<path d="M133.805 108.789H86.6625C85.5563 108.789 84.5831 108.067 84.2603 107.008L73.1986 70.4956C72.7097 68.8862 73.9155 67.2578 75.6009 67.2578H121.476C123.337 67.2578 124.975 68.4732 125.516 70.2535L136.207 105.551C136.696 107.165 135.49 108.789 133.805 108.789Z" fill="#FF4B0E" stroke="black" stroke-width="1.5" stroke-miterlimit="10" stroke-linecap="round" stroke-linejoin="round"/>
<path d="M118.522 84.1066C119.206 87.202 117.245 89.7134 114.15 89.7134C111.055 89.7134 107.993 87.2067 107.309 84.1066C106.625 81.0113 108.586 78.5046 111.681 78.5046L110.437 72.8503C104.218 72.8503 100.287 77.8922 101.659 84.1066C103.027 90.3258 109.179 95.3629 115.399 95.3629C121.613 95.3629 125.549 90.3211 124.177 84.1066H118.522Z" fill="white" stroke="black" stroke-width="1.5" stroke-miterlimit="10" stroke-linecap="round" stroke-linejoin="round"/>
<path d="M125.876 85.4975H118.821C117.971 81.6378 114.15 78.5045 110.285 78.5045L108.733 71.4497C116.49 71.4545 124.167 77.7449 125.876 85.4975Z" fill="#C1FF71" stroke="black" stroke-width="1.5" stroke-miterlimit="10" stroke-linecap="round" stroke-linejoin="round"/>
<path d="M79.1372 73.6052H91.6753" stroke="black" stroke-width="1.5" stroke-miterlimit="10" stroke-linecap="round" stroke-linejoin="round"/>
<path d="M80.5381 77.7261H86.8095" stroke="black" stroke-width="1.5" stroke-miterlimit="10" stroke-linecap="round" stroke-linejoin="round"/>
<path d="M189.539 221.774H152.722L143.669 191.884H180.486L189.539 221.774Z" fill="#6153BD" stroke="black" stroke-width="1.5" stroke-miterlimit="10" stroke-linecap="round" stroke-linejoin="round"/>
<path d="M237.845 192.596L235.761 195.99L235.675 196.137C235.296 196.735 234.626 197.144 233.843 197.144H89.0022C88.0479 197.144 87.2029 196.512 86.9228 195.601L60.3986 108.019C60.2277 107.454 60.2942 106.89 60.5363 106.42L60.7404 106.087L62.6394 102.997L63.5842 105.223H207.314C208.273 105.223 209.118 105.845 209.393 106.766L234.892 190.944L237.845 192.596Z" fill="#6153BD" stroke="black" stroke-width="1.5" stroke-miterlimit="10" stroke-linecap="round" stroke-linejoin="round"/>
<path d="M235.936 193.74H91.1004C90.1415 193.74 89.2964 193.113 89.0163 192.192L87.5921 187.483V187.478L62.4922 104.611C62.0696 103.215 63.1141 101.805 64.5716 101.805H209.412C210.371 101.805 211.216 102.432 211.492 103.353L236.967 187.473L238.016 190.929C238.438 192.325 237.399 193.74 235.936 193.74Z" fill="white" stroke="black" stroke-width="1.5" stroke-miterlimit="10" stroke-linecap="round" stroke-linejoin="round"/>
<path d="M235.936 193.74H91.1002C90.1412 193.74 89.2961 193.113 89.016 192.192L87.5918 187.483V187.478H236.966L238.016 190.934C238.438 192.325 237.398 193.74 235.936 193.74Z" fill="#6153BD" stroke="black" stroke-width="1.5" stroke-miterlimit="10" stroke-linecap="round" stroke-linejoin="round"/>
<path d="M146.527 201.312L183.942 203.296L182.081 197.144H145.265L146.527 201.312Z" fill="black" stroke="black" stroke-width="1.5" stroke-miterlimit="10" stroke-linecap="round" stroke-linejoin="round"/>
<path d="M103.726 113.951C104.602 112.933 104.196 111.149 102.821 109.966C101.445 108.783 99.6201 108.649 98.7447 109.667C97.8693 110.684 98.2749 112.469 99.6505 113.652C101.026 114.835 102.851 114.969 103.726 113.951Z" fill="#C1FF71" stroke="black" stroke-width="1.5" stroke-miterlimit="10" stroke-linecap="round" stroke-linejoin="round"/>
<path d="M90.5146 113.955C91.39 112.937 90.9844 111.153 89.6088 109.97C88.2331 108.786 86.4082 108.652 85.5328 109.67C84.6574 110.688 85.063 112.472 86.4386 113.655C87.8143 114.839 89.6392 114.973 90.5146 113.955Z" fill="#6153BD" stroke="black" stroke-width="1.5" stroke-miterlimit="10" stroke-linecap="round" stroke-linejoin="round"/>
<path d="M77.3066 113.955C78.182 112.937 77.7764 111.153 76.4008 109.97C75.0251 108.786 73.2002 108.652 72.3248 109.67C71.4494 110.688 71.8549 112.472 73.2306 113.655C74.6063 114.839 76.4312 114.973 77.3066 113.955Z" fill="white" stroke="black" stroke-width="1.5" stroke-miterlimit="10" stroke-linecap="round" stroke-linejoin="round"/>
<path d="M224.975 227.267V257.821C224.975 267.112 217.446 274.642 208.155 274.642C198.864 274.642 191.334 267.112 191.334 257.821V227.267" stroke="black" stroke-width="1.5" stroke-miterlimit="10" stroke-linecap="round" stroke-linejoin="round"/>
<path d="M195.369 227.267V250.482C195.369 255.547 191.263 259.649 186.202 259.649C181.136 259.649 177.035 255.543 177.035 250.482V227.267" stroke="black" stroke-width="1.5" stroke-miterlimit="10" stroke-linecap="round" stroke-linejoin="round"/>
<path d="M145.384 220.777H211.117C212.907 220.777 214.36 222.23 214.36 224.019C214.36 225.809 212.907 227.262 211.117 227.262H145.384C143.594 227.262 142.141 225.809 142.141 224.019C142.141 222.23 143.594 220.777 145.384 220.777Z" fill="#6153BD" stroke="black" stroke-width="1.5" stroke-miterlimit="10" stroke-linecap="round" stroke-linejoin="round"/>
<path d="M146.836 220.777H137.45C136.211 220.777 135.209 221.779 135.209 223.018V225.026C135.209 226.265 136.211 227.267 137.45 227.267H146.836C148.075 227.267 149.077 226.265 149.077 225.026V223.018C149.077 221.783 148.07 220.777 146.836 220.777Z" fill="white" stroke="black" stroke-width="1.5" stroke-miterlimit="10" stroke-linecap="round" stroke-linejoin="round"/>
<path d="M233.217 214.292C226.305 214.292 220.698 219.894 220.698 226.811V227.267H245.731V226.811C245.731 219.894 240.129 214.292 233.217 214.292Z" fill="#6153BD" stroke="black" stroke-width="1.5" stroke-miterlimit="10" stroke-linecap="round" stroke-linejoin="round"/>
<path d="M233.996 218.052C234.784 217.834 235.103 216.496 234.707 215.062C234.312 213.629 233.352 212.644 232.563 212.862C231.775 213.079 231.456 214.418 231.852 215.851C232.247 217.284 233.207 218.269 233.996 218.052Z" fill="white" stroke="black" stroke-width="1.5" stroke-miterlimit="10" stroke-linecap="round" stroke-linejoin="round"/>
<path d="M154.067 152.708H214.104C215.276 152.708 216.088 151.601 215.751 150.467L204.637 113.171C204.4 112.368 203.654 111.808 202.828 111.808H141.201C140.029 111.808 139.217 112.914 139.554 114.049L150.207 149.802C150.72 151.511 152.31 152.708 154.067 152.708Z" stroke="black" stroke-width="1.5" stroke-miterlimit="10" stroke-linecap="round" stroke-linejoin="round"/>
<path d="M155.415 143.303H160.509" stroke="black" stroke-width="1.5" stroke-miterlimit="10" stroke-linecap="round" stroke-linejoin="round"/>
<path d="M156.583 147.519H169.824" stroke="black" stroke-width="1.5" stroke-miterlimit="10" stroke-linecap="round" stroke-linejoin="round"/>
<path d="M152.063 128.049L153.122 131.591" stroke="black" stroke-width="1.5" stroke-miterlimit="10" stroke-linecap="round" stroke-linejoin="round"/>
<path d="M154.964 122.186L157.77 131.591" stroke="black" stroke-width="1.5" stroke-miterlimit="10" stroke-linecap="round" stroke-linejoin="round"/>
<path d="M160.343 124.636L162.418 131.591" stroke="black" stroke-width="1.5" stroke-miterlimit="10" stroke-linecap="round" stroke-linejoin="round"/>
<path d="M163.229 118.725L167.065 131.591" stroke="black" stroke-width="1.5" stroke-miterlimit="10" stroke-linecap="round" stroke-linejoin="round"/>
<path d="M167.051 115.938L171.713 131.591" stroke="black" stroke-width="1.5" stroke-miterlimit="10" stroke-linecap="round" stroke-linejoin="round"/>
<path d="M251.899 199.779H257.529L269.973 223.616C270.841 225.277 269.635 227.267 267.76 227.267C266.83 227.267 265.98 226.749 265.548 225.928L251.899 199.779Z" fill="#C1FF71" stroke="black" stroke-width="1.5" stroke-miterlimit="10" stroke-linecap="round" stroke-linejoin="round"/>
<path d="M251.899 203.14C251.899 203.14 253.822 210.812 255.896 211.007C257.971 211.201 263.146 208.728 263.492 207.394C263.996 205.457 259.637 199.261 259.637 199.261L251.899 203.14Z" fill="#6153BD" stroke="black" stroke-width="1.5" stroke-miterlimit="10" stroke-linecap="round" stroke-linejoin="round"/>
<path d="M258.123 197.524C257.62 198.003 257.031 198.298 256.343 198.412C257.449 196.788 258.104 193.854 257.074 189.686C254.999 181.23 247.75 174.622 242.542 173.976C241.915 173.9 241.393 173.915 240.961 174C241.151 173.71 241.364 173.468 241.578 173.264C242.11 172.766 243.036 172.125 244.935 172.357C250.143 173.003 257.392 179.612 259.476 188.067C260.668 192.961 259.562 196.166 258.123 197.524Z" fill="black" stroke="black" stroke-width="1.5" stroke-miterlimit="10" stroke-linecap="round" stroke-linejoin="round"/>
<path d="M263.335 188.133C260.938 178.377 252.354 169.651 244.165 168.64C235.98 167.629 231.29 174.707 233.687 184.463C236.085 194.215 244.664 202.95 252.858 203.961C261.042 204.977 265.738 197.889 263.335 188.133ZM256.789 198.431C255.944 199.228 254.875 199.518 253.432 199.342C248.224 198.696 240.97 192.083 238.895 183.628C237.694 178.738 238.8 175.538 240.239 174.176C240.771 173.677 241.696 173.036 243.595 173.269C248.803 173.915 256.053 180.523 258.137 188.978C259.333 193.868 258.227 197.068 256.789 198.431Z" fill="#C1FF71" stroke="black" stroke-width="1.5" stroke-miterlimit="10" stroke-linecap="round" stroke-linejoin="round"/>
<path d="M306.366 245.388C302.938 234.597 292.921 227.267 281.598 227.267H80.0586C68.7359 227.267 58.7187 234.597 55.291 245.388" stroke="black" stroke-width="1.5" stroke-miterlimit="10" stroke-linecap="round" stroke-linejoin="round"/>
<path d="M314.641 146.868H188.353C185.647 146.868 183.264 145.097 182.48 142.51L157.323 59.4482C156.668 57.2929 158.282 55.1185 160.537 55.1185H286.825C289.531 55.1185 291.914 56.8893 292.698 59.4767L317.855 142.539C318.505 144.694 316.891 146.868 314.641 146.868Z" fill="#C1FF71" stroke="black" stroke-width="1.5" stroke-miterlimit="10" stroke-linecap="round" stroke-linejoin="round"/>
<path d="M237.661 135.664H224.937L216.966 109.259L217.745 107.749L229.69 109.259L238.439 134.154L237.661 135.664Z" fill="#6153BD" stroke="black" stroke-width="1.5" stroke-miterlimit="10" stroke-linecap="round" stroke-linejoin="round"/>
<path d="M260.112 135.664H247.389L234.988 94.5938L235.767 93.0841L247.712 94.5938L260.891 134.155L260.112 135.664Z" fill="#6153BD" stroke="black" stroke-width="1.5" stroke-miterlimit="10" stroke-linecap="round" stroke-linejoin="round"/>
<path d="M282.557 135.664H269.839L258.022 96.5402L258.806 95.0305L270.746 96.5402L283.341 134.154L282.557 135.664Z" fill="#6153BD" stroke="black" stroke-width="1.5" stroke-miterlimit="10" stroke-linecap="round" stroke-linejoin="round"/>
<path d="M305.009 135.664H292.285L276.861 84.5669L277.639 83.0573L289.579 84.5669L305.787 134.154L305.009 135.664Z" fill="#6153BD" stroke="black" stroke-width="1.5" stroke-miterlimit="10" stroke-linecap="round" stroke-linejoin="round"/>
<path d="M238.439 134.154H225.721L217.745 107.749H230.468L238.439 134.154Z" fill="white" stroke="black" stroke-width="1.5" stroke-miterlimit="10" stroke-linecap="round" stroke-linejoin="round"/>
<path d="M260.89 134.155H248.167L235.767 93.0841H248.49L260.89 134.155Z" fill="white" stroke="black" stroke-width="1.5" stroke-miterlimit="10" stroke-linecap="round" stroke-linejoin="round"/>
<path d="M283.341 134.154H270.617L258.806 95.0305H271.524L283.341 134.154Z" fill="white" stroke="black" stroke-width="1.5" stroke-miterlimit="10" stroke-linecap="round" stroke-linejoin="round"/>
<path d="M305.787 134.154H293.068L277.639 83.0573H290.362L305.787 134.154Z" fill="white" stroke="black" stroke-width="1.5" stroke-miterlimit="10" stroke-linecap="round" stroke-linejoin="round"/>
<path d="M279.072 66.427H270.669" stroke="black" stroke-width="1.5" stroke-miterlimit="10" stroke-linecap="round" stroke-linejoin="round"/>
<path d="M174.666 66.427H179.409" stroke="black" stroke-width="1.5" stroke-miterlimit="10" stroke-linecap="round" stroke-linejoin="round"/>
<path d="M176.395 76.1879H202.415" stroke="black" stroke-width="1.5" stroke-miterlimit="10" stroke-linecap="round" stroke-linejoin="round"/>
<path d="M192.877 83.2805H209.935" stroke="black" stroke-width="1.5" stroke-miterlimit="10" stroke-linecap="round" stroke-linejoin="round"/>
<path d="M178.389 83.2805H187.115" stroke="black" stroke-width="1.5" stroke-miterlimit="10" stroke-linecap="round" stroke-linejoin="round"/>
<path d="M211.578 90.3779H220.19" stroke="black" stroke-width="1.5" stroke-miterlimit="10" stroke-linecap="round" stroke-linejoin="round"/>
<path d="M180.377 90.3779H205.71" stroke="black" stroke-width="1.5" stroke-miterlimit="10" stroke-linecap="round" stroke-linejoin="round"/>
<path d="M142.588 176.986H68.1949C66.6805 176.986 65.3465 175.994 64.9097 174.546L51.612 130.646C51.1847 129.236 52.2387 127.817 53.7104 127.817H128.103C129.618 127.817 130.952 128.809 131.389 130.257L144.686 174.157C145.109 175.567 144.055 176.986 142.588 176.986Z" fill="#6153BD" stroke="black" stroke-width="1.5" stroke-miterlimit="10" stroke-linecap="round" stroke-linejoin="round"/>
<path d="M78.587 159.145C71.9358 159.145 65.1422 153.648 63.4188 146.868C61.8284 140.635 65.0662 135.489 70.7632 134.696L75.4584 146.868H87.498C89.2214 153.648 85.2335 159.145 78.587 159.145Z" stroke="black" stroke-width="1.5" stroke-miterlimit="10" stroke-linecap="round" stroke-linejoin="round"/>
<path d="M87.4936 146.863H75.454L70.7588 134.691C71.262 134.62 71.7842 134.586 72.3207 134.586C78.9719 134.586 85.7656 140.084 87.4936 146.863Z" fill="#FF4B0E" stroke="black" stroke-width="1.5" stroke-miterlimit="10" stroke-linecap="round" stroke-linejoin="round"/>
<path d="M136.032 170.976H106.374" stroke="black" stroke-width="1.5" stroke-miterlimit="10" stroke-linecap="round" stroke-linejoin="round"/>
<path d="M136.032 170.976L130.406 152.404" stroke="black" stroke-width="1.5" stroke-miterlimit="10" stroke-linecap="round" stroke-linejoin="round"/>
<path d="M127.752 170.976L124.666 160.788" stroke="black" stroke-width="1.5" stroke-miterlimit="10" stroke-linecap="round" stroke-linejoin="round"/>
<path d="M119.473 170.976L115.618 158.243" stroke="black" stroke-width="1.5" stroke-miterlimit="10" stroke-linecap="round" stroke-linejoin="round"/>
<path d="M111.193 170.976L109.987 166.993" stroke="black" stroke-width="1.5" stroke-miterlimit="10" stroke-linecap="round" stroke-linejoin="round"/>
<path d="M108.506 159.33L111.815 153.239C112.498 151.981 113.951 151.35 115.333 151.711L121.281 153.254C122.767 153.638 124.31 152.883 124.923 151.478L128.122 144.096" stroke="black" stroke-width="1.5" stroke-miterlimit="10" stroke-linecap="round" stroke-linejoin="round"/>
<path d="M122.8 134.06H108.942" stroke="black" stroke-width="1.5" stroke-miterlimit="10" stroke-linecap="round" stroke-linejoin="round"/>
<path d="M123.935 138.066H119.434" stroke="black" stroke-width="1.5" stroke-miterlimit="10" stroke-linecap="round" stroke-linejoin="round"/>
<path d="M70.8774 167.13H85.8035" stroke="black" stroke-width="1.5" stroke-miterlimit="10" stroke-linecap="round" stroke-linejoin="round"/>
<path d="M72.5962 170.838H80.401" stroke="black" stroke-width="1.5" stroke-miterlimit="10" stroke-linecap="round" stroke-linejoin="round"/>
<path d="M168.437 60.2458H137.37C136.206 60.2458 135.181 59.4862 134.844 58.3705L128.933 38.8536C128.421 37.1588 129.688 35.4497 131.459 35.4497H162.526C163.69 35.4497 164.715 36.2093 165.052 37.325L170.963 56.8418C171.48 58.5367 170.208 60.2458 168.437 60.2458Z" fill="white" stroke="black" stroke-width="1.5" stroke-miterlimit="10" stroke-linecap="round" stroke-linejoin="round"/>
<path d="M129.484 36.3422L149.95 47.8501L163.974 35.8817" stroke="black" stroke-width="1.5" stroke-miterlimit="10" stroke-linecap="round" stroke-linejoin="round"/>
<path d="M135.784 59.7141L145.696 45.4574" stroke="black" stroke-width="1.5" stroke-miterlimit="10" stroke-linecap="round" stroke-linejoin="round"/>
<path d="M154.484 43.981L170.668 59.0162" stroke="black" stroke-width="1.5" stroke-miterlimit="10" stroke-linecap="round" stroke-linejoin="round"/>
<path d="M72.0162 39.993L67.4633 41.8778C64.4439 43.1264 62.0892 45.5903 60.9783 48.6619L59.3024 53.2955L57.4177 48.7426C56.1691 45.7232 53.7052 43.3685 50.6335 42.2576L46 40.5817L50.5528 38.697C53.5722 37.4484 55.927 34.9844 57.0379 31.9128L58.7137 27.2793L60.5985 31.8321C61.8471 34.8515 64.311 37.2063 67.3826 38.3172L72.0162 39.993Z" stroke="black" stroke-width="1.5" stroke-miterlimit="10" stroke-linecap="round" stroke-linejoin="round"/>
<path d="M288.752 30.4316L285.776 31.5853C283.801 32.3496 282.239 33.9115 281.474 35.8865L280.321 38.8632L279.167 35.8865C278.403 33.9115 276.841 32.3496 274.866 31.5853L271.889 30.4316L274.866 29.278C276.841 28.5137 278.403 26.9517 279.167 24.9768L280.321 22.0001L281.474 24.9768C282.239 26.9517 283.801 28.5137 285.776 29.278L288.752 30.4316Z" stroke="black" stroke-width="1.5" stroke-miterlimit="10" stroke-linecap="round" stroke-linejoin="round"/>
<path d="M126.854 261.653L124.239 262.868C122.506 263.675 121.191 265.171 120.616 266.998L119.752 269.747L118.537 267.131C117.73 265.398 116.234 264.083 114.407 263.509L111.658 262.645L114.274 261.43C116.006 260.622 117.321 259.127 117.896 257.299L118.76 254.55L119.975 257.166C120.782 258.899 122.278 260.214 124.106 260.789L126.854 261.653Z" stroke="black" stroke-width="1.5" stroke-miterlimit="10" stroke-linecap="round" stroke-linejoin="round"/>
<path d="M238.804 41.8636H228.123" stroke="black" stroke-width="1.5" stroke-miterlimit="10" stroke-linecap="round" stroke-linejoin="round"/>
<path d="M248.1 41.8638H244.146" stroke="black" stroke-width="1.5" stroke-miterlimit="10" stroke-linecap="round" stroke-linejoin="round"/>
<path d="M286.469 178.577H277.601" stroke="black" stroke-width="1.5" stroke-miterlimit="10" stroke-linecap="round" stroke-linejoin="round"/>
<path d="M294.183 178.577H290.903" stroke="black" stroke-width="1.5" stroke-miterlimit="10" stroke-linecap="round" stroke-linejoin="round"/>
<path d="M270.679 252.082H262.12" stroke="black" stroke-width="1.5" stroke-miterlimit="10" stroke-linecap="round" stroke-linejoin="round"/>
<path d="M266.402 256.364V247.8" stroke="black" stroke-width="1.5" stroke-miterlimit="10" stroke-linecap="round" stroke-linejoin="round"/>
<path d="M60.3042 208.087H51.7397" stroke="black" stroke-width="1.5" stroke-miterlimit="10" stroke-linecap="round" stroke-linejoin="round"/>
<path d="M56.0215 212.369V203.809" stroke="black" stroke-width="1.5" stroke-miterlimit="10" stroke-linecap="round" stroke-linejoin="round"/>
<path d="M194.785 177.741H218.257C219.895 177.741 221.034 176.198 220.564 174.608L216.833 161.961C216.377 160.413 214.939 159.33 213.343 159.33H189.867C188.229 159.33 187.09 160.873 187.56 162.464L191.291 175.111C191.752 176.659 193.19 177.741 194.785 177.741Z" fill="#FF4B0E" stroke="black" stroke-width="1.5" stroke-miterlimit="10" stroke-linecap="round" stroke-linejoin="round"/>
<path d="M194.03 165.882H205.989" stroke="black" stroke-width="1.5" stroke-miterlimit="10" stroke-linecap="round" stroke-linejoin="round"/>
<path d="M195.83 170.093H204.917" stroke="black" stroke-width="1.5" stroke-miterlimit="10" stroke-linecap="round" stroke-linejoin="round"/>
<path d="M24 220.8C24 216.32 24 214.079 24.8719 212.368C25.6389 210.863 26.8628 209.639 28.3681 208.872C30.0794 208 32.3196 208 36.8 208H165.2C169.68 208 171.921 208 173.632 208.872C175.137 209.639 176.361 210.863 177.128 212.368C178 214.079 178 216.32 178 220.8V259.2C178 263.68 178 265.921 177.128 267.632C176.361 269.137 175.137 270.361 173.632 271.128C171.921 272 169.68 272 165.2 272H36.8C32.3196 272 30.0794 272 28.3681 271.128C26.8628 270.361 25.6389 269.137 24.8719 267.632C24 265.921 24 263.68 24 259.2V220.8Z" fill="white"/>
<path d="M38.676 228V220.728H39.876V228H38.676ZM36.12 220.956V219.828H42.552V220.956H36.12ZM44.1818 228.168C43.7258 228.168 43.3338 228.088 43.0058 227.928C42.6778 227.768 42.4258 227.54 42.2498 227.244C42.0818 226.94 41.9978 226.58 41.9978 226.164C41.9978 225.78 42.0858 225.44 42.2618 225.144C42.4378 224.84 42.6898 224.6 43.0178 224.424C43.3458 224.248 43.7338 224.16 44.1818 224.16C44.7418 224.16 45.1898 224.288 45.5258 224.544C45.8698 224.792 46.1098 225.136 46.2458 225.576H45.5738V224.076C45.5738 223.828 45.4898 223.6 45.3218 223.392C45.1538 223.184 44.8578 223.08 44.4338 223.08C44.2098 223.08 43.9618 223.108 43.6898 223.164C43.4258 223.212 43.1498 223.3 42.8618 223.428L42.5018 222.504C42.8298 222.344 43.1698 222.224 43.5218 222.144C43.8738 222.064 44.2178 222.024 44.5538 222.024C45.0578 222.024 45.4738 222.116 45.8018 222.3C46.1298 222.484 46.3738 222.732 46.5338 223.044C46.6938 223.348 46.7738 223.692 46.7738 224.076V228H45.9098L45.6098 226.932L46.2458 226.752C46.1018 227.224 45.8458 227.58 45.4778 227.82C45.1098 228.052 44.6778 228.168 44.1818 228.168ZM44.3978 227.1C44.7498 227.1 45.0338 227.02 45.2498 226.86C45.4658 226.692 45.5738 226.46 45.5738 226.164C45.5738 225.86 45.4658 225.628 45.2498 225.468C45.0338 225.308 44.7498 225.228 44.3978 225.228C44.0458 225.228 43.7618 225.308 43.5458 225.468C43.3298 225.628 43.2218 225.86 43.2218 226.164C43.2218 226.46 43.3298 226.692 43.5458 226.86C43.7618 227.02 44.0458 227.1 44.3978 227.1ZM50.0775 228.12C49.6695 228.12 49.2655 228.024 48.8655 227.832C48.4735 227.64 48.1495 227.312 47.8935 226.848L48.8055 226.248C49.0295 226.544 49.2415 226.76 49.4415 226.896C49.6415 227.024 49.9015 227.088 50.2215 227.088C50.4775 227.088 50.6735 227.024 50.8095 226.896C50.9535 226.76 51.0255 226.596 51.0255 226.404C51.0255 226.276 50.9895 226.164 50.9175 226.068C50.8535 225.972 50.7375 225.884 50.5695 225.804C50.4015 225.716 50.1615 225.632 49.8495 225.552C49.2735 225.4 48.8295 225.2 48.5175 224.952C48.2055 224.704 48.0495 224.312 48.0495 223.776C48.0495 223.456 48.1295 223.164 48.2895 222.9C48.4495 222.636 48.6815 222.424 48.9855 222.264C49.2895 222.104 49.6495 222.024 50.0655 222.024C50.5615 222.024 50.9855 222.128 51.3375 222.336C51.6895 222.536 51.9655 222.776 52.1655 223.056L51.2415 223.74C51.1295 223.596 50.9655 223.456 50.7495 223.32C50.5335 223.176 50.2615 223.104 49.9335 223.104C49.7335 223.104 49.5495 223.16 49.3815 223.272C49.2135 223.384 49.1295 223.54 49.1295 223.74C49.1295 223.94 49.2055 224.104 49.3575 224.232C49.5175 224.352 49.8055 224.46 50.2215 224.556C50.9255 224.724 51.4255 224.944 51.7215 225.216C52.0175 225.48 52.1655 225.832 52.1655 226.272C52.1655 226.656 52.0655 226.988 51.8655 227.268C51.6735 227.54 51.4175 227.752 51.0975 227.904C50.7855 228.048 50.4455 228.12 50.0775 228.12ZM54.2732 225.048V224.88L56.8172 222.144H58.2332L55.3772 225.276L55.2692 224.484L58.2572 228H56.8172L54.2732 225.048ZM53.3852 219.828H54.5612V228H53.3852V219.828ZM60.5423 228.12C60.1343 228.12 59.7303 228.024 59.3303 227.832C58.9383 227.64 58.6143 227.312 58.3583 226.848L59.2703 226.248C59.4943 226.544 59.7063 226.76 59.9063 226.896C60.1063 227.024 60.3663 227.088 60.6863 227.088C60.9423 227.088 61.1383 227.024 61.2743 226.896C61.4183 226.76 61.4903 226.596 61.4903 226.404C61.4903 226.276 61.4543 226.164 61.3823 226.068C61.3183 225.972 61.2023 225.884 61.0343 225.804C60.8663 225.716 60.6263 225.632 60.3143 225.552C59.7383 225.4 59.2943 225.2 58.9823 224.952C58.6703 224.704 58.5143 224.312 58.5143 223.776C58.5143 223.456 58.5943 223.164 58.7543 222.9C58.9143 222.636 59.1463 222.424 59.4503 222.264C59.7543 222.104 60.1143 222.024 60.5303 222.024C61.0263 222.024 61.4503 222.128 61.8023 222.336C62.1543 222.536 62.4303 222.776 62.6303 223.056L61.7063 223.74C61.5943 223.596 61.4303 223.456 61.2143 223.32C60.9983 223.176 60.7263 223.104 60.3983 223.104C60.1983 223.104 60.0143 223.16 59.8463 223.272C59.6783 223.384 59.5943 223.54 59.5943 223.74C59.5943 223.94 59.6703 224.104 59.8223 224.232C59.9823 224.352 60.2703 224.46 60.6863 224.556C61.3903 224.724 61.8903 224.944 62.1863 225.216C62.4823 225.48 62.6303 225.832 62.6303 226.272C62.6303 226.656 62.5303 226.988 62.3303 227.268C62.1383 227.54 61.8823 227.752 61.5623 227.904C61.2503 228.048 60.9103 228.12 60.5423 228.12Z" fill="#5B616E"/>
<rect width="32" height="6" rx="3" transform="matrix(1 0 0 -1 124 227)" fill="#EDEEF1"/>
<path d="M160.595 224.667L160.735 223.333H159.333V222.667H160.805L160.98 221H161.651L161.475 222.667H162.805L162.98 221H163.651L163.475 222.667H164.667V223.333H163.405L163.265 224.667H164.667V225.333H163.195L163.02 227H162.35L162.525 225.333H161.195L161.02 227H160.35L160.525 225.333H159.333V224.667H160.595ZM161.265 224.667H162.595L162.735 223.333H161.405L161.265 224.667Z" fill="#FF4B0E"/>
<path d="M131 247.5C132.197 247.5 133.167 246.53 133.167 245.333H134.167C134.167 246.53 135.137 247.5 136.333 247.5V248.5C135.137 248.5 134.167 249.47 134.167 250.667H133.167C133.167 249.47 132.197 248.5 131 248.5V247.5ZM123.667 248.667C123.667 247.93 124.264 247.333 125 247.333H129.667V246H125C123.527 246 122.333 247.194 122.333 248.667V255.333C122.333 256.806 123.527 258 125 258H133C134.473 258 135.667 256.806 135.667 255.333V252H134.333V255.333C134.333 256.07 133.737 256.667 133 256.667H125C124.264 256.667 123.667 256.07 123.667 255.333V248.667Z" fill="#FF4B0E"/>
<path d="M152.763 247.904C152.763 248.56 152.667 249.2 152.475 249.824C152.283 250.448 151.979 251.088 151.563 251.744C151.147 252.4 150.611 253.096 149.955 253.832L145.611 258.824L145.419 257.36H153.027V260H143.019V257.696L147.435 252.704C148.091 251.952 148.603 251.32 148.971 250.808C149.355 250.296 149.619 249.832 149.763 249.416C149.923 249 150.003 248.592 150.003 248.192C150.003 247.52 149.803 247.008 149.403 246.656C149.003 246.288 148.539 246.104 148.011 246.104C147.451 246.104 146.899 246.272 146.355 246.608C145.811 246.944 145.235 247.536 144.627 248.384L142.611 246.92C143.075 246.168 143.571 245.528 144.099 245C144.643 244.472 145.235 244.08 145.875 243.824C146.515 243.552 147.219 243.416 147.987 243.416C148.979 243.416 149.827 243.616 150.531 244.016C151.251 244.4 151.803 244.936 152.187 245.624C152.571 246.296 152.763 247.056 152.763 247.904ZM163.157 249.392V260H160.325V254.312L159.893 253.448L161.429 249.392H163.157ZM153.365 256.016V254.312L157.493 243.656H160.301L156.125 254.648L155.693 253.328H165.413V256.016H153.365Z" fill="black"/>
<path d="M186 220.8C186 216.32 186 214.079 186.872 212.368C187.639 210.863 188.863 209.639 190.368 208.872C192.079 208 194.32 208 198.8 208H327.2C331.68 208 333.921 208 335.632 208.872C337.137 209.639 338.361 210.863 339.128 212.368C340 214.079 340 216.32 340 220.8V259.2C340 263.68 340 265.921 339.128 267.632C338.361 269.137 337.137 270.361 335.632 271.128C333.921 272 331.68 272 327.2 272H198.8C194.32 272 192.079 272 190.368 271.128C188.863 270.361 187.639 269.137 186.872 267.632C186 265.921 186 263.68 186 259.2V220.8Z" fill="white"/>
<path d="M200.004 224.232H201.696C202.224 224.232 202.648 224.088 202.968 223.8C203.288 223.512 203.448 223.112 203.448 222.6C203.448 222.056 203.288 221.648 202.968 221.376C202.656 221.096 202.236 220.956 201.708 220.956H200.004L200.22 220.68V228H199.02V219.828H201.912C202.472 219.828 202.96 219.952 203.376 220.2C203.792 220.448 204.116 220.78 204.348 221.196C204.58 221.612 204.696 222.08 204.696 222.6C204.696 223.112 204.58 223.58 204.348 224.004C204.116 224.42 203.788 224.752 203.364 225C202.948 225.24 202.46 225.36 201.9 225.36H200.004V224.232ZM206.618 222.144L206.906 223.728V228H205.706V222.144H206.618ZM206.726 224.22L206.438 224.088V223.212L206.546 223.08C206.626 222.936 206.75 222.784 206.918 222.624C207.094 222.456 207.298 222.316 207.53 222.204C207.762 222.084 207.998 222.024 208.238 222.024C208.358 222.024 208.47 222.032 208.574 222.048C208.686 222.064 208.77 222.092 208.826 222.132V223.212H208.454C207.91 223.212 207.514 223.296 207.266 223.464C207.018 223.624 206.838 223.876 206.726 224.22ZM212.06 228.12C211.468 228.12 210.944 227.996 210.488 227.748C210.04 227.492 209.692 227.136 209.444 226.68C209.196 226.224 209.072 225.692 209.072 225.084C209.072 224.468 209.196 223.932 209.444 223.476C209.692 223.02 210.04 222.664 210.488 222.408C210.944 222.152 211.468 222.024 212.06 222.024C212.66 222.024 213.184 222.152 213.632 222.408C214.08 222.664 214.428 223.02 214.676 223.476C214.932 223.932 215.06 224.468 215.06 225.084C215.06 225.692 214.932 226.224 214.676 226.68C214.428 227.136 214.08 227.492 213.632 227.748C213.184 227.996 212.66 228.12 212.06 228.12ZM212.06 226.968C212.596 226.968 213.024 226.796 213.344 226.452C213.672 226.1 213.836 225.644 213.836 225.084C213.836 224.516 213.672 224.056 213.344 223.704C213.024 223.352 212.596 223.176 212.06 223.176C211.532 223.176 211.104 223.352 210.776 223.704C210.456 224.048 210.296 224.504 210.296 225.072C210.296 225.64 210.456 226.1 210.776 226.452C211.104 226.796 211.532 226.968 212.06 226.968ZM216.204 230.328C216.004 230.328 215.844 230.308 215.724 230.268C215.604 230.236 215.524 230.212 215.484 230.196V229.188C215.524 229.196 215.576 229.208 215.64 229.224C215.704 229.24 215.776 229.248 215.856 229.248C216.016 229.248 216.136 229.196 216.216 229.092C216.296 228.988 216.336 228.848 216.336 228.672V222.144H217.536V228.636C217.536 228.94 217.488 229.22 217.392 229.476C217.304 229.74 217.16 229.948 216.96 230.1C216.768 230.252 216.516 230.328 216.204 230.328ZM216.156 220.344C216.156 220.112 216.224 219.924 216.36 219.78C216.504 219.628 216.696 219.552 216.936 219.552C217.168 219.552 217.356 219.628 217.5 219.78C217.644 219.924 217.716 220.112 217.716 220.344C217.716 220.568 217.644 220.756 217.5 220.908C217.356 221.052 217.168 221.124 216.936 221.124C216.696 221.124 216.504 221.052 216.36 220.908C216.224 220.756 216.156 220.568 216.156 220.344ZM221.596 228.12C221.028 228.12 220.528 227.996 220.096 227.748C219.664 227.492 219.328 227.136 219.088 226.68C218.848 226.224 218.728 225.692 218.728 225.084C218.728 224.468 218.848 223.932 219.088 223.476C219.328 223.02 219.664 222.664 220.096 222.408C220.528 222.152 221.028 222.024 221.596 222.024C222.172 222.024 222.676 222.152 223.108 222.408C223.54 222.664 223.876 223.02 224.116 223.476C224.356 223.932 224.476 224.468 224.476 225.084C224.476 225.14 224.472 225.2 224.464 225.264C224.464 225.32 224.46 225.372 224.452 225.42H219.868V224.388H223.588L223.252 225.084C223.252 224.476 223.116 223.976 222.844 223.584C222.572 223.192 222.156 222.996 221.596 222.996C221.1 222.996 220.704 223.156 220.408 223.476C220.112 223.788 219.964 224.2 219.964 224.712V225.336C219.964 225.872 220.108 226.3 220.396 226.62C220.684 226.932 221.084 227.088 221.596 227.088C222.068 227.088 222.432 226.988 222.688 226.788C222.944 226.588 223.168 226.34 223.36 226.044L224.26 226.608C223.988 227.112 223.636 227.492 223.204 227.748C222.78 227.996 222.244 228.12 221.596 228.12ZM228.184 228.12C227.584 228.12 227.064 227.992 226.624 227.736C226.184 227.472 225.844 227.112 225.604 226.656C225.364 226.2 225.244 225.672 225.244 225.072C225.244 224.472 225.364 223.944 225.604 223.488C225.844 223.032 226.184 222.676 226.624 222.42C227.064 222.156 227.584 222.024 228.184 222.024C228.752 222.024 229.268 222.18 229.732 222.492C230.196 222.796 230.532 223.204 230.74 223.716L229.6 224.196C229.472 223.86 229.28 223.608 229.024 223.44C228.768 223.264 228.476 223.176 228.148 223.176C227.668 223.176 227.268 223.344 226.948 223.68C226.628 224.008 226.468 224.472 226.468 225.072C226.468 225.672 226.628 226.14 226.948 226.476C227.268 226.804 227.668 226.968 228.148 226.968C228.476 226.968 228.768 226.884 229.024 226.716C229.28 226.54 229.472 226.284 229.6 225.948L230.74 226.428C230.524 226.94 230.184 227.352 229.72 227.664C229.264 227.968 228.752 228.12 228.184 228.12ZM233.869 228.108C233.357 228.108 232.949 227.96 232.645 227.664C232.349 227.36 232.201 226.892 232.201 226.26V222.216V222.144L232.429 220.824H233.401V226.284C233.401 226.508 233.457 226.676 233.569 226.788C233.689 226.9 233.837 226.956 234.013 226.956C234.149 226.956 234.269 226.948 234.373 226.932C234.477 226.916 234.569 226.896 234.649 226.872V227.988C234.545 228.02 234.429 228.048 234.301 228.072C234.181 228.096 234.037 228.108 233.869 228.108ZM231.301 223.248V222.144H234.649V223.248H231.301ZM237.894 228.12C237.486 228.12 237.082 228.024 236.682 227.832C236.29 227.64 235.966 227.312 235.71 226.848L236.622 226.248C236.846 226.544 237.058 226.76 237.258 226.896C237.458 227.024 237.718 227.088 238.038 227.088C238.294 227.088 238.49 227.024 238.626 226.896C238.77 226.76 238.842 226.596 238.842 226.404C238.842 226.276 238.806 226.164 238.734 226.068C238.67 225.972 238.554 225.884 238.386 225.804C238.218 225.716 237.978 225.632 237.666 225.552C237.09 225.4 236.646 225.2 236.334 224.952C236.022 224.704 235.866 224.312 235.866 223.776C235.866 223.456 235.946 223.164 236.106 222.9C236.266 222.636 236.498 222.424 236.802 222.264C237.106 222.104 237.466 222.024 237.882 222.024C238.378 222.024 238.802 222.128 239.154 222.336C239.506 222.536 239.782 222.776 239.982 223.056L239.058 223.74C238.946 223.596 238.782 223.456 238.566 223.32C238.35 223.176 238.078 223.104 237.75 223.104C237.55 223.104 237.366 223.16 237.198 223.272C237.03 223.384 236.946 223.54 236.946 223.74C236.946 223.94 237.022 224.104 237.174 224.232C237.334 224.352 237.622 224.46 238.038 224.556C238.742 224.724 239.242 224.944 239.538 225.216C239.834 225.48 239.982 225.832 239.982 226.272C239.982 226.656 239.882 226.988 239.682 227.268C239.49 227.54 239.234 227.752 238.914 227.904C238.602 228.048 238.262 228.12 237.894 228.12Z" fill="#5B616E"/>
<rect width="32" height="6" rx="3" transform="matrix(1 0 0 -1 286 227)" fill="#EDEEF1"/>
<path d="M322.595 224.667L322.735 223.333H321.333V222.667H322.805L322.98 221H323.651L323.475 222.667H324.805L324.98 221H325.651L325.475 222.667H326.667V223.333H325.405L325.265 224.667H326.667V225.333H325.195L325.02 227H324.35L324.525 225.333H323.195L323.02 227H322.35L322.525 225.333H321.333V224.667H322.595ZM323.265 224.667H324.595L324.735 223.333H323.405L323.265 224.667Z" fill="#FF4B0E"/>
<path d="M303.943 247.333H308.333C308.702 247.333 309 247.632 309 248V248.667H297V246.667C297 246.298 297.298 246 297.667 246H302.609L303.943 247.333ZM297.058 250H308.942C309.31 250 309.609 250.298 309.609 250.667C309.609 250.685 309.608 250.704 309.606 250.722L309.051 257.389C309.022 257.734 308.733 258 308.387 258H297.613C297.267 258 296.978 257.734 296.949 257.389L296.393 250.722C296.363 250.355 296.636 250.033 297.002 250.002C297.021 250.001 297.039 250 297.058 250Z" fill="#6153BD"/>
<path d="M321.933 260.264C320.717 260.264 319.677 260.056 318.813 259.64C317.949 259.208 317.149 258.552 316.413 257.672L318.189 255.896C318.733 256.472 319.277 256.896 319.821 257.168C320.365 257.44 320.973 257.576 321.645 257.576C322.573 257.576 323.277 257.352 323.757 256.904C324.237 256.44 324.477 255.864 324.477 255.176C324.477 254.504 324.309 253.984 323.973 253.616C323.653 253.232 323.221 252.96 322.677 252.8C322.133 252.624 321.525 252.536 320.853 252.536C320.661 252.536 320.453 252.544 320.229 252.56C320.021 252.56 319.829 252.576 319.653 252.608V250.16C319.925 250.176 320.117 250.192 320.229 250.208C320.357 250.208 320.509 250.208 320.685 250.208C321.693 250.208 322.469 250.016 323.013 249.632C323.557 249.232 323.829 248.696 323.829 248.024C323.829 247.416 323.637 246.944 323.253 246.608C322.869 246.272 322.333 246.104 321.645 246.104C321.021 246.104 320.453 246.24 319.941 246.512C319.445 246.784 318.957 247.2 318.477 247.76L316.677 246.032C317.509 245.088 318.325 244.416 319.125 244.016C319.925 243.616 320.853 243.416 321.909 243.416C322.869 243.416 323.701 243.6 324.405 243.968C325.109 244.32 325.645 244.824 326.013 245.48C326.397 246.12 326.589 246.872 326.589 247.736C326.589 249.048 326.101 250.104 325.125 250.904C324.165 251.704 322.861 252.104 321.213 252.104V250.616C322.381 250.616 323.421 250.792 324.333 251.144C325.245 251.496 325.965 252.024 326.493 252.728C327.021 253.432 327.285 254.312 327.285 255.368C327.285 256.248 327.077 257.064 326.661 257.816C326.245 258.552 325.637 259.144 324.837 259.592C324.037 260.04 323.069 260.264 321.933 260.264Z" fill="black"/>
</svg>
