<svg width="364" height="296" viewBox="0 0 364 296" fill="none" xmlns="http://www.w3.org/2000/svg">
<g clip-path="url(#clip0_530_2796)">
<g clip-path="url(#clip1_530_2796)">
<rect x="45.5" y="36" width="273" height="540" rx="44.7891" fill="#F7F8F8"/>
<rect x="45.5" y="36" width="273" height="540" rx="44.7891" stroke="url(#paint0_linear_530_2796)" stroke-width="6"/>
<path d="M65.003 174.174H66.272C66.668 174.174 66.986 174.066 67.226 173.85C67.466 173.634 67.586 173.334 67.586 172.95C67.586 172.542 67.466 172.236 67.226 172.032C66.992 171.822 66.677 171.717 66.281 171.717H65.003L65.165 171.51V177H64.265V170.871H66.434C66.854 170.871 67.22 170.964 67.532 171.15C67.844 171.336 68.087 171.585 68.261 171.897C68.435 172.209 68.522 172.56 68.522 172.95C68.522 173.334 68.435 173.685 68.261 174.003C68.087 174.315 67.841 174.564 67.523 174.75C67.211 174.93 66.845 175.02 66.425 175.02H65.003V174.174ZM69.9631 172.608L70.1791 173.796V177H69.2791V172.608H69.9631ZM70.0441 174.165L69.8281 174.066V173.409L69.9091 173.31C69.9691 173.202 70.0621 173.088 70.1881 172.968C70.3201 172.842 70.4731 172.737 70.6471 172.653C70.8211 172.563 70.9981 172.518 71.1781 172.518C71.2681 172.518 71.3521 172.524 71.4301 172.536C71.5141 172.548 71.5771 172.569 71.6191 172.599V173.409H71.3401C70.9321 173.409 70.6351 173.472 70.4491 173.598C70.2631 173.718 70.1281 173.907 70.0441 174.165ZM74.0453 177.09C73.6013 177.09 73.2083 176.997 72.8663 176.811C72.5303 176.619 72.2693 176.352 72.0833 176.01C71.8973 175.668 71.8043 175.269 71.8043 174.813C71.8043 174.351 71.8973 173.949 72.0833 173.607C72.2693 173.265 72.5303 172.998 72.8663 172.806C73.2083 172.614 73.6013 172.518 74.0453 172.518C74.4953 172.518 74.8883 172.614 75.2243 172.806C75.5603 172.998 75.8213 173.265 76.0073 173.607C76.1993 173.949 76.2953 174.351 76.2953 174.813C76.2953 175.269 76.1993 175.668 76.0073 176.01C75.8213 176.352 75.5603 176.619 75.2243 176.811C74.8883 176.997 74.4953 177.09 74.0453 177.09ZM74.0453 176.226C74.4473 176.226 74.7683 176.097 75.0083 175.839C75.2543 175.575 75.3773 175.233 75.3773 174.813C75.3773 174.387 75.2543 174.042 75.0083 173.778C74.7683 173.514 74.4473 173.382 74.0453 173.382C73.6493 173.382 73.3283 173.514 73.0823 173.778C72.8423 174.036 72.7223 174.378 72.7223 174.804C72.7223 175.23 72.8423 175.575 73.0823 175.839C73.3283 176.097 73.6493 176.226 74.0453 176.226ZM77.1533 178.746C77.0033 178.746 76.8833 178.731 76.7933 178.701C76.7033 178.677 76.6433 178.659 76.6133 178.647V177.891C76.6433 177.897 76.6823 177.906 76.7303 177.918C76.7783 177.93 76.8323 177.936 76.8923 177.936C77.0123 177.936 77.1023 177.897 77.1623 177.819C77.2223 177.741 77.2523 177.636 77.2523 177.504V172.608H78.1523V177.477C78.1523 177.705 78.1163 177.915 78.0443 178.107C77.9783 178.305 77.8703 178.461 77.7203 178.575C77.5763 178.689 77.3873 178.746 77.1533 178.746ZM77.1173 171.258C77.1173 171.084 77.1683 170.943 77.2703 170.835C77.3783 170.721 77.5223 170.664 77.7023 170.664C77.8763 170.664 78.0173 170.721 78.1253 170.835C78.2333 170.943 78.2873 171.084 78.2873 171.258C78.2873 171.426 78.2333 171.567 78.1253 171.681C78.0173 171.789 77.8763 171.843 77.7023 171.843C77.5223 171.843 77.3783 171.789 77.2703 171.681C77.1683 171.567 77.1173 171.426 77.1173 171.258ZM81.1972 177.09C80.7712 177.09 80.3962 176.997 80.0722 176.811C79.7482 176.619 79.4962 176.352 79.3162 176.01C79.1362 175.668 79.0462 175.269 79.0462 174.813C79.0462 174.351 79.1362 173.949 79.3162 173.607C79.4962 173.265 79.7482 172.998 80.0722 172.806C80.3962 172.614 80.7712 172.518 81.1972 172.518C81.6292 172.518 82.0072 172.614 82.3312 172.806C82.6552 172.998 82.9072 173.265 83.0872 173.607C83.2672 173.949 83.3572 174.351 83.3572 174.813C83.3572 174.855 83.3542 174.9 83.3482 174.948C83.3482 174.99 83.3452 175.029 83.3392 175.065H79.9012V174.291H82.6912L82.4392 174.813C82.4392 174.357 82.3372 173.982 82.1332 173.688C81.9292 173.394 81.6172 173.247 81.1972 173.247C80.8252 173.247 80.5282 173.367 80.3062 173.607C80.0842 173.841 79.9732 174.15 79.9732 174.534V175.002C79.9732 175.404 80.0812 175.725 80.2972 175.965C80.5132 176.199 80.8132 176.316 81.1972 176.316C81.5512 176.316 81.8242 176.241 82.0162 176.091C82.2082 175.941 82.3762 175.755 82.5202 175.533L83.1952 175.956C82.9912 176.334 82.7272 176.619 82.4032 176.811C82.0852 176.997 81.6832 177.09 81.1972 177.09ZM86.138 177.09C85.688 177.09 85.298 176.994 84.968 176.802C84.638 176.604 84.383 176.334 84.203 175.992C84.023 175.65 83.933 175.254 83.933 174.804C83.933 174.354 84.023 173.958 84.203 173.616C84.383 173.274 84.638 173.007 84.968 172.815C85.298 172.617 85.688 172.518 86.138 172.518C86.564 172.518 86.951 172.635 87.299 172.869C87.647 173.097 87.899 173.403 88.055 173.787L87.2 174.147C87.104 173.895 86.96 173.706 86.768 173.58C86.576 173.448 86.357 173.382 86.111 173.382C85.751 173.382 85.451 173.508 85.211 173.76C84.971 174.006 84.851 174.354 84.851 174.804C84.851 175.254 84.971 175.605 85.211 175.857C85.451 176.103 85.751 176.226 86.111 176.226C86.357 176.226 86.576 176.163 86.768 176.037C86.96 175.905 87.104 175.713 87.2 175.461L88.055 175.821C87.893 176.205 87.638 176.514 87.29 176.748C86.948 176.976 86.564 177.09 86.138 177.09ZM90.4021 177.081C90.0181 177.081 89.7121 176.97 89.4841 176.748C89.2621 176.52 89.1511 176.169 89.1511 175.695V172.662V172.608L89.3221 171.618H90.0511V175.713C90.0511 175.881 90.0931 176.007 90.1771 176.091C90.2671 176.175 90.3781 176.217 90.5101 176.217C90.6121 176.217 90.7021 176.211 90.7801 176.199C90.8581 176.187 90.9271 176.172 90.9871 176.154V176.991C90.9091 177.015 90.8221 177.036 90.7261 177.054C90.6361 177.072 90.5281 177.081 90.4021 177.081ZM88.4761 173.436V172.608H90.9871V173.436H88.4761ZM95.2903 174.102C95.2903 174.888 95.4283 175.584 95.7043 176.19C95.9803 176.79 96.3643 177.339 96.8563 177.837L96.2173 178.404C95.8693 178.08 95.5573 177.708 95.2813 177.288C95.0053 176.868 94.7863 176.394 94.6243 175.866C94.4683 175.338 94.3903 174.75 94.3903 174.102C94.3903 173.454 94.4683 172.866 94.6243 172.338C94.7863 171.81 95.0053 171.336 95.2813 170.916C95.5573 170.49 95.8693 170.118 96.2173 169.8L96.8563 170.367C96.3643 170.865 95.9803 171.417 95.7043 172.023C95.4283 172.623 95.2903 173.316 95.2903 174.102ZM99.1836 177.09C98.7456 177.09 98.3706 177.015 98.0586 176.865C97.7526 176.715 97.4676 176.484 97.2036 176.172L97.7796 175.578C97.9896 175.8 98.1966 175.965 98.4006 176.073C98.6106 176.175 98.8416 176.226 99.0936 176.226C99.4716 176.226 99.7536 176.133 99.9396 175.947C100.132 175.755 100.228 175.515 100.228 175.227C100.228 174.939 100.159 174.717 100.021 174.561C99.8886 174.399 99.7116 174.285 99.4896 174.219C99.2676 174.153 99.0246 174.12 98.7606 174.12C98.6886 174.12 98.6106 174.123 98.5266 174.129C98.4486 174.129 98.3826 174.132 98.3286 174.138V173.346C98.4306 173.352 98.4996 173.355 98.5356 173.355C98.5776 173.355 98.6316 173.355 98.6976 173.355C99.1056 173.355 99.4206 173.274 99.6426 173.112C99.8706 172.95 99.9846 172.728 99.9846 172.446C99.9846 172.2 99.9066 172.008 99.7506 171.87C99.5946 171.726 99.3756 171.654 99.0936 171.654C98.8536 171.654 98.6376 171.705 98.4456 171.807C98.2596 171.903 98.0736 172.059 97.8876 172.275L97.3116 171.726C97.6116 171.384 97.9026 171.144 98.1846 171.006C98.4726 170.862 98.8056 170.79 99.1836 170.79C99.5256 170.79 99.8226 170.856 100.075 170.988C100.333 171.12 100.531 171.306 100.669 171.546C100.807 171.786 100.876 172.068 100.876 172.392C100.876 172.884 100.693 173.28 100.327 173.58C99.9666 173.874 99.4836 174.021 98.8776 174.021V173.472C99.2976 173.472 99.6786 173.538 100.021 173.67C100.363 173.802 100.633 174 100.831 174.264C101.035 174.528 101.137 174.861 101.137 175.263C101.137 175.587 101.059 175.89 100.903 176.172C100.753 176.448 100.531 176.67 100.237 176.838C99.9486 177.006 99.5976 177.09 99.1836 177.09ZM103.045 174.102C103.045 173.316 102.907 172.623 102.631 172.023C102.355 171.417 101.971 170.865 101.479 170.367L102.118 169.8C102.466 170.118 102.778 170.49 103.054 170.916C103.33 171.336 103.546 171.81 103.702 172.338C103.864 172.866 103.945 173.454 103.945 174.102C103.945 174.75 103.864 175.338 103.702 175.866C103.546 176.394 103.33 176.868 103.054 177.288C102.778 177.708 102.466 178.08 102.118 178.404L101.479 177.837C101.971 177.339 102.355 176.79 102.631 176.19C102.907 175.584 103.045 174.888 103.045 174.102Z" fill="#8E95A2"/>
<path d="M73.75 194C74.1642 194 74.5 193.664 74.5 193.25C74.5 192.836 74.1642 192.5 73.75 192.5C73.3358 192.5 73 192.836 73 193.25C73 193.664 73.3358 194 73.75 194ZM73.75 197.25C74.1642 197.25 74.5 196.914 74.5 196.5C74.5 196.086 74.1642 195.75 73.75 195.75C73.3358 195.75 73 196.086 73 196.5C73 196.914 73.3358 197.25 73.75 197.25ZM74.5 199.75C74.5 200.164 74.1642 200.5 73.75 200.5C73.3358 200.5 73 200.164 73 199.75C73 199.336 73.3358 199 73.75 199C74.1642 199 74.5 199.336 74.5 199.75ZM77.25 194C77.6642 194 78 193.664 78 193.25C78 192.836 77.6642 192.5 77.25 192.5C76.8358 192.5 76.5 192.836 76.5 193.25C76.5 193.664 76.8358 194 77.25 194ZM78 196.5C78 196.914 77.6642 197.25 77.25 197.25C76.8358 197.25 76.5 196.914 76.5 196.5C76.5 196.086 76.8358 195.75 77.25 195.75C77.6642 195.75 78 196.086 78 196.5ZM77.25 200.5C77.6642 200.5 78 200.164 78 199.75C78 199.336 77.6642 199 77.25 199C76.8358 199 76.5 199.336 76.5 199.75C76.5 200.164 76.8358 200.5 77.25 200.5Z" fill="black"/>
<path d="M96.5 201.5C93.7386 201.5 91.5 199.261 91.5 196.5C91.5 193.739 93.7386 191.5 96.5 191.5C99.2614 191.5 101.5 193.739 101.5 196.5C101.5 199.261 99.2614 201.5 96.5 201.5ZM96.5 200.5C98.7092 200.5 100.5 198.709 100.5 196.5C100.5 194.291 98.7092 192.5 96.5 192.5C94.2909 192.5 92.5 194.291 92.5 196.5C92.5 198.709 94.2909 200.5 96.5 200.5Z" fill="black"/>
<path d="M115.262 200L113.299 193.626L113.057 192.849H114.086L116.092 199.475L115.63 199.37L117.373 192.849H118.433L116.491 200H115.262ZM110.653 200L108.71 192.849H109.771L111.514 199.37L111.052 199.475L113.057 192.849H114.086L113.845 193.626L111.881 200H110.653ZM121.027 200.105C120.53 200.105 120.093 199.996 119.715 199.779C119.337 199.555 119.043 199.244 118.833 198.845C118.623 198.446 118.518 197.98 118.518 197.448C118.518 196.909 118.623 196.44 118.833 196.041C119.043 195.642 119.337 195.331 119.715 195.107C120.093 194.883 120.53 194.771 121.027 194.771C121.531 194.771 121.972 194.883 122.35 195.107C122.728 195.331 123.022 195.642 123.232 196.041C123.442 196.44 123.547 196.909 123.547 197.448C123.547 197.497 123.544 197.55 123.537 197.606C123.537 197.655 123.533 197.7 123.526 197.742H119.515V196.839H122.77L122.476 197.448C122.476 196.916 122.357 196.479 122.119 196.136C121.881 195.793 121.517 195.621 121.027 195.621C120.593 195.621 120.247 195.761 119.988 196.041C119.729 196.314 119.599 196.675 119.599 197.123V197.669C119.599 198.138 119.725 198.512 119.977 198.792C120.229 199.065 120.579 199.202 121.027 199.202C121.44 199.202 121.759 199.114 121.983 198.939C122.207 198.764 122.403 198.547 122.571 198.288L123.358 198.782C123.12 199.223 122.812 199.555 122.434 199.779C122.063 199.996 121.594 200.105 121.027 200.105ZM126.668 200.105C126.171 200.105 125.734 199.996 125.356 199.779C124.978 199.555 124.684 199.244 124.474 198.845C124.264 198.446 124.159 197.98 124.159 197.448C124.159 196.909 124.264 196.44 124.474 196.041C124.684 195.642 124.978 195.331 125.356 195.107C125.734 194.883 126.171 194.771 126.668 194.771C127.172 194.771 127.613 194.883 127.991 195.107C128.369 195.331 128.663 195.642 128.873 196.041C129.083 196.44 129.188 196.909 129.188 197.448C129.188 197.497 129.185 197.55 129.178 197.606C129.178 197.655 129.174 197.7 129.167 197.742H125.156V196.839H128.411L128.117 197.448C128.117 196.916 127.998 196.479 127.76 196.136C127.522 195.793 127.158 195.621 126.668 195.621C126.234 195.621 125.888 195.761 125.629 196.041C125.37 196.314 125.24 196.675 125.24 197.123V197.669C125.24 198.138 125.366 198.512 125.618 198.792C125.87 199.065 126.22 199.202 126.668 199.202C127.081 199.202 127.4 199.114 127.624 198.939C127.848 198.764 128.044 198.547 128.212 198.288L128.999 198.782C128.761 199.223 128.453 199.555 128.075 199.779C127.704 199.996 127.235 200.105 126.668 200.105ZM130.892 197.417V197.27L133.118 194.876H134.357L131.858 197.616L131.764 196.923L134.378 200H133.118L130.892 197.417ZM130.115 192.849H131.144V200H130.115V192.849ZM135.819 200.053C135.637 200.053 135.476 200.011 135.336 199.926C135.196 199.835 135.084 199.706 135 199.538C134.923 199.37 134.885 199.163 134.885 198.918V192.849H135.914V198.551C135.914 198.768 135.966 198.915 136.071 198.992C136.183 199.069 136.309 199.107 136.449 199.107V199.947C136.358 199.982 136.26 200.007 136.155 200.021C136.05 200.042 135.938 200.053 135.819 200.053ZM138.726 199.349L136.699 194.876H137.802L139.597 198.834L138.726 199.349ZM137.382 201.995L140.616 194.876H141.718L138.484 201.995H137.382ZM147.349 202.079C147.055 202.079 146.775 202.037 146.509 201.953C146.25 201.876 146.012 201.747 145.795 201.565C145.585 201.383 145.396 201.141 145.228 200.84L145.155 200.704L145.984 200.252C146.166 200.553 146.359 200.777 146.562 200.924C146.772 201.078 147.034 201.155 147.349 201.155C147.776 201.155 148.112 201.022 148.357 200.756C148.609 200.49 148.735 200.081 148.735 199.527V198.435H148.84V195.905H148.735L148.987 194.876H149.785V199.359C149.785 199.961 149.677 200.466 149.46 200.872C149.25 201.278 148.963 201.579 148.599 201.775C148.235 201.978 147.818 202.079 147.349 202.079ZM147.223 199.685C146.747 199.685 146.327 199.583 145.963 199.38C145.606 199.177 145.326 198.894 145.123 198.53C144.927 198.159 144.829 197.728 144.829 197.238C144.829 196.741 144.927 196.311 145.123 195.947C145.326 195.576 145.606 195.289 145.963 195.086C146.327 194.876 146.747 194.771 147.223 194.771C147.678 194.771 148.074 194.876 148.41 195.086C148.753 195.289 149.019 195.576 149.208 195.947C149.397 196.311 149.491 196.741 149.491 197.238C149.491 197.728 149.397 198.159 149.208 198.53C149.019 198.894 148.753 199.177 148.41 199.38C148.074 199.583 147.678 199.685 147.223 199.685ZM147.349 198.782C147.783 198.782 148.13 198.642 148.389 198.362C148.655 198.075 148.788 197.697 148.788 197.228C148.788 196.759 148.655 196.384 148.389 196.104C148.13 195.817 147.783 195.674 147.349 195.674C146.915 195.674 146.565 195.817 146.299 196.104C146.033 196.391 145.9 196.769 145.9 197.238C145.9 197.7 146.033 198.075 146.299 198.362C146.565 198.642 146.915 198.782 147.349 198.782ZM151.869 194.876L152.121 196.262V200H151.071V194.876H151.869ZM151.964 196.692L151.712 196.577V195.81L151.806 195.695C151.876 195.569 151.985 195.436 152.132 195.296C152.286 195.149 152.464 195.026 152.667 194.928C152.87 194.823 153.077 194.771 153.287 194.771C153.392 194.771 153.49 194.778 153.581 194.792C153.679 194.806 153.752 194.83 153.801 194.865V195.81H153.476C153 195.81 152.653 195.884 152.436 196.031C152.219 196.171 152.062 196.391 151.964 196.692ZM156.572 200.105C156.054 200.105 155.595 199.996 155.196 199.779C154.804 199.555 154.5 199.244 154.283 198.845C154.066 198.446 153.957 197.98 153.957 197.448C153.957 196.909 154.066 196.44 154.283 196.041C154.5 195.642 154.804 195.331 155.196 195.107C155.595 194.883 156.054 194.771 156.572 194.771C157.097 194.771 157.555 194.883 157.947 195.107C158.339 195.331 158.644 195.642 158.861 196.041C159.085 196.44 159.197 196.909 159.197 197.448C159.197 197.98 159.085 198.446 158.861 198.845C158.644 199.244 158.339 199.555 157.947 199.779C157.555 199.996 157.097 200.105 156.572 200.105ZM156.572 199.097C157.041 199.097 157.415 198.946 157.695 198.645C157.982 198.337 158.126 197.938 158.126 197.448C158.126 196.951 157.982 196.549 157.695 196.241C157.415 195.933 157.041 195.779 156.572 195.779C156.11 195.779 155.735 195.933 155.448 196.241C155.168 196.542 155.028 196.941 155.028 197.438C155.028 197.935 155.168 198.337 155.448 198.645C155.735 198.946 156.11 199.097 156.572 199.097ZM162.232 200.105C161.707 200.105 161.252 199.993 160.867 199.769C160.482 199.538 160.185 199.223 159.975 198.824C159.765 198.425 159.66 197.963 159.66 197.438C159.66 196.913 159.765 196.451 159.975 196.052C160.185 195.653 160.482 195.341 160.867 195.117C161.252 194.886 161.707 194.771 162.232 194.771C162.729 194.771 163.181 194.907 163.587 195.18C163.993 195.446 164.287 195.803 164.469 196.251L163.471 196.671C163.359 196.377 163.191 196.157 162.967 196.01C162.743 195.856 162.488 195.779 162.201 195.779C161.781 195.779 161.431 195.926 161.151 196.22C160.871 196.507 160.731 196.913 160.731 197.438C160.731 197.963 160.871 198.372 161.151 198.666C161.431 198.953 161.781 199.097 162.201 199.097C162.488 199.097 162.743 199.023 162.967 198.876C163.191 198.722 163.359 198.498 163.471 198.204L164.469 198.624C164.28 199.072 163.982 199.433 163.576 199.706C163.177 199.972 162.729 200.105 162.232 200.105ZM167.4 200.105C166.903 200.105 166.466 199.996 166.088 199.779C165.71 199.555 165.416 199.244 165.206 198.845C164.996 198.446 164.891 197.98 164.891 197.448C164.891 196.909 164.996 196.44 165.206 196.041C165.416 195.642 165.71 195.331 166.088 195.107C166.466 194.883 166.903 194.771 167.4 194.771C167.904 194.771 168.345 194.883 168.723 195.107C169.101 195.331 169.395 195.642 169.605 196.041C169.815 196.44 169.92 196.909 169.92 197.448C169.92 197.497 169.917 197.55 169.91 197.606C169.91 197.655 169.906 197.7 169.899 197.742H165.888V196.839H169.143L168.849 197.448C168.849 196.916 168.73 196.479 168.492 196.136C168.254 195.793 167.89 195.621 167.4 195.621C166.966 195.621 166.62 195.761 166.361 196.041C166.102 196.314 165.972 196.675 165.972 197.123V197.669C165.972 198.138 166.098 198.512 166.35 198.792C166.602 199.065 166.952 199.202 167.4 199.202C167.813 199.202 168.132 199.114 168.356 198.939C168.58 198.764 168.776 198.547 168.944 198.288L169.731 198.782C169.493 199.223 169.185 199.555 168.807 199.779C168.436 199.996 167.967 200.105 167.4 200.105ZM171.645 194.876L171.897 196.262V200H170.847V194.876H171.645ZM171.74 196.692L171.488 196.577V195.81L171.582 195.695C171.652 195.569 171.761 195.436 171.908 195.296C172.062 195.149 172.24 195.026 172.443 194.928C172.646 194.823 172.853 194.771 173.063 194.771C173.168 194.771 173.266 194.778 173.357 194.792C173.455 194.806 173.528 194.83 173.577 194.865V195.81H173.252C172.776 195.81 172.429 195.884 172.212 196.031C171.995 196.171 171.838 196.391 171.74 196.692ZM175.478 200H174.428V194.876H175.478V200ZM174.27 193.301C174.27 193.098 174.33 192.933 174.449 192.807C174.575 192.674 174.743 192.608 174.953 192.608C175.156 192.608 175.32 192.674 175.446 192.807C175.572 192.933 175.635 193.098 175.635 193.301C175.635 193.497 175.572 193.661 175.446 193.794C175.32 193.92 175.156 193.983 174.953 193.983C174.743 193.983 174.575 193.92 174.449 193.794C174.33 193.661 174.27 193.497 174.27 193.301ZM178.982 200.105C178.485 200.105 178.047 199.996 177.669 199.779C177.291 199.555 176.997 199.244 176.787 198.845C176.577 198.446 176.472 197.98 176.472 197.448C176.472 196.909 176.577 196.44 176.787 196.041C176.997 195.642 177.291 195.331 177.669 195.107C178.047 194.883 178.485 194.771 178.982 194.771C179.486 194.771 179.927 194.883 180.305 195.107C180.683 195.331 180.977 195.642 181.187 196.041C181.397 196.44 181.502 196.909 181.502 197.448C181.502 197.497 181.498 197.55 181.491 197.606C181.491 197.655 181.488 197.7 181.481 197.742H177.47V196.839H180.725L180.431 197.448C180.431 196.916 180.312 196.479 180.074 196.136C179.836 195.793 179.472 195.621 178.982 195.621C178.548 195.621 178.201 195.761 177.942 196.041C177.683 196.314 177.554 196.675 177.554 197.123V197.669C177.554 198.138 177.68 198.512 177.932 198.792C178.184 199.065 178.534 199.202 178.982 199.202C179.395 199.202 179.713 199.114 179.937 198.939C180.161 198.764 180.357 198.547 180.525 198.288L181.313 198.782C181.075 199.223 180.767 199.555 180.389 199.779C180.018 199.996 179.549 200.105 178.982 200.105ZM183.964 200.105C183.607 200.105 183.253 200.021 182.903 199.853C182.56 199.685 182.277 199.398 182.053 198.992L182.851 198.467C183.047 198.726 183.232 198.915 183.407 199.034C183.582 199.146 183.81 199.202 184.09 199.202C184.314 199.202 184.485 199.146 184.604 199.034C184.73 198.915 184.793 198.771 184.793 198.603C184.793 198.491 184.762 198.393 184.699 198.309C184.643 198.225 184.541 198.148 184.394 198.078C184.247 198.001 184.037 197.928 183.764 197.858C183.26 197.725 182.872 197.55 182.599 197.333C182.326 197.116 182.189 196.773 182.189 196.304C182.189 196.024 182.259 195.768 182.399 195.537C182.539 195.306 182.742 195.121 183.008 194.981C183.274 194.841 183.589 194.771 183.953 194.771C184.387 194.771 184.758 194.862 185.066 195.044C185.374 195.219 185.616 195.429 185.791 195.674L184.982 196.272C184.884 196.146 184.741 196.024 184.552 195.905C184.363 195.779 184.125 195.716 183.838 195.716C183.663 195.716 183.502 195.765 183.355 195.863C183.208 195.961 183.134 196.097 183.134 196.272C183.134 196.447 183.201 196.591 183.334 196.703C183.474 196.808 183.726 196.902 184.09 196.986C184.706 197.133 185.143 197.326 185.402 197.564C185.661 197.795 185.791 198.103 185.791 198.488C185.791 198.824 185.703 199.114 185.528 199.359C185.36 199.597 185.136 199.783 184.856 199.916C184.583 200.042 184.286 200.105 183.964 200.105ZM190.4 200.053C190.218 200.053 190.057 200.011 189.917 199.926C189.777 199.835 189.665 199.706 189.581 199.538C189.504 199.37 189.465 199.163 189.465 198.918V192.849H190.494V198.551C190.494 198.768 190.547 198.915 190.652 198.992C190.764 199.069 190.89 199.107 191.03 199.107V199.947C190.939 199.982 190.841 200.007 190.736 200.021C190.631 200.042 190.519 200.053 190.4 200.053ZM193.071 200H192.021V194.876H193.071V200ZM191.863 193.301C191.863 193.098 191.923 192.933 192.042 192.807C192.168 192.674 192.336 192.608 192.546 192.608C192.749 192.608 192.913 192.674 193.039 192.807C193.165 192.933 193.228 193.098 193.228 193.301C193.228 193.497 193.165 193.661 193.039 193.794C192.913 193.92 192.749 193.983 192.546 193.983C192.336 193.983 192.168 193.92 192.042 193.794C191.923 193.661 191.863 193.497 191.863 193.301ZM196.018 200.105C195.661 200.105 195.308 200.021 194.958 199.853C194.615 199.685 194.331 199.398 194.107 198.992L194.905 198.467C195.101 198.726 195.287 198.915 195.462 199.034C195.637 199.146 195.864 199.202 196.144 199.202C196.368 199.202 196.54 199.146 196.659 199.034C196.785 198.915 196.848 198.771 196.848 198.603C196.848 198.491 196.816 198.393 196.753 198.309C196.697 198.225 196.596 198.148 196.449 198.078C196.302 198.001 196.092 197.928 195.819 197.858C195.315 197.725 194.926 197.55 194.653 197.333C194.38 197.116 194.244 196.773 194.244 196.304C194.244 196.024 194.314 195.768 194.454 195.537C194.594 195.306 194.797 195.121 195.063 194.981C195.329 194.841 195.644 194.771 196.008 194.771C196.442 194.771 196.813 194.862 197.121 195.044C197.429 195.219 197.67 195.429 197.845 195.674L197.037 196.272C196.939 196.146 196.795 196.024 196.606 195.905C196.417 195.779 196.179 195.716 195.892 195.716C195.717 195.716 195.556 195.765 195.409 195.863C195.262 195.961 195.189 196.097 195.189 196.272C195.189 196.447 195.255 196.591 195.388 196.703C195.528 196.808 195.78 196.902 196.144 196.986C196.76 197.133 197.198 197.326 197.457 197.564C197.716 197.795 197.845 198.103 197.845 198.488C197.845 198.824 197.758 199.114 197.583 199.359C197.415 199.597 197.191 199.783 196.911 199.916C196.638 200.042 196.34 200.105 196.018 200.105ZM200.742 200.095C200.294 200.095 199.937 199.965 199.671 199.706C199.412 199.44 199.283 199.03 199.283 198.477V194.939V194.876L199.482 193.721H200.333V198.498C200.333 198.694 200.382 198.841 200.48 198.939C200.585 199.037 200.714 199.086 200.868 199.086C200.987 199.086 201.092 199.079 201.183 199.065C201.274 199.051 201.355 199.034 201.425 199.013V199.989C201.334 200.018 201.232 200.042 201.12 200.063C201.015 200.084 200.889 200.095 200.742 200.095ZM198.495 195.842V194.876H201.425V195.842H198.495ZM204.204 200.105C203.847 200.105 203.493 200.021 203.143 199.853C202.8 199.685 202.517 199.398 202.293 198.992L203.091 198.467C203.287 198.726 203.472 198.915 203.647 199.034C203.822 199.146 204.05 199.202 204.33 199.202C204.554 199.202 204.725 199.146 204.844 199.034C204.97 198.915 205.033 198.771 205.033 198.603C205.033 198.491 205.002 198.393 204.939 198.309C204.883 198.225 204.781 198.148 204.634 198.078C204.487 198.001 204.277 197.928 204.004 197.858C203.5 197.725 203.112 197.55 202.839 197.333C202.566 197.116 202.429 196.773 202.429 196.304C202.429 196.024 202.499 195.768 202.639 195.537C202.779 195.306 202.982 195.121 203.248 194.981C203.514 194.841 203.829 194.771 204.193 194.771C204.627 194.771 204.998 194.862 205.306 195.044C205.614 195.219 205.856 195.429 206.031 195.674L205.222 196.272C205.124 196.146 204.981 196.024 204.792 195.905C204.603 195.779 204.365 195.716 204.078 195.716C203.903 195.716 203.742 195.765 203.595 195.863C203.448 195.961 203.374 196.097 203.374 196.272C203.374 196.447 203.441 196.591 203.574 196.703C203.714 196.808 203.966 196.902 204.33 196.986C204.946 197.133 205.383 197.326 205.642 197.564C205.901 197.795 206.031 198.103 206.031 198.488C206.031 198.824 205.943 199.114 205.768 199.359C205.6 199.597 205.376 199.783 205.096 199.916C204.823 200.042 204.526 200.105 204.204 200.105Z" fill="#40444C"/>
<rect width="30" height="6" rx="3" transform="matrix(1 0 0 -1 243.5 199.5)" fill="#EDEEF1"/>
<path d="M283.392 197.5L283.602 195.5H281.5V194.5H283.707L283.97 192H284.976L284.713 194.5H286.707L286.97 192H287.976L287.713 194.5H289.5V195.5H287.608L287.398 197.5H289.5V198.5H287.293L287.03 201H286.024L286.287 198.5H284.293L284.03 201H283.024L283.287 198.5H281.5V197.5H283.392ZM284.398 197.5H286.392L286.602 195.5H284.608L284.398 197.5Z" fill="#FF4B0E"/>
<path d="M63.5 213H300.5" stroke="#D8DBDF" stroke-width="0.375" stroke-miterlimit="10" stroke-linecap="round" stroke-linejoin="round"/>
<path d="M63.5 246H300.5" stroke="#D8DBDF" stroke-width="0.375" stroke-miterlimit="10" stroke-linecap="round" stroke-linejoin="round"/>
<path d="M73.75 260C74.1642 260 74.5 259.664 74.5 259.25C74.5 258.836 74.1642 258.5 73.75 258.5C73.3358 258.5 73 258.836 73 259.25C73 259.664 73.3358 260 73.75 260ZM73.75 263.25C74.1642 263.25 74.5 262.914 74.5 262.5C74.5 262.086 74.1642 261.75 73.75 261.75C73.3358 261.75 73 262.086 73 262.5C73 262.914 73.3358 263.25 73.75 263.25ZM74.5 265.75C74.5 266.164 74.1642 266.5 73.75 266.5C73.3358 266.5 73 266.164 73 265.75C73 265.336 73.3358 265 73.75 265C74.1642 265 74.5 265.336 74.5 265.75ZM77.25 260C77.6642 260 78 259.664 78 259.25C78 258.836 77.6642 258.5 77.25 258.5C76.8358 258.5 76.5 258.836 76.5 259.25C76.5 259.664 76.8358 260 77.25 260ZM78 262.5C78 262.914 77.6642 263.25 77.25 263.25C76.8358 263.25 76.5 262.914 76.5 262.5C76.5 262.086 76.8358 261.75 77.25 261.75C77.6642 261.75 78 262.086 78 262.5ZM77.25 266.5C77.6642 266.5 78 266.164 78 265.75C78 265.336 77.6642 265 77.25 265C76.8358 265 76.5 265.336 76.5 265.75C76.5 266.164 76.8358 266.5 77.25 266.5Z" fill="black"/>
<path d="M96.5 267.5C93.7386 267.5 91.5 265.261 91.5 262.5C91.5 259.739 93.7386 257.5 96.5 257.5C99.2614 257.5 101.5 259.739 101.5 262.5C101.5 265.261 99.2614 267.5 96.5 267.5ZM96.5 266.5C98.7092 266.5 100.5 264.709 100.5 262.5C100.5 260.291 98.7092 258.5 96.5 258.5C94.2909 258.5 92.5 260.291 92.5 262.5C92.5 264.709 94.2909 266.5 96.5 266.5Z" fill="black"/>
<path d="M114.475 266L109.855 260.004L110.443 259.836V266H109.393V258.849H110.285L114.748 264.635H114.317V258.849H115.367V266H114.475ZM119.069 266.105C118.572 266.105 118.134 265.996 117.756 265.779C117.378 265.555 117.084 265.244 116.874 264.845C116.664 264.446 116.559 263.98 116.559 263.448C116.559 262.909 116.664 262.44 116.874 262.041C117.084 261.642 117.378 261.331 117.756 261.107C118.134 260.883 118.572 260.771 119.069 260.771C119.573 260.771 120.014 260.883 120.392 261.107C120.77 261.331 121.064 261.642 121.274 262.041C121.484 262.44 121.589 262.909 121.589 263.448C121.589 263.497 121.585 263.55 121.578 263.606C121.578 263.655 121.575 263.7 121.568 263.742H117.557V262.839H120.812L120.518 263.448C120.518 262.916 120.399 262.479 120.161 262.136C119.923 261.793 119.559 261.621 119.069 261.621C118.635 261.621 118.288 261.761 118.029 262.041C117.77 262.314 117.641 262.675 117.641 263.123V263.669C117.641 264.138 117.767 264.512 118.019 264.792C118.271 265.065 118.621 265.202 119.069 265.202C119.482 265.202 119.8 265.114 120.024 264.939C120.248 264.764 120.444 264.547 120.612 264.288L121.4 264.782C121.162 265.223 120.854 265.555 120.476 265.779C120.105 265.996 119.636 266.105 119.069 266.105ZM123.597 266L121.98 260.876H123.03L124.09 264.645H123.996L125.193 260.876H126.148L127.345 264.645H127.251L128.311 260.876H129.361L127.744 266H126.852L125.581 261.999H125.76L124.489 266H123.597ZM133.854 262.703H135.334C135.796 262.703 136.167 262.577 136.447 262.325C136.727 262.073 136.867 261.723 136.867 261.275C136.867 260.799 136.727 260.442 136.447 260.204C136.174 259.959 135.807 259.836 135.345 259.836H133.854L134.043 259.595V266H132.993V258.849H135.523C136.013 258.849 136.44 258.958 136.804 259.175C137.168 259.392 137.452 259.682 137.655 260.046C137.858 260.41 137.959 260.82 137.959 261.275C137.959 261.723 137.858 262.132 137.655 262.503C137.452 262.867 137.165 263.158 136.794 263.375C136.43 263.585 136.003 263.69 135.513 263.69H133.854V262.703ZM139.581 260.876L139.833 262.262V266H138.783V260.876H139.581ZM139.675 262.692L139.423 262.577V261.81L139.518 261.695C139.588 261.569 139.696 261.436 139.843 261.296C139.997 261.149 140.176 261.026 140.379 260.928C140.582 260.823 140.788 260.771 140.998 260.771C141.103 260.771 141.201 260.778 141.292 260.792C141.39 260.806 141.464 260.83 141.513 260.865V261.81H141.187C140.711 261.81 140.365 261.884 140.148 262.031C139.931 262.171 139.773 262.391 139.675 262.692ZM144.283 266.105C143.765 266.105 143.307 265.996 142.908 265.779C142.516 265.555 142.211 265.244 141.994 264.845C141.777 264.446 141.669 263.98 141.669 263.448C141.669 262.909 141.777 262.44 141.994 262.041C142.211 261.642 142.516 261.331 142.908 261.107C143.307 260.883 143.765 260.771 144.283 260.771C144.808 260.771 145.267 260.883 145.659 261.107C146.051 261.331 146.355 261.642 146.572 262.041C146.796 262.44 146.908 262.909 146.908 263.448C146.908 263.98 146.796 264.446 146.572 264.845C146.355 265.244 146.051 265.555 145.659 265.779C145.267 265.996 144.808 266.105 144.283 266.105ZM144.283 265.097C144.752 265.097 145.127 264.946 145.407 264.645C145.694 264.337 145.837 263.938 145.837 263.448C145.837 262.951 145.694 262.549 145.407 262.241C145.127 261.933 144.752 261.779 144.283 261.779C143.821 261.779 143.447 261.933 143.16 262.241C142.88 262.542 142.74 262.941 142.74 263.438C142.74 263.935 142.88 264.337 143.16 264.645C143.447 264.946 143.821 265.097 144.283 265.097ZM147.849 268.037C147.674 268.037 147.534 268.02 147.429 267.985C147.324 267.957 147.254 267.936 147.219 267.922V267.04C147.254 267.047 147.3 267.057 147.356 267.071C147.412 267.085 147.475 267.092 147.545 267.092C147.685 267.092 147.79 267.047 147.86 266.956C147.93 266.865 147.965 266.742 147.965 266.588V260.876H149.015V266.557C149.015 266.823 148.973 267.068 148.889 267.292C148.812 267.523 148.686 267.705 148.511 267.838C148.343 267.971 148.122 268.037 147.849 268.037ZM147.807 259.301C147.807 259.098 147.867 258.933 147.986 258.807C148.112 258.674 148.28 258.608 148.49 258.608C148.693 258.608 148.857 258.674 148.983 258.807C149.109 258.933 149.172 259.098 149.172 259.301C149.172 259.497 149.109 259.661 148.983 259.794C148.857 259.92 148.693 259.983 148.49 259.983C148.28 259.983 148.112 259.92 147.986 259.794C147.867 259.661 147.807 259.497 147.807 259.301ZM152.507 266.105C152.01 266.105 151.573 265.996 151.195 265.779C150.817 265.555 150.523 265.244 150.313 264.845C150.103 264.446 149.998 263.98 149.998 263.448C149.998 262.909 150.103 262.44 150.313 262.041C150.523 261.642 150.817 261.331 151.195 261.107C151.573 260.883 152.01 260.771 152.507 260.771C153.011 260.771 153.452 260.883 153.83 261.107C154.208 261.331 154.502 261.642 154.712 262.041C154.922 262.44 155.027 262.909 155.027 263.448C155.027 263.497 155.024 263.55 155.017 263.606C155.017 263.655 155.013 263.7 155.006 263.742H150.995V262.839H154.25L153.956 263.448C153.956 262.916 153.837 262.479 153.599 262.136C153.361 261.793 152.997 261.621 152.507 261.621C152.073 261.621 151.727 261.761 151.468 262.041C151.209 262.314 151.079 262.675 151.079 263.123V263.669C151.079 264.138 151.205 264.512 151.457 264.792C151.709 265.065 152.059 265.202 152.507 265.202C152.92 265.202 153.239 265.114 153.463 264.939C153.687 264.764 153.883 264.547 154.051 264.288L154.838 264.782C154.6 265.223 154.292 265.555 153.914 265.779C153.543 265.996 153.074 266.105 152.507 266.105ZM158.211 266.105C157.686 266.105 157.231 265.993 156.846 265.769C156.461 265.538 156.164 265.223 155.954 264.824C155.744 264.425 155.639 263.963 155.639 263.438C155.639 262.913 155.744 262.451 155.954 262.052C156.164 261.653 156.461 261.341 156.846 261.117C157.231 260.886 157.686 260.771 158.211 260.771C158.708 260.771 159.16 260.907 159.566 261.18C159.972 261.446 160.266 261.803 160.448 262.251L159.45 262.671C159.338 262.377 159.17 262.157 158.946 262.01C158.722 261.856 158.467 261.779 158.18 261.779C157.76 261.779 157.41 261.926 157.13 262.22C156.85 262.507 156.71 262.913 156.71 263.438C156.71 263.963 156.85 264.372 157.13 264.666C157.41 264.953 157.76 265.097 158.18 265.097C158.467 265.097 158.722 265.023 158.946 264.876C159.17 264.722 159.338 264.498 159.45 264.204L160.448 264.624C160.259 265.072 159.961 265.433 159.555 265.706C159.156 265.972 158.708 266.105 158.211 266.105ZM163.126 266.095C162.678 266.095 162.321 265.965 162.055 265.706C161.796 265.44 161.667 265.03 161.667 264.477V260.939V260.876L161.866 259.721H162.717V264.498C162.717 264.694 162.766 264.841 162.864 264.939C162.969 265.037 163.098 265.086 163.252 265.086C163.371 265.086 163.476 265.079 163.567 265.065C163.658 265.051 163.739 265.034 163.809 265.013V265.989C163.718 266.018 163.616 266.042 163.504 266.063C163.399 266.084 163.273 266.095 163.126 266.095ZM160.879 261.842V260.876H163.809V261.842H160.879Z" fill="#40444C"/>
<rect width="30" height="6" rx="3" transform="matrix(1 0 0 -1 243.5 265.5)" fill="#EDEEF1"/>
<path d="M283.392 263.5L283.602 261.5H281.5V260.5H283.707L283.97 258H284.976L284.713 260.5H286.707L286.97 258H287.976L287.713 260.5H289.5V261.5H287.608L287.398 263.5H289.5V264.5H287.293L287.03 267H286.024L286.287 264.5H284.293L284.03 267H283.024L283.287 264.5H281.5V263.5H283.392ZM284.398 263.5H286.392L286.602 261.5H284.608L284.398 263.5Z" fill="#FF4B0E"/>
<path d="M63.5 279H300.5" stroke="#D8DBDF" stroke-width="0.375" stroke-miterlimit="10" stroke-linecap="round" stroke-linejoin="round"/>
<path d="M75 295V292H76V295H79V296H76V299H75V296H72V295H75Z" fill="#FF4B0E"/>
<path d="M92.054 296.343H95.9075V297.33H92.054V296.343ZM90.71 299L93.2615 291.849H94.6895L97.241 299H96.17L93.881 292.584H94.07L91.781 299H90.71ZM99.6912 299.105C99.2222 299.105 98.8092 298.993 98.4522 298.769C98.0952 298.545 97.8187 298.233 97.6227 297.834C97.4267 297.428 97.3287 296.959 97.3287 296.427C97.3287 295.895 97.4267 295.43 97.6227 295.031C97.8187 294.632 98.0952 294.324 98.4522 294.107C98.8092 293.883 99.2222 293.771 99.6912 293.771C100.153 293.771 100.556 293.883 100.899 294.107C101.242 294.324 101.508 294.632 101.697 295.031C101.893 295.43 101.991 295.895 101.991 296.427C101.991 296.959 101.893 297.428 101.697 297.834C101.508 298.233 101.242 298.545 100.899 298.769C100.556 298.993 100.153 299.105 99.6912 299.105ZM99.8487 298.202C100.283 298.202 100.629 298.041 100.888 297.719C101.154 297.397 101.287 296.97 101.287 296.438C101.287 295.906 101.154 295.479 100.888 295.157C100.629 294.835 100.283 294.674 99.8487 294.674C99.4147 294.674 99.0647 294.835 98.7987 295.157C98.5327 295.479 98.3997 295.902 98.3997 296.427C98.3997 296.959 98.5327 297.39 98.7987 297.719C99.0647 298.041 99.4147 298.202 99.8487 298.202ZM101.487 299L101.235 297.971H101.34V295.052H101.235V291.849H102.285V299H101.487ZM105.568 299.105C105.099 299.105 104.686 298.993 104.329 298.769C103.972 298.545 103.696 298.233 103.5 297.834C103.304 297.428 103.206 296.959 103.206 296.427C103.206 295.895 103.304 295.43 103.5 295.031C103.696 294.632 103.972 294.324 104.329 294.107C104.686 293.883 105.099 293.771 105.568 293.771C106.03 293.771 106.433 293.883 106.776 294.107C107.119 294.324 107.385 294.632 107.574 295.031C107.77 295.43 107.868 295.895 107.868 296.427C107.868 296.959 107.77 297.428 107.574 297.834C107.385 298.233 107.119 298.545 106.776 298.769C106.433 298.993 106.03 299.105 105.568 299.105ZM105.726 298.202C106.16 298.202 106.506 298.041 106.765 297.719C107.031 297.397 107.164 296.97 107.164 296.438C107.164 295.906 107.031 295.479 106.765 295.157C106.506 294.835 106.16 294.674 105.726 294.674C105.292 294.674 104.942 294.835 104.676 295.157C104.41 295.479 104.277 295.902 104.277 296.427C104.277 296.959 104.41 297.39 104.676 297.719C104.942 298.041 105.292 298.202 105.726 298.202ZM107.364 299L107.112 297.971H107.217V295.052H107.112V291.849H108.162V299H107.364ZM115.046 293.771C115.41 293.771 115.697 293.834 115.907 293.96C116.117 294.079 116.271 294.243 116.369 294.453C116.467 294.656 116.53 294.887 116.558 295.146C116.586 295.405 116.6 295.671 116.6 295.944V299H115.55V295.724C115.55 295.36 115.466 295.115 115.298 294.989C115.137 294.863 114.945 294.8 114.721 294.8C114.497 294.8 114.269 294.845 114.038 294.936C113.807 295.027 113.601 295.15 113.419 295.304C113.237 295.458 113.097 295.629 112.999 295.818V295.23H113.167V299H112.117V293.876H112.915L113.135 294.779L112.873 294.81C113.069 294.586 113.282 294.397 113.513 294.243C113.744 294.089 113.989 293.974 114.248 293.897C114.507 293.813 114.773 293.771 115.046 293.771ZM119.983 299.105C119.486 299.105 119.049 298.996 118.671 298.779C118.293 298.555 117.999 298.244 117.789 297.845C117.579 297.446 117.474 296.98 117.474 296.448C117.474 295.909 117.579 295.44 117.789 295.041C117.999 294.642 118.293 294.331 118.671 294.107C119.049 293.883 119.486 293.771 119.983 293.771C120.487 293.771 120.928 293.883 121.306 294.107C121.684 294.331 121.978 294.642 122.188 295.041C122.398 295.44 122.503 295.909 122.503 296.448C122.503 296.497 122.5 296.55 122.493 296.606C122.493 296.655 122.489 296.7 122.482 296.742H118.471V295.839H121.726L121.432 296.448C121.432 295.916 121.313 295.479 121.075 295.136C120.837 294.793 120.473 294.621 119.983 294.621C119.549 294.621 119.203 294.761 118.944 295.041C118.685 295.314 118.555 295.675 118.555 296.123V296.669C118.555 297.138 118.681 297.512 118.933 297.792C119.185 298.065 119.535 298.202 119.983 298.202C120.396 298.202 120.715 298.114 120.939 297.939C121.163 297.764 121.359 297.547 121.527 297.288L122.314 297.782C122.076 298.223 121.768 298.555 121.39 298.779C121.019 298.996 120.55 299.105 119.983 299.105ZM124.511 299L122.894 293.876H123.944L125.005 297.645H124.91L126.107 293.876H127.063L128.26 297.645H128.165L129.226 293.876H130.276L128.659 299H127.766L126.496 294.999H126.674L125.404 299H124.511ZM135.577 299.095C135.129 299.095 134.772 298.965 134.506 298.706C134.247 298.44 134.117 298.03 134.117 297.477V293.939V293.876L134.317 292.721H135.167V297.498C135.167 297.694 135.216 297.841 135.314 297.939C135.419 298.037 135.549 298.086 135.703 298.086C135.822 298.086 135.927 298.079 136.018 298.065C136.109 298.051 136.189 298.034 136.259 298.013V298.989C136.168 299.018 136.067 299.042 135.955 299.063C135.85 299.084 135.724 299.095 135.577 299.095ZM133.33 294.842V293.876H136.259V294.842H133.33ZM138.945 299.147C138.546 299.147 138.203 299.077 137.916 298.937C137.629 298.797 137.408 298.597 137.254 298.338C137.107 298.072 137.034 297.757 137.034 297.393C137.034 297.057 137.111 296.76 137.265 296.501C137.419 296.235 137.639 296.025 137.926 295.871C138.213 295.717 138.553 295.64 138.945 295.64C139.435 295.64 139.827 295.752 140.121 295.976C140.422 296.193 140.632 296.494 140.751 296.879H140.163V295.566C140.163 295.349 140.089 295.15 139.942 294.968C139.795 294.786 139.536 294.695 139.165 294.695C138.969 294.695 138.752 294.719 138.514 294.768C138.283 294.81 138.042 294.887 137.79 294.999L137.475 294.191C137.762 294.051 138.059 293.946 138.367 293.876C138.675 293.806 138.976 293.771 139.27 293.771C139.711 293.771 140.075 293.851 140.362 294.012C140.649 294.173 140.863 294.39 141.003 294.663C141.143 294.929 141.213 295.23 141.213 295.566V299H140.457L140.194 298.065L140.751 297.908C140.625 298.321 140.401 298.632 140.079 298.842C139.757 299.046 139.379 299.147 138.945 299.147ZM139.134 298.212C139.442 298.212 139.69 298.142 139.879 298.002C140.068 297.855 140.163 297.652 140.163 297.393C140.163 297.127 140.068 296.924 139.879 296.784C139.69 296.644 139.442 296.574 139.134 296.574C138.826 296.574 138.577 296.644 138.388 296.784C138.199 296.924 138.105 297.127 138.105 297.393C138.105 297.652 138.199 297.855 138.388 298.002C138.577 298.142 138.826 298.212 139.134 298.212ZM144.043 299.105C143.686 299.105 143.333 299.021 142.983 298.853C142.64 298.685 142.356 298.398 142.132 297.992L142.93 297.467C143.126 297.726 143.312 297.915 143.487 298.034C143.662 298.146 143.889 298.202 144.169 298.202C144.393 298.202 144.565 298.146 144.684 298.034C144.81 297.915 144.873 297.771 144.873 297.603C144.873 297.491 144.841 297.393 144.778 297.309C144.722 297.225 144.621 297.148 144.474 297.078C144.327 297.001 144.117 296.928 143.844 296.858C143.34 296.725 142.951 296.55 142.678 296.333C142.405 296.116 142.269 295.773 142.269 295.304C142.269 295.024 142.339 294.768 142.479 294.537C142.619 294.306 142.822 294.121 143.088 293.981C143.354 293.841 143.669 293.771 144.033 293.771C144.467 293.771 144.838 293.862 145.146 294.044C145.454 294.219 145.695 294.429 145.87 294.674L145.062 295.272C144.964 295.146 144.82 295.024 144.631 294.905C144.442 294.779 144.204 294.716 143.917 294.716C143.742 294.716 143.581 294.765 143.434 294.863C143.287 294.961 143.214 295.097 143.214 295.272C143.214 295.447 143.28 295.591 143.413 295.703C143.553 295.808 143.805 295.902 144.169 295.986C144.785 296.133 145.223 296.326 145.482 296.564C145.741 296.795 145.87 297.103 145.87 297.488C145.87 297.824 145.783 298.114 145.608 298.359C145.44 298.597 145.216 298.783 144.936 298.916C144.663 299.042 144.365 299.105 144.043 299.105ZM147.655 296.417V296.27L149.881 293.876H151.12L148.621 296.616L148.526 295.923L151.141 299H149.881L147.655 296.417ZM146.878 291.849H147.907V299H146.878V291.849ZM152.013 299.053C151.866 299.053 151.73 299.014 151.604 298.937C151.478 298.86 151.376 298.758 151.299 298.632C151.222 298.506 151.184 298.37 151.184 298.223C151.184 298.069 151.222 297.932 151.299 297.813C151.376 297.687 151.478 297.586 151.604 297.509C151.73 297.432 151.866 297.393 152.013 297.393C152.167 297.393 152.307 297.432 152.433 297.509C152.559 297.586 152.661 297.687 152.738 297.813C152.815 297.932 152.853 298.069 152.853 298.223C152.853 298.37 152.815 298.506 152.738 298.632C152.661 298.758 152.559 298.86 152.433 298.937C152.307 299.014 152.167 299.053 152.013 299.053ZM154.773 299.053C154.626 299.053 154.489 299.014 154.363 298.937C154.237 298.86 154.136 298.758 154.059 298.632C153.982 298.506 153.943 298.37 153.943 298.223C153.943 298.069 153.982 297.932 154.059 297.813C154.136 297.687 154.237 297.586 154.363 297.509C154.489 297.432 154.626 297.393 154.773 297.393C154.927 297.393 155.067 297.432 155.193 297.509C155.319 297.586 155.42 297.687 155.497 297.813C155.574 297.932 155.613 298.069 155.613 298.223C155.613 298.37 155.574 298.506 155.497 298.632C155.42 298.758 155.319 298.86 155.193 298.937C155.067 299.014 154.927 299.053 154.773 299.053ZM157.533 299.053C157.386 299.053 157.249 299.014 157.123 298.937C156.997 298.86 156.896 298.758 156.819 298.632C156.742 298.506 156.703 298.37 156.703 298.223C156.703 298.069 156.742 297.932 156.819 297.813C156.896 297.687 156.997 297.586 157.123 297.509C157.249 297.432 157.386 297.393 157.533 297.393C157.687 297.393 157.827 297.432 157.953 297.509C158.079 297.586 158.18 297.687 158.257 297.813C158.334 297.932 158.373 298.069 158.373 298.223C158.373 298.37 158.334 298.506 158.257 298.632C158.18 298.758 158.079 298.86 157.953 298.937C157.827 299.014 157.687 299.053 157.533 299.053Z" fill="#8E95A2"/>
<path d="M33.5 224.613C33.5 220.402 33.5 218.296 34.3195 216.688C35.0404 215.273 36.1907 214.123 37.6054 213.402C39.2138 212.582 41.3194 212.582 45.5304 212.582H318.47C322.681 212.582 324.786 212.582 326.395 213.402C327.809 214.123 328.96 215.273 329.68 216.688C330.5 218.296 330.5 220.402 330.5 224.613V234.387C330.5 238.598 330.5 240.704 329.68 242.312C328.96 243.727 327.809 244.877 326.395 245.598C324.786 246.418 322.681 246.418 318.47 246.418H45.5304C41.3193 246.418 39.2138 246.418 37.6054 245.598C36.1907 244.877 35.0404 243.727 34.3195 242.312C33.5 240.704 33.5 238.598 33.5 234.387V224.613Z" fill="white"/>
<path d="M46.3447 226.367C46.8637 226.367 47.2845 225.946 47.2845 225.427C47.2845 224.908 46.8637 224.487 46.3447 224.487C45.8256 224.487 45.4048 224.908 45.4048 225.427C45.4048 225.946 45.8256 226.367 46.3447 226.367ZM46.3447 230.44C46.8637 230.44 47.2845 230.019 47.2845 229.5C47.2845 228.981 46.8637 228.56 46.3447 228.56C45.8256 228.56 45.4048 228.981 45.4048 229.5C45.4048 230.019 45.8256 230.44 46.3447 230.44ZM47.2845 233.573C47.2845 234.092 46.8637 234.513 46.3447 234.513C45.8256 234.513 45.4048 234.092 45.4048 233.573C45.4048 233.054 45.8256 232.633 46.3447 232.633C46.8637 232.633 47.2845 233.054 47.2845 233.573ZM50.7307 226.367C51.2498 226.367 51.6706 225.946 51.6706 225.427C51.6706 224.908 51.2498 224.487 50.7307 224.487C50.2117 224.487 49.7909 224.908 49.7909 225.427C49.7909 225.946 50.2117 226.367 50.7307 226.367ZM51.6706 229.5C51.6706 230.019 51.2498 230.44 50.7307 230.44C50.2117 230.44 49.7909 230.019 49.7909 229.5C49.7909 228.981 50.2117 228.56 50.7307 228.56C51.2498 228.56 51.6706 228.981 51.6706 229.5ZM50.7307 234.513C51.2498 234.513 51.6706 234.092 51.6706 233.573C51.6706 233.054 51.2498 232.633 50.7307 232.633C50.2117 232.633 49.7909 233.054 49.7909 233.573C49.7909 234.092 50.2117 234.513 50.7307 234.513Z" fill="black"/>
<path d="M74.8547 235.766C71.3942 235.766 68.5889 232.96 68.5889 229.5C68.5889 226.039 71.3942 223.234 74.8547 223.234C78.3152 223.234 81.1205 226.039 81.1205 229.5C81.1205 232.96 78.3152 235.766 74.8547 235.766ZM74.2297 232.006L78.6604 227.576L77.7742 226.69L74.2297 230.234L72.4575 228.462L71.5714 229.348L74.2297 232.006Z" fill="#FF4B0E"/>
<path d="M90.3663 234L92.0111 225.039H93.1821L95.6427 231.579H95.6822L98.1428 225.039H99.3139L100.959 234H99.577L98.8533 229.737C98.7481 229.123 98.6603 228.517 98.5902 227.921C98.52 227.316 98.4761 226.71 98.4586 226.105H98.7875C98.6296 226.833 98.463 227.474 98.2875 228.026C98.1209 228.579 97.9279 229.149 97.7086 229.737L96.1691 233.855H95.1559L93.6164 229.737C93.3971 229.14 93.1997 228.57 93.0242 228.026C92.8576 227.474 92.6953 226.833 92.5374 226.105H92.8663C92.8488 226.71 92.8049 227.316 92.7348 227.921C92.6646 228.517 92.5769 229.123 92.4716 229.737L91.7479 234H90.3663ZM105.093 234.132C104.444 234.132 103.87 233.996 103.37 233.724C102.879 233.443 102.497 233.053 102.225 232.553C101.953 232.053 101.817 231.469 101.817 230.803C101.817 230.127 101.953 229.539 102.225 229.039C102.497 228.539 102.879 228.149 103.37 227.868C103.87 227.588 104.444 227.447 105.093 227.447C105.751 227.447 106.326 227.588 106.817 227.868C107.308 228.149 107.69 228.539 107.962 229.039C108.243 229.539 108.383 230.127 108.383 230.803C108.383 231.469 108.243 232.053 107.962 232.553C107.69 233.053 107.308 233.443 106.817 233.724C106.326 233.996 105.751 234.132 105.093 234.132ZM105.093 232.868C105.681 232.868 106.151 232.68 106.501 232.303C106.861 231.917 107.041 231.417 107.041 230.803C107.041 230.18 106.861 229.675 106.501 229.289C106.151 228.903 105.681 228.71 105.093 228.71C104.515 228.71 104.045 228.903 103.686 229.289C103.335 229.667 103.159 230.167 103.159 230.789C103.159 231.412 103.335 231.917 103.686 232.303C104.045 232.68 104.515 232.868 105.093 232.868ZM110.551 227.579L110.866 229.316V234H109.551V227.579H110.551ZM110.669 229.855L110.353 229.71V228.75L110.472 228.605C110.559 228.447 110.695 228.281 110.88 228.105C111.073 227.921 111.296 227.767 111.551 227.645C111.805 227.513 112.064 227.447 112.327 227.447C112.459 227.447 112.581 227.456 112.695 227.474C112.818 227.491 112.91 227.522 112.972 227.566V228.75H112.564C111.967 228.75 111.533 228.842 111.261 229.026C110.989 229.202 110.792 229.478 110.669 229.855ZM117.683 227.447C118.139 227.447 118.498 227.526 118.762 227.684C119.025 227.833 119.218 228.039 119.341 228.302C119.463 228.557 119.542 228.846 119.577 229.171C119.612 229.495 119.63 229.829 119.63 230.171V234H118.314V229.895C118.314 229.438 118.209 229.131 117.998 228.974C117.797 228.816 117.555 228.737 117.275 228.737C116.994 228.737 116.709 228.794 116.419 228.908C116.13 229.022 115.871 229.175 115.643 229.368C115.415 229.561 115.24 229.776 115.117 230.013V229.276H115.327V234H114.011V227.579H115.012L115.288 228.71L114.959 228.75C115.204 228.469 115.472 228.232 115.762 228.039C116.051 227.846 116.358 227.702 116.683 227.605C117.007 227.5 117.341 227.447 117.683 227.447ZM122.526 234H121.21V227.579H122.526V234ZM121.013 225.605C121.013 225.351 121.087 225.145 121.236 224.987C121.394 224.82 121.605 224.737 121.868 224.737C122.122 224.737 122.328 224.82 122.486 224.987C122.644 225.145 122.723 225.351 122.723 225.605C122.723 225.851 122.644 226.057 122.486 226.223C122.328 226.381 122.122 226.46 121.868 226.46C121.605 226.46 121.394 226.381 121.236 226.223C121.087 226.057 121.013 225.851 121.013 225.605ZM127.838 227.447C128.294 227.447 128.654 227.526 128.917 227.684C129.18 227.833 129.373 228.039 129.496 228.302C129.619 228.557 129.698 228.846 129.733 229.171C129.768 229.495 129.785 229.829 129.785 230.171V234H128.469V229.895C128.469 229.438 128.364 229.131 128.154 228.974C127.952 228.816 127.711 228.737 127.43 228.737C127.149 228.737 126.864 228.794 126.575 228.908C126.285 229.022 126.026 229.175 125.798 229.368C125.57 229.561 125.395 229.776 125.272 230.013V229.276H125.482V234H124.167V227.579H125.167L125.443 228.71L125.114 228.75C125.36 228.469 125.627 228.232 125.917 228.039C126.206 227.846 126.513 227.702 126.838 227.605C127.162 227.5 127.496 227.447 127.838 227.447ZM134.104 236.605C133.735 236.605 133.384 236.553 133.051 236.447C132.726 236.351 132.428 236.189 132.156 235.961C131.893 235.733 131.656 235.43 131.446 235.053L131.353 234.882L132.393 234.316C132.621 234.693 132.862 234.974 133.117 235.158C133.38 235.351 133.709 235.447 134.104 235.447C134.639 235.447 135.06 235.281 135.367 234.947C135.683 234.614 135.84 234.101 135.84 233.408V232.039H135.972V228.868H135.84L136.156 227.579H137.156V233.197C137.156 233.952 137.02 234.583 136.748 235.092C136.485 235.601 136.126 235.978 135.669 236.224C135.213 236.478 134.691 236.605 134.104 236.605ZM133.946 233.605C133.349 233.605 132.823 233.478 132.367 233.224C131.919 232.969 131.568 232.614 131.314 232.158C131.068 231.693 130.946 231.153 130.946 230.539C130.946 229.917 131.068 229.377 131.314 228.921C131.568 228.456 131.919 228.096 132.367 227.842C132.823 227.579 133.349 227.447 133.946 227.447C134.516 227.447 135.011 227.579 135.433 227.842C135.862 228.096 136.196 228.456 136.433 228.921C136.669 229.377 136.788 229.917 136.788 230.539C136.788 231.153 136.669 231.693 136.433 232.158C136.196 232.614 135.862 232.969 135.433 233.224C135.011 233.478 134.516 233.605 133.946 233.605ZM134.104 232.474C134.647 232.474 135.082 232.298 135.406 231.947C135.74 231.588 135.906 231.114 135.906 230.526C135.906 229.938 135.74 229.469 135.406 229.118C135.082 228.759 134.647 228.579 134.104 228.579C133.56 228.579 133.121 228.759 132.788 229.118C132.454 229.478 132.288 229.952 132.288 230.539C132.288 231.118 132.454 231.588 132.788 231.947C133.121 232.298 133.56 232.474 134.104 232.474ZM144.479 234.118C143.918 234.118 143.47 233.956 143.137 233.632C142.813 233.298 142.65 232.785 142.65 232.092V227.658V227.579L142.9 226.131H143.966V232.118C143.966 232.364 144.027 232.548 144.15 232.671C144.282 232.794 144.444 232.855 144.637 232.855C144.786 232.855 144.918 232.846 145.032 232.829C145.146 232.811 145.247 232.789 145.335 232.763V233.987C145.22 234.022 145.093 234.053 144.953 234.079C144.821 234.105 144.663 234.118 144.479 234.118ZM141.663 228.789V227.579H145.335V228.789H141.663ZM149.386 234.132C148.763 234.132 148.215 233.996 147.741 233.724C147.267 233.443 146.899 233.053 146.636 232.553C146.373 232.053 146.241 231.469 146.241 230.803C146.241 230.127 146.373 229.539 146.636 229.039C146.899 228.539 147.267 228.149 147.741 227.868C148.215 227.588 148.763 227.447 149.386 227.447C150.017 227.447 150.57 227.588 151.044 227.868C151.518 228.149 151.886 228.539 152.149 229.039C152.412 229.539 152.544 230.127 152.544 230.803C152.544 230.864 152.539 230.93 152.531 231C152.531 231.061 152.526 231.118 152.518 231.171H147.491V230.039H151.57L151.202 230.803C151.202 230.136 151.053 229.588 150.754 229.158C150.456 228.728 150 228.513 149.386 228.513C148.842 228.513 148.408 228.688 148.083 229.039C147.759 229.381 147.596 229.833 147.596 230.395V231.079C147.596 231.667 147.754 232.136 148.07 232.487C148.386 232.829 148.824 233 149.386 233C149.903 233 150.303 232.89 150.583 232.671C150.864 232.452 151.11 232.18 151.32 231.855L152.307 232.474C152.009 233.026 151.623 233.443 151.149 233.724C150.684 233.996 150.096 234.132 149.386 234.132ZM155.705 234.184C155.205 234.184 154.775 234.096 154.416 233.921C154.056 233.746 153.78 233.496 153.587 233.171C153.402 232.838 153.31 232.443 153.31 231.987C153.31 231.566 153.407 231.193 153.6 230.868C153.793 230.535 154.069 230.272 154.429 230.079C154.788 229.886 155.214 229.789 155.705 229.789C156.319 229.789 156.81 229.93 157.179 230.21C157.556 230.482 157.819 230.86 157.968 231.342H157.232V229.697C157.232 229.425 157.139 229.175 156.955 228.947C156.771 228.719 156.446 228.605 155.981 228.605C155.736 228.605 155.464 228.636 155.166 228.697C154.876 228.75 154.574 228.846 154.258 228.987L153.863 227.974C154.223 227.798 154.595 227.667 154.981 227.579C155.367 227.491 155.745 227.447 156.113 227.447C156.666 227.447 157.122 227.548 157.482 227.75C157.841 227.952 158.109 228.224 158.284 228.566C158.46 228.899 158.547 229.276 158.547 229.697V234H157.6L157.271 232.829L157.968 232.632C157.81 233.149 157.53 233.539 157.126 233.803C156.723 234.057 156.249 234.184 155.705 234.184ZM155.942 233.013C156.328 233.013 156.639 232.925 156.876 232.75C157.113 232.566 157.232 232.311 157.232 231.987C157.232 231.653 157.113 231.399 156.876 231.224C156.639 231.048 156.328 230.96 155.942 230.96C155.556 230.96 155.245 231.048 155.008 231.224C154.771 231.399 154.653 231.653 154.653 231.987C154.653 232.311 154.771 232.566 155.008 232.75C155.245 232.925 155.556 233.013 155.942 233.013ZM160.106 234V227.579H161.106L161.383 228.71L161.054 228.75C161.29 228.469 161.54 228.232 161.804 228.039C162.067 227.846 162.348 227.702 162.646 227.605C162.944 227.5 163.255 227.447 163.58 227.447C164.036 227.447 164.396 227.526 164.659 227.684C164.922 227.833 165.115 228.039 165.238 228.302C165.361 228.557 165.44 228.846 165.475 229.171C165.51 229.495 165.527 229.829 165.527 230.171V234H164.212V229.895C164.212 229.438 164.106 229.131 163.896 228.974C163.694 228.816 163.453 228.737 163.172 228.737C162.769 228.737 162.383 228.864 162.014 229.118C161.646 229.364 161.378 229.662 161.212 230.013V229.276H161.422V234H160.106ZM168.317 234V229.895C168.317 229.438 168.212 229.131 168.001 228.974C167.799 228.816 167.558 228.737 167.277 228.737C166.874 228.737 166.488 228.864 166.12 229.118C165.751 229.364 165.484 229.662 165.317 230.013L165.159 228.75C165.396 228.469 165.646 228.232 165.909 228.039C166.172 227.846 166.453 227.702 166.751 227.605C167.049 227.5 167.361 227.447 167.685 227.447C168.142 227.447 168.501 227.526 168.764 227.684C169.028 227.833 169.221 228.039 169.343 228.302C169.466 228.557 169.545 228.846 169.58 229.171C169.615 229.495 169.633 229.829 169.633 230.171V234H168.317ZM174.528 234V227.579H175.528L175.804 228.71L175.475 228.75C175.712 228.469 175.962 228.232 176.225 228.039C176.488 227.846 176.769 227.702 177.067 227.605C177.365 227.5 177.677 227.447 178.001 227.447C178.457 227.447 178.817 227.526 179.08 227.684C179.343 227.833 179.536 228.039 179.659 228.302C179.782 228.557 179.861 228.846 179.896 229.171C179.931 229.495 179.949 229.829 179.949 230.171V234H178.633V229.895C178.633 229.438 178.528 229.131 178.317 228.974C178.115 228.816 177.874 228.737 177.593 228.737C177.19 228.737 176.804 228.864 176.436 229.118C176.067 229.364 175.8 229.662 175.633 230.013V229.276H175.843V234H174.528ZM182.738 234V229.895C182.738 229.438 182.633 229.131 182.423 228.974C182.221 228.816 181.98 228.737 181.699 228.737C181.295 228.737 180.909 228.864 180.541 229.118C180.172 229.364 179.905 229.662 179.738 230.013L179.58 228.75C179.817 228.469 180.067 228.232 180.33 228.039C180.594 227.846 180.874 227.702 181.172 227.605C181.471 227.5 181.782 227.447 182.107 227.447C182.563 227.447 182.923 227.526 183.186 227.684C183.449 227.833 183.642 228.039 183.765 228.302C183.887 228.557 183.966 228.846 184.001 229.171C184.037 229.495 184.054 229.829 184.054 230.171V234H182.738ZM188.292 234.132C187.669 234.132 187.121 233.996 186.647 233.724C186.173 233.443 185.805 233.053 185.542 232.553C185.279 232.053 185.147 231.469 185.147 230.803C185.147 230.127 185.279 229.539 185.542 229.039C185.805 228.539 186.173 228.149 186.647 227.868C187.121 227.588 187.669 227.447 188.292 227.447C188.923 227.447 189.476 227.588 189.95 227.868C190.423 228.149 190.792 228.539 191.055 229.039C191.318 229.539 191.45 230.127 191.45 230.803C191.45 230.864 191.445 230.93 191.437 231C191.437 231.061 191.432 231.118 191.424 231.171H186.397V230.039H190.476L190.108 230.803C190.108 230.136 189.959 229.588 189.66 229.158C189.362 228.728 188.906 228.513 188.292 228.513C187.748 228.513 187.314 228.688 186.989 229.039C186.665 229.381 186.502 229.833 186.502 230.395V231.079C186.502 231.667 186.66 232.136 186.976 232.487C187.292 232.829 187.73 233 188.292 233C188.809 233 189.209 232.89 189.489 232.671C189.77 232.452 190.016 232.18 190.226 231.855L191.213 232.474C190.915 233.026 190.529 233.443 190.055 233.724C189.59 233.996 189.002 234.132 188.292 234.132ZM195.361 234.132C194.738 234.132 194.19 233.996 193.716 233.724C193.243 233.443 192.874 233.053 192.611 232.553C192.348 232.053 192.216 231.469 192.216 230.803C192.216 230.127 192.348 229.539 192.611 229.039C192.874 228.539 193.243 228.149 193.716 227.868C194.19 227.588 194.738 227.447 195.361 227.447C195.993 227.447 196.545 227.588 197.019 227.868C197.493 228.149 197.861 228.539 198.124 229.039C198.388 229.539 198.519 230.127 198.519 230.803C198.519 230.864 198.515 230.93 198.506 231C198.506 231.061 198.502 231.118 198.493 231.171H193.466V230.039H197.545L197.177 230.803C197.177 230.136 197.028 229.588 196.73 229.158C196.431 228.728 195.975 228.513 195.361 228.513C194.817 228.513 194.383 228.688 194.059 229.039C193.734 229.381 193.572 229.833 193.572 230.395V231.079C193.572 231.667 193.73 232.136 194.045 232.487C194.361 232.829 194.8 233 195.361 233C195.879 233 196.278 232.89 196.559 232.671C196.839 232.452 197.085 232.18 197.295 231.855L198.282 232.474C197.984 233.026 197.598 233.443 197.124 233.724C196.659 233.996 196.072 234.132 195.361 234.132ZM201.985 234.118C201.423 234.118 200.976 233.956 200.643 233.632C200.318 233.298 200.156 232.785 200.156 232.092V227.658V227.579L200.406 226.131H201.471V232.118C201.471 232.364 201.533 232.548 201.656 232.671C201.787 232.794 201.95 232.855 202.143 232.855C202.292 232.855 202.423 232.846 202.537 232.829C202.651 232.811 202.752 232.789 202.84 232.763V233.987C202.726 234.022 202.599 234.053 202.458 234.079C202.327 234.105 202.169 234.118 201.985 234.118ZM199.169 228.789V227.579H202.84V228.789H199.169ZM205.612 234H204.296V227.579H205.612V234ZM204.099 225.605C204.099 225.351 204.173 225.145 204.322 224.987C204.48 224.82 204.691 224.737 204.954 224.737C205.208 224.737 205.414 224.82 205.572 224.987C205.73 225.145 205.809 225.351 205.809 225.605C205.809 225.851 205.73 226.057 205.572 226.223C205.414 226.381 205.208 226.46 204.954 226.46C204.691 226.46 204.48 226.381 204.322 226.223C204.173 226.057 204.099 225.851 204.099 225.605ZM210.924 227.447C211.38 227.447 211.74 227.526 212.003 227.684C212.266 227.833 212.459 228.039 212.582 228.302C212.705 228.557 212.784 228.846 212.819 229.171C212.854 229.495 212.871 229.829 212.871 230.171V234H211.556V229.895C211.556 229.438 211.45 229.131 211.24 228.974C211.038 228.816 210.797 228.737 210.516 228.737C210.235 228.737 209.95 228.794 209.661 228.908C209.371 229.022 209.112 229.175 208.884 229.368C208.656 229.561 208.481 229.776 208.358 230.013V229.276H208.569V234H207.253V227.579H208.253L208.529 228.71L208.2 228.75C208.446 228.469 208.713 228.232 209.003 228.039C209.292 227.846 209.599 227.702 209.924 227.605C210.248 227.5 210.582 227.447 210.924 227.447ZM217.19 236.605C216.821 236.605 216.47 236.553 216.137 236.447C215.812 236.351 215.514 236.189 215.242 235.961C214.979 235.733 214.742 235.43 214.532 235.053L214.44 234.882L215.479 234.316C215.707 234.693 215.948 234.974 216.203 235.158C216.466 235.351 216.795 235.447 217.19 235.447C217.725 235.447 218.146 235.281 218.453 234.947C218.769 234.614 218.927 234.101 218.927 233.408V232.039H219.058V228.868H218.927L219.242 227.579H220.242V233.197C220.242 233.952 220.106 234.583 219.834 235.092C219.571 235.601 219.212 235.978 218.756 236.224C218.299 236.478 217.777 236.605 217.19 236.605ZM217.032 233.605C216.435 233.605 215.909 233.478 215.453 233.224C215.005 232.969 214.655 232.614 214.4 232.158C214.155 231.693 214.032 231.153 214.032 230.539C214.032 229.917 214.155 229.377 214.4 228.921C214.655 228.456 215.005 228.096 215.453 227.842C215.909 227.579 216.435 227.447 217.032 227.447C217.602 227.447 218.098 227.579 218.519 227.842C218.948 228.096 219.282 228.456 219.519 228.921C219.756 229.377 219.874 229.917 219.874 230.539C219.874 231.153 219.756 231.693 219.519 232.158C219.282 232.614 218.948 232.969 218.519 233.224C218.098 233.478 217.602 233.605 217.032 233.605ZM217.19 232.474C217.734 232.474 218.168 232.298 218.492 231.947C218.826 231.588 218.992 231.114 218.992 230.526C218.992 229.938 218.826 229.469 218.492 229.118C218.168 228.759 217.734 228.579 217.19 228.579C216.646 228.579 216.207 228.759 215.874 229.118C215.541 229.478 215.374 229.952 215.374 230.539C215.374 231.118 215.541 231.588 215.874 231.947C216.207 232.298 216.646 232.474 217.19 232.474Z" fill="#40444C"/>
<path d="M289.709 226.276L292.368 228.934L286.165 235.137H283.506V232.479L289.709 226.276ZM290.595 225.39L291.924 224.06C292.169 223.816 292.566 223.816 292.811 224.06L294.583 225.833C294.828 226.077 294.828 226.474 294.583 226.719L293.254 228.048L290.595 225.39Z" fill="black"/>
<path d="M313.583 225.271C314.707 225.271 315.619 224.359 315.619 223.234H316.559C316.559 224.359 317.471 225.271 318.595 225.271V226.21C317.471 226.21 316.559 227.122 316.559 228.247H315.619C315.619 227.122 314.707 226.21 313.583 226.21V225.271ZM306.69 226.367C306.69 225.675 307.251 225.114 307.943 225.114H312.329V223.861H307.943C306.559 223.861 305.437 224.983 305.437 226.367V232.633C305.437 234.017 306.559 235.139 307.943 235.139H315.462C316.847 235.139 317.969 234.017 317.969 232.633V229.5H316.715V232.633C316.715 233.325 316.154 233.886 315.462 233.886H307.943C307.251 233.886 306.69 233.325 306.69 232.633V226.367Z" fill="black"/>
<path d="M63.5 111.6C63.5 108.24 63.5 106.56 64.154 105.276C64.7292 104.147 65.6471 103.229 66.7761 102.654C68.0595 102 69.7397 102 73.1 102H169.4C172.76 102 174.44 102 175.724 102.654C176.853 103.229 177.771 104.147 178.346 105.276C179 106.56 179 108.24 179 111.6V140.4C179 143.76 179 145.44 178.346 146.724C177.771 147.853 176.853 148.771 175.724 149.346C174.44 150 172.76 150 169.4 150H73.1C69.7397 150 68.0595 150 66.7761 149.346C65.6471 148.771 64.7292 147.853 64.154 146.724C63.5 145.44 63.5 143.76 63.5 140.4V111.6Z" fill="white"/>
<path d="M74.507 117V111.546H75.407V117H74.507ZM72.59 111.717V110.871H77.414V111.717H72.59ZM78.6364 117.126C78.2944 117.126 78.0004 117.066 77.7544 116.946C77.5084 116.826 77.3194 116.655 77.1874 116.433C77.0614 116.205 76.9984 115.935 76.9984 115.623C76.9984 115.335 77.0644 115.08 77.1964 114.858C77.3284 114.63 77.5174 114.45 77.7634 114.318C78.0094 114.186 78.3004 114.12 78.6364 114.12C79.0564 114.12 79.3924 114.216 79.6444 114.408C79.9024 114.594 80.0824 114.852 80.1844 115.182H79.6804V114.057C79.6804 113.871 79.6174 113.7 79.4914 113.544C79.3654 113.388 79.1434 113.31 78.8254 113.31C78.6574 113.31 78.4714 113.331 78.2674 113.373C78.0694 113.409 77.8624 113.475 77.6464 113.571L77.3764 112.878C77.6224 112.758 77.8774 112.668 78.1414 112.608C78.4054 112.548 78.6634 112.518 78.9154 112.518C79.2934 112.518 79.6054 112.587 79.8514 112.725C80.0974 112.863 80.2804 113.049 80.4004 113.283C80.5204 113.511 80.5804 113.769 80.5804 114.057V117H79.9324L79.7074 116.199L80.1844 116.064C80.0764 116.418 79.8844 116.685 79.6084 116.865C79.3324 117.039 79.0084 117.126 78.6364 117.126ZM78.7984 116.325C79.0624 116.325 79.2754 116.265 79.4374 116.145C79.5994 116.019 79.6804 115.845 79.6804 115.623C79.6804 115.395 79.5994 115.221 79.4374 115.101C79.2754 114.981 79.0624 114.921 78.7984 114.921C78.5344 114.921 78.3214 114.981 78.1594 115.101C77.9974 115.221 77.9164 115.395 77.9164 115.623C77.9164 115.845 77.9974 116.019 78.1594 116.145C78.3214 116.265 78.5344 116.325 78.7984 116.325ZM83.0581 117.09C82.7521 117.09 82.4491 117.018 82.1491 116.874C81.8551 116.73 81.6121 116.484 81.4201 116.136L82.1041 115.686C82.2721 115.908 82.4311 116.07 82.5811 116.172C82.7311 116.268 82.9261 116.316 83.1661 116.316C83.3581 116.316 83.5051 116.268 83.6071 116.172C83.7151 116.07 83.7691 115.947 83.7691 115.803C83.7691 115.707 83.7421 115.623 83.6881 115.551C83.6401 115.479 83.5531 115.413 83.4271 115.353C83.3011 115.287 83.1211 115.224 82.8871 115.164C82.4551 115.05 82.1221 114.9 81.8881 114.714C81.6541 114.528 81.5371 114.234 81.5371 113.832C81.5371 113.592 81.5971 113.373 81.7171 113.175C81.8371 112.977 82.0111 112.818 82.2391 112.698C82.4671 112.578 82.7371 112.518 83.0491 112.518C83.4211 112.518 83.7391 112.596 84.0031 112.752C84.2671 112.902 84.4741 113.082 84.6241 113.292L83.9311 113.805C83.8471 113.697 83.7241 113.592 83.5621 113.49C83.4001 113.382 83.1961 113.328 82.9501 113.328C82.8001 113.328 82.6621 113.37 82.5361 113.454C82.4101 113.538 82.3471 113.655 82.3471 113.805C82.3471 113.955 82.4041 114.078 82.5181 114.174C82.6381 114.264 82.8541 114.345 83.1661 114.417C83.6941 114.543 84.0691 114.708 84.2911 114.912C84.5131 115.11 84.6241 115.374 84.6241 115.704C84.6241 115.992 84.5491 116.241 84.3991 116.451C84.2551 116.655 84.0631 116.814 83.8231 116.928C83.5891 117.036 83.3341 117.09 83.0581 117.09ZM86.2049 114.786V114.66L88.1129 112.608H89.1749L87.0329 114.957L86.9519 114.363L89.1929 117H88.1129L86.2049 114.786ZM85.5389 110.871H86.4209V117H85.5389V110.871ZM90.9068 117.09C90.6008 117.09 90.2978 117.018 89.9978 116.874C89.7038 116.73 89.4608 116.484 89.2688 116.136L89.9528 115.686C90.1208 115.908 90.2798 116.07 90.4298 116.172C90.5798 116.268 90.7748 116.316 91.0148 116.316C91.2068 116.316 91.3538 116.268 91.4558 116.172C91.5638 116.07 91.6178 115.947 91.6178 115.803C91.6178 115.707 91.5908 115.623 91.5368 115.551C91.4888 115.479 91.4018 115.413 91.2758 115.353C91.1498 115.287 90.9698 115.224 90.7358 115.164C90.3038 115.05 89.9708 114.9 89.7368 114.714C89.5028 114.528 89.3858 114.234 89.3858 113.832C89.3858 113.592 89.4458 113.373 89.5658 113.175C89.6858 112.977 89.8598 112.818 90.0878 112.698C90.3158 112.578 90.5858 112.518 90.8978 112.518C91.2698 112.518 91.5878 112.596 91.8518 112.752C92.1158 112.902 92.3228 113.082 92.4728 113.292L91.7798 113.805C91.6958 113.697 91.5728 113.592 91.4108 113.49C91.2488 113.382 91.0448 113.328 90.7988 113.328C90.6488 113.328 90.5108 113.37 90.3848 113.454C90.2588 113.538 90.1958 113.655 90.1958 113.805C90.1958 113.955 90.2528 114.078 90.3668 114.174C90.4868 114.264 90.7028 114.345 91.0148 114.417C91.5428 114.543 91.9178 114.708 92.1398 114.912C92.3618 115.11 92.4728 115.374 92.4728 115.704C92.4728 115.992 92.3978 116.241 92.2478 116.451C92.1038 116.655 91.9118 116.814 91.6718 116.928C91.4378 117.036 91.1828 117.09 90.9068 117.09Z" fill="#5B616E"/>
<path d="M160.072 131.928C160.072 132.42 160 132.9 159.856 133.368C159.712 133.836 159.484 134.316 159.172 134.808C158.86 135.3 158.458 135.822 157.966 136.374L154.708 140.118L154.564 139.02H160.27V141H152.764V139.272L156.076 135.528C156.568 134.964 156.952 134.49 157.228 134.106C157.516 133.722 157.714 133.374 157.822 133.062C157.942 132.75 158.002 132.444 158.002 132.144C158.002 131.64 157.852 131.256 157.552 130.992C157.252 130.716 156.904 130.578 156.508 130.578C156.088 130.578 155.674 130.704 155.266 130.956C154.858 131.208 154.426 131.652 153.97 132.288L152.458 131.19C152.806 130.626 153.178 130.146 153.574 129.75C153.982 129.354 154.426 129.06 154.906 128.868C155.386 128.664 155.914 128.562 156.49 128.562C157.234 128.562 157.87 128.712 158.398 129.012C158.938 129.3 159.352 129.702 159.64 130.218C159.928 130.722 160.072 131.292 160.072 131.928ZM167.867 133.044V141H165.743V136.734L165.419 136.086L166.571 133.044H167.867ZM160.523 138.012V136.734L163.619 128.742H165.725L162.593 136.986L162.269 135.996H169.559V138.012H160.523Z" fill="black"/>
<path d="M185 111.6C185 108.24 185 106.56 185.654 105.276C186.229 104.147 187.147 103.229 188.276 102.654C189.56 102 191.24 102 194.6 102H290.9C294.26 102 295.94 102 297.224 102.654C298.353 103.229 299.271 104.147 299.846 105.276C300.5 106.56 300.5 108.24 300.5 111.6V140.4C300.5 143.76 300.5 145.44 299.846 146.724C299.271 147.853 298.353 148.771 297.224 149.346C295.94 150 294.26 150 290.9 150H194.6C191.24 150 189.56 150 188.276 149.346C187.147 148.771 186.229 147.853 185.654 146.724C185 145.44 185 143.76 185 140.4V111.6Z" fill="white"/>
<path d="M195.503 114.174H196.772C197.168 114.174 197.486 114.066 197.726 113.85C197.966 113.634 198.086 113.334 198.086 112.95C198.086 112.542 197.966 112.236 197.726 112.032C197.492 111.822 197.177 111.717 196.781 111.717H195.503L195.665 111.51V117H194.765V110.871H196.934C197.354 110.871 197.72 110.964 198.032 111.15C198.344 111.336 198.587 111.585 198.761 111.897C198.935 112.209 199.022 112.56 199.022 112.95C199.022 113.334 198.935 113.685 198.761 114.003C198.587 114.315 198.341 114.564 198.023 114.75C197.711 114.93 197.345 115.02 196.925 115.02H195.503V114.174ZM200.463 112.608L200.679 113.796V117H199.779V112.608H200.463ZM200.544 114.165L200.328 114.066V113.409L200.409 113.31C200.469 113.202 200.562 113.088 200.688 112.968C200.82 112.842 200.973 112.737 201.147 112.653C201.321 112.563 201.498 112.518 201.678 112.518C201.768 112.518 201.852 112.524 201.93 112.536C202.014 112.548 202.077 112.569 202.119 112.599V113.409H201.84C201.432 113.409 201.135 113.472 200.949 113.598C200.763 113.718 200.628 113.907 200.544 114.165ZM204.545 117.09C204.101 117.09 203.708 116.997 203.366 116.811C203.03 116.619 202.769 116.352 202.583 116.01C202.397 115.668 202.304 115.269 202.304 114.813C202.304 114.351 202.397 113.949 202.583 113.607C202.769 113.265 203.03 112.998 203.366 112.806C203.708 112.614 204.101 112.518 204.545 112.518C204.995 112.518 205.388 112.614 205.724 112.806C206.06 112.998 206.321 113.265 206.507 113.607C206.699 113.949 206.795 114.351 206.795 114.813C206.795 115.269 206.699 115.668 206.507 116.01C206.321 116.352 206.06 116.619 205.724 116.811C205.388 116.997 204.995 117.09 204.545 117.09ZM204.545 116.226C204.947 116.226 205.268 116.097 205.508 115.839C205.754 115.575 205.877 115.233 205.877 114.813C205.877 114.387 205.754 114.042 205.508 113.778C205.268 113.514 204.947 113.382 204.545 113.382C204.149 113.382 203.828 113.514 203.582 113.778C203.342 114.036 203.222 114.378 203.222 114.804C203.222 115.23 203.342 115.575 203.582 115.839C203.828 116.097 204.149 116.226 204.545 116.226ZM207.653 118.746C207.503 118.746 207.383 118.731 207.293 118.701C207.203 118.677 207.143 118.659 207.113 118.647V117.891C207.143 117.897 207.182 117.906 207.23 117.918C207.278 117.93 207.332 117.936 207.392 117.936C207.512 117.936 207.602 117.897 207.662 117.819C207.722 117.741 207.752 117.636 207.752 117.504V112.608H208.652V117.477C208.652 117.705 208.616 117.915 208.544 118.107C208.478 118.305 208.37 118.461 208.22 118.575C208.076 118.689 207.887 118.746 207.653 118.746ZM207.617 111.258C207.617 111.084 207.668 110.943 207.77 110.835C207.878 110.721 208.022 110.664 208.202 110.664C208.376 110.664 208.517 110.721 208.625 110.835C208.733 110.943 208.787 111.084 208.787 111.258C208.787 111.426 208.733 111.567 208.625 111.681C208.517 111.789 208.376 111.843 208.202 111.843C208.022 111.843 207.878 111.789 207.77 111.681C207.668 111.567 207.617 111.426 207.617 111.258ZM211.697 117.09C211.271 117.09 210.896 116.997 210.572 116.811C210.248 116.619 209.996 116.352 209.816 116.01C209.636 115.668 209.546 115.269 209.546 114.813C209.546 114.351 209.636 113.949 209.816 113.607C209.996 113.265 210.248 112.998 210.572 112.806C210.896 112.614 211.271 112.518 211.697 112.518C212.129 112.518 212.507 112.614 212.831 112.806C213.155 112.998 213.407 113.265 213.587 113.607C213.767 113.949 213.857 114.351 213.857 114.813C213.857 114.855 213.854 114.9 213.848 114.948C213.848 114.99 213.845 115.029 213.839 115.065H210.401V114.291H213.191L212.939 114.813C212.939 114.357 212.837 113.982 212.633 113.688C212.429 113.394 212.117 113.247 211.697 113.247C211.325 113.247 211.028 113.367 210.806 113.607C210.584 113.841 210.473 114.15 210.473 114.534V115.002C210.473 115.404 210.581 115.725 210.797 115.965C211.013 116.199 211.313 116.316 211.697 116.316C212.051 116.316 212.324 116.241 212.516 116.091C212.708 115.941 212.876 115.755 213.02 115.533L213.695 115.956C213.491 116.334 213.227 116.619 212.903 116.811C212.585 116.997 212.183 117.09 211.697 117.09ZM216.638 117.09C216.188 117.09 215.798 116.994 215.468 116.802C215.138 116.604 214.883 116.334 214.703 115.992C214.523 115.65 214.433 115.254 214.433 114.804C214.433 114.354 214.523 113.958 214.703 113.616C214.883 113.274 215.138 113.007 215.468 112.815C215.798 112.617 216.188 112.518 216.638 112.518C217.064 112.518 217.451 112.635 217.799 112.869C218.147 113.097 218.399 113.403 218.555 113.787L217.7 114.147C217.604 113.895 217.46 113.706 217.268 113.58C217.076 113.448 216.857 113.382 216.611 113.382C216.251 113.382 215.951 113.508 215.711 113.76C215.471 114.006 215.351 114.354 215.351 114.804C215.351 115.254 215.471 115.605 215.711 115.857C215.951 116.103 216.251 116.226 216.611 116.226C216.857 116.226 217.076 116.163 217.268 116.037C217.46 115.905 217.604 115.713 217.7 115.461L218.555 115.821C218.393 116.205 218.138 116.514 217.79 116.748C217.448 116.976 217.064 117.09 216.638 117.09ZM220.902 117.081C220.518 117.081 220.212 116.97 219.984 116.748C219.762 116.52 219.651 116.169 219.651 115.695V112.662V112.608L219.822 111.618H220.551V115.713C220.551 115.881 220.593 116.007 220.677 116.091C220.767 116.175 220.878 116.217 221.01 116.217C221.112 116.217 221.202 116.211 221.28 116.199C221.358 116.187 221.427 116.172 221.487 116.154V116.991C221.409 117.015 221.322 117.036 221.226 117.054C221.136 117.072 221.028 117.081 220.902 117.081ZM218.976 113.436V112.608H221.487V113.436H218.976ZM223.92 117.09C223.614 117.09 223.311 117.018 223.011 116.874C222.717 116.73 222.474 116.484 222.282 116.136L222.966 115.686C223.134 115.908 223.293 116.07 223.443 116.172C223.593 116.268 223.788 116.316 224.028 116.316C224.22 116.316 224.367 116.268 224.469 116.172C224.577 116.07 224.631 115.947 224.631 115.803C224.631 115.707 224.604 115.623 224.55 115.551C224.502 115.479 224.415 115.413 224.289 115.353C224.163 115.287 223.983 115.224 223.749 115.164C223.317 115.05 222.984 114.9 222.75 114.714C222.516 114.528 222.399 114.234 222.399 113.832C222.399 113.592 222.459 113.373 222.579 113.175C222.699 112.977 222.873 112.818 223.101 112.698C223.329 112.578 223.599 112.518 223.911 112.518C224.283 112.518 224.601 112.596 224.865 112.752C225.129 112.902 225.336 113.082 225.486 113.292L224.793 113.805C224.709 113.697 224.586 113.592 224.424 113.49C224.262 113.382 224.058 113.328 223.812 113.328C223.662 113.328 223.524 113.37 223.398 113.454C223.272 113.538 223.209 113.655 223.209 113.805C223.209 113.955 223.266 114.078 223.38 114.174C223.5 114.264 223.716 114.345 224.028 114.417C224.556 114.543 224.931 114.708 225.153 114.912C225.375 115.11 225.486 115.374 225.486 115.704C225.486 115.992 225.411 116.241 225.261 116.451C225.117 116.655 224.925 116.814 224.685 116.928C224.451 117.036 224.196 117.09 223.92 117.09Z" fill="#5B616E"/>
<path d="M290.619 131.928C290.619 132.42 290.547 132.9 290.403 133.368C290.259 133.836 290.031 134.316 289.719 134.808C289.407 135.3 289.005 135.822 288.513 136.374L285.255 140.118L285.111 139.02H290.817V141H283.311V139.272L286.623 135.528C287.115 134.964 287.499 134.49 287.775 134.106C288.063 133.722 288.261 133.374 288.369 133.062C288.489 132.75 288.549 132.444 288.549 132.144C288.549 131.64 288.399 131.256 288.099 130.992C287.799 130.716 287.451 130.578 287.055 130.578C286.635 130.578 286.221 130.704 285.813 130.956C285.405 131.208 284.973 131.652 284.517 132.288L283.005 131.19C283.353 130.626 283.725 130.146 284.121 129.75C284.529 129.354 284.973 129.06 285.453 128.868C285.933 128.664 286.461 128.562 287.037 128.562C287.781 128.562 288.417 128.712 288.945 129.012C289.485 129.3 289.899 129.702 290.187 130.218C290.475 130.722 290.619 131.292 290.619 131.928Z" fill="black"/>
<path d="M191 72C191 67.0294 186.971 63 182 63H176.234C174.448 63 173 64.4479 173 66.234C173 69.3866 177.051 70.6759 178.873 68.1033L180.851 65.3102C181.339 64.6215 182.361 64.6215 182.849 65.3102C183.149 65.7341 183.149 66.3013 182.849 66.7252L173.052 80.5569C173.018 80.6043 173 80.661 173 80.7192C173 80.8743 173.126 81 173.281 81H182C186.971 81 191 76.9706 191 72Z" fill="black"/>
<rect x="23.25" y="42.676" width="73" height="24" rx="12" transform="rotate(-10 23.25 42.676)" fill="#6153BD"/>
<rect x="23.25" y="42.676" width="73" height="24" rx="12" transform="rotate(-10 23.25 42.676)" stroke="#F7F8F8" stroke-width="3"/>
<path d="M41.5712 55.6923L35.819 50.2972L36.4926 49.9713L37.6241 56.3883L36.076 56.6613L34.6569 48.6135L36.0396 48.3697L41.6605 53.6417L41.0724 53.8307L39.9867 47.6737L41.5348 47.4007L42.9539 55.4485L41.5712 55.6923ZM44.9313 51.7002L44.6709 50.223L47.9562 49.6437L48.2166 51.1209L44.9313 51.7002ZM44.3166 48.4212L44.7087 47.7428L45.809 53.9825L45.1577 53.5368L49.2112 52.8221L49.4716 54.2993L44.4255 55.1891L43.0064 47.1412L48.0526 46.2514L48.311 47.7168L44.3166 48.4212ZM57.3749 52.9057L54.0099 46.2611L53.5096 45.2892L55.0104 45.0246L58.456 51.85L57.7108 51.9083L58.3312 44.439L59.8911 44.164L59.1121 52.5994L57.3749 52.9057ZM52.246 53.8101L48.6289 46.1498L50.1888 45.8748L53.3264 52.6813L52.6062 52.8814L53.5096 45.2892L55.0104 45.0246L54.8845 46.1069L53.9832 53.5038L52.246 53.8101ZM65.5887 48.3015L69.5594 47.6013L69.8137 49.0431L65.8429 49.7432L65.5887 48.3015ZM64.4503 51.6582L65.8911 43.106L67.6992 42.7872L71.8836 50.3475L70.3237 50.6225L66.7641 44.0488L67.2131 43.9696L66.0102 51.3831L64.4503 51.6582ZM73.1378 46.1783L74.6505 45.9116C75.1074 45.831 75.449 45.649 75.6752 45.3654C75.9014 45.0818 75.9763 44.7233 75.8999 44.29C75.8193 43.8331 75.6249 43.514 75.3168 43.3327C75.0151 43.1422 74.6358 43.0872 74.1788 43.1678L72.6425 43.4387L72.913 43.0377L74.132 49.951L72.5839 50.224L71.1648 42.1761L74.0602 41.6656C74.6511 41.5614 75.1847 41.5932 75.6611 41.7611C76.1361 41.921 76.5332 42.1922 76.8524 42.5745C77.1717 42.9569 77.382 43.4357 77.4834 44.0108C77.5834 44.578 77.5495 45.0999 77.3817 45.5762C77.2125 46.0447 76.9281 46.4361 76.5286 46.7502C76.137 47.063 75.6496 47.2707 75.0666 47.3735L73.4003 47.6674L73.1378 46.1783ZM79.8831 44.989L81.3958 44.7222C81.8527 44.6417 82.1943 44.4596 82.4205 44.176C82.6467 43.8924 82.7216 43.534 82.6452 43.1006C82.5646 42.6437 82.3702 42.3246 82.0621 42.1433C81.7604 41.9528 81.3811 41.8979 80.9242 41.9784L79.3879 42.2493L79.6583 41.8483L80.8773 48.7616L79.3292 49.0346L77.9102 40.9867L80.8055 40.4762C81.3964 40.372 81.93 40.4039 82.4064 40.5717C82.8814 40.7316 83.2785 41.0028 83.5978 41.3852C83.917 41.7675 84.1273 42.2463 84.2287 42.8214C84.3288 43.3887 84.2949 43.9105 84.127 44.3869C83.9578 44.8554 83.6734 45.2467 83.2739 45.5608C82.8823 45.8736 82.395 46.0814 81.812 46.1842L80.1457 46.478L79.8831 44.989ZM84.5791 39.4331L86.3872 39.1143L86.9587 43.0468L87.1503 44.9626L85.8622 45.1897L85.387 43.3239L84.5791 39.4331ZM86.9734 47.7598C86.6897 47.8098 86.4281 47.7544 86.1886 47.5936C85.9476 47.4249 85.8014 47.1948 85.75 46.9033C85.7 46.6196 85.7594 46.3573 85.9281 46.1164C86.0968 45.8754 86.323 45.7299 86.6066 45.6799C86.8981 45.6285 87.1644 45.6872 87.4053 45.8559C87.6541 46.0232 87.8036 46.2487 87.8536 46.5323C87.905 46.8238 87.8424 47.0908 87.6658 47.3331C87.4957 47.5662 87.2649 47.7084 86.9734 47.7598Z" fill="#C1FF71"/>
<path d="M26.8466 39.4344L24.2984 40.7754C22.607 41.6645 21.3452 43.2735 20.8206 45.2102L20.0288 48.1282L18.7755 45.4017C17.9445 43.5919 16.4408 42.2418 14.6308 41.6804L11.9037 40.8332L14.4519 39.4922C16.1433 38.603 17.405 36.994 17.9297 35.0573L18.7215 32.1393L19.9748 34.8659C20.8057 36.6757 22.3095 38.0258 24.1195 38.5872L26.8466 39.4344Z" fill="#FF4B0E" stroke="#FF4B0E" stroke-width="1.5" stroke-miterlimit="10" stroke-linecap="round" stroke-linejoin="round"/>
<path d="M15.7373 74.2523L16.2602 80.6479" stroke="black" stroke-width="1.125" stroke-miterlimit="10" stroke-linecap="round" stroke-linejoin="round"/>
<path d="M13.0112 77.7297L18.9884 77.1702" stroke="black" stroke-width="1.125" stroke-miterlimit="10" stroke-linecap="round" stroke-linejoin="round"/>
<path d="M30 90.0223C32.4853 90.0223 34.5 87.8666 34.5 85.2073C34.5 82.5481 32.4853 80.3923 30 80.3923C27.5147 80.3923 25.5 82.5481 25.5 85.2073C25.5 87.8666 27.5147 90.0223 30 90.0223Z" fill="black"/>
<rect x="40" y="36" width="285" height="405.75" fill="url(#paint1_linear_530_2796)"/>
</g>
</g>
<defs>
<linearGradient id="paint0_linear_530_2796" x1="182" y1="36" x2="182" y2="576" gradientUnits="userSpaceOnUse">
<stop/>
<stop offset="0.5" stop-color="#F7F8F8" stop-opacity="0"/>
</linearGradient>
<linearGradient id="paint1_linear_530_2796" x1="182.5" y1="36" x2="182.5" y2="441.75" gradientUnits="userSpaceOnUse">
<stop offset="0.5" stop-color="#EDEEF1" stop-opacity="0"/>
<stop offset="0.65" stop-color="#EDEEF1"/>
</linearGradient>
<clipPath id="clip0_530_2796">
<rect width="364" height="296" fill="white"/>
</clipPath>
<clipPath id="clip1_530_2796">
<rect width="360" height="321" fill="white" transform="translate(2)"/>
</clipPath>
</defs>
</svg>
