<svg width="228" height="18" viewBox="0 0 228 18" fill="none" xmlns="http://www.w3.org/2000/svg">
<path d="M93.4417 12.068H88.5137V10.262L93.3017 4.2H95.5557V10.262H96.6897V12.068H95.5557V14H93.4417V12.068ZM93.4417 10.262V6.762L90.5997 10.262H93.4417ZM99.7688 11.984V14H97.6688V11.984H99.7688ZM104.628 14.112C103.919 14.112 103.279 13.986 102.71 13.734C102.15 13.482 101.707 13.1273 101.38 12.67C101.063 12.2127 100.904 11.69 100.904 11.102C100.904 10.5513 101.049 10.0753 101.338 9.674C101.627 9.26333 102.015 8.946 102.5 8.722C102.145 8.48867 101.861 8.19933 101.646 7.854C101.441 7.50867 101.338 7.13533 101.338 6.734C101.338 6.23 101.478 5.77733 101.758 5.376C102.038 4.96533 102.425 4.648 102.92 4.424C103.424 4.2 103.993 4.088 104.628 4.088C105.263 4.088 105.827 4.2 106.322 4.424C106.826 4.648 107.218 4.96533 107.498 5.376C107.778 5.77733 107.918 6.23 107.918 6.734C107.918 7.14467 107.811 7.52267 107.596 7.868C107.381 8.204 107.087 8.48867 106.714 8.722C107.218 8.93667 107.615 9.24933 107.904 9.66C108.193 10.0707 108.338 10.5513 108.338 11.102C108.338 11.69 108.175 12.2127 107.848 12.67C107.531 13.1273 107.087 13.482 106.518 13.734C105.958 13.986 105.328 14.112 104.628 14.112ZM104.628 12.306C105.132 12.306 105.529 12.194 105.818 11.97C106.117 11.746 106.266 11.438 106.266 11.046C106.266 10.654 106.117 10.346 105.818 10.122C105.529 9.88867 105.132 9.772 104.628 9.772C104.124 9.772 103.718 9.88867 103.41 10.122C103.102 10.346 102.948 10.654 102.948 11.046C102.948 11.438 103.102 11.746 103.41 11.97C103.718 12.194 104.124 12.306 104.628 12.306ZM104.628 7.896C105.039 7.896 105.365 7.80267 105.608 7.616C105.851 7.42 105.972 7.15867 105.972 6.832C105.972 6.51467 105.851 6.258 105.608 6.062C105.365 5.866 105.039 5.768 104.628 5.768C104.217 5.768 103.891 5.866 103.648 6.062C103.405 6.24867 103.284 6.50533 103.284 6.832C103.284 7.15867 103.405 7.42 103.648 7.616C103.891 7.80267 104.217 7.896 104.628 7.896ZM115.99 14.112C115.252 14.112 114.599 13.972 114.03 13.692C113.47 13.4027 113.026 13.0013 112.7 12.488C112.382 11.9653 112.21 11.3587 112.182 10.668H114.198C114.244 11.172 114.422 11.5687 114.73 11.858C115.047 12.1473 115.467 12.292 115.99 12.292C116.466 12.292 116.844 12.194 117.124 11.998C117.404 11.802 117.544 11.522 117.544 11.158C117.544 10.906 117.46 10.7053 117.292 10.556C117.133 10.3973 116.932 10.276 116.69 10.192C116.447 10.108 116.102 10.01 115.654 9.898C114.991 9.73933 114.445 9.57133 114.016 9.394C113.596 9.20733 113.232 8.91333 112.924 8.512C112.616 8.11067 112.462 7.56 112.462 6.86C112.462 6.328 112.606 5.852 112.896 5.432C113.185 5.012 113.586 4.68533 114.1 4.452C114.613 4.20933 115.201 4.088 115.864 4.088C116.564 4.088 117.18 4.214 117.712 4.466C118.244 4.718 118.659 5.07733 118.958 5.544C119.266 6.01067 119.429 6.552 119.448 7.168H117.46C117.413 6.776 117.25 6.468 116.97 6.244C116.69 6.01067 116.321 5.894 115.864 5.894C115.444 5.894 115.112 5.98267 114.87 6.16C114.627 6.33733 114.506 6.57067 114.506 6.86C114.506 7.13067 114.59 7.34533 114.758 7.504C114.926 7.66267 115.14 7.78867 115.402 7.882C115.663 7.966 116.022 8.05933 116.48 8.162C117.152 8.32067 117.698 8.484 118.118 8.652C118.538 8.82 118.897 9.10467 119.196 9.506C119.504 9.898 119.658 10.4393 119.658 11.13C119.658 11.7367 119.504 12.264 119.196 12.712C118.888 13.16 118.458 13.5053 117.908 13.748C117.357 13.9907 116.718 14.112 115.99 14.112ZM124.219 14C123.398 14 122.745 13.776 122.259 13.328C121.774 12.88 121.531 12.25 121.531 11.438V8.568H120.187V6.944H121.055C121.373 6.944 121.531 6.78067 121.531 6.454V4.858H123.491V6.944H125.381V8.568H123.491V11.354C123.491 12.026 123.818 12.362 124.471 12.362H125.381V14H124.219ZM129.432 14.112C128.396 14.112 127.579 13.7853 126.982 13.132C126.394 12.4693 126.1 11.5827 126.1 10.472C126.1 9.744 126.231 9.10467 126.492 8.554C126.763 8.00333 127.145 7.57867 127.64 7.28C128.135 6.98133 128.723 6.832 129.404 6.832C129.824 6.832 130.202 6.90667 130.538 7.056C130.883 7.196 131.159 7.392 131.364 7.644V6.944H133.31V14H131.364V13.258C131.177 13.5193 130.911 13.7293 130.566 13.888C130.221 14.0373 129.843 14.112 129.432 14.112ZM129.74 12.432C130.263 12.432 130.683 12.2547 131 11.9C131.317 11.536 131.476 11.06 131.476 10.472C131.476 9.87467 131.317 9.39867 131 9.044C130.683 8.68 130.263 8.498 129.74 8.498C129.227 8.498 128.811 8.68 128.494 9.044C128.177 9.39867 128.018 9.87467 128.018 10.472C128.018 11.06 128.177 11.536 128.494 11.9C128.811 12.2547 129.227 12.432 129.74 12.432ZM138.246 8.568C137.779 8.568 137.429 8.74533 137.196 9.1C136.962 9.45467 136.846 9.94467 136.846 10.57V14H134.9V6.944H136.846V8.12C137.032 7.69067 137.261 7.38733 137.532 7.21C137.812 7.03267 138.176 6.944 138.624 6.944H139.408V8.568H138.246ZM142.738 14.112C141.88 14.112 141.18 13.888 140.638 13.44C140.097 12.992 139.808 12.3853 139.77 11.62H141.45C141.497 11.9373 141.632 12.1893 141.856 12.376C142.09 12.5533 142.384 12.642 142.738 12.642C143.046 12.642 143.294 12.5767 143.48 12.446C143.667 12.3153 143.76 12.152 143.76 11.956C143.76 11.6947 143.648 11.5127 143.424 11.41C143.2 11.3073 142.846 11.214 142.36 11.13C141.856 11.0367 141.446 10.934 141.128 10.822C140.811 10.71 140.536 10.5093 140.302 10.22C140.078 9.92133 139.966 9.50133 139.966 8.96C139.966 8.54933 140.074 8.18533 140.288 7.868C140.512 7.54133 140.816 7.28933 141.198 7.112C141.59 6.92533 142.024 6.832 142.5 6.832C143.35 6.832 144.036 7.042 144.558 7.462C145.09 7.882 145.37 8.43733 145.398 9.128H143.718C143.681 8.83867 143.546 8.61467 143.312 8.456C143.088 8.288 142.836 8.204 142.556 8.204C142.267 8.204 142.038 8.26467 141.87 8.386C141.712 8.498 141.632 8.666 141.632 8.89C141.632 9.15133 141.74 9.32867 141.954 9.422C142.178 9.506 142.528 9.58067 143.004 9.646C143.518 9.72067 143.938 9.814 144.264 9.926C144.6 10.0287 144.885 10.234 145.118 10.542C145.361 10.85 145.482 11.298 145.482 11.886C145.482 12.558 145.23 13.0993 144.726 13.51C144.232 13.9113 143.569 14.112 142.738 14.112ZM150.995 14C151.004 13.132 151.107 12.32 151.303 11.564C151.508 10.7987 151.914 9.92133 152.521 8.932L154.775 5.278H149.063V4.2H156.119V5.18L153.445 9.618C152.941 10.458 152.605 11.2093 152.437 11.872C152.278 12.5253 152.194 13.2347 152.185 14H150.995ZM160.225 14.112C159.637 14.112 159.1 13.9907 158.615 13.748C158.129 13.496 157.737 13.1553 157.439 12.726C157.14 12.2873 156.963 11.7927 156.907 11.242H158.069C158.134 11.8113 158.358 12.2547 158.741 12.572C159.123 12.88 159.613 13.034 160.211 13.034C160.939 13.034 161.517 12.8333 161.947 12.432C162.376 12.0307 162.591 11.4847 162.591 10.794C162.591 10.094 162.371 9.534 161.933 9.114C161.503 8.68467 160.934 8.47 160.225 8.47C159.693 8.47 159.24 8.57267 158.867 8.778C158.493 8.98333 158.232 9.26333 158.083 9.618H157.103L157.859 4.2H163.123V5.278H158.769L158.335 8.232C158.577 7.99867 158.885 7.80733 159.259 7.658C159.641 7.50867 160.015 7.434 160.379 7.434C161.051 7.434 161.648 7.57867 162.171 7.868C162.693 8.148 163.099 8.54467 163.389 9.058C163.678 9.562 163.823 10.1407 163.823 10.794C163.823 11.4473 163.669 12.026 163.361 12.53C163.062 13.034 162.637 13.426 162.087 13.706C161.545 13.9767 160.925 14.112 160.225 14.112ZM165.491 9.072H168.221V6.328H169.201V9.072H171.945V10.052H169.201V12.782H168.221V10.052H165.491V9.072ZM177.62 4.2H181.344C182.296 4.2 183.052 4.466 183.612 4.998C184.172 5.52067 184.452 6.21133 184.452 7.07C184.452 7.59267 184.316 8.05 184.046 8.442C183.775 8.82467 183.402 9.128 182.926 9.352C183.308 9.55733 183.612 9.856 183.836 10.248C184.06 10.6307 184.19 11.0693 184.228 11.564L184.396 14H183.234L183.066 11.634C183.038 11.1487 182.879 10.7567 182.59 10.458C182.3 10.1593 181.927 10.01 181.47 10.01H178.824V14H177.62V4.2ZM181.33 8.932C181.974 8.932 182.45 8.75467 182.758 8.4C183.075 8.04533 183.234 7.602 183.234 7.07C183.234 6.538 183.08 6.104 182.772 5.768C182.464 5.432 181.983 5.264 181.33 5.264H178.824V8.932H181.33ZM189.226 14.112C188.545 14.112 187.938 13.9487 187.406 13.622C186.883 13.286 186.473 12.838 186.174 12.278C185.885 11.718 185.74 11.102 185.74 10.43C185.74 9.73933 185.875 9.12333 186.146 8.582C186.426 8.03133 186.818 7.602 187.322 7.294C187.826 6.986 188.419 6.832 189.1 6.832C189.772 6.832 190.355 6.97667 190.85 7.266C191.345 7.546 191.723 7.938 191.984 8.442C192.255 8.946 192.39 9.51067 192.39 10.136C192.39 10.332 192.381 10.4953 192.362 10.626H186.846C186.893 11.354 187.135 11.9513 187.574 12.418C188.013 12.8847 188.563 13.118 189.226 13.118C189.795 13.118 190.257 13.0013 190.612 12.768C190.976 12.5253 191.214 12.18 191.326 11.732H192.46C192.339 12.46 191.984 13.0387 191.396 13.468C190.817 13.8973 190.094 14.112 189.226 14.112ZM191.242 9.73C191.195 9.13267 190.981 8.66133 190.598 8.316C190.225 7.96133 189.725 7.784 189.1 7.784C188.503 7.784 188.013 7.952 187.63 8.288C187.247 8.624 187.005 9.10467 186.902 9.73H191.242ZM193.157 6.944H194.319L196.321 12.6L198.337 6.944H199.499L196.923 14H195.747L193.157 6.944ZM200.859 6.944H201.979V14H200.859V6.944ZM202.063 4.046V5.614H200.775V4.046H202.063ZM207.123 14.112C206.441 14.112 205.835 13.9487 205.303 13.622C204.78 13.286 204.369 12.838 204.071 12.278C203.781 11.718 203.637 11.102 203.637 10.43C203.637 9.73933 203.772 9.12333 204.043 8.582C204.323 8.03133 204.715 7.602 205.219 7.294C205.723 6.986 206.315 6.832 206.997 6.832C207.669 6.832 208.252 6.97667 208.747 7.266C209.241 7.546 209.619 7.938 209.881 8.442C210.151 8.946 210.287 9.51067 210.287 10.136C210.287 10.332 210.277 10.4953 210.258 10.626H204.743C204.789 11.354 205.032 11.9513 205.471 12.418C205.909 12.8847 206.46 13.118 207.123 13.118C207.692 13.118 208.154 13.0013 208.509 12.768C208.873 12.5253 209.111 12.18 209.223 11.732H210.357C210.235 12.46 209.881 13.0387 209.293 13.468C208.714 13.8973 207.991 14.112 207.123 14.112ZM209.139 9.73C209.092 9.13267 208.877 8.66133 208.495 8.316C208.121 7.96133 207.622 7.784 206.997 7.784C206.399 7.784 205.909 7.952 205.527 8.288C205.144 8.624 204.901 9.10467 204.799 9.73H209.139ZM211.205 6.944H212.325L213.879 12.544L215.615 6.944H216.707L218.429 12.544L219.969 6.944H221.103L218.961 14H217.883L216.147 8.386L214.425 14H213.347L211.205 6.944ZM224.633 14.112C223.821 14.112 223.163 13.902 222.659 13.482C222.155 13.0527 221.875 12.4693 221.819 11.732H222.897C222.943 12.1893 223.116 12.5393 223.415 12.782C223.713 13.0153 224.119 13.132 224.633 13.132C225.071 13.132 225.426 13.0293 225.697 12.824C225.977 12.6187 226.117 12.3667 226.117 12.068C226.117 11.7693 226.037 11.5407 225.879 11.382C225.729 11.2233 225.538 11.1113 225.305 11.046C225.081 10.9713 224.759 10.9013 224.339 10.836C223.844 10.7613 223.438 10.6727 223.121 10.57C222.813 10.4673 222.547 10.276 222.323 9.996C222.108 9.716 222.001 9.31933 222.001 8.806C222.001 8.20867 222.229 7.73267 222.687 7.378C223.153 7.014 223.76 6.832 224.507 6.832C225.272 6.832 225.897 7.028 226.383 7.42C226.868 7.812 227.134 8.33467 227.181 8.988H226.103C226.056 8.57733 225.865 8.274 225.529 8.078C225.202 7.882 224.852 7.784 224.479 7.784C224.068 7.784 223.737 7.87733 223.485 8.064C223.233 8.24133 223.107 8.484 223.107 8.792C223.107 9.05333 223.177 9.254 223.317 9.394C223.466 9.534 223.648 9.632 223.863 9.688C224.087 9.744 224.39 9.8 224.773 9.856C225.295 9.93067 225.72 10.024 226.047 10.136C226.373 10.2387 226.653 10.4393 226.887 10.738C227.12 11.0367 227.237 11.4707 227.237 12.04C227.237 12.6653 226.999 13.1693 226.523 13.552C226.047 13.9253 225.417 14.112 224.633 14.112Z" fill="#2B2B2B"/>
<g clip-path="url(#clip0_1409_147)">
<path d="M45.3265 1H34.7656C33.6611 1 32.7656 1.89543 32.7656 3V15C32.7656 16.1046 33.6611 17 34.7656 17H45.3265C46.431 17 47.3265 16.1046 47.3265 15V3C47.3265 1.89543 46.431 1 45.3265 1Z" fill="#00B67A"/>
<path d="M39.5672 4.62153C39.7084 4.1439 40.3849 4.1439 40.5261 4.62153L41.1666 6.78768C41.2295 7.00012 41.4246 7.1459 41.6461 7.1459H43.812C44.2849 7.1459 44.4936 7.74161 44.124 8.03665L42.2932 9.4983C42.1342 9.62521 42.068 9.83577 42.1256 10.0308L42.8055 12.3299C42.9442 12.799 42.3963 13.1676 42.014 12.8625L40.3586 11.5408C40.1761 11.3952 39.9172 11.3952 39.7347 11.5408L38.0793 12.8625C37.697 13.1676 37.1491 12.799 37.2879 12.3299L37.9677 10.0308C38.0254 9.83577 37.9591 9.62521 37.8002 9.4983L35.9693 8.03665C35.5998 7.7416 35.8084 7.1459 36.2813 7.1459H38.4472C38.6687 7.1459 38.8638 7.00012 38.9267 6.78768L39.5672 4.62153Z" fill="white"/>
<path d="M28.9437 1H18.3828C17.2782 1 16.3828 1.89543 16.3828 3V15C16.3828 16.1046 17.2782 17 18.3828 17H28.9437C30.0482 17 30.9437 16.1046 30.9437 15V3C30.9437 1.89543 30.0482 1 28.9437 1Z" fill="#00B67A"/>
<path d="M23.1844 4.62153C23.3256 4.1439 24.0021 4.1439 24.1433 4.62153L24.7838 6.78768C24.8467 7.00012 25.0418 7.1459 25.2633 7.1459H27.4292C27.9021 7.1459 28.1107 7.74161 27.7412 8.03665L25.9103 9.4983C25.7514 9.62521 25.6851 9.83577 25.7428 10.0308L26.4226 12.3299C26.5613 12.799 26.0135 13.1676 25.6312 12.8625L23.9758 11.5408C23.7933 11.3952 23.5343 11.3952 23.3519 11.5408L21.6965 12.8625C21.3142 13.1676 20.7663 12.799 20.905 12.3299L21.5849 10.0308C21.6425 9.83577 21.5763 9.62521 21.4173 9.4983L19.5865 8.03665C19.2169 7.7416 19.4256 7.1459 19.8985 7.1459H22.0644C22.2859 7.1459 22.481 7.00012 22.5438 6.78768L23.1844 4.62153Z" fill="white"/>
<path d="M12.5608 1H2C0.89543 1 0 1.89543 0 3V15C0 16.1046 0.89543 17 2 17H12.5608C13.6654 17 14.5608 16.1046 14.5608 15V3C14.5608 1.89543 13.6654 1 12.5608 1Z" fill="#00B67A"/>
<path d="M6.80154 4.62153C6.94277 4.1439 7.61927 4.1439 7.7605 4.62153L8.40101 6.78768C8.46383 7.00012 8.65896 7.1459 8.88049 7.1459H11.0464C11.5193 7.1459 11.7279 7.74161 11.3584 8.03665L9.52752 9.4983C9.36855 9.62521 9.30232 9.83577 9.35999 10.0308L10.0398 12.3299C10.1785 12.799 9.63066 13.1676 9.24839 12.8625L7.59297 11.5408C7.41051 11.3952 7.15153 11.3952 6.96907 11.5408L5.31365 12.8625C4.93138 13.1676 4.38351 12.799 4.52222 12.3299L5.20205 10.0308C5.25972 9.83577 5.19349 9.62521 5.03452 9.4983L3.20368 8.03665C2.83412 7.7416 3.04275 7.1459 3.51564 7.1459H5.68155C5.90308 7.1459 6.09821 7.00012 6.16103 6.78768L6.80154 4.62153Z" fill="white"/>
<path d="M61.7015 1H51.1406C50.0361 1 49.1406 1.89543 49.1406 3V15C49.1406 16.1046 50.0361 17 51.1406 17H61.7015C62.806 17 63.7015 16.1046 63.7015 15V3C63.7015 1.89543 62.806 1 61.7015 1Z" fill="#00B67A"/>
<path d="M55.9422 4.62153C56.0834 4.1439 56.7599 4.1439 56.9011 4.62153L57.5416 6.78768C57.6045 7.00012 57.7996 7.1459 58.0211 7.1459H60.187C60.6599 7.1459 60.8686 7.74161 60.499 8.03665L58.6682 9.4983C58.5092 9.62521 58.443 9.83577 58.5006 10.0308L59.1805 12.3299C59.3192 12.799 58.7713 13.1676 58.389 12.8625L56.7336 11.5408C56.5511 11.3952 56.2922 11.3952 56.1097 11.5408L54.4543 12.8625C54.072 13.1676 53.5241 12.799 53.6629 12.3299L54.3427 10.0308C54.4004 9.83577 54.3341 9.62521 54.1752 9.4983L52.3443 8.03665C51.9748 7.7416 52.1834 7.1459 52.6563 7.1459H54.8222C55.0437 7.1459 55.2388 7.00012 55.3017 6.78768L55.9422 4.62153Z" fill="white"/>
<path d="M78.0843 1H67.5234C66.4189 1 65.5234 1.89543 65.5234 3V15C65.5234 16.1046 66.4189 17 67.5234 17H78.0843C79.1889 17 80.0843 16.1046 80.0843 15V3C80.0843 1.89543 79.1889 1 78.0843 1Z" fill="#00B67A"/>
<path d="M78.0851 1H72.8047V17H78.0851C79.1897 17 80.0851 16.1046 80.0851 15V3C80.0851 1.89543 79.1897 1 78.0851 1Z" fill="#B1B1B1"/>
<path d="M72.325 4.62153C72.4662 4.1439 73.1427 4.1439 73.2839 4.62153L73.9245 6.78768C73.9873 7.00012 74.1824 7.1459 74.4039 7.1459H76.5699C77.0427 7.1459 77.2514 7.74161 76.8818 8.03665L75.051 9.4983C74.892 9.62521 74.8258 9.83577 74.8834 10.0308L75.5633 12.3299C75.702 12.799 75.1541 13.1676 74.7718 12.8625L73.1164 11.5408C72.934 11.3952 72.675 11.3952 72.4925 11.5408L70.8371 12.8625C70.4548 13.1676 69.907 12.799 70.0457 12.3299L70.7255 10.0308C70.7832 9.83577 70.7169 9.62521 70.558 9.4983L68.7271 8.03665C68.3576 7.7416 68.5662 7.1459 69.0391 7.1459H71.205C71.4265 7.1459 71.6217 7.00012 71.6845 6.78768L72.325 4.62153Z" fill="white"/>
</g>
<defs>
<clipPath id="clip0_1409_147">
<rect width="81" height="16" fill="white" transform="translate(0 1)"/>
</clipPath>
</defs>
</svg>
