<svg width="30" height="30" viewBox="0 0 30 30" fill="none" xmlns="http://www.w3.org/2000/svg">
<rect width="29.8232" height="29.8232" rx="8.5209" fill="url(#paint0_linear_4152_1229)"/>
<path d="M9.63146 8.00054C9.15527 8.00534 8.69974 8.19579 8.36184 8.53136C8.02394 8.86694 7.83035 9.32114 7.82227 9.79729V15.6772C8.47751 15.2555 9.23824 15.0269 10.0174 15.0174H16.2417C17.0135 15.0174 17.741 14.6571 18.4243 13.9364L18.8683 13.3804C19.3299 12.7937 19.5766 12.0666 19.5675 11.3202C19.5744 10.8831 19.4924 10.4492 19.3266 10.0448C19.1607 9.64035 18.9145 9.27381 18.6028 8.96738C18.3015 8.65439 17.9389 8.40697 17.5376 8.2406C17.1364 8.07424 16.705 7.99251 16.2707 8.00054H9.63146Z" fill="white"/>
<path d="M21.6029 18.9622C21.5997 18.2828 21.389 17.6206 20.9989 17.0644C20.6088 16.5081 20.0579 16.0844 19.4202 15.8501L18.9575 15.6758C18.5892 16.0387 18.1521 16.3242 17.6718 16.5155C17.1914 16.7069 16.6777 16.8002 16.1608 16.7899H10.036C9.49392 16.7901 8.96298 16.9441 8.50486 17.2339C8.05671 17.5285 7.83056 17.8564 7.82227 18.2236V20.4851C7.82713 20.9634 8.0193 21.4208 8.35754 21.759C8.69578 22.0973 9.15314 22.2894 9.63146 22.2943H18.2729C19.1538 22.2888 19.9968 21.9356 20.6185 21.3116C21.2403 20.6875 21.5903 19.8431 21.5925 18.9622H21.6029Z" fill="white"/>
<defs>
<linearGradient id="paint0_linear_4152_1229" x1="0" y1="14.9116" x2="29.8232" y2="14.9116" gradientUnits="userSpaceOnUse">
<stop stop-color="#21CFFF"/>
<stop offset="1" stop-color="#019AE6"/>
</linearGradient>
</defs>
</svg>
