<svg width="126" height="27" viewBox="0 0 126 27" fill="none" xmlns="http://www.w3.org/2000/svg">
<path d="M0 6.51724C0 2.91787 2.91787 0 6.51724 0H20.4828C24.0821 0 27 2.91787 27 6.51724V20.4828C27 24.0821 24.0821 27 20.4828 27H6.51724C2.91787 27 0 24.0821 0 20.4828V6.51724Z" fill="url(#paint0_linear_1901_36)"/>
<path d="M8.8092 6.00054C8.333 6.00534 7.87748 6.19579 7.53958 6.53136C7.20168 6.86694 7.00808 7.32114 7 7.79729V13.6772C7.65524 13.2555 8.41597 13.0269 9.1951 13.0174H15.4194C16.1912 13.0174 16.9188 12.6571 17.6021 11.9364L18.0461 11.3804C18.5076 10.7937 18.7544 10.0666 18.7453 9.32017C18.7521 8.88311 18.6701 8.44921 18.5043 8.04478C18.3385 7.64035 18.0922 7.27381 17.7805 6.96738C17.4793 6.65439 17.1166 6.40697 16.7154 6.2406C16.3141 6.07424 15.8828 5.99251 15.4485 6.00054H8.8092Z" fill="white"/>
<path d="M20.7806 16.9636C20.7775 16.2842 20.5667 15.622 20.1766 15.0658C19.7865 14.5095 19.2357 14.0858 18.5979 13.8515L18.1353 13.6772C17.767 14.0401 17.3298 14.3256 16.8495 14.5169C16.3692 14.7083 15.8554 14.8016 15.3385 14.7913H9.21378C8.67166 14.7915 8.14071 14.9455 7.6826 15.2353C7.23445 15.53 7.0083 15.8578 7 16.225V18.4865C7.00486 18.9648 7.19703 19.4222 7.53528 19.7604C7.87352 20.0987 8.33087 20.2908 8.8092 20.2957H17.4506C18.3315 20.2902 19.1746 19.937 19.7963 19.313C20.418 18.6889 20.7681 17.8445 20.7702 16.9636H20.7806Z" fill="white"/>
<path d="M46.1063 12.3476C45.8277 12.4737 45.777 12.5998 45.777 12.8268C45.777 13.1546 45.9797 13.2807 46.1823 13.3059C48.4364 13.7851 49.3988 15.3235 49.3988 17.0636C49.3988 19.989 47.4233 22.1579 43.7762 22.1579H34V4.40351H42.3072C46.2076 4.40351 48.5883 5.94189 48.5883 9.11952C48.5883 10.6579 47.4993 11.7423 46.1063 12.3476ZM42.054 7.93421H38.2549V11.364H41.9527C43.4976 11.364 44.3334 10.6327 44.3334 9.54825C44.3334 8.4386 43.5989 7.93421 42.054 7.93421ZM38.2549 18.6272H42.5099C44.2321 18.6272 45.1439 17.9463 45.1439 16.7105C45.1439 15.5504 44.1308 14.7939 42.4086 14.7939H38.2549V18.6272Z" fill="#082753"/>
<path d="M57.5202 8.4386C61.9271 8.4386 64.6118 11.6162 64.6118 15.5C64.6118 19.3838 61.9271 22.5614 57.5202 22.5614C53.1133 22.5614 50.4287 19.3838 50.4287 15.5C50.4287 11.6162 53.1133 8.4386 57.5202 8.4386ZM57.5202 19.1316C59.5211 19.1316 60.5595 17.4671 60.5595 15.5C60.5595 13.5329 59.5211 11.8684 57.5202 11.8684C55.5194 11.8684 54.481 13.5329 54.481 15.5C54.481 17.4671 55.5194 19.1316 57.5202 19.1316Z" fill="#082753"/>
<path d="M69.8842 4V22.1579H65.8318V4H69.8842Z" fill="#082753"/>
<path d="M81.4344 9.24561V4H85.4868V22.1579H81.4344V21.6787C81.4344 21.3004 81.5611 20.9726 81.7384 20.5943C81.941 20.1656 82.1689 19.7368 81.789 19.6107C81.5357 19.5351 81.4091 19.8125 81.3331 19.9638C80.5227 21.5779 79.1297 22.5614 77.1289 22.5614C73.4564 22.5614 71.3036 19.4342 71.3036 15.5C71.3036 11.5658 73.4564 8.4386 77.1289 8.4386C79.155 8.4386 80.472 9.49781 81.3331 11.011C81.4344 11.1875 81.6117 11.5406 81.9156 11.3893C82.2449 11.2379 81.9156 10.784 81.713 10.3553C81.5357 10.0022 81.4344 9.6239 81.4344 9.24561ZM78.2939 19.1316C80.2187 19.1316 81.4344 17.4419 81.4344 15.5C81.4344 13.5581 80.2187 11.8684 78.2939 11.8684C76.2677 11.8684 75.356 13.5581 75.356 15.5C75.356 17.4419 76.2677 19.1316 78.2939 19.1316Z" fill="#082753"/>
<path d="M96.4381 8.84211V12.0702H92.791V17.6184C92.791 18.8794 92.8417 18.9298 94.0067 18.9298H96.4381V22.1579H92.6897C90.005 22.1579 88.7387 21.2752 88.7387 18.0724V12.0702H86.3073V8.84211H88.7387V5.21053H92.791V8.84211H96.4381Z" fill="#082753"/>
<path d="M110.804 15.0965C110.804 15.4748 110.779 16.1305 110.728 16.5088H101.028C101.307 18.1985 102.446 19.3333 104.143 19.3333C105.41 19.3333 106.195 18.7029 106.524 17.7193H110.551C110.019 20.2412 107.942 22.5614 104.169 22.5614C99.5084 22.5614 97.0263 19.4342 97.0263 15.5C97.0263 11.364 99.6097 8.4386 104.093 8.4386C107.486 8.4386 110.804 10.5066 110.804 15.0965ZM104.169 11.5658C102.244 11.5658 101.433 12.6502 101.129 14.0877H106.828C106.676 12.4737 105.663 11.5658 104.169 11.5658Z" fill="#082753"/>
<path d="M121.948 9.24561V8.84211H126V27H121.948V21.6787C121.948 21.3004 122.074 20.9726 122.252 20.5943C122.454 20.1656 122.682 19.7368 122.302 19.6107C122.049 19.5351 121.922 19.8125 121.846 19.9638C121.036 21.5779 119.643 22.5614 117.642 22.5614C113.97 22.5614 111.817 19.4342 111.817 15.5C111.817 11.5658 113.97 8.4386 117.642 8.4386C119.668 8.4386 120.985 9.49781 121.846 11.011C121.948 11.1875 122.125 11.5406 122.429 11.3893C122.758 11.2379 122.429 10.784 122.226 10.3553C122.049 10.0022 121.948 9.6239 121.948 9.24561ZM118.807 19.1316C120.732 19.1316 121.948 17.4419 121.948 15.5C121.948 13.5581 120.732 11.8684 118.807 11.8684C116.781 11.8684 115.869 13.5581 115.869 15.5C115.869 17.4419 116.781 19.1316 118.807 19.1316Z" fill="#082753"/>
<defs>
<linearGradient id="paint0_linear_1901_36" x1="0" y1="13.5" x2="27" y2="13.5" gradientUnits="userSpaceOnUse">
<stop stop-color="#21CFFF"/>
<stop offset="1" stop-color="#019AE6"/>
</linearGradient>
</defs>
</svg>
