<svg width="512" height="423" viewBox="0 0 512 423" fill="none" xmlns="http://www.w3.org/2000/svg">
<path d="M240.625 422.984C240.62 422.984 240.627 422.984 240.622 422.984C174.236 422.984 118.381 419.869 74.863 416.052C48.038 413.699 31.242 385.929 41.526 361.042C70.052 292.007 105.271 223.811 146.587 157.671C174.71 112.65 201.859 74.7028 224.817 44.8468C240.828 24.0248 272.151 24.0188 288.163 44.8398C311.007 74.5468 338.011 112.279 365.994 157.023C407.099 222.748 442.186 290.515 470.665 359.125C481.005 384.034 464.144 411.845 437.278 414.206C370.936 420.037 305.006 422.984 240.625 422.984Z" fill="#019AE6"/>
<path d="M265.871 30.3378C258.081 32.3858 250.789 37.2708 245.397 44.9818C224.336 75.1018 199.433 113.389 173.637 158.81C135.735 225.537 103.426 294.338 77.263 363.979C68.711 386.729 80.563 411.868 101.177 418.153C91.96 417.488 83.189 416.779 74.864 416.052C48.035 413.697 31.246 385.932 41.523 361.037C70.05 292.01 105.274 223.813 146.59 157.672C174.714 112.654 201.859 74.6988 224.819 44.8508C234.954 31.6678 251.236 26.8278 265.871 30.3378Z" fill="#019AE6"/>
<path d="M441.838 227.553V224.659C441.838 214.451 449.742 205.986 459.927 205.287L491.254 203.138C502.475 202.368 512 211.263 512 222.51V229.702C512 240.949 502.474 249.844 491.254 249.074L459.927 246.925C449.743 246.227 441.838 237.762 441.838 227.553Z" fill="#019AE6"/>
<path d="M417.664 134.44L416.217 131.933C411.113 123.092 413.726 111.809 422.196 106.112L448.251 88.5878C457.584 82.3108 470.28 85.2508 475.904 94.9908L479.5 101.22C485.124 110.96 481.321 123.426 471.219 128.37L443.015 142.172C433.846 146.66 422.768 143.281 417.664 134.44Z" fill="#019AE6"/>
<path d="M350.172 65.8888L347.665 64.4418C338.824 59.3378 335.446 48.2598 339.933 39.0908L353.735 10.8868C358.679 0.784826 371.145 -3.01718 380.885 2.60582L387.114 6.20183C396.854 11.8258 399.794 24.5218 393.517 33.8548L375.993 59.9098C370.296 68.3798 359.013 70.9928 350.172 65.8888Z" fill="#019AE6"/>
<path d="M70.162 227.553V224.659C70.162 214.451 62.258 205.986 52.073 205.287L20.746 203.138C9.526 202.368 0 211.263 0 222.51V229.702C0 240.949 9.526 249.844 20.746 249.074L52.073 246.925C62.257 246.227 70.162 237.762 70.162 227.553Z" fill="#019AE6"/>
<path d="M94.336 134.44L95.783 131.933C100.887 123.092 98.274 111.809 89.804 106.112L63.749 88.5878C54.416 82.3108 41.72 85.2508 36.096 94.9908L32.5 101.22C26.876 110.96 30.679 123.426 40.781 128.37L68.985 142.172C78.154 146.66 89.232 143.281 94.336 134.44Z" fill="#019AE6"/>
<path d="M161.828 65.8888L164.335 64.4418C173.176 59.3378 176.554 48.2598 172.067 39.0908L158.265 10.8868C153.321 0.784826 140.855 -3.01718 131.115 2.60582L124.886 6.20183C115.146 11.8258 112.206 24.5218 118.483 33.8548L136.007 59.9098C141.704 68.3798 152.987 70.9928 161.828 65.8888Z" fill="#019AE6"/>
<path d="M244.901 135.612C252.371 134.861 259.841 134.861 267.311 135.612C276.762 136.563 283.997 144.456 284.346 153.948C285.485 184.997 285.485 216.046 284.346 247.095C283.998 256.587 276.762 264.481 267.311 265.431C259.841 266.182 252.371 266.182 244.901 265.431C235.45 264.48 228.215 256.587 227.866 247.095C226.727 216.046 226.727 184.997 227.866 153.948C228.215 144.455 235.45 136.562 244.901 135.612Z" fill="white"/>
<path d="M245.443 299.507C252.552 299.167 259.661 299.167 266.77 299.507C276.567 299.976 284.435 307.862 284.877 317.66C285.308 327.212 285.308 336.764 284.877 346.317C284.435 356.115 276.567 364.001 266.77 364.47C259.661 364.81 252.552 364.81 245.443 364.47C235.646 364.001 227.778 356.115 227.336 346.317C226.905 336.765 226.905 327.213 227.336 317.66C227.778 307.862 235.646 299.976 245.443 299.507Z" fill="white"/>
</svg>
