<svg width="28" height="36" viewBox="0 0 28 36" fill="none" xmlns="http://www.w3.org/2000/svg">
<g clip-path="url(#clip0_4716_4305)">
<path d="M26.1987 0C26.4866 0.165319 26.6137 0.373845 26.6735 0.727026L27.9896 8.52987C28.0372 8.81355 27.9148 9.07655 27.7073 9.21087C27.5213 9.33205 27.2306 9.35365 27.0184 9.22684L24.9135 7.96253C23.3629 10.4771 21.8347 12.614 19.6355 14.5809C14.1966 19.4456 7.33515 19.8627 0.481197 18.3382C0.114805 18.2564 -0.0506319 17.8535 0.0119912 17.5745C0.0970465 17.1969 0.376514 17.0522 0.760664 17.0663C4.10025 17.1875 7.4118 16.6155 10.5028 15.3352C15.1649 13.403 18.6316 9.95951 20.7197 5.3381L18.6017 4.30016C18.3549 4.17899 18.1979 3.93759 18.2026 3.68961C18.2082 3.42379 18.3615 3.19929 18.6316 3.08282L25.7781 0H26.1987Z" fill="url(#paint0_linear_4716_4305)"/>
<path d="M25.6055 35.9991H22.2014C20.8639 35.8629 20.0938 34.5112 20.0938 33.245V18.0122C20.0938 16.7216 20.8901 15.338 22.2697 15.2582H25.5008C26.8561 15.3512 27.6197 16.6578 27.6711 17.9408L27.6693 33.2469C27.6693 34.4699 26.9468 35.8244 25.6055 36V35.9991Z" fill="url(#paint1_linear_4716_4305)"/>
<path d="M15.7212 35.999H12.3172C10.9778 35.8628 10.2095 34.5083 10.2095 33.2487V23.5626C10.2095 22.2785 11.0039 20.8921 12.3854 20.8123H15.6175C16.9989 20.8836 17.7934 22.2851 17.7934 23.5626V33.2487C17.7934 34.467 17.069 35.829 15.7222 35.999H15.7212Z" fill="url(#paint2_linear_4716_4305)"/>
<path d="M6.04617 35.9991H2.64303C1.31205 35.8544 0.549359 34.4962 0.550294 33.2563L0.554033 28.1248C0.554033 26.8699 1.44945 25.4469 2.71032 25.4459L5.94242 25.4431C7.24816 25.4422 8.12582 26.8774 8.12675 28.1277L8.12956 33.2535C8.12956 34.4671 7.40051 35.8403 6.04617 35.9991Z" fill="url(#paint3_linear_4716_4305)"/>
</g>
<defs>
<linearGradient id="paint0_linear_4716_4305" x1="-0.000976562" y1="9.56164" x2="27.9998" y2="9.56164" gradientUnits="userSpaceOnUse">
<stop stop-color="#21CFFF"/>
<stop offset="1" stop-color="#019AE6"/>
</linearGradient>
<linearGradient id="paint1_linear_4716_4305" x1="20.0938" y1="25.6291" x2="27.6711" y2="25.6291" gradientUnits="userSpaceOnUse">
<stop stop-color="#21CFFF"/>
<stop offset="1" stop-color="#019AE6"/>
</linearGradient>
<linearGradient id="paint2_linear_4716_4305" x1="10.2095" y1="28.4056" x2="17.7934" y2="28.4056" gradientUnits="userSpaceOnUse">
<stop stop-color="#21CFFF"/>
<stop offset="1" stop-color="#019AE6"/>
</linearGradient>
<linearGradient id="paint3_linear_4716_4305" x1="0.550293" y1="30.7211" x2="8.12956" y2="30.7211" gradientUnits="userSpaceOnUse">
<stop stop-color="#21CFFF"/>
<stop offset="1" stop-color="#019AE6"/>
</linearGradient>
<clipPath id="clip0_4716_4305">
<rect width="28" height="36" fill="white"/>
</clipPath>
</defs>
</svg>
