<svg width="20" height="20" viewBox="0 0 20 20" fill="none" xmlns="http://www.w3.org/2000/svg">
<g clip-path="url(#clip0_3515_882)">
<path d="M20 15.5578C20 18.0288 18.0222 20.0006 15.5699 20.0006H4.42254C1.99988 20 0 18.0498 0 15.617V4.38761C0 1.95373 1.99988 0.00523216 4.42254 0.00465087L15.5269 5.18587e-07C17.9972 -0.00116207 19.9988 1.95257 19.9988 4.43411L20 15.5578ZM9.54292 13.5697L11.7702 6.89531C11.9022 6.49945 11.6893 6.10766 11.3276 5.99198C10.9659 5.8763 10.5746 6.06522 10.446 6.44946L8.22459 13.1099C8.09723 13.4924 8.28914 13.8732 8.63631 14.0016C8.98058 14.1289 9.40684 13.9761 9.54233 13.5697H9.54292ZM6.1555 12.7263C6.45092 13.0216 6.89521 12.9791 7.14934 12.7158C7.41219 12.4438 7.41044 12.0113 7.13131 11.7323L5.40126 10.0017L7.11037 8.29565C7.39881 8.00733 7.42673 7.57717 7.14934 7.28826C6.87195 6.99936 6.43405 6.99762 6.14503 7.2871L3.92359 9.50881C3.64852 9.78376 3.64794 10.2203 3.92359 10.4958L6.1555 12.7263ZM13.8846 12.6838L16.0491 10.5191C16.3497 10.2186 16.3509 9.7855 16.0491 9.48497L13.8491 7.28768C13.5584 6.99762 13.1112 7.00924 12.8431 7.28943C12.575 7.56961 12.5837 7.99279 12.8629 8.2724L14.5923 10.0017L12.8419 11.7555C12.5541 12.0438 12.6058 12.5124 12.8856 12.7553C13.185 13.0158 13.588 12.9803 13.884 12.6838H13.8846Z" fill="url(#paint0_linear_3515_882)"/>
</g>
<defs>
<linearGradient id="paint0_linear_3515_882" x1="0" y1="10.0003" x2="20" y2="10.0003" gradientUnits="userSpaceOnUse">
<stop stop-color="#21CFFF"/>
<stop offset="1" stop-color="#019AE6"/>
</linearGradient>
<clipPath id="clip0_3515_882">
<rect width="20" height="20" fill="white"/>
</clipPath>
</defs>
</svg>
