<svg width="20" height="20" viewBox="0 0 20 20" fill="none" xmlns="http://www.w3.org/2000/svg">
<g clip-path="url(#clip0_6504_12507)">
<path d="M9.83651 3.68585C13.3454 3.59293 16.2291 6.38049 16.3164 9.83255C16.4037 13.2846 13.6467 16.2214 10.166 16.3115C6.68529 16.4016 3.80159 13.6675 3.68613 10.2014C3.57067 6.73527 6.31356 3.77877 9.83651 3.68585ZM11.9064 12.7158C12.1485 12.9552 12.5174 12.896 12.7118 12.6933C12.9061 12.4906 12.9342 12.1245 12.7089 11.8965L10.5771 9.76216V6.54943C10.5771 6.21154 10.2843 5.97502 9.98295 5.98629C9.69852 5.99474 9.42818 6.22562 9.42818 6.55225V10.0043C9.42818 10.1451 9.49858 10.314 9.59714 10.4126L11.9092 12.7215L11.9064 12.7158Z" fill="url(#paint0_linear_6504_12507)"/>
<path d="M16.2007 3.94513C13.2551 0.935139 8.60007 0.476178 5.13626 2.83011C1.70624 5.15589 0.365773 9.61598 2.06389 13.4848C3.762 17.3536 7.78903 19.3612 11.8724 18.4658C15.7811 17.607 18.6874 14.0901 18.6677 9.97639C18.6677 9.63006 18.9831 9.34004 19.3125 9.33441C19.6815 9.32878 19.9969 9.60472 19.9997 10.0017C20.0081 12.4373 19.1098 14.7575 17.5497 16.5567C13.8183 20.8563 7.29622 21.1519 3.18188 17.3169C-1.06763 13.3581 -1.07044 6.61725 3.21286 2.65272C6.72455 -0.590976 12.1258 -0.920415 16.0008 2.00229V0.662015C16.0008 0.290341 16.3049 0.011586 16.6457 0.000323111C17.009 -0.0109397 17.3328 0.273447 17.3356 0.664831V3.46083C17.3356 3.73959 17.1723 3.97329 16.9555 4.06903C16.7105 4.17884 16.4148 4.15631 16.2064 3.94513H16.2007Z" fill="url(#paint1_linear_6504_12507)"/>
</g>
<defs>
<linearGradient id="paint0_linear_6504_12507" x1="3.68262" y1="9.99863" x2="16.3184" y2="9.99863" gradientUnits="userSpaceOnUse">
<stop stop-color="#21CFFF"/>
<stop offset="1" stop-color="#019AE6"/>
</linearGradient>
<linearGradient id="paint1_linear_6504_12507" x1="-0.00244141" y1="10.0001" x2="19.9997" y2="10.0001" gradientUnits="userSpaceOnUse">
<stop stop-color="#21CFFF"/>
<stop offset="1" stop-color="#019AE6"/>
</linearGradient>
<clipPath id="clip0_6504_12507">
<rect width="20" height="20" fill="white"/>
</clipPath>
</defs>
</svg>
