<svg width="22" height="22" viewBox="0 0 22 22" fill="none" xmlns="http://www.w3.org/2000/svg">
<g clip-path="url(#clip0_6675_4728)">
<path d="M17.6859 9.76241C18.458 9.76241 19.1321 9.44393 19.6714 8.9172L20.5293 8.07199C21.7059 11.4283 21.0441 15.1277 18.9238 17.8838C15.0263 22.9306 7.63574 23.396 3.13769 18.9495C-1.05395 14.8092 -1.0417 8.01074 3.26025 3.88268C6.04242 1.22455 10.1238 0.244596 13.8619 1.49404L12.955 2.425C12.477 2.90273 12.2073 3.5397 12.1951 4.22567L12.1706 5.95284C8.61624 4.92388 5.11095 7.38602 4.79228 10.9629C4.47362 14.5397 7.53769 17.5898 11.1655 17.2101C14.7934 16.8303 17.1466 13.3025 16.0681 9.77466H17.6859V9.76241Z" fill="#F5214E"/>
<path d="M15.3322 7.93753L13.0771 10.2159C13.7021 11.4776 13.3222 12.9475 12.2191 13.7683C11.1161 14.589 9.52276 14.4787 8.53 13.4865C7.53725 12.4943 7.41468 10.9876 8.21134 9.86069C9.008 8.73374 10.5033 8.31726 11.7657 8.92973L14.0086 6.66358V4.33619C14.0086 4.07895 14.1066 3.84621 14.2904 3.66247L17.7099 0.257125C17.9673 -0.000113099 18.3473 -0.0613603 18.6904 0.0733836C18.9601 0.171379 19.2297 0.465366 19.2542 0.8206L19.3891 2.59677L21.0927 2.71926C21.4726 2.74376 21.7913 2.96425 21.9138 3.28274C22.0487 3.63797 21.9751 4.0177 21.6932 4.28719L18.335 7.64354C18.1389 7.83953 17.8938 7.93753 17.6242 7.93753H15.32H15.3322Z" fill="#F5214E"/>
</g>
<defs>
<clipPath id="clip0_6675_4728">
<rect width="22" height="22" fill="white"/>
</clipPath>
</defs>
</svg>
