<svg width="21" height="22" viewBox="0 0 21 22" fill="none" xmlns="http://www.w3.org/2000/svg">
<g clip-path="url(#clip0_201_70)">
<path d="M18.7758 22H17.2529C16.0305 22 15.0086 20.9935 15.0086 19.7096V8.90476C15.0086 7.62092 16.0305 6.61438 17.2529 6.61438H18.7557C19.9781 6.61438 21 7.62092 21 8.90476V19.7096C21 20.9729 19.9981 22 18.7758 22Z" fill="#00A362"/>
<path d="M11.2711 22.0001H9.74818C8.52585 22.0001 7.50391 20.9936 7.50391 19.72V13.5267C7.50391 12.2429 8.53587 11.2363 9.7582 11.2363H11.241C12.4634 11.2363 13.4953 12.2429 13.4953 13.5267V19.72C13.4953 20.9833 12.5034 22.0001 11.2711 22.0001Z" fill="#00A362"/>
<path d="M18.3152 3.90298L18.4655 3.08132L1.86384 12.6742C1.50315 12.8796 1.08235 12.7358 0.871952 12.4072C0.691608 12.1196 0.701627 11.5855 1.07233 11.3698L17.7241 1.73585C17.4535 1.64341 17.183 1.58178 16.9125 1.50989C16.5017 1.40718 16.2713 0.975809 16.3715 0.585519C16.4717 0.19523 16.8724 -0.0718102 17.2832 0.0308976L19.8281 0.657415C20.2088 0.749852 20.4693 1.16068 20.3791 1.56124L19.7679 4.20083C19.6778 4.60139 19.297 4.83762 18.9163 4.776C18.5356 4.71437 18.225 4.34462 18.3052 3.91325L18.3152 3.90298Z" fill="#00A362"/>
<path d="M6.00143 19.6996C6.00143 20.9937 4.97948 22.0003 3.74714 22.0003H2.25429C0.991889 22.0003 0 20.9629 0 19.6688V16.9779C0 15.7351 0.991889 14.708 2.2042 14.708H3.80725C5.01956 14.708 6.00143 15.7351 6.00143 16.9779V19.6996Z" fill="#00A362"/>
</g>
<defs>
<clipPath id="clip0_201_70">
<rect width="21" height="22" fill="white"/>
</clipPath>
</defs>
</svg>
