<svg width="17" height="16" viewBox="0 0 17 16" fill="none" xmlns="http://www.w3.org/2000/svg">
<g clip-path="url(#clip0_6614_1372)">
<path d="M6.59431 16.0004H6.36328C6.14416 15.9166 5.97738 15.7859 5.92079 15.5565C5.69912 14.6531 4.93796 13.9751 3.96151 13.7735C3.69517 13.7187 3.51435 13.4995 3.51477 13.2662C3.5152 13.0329 3.69772 12.8168 3.96194 12.7624C4.95668 12.5581 5.71019 11.8653 5.93271 10.9497C5.99227 10.7054 6.23138 10.5391 6.48113 10.5391C6.73386 10.5391 6.97255 10.7062 7.03212 10.9501C7.25336 11.8625 8.00559 12.5557 8.99778 12.7613C9.26199 12.8161 9.44877 13.0325 9.44962 13.2658C9.45048 13.4991 9.27093 13.7179 9.00246 13.7735C8.03409 13.9739 7.27293 14.6437 7.04913 15.5393C6.98957 15.7769 6.82789 15.9198 6.59431 16.0004Z" fill="url(#paint0_linear_6614_1372)"/>
<path d="M5.73613 9.12949C5.67572 9.38941 5.43022 9.54324 5.18643 9.54442C4.94264 9.54559 4.69501 9.38314 4.64013 9.14358C4.19381 7.2048 2.55831 5.69306 0.451396 5.27932C0.193137 5.22882 0.0110363 5.02097 0.000399617 4.79432C-0.0102371 4.56768 0.164205 4.32303 0.433101 4.27058C2.54342 3.86114 4.18573 2.3545 4.63672 0.41375C4.69331 0.170667 4.93285 -0.000390767 5.18728 6.70417e-07C5.43916 0.000392108 5.67997 0.171059 5.73656 0.414924C6.18713 2.35841 7.83156 3.86192 9.94316 4.27176C10.2001 4.32147 10.3695 4.55202 10.3729 4.76497C10.3767 5.00374 10.1916 5.2253 9.92487 5.27814C7.82816 5.69072 6.18926 7.18522 5.73613 9.12949Z" fill="url(#paint1_linear_6614_1372)"/>
<path d="M13.3414 11.8759C13.5839 11.8735 13.8247 11.7221 13.8856 11.4668C14.183 10.2162 15.2232 9.2748 16.5664 9.00784C16.8255 8.95617 16.9974 8.73814 17.0008 8.51384C17.0042 8.28955 16.8323 8.05938 16.5732 8.00811C15.2207 7.74075 14.1753 6.78878 13.8851 5.54166C13.8294 5.30132 13.5903 5.13809 13.341 5.1377C13.0916 5.1373 12.85 5.3021 12.7938 5.54244C12.5011 6.79113 11.4578 7.74193 10.1027 8.00889C9.84276 8.06017 9.67385 8.29542 9.67768 8.51423C9.68151 8.74088 9.8568 8.95734 10.118 9.0094C11.4621 9.27675 12.4994 10.2268 12.7904 11.4637C12.8483 11.7099 13.0989 11.8782 13.3414 11.8759Z" fill="url(#paint2_linear_6614_1372)"/>
</g>
<defs>
<linearGradient id="paint0_linear_6614_1372" x1="3.51477" y1="13.2697" x2="9.44963" y2="13.2697" gradientUnits="userSpaceOnUse">
<stop stop-color="#21CFFF"/>
<stop offset="1" stop-color="#019AE6"/>
</linearGradient>
<linearGradient id="paint1_linear_6614_1372" x1="-6.10352e-05" y1="4.77221" x2="10.3729" y2="4.77221" gradientUnits="userSpaceOnUse">
<stop stop-color="#21CFFF"/>
<stop offset="1" stop-color="#019AE6"/>
</linearGradient>
<linearGradient id="paint2_linear_6614_1372" x1="9.67761" y1="8.50681" x2="17.0009" y2="8.50681" gradientUnits="userSpaceOnUse">
<stop stop-color="#21CFFF"/>
<stop offset="1" stop-color="#019AE6"/>
</linearGradient>
<clipPath id="clip0_6614_1372">
<rect width="17" height="16" fill="white"/>
</clipPath>
</defs>
</svg>
