<svg width="40" height="36" viewBox="0 0 40 36" fill="none" xmlns="http://www.w3.org/2000/svg">
<g clip-path="url(#clip0_4716_4250)">
<path d="M11.6735 28.2558C6.78601 26.1305 2.86188 22.3634 0 17.9832C2.92708 13.6957 6.88942 9.92414 11.6847 7.79434C16.5238 5.61652 21.9688 5.42777 26.9552 7.23257C32.3237 9.19038 36.9156 13.2311 39.9989 17.9966C36.621 22.9576 31.8044 27.2473 25.9795 29.0722C21.2719 30.5208 16.2405 30.2248 11.6723 28.257L11.6735 28.2558ZM18.99 9.41263C14.1509 9.9811 10.7877 14.3636 11.3823 19.0699C11.9747 23.7673 16.2844 27.1334 21.01 26.5817C25.7569 26.0278 29.182 21.7257 28.6244 16.9915C28.0725 12.313 23.8067 8.8464 18.99 9.41263Z" fill="url(#paint0_linear_4716_4250)"/>
<path d="M7.34364 6.62285L4.88867 4.17364L6.10941 2.97192L8.55539 5.40774L7.34364 6.62285Z" fill="url(#paint1_linear_4716_4250)"/>
<path d="M32.6667 6.61503L31.4448 5.40327L33.8886 2.97192L35.1048 4.18257L32.6667 6.61503Z" fill="url(#paint2_linear_4716_4250)"/>
<path d="M6.10361 33.0281L4.875 31.8219L7.32772 29.3805L8.54284 30.5956L6.10361 33.0281Z" fill="url(#paint3_linear_4716_4250)"/>
<path d="M33.8906 33.0326L31.439 30.5979L32.6496 29.3783L35.1023 31.8163L33.8906 33.0326Z" fill="url(#paint4_linear_4716_4250)"/>
<path d="M20.8617 3.44431L19.1385 3.45437L19.1362 0.013402L20.8561 0L20.8617 3.44431Z" fill="url(#paint5_linear_4716_4250)"/>
<path d="M20.8628 35.9855L19.1396 36L19.1362 32.5512L20.8504 32.5389L20.8628 35.9855Z" fill="url(#paint6_linear_4716_4250)"/>
<path d="M21.8508 16.1092C23.2132 17.4651 24.7812 17.0418 25.0949 17.1546C25.2174 17.1993 25.5096 19.8238 23.6201 21.6565C22.4971 22.7455 20.9448 23.3173 19.3295 23.0872C17.0285 22.76 15.2109 20.9563 14.8816 18.6668C14.6511 17.0619 15.2143 15.524 16.3148 14.3938C18.2189 12.4382 20.829 12.8727 20.8301 12.8749C20.956 13.3752 20.566 14.8305 21.8508 16.1092Z" fill="url(#paint7_linear_4716_4250)"/>
</g>
<defs>
<linearGradient id="paint0_linear_4716_4250" x1="0" y1="17.9932" x2="39.9989" y2="17.9932" gradientUnits="userSpaceOnUse">
<stop stop-color="#21CFFF"/>
<stop offset="1" stop-color="#019AE6"/>
</linearGradient>
<linearGradient id="paint1_linear_4716_4250" x1="4.88867" y1="4.79739" x2="8.55539" y2="4.79739" gradientUnits="userSpaceOnUse">
<stop stop-color="#21CFFF"/>
<stop offset="1" stop-color="#019AE6"/>
</linearGradient>
<linearGradient id="paint2_linear_4716_4250" x1="31.4448" y1="4.79348" x2="35.1048" y2="4.79348" gradientUnits="userSpaceOnUse">
<stop stop-color="#21CFFF"/>
<stop offset="1" stop-color="#019AE6"/>
</linearGradient>
<linearGradient id="paint3_linear_4716_4250" x1="4.875" y1="31.2043" x2="8.54284" y2="31.2043" gradientUnits="userSpaceOnUse">
<stop stop-color="#21CFFF"/>
<stop offset="1" stop-color="#019AE6"/>
</linearGradient>
<linearGradient id="paint4_linear_4716_4250" x1="31.439" y1="31.2054" x2="35.1023" y2="31.2054" gradientUnits="userSpaceOnUse">
<stop stop-color="#21CFFF"/>
<stop offset="1" stop-color="#019AE6"/>
</linearGradient>
<linearGradient id="paint5_linear_4716_4250" x1="19.1362" y1="1.72718" x2="20.8617" y2="1.72718" gradientUnits="userSpaceOnUse">
<stop stop-color="#21CFFF"/>
<stop offset="1" stop-color="#019AE6"/>
</linearGradient>
<linearGradient id="paint6_linear_4716_4250" x1="19.1362" y1="34.2695" x2="20.8628" y2="34.2695" gradientUnits="userSpaceOnUse">
<stop stop-color="#21CFFF"/>
<stop offset="1" stop-color="#019AE6"/>
</linearGradient>
<linearGradient id="paint7_linear_4716_4250" x1="14.8306" y1="17.9849" x2="25.1877" y2="17.9849" gradientUnits="userSpaceOnUse">
<stop stop-color="#21CFFF"/>
<stop offset="1" stop-color="#019AE6"/>
</linearGradient>
<clipPath id="clip0_4716_4250">
<rect width="40" height="36" fill="white"/>
</clipPath>
</defs>
</svg>
