<svg width="21" height="22" viewBox="0 0 21 22" fill="none" xmlns="http://www.w3.org/2000/svg">
<g clip-path="url(#clip0_6675_4720)">
<path d="M6.73068 16.4696C6.65068 16.3896 6.58068 16.2996 6.52068 16.2296C4.84068 14.9696 3.90068 12.9996 3.94068 10.9096C3.99068 7.89958 6.12068 5.33958 8.96068 4.66958C11.9607 3.95958 14.9907 5.40958 16.3407 8.09958C17.6907 10.7896 17.0007 14.1996 14.6107 16.1296C14.4907 16.2196 14.4107 16.3296 14.3107 16.4596H6.74068L6.73068 16.4696ZM7.72068 12.1496L9.21068 13.6296C9.52068 13.9396 10.0407 13.9196 10.3207 13.5696L13.3107 9.82958C13.5807 9.48958 13.5207 9.01958 13.2007 8.76958C12.8807 8.51958 12.4107 8.55958 12.1407 8.88958L9.68068 11.9696L8.77068 11.0696C8.46068 10.7696 7.98068 10.7796 7.70068 11.0696C7.42068 11.3596 7.41068 11.8196 7.72068 12.1296V12.1496Z" fill="#3D6AFF"/>
<path d="M12.0102 21.7097H8.94023C7.71023 21.7097 6.74023 20.6897 6.74023 19.4697V17.9697H14.2302V19.5197C14.2202 20.7097 13.2502 21.7097 12.0202 21.7097H12.0102Z" fill="#3D6AFF"/>
<path d="M20.25 11.9705H18.72C18.3 11.9705 17.98 11.6305 17.97 11.2505C17.96 10.8405 18.28 10.4805 18.72 10.4805H20.22C20.64 10.4805 20.95 10.8205 20.96 11.2005C20.97 11.5805 20.68 11.9705 20.25 11.9705Z" fill="#3D6AFF"/>
<path d="M2.24022 11.9805H0.750221C0.330221 11.9805 0.0102214 11.6405 0.000221358 11.2505C-0.00977864 10.8405 0.320221 10.4805 0.750221 10.4805H2.25022C2.66022 10.4805 2.97022 10.8305 2.98022 11.2105C2.99022 11.6105 2.68022 11.9805 2.23022 11.9805H2.24022Z" fill="#3D6AFF"/>
<path d="M11.2302 2.23023C11.2302 2.67023 10.8902 2.98023 10.5102 3.00023C10.1002 3.01023 9.74023 2.69023 9.74023 2.26023V0.740228C9.74023 0.320228 10.0802 0.010228 10.4702 0.000228008C10.8602 -0.00977199 11.2302 0.310228 11.2302 0.750228V2.23023Z" fill="#3D6AFF"/>
<path d="M17.9701 4.79003C17.6501 5.11003 17.1701 5.07003 16.9001 4.79003C16.6301 4.51003 16.6201 4.02003 16.9201 3.72003L17.9801 2.67003C18.2701 2.38003 18.7401 2.40003 19.0101 2.67003C19.2801 2.94003 19.3301 3.43003 19.0301 3.73003L17.9701 4.79003Z" fill="#3D6AFF"/>
<path d="M4.04969 3.7396C4.35968 4.0496 4.31968 4.5296 4.04969 4.7996C3.74969 5.0896 3.28969 5.0896 2.98968 4.7796L1.91968 3.6996C1.62968 3.4096 1.67968 2.9196 1.95968 2.6596C2.23968 2.3996 2.70968 2.3796 2.99968 2.6596L4.05968 3.7196L4.04969 3.7396Z" fill="#3D6AFF"/>
</g>
<defs>
<clipPath id="clip0_6675_4720">
<rect width="20.96" height="21.71" fill="white"/>
</clipPath>
</defs>
</svg>
