<svg width="43" height="45" viewBox="0 0 43 45" fill="none" xmlns="http://www.w3.org/2000/svg">
<g clip-path="url(#clip0_6327_5759)">
<path d="M25.7911 41.3528L24.404 45.0001H18.5936L17.2148 41.3637C15.3119 40.8763 13.5682 40.1732 11.8627 39.0898L8.36088 40.6704L4.24387 36.4759L5.78775 32.8992C4.73217 31.1578 4.03323 29.3847 3.56049 27.4313L0 26.0286V23.0674L11.3505 23.0637C11.3565 28.79 15.9007 33.3903 21.4563 33.4159C27.049 33.4415 31.6399 28.8229 31.6483 23.0637L42.9988 23.0674V26.0298L39.4383 27.4349C38.9644 29.3835 38.2678 31.1566 37.2122 32.8992L38.7573 36.4759L34.6499 40.6691L31.16 39.0947C29.4845 40.1147 27.7719 40.8836 25.7911 41.354V41.3528Z" fill="url(#paint0_linear_6327_5759)"/>
<path d="M26.0136 30.6738L17.0112 30.6763C15.1729 29.56 13.8193 27.7906 13.1719 25.6885C15.1119 22.938 18.2032 21.3465 21.4586 21.3319C24.7569 21.3173 27.8698 22.9124 29.8302 25.6872C29.1887 27.776 27.871 29.5064 26.0136 30.675V30.6738Z" fill="url(#paint1_linear_6327_5759)"/>
<path d="M20.6924 9.9001C23.6006 9.43215 26.2024 11.4746 26.6285 14.3456C27.0534 17.207 25.1038 19.9196 22.2685 20.3546C19.5015 20.7799 16.859 18.8557 16.3863 16.0151C15.9123 13.1624 17.7662 10.3705 20.6924 9.9001Z" fill="url(#paint2_linear_6327_5759)"/>
<path d="M23.7163 7.59566L21.4926 6.13575L19.4245 7.51158C19.3779 7.54204 19.2498 7.58957 19.2127 7.60541C19.1589 7.62856 19.0488 7.42871 19.0703 7.34828L19.7261 4.82208L17.7682 3.2001C17.7107 3.15257 17.6461 3.0039 17.6628 2.95881C17.6796 2.91372 17.7861 2.84913 17.8543 2.84548L20.4095 2.69315C20.7901 1.73532 21.0007 0.955398 21.501 0C21.9941 0.95418 22.2155 1.74019 22.5853 2.69071L25.0938 2.83451C25.1656 2.83817 25.308 2.89788 25.3308 2.95759C25.3535 3.0173 25.2673 3.17816 25.2111 3.22447L23.2675 4.81964L23.9269 7.30929C23.9485 7.3885 23.8096 7.65659 23.7175 7.59566H23.7163Z" fill="url(#paint3_linear_6327_5759)"/>
<path d="M12.708 13.8813L10.4891 12.4214L8.35523 13.8362C8.30018 13.8728 8.15178 13.8789 8.12186 13.8569C8.09194 13.835 8.04646 13.69 8.0668 13.6108L8.71906 11.1114L6.72758 9.45284C6.68808 9.41993 6.62585 9.28589 6.6438 9.2603C6.67133 9.22252 6.77784 9.13356 6.82452 9.13112L9.40124 8.97879L10.2833 6.62686C10.312 6.54887 10.3994 6.44163 10.4508 6.40994C10.5143 6.37095 10.6687 6.54399 10.6974 6.62198L11.5806 8.98245C12.5536 9.04582 13.3675 9.03607 14.4446 9.20058C13.7265 9.97563 13.0479 10.4314 12.2604 11.0992L12.9175 13.6096C12.9378 13.6863 12.7882 13.9349 12.7056 13.8801L12.708 13.8813Z" fill="url(#paint4_linear_6327_5759)"/>
<path d="M34.5629 13.8375L32.411 12.4239L30.2915 13.8278C30.2424 13.8607 30.0904 13.8741 30.0533 13.8631C30.0162 13.8522 29.9683 13.7035 29.9803 13.6572L30.6398 11.1359C29.9348 10.4205 29.1641 10.0293 28.4688 9.18972L31.3243 8.9789L32.2219 6.59406C32.2471 6.52825 32.35 6.42954 32.3883 6.40761C32.4397 6.37836 32.5762 6.49779 32.5989 6.56116L33.5013 8.97768L35.9978 9.11904C36.0864 9.12391 36.2623 9.19825 36.254 9.26162C36.2456 9.32499 36.175 9.46147 36.1175 9.509L34.1823 11.1176L34.831 13.5585C34.8477 13.6194 34.831 13.7778 34.8214 13.8144C34.807 13.8704 34.6323 13.8838 34.5617 13.8375H34.5629Z" fill="url(#paint5_linear_6327_5759)"/>
</g>
<defs>
<linearGradient id="paint0_linear_6327_5759" x1="0" y1="34.0319" x2="42.9988" y2="34.0319" gradientUnits="userSpaceOnUse">
<stop stop-color="#21CFFF"/>
<stop offset="1" stop-color="#019AE6"/>
</linearGradient>
<linearGradient id="paint1_linear_6327_5759" x1="13.1719" y1="26.004" x2="29.8302" y2="26.004" gradientUnits="userSpaceOnUse">
<stop stop-color="#21CFFF"/>
<stop offset="1" stop-color="#019AE6"/>
</linearGradient>
<linearGradient id="paint2_linear_6327_5759" x1="16.3125" y1="15.1234" x2="26.6866" y2="15.1234" gradientUnits="userSpaceOnUse">
<stop stop-color="#21CFFF"/>
<stop offset="1" stop-color="#019AE6"/>
</linearGradient>
<linearGradient id="paint3_linear_6327_5759" x1="17.6602" y1="3.80363" x2="25.3345" y2="3.80363" gradientUnits="userSpaceOnUse">
<stop stop-color="#21CFFF"/>
<stop offset="1" stop-color="#019AE6"/>
</linearGradient>
<linearGradient id="paint4_linear_6327_5759" x1="6.64062" y1="10.1461" x2="14.4446" y2="10.1461" gradientUnits="userSpaceOnUse">
<stop stop-color="#21CFFF"/>
<stop offset="1" stop-color="#019AE6"/>
</linearGradient>
<linearGradient id="paint5_linear_6327_5759" x1="28.4688" y1="10.135" x2="36.2543" y2="10.135" gradientUnits="userSpaceOnUse">
<stop stop-color="#21CFFF"/>
<stop offset="1" stop-color="#019AE6"/>
</linearGradient>
<clipPath id="clip0_6327_5759">
<rect width="43" height="45" fill="white"/>
</clipPath>
</defs>
</svg>
