<svg width="18" height="20" viewBox="0 0 18 20" fill="none" xmlns="http://www.w3.org/2000/svg">
<g clip-path="url(#clip0_3515_885)">
<path d="M9.82834 10.2056V13.0935C9.10221 12.6824 8.30448 12.6105 7.52721 12.9805C6.91357 13.2682 6.40221 13.8849 6.2488 14.6351C3.40562 14.2138 1.10448 12.1377 0.316979 9.4964C-0.562566 6.55704 0.429479 3.46352 2.78175 1.59301C5.27721 -0.4111 8.78516 -0.544707 11.4238 1.22302C14.0624 2.99075 15.2795 6.15622 14.4511 9.23947C13.9806 8.18088 12.8658 7.59507 11.7408 7.84173C10.6158 8.08839 9.83857 9.02364 9.83857 10.2056H9.82834ZM8.03857 10.8016C8.03857 10.6989 8.03857 10.5755 8.05902 10.5036C8.36584 10.3905 8.64198 10.2878 8.90789 10.1028C9.55221 9.66084 9.86925 8.86948 9.6238 8.11922C9.34766 7.24563 8.2738 6.88592 7.46584 6.69065C7.16925 6.61871 6.4738 6.44399 6.38175 6.15622C6.32039 5.95067 6.60675 5.70401 6.84198 5.63207C7.23062 5.49846 7.61925 5.46763 8.03857 5.46763C8.07948 5.87873 8.36584 6.14594 8.73402 6.15622C9.07152 6.15622 9.3988 5.89928 9.41925 5.52929C9.46016 4.72765 8.84653 4.06989 8.02834 4.04933C8.07948 3.58685 7.79312 3.21686 7.38402 3.1963C6.97493 3.17575 6.63743 3.50463 6.65789 3.94656C6.65789 4.02878 6.64766 4.17266 6.62721 4.2446C6.28971 4.35766 5.99312 4.48099 5.71698 4.68654C5.09312 5.14902 4.82721 5.96095 5.09312 6.69065C5.2363 7.08119 5.55334 7.35869 5.9113 7.56423C6.82153 8.09866 7.92607 8.04728 8.28403 8.5406C8.41698 8.72559 8.1613 8.96197 7.99766 9.03392C7.56812 9.21891 7.12834 9.28058 6.64766 9.29085C6.61698 8.84892 6.29993 8.57143 5.9113 8.59198C5.52266 8.61254 5.24653 8.93114 5.26698 9.33196C5.29766 10.1028 5.9113 10.668 6.66812 10.6989C6.60675 11.1614 6.90334 11.5211 7.30221 11.5519C7.70107 11.5827 8.0488 11.2641 8.0488 10.8016H8.03857Z" fill="url(#paint0_linear_3515_885)"/>
<path d="M15.7911 20H11.782C11.4138 20 11.0865 19.8561 10.8513 19.5889L7.67062 15.9712C7.26153 15.5087 7.24108 14.8613 7.60926 14.3885C7.97744 13.9157 8.65244 13.7513 9.18426 14.0802L10.9843 15.1901V10.2569C10.9843 9.53751 11.5161 8.98253 12.2013 8.96197C12.8558 8.94142 13.5002 9.44501 13.5002 10.1644V13.371L16.6808 13.7616C17.6115 13.8746 18.1945 14.7688 17.9593 15.6732L16.9672 19.1161C16.8138 19.63 16.374 20.0206 15.7911 20.0206V20Z" fill="url(#paint1_linear_3515_885)"/>
</g>
<defs>
<linearGradient id="paint0_linear_3515_885" x1="0" y1="7.31121" x2="14.7081" y2="7.31121" gradientUnits="userSpaceOnUse">
<stop stop-color="#21CFFF"/>
<stop offset="1" stop-color="#019AE6"/>
</linearGradient>
<linearGradient id="paint1_linear_3515_885" x1="7.34766" y1="14.491" x2="18.0115" y2="14.491" gradientUnits="userSpaceOnUse">
<stop stop-color="#21CFFF"/>
<stop offset="1" stop-color="#019AE6"/>
</linearGradient>
<clipPath id="clip0_3515_885">
<rect width="18" height="20" fill="white"/>
</clipPath>
</defs>
</svg>
