<svg width="54" height="17" viewBox="0 0 54 17" fill="none" xmlns="http://www.w3.org/2000/svg">
<g clip-path="url(#clip0_6523_12545)">
<path d="M22.1179 9.4483C22.112 9.87092 22.2157 10.3512 22.5915 10.606C22.9878 10.8744 23.411 10.8733 23.5819 11.4064C23.7229 11.8466 23.5602 12.352 23.2218 12.6736C22.8829 12.9952 22.3918 13.1396 21.9205 13.1097C20.9257 13.0466 20.6279 12.1784 20.3827 11.3645C20.3211 11.1822 20.2375 11.1045 20.1319 11.1311C20.0259 11.1581 19.9409 11.2409 19.8763 11.3795C19.6707 11.7981 19.4117 12.1842 19.099 12.5379C18.7863 12.892 18.4086 13.1017 17.9653 13.1666C17.4634 13.2322 17.0514 13.1626 16.7275 12.958C16.404 12.7538 16.1592 12.4646 15.9939 12.0912C15.8282 11.7182 15.7386 11.2868 15.7244 10.7975C15.7103 10.3085 15.7625 9.81477 15.8812 9.3163C15.9995 8.81819 16.1786 8.34197 16.4178 7.88799C16.657 7.43437 16.9495 7.05587 17.2966 6.75212C17.6433 6.44873 18.0366 6.24453 18.4773 6.13988C18.918 6.03486 19.3994 6.08518 19.9226 6.29011C20.1793 6.39951 20.3943 6.43378 20.5674 6.39367C20.7406 6.35356 20.8898 6.26933 21.0156 6.14134C21.1231 5.98272 21.2567 5.85327 21.4175 5.75263C21.578 5.65198 21.7739 5.59583 22.006 5.58416C22.1926 5.58124 22.3694 5.61479 22.5362 5.6848C22.7027 5.75445 22.8404 5.85327 22.949 5.98016C23.0576 6.10742 23.1206 6.25511 23.1378 6.42321C23.1553 6.59131 23.1135 6.77144 23.0132 6.96288C22.9706 7.03982 22.9143 7.12004 22.8434 7.20245C22.7728 7.28523 22.706 7.37311 22.6434 7.46536C22.4642 7.73009 22.3362 8.04442 22.2601 8.4087C22.1993 8.69932 22.1224 9.08001 22.1172 9.44903M19.0706 10.5441C19.3013 10.2465 19.5188 9.9001 19.7233 9.50446C19.9278 9.10918 20.0595 8.74527 20.1192 8.41307C20.1525 8.23476 20.1416 8.08562 20.0871 7.96456C20.0327 7.84386 19.9513 7.74869 19.8431 7.67831C19.5636 7.51678 19.2945 7.5186 19.0363 7.68415C18.7781 7.85006 18.5512 8.09547 18.3553 8.42037C18.1594 8.74527 18.0116 9.10371 17.912 9.49534C17.8119 9.88733 17.7817 10.2334 17.8209 10.5346C17.8556 10.8139 17.9224 10.9948 18.022 11.0783C18.1213 11.1614 18.2321 11.1884 18.3549 11.1578C18.4773 11.1279 18.6019 11.0513 18.7288 10.9288C18.8553 10.8066 18.9691 10.6779 19.0699 10.5433" fill="#EA374B"/>
<path d="M31.1743 8.52007C31.384 9.64973 31.0478 10.9231 30.4541 11.8635C29.613 13.1948 28.1617 14.1557 26.525 13.9916C26.125 13.9518 25.754 13.8461 25.4126 13.6747C25.0166 13.4785 24.7021 13.1879 24.4692 12.8039C24.236 12.4199 24.0733 11.9769 23.9811 11.4748C23.8886 10.973 23.8546 10.4268 23.8785 9.8357C23.9024 9.24498 23.9677 8.64915 24.0751 8.04749C24.1822 7.44619 24.3255 6.85583 24.5047 6.27568C24.6838 5.69589 24.8816 5.16315 25.0987 4.67744C25.3159 4.1921 25.5465 3.77203 25.7913 3.41832C26.0358 3.06462 26.2709 2.81155 26.4959 2.65913C26.937 2.36814 27.3512 2.25583 27.7385 2.3222C28.1255 2.38856 28.4244 2.54463 28.6345 2.78967C28.8446 3.03508 28.933 3.32825 28.9002 3.66956C28.867 4.01123 28.6513 4.31097 28.2524 4.56987C28.1654 4.62311 28.0606 4.67707 27.9374 4.73104C27.8139 4.78574 27.7031 4.84044 27.6046 4.89586C27.4941 4.95384 27.3777 5.0698 27.2545 5.24337C27.1318 5.4173 27.0101 5.62697 26.89 5.87202C26.7694 6.11742 26.656 6.39382 26.5489 6.70231C26.4414 7.0108 26.3489 7.32804 26.2701 7.65476C26.2541 7.75395 26.2608 7.83016 26.2903 7.88376C26.3197 7.93773 26.3634 7.97091 26.4213 7.98331C26.4791 7.99607 26.5388 7.98987 26.6011 7.96544C26.6631 7.94137 26.7202 7.906 26.772 7.85969C27.1299 7.34627 27.543 6.97689 28.0102 6.75227C28.4774 6.52801 28.9334 6.45508 29.3782 6.53385C29.7712 6.59912 30.0992 6.74935 30.3623 6.98382C30.625 7.21865 30.8287 7.50417 30.972 7.84037C31.0646 8.0577 31.1314 8.28523 31.1747 8.51897M27.568 11.6848C28.8685 11.9386 29.3663 9.62275 29.276 8.77969C29.2372 8.41687 29.0846 8.18386 28.8185 8.0814C28.6039 7.99242 28.3912 8.01394 28.1804 8.14558C27.9692 8.27721 27.777 8.4712 27.6038 8.72682C27.4303 8.9828 27.2859 9.2716 27.1695 9.59358C27.053 9.91593 26.9829 10.2259 26.9594 10.5234C26.9355 10.8213 26.9706 11.0773 27.0642 11.2917C27.1575 11.5065 27.3258 11.6374 27.5684 11.6848" fill="#EA374B"/>
<path d="M38.98 7.39568C39.1897 8.52498 38.8535 9.79869 38.2597 10.7391C37.4186 12.0704 35.9674 13.0313 34.3307 12.8672C33.9306 12.8274 33.5597 12.7217 33.2182 12.5503C32.8223 12.3541 32.5077 12.0635 32.2749 11.6795C32.0416 11.2956 31.8789 10.8525 31.7868 10.3504C31.6942 9.84864 31.6603 9.30241 31.6841 8.71132C31.708 8.12059 31.7733 7.52476 31.8808 6.9231C31.9879 6.3218 32.1312 5.73144 32.3103 5.15129C32.4894 4.5715 32.6872 4.03876 32.9044 3.55305C33.1216 3.06771 33.3522 2.64764 33.597 2.2943C33.8414 1.94059 34.0765 1.68753 34.3015 1.53511C34.7426 1.24412 35.1568 1.13181 35.5442 1.19817C35.9312 1.26454 36.2301 1.42061 36.4402 1.66565C36.6503 1.91106 36.7387 2.20423 36.7059 2.54554C36.6727 2.88721 36.457 3.18695 36.0581 3.44585C35.9711 3.49908 35.8662 3.55305 35.7431 3.60702C35.6196 3.66172 35.5087 3.71641 35.4102 3.77184C35.2998 3.82982 35.1833 3.94577 35.0602 4.11934C34.9374 4.29364 34.8158 4.50295 34.6956 4.74799C34.5751 4.9934 34.4616 5.2698 34.3545 5.57829C34.2471 5.88678 34.1545 6.20438 34.0758 6.53074C34.0597 6.62992 34.0665 6.70613 34.0959 6.75974C34.1254 6.8137 34.1691 6.84689 34.2269 6.85929C34.2848 6.87205 34.3445 6.86585 34.4068 6.84142C34.4687 6.81735 34.5258 6.78198 34.5777 6.73567C34.9356 6.22225 35.3487 5.85323 35.8159 5.62824C36.2831 5.40399 36.7391 5.33106 37.1839 5.40982C37.5768 5.47509 37.9049 5.62496 38.1679 5.85979C38.4307 6.09463 38.6344 6.38014 38.7777 6.71634C38.8702 6.93367 38.937 7.16121 38.9803 7.39495M35.3737 10.5604C36.6742 10.8142 37.172 8.49836 37.0817 7.65531C37.0428 7.29248 36.8902 7.05948 36.6241 6.95701C36.4096 6.86804 36.1969 6.88955 35.986 7.02119C35.7748 7.15282 35.5826 7.34682 35.4095 7.60243C35.236 7.85841 35.0915 8.14721 34.9751 8.46919C34.8587 8.79154 34.7885 9.10149 34.765 9.39904C34.7411 9.69695 34.7762 9.95293 34.8699 10.1673C34.9632 10.3821 35.1315 10.513 35.374 10.5604" fill="#EA374B"/>
<path d="M43.7616 2.17653C43.5246 2.39131 43.2959 2.68776 43.075 3.06663C42.8537 3.44549 42.644 3.86119 42.4443 4.31335C42.2447 4.76551 42.0682 5.24028 41.9148 5.73729C41.7614 6.2343 41.6394 6.70688 41.5495 7.15539C41.4845 7.49123 41.4651 7.82415 41.4913 8.15342C41.517 8.48343 41.6032 8.7653 41.7499 8.99904C41.8965 9.23314 42.1081 9.39723 42.385 9.49167C42.6619 9.58611 43.0138 9.57299 43.4414 9.45192C43.9254 9.30789 44.3288 9.30534 44.6516 9.44427C44.9744 9.58356 45.2114 9.79651 45.3629 10.0831C45.5144 10.3701 45.5827 10.6972 45.5674 11.0651C45.5521 11.433 45.4401 11.7751 45.2304 12.092C45.0211 12.4085 44.7203 12.6688 44.3281 12.8723C43.9359 13.0758 43.4482 13.1578 42.8649 13.1184C42.3425 13.0787 41.8935 12.9645 41.5178 12.7764C41.142 12.5882 40.8251 12.3461 40.568 12.0504C40.3106 11.7547 40.1053 11.4159 39.9523 11.0338C39.7993 10.6516 39.6862 10.2556 39.6131 9.84538C39.54 9.43552 39.4989 9.01909 39.4907 8.5961C39.4821 8.17348 39.4926 7.76763 39.5217 7.37892C39.5758 6.69849 39.6758 6.00275 39.8213 5.29206C39.9669 4.58136 40.1482 3.90859 40.3647 3.27338C40.5811 2.63817 40.8255 2.06349 41.0979 1.54898C41.37 1.03446 41.6536 0.634083 41.9491 0.348201C42.2868 0.0900327 42.6391 -0.0251951 43.0063 0.00324718C43.3731 0.0320541 43.6706 0.152387 43.8986 0.363881C44.1262 0.576104 44.2501 0.8474 44.2702 1.17813C44.29 1.50923 44.121 1.84179 43.7624 2.17617" fill="#EA374B"/>
<path d="M46.7621 6.14234C46.6256 6.13359 46.5173 6.14344 46.4375 6.17115C46.3576 6.19886 46.3203 6.28419 46.3255 6.42677C46.3546 6.6842 46.4367 6.93107 46.5715 7.16699C46.7062 7.40328 46.8745 7.60894 47.0763 7.78397C47.2782 7.959 47.5115 8.09538 47.7764 8.19201C48.0414 8.28901 48.316 8.3149 48.6004 8.27041C49.028 8.20951 49.3956 8.0199 49.7027 7.7012C50.0095 7.38323 50.2442 7.01056 50.4061 6.58356C50.5677 6.15656 50.6588 5.71133 50.6785 5.24677C50.6979 4.78258 50.6356 4.37929 50.4908 4.03725C50.3177 3.61718 50.2722 3.23758 50.3546 2.89846C50.4367 2.55934 50.5871 2.28112 50.805 2.06452C51.023 1.84792 51.2864 1.70279 51.5954 1.62913C51.9044 1.55584 52.2048 1.57371 52.497 1.6831C52.7888 1.79286 53.0489 1.99815 53.2769 2.29935C53.5049 2.60091 53.649 3.01478 53.7098 3.5406C53.7829 4.24364 53.6993 4.94485 53.4598 5.6446C53.2198 6.34436 52.8758 6.98358 52.4272 7.563C51.979 8.14278 51.4517 8.63907 50.8465 9.05257C50.2412 9.46608 49.6161 9.74285 48.9724 9.88287C48.1873 10.051 47.5025 10.0827 46.9178 9.97768C46.3326 9.87266 45.8367 9.67867 45.4284 9.39498C45.0206 9.11165 44.6989 8.75685 44.4634 8.33131C44.228 7.90577 44.0716 7.44959 43.9947 6.96243C43.9175 6.47563 43.916 5.98263 43.9895 5.48343C44.063 4.9846 44.2041 4.51676 44.4134 4.08064C44.6224 3.64453 44.8952 3.26457 45.2314 2.94003C45.568 2.61623 45.9606 2.38541 46.4091 2.2483C47.0081 2.06962 47.5256 2.02623 47.9611 2.11885C48.3962 2.21184 48.7444 2.38468 49.0056 2.63774C49.2661 2.8908 49.4366 3.19492 49.5169 3.54972C49.5967 3.90452 49.5844 4.25713 49.4799 4.60646C49.3751 4.95652 49.1769 5.26756 48.8851 5.54104C48.5933 5.81453 48.2063 5.99904 47.7245 6.09494C47.5715 6.1252 47.417 6.14708 47.2607 6.16021C47.1043 6.17334 46.9379 6.16787 46.7614 6.14307M46.3513 4.69944C46.3162 4.76654 46.2946 4.83947 46.2867 4.91859C46.2785 4.99809 46.2871 5.0681 46.3121 5.12899C46.3367 5.18989 46.3811 5.24058 46.4449 5.28178C46.5088 5.32299 46.6006 5.33794 46.7203 5.3259C46.8073 5.33283 46.8913 5.32481 46.9726 5.30257C47.0536 5.28069 47.1387 5.2486 47.2279 5.20703C47.4741 5.09836 47.6585 4.93902 47.7801 4.72934C47.9018 4.51967 47.9693 4.31511 47.9828 4.11492C47.9962 3.91509 47.9529 3.75027 47.8522 3.62046C47.7518 3.49101 47.5969 3.45309 47.3879 3.50669C47.167 3.56285 46.9692 3.70068 46.795 3.92056C46.6207 4.14081 46.4726 4.40043 46.3513 4.69944Z" fill="#EA374B"/>
<path d="M15.1412 7.10076C14.8225 6.10784 14.2822 5.18237 13.5538 4.42281C12.1771 2.98757 10.1534 2.16785 8.14133 2.23093C4.63019 2.34069 1.07987 5.0686 0.164484 8.37702C-0.047102 9.14132 -0.0818066 9.97599 0.223072 10.7093C0.52795 11.4426 1.2157 12.0505 2.02174 12.1307C2.82779 12.2109 3.69092 11.6628 3.81631 10.8807C3.92751 10.1875 3.49501 9.5355 3.30955 8.85762C2.9569 7.56678 3.57823 6.11878 4.68766 5.33807C5.79708 4.55737 7.30692 4.41771 8.6048 4.83705C9.90268 5.25639 10.9897 6.18879 11.7301 7.31189C12.5059 8.48824 12.928 9.92858 12.6798 11.3069C12.4316 12.6853 11.4427 13.9648 10.0762 14.3838C9.34964 14.6066 8.43874 14.5286 7.98945 13.928C7.62636 13.443 7.67225 12.7838 7.73383 12.1865C7.88757 10.6983 8.04095 9.21023 8.19469 7.72212C8.2488 7.19849 8.30142 6.65881 8.1458 6.15488C7.99019 5.65094 7.57262 5.18674 7.03638 5.13569C6.5117 5.08574 6.018 5.44528 5.75939 5.89452C5.50079 6.3434 5.42951 6.86921 5.36234 7.38008C5.14479 9.04323 4.92723 10.7064 4.71005 12.3695C4.61862 13.0678 4.52757 13.7778 4.64064 14.4732C4.75371 15.1685 5.10113 15.8603 5.712 16.2337C6.45274 16.6869 7.40432 16.5906 8.26186 16.4276C9.76871 16.141 11.273 15.682 12.519 14.8057C14.1531 13.6567 15.2453 11.801 15.4405 9.84326C15.5323 8.92143 15.4244 7.98466 15.1412 7.10113" fill="#EA374B"/>
</g>
<defs>
<clipPath id="clip0_6523_12545">
<rect width="53.7362" height="16.5625" fill="white"/>
</clipPath>
</defs>
</svg>
