<svg width="20" height="20" viewBox="0 0 20 20" fill="none" xmlns="http://www.w3.org/2000/svg">
<g clip-path="url(#clip0_3326_2265)">
<path d="M11.8447 19.808C10.6266 20.0642 9.4023 20.0591 8.2087 19.8198C7.2329 19.6238 6.39243 19.1468 5.7345 18.4317C5.57642 18.2599 5.47292 18.0656 5.47463 17.8285L5.48487 16.6859C5.49851 15.1767 6.67221 13.4417 8.20984 13.4417H11.7889C13.33 13.4417 14.5025 15.1823 14.515 16.6859L14.5247 17.8313C14.5258 17.9952 14.4701 18.1906 14.3598 18.3202C13.7104 19.0821 12.8625 19.594 11.8441 19.8085L11.8447 19.808Z" fill="url(#paint0_linear_3326_2265)"/>
<path d="M19.8173 16.8244C19.2151 17.5115 18.4377 17.9237 17.55 18.0938C16.7329 18.2503 15.9015 18.2717 15.0878 18.1754L15.1139 17.1083C15.1526 15.5433 14.5044 13.9924 13.064 13.1837C13.47 12.7935 13.9624 12.5412 14.5117 12.5417L17.6609 12.5468C18.2546 12.5479 18.7744 12.8757 19.1639 13.2969C19.662 13.8364 19.9316 14.5268 19.9816 15.26C20.0083 15.6565 19.9975 16.0287 19.993 16.4353C19.9918 16.5564 19.9111 16.7169 19.8167 16.8244H19.8173Z" fill="url(#paint1_linear_3326_2265)"/>
<path d="M4.91205 18.1777C3.21121 18.3342 1.43304 18.2098 0.213288 16.8605C0.0836357 16.7174 -0.00223048 16.5468 4.41203e-05 16.3525L0.0119858 15.3344C0.0267707 14.0656 1.04238 12.5513 2.3372 12.5474L5.40165 12.5378C5.97997 12.5361 6.50825 12.7602 6.93701 13.1865C5.49889 13.9851 4.84096 15.5517 4.89044 17.1083L4.91261 18.1788L4.91205 18.1777Z" fill="url(#paint2_linear_3326_2265)"/>
<path d="M9.87257 6.7853C11.483 6.71322 12.7841 7.95551 12.8523 9.48726C12.9222 11.0522 11.6985 12.3672 10.1342 12.4415C8.5715 12.5153 7.23802 11.3169 7.15101 9.77559C7.06344 8.22019 8.2559 6.85739 9.872 6.7853H9.87257Z" fill="url(#paint3_linear_3326_2265)"/>
<path d="M10.1698 4.63185C10.0635 4.57835 9.90708 4.59468 9.81666 4.63973L8.22444 5.43545L8.49398 3.65648C8.49796 3.55512 8.46498 3.44418 8.40357 3.36478L7.12354 2.07405L8.90057 1.7846C9.00975 1.76038 9.11211 1.6883 9.16897 1.59482L10.0009 0L10.8311 1.59538C10.8869 1.68774 10.9887 1.76038 11.0967 1.78403L12.8771 2.07518L11.6187 3.3445C11.5175 3.4408 11.4862 3.59003 11.5203 3.72857L11.7762 5.43545L10.1698 4.63241V4.63185Z" fill="url(#paint4_linear_3326_2265)"/>
<path d="M3.82654 7.24935C4.95019 7.03704 5.97092 7.77589 6.16995 8.84417C6.36898 9.91245 5.65305 10.9492 4.57147 11.1519C3.4899 11.3547 2.46633 10.6659 2.24285 9.61398C2.01937 8.56203 2.69265 7.4639 3.82654 7.24991V7.24935Z" fill="url(#paint5_linear_3326_2265)"/>
<path d="M15.4055 7.25328C16.5234 7.0314 17.5555 7.75729 17.7637 8.82388C17.9718 9.89047 17.2649 10.9497 16.1589 11.153C15.1109 11.3456 14.0646 10.6721 13.84 9.60834C13.6153 8.54456 14.2773 7.47741 15.4055 7.25328Z" fill="url(#paint6_linear_3326_2265)"/>
</g>
<defs>
<linearGradient id="paint0_linear_3326_2265" x1="5.47461" y1="16.7207" x2="14.5247" y2="16.7207" gradientUnits="userSpaceOnUse">
<stop stop-color="#21CFFF"/>
<stop offset="1" stop-color="#019AE6"/>
</linearGradient>
<linearGradient id="paint1_linear_3326_2265" x1="13.064" y1="15.3876" x2="19.999" y2="15.3876" gradientUnits="userSpaceOnUse">
<stop stop-color="#21CFFF"/>
<stop offset="1" stop-color="#019AE6"/>
</linearGradient>
<linearGradient id="paint2_linear_3326_2265" x1="0" y1="15.3841" x2="6.93701" y2="15.3841" gradientUnits="userSpaceOnUse">
<stop stop-color="#21CFFF"/>
<stop offset="1" stop-color="#019AE6"/>
</linearGradient>
<linearGradient id="paint3_linear_3326_2265" x1="7.14648" y1="9.61353" x2="12.8552" y2="9.61353" gradientUnits="userSpaceOnUse">
<stop stop-color="#21CFFF"/>
<stop offset="1" stop-color="#019AE6"/>
</linearGradient>
<linearGradient id="paint4_linear_3326_2265" x1="7.12354" y1="2.71772" x2="12.8771" y2="2.71772" gradientUnits="userSpaceOnUse">
<stop stop-color="#21CFFF"/>
<stop offset="1" stop-color="#019AE6"/>
</linearGradient>
<linearGradient id="paint5_linear_3326_2265" x1="2.2002" y1="9.20011" x2="6.20316" y2="9.20011" gradientUnits="userSpaceOnUse">
<stop stop-color="#21CFFF"/>
<stop offset="1" stop-color="#019AE6"/>
</linearGradient>
<linearGradient id="paint6_linear_3326_2265" x1="13.7964" y1="9.19957" x2="17.8" y2="9.19957" gradientUnits="userSpaceOnUse">
<stop stop-color="#21CFFF"/>
<stop offset="1" stop-color="#019AE6"/>
</linearGradient>
<clipPath id="clip0_3326_2265">
<rect width="20" height="20" fill="white"/>
</clipPath>
</defs>
</svg>
