<svg width="24" height="24" viewBox="0 0 24 24" fill="none" xmlns="http://www.w3.org/2000/svg">
<g clip-path="url(#clip0_1409_148)">
<path d="M24.0004 11.7121V12.2859C23.9047 12.5542 23.8266 12.7812 23.6641 13.019C23.3341 13.5009 22.4522 14.1174 22.5191 14.7255C22.6416 15.8366 23.6297 17.0772 22.2154 17.9958C21.7985 18.2667 20.7141 18.5428 20.4641 18.8392C20.1435 19.2198 20.2066 20.4718 19.9141 21.0513C19.3054 22.2561 18.1641 21.857 17.1341 21.8449C16.2572 21.8347 16.006 22.9854 15.4454 23.5215C14.2722 24.6429 13.3441 23.4979 12.3472 23.0963C11.6385 22.8107 10.891 23.6866 10.2297 23.8913C9.64535 24.0717 8.94035 23.9219 8.5066 23.4763C7.98223 22.9376 7.72598 21.8258 6.8666 21.8456C5.7916 21.8704 4.5691 22.2504 4.03098 20.9174C3.8166 20.3864 3.83098 19.1873 3.53723 18.8392C3.14348 18.3719 1.9366 18.326 1.40848 17.6637C0.545977 16.5819 1.36723 15.7697 1.48223 14.7255C1.5491 14.118 0.667227 13.5009 0.337227 13.019C0.174727 12.7812 0.0966016 12.5542 0.000976562 12.2859V11.7121C0.0966016 11.4437 0.174727 11.2168 0.337227 10.979C0.667227 10.4971 1.5491 9.88063 1.48223 9.27247C1.36723 8.22828 0.545977 7.41612 1.40848 6.33431C1.9366 5.67196 3.14348 5.62607 3.53723 5.15879C3.83035 4.81009 3.8166 3.61162 4.03098 3.08059C4.5691 1.74761 5.7916 2.12755 6.8666 2.15241C7.7466 2.17281 7.99348 1.00558 8.55473 0.475194C8.9891 0.0646545 9.66848 -0.0660297 10.2304 0.107366C10.8922 0.311998 11.6397 1.18726 12.3479 0.902309C13.3597 0.494956 14.1416 -0.583667 15.3716 0.409533C15.9966 0.913783 16.2122 2.16516 17.1341 2.15433C18.1641 2.14222 19.3054 1.74315 19.9141 2.94799C20.2066 3.52683 20.1435 4.77949 20.4641 5.16006C20.721 5.46478 21.7947 5.73061 22.2154 6.00346C23.6341 6.92462 22.6422 8.15815 22.5191 9.27375C22.4522 9.88127 23.3341 10.4984 23.6641 10.9803C23.8266 11.2181 23.9047 11.445 24.0004 11.7134V11.7121ZM11.1941 4.45883C6.29348 4.88148 3.2516 10.3556 5.14785 14.948C7.28848 20.1307 14.2035 21.2196 17.7172 16.8502C21.9729 11.5585 17.8685 3.88318 11.1935 4.45883H11.1941Z" fill="url(#paint0_linear_1409_148)"/>
<path d="M12.0463 6.26135L13.6512 9.64448L17.3906 10.1819L14.7275 12.8937L15.3275 16.6842L11.98 14.9152L8.6725 16.6842L9.2725 12.8937L6.60938 10.1819L10.3488 9.64448L11.9419 6.32255L12.0463 6.26135Z" fill="url(#paint1_linear_1409_148)"/>
</g>
<defs>
<linearGradient id="paint0_linear_1409_148" x1="0.000976562" y1="12.0008" x2="24.0004" y2="12.0008" gradientUnits="userSpaceOnUse">
<stop stop-color="#21CFFF"/>
<stop offset="1" stop-color="#019AE6"/>
</linearGradient>
<linearGradient id="paint1_linear_1409_148" x1="6.60938" y1="11.4728" x2="17.3906" y2="11.4728" gradientUnits="userSpaceOnUse">
<stop stop-color="#21CFFF"/>
<stop offset="1" stop-color="#019AE6"/>
</linearGradient>
<clipPath id="clip0_1409_148">
<rect width="24" height="24" fill="white"/>
</clipPath>
</defs>
</svg>
