<svg width="22" height="20" viewBox="0 0 22 20" fill="none" xmlns="http://www.w3.org/2000/svg">
<g clip-path="url(#clip0_6504_12503)">
<path d="M19.6142 14.0832C19.6142 15.7444 18.1726 17.079 16.3858 17.0883H12.0102L8.18274 19.7295C7.68528 20.0748 7.03553 20.0748 6.49746 19.8134C5.95939 19.5521 5.64467 19.0482 5.66497 18.4789L5.71574 17.0883H3.14721C1.45178 17.0696 0.0101523 15.7631 0 14.1858V5.74905C0 4.12516 1.44162 2.78125 3.20812 2.78125H13.1269C13.1574 3.14523 13.2893 3.43454 13.533 3.69586L14.5381 4.79712L14.4264 6.27168C14.3858 6.80365 14.6497 7.27962 15.066 7.56893C15.5533 7.90491 16.1421 7.94224 16.7005 7.73692L18.1421 7.20495L19.6244 7.75559V14.0832H19.6142ZM13.736 8.96884C14.1624 8.96884 14.4162 8.62353 14.3959 8.30621C14.3756 7.9889 14.1015 7.70892 13.7056 7.70892H6.19289C5.77665 7.70892 5.49239 7.99823 5.49239 8.34354C5.49239 8.68886 5.7868 8.96884 6.19289 8.96884H13.7259H13.736ZM10.132 10.8914H6.20305C5.7868 10.8914 5.49239 11.19 5.50254 11.5447C5.50254 11.8713 5.80711 12.1513 6.20305 12.1513H10.203C10.599 12.1513 10.8832 11.8246 10.8629 11.498C10.8528 11.1527 10.5584 10.8914 10.132 10.8914Z" fill="url(#paint0_linear_6504_12503)"/>
<path d="M18.1421 6.06583L16.1928 6.78445C16.0812 6.83111 15.8781 6.80311 15.7766 6.73778C15.6852 6.68179 15.5532 6.53246 15.5634 6.40181L15.7055 4.44194L14.3857 2.99537C14.2842 2.88337 14.2436 2.73405 14.2741 2.59406C14.3045 2.48207 14.4263 2.33274 14.5786 2.29541L16.6294 1.81945L17.7258 0.195554C17.807 0.0742288 17.9796 -0.00976562 18.1116 -0.00976562C18.2741 -0.00976562 18.4365 0.0742288 18.5279 0.214219L19.6142 1.81011L21.6243 2.27675C21.7664 2.31408 21.9086 2.42607 21.9593 2.5194C22.0202 2.65939 21.9999 2.85538 21.8984 2.96737L20.5583 4.43261L20.7004 6.35514C20.7004 6.4858 20.6294 6.63512 20.5482 6.70045C20.4263 6.79378 20.2233 6.83111 20.071 6.78445L18.1421 6.06583Z" fill="url(#paint1_linear_6504_12503)"/>
</g>
<defs>
<linearGradient id="paint0_linear_6504_12503" x1="0" y1="11.3906" x2="19.6244" y2="11.3906" gradientUnits="userSpaceOnUse">
<stop stop-color="#21CFFF"/>
<stop offset="1" stop-color="#019AE6"/>
</linearGradient>
<linearGradient id="paint1_linear_6504_12503" x1="14.2642" y1="3.39893" x2="21.9936" y2="3.39893" gradientUnits="userSpaceOnUse">
<stop stop-color="#21CFFF"/>
<stop offset="1" stop-color="#019AE6"/>
</linearGradient>
<clipPath id="clip0_6504_12503">
<rect width="22" height="20" fill="white"/>
</clipPath>
</defs>
</svg>
