<svg width="44" height="46" viewBox="0 0 44 46" fill="none" xmlns="http://www.w3.org/2000/svg">
<g clip-path="url(#clip0_4235_2894)">
<path d="M25.7897 0.000160618C28.9609 1.15199 27.535 3.21808 28.2076 5.31537C29.0815 8.04137 32.0924 9.56635 34.8153 8.64128C35.424 8.43491 35.9531 8.10736 36.4847 7.77981C37.8624 6.92914 39.5764 7.31308 40.3924 8.71927L43.5999 14.2457C44.4472 15.7058 43.894 17.4 42.3933 18.1643C41.7979 18.4678 41.2109 18.8014 40.7143 19.2753C38.5929 21.3006 38.6146 24.7573 40.7637 26.7538C41.2506 27.2061 41.8184 27.5277 42.3945 27.8204C43.894 28.5847 44.452 30.2777 43.6011 31.7403L40.3563 37.3194C39.5523 38.7016 37.8178 39.0256 36.4919 38.2085C35.9471 37.8726 35.43 37.551 34.8177 37.3422C32.0695 36.4076 29.0284 37.9709 28.1895 40.7341C27.9677 41.466 27.9533 42.1535 27.9991 42.9502C28.0786 44.3456 27.1613 45.8766 25.586 45.9342C23.1957 46.0206 20.8092 46.0206 18.419 45.9342C16.8436 45.8778 15.9239 44.3444 16.0046 42.9502C16.0517 42.1535 16.036 41.466 15.813 40.7341C14.9813 37.9961 11.9896 36.4328 9.25229 37.317C8.63877 37.515 8.11324 37.8318 7.57445 38.1725C6.23169 39.022 4.46947 38.7304 3.64622 37.317L0.400218 31.7379C-0.449552 30.2777 0.107319 28.5787 1.61039 27.818C2.20221 27.5181 2.7844 27.1833 3.27738 26.7142C5.39156 24.7033 5.38795 21.2706 3.27738 19.2597C2.7856 18.7918 2.20342 18.4582 1.6128 18.1583C0.108524 17.3952 -0.44473 15.701 0.403834 14.2397L3.61126 8.71327C4.42849 7.30468 6.13767 6.92314 7.52141 7.77381C8.03248 8.08816 8.53993 8.40612 9.12211 8.61249C11.8836 9.59394 14.9668 8.03417 15.8178 5.24099C16.4422 3.18929 15.0729 1.13399 18.2165 -0.00463867H25.7957L25.7897 0.000160618ZM21.5517 11.4525C15.0729 11.708 10.1177 17.1816 10.407 23.5107C10.6975 29.8421 16.0902 34.7782 22.452 34.5335C28.832 34.2887 33.8366 28.9087 33.5967 22.5544C33.358 16.2506 28.0039 11.1981 21.5517 11.4525Z" fill="url(#paint0_linear_4235_2894)"/>
<path d="M21.549 14.1484C26.5115 13.8964 30.6374 17.7238 30.8857 22.5411C31.1376 27.416 27.3407 31.589 22.4506 31.8361C17.5871 32.0833 13.4021 28.3507 13.1164 23.5094C12.8308 18.6681 16.5649 14.4015 21.5502 14.1484H21.549ZM17.1387 23.5754L19.3878 25.951C19.8603 26.4501 20.6221 26.5437 21.1947 26.1202L26.7682 21.9976C27.3901 21.5369 27.4191 20.6598 27.0008 20.1223C26.5826 19.5848 25.7485 19.406 25.1542 19.8439L20.5522 23.2382L19.0299 21.6497C18.4911 21.0869 17.581 21.1229 17.07 21.6832C16.5926 22.2064 16.5975 23.0019 17.1399 23.5754H17.1387Z" fill="url(#paint1_linear_4235_2894)"/>
</g>
<defs>
<linearGradient id="paint0_linear_4235_2894" x1="0.00146484" y1="22.9972" x2="44.0005" y2="22.9972" gradientUnits="userSpaceOnUse">
<stop stop-color="#21CFFF"/>
<stop offset="1" stop-color="#019AE6"/>
</linearGradient>
<linearGradient id="paint1_linear_4235_2894" x1="13.1011" y1="22.9922" x2="30.8975" y2="22.9922" gradientUnits="userSpaceOnUse">
<stop stop-color="#21CFFF"/>
<stop offset="1" stop-color="#019AE6"/>
</linearGradient>
<clipPath id="clip0_4235_2894">
<rect width="44" height="46" fill="white"/>
</clipPath>
</defs>
</svg>
