<svg width="45" height="45" viewBox="0 0 45 45" fill="none" xmlns="http://www.w3.org/2000/svg">
<g clip-path="url(#clip0_4235_2663)">
<path d="M14.5535 42.8936L2.14004 30.483C-0.580296 27.7639 -0.788418 23.2784 1.98063 20.506L18.003 4.46203C19.3152 3.14833 20.9448 2.30508 22.781 2.0166L34.8919 0.105235C37.6786 -0.334143 40.4241 0.639293 42.3739 2.57137C44.3326 4.51233 45.3393 7.28174 44.8965 10.0926L42.9835 22.2265C42.6942 24.0639 41.8529 25.6898 40.5392 27.0064L24.7412 42.8329C21.9249 45.6541 17.4333 45.7724 14.5535 42.8936ZM33.2889 11.5483C31.1531 9.55112 27.8305 9.65764 25.8157 11.6992C23.7035 13.8384 23.8703 17.2602 26.0091 19.2603C28.1257 21.2398 31.4748 21.1643 33.4941 19.0192C35.4291 16.9629 35.4897 13.6061 33.2889 11.5498V11.5483Z" fill="url(#paint0_linear_4235_2663)"/>
</g>
<defs>
<linearGradient id="paint0_linear_4235_2663" x1="-0.000488281" y1="22.5011" x2="44.9998" y2="22.5011" gradientUnits="userSpaceOnUse">
<stop stop-color="#21CFFF"/>
<stop offset="1" stop-color="#019AE6"/>
</linearGradient>
<clipPath id="clip0_4235_2663">
<rect width="45" height="45" fill="white"/>
</clipPath>
</defs>
</svg>
