<svg width="36" height="36" viewBox="0 0 36 36" fill="none" xmlns="http://www.w3.org/2000/svg">
<g clip-path="url(#clip0_4716_4299)">
<path d="M19.8612 29.3293C18.7076 30.1639 17.2445 30.1264 16.1337 29.3218L14.2178 27.9316C14.0115 27.7815 13.653 27.6701 13.3913 27.6701L11.0326 27.6738C9.63242 27.6763 8.44361 26.8167 8.01464 25.5003L7.27242 23.2229C7.20072 23.0015 6.98811 22.7137 6.79942 22.576L4.78663 21.112C3.7123 20.3299 3.27829 18.9485 3.68714 17.6947L4.44823 15.3585C4.52245 15.1295 4.50861 14.7729 4.43565 14.5452L3.67456 12.189C3.28332 10.9789 3.72362 9.60627 4.75518 8.85423L6.77929 7.37895C6.96547 7.24381 7.19317 6.96727 7.26487 6.74829L7.99451 4.48844C8.426 3.1533 9.59845 2.26362 11.0326 2.26362H13.4995C13.697 2.26362 14.0379 2.13599 14.1952 2.02212L16.1627 0.599386C17.2697 -0.201448 18.7353 -0.2027 19.8448 0.599386L21.8111 2.02087C21.9708 2.13599 22.3054 2.26362 22.5055 2.26362H24.9762C26.3675 2.26487 27.555 3.112 27.9828 4.42087L28.7439 6.74704C28.8068 6.93849 29.0118 7.22003 29.1716 7.3364L31.2045 8.81419C32.2562 9.57874 32.7304 10.9489 32.3291 12.1915L31.5693 14.5439C31.4838 14.8092 31.4901 15.1671 31.5781 15.4348L32.3015 17.6334C32.7191 18.9035 32.3203 20.3074 31.2221 21.1082L29.2055 22.5773C29.0105 22.7187 28.808 22.9965 28.7338 23.2242L27.9601 25.5679C27.5362 26.8505 26.3272 27.6738 24.9749 27.6713L22.6124 27.6688C22.347 27.6688 21.9985 27.7802 21.7884 27.9329L19.8612 29.3281V29.3293ZM18.0132 19.7631L21.9494 21.824C22.2539 21.9829 22.6841 21.9066 22.9244 21.7251C23.186 21.5299 23.3433 21.1583 23.2816 20.8004L22.5369 16.4859L25.5775 13.5366C25.8844 13.2388 26.0719 12.8884 25.9511 12.4768C25.8568 12.1577 25.546 11.8636 25.1561 11.8073L20.8047 11.1792L18.9026 7.34016C18.7227 6.97603 18.4182 6.72702 18.0471 6.71451C17.676 6.70199 17.315 6.91221 17.1338 7.27634L15.199 11.1792L10.7634 11.8261C10.4199 11.8761 10.1218 12.2127 10.0513 12.483C9.97082 12.7896 10.0513 13.165 10.2866 13.394L13.4668 16.4859L12.7233 20.8004C12.6617 21.1583 12.8177 21.5299 13.0806 21.7251C13.3284 21.9103 13.7461 21.9829 14.058 21.8202L18.0132 19.7618V19.7631Z" fill="url(#paint0_linear_4716_4299)"/>
<path d="M27.4269 35.6246L21.8149 30.0388L22.6666 29.3669H24.7838C26.9727 29.3644 28.9 28.1381 29.5856 26.0597L30.3114 23.8599L31.2939 23.1704L35.6982 27.55C35.9271 27.7777 36.034 28.0905 35.9913 28.4221C35.9611 28.6574 35.712 29.0015 35.4151 29.1166L30.8624 30.8897L29.0924 35.3806C28.9704 35.6922 28.6559 35.9437 28.4005 35.985C28.0181 36.0463 27.7237 35.9187 27.4269 35.6234V35.6246Z" fill="url(#paint1_linear_4716_4299)"/>
<path d="M14.204 30.0238L8.50151 35.7022C8.24488 35.9587 7.89264 36.05 7.52908 35.9675C7.27496 35.9099 7.00827 35.6284 6.88499 35.3168L5.14141 30.8872L0.430223 29.0177C-0.179904 28.7762 -0.0666849 27.9203 0.301907 27.5549L4.71621 23.1716L5.69241 23.8573L6.42205 26.0684C7.06362 28.0117 8.86255 29.3456 10.9357 29.3531L13.2932 29.3618L14.204 30.025V30.0238Z" fill="url(#paint2_linear_4716_4299)"/>
<path d="M18.4336 17.8736C18.1682 17.7372 17.7707 17.7723 17.5392 17.8924L14.9112 19.2525L15.4195 16.2407C15.4069 16.0167 15.315 15.7401 15.1943 15.5424L13.0054 13.404L15.8837 12.9735C16.2334 12.9247 16.5466 12.7095 16.6951 12.3954L18.0034 9.77893L19.313 12.3967C19.4589 12.7082 19.7734 12.931 20.1218 12.9673L23.0039 13.4015L20.8641 15.4949C20.693 15.6926 20.5848 15.9929 20.5898 16.2544L21.0968 19.2463L18.4349 17.8724L18.4336 17.8736Z" fill="url(#paint3_linear_4716_4299)"/>
</g>
<defs>
<linearGradient id="paint0_linear_4716_4299" x1="3.5332" y1="14.9693" x2="32.4709" y2="14.9693" gradientUnits="userSpaceOnUse">
<stop stop-color="#21CFFF"/>
<stop offset="1" stop-color="#019AE6"/>
</linearGradient>
<linearGradient id="paint1_linear_4716_4299" x1="21.8149" y1="29.5852" x2="36.0005" y2="29.5852" gradientUnits="userSpaceOnUse">
<stop stop-color="#21CFFF"/>
<stop offset="1" stop-color="#019AE6"/>
</linearGradient>
<linearGradient id="paint2_linear_4716_4299" x1="-0.000976562" y1="29.5843" x2="14.204" y2="29.5843" gradientUnits="userSpaceOnUse">
<stop stop-color="#21CFFF"/>
<stop offset="1" stop-color="#019AE6"/>
</linearGradient>
<linearGradient id="paint3_linear_4716_4299" x1="13.0054" y1="14.5157" x2="23.0039" y2="14.5157" gradientUnits="userSpaceOnUse">
<stop stop-color="#21CFFF"/>
<stop offset="1" stop-color="#019AE6"/>
</linearGradient>
<clipPath id="clip0_4716_4299">
<rect width="36" height="36" fill="white"/>
</clipPath>
</defs>
</svg>
