<svg width="20" height="20" viewBox="0 0 20 20" fill="none" xmlns="http://www.w3.org/2000/svg">
<g clip-path="url(#clip0_3515_563)">
<path d="M6.46845 19.0638L0.951347 13.548C-0.257693 12.3395 -0.350191 10.346 0.880498 9.1138L8.00157 1.98315C8.58477 1.39928 9.30901 1.02451 10.1251 0.896292L15.5077 0.0467948C16.7463 -0.148484 17.9665 0.284154 18.8331 1.14286C19.7036 2.0055 20.151 3.23635 19.9542 4.48561L19.104 9.87847C18.9754 10.6951 18.6015 11.4177 18.0176 12.0029L10.9963 19.0369C9.7446 20.2907 7.74834 20.3433 6.46845 19.0638ZM14.7953 5.1326C13.846 4.24497 12.3693 4.29231 11.4739 5.19967C10.5351 6.15042 10.6092 7.67123 11.5598 8.56018C12.5005 9.43992 13.989 9.40638 14.8865 8.453C15.7465 7.53907 15.7734 6.04719 14.7953 5.13326V5.1326Z" fill="url(#paint0_linear_3515_563)"/>
</g>
<defs>
<linearGradient id="paint0_linear_3515_563" x1="0" y1="10.0005" x2="20.0001" y2="10.0005" gradientUnits="userSpaceOnUse">
<stop stop-color="#21CFFF"/>
<stop offset="1" stop-color="#019AE6"/>
</linearGradient>
<clipPath id="clip0_3515_563">
<rect width="20" height="20" fill="white"/>
</clipPath>
</defs>
</svg>
