<svg width="45" height="45" viewBox="0 0 45 45" fill="none" xmlns="http://www.w3.org/2000/svg">
<g clip-path="url(#clip0_4235_2658)">
<path d="M37.0888 0C41.3116 0.557813 44.4352 3.69141 45 7.91016V37.0898C44.434 41.3121 41.3127 44.4363 37.0888 45H7.9065C3.70371 45 0.465019 40.8445 0 37.0102V8.04375C0.460322 3.72656 3.70841 0.550781 7.9065 0H37.0888ZM32.367 14.9719L32.3963 19.6043C32.4022 20.5312 33.1667 21.225 34.0544 21.2156C34.8905 21.2062 35.6808 20.5371 35.6808 19.5984L35.6832 10.9887C35.6832 10.0453 34.9516 9.31641 34.011 9.31641H25.3999C24.4523 9.31641 23.7583 10.0746 23.7465 10.9453C23.7348 11.816 24.4323 12.5988 25.3623 12.6059L30.0207 12.6398L23.972 18.6926C23.2956 19.3699 23.251 20.3789 23.9062 21.0586C24.4934 21.668 25.5526 21.7652 26.2113 21.1078L32.3658 14.9707L32.367 14.9719ZM11.0195 35.6848L19.5966 35.6824C20.5442 35.6824 21.2382 34.9254 21.2488 34.0523C21.2594 33.1793 20.6006 32.4117 19.6905 32.4059L14.9652 32.3742L21.1079 26.2148C21.7667 25.5539 21.6692 24.4969 21.0515 23.9039C20.4444 23.3215 19.4263 23.2523 18.7851 23.8922L12.6295 30.034L12.6095 25.4883C12.6048 24.525 11.8967 23.7797 10.942 23.7855C10.1118 23.7902 9.31565 24.4605 9.31682 25.4051L9.32152 34.098C9.32152 35.0109 10.1012 35.6871 11.0207 35.6871L11.0195 35.6848Z" fill="url(#paint0_linear_4235_2658)"/>
</g>
<defs>
<linearGradient id="paint0_linear_4235_2658" x1="0" y1="22.5" x2="45" y2="22.5" gradientUnits="userSpaceOnUse">
<stop stop-color="#21CFFF"/>
<stop offset="1" stop-color="#019AE6"/>
</linearGradient>
<clipPath id="clip0_4235_2658">
<rect width="45" height="45" fill="white"/>
</clipPath>
</defs>
</svg>
