<svg width="20" height="20" viewBox="0 0 20 20" fill="none" xmlns="http://www.w3.org/2000/svg">
<g clip-path="url(#clip0_3326_2277)">
<path d="M8.12648 20H7.73566C7.4972 19.9087 7.313 19.7887 7.11889 19.5951L3.27167 15.7569L0.633985 15.7637C0.245245 15.7648 0 15.4976 0 15.114L0.00417438 10.4337C0.00417438 10.0976 0.280206 9.8612 0.600068 9.86068L7.63965 9.85181L6.08104 11.433C5.65838 11.8619 5.48827 12.4375 5.61977 13.0538C5.72465 13.5454 6.0706 14.0015 6.57935 14.2535C7.349 14.6345 8.20841 14.6955 9.03337 14.4137C9.59639 14.2212 10.1171 13.9289 10.5414 13.5089L11.3872 12.6703C11.4582 12.5998 11.5991 12.5815 11.6778 12.6603L13.8256 14.802C14.194 15.1693 14.135 15.7987 13.8073 16.1525C13.4655 16.522 12.9302 16.5872 12.4595 16.2996C12.7282 16.7422 12.6927 17.2656 12.3551 17.6121C12.0092 17.9669 11.5109 18.0087 11.0381 17.7613C11.3303 18.2738 11.2244 18.8274 10.808 19.151C10.3916 19.4745 9.83694 19.4197 9.46177 19.056L8.83195 18.4455C8.96345 18.8003 9.01667 19.1129 8.83822 19.4688C8.71142 19.7219 8.43904 19.9056 8.12544 20H8.12648Z" fill="url(#paint0_linear_3326_2277)"/>
<path d="M19.9999 10.359V15.5017C19.8809 15.7026 19.7264 15.9323 19.4494 15.9338L17.0898 15.9463C16.8435 16.799 16.1751 17.4299 15.2729 17.4357L14.0216 17.4435C14.3446 17.24 14.6253 17.0626 14.8429 16.7437C15.3793 15.9573 15.4294 14.7633 14.7292 14.0609L12.39 11.7153C11.901 11.2247 11.1528 11.2435 10.6712 11.7252L9.75383 12.6426C9.46267 12.9332 9.1042 13.1394 8.71963 13.2824C8.15296 13.4937 7.52889 13.4598 7.01335 13.1472C6.68149 12.9458 6.66479 12.5017 6.92934 12.2366L9.7721 9.38683C10.6701 8.48666 12.0461 8.37759 12.9864 9.29238C13.4106 9.70515 13.9559 9.93424 14.5747 9.93319L19.4113 9.92485C19.7056 9.92485 19.872 10.144 19.9999 10.359Z" fill="url(#paint1_linear_3326_2277)"/>
<path d="M14.5505 8.76115C14.2562 8.75907 14.0271 8.66148 13.8315 8.47727C12.9256 7.57606 11.5977 7.24991 10.3766 7.6439C9.76406 7.85681 9.27513 8.2174 8.83265 8.6787L2.7417 8.68497L2.74274 0.591765C2.74274 0.266138 2.97338 0.0412253 3.28802 0H12.431L12.432 4.13714C12.3997 4.5019 12.6199 4.79048 12.9809 4.83275L17.2597 4.83379V8.75594L14.5505 8.76115ZM8.3432 3.51459C8.69802 3.51459 8.92605 3.20722 8.91666 2.91186C8.90674 2.60085 8.65732 2.34358 8.32233 2.3441L5.66533 2.34567C5.3246 2.34567 5.07779 2.63685 5.08666 2.94787C5.09553 3.24166 5.3366 3.51615 5.66533 3.51563L8.3432 3.51459ZM8.3432 5.85816C8.69802 5.85816 8.92605 5.5508 8.91666 5.25544C8.90674 4.94495 8.65732 4.68768 8.32233 4.68768L5.66533 4.68924C5.3246 4.68924 5.07779 4.98043 5.08666 5.29145C5.09553 5.58524 5.3366 5.85973 5.66533 5.85921L8.3432 5.85816Z" fill="url(#paint2_linear_3326_2277)"/>
<path d="M13.8124 3.66384C13.6762 3.66384 13.6022 3.59026 13.6006 3.47493L13.6074 0.00888062L17.249 3.6534L13.8124 3.66332V3.66384Z" fill="url(#paint3_linear_3326_2277)"/>
</g>
<defs>
<linearGradient id="paint0_linear_3326_2277" x1="0" y1="14.9259" x2="14.0783" y2="14.9259" gradientUnits="userSpaceOnUse">
<stop stop-color="#21CFFF"/>
<stop offset="1" stop-color="#019AE6"/>
</linearGradient>
<linearGradient id="paint1_linear_3326_2277" x1="6.74609" y1="13.0502" x2="19.9999" y2="13.0502" gradientUnits="userSpaceOnUse">
<stop stop-color="#21CFFF"/>
<stop offset="1" stop-color="#019AE6"/>
</linearGradient>
<linearGradient id="paint2_linear_3326_2277" x1="2.7417" y1="4.38058" x2="17.2597" y2="4.38058" gradientUnits="userSpaceOnUse">
<stop stop-color="#21CFFF"/>
<stop offset="1" stop-color="#019AE6"/>
</linearGradient>
<linearGradient id="paint3_linear_3326_2277" x1="13.6006" y1="1.83636" x2="17.249" y2="1.83636" gradientUnits="userSpaceOnUse">
<stop stop-color="#21CFFF"/>
<stop offset="1" stop-color="#019AE6"/>
</linearGradient>
<clipPath id="clip0_3326_2277">
<rect width="20" height="20" fill="white"/>
</clipPath>
</defs>
</svg>
