<svg width="21" height="24" viewBox="0 0 21 24" fill="none" xmlns="http://www.w3.org/2000/svg">
<g clip-path="url(#clip0_1420_325)">
<path d="M11.4677 15.6602C11.0496 15.476 10.6196 15.2794 10.1537 15.2549C9.11445 15.1935 8.0513 15.8076 7.57349 16.7533C7.44209 17.0236 7.39431 17.2938 7.23902 17.5394C3.7868 16.9621 0.90796 14.2354 0.191236 10.6981C-1.06303 4.53226 4.03765 -0.921173 10.0701 0.135122C14.9796 0.994897 18.1571 6.09213 16.8909 11.0543L16.3653 10.2436C15.0035 8.76972 12.6025 9.12591 11.7544 10.9683C11.6588 11.1771 11.4677 11.7298 11.4677 11.9386V15.6479V15.6602ZM9.15028 4.05324C8.7083 3.59879 7.90796 3.85672 7.77656 4.48313C7.74073 4.67965 7.80045 4.88845 7.74072 5.07269C5.67417 5.63768 4.99328 8.13103 7.13151 9.21189C7.62127 9.45754 9.60421 9.85058 9.72366 10.2927C9.8909 10.9314 8.17076 11.1894 7.77656 11.1034C7.5496 9.8383 5.92502 10.0962 6.17588 11.4596C6.30728 12.1965 7.03595 12.8352 7.77656 12.7861C7.74073 14.346 9.66393 14.0758 9.40113 12.565C10.1776 12.3685 10.9779 11.8281 11.2288 11.0174C11.6588 9.64178 10.8585 8.79428 9.68782 8.31527C9.2339 8.13103 7.57349 7.82397 7.45403 7.3818C7.53765 6.57115 8.76803 6.55887 9.37724 6.58343C9.58031 7.77484 11.1332 7.60288 11.0018 6.3255C10.9182 5.51486 10.1537 4.88845 9.38919 4.8516C9.41308 4.59367 9.32946 4.26204 9.13834 4.06552L9.15028 4.05324Z" fill="url(#paint0_linear_1420_325)"/>
<path d="M12.8057 12.0614C13.0207 10.2805 15.5532 10.2559 15.7682 12.0614V16.0041C16.903 16.1761 18.0856 16.2252 19.2084 16.4094C20.6299 16.6428 21.2511 17.4657 20.9047 18.9519C20.6419 20.0942 20.1999 21.8137 19.8057 22.8823C19.5788 23.4964 19.1368 23.8895 18.4917 23.9509C16.9508 24.086 15.2306 23.8404 13.6777 23.9509C13.0566 23.9018 12.7938 23.5701 12.3876 23.1403C11.1453 21.7892 10.0463 20.2907 8.80401 18.9274C8.18285 17.9693 8.85179 16.6428 9.97466 16.6182C10.8347 16.606 11.9934 17.8096 12.8057 18.1167V12.0369V12.0614Z" fill="url(#paint1_linear_1420_325)"/>
</g>
<defs>
<linearGradient id="paint0_linear_1420_325" x1="0" y1="8.77136" x2="17.1699" y2="8.77136" gradientUnits="userSpaceOnUse">
<stop stop-color="#21CFFF"/>
<stop offset="1" stop-color="#019AE6"/>
</linearGradient>
<linearGradient id="paint1_linear_1420_325" x1="8.56641" y1="17.3546" x2="20.9987" y2="17.3546" gradientUnits="userSpaceOnUse">
<stop stop-color="#21CFFF"/>
<stop offset="1" stop-color="#019AE6"/>
</linearGradient>
<clipPath id="clip0_1420_325">
<rect width="21" height="24" fill="white"/>
</clipPath>
</defs>
</svg>
