<svg width="61" height="46" viewBox="0 0 61 46" fill="none" xmlns="http://www.w3.org/2000/svg">
<g clip-path="url(#clip0_6313_5697)">
<path d="M60.9983 14.1545V44.6822C60.6433 45.3553 60.2056 45.9308 59.3159 46L28.593 45.9969L28.5898 0.00314508L46.7017 0V12.3806C46.7399 13.3918 47.4721 14.1136 48.494 14.156H60.9983V14.1545ZM41.4093 14.1434C42.4694 14.1434 43.1475 13.1921 43.1188 12.3303C43.0886 11.4214 42.3452 10.6178 41.3425 10.6178H33.9491C32.9065 10.6178 32.1425 11.4921 32.1727 12.4404C32.2014 13.3336 32.9463 14.1529 33.9507 14.1513L41.4093 14.1434ZM52.1182 21.2246C53.2085 21.2246 53.8659 20.2606 53.8389 19.4083C53.8086 18.4978 53.078 17.6942 52.0546 17.6942H33.9618C32.8954 17.6942 32.1457 18.5701 32.1759 19.5184C32.2046 20.4116 32.9352 21.2309 33.9634 21.2309L52.1198 21.2262L52.1182 21.2246ZM52.1182 28.301C53.2085 28.301 53.8659 27.3371 53.8389 26.4848C53.8086 25.5743 53.078 24.7707 52.0546 24.7707H33.9618C32.8954 24.7707 32.1457 25.6466 32.1759 26.5948C32.2046 27.488 32.9352 28.3073 33.9634 28.3073L52.1198 28.3026L52.1182 28.301ZM52.1182 35.3775C53.2085 35.3775 53.8659 34.4135 53.8389 33.5612C53.8086 32.6507 53.078 31.8471 52.0546 31.8471H33.9618C32.8954 31.8471 32.1457 32.723 32.1759 33.6713C32.2046 34.5645 32.9352 35.3838 33.9634 35.3838L52.1198 35.3791L52.1182 35.3775Z" fill="url(#paint0_linear_6313_5697)"/>
<path d="M4.31667 28.3168L1.77474 28.2995C0.810171 28.2932 0 27.5164 0 26.543V19.4618C0 18.4035 0.883389 17.6864 1.89411 17.688L4.30394 17.6927C4.76712 16.2255 5.30033 14.9203 6.06435 13.5286L4.253 11.7044C3.60837 11.055 3.57335 9.94005 4.24504 9.2733L9.36392 4.20814C10.0388 3.54138 11.1657 3.57597 11.8199 4.21285L13.6663 6.0087C15.0526 5.26646 16.3212 4.73651 17.8508 4.28362L17.8763 1.76598C17.8858 0.778423 18.661 0.0330378 19.651 0.00158691H25.0166V10.7515C17.4577 9.66329 10.7535 15.4927 10.72 22.9434C10.6866 30.3941 17.4131 36.3383 25.0166 35.2501V45.9984H19.6478C18.669 45.9654 17.8779 45.2185 17.8731 44.2356L17.862 41.7337C16.396 41.273 15.0654 40.7477 13.6663 39.9882L11.8183 41.7856C11.1641 42.4225 10.0372 42.4586 9.36233 41.7903L4.24823 36.7267C3.53196 36.0175 3.63861 34.8979 4.30553 34.2311L6.06594 32.4714C5.31148 31.097 4.78144 29.839 4.31508 28.3152L4.31667 28.3168Z" fill="url(#paint1_linear_6313_5697)"/>
<path d="M25.0154 17.9679C22.6725 17.2508 20.312 17.9978 18.9208 19.8597C17.5265 21.7231 17.5249 24.2753 18.9256 26.1451C20.304 27.985 22.7011 28.7744 25.0154 28.0149L25.025 31.6584C19.505 32.8017 14.324 28.5778 14.297 23.0551C14.2699 17.5087 19.3777 13.222 25.0123 14.3306L25.0154 17.9695V17.9679Z" fill="url(#paint2_linear_6313_5697)"/>
<path d="M59.9247 10.6036L50.2695 10.6241L50.2902 1.06616L59.9247 10.6036Z" fill="url(#paint3_linear_6313_5697)"/>
<path d="M22.7548 21.3048C23.7592 21.0217 24.6871 21.6444 24.9434 22.5235C25.2156 23.4607 24.6473 24.431 23.7082 24.6967C22.7978 24.9546 21.846 24.442 21.5404 23.5535C21.2347 22.665 21.7123 21.5973 22.7548 21.3032V21.3048Z" fill="url(#paint4_linear_6313_5697)"/>
</g>
<defs>
<linearGradient id="paint0_linear_6313_5697" x1="28.5898" y1="23" x2="60.9983" y2="23" gradientUnits="userSpaceOnUse">
<stop stop-color="#21CFFF"/>
<stop offset="1" stop-color="#019AE6"/>
</linearGradient>
<linearGradient id="paint1_linear_6313_5697" x1="0" y1="23" x2="25.0166" y2="23" gradientUnits="userSpaceOnUse">
<stop stop-color="#21CFFF"/>
<stop offset="1" stop-color="#019AE6"/>
</linearGradient>
<linearGradient id="paint2_linear_6313_5697" x1="14.2969" y1="23.0006" x2="25.025" y2="23.0006" gradientUnits="userSpaceOnUse">
<stop stop-color="#21CFFF"/>
<stop offset="1" stop-color="#019AE6"/>
</linearGradient>
<linearGradient id="paint3_linear_6313_5697" x1="50.2695" y1="5.84512" x2="59.9247" y2="5.84512" gradientUnits="userSpaceOnUse">
<stop stop-color="#21CFFF"/>
<stop offset="1" stop-color="#019AE6"/>
</linearGradient>
<linearGradient id="paint4_linear_6313_5697" x1="21.4492" y1="22.9996" x2="25.0116" y2="22.9996" gradientUnits="userSpaceOnUse">
<stop stop-color="#21CFFF"/>
<stop offset="1" stop-color="#019AE6"/>
</linearGradient>
<clipPath id="clip0_6313_5697">
<rect width="61" height="46" fill="white"/>
</clipPath>
</defs>
</svg>
