<svg width="46" height="46" viewBox="0 0 46 46" fill="none" xmlns="http://www.w3.org/2000/svg">
<g clip-path="url(#clip0_6327_5778)">
<path d="M23.4501 0C24.3261 0.345898 24.9855 1.05117 24.9128 2.0673L24.9164 3.93156C33.9538 4.8291 41.1673 12.0471 42.0666 21.0845L44.2058 21.0881C45.1222 21.1429 45.6918 21.7826 46 22.567V23.4339C45.6649 24.3198 44.9524 24.9837 43.9327 24.9137L42.0666 24.9164C41.1637 33.9537 33.9547 41.1673 24.9155 42.0675L24.911 44.2058C24.8553 45.1222 24.2156 45.69 23.433 46H22.5661C21.6802 45.6658 21.0145 44.9524 21.0872 43.9327L21.0845 42.0657C12.0427 41.1619 4.83629 33.9547 3.93246 24.9155L1.79418 24.9128C0.880469 24.858 0.321641 24.2228 0 23.4492V22.5508C0.319844 21.7772 0.881367 21.1402 1.79418 21.0881L3.93246 21.0845C4.8318 12.0454 12.0462 4.83449 21.0845 3.93336L21.0872 2.0673C21.0136 1.05117 21.6739 0.345 22.5508 0H23.4492L23.4501 0ZM21.0899 13.6059L21.0755 7.79934C14.1288 8.70586 8.70496 14.1279 7.79844 21.0755L13.6077 21.0854C14.4109 17.2967 17.2958 14.4118 21.0899 13.6059ZM32.4066 21.0944L38.2016 21.0729C37.2941 14.1288 31.8739 8.70316 24.9254 7.79754L24.9146 13.6095C28.7401 14.4082 31.59 17.3407 32.4066 21.0944ZM21.0764 32.3887C17.2383 31.5657 14.4136 28.6709 13.6041 24.9155L7.80113 24.9254C8.69957 31.9143 14.2124 37.3283 21.0854 38.1971L21.0764 32.3887ZM24.9415 38.1998C31.997 37.2663 37.3247 31.7427 38.2007 24.9173H32.3914C31.5927 28.732 28.6593 31.6034 24.9101 32.4013L24.9424 38.2007L24.9415 38.1998Z" fill="url(#paint0_linear_6327_5778)"/>
</g>
<defs>
<linearGradient id="paint0_linear_6327_5778" x1="0" y1="23" x2="46" y2="23" gradientUnits="userSpaceOnUse">
<stop stop-color="#21CFFF"/>
<stop offset="1" stop-color="#019AE6"/>
</linearGradient>
<clipPath id="clip0_6327_5778">
<rect width="46" height="46" fill="white"/>
</clipPath>
</defs>
</svg>
