<svg width="57" height="45" viewBox="0 0 57 45" fill="none" xmlns="http://www.w3.org/2000/svg">
<g clip-path="url(#clip0_4235_2665)">
<path d="M56.9999 22.1812V22.8188C56.9211 22.9144 56.7992 23.0846 56.6787 23.2056L47.0724 32.8746C46.787 33.1613 46.3439 33.1986 46.0138 33.0538C45.7076 32.9194 45.4994 32.5296 45.4994 32.1414L45.4949 28.1917H17.3064C13.9432 25.1334 13.9462 19.8666 17.3064 16.8009H45.4816L45.5053 12.7437C45.5068 12.3644 45.8042 11.9985 46.0911 11.9074C46.4182 11.8029 46.8108 11.8611 47.0724 12.124L56.6802 21.7944C56.7992 21.9154 56.9196 22.0856 56.9984 22.1812H56.9999Z" fill="url(#paint0_linear_4235_2665)"/>
<path d="M16.7209 41.8357L16.709 38.9044L14.846 38.1279L12.7972 40.1827C11.5706 41.4131 9.58865 41.446 8.35608 40.1991L4.70744 36.5092C3.46744 35.2549 3.66072 33.2733 4.85315 32.0697L6.84697 30.0582L6.07531 28.2006L3.10614 28.1797C1.62527 28.1692 0.144408 26.9851 0.0685804 25.3932C-0.023602 23.4475 -0.0221152 21.5495 0.0685804 19.6038C0.141434 18.009 1.6223 16.8233 3.10763 16.8113L6.08869 16.7875L6.83656 14.9074L4.80854 12.8661C3.52988 11.5789 3.58044 9.58537 4.84572 8.31458L8.29958 4.84719C9.52323 3.61822 11.4799 3.52414 12.7407 4.77103L14.8668 6.87208L16.7045 6.10154L16.712 3.23444C16.715 1.40219 18.1155 0 19.9369 0L24.8359 0.00298656C26.7049 0.00298656 28.0415 1.49328 28.04 3.34495V6.09856L29.8941 6.87208L31.8968 4.85913C33.1517 3.59881 35.1306 3.53161 36.4093 4.81434L39.9122 8.33101C41.173 9.59731 41.1968 11.564 39.9583 12.8571L37.85 14.9627L28.0891 14.9597C24.1698 11.9642 18.6835 12.5002 15.4095 16.102C12.1356 19.7038 12.1266 25.2857 15.4095 28.895C18.6865 32.4983 24.1639 33.0343 28.0831 30.0388H37.8515L39.9583 32.1414C41.1968 33.4345 41.1656 35.4012 39.9093 36.666L36.4628 40.1364C35.2065 41.4012 33.2349 41.4654 31.9518 40.1857L29.8896 38.1294L28.037 38.897L28.0311 41.7671C28.0266 43.5724 26.6424 44.994 24.8389 44.9955L19.9309 44.9985C18.1958 44.9985 16.7268 43.6665 16.7194 41.8342L16.7209 41.8357Z" fill="url(#paint1_linear_4235_2665)"/>
</g>
<defs>
<linearGradient id="paint0_linear_4235_2665" x1="14.7852" y1="22.4974" x2="56.9999" y2="22.4974" gradientUnits="userSpaceOnUse">
<stop stop-color="#21CFFF"/>
<stop offset="1" stop-color="#019AE6"/>
</linearGradient>
<linearGradient id="paint1_linear_4235_2665" x1="0" y1="22.4993" x2="40.8727" y2="22.4993" gradientUnits="userSpaceOnUse">
<stop stop-color="#21CFFF"/>
<stop offset="1" stop-color="#019AE6"/>
</linearGradient>
<clipPath id="clip0_4235_2665">
<rect width="57" height="45" fill="white"/>
</clipPath>
</defs>
</svg>
