<svg width="23" height="20" viewBox="0 0 23 20" fill="none" xmlns="http://www.w3.org/2000/svg">
<g clip-path="url(#clip0_6504_12511)">
<path d="M23 4.21941V18.9311C23 19.5499 22.5392 20.0141 21.9247 20.0141H1.07529C0.460838 20.0141 0 19.5499 0 18.9311V1.08298C0 0.492264 0.432908 0 1.01943 0H7.31755C7.6527 0.0281294 7.95993 0.140647 8.15543 0.436006L9.95689 3.16456H21.9107C22.4833 3.16456 22.986 3.60056 22.986 4.21941H23ZM17.2465 12.6442V15.2743H19.3412V11.5893C19.3273 11.0127 18.8944 10.5345 18.3078 10.5345H10.8227C10.2781 8.72011 8.53248 7.66526 6.74499 7.94655C4.9575 8.22785 3.64481 9.78903 3.65877 11.6034C3.67274 13.4177 4.99939 14.9648 6.78689 15.218C8.57438 15.4712 10.292 14.4022 10.8367 12.6301H14.1184V14.2053H16.2131V12.6301H17.2605L17.2465 12.6442Z" fill="url(#paint0_linear_6504_12511)"/>
<path d="M7.03836 10.0284C7.9321 9.85958 8.71413 10.4644 8.85378 11.3082C8.99343 12.1521 8.43484 12.9679 7.61091 13.1367C6.78699 13.3054 5.96307 12.7428 5.78153 11.9271C5.59999 11.1113 6.13065 10.1971 7.03836 10.0424V10.0284Z" fill="url(#paint1_linear_6504_12511)"/>
</g>
<defs>
<linearGradient id="paint0_linear_6504_12511" x1="0" y1="10.007" x2="23" y2="10.007" gradientUnits="userSpaceOnUse">
<stop stop-color="#21CFFF"/>
<stop offset="1" stop-color="#019AE6"/>
</linearGradient>
<linearGradient id="paint1_linear_6504_12511" x1="5.74609" y1="11.5833" x2="8.87518" y2="11.5833" gradientUnits="userSpaceOnUse">
<stop stop-color="#21CFFF"/>
<stop offset="1" stop-color="#019AE6"/>
</linearGradient>
<clipPath id="clip0_6504_12511">
<rect width="23" height="20" fill="white"/>
</clipPath>
</defs>
</svg>
