<svg width="43" height="46" viewBox="0 0 43 46" fill="none" xmlns="http://www.w3.org/2000/svg">
<g clip-path="url(#clip0_6327_5781)">
<path d="M24.4529 33.4542C24.1119 33.1126 23.6866 33.1675 23.4175 33.3981C23.1125 33.6586 23.0542 34.1585 23.3729 34.4777L30.4308 41.5647C31.0781 42.2141 31.0422 43.2364 30.437 43.8572C29.8319 44.478 28.7978 44.5378 28.1294 43.8684L20.7007 36.4161C20.3845 36.0983 19.9456 36.117 19.6715 36.3526C19.3677 36.6131 19.2995 37.1118 19.6058 37.4209L25.2973 43.1466C25.9396 43.7923 25.8169 44.8557 25.2192 45.4242C24.6215 45.9926 23.606 46.055 22.9624 45.4092L16.9262 39.3594C16.6212 39.054 16.1698 39.0764 15.8834 39.3457C15.597 39.615 15.5598 40.0949 15.8784 40.4153L18.6597 43.2102C19.302 43.8547 19.2909 44.8557 18.7143 45.474C18.0831 46.1522 17.0353 46.1908 16.3534 45.5064L7.08203 36.2105L10.0022 21.4917H16.0434L13.7891 23.394C13.1158 24.0759 12.6148 25.0047 12.8318 26.0069L14.5417 33.9105C14.6199 34.2732 14.9844 34.5687 15.3614 34.4889C16.3162 34.2882 17.2015 33.9341 18.0038 33.3894C20.3151 31.8199 20.3176 29.0212 20.5966 26.4806C21.415 26.2799 23.3481 27.7335 23.8862 28.282L34.0702 38.6638C34.617 39.221 34.0776 40.3218 33.6052 40.6571C32.943 41.1283 32.08 41.1047 31.4799 40.5025L24.4517 33.4554L24.4529 33.4542Z" fill="url(#paint0_linear_6327_5781)"/>
<path d="M25.3576 18.9086C28.5703 16.995 29.9864 13.2539 28.8481 9.73847C27.7569 6.36514 24.4524 4.12747 20.8391 4.42915C17.3832 4.71711 14.4544 7.37489 13.8766 10.848C13.2814 14.422 15.1637 17.9175 18.5649 19.3536L17.8433 20.0006L13.0681 19.9844C13.1165 18.8687 12.5783 18.2117 11.6434 17.8252C9.99917 17.1446 9.29238 14.8907 10.2137 13.396C10.7618 12.5059 10.7258 11.7842 10.1938 10.8991C9.29486 9.40313 10.0277 7.18291 11.6297 6.51348C12.5709 6.11955 13.0123 5.5511 13.0904 4.50768C13.2206 2.76991 15.1042 1.37245 16.7992 1.77137C17.8458 2.01695 18.5265 1.78383 19.2197 0.977277C20.3381 -0.325433 22.668 -0.325433 23.7865 0.977277C24.4809 1.78508 25.1592 2.01695 26.2057 1.77137C27.9007 1.37245 29.7843 2.76866 29.9145 4.50893C29.9926 5.55234 30.4315 6.11581 31.3764 6.51224C32.976 7.18416 33.7088 9.40313 32.8098 10.9003C32.2791 11.7842 32.2444 12.5047 32.7875 13.3898C33.7163 14.9044 32.9995 17.1209 31.364 17.834C29.323 18.7241 30.4167 19.6752 29.4966 21.0639C27.9665 20.6837 26.6434 19.9557 25.3588 18.9098L25.3576 18.9086Z" fill="url(#paint1_linear_6327_5781)"/>
<path d="M24.9333 27.2234C24.0145 26.2897 22.0888 25.0032 20.674 24.9721C19.7663 24.9521 19.16 25.5941 19.0905 26.4593C18.876 29.0971 18.752 31.8172 15.8207 32.7946L14.2943 25.7512C14.1963 25.2974 14.4567 24.7776 14.8014 24.4896L20.6231 19.6253C21.5978 18.8101 22.9642 19.0157 23.9488 19.7076C26.6941 21.9777 29.5572 23.2642 33.2126 22.5885L35.8774 36.017L34.7316 37.1826L24.9345 27.2247L24.9333 27.2234Z" fill="url(#paint2_linear_6327_5781)"/>
<path d="M5.53237 36.3875C5.4245 36.931 5.04382 37.1379 4.57759 37.0893L0.633217 36.2964C0.209144 36.2117 -0.0314118 35.8477 0.00330765 35.3927L3.0735 19.9334C3.17145 19.4422 3.54097 19.1892 4.02332 19.2465L7.92305 20.0269C8.34465 20.1117 8.6906 20.4794 8.59264 20.9718L5.53237 36.3875Z" fill="url(#paint3_linear_6327_5781)"/>
<path d="M38.4634 37.0805C37.9662 37.1803 37.5731 36.8985 37.4801 36.4311L34.4087 20.9718C34.3616 20.5318 34.5786 20.1316 35.0039 20.0468L38.978 19.2502C39.4517 19.1555 39.8348 19.4709 39.9278 19.9334L42.998 35.3976C43.029 35.8476 42.7922 36.2129 42.3681 36.2977L38.4622 37.0793L38.4634 37.0805Z" fill="url(#paint4_linear_6327_5781)"/>
<path d="M21.5142 14.2812L18.6064 16.0153L19.3566 12.7217L16.832 10.5065L20.1775 10.1899L21.4981 7.08081L22.8187 10.1911L26.1802 10.499L23.6457 12.7105L24.3835 16.0028L21.5142 14.2812Z" fill="url(#paint5_linear_6327_5781)"/>
</g>
<defs>
<linearGradient id="paint0_linear_6327_5781" x1="7.08203" y1="33.7466" x2="34.3002" y2="33.7466" gradientUnits="userSpaceOnUse">
<stop stop-color="#21CFFF"/>
<stop offset="1" stop-color="#019AE6"/>
</linearGradient>
<linearGradient id="paint1_linear_6327_5781" x1="9.80469" y1="10.5321" x2="33.199" y2="10.5321" gradientUnits="userSpaceOnUse">
<stop stop-color="#21CFFF"/>
<stop offset="1" stop-color="#019AE6"/>
</linearGradient>
<linearGradient id="paint2_linear_6327_5781" x1="14.2734" y1="28.1394" x2="35.8774" y2="28.1394" gradientUnits="userSpaceOnUse">
<stop stop-color="#21CFFF"/>
<stop offset="1" stop-color="#019AE6"/>
</linearGradient>
<linearGradient id="paint3_linear_6327_5781" x1="0" y1="28.1673" x2="8.60939" y2="28.1673" gradientUnits="userSpaceOnUse">
<stop stop-color="#21CFFF"/>
<stop offset="1" stop-color="#019AE6"/>
</linearGradient>
<linearGradient id="paint4_linear_6327_5781" x1="34.4023" y1="28.167" x2="43.0007" y2="28.167" gradientUnits="userSpaceOnUse">
<stop stop-color="#21CFFF"/>
<stop offset="1" stop-color="#019AE6"/>
</linearGradient>
<linearGradient id="paint5_linear_6327_5781" x1="16.832" y1="11.548" x2="26.1802" y2="11.548" gradientUnits="userSpaceOnUse">
<stop stop-color="#21CFFF"/>
<stop offset="1" stop-color="#019AE6"/>
</linearGradient>
<clipPath id="clip0_6327_5781">
<rect width="43" height="46" fill="white"/>
</clipPath>
</defs>
</svg>
