<svg width="45" height="45" viewBox="0 0 45 45" fill="none" xmlns="http://www.w3.org/2000/svg">
<g clip-path="url(#clip0_4235_3089)">
<path d="M26.3716 31.4462C24.4787 31.7058 23.0853 33.1613 23.0289 35.014C22.9726 36.8811 24.2965 38.4978 26.2798 38.7823C25.1577 40.3361 25.3164 42.3422 26.6193 43.6337C27.9197 44.9213 29.9698 45.0498 31.4681 43.9065L31.7788 44.9987H7.88867C3.62973 45.0157 0.0183518 41.6001 0.0157301 37.2981L0 13.5957L44.9934 13.5931L45.0013 31.7635L43.912 31.4606C45.0629 29.941 44.9161 27.9191 43.6407 26.6197C42.3652 25.3204 40.3413 25.1499 38.7879 26.2749C38.5113 24.3553 36.9934 23.052 35.1962 23.0218C33.399 22.9917 31.7801 24.3134 31.4904 26.2172C29.9751 25.0555 27.9236 25.1853 26.6246 26.4755C25.3137 27.7775 25.125 29.8177 26.3742 31.4475L26.3716 31.4462ZM14.0247 28.3715L17.218 18.7841C17.505 17.9239 16.982 17.0441 16.1719 16.8016C15.4208 16.5773 14.5229 16.9537 14.2463 17.7836L11.0386 27.4065C10.7516 28.2692 11.2667 29.1346 12.0388 29.3811C12.8332 29.6355 13.7298 29.2579 14.0247 28.3702V28.3715ZM7.88211 27.4419C8.52443 28.0817 9.5364 27.9493 10.0752 27.3881C10.6454 26.7954 10.6795 25.8173 10.0752 25.2089L7.98305 23.1005L10.0463 21.0249C10.6677 20.4008 10.6559 19.4292 10.0922 18.8313C9.52853 18.2334 8.53098 18.118 7.92537 18.7211L4.6417 21.9926C4.01512 22.618 4.04527 23.6171 4.66399 24.2334L7.8808 27.4405L7.88211 27.4419ZM20.4059 27.413L23.6175 24.1993C24.2323 23.5843 24.2074 22.5878 23.5991 21.9794L20.4099 18.7906C19.7911 18.1731 18.8041 18.1888 18.188 18.7985C17.6492 19.3322 17.5391 20.3405 18.1473 20.9554L20.2735 23.1031L18.2561 25.1184C17.6138 25.7596 17.5483 26.7325 18.167 27.3802C18.732 27.9716 19.7492 28.0699 20.4046 27.4143L20.4059 27.413Z" fill="url(#paint0_linear_4235_3089)"/>
<path d="M45.0001 7.78846L44.9778 10.4515H0.0197423L0.00401216 7.65865C-0.0182722 3.51399 3.47906 0 7.69867 0H37.3002C41.5578 0 45.0342 3.56381 45.0001 7.78846ZM23.8719 4.18925C22.9294 4.31512 22.3723 5.17788 22.5296 6.02491C22.6869 6.87194 23.4472 7.41608 24.3045 7.2889C25.1618 7.16171 25.7621 6.39467 25.6166 5.48864C25.496 4.74257 24.7842 4.06862 23.8719 4.19056V4.18925ZM29.5623 4.19974C28.6224 4.36757 28.0967 5.25 28.3065 6.11407C28.4965 6.89292 29.2778 7.45935 30.1705 7.26792C30.9268 7.10533 31.5364 6.316 31.3634 5.44274C31.2126 4.67963 30.4707 4.03584 29.5609 4.19974H29.5623ZM35.3536 4.19318C34.4124 4.33479 33.8907 5.21329 34.0401 6.01442C34.1987 6.86014 34.9852 7.40953 35.7993 7.29021C36.6657 7.16434 37.2753 6.36582 37.1245 5.47159C36.9961 4.70979 36.262 4.05551 35.3536 4.19187V4.19318Z" fill="url(#paint1_linear_4235_3089)"/>
<path d="M36.7045 43.3977C36.698 44.2815 36.0268 44.9594 35.1984 44.9935C34.383 45.0275 33.59 44.3877 33.5768 43.504L33.5506 41.7732C32.8152 41.5372 32.2175 41.2894 31.5228 40.9275L30.3338 42.1102C29.681 42.7605 28.669 42.7513 28.0595 42.1154C27.45 41.4795 27.505 40.479 28.1578 39.8313L29.3061 38.6932C28.964 38.0127 28.7359 37.4817 28.5026 36.7277L26.6281 36.6923C25.7786 36.6766 25.1547 35.9712 25.1206 35.1976C25.0865 34.424 25.658 33.6045 26.5179 33.5887L28.4803 33.5533C28.7228 32.8217 28.9981 32.1687 29.3599 31.4672L28.1578 30.2793C27.5037 29.6329 27.4303 28.6508 28.0595 27.9952C28.669 27.3593 29.681 27.3501 30.3351 28.0005L31.6145 29.2736C32.2975 28.9406 32.8847 28.7033 33.5546 28.4738L33.5768 26.608C33.5873 25.7452 34.3201 25.1276 35.1053 25.1132C35.8905 25.0988 36.6822 25.7373 36.694 26.6211L36.7176 28.479C37.4189 28.7151 38.0088 28.9576 38.6918 29.2959L39.941 28.0647C40.5755 27.4393 41.5809 27.4956 42.1576 28.0962C42.7908 28.7557 42.72 29.7338 42.0659 30.3842L40.9268 31.5171C41.2951 32.2199 41.5402 32.8086 41.7749 33.552L43.5039 33.5756C44.3572 33.5874 44.9812 34.3151 44.9956 35.1045C45.01 35.8938 44.4215 36.6582 43.5734 36.6792L41.7749 36.7264C41.5363 37.4371 41.2938 38.0192 40.9871 38.6526L42.1104 39.7828C42.7213 40.3964 42.7619 41.3261 42.2009 41.9672C41.6687 42.5743 40.6344 42.7133 39.9934 42.0905L38.7783 40.9104C38.0862 41.2684 37.4923 41.5306 36.715 41.7732L36.7019 43.4004L36.7045 43.3977ZM34.9624 31.4777C32.8559 31.5774 31.3681 33.3698 31.4808 35.3392C31.5935 37.3086 33.3107 38.8794 35.3098 38.7863C37.3075 38.6932 38.9081 36.9454 38.7875 34.9196C38.6708 32.979 37.0388 31.3794 34.9624 31.4777Z" fill="url(#paint2_linear_4235_3089)"/>
</g>
<defs>
<linearGradient id="paint0_linear_4235_3089" x1="0" y1="29.2959" x2="45.0013" y2="29.2959" gradientUnits="userSpaceOnUse">
<stop stop-color="#21CFFF"/>
<stop offset="1" stop-color="#019AE6"/>
</linearGradient>
<linearGradient id="paint1_linear_4235_3089" x1="0.00390625" y1="5.22574" x2="45.0003" y2="5.22574" gradientUnits="userSpaceOnUse">
<stop stop-color="#21CFFF"/>
<stop offset="1" stop-color="#019AE6"/>
</linearGradient>
<linearGradient id="paint2_linear_4235_3089" x1="25.1191" y1="35.0539" x2="44.9959" y2="35.0539" gradientUnits="userSpaceOnUse">
<stop stop-color="#21CFFF"/>
<stop offset="1" stop-color="#019AE6"/>
</linearGradient>
<clipPath id="clip0_4235_3089">
<rect width="45" height="45" fill="white"/>
</clipPath>
</defs>
</svg>
