<svg width="45" height="45" viewBox="0 0 45 45" fill="none" xmlns="http://www.w3.org/2000/svg">
<g clip-path="url(#clip0_3515_1564)">
<path d="M32.0414 21.2012L35.9914 17.2616C36.6139 16.6417 37.5234 16.5893 38.163 17.1227C38.8025 17.6561 38.9336 18.7268 38.3084 19.3677L36.7856 20.9299H39.2835C40.7355 20.9273 41.86 19.7307 41.86 18.2878V11.0324C41.8587 9.51475 40.691 8.37848 39.1642 8.37848H13.5917C13.8446 11.229 11.7005 13.6077 8.86585 13.609H4.74551C2.16244 13.6011 0.0301913 11.5697 0.0183964 8.96693L4.88758e-05 4.84648C-0.011746 2.12834 2.11264 -0.0446009 4.85167 0.0104433L8.76625 -4.13024e-05C11.6403 -0.00790477 13.8485 2.33541 13.5917 5.23965L39.2625 5.24489C42.4773 5.24489 44.9974 7.85687 44.9974 11.0259V18.2838C44.9974 21.4738 42.4707 24.0425 39.2782 24.0674L36.7843 24.0871L38.2639 25.5864C38.8916 26.222 38.8615 27.2469 38.2128 27.8419C37.564 28.4369 36.6309 28.3884 35.9901 27.7488L32.0139 23.7817C31.6456 23.4147 31.3914 23.0425 31.377 22.5419C31.3626 22.0072 31.6221 21.6179 32.0388 21.2025L32.0414 21.2012Z" fill="url(#paint0_linear_3515_1564)"/>
<path d="M22.8391 36.6267C22.3516 36.0658 21.8785 35.6045 21.3831 35.0999C20.7763 34.4826 20.7986 33.5233 21.387 32.9178C21.9558 32.332 22.9649 32.2599 23.6005 32.8942L27.7654 37.0514C28.418 37.7027 28.4194 38.6975 27.7654 39.3501L23.6005 43.506C22.9662 44.139 21.9571 44.0656 21.3922 43.4863C20.7684 42.8467 20.8038 41.8848 21.4276 41.2465L22.8666 39.7748L5.74047 39.7617C2.52964 39.759 0.0107863 37.1536 0.00947575 33.982V26.8197C-0.0390142 23.6048 2.4864 20.9457 5.73784 20.9417L15.7228 20.93C15.462 18.0821 17.6166 15.7047 20.4473 15.7034H24.5651C27.2045 15.7021 29.304 17.8003 29.304 20.4424V24.5603C29.304 27.167 27.2648 29.2429 24.6633 29.3032L20.4473 29.3006C17.6153 29.298 15.4634 26.9245 15.7215 24.0727L5.73391 24.078C4.25693 24.078 3.15346 25.2889 3.14691 26.7188V33.9794C3.14822 35.4446 4.25824 36.5848 5.73784 36.632L22.8391 36.6254V36.6267Z" fill="url(#paint1_linear_3515_1564)"/>
<path d="M44.992 40.3213C44.9868 42.9699 42.8427 45 40.2623 45H36.1406C33.4999 45 31.4004 42.8978 31.4004 40.261V36.1392C31.4004 33.4997 33.4999 31.4001 36.1406 31.4001H40.2609C42.9017 31.4001 45.0051 33.4984 45.0012 36.1405L44.9933 40.3199L44.992 40.3213Z" fill="url(#paint2_linear_3515_1564)"/>
</g>
<defs>
<linearGradient id="paint0_linear_3515_1564" x1="0" y1="14.1299" x2="44.9974" y2="14.1299" gradientUnits="userSpaceOnUse">
<stop stop-color="#21CFFF"/>
<stop offset="1" stop-color="#019AE6"/>
</linearGradient>
<linearGradient id="paint1_linear_3515_1564" x1="0.00878906" y1="29.8274" x2="29.304" y2="29.8274" gradientUnits="userSpaceOnUse">
<stop stop-color="#21CFFF"/>
<stop offset="1" stop-color="#019AE6"/>
</linearGradient>
<linearGradient id="paint2_linear_3515_1564" x1="31.4004" y1="38.2001" x2="45.0012" y2="38.2001" gradientUnits="userSpaceOnUse">
<stop stop-color="#21CFFF"/>
<stop offset="1" stop-color="#019AE6"/>
</linearGradient>
<clipPath id="clip0_3515_1564">
<rect width="45" height="45" fill="white"/>
</clipPath>
</defs>
</svg>
