<svg width="92" height="32" viewBox="0 0 92 32" fill="none" xmlns="http://www.w3.org/2000/svg">
<path fill-rule="evenodd" clip-rule="evenodd" d="M15.1235 21.5194C15.074 21.4195 15.0263 21.3181 14.9806 21.2153C14.935 21.1126 14.5134 20.0224 14.358 19.1394C14.2026 18.2563 14.1548 17.3012 14.2154 16.2803C14.3869 13.4042 16.1235 11.5553 18.5365 11.6795C19.7605 11.7425 20.8135 12.3315 21.5014 13.3379C22.0829 14.1888 22.3673 15.2847 22.3029 16.4236C22.2175 17.9277 21.6234 19.1077 20.537 19.9309C19.712 20.5561 18.6429 20.9515 17.2957 21.1261C17.7436 21.8429 18.333 22.3742 19.0415 22.6676C20.2459 23.1665 22.225 23.1956 23.8385 21.6357C25.252 20.2691 25.8635 18.6263 25.8824 16.1437C25.8613 13.3897 24.9469 11.3069 23.1646 9.95275C21.4958 8.68468 19.0852 8.02933 16 8.00488C12.9147 8.02933 10.5042 8.68468 8.83534 9.95275C7.05311 11.3069 6.13875 13.3897 6.11756 16.1436C6.13891 18.9176 7.05768 21.0366 8.8485 22.4426C9.7267 23.1321 10.8311 23.6518 12.1188 23.9945C13.4065 24.3371 13.1653 26.3594 11.5803 25.9441C9.99528 25.5287 8.62946 24.8752 7.49675 23.9858C5.20084 22.1833 4.02439 19.5471 4 16.1504L4 16.1368C4.02431 12.7471 5.20523 10.1404 7.50991 8.38921C9.5608 6.83091 12.4145 6.02709 15.9916 6.00008L16 6L16.0084 6.00008C19.5855 6.02709 22.4393 6.83091 24.4901 8.38921C26.7948 10.1404 27.9758 12.7471 28 16.1368L28 16.1504C27.9784 19.1641 27.1615 21.2884 25.3514 23.0384C22.9833 25.3279 20.0149 25.259 18.1926 24.5044C16.8859 23.963 15.8245 22.9308 15.1235 21.5194ZM18.4215 13.6813C19.6761 13.7459 20.2619 15.0554 20.1884 16.3159C20.1183 17.5501 19.6169 18.9509 16.5291 19.1897C16.3842 18.5494 16.3085 17.8452 16.3085 17.0924C16.3085 16.8636 16.3154 16.6307 16.3296 16.3933C16.4533 14.3208 17.4912 13.6335 18.4215 13.6813Z" fill="url(#paint0_radial_105_2667)" stroke="url(#paint1_linear_105_2667)" stroke-width="0.8"/>
<path d="M34.2 24V12.096H36.84V13.992C37.24 13.32 37.784 12.792 38.472 12.408C39.16 12.008 39.944 11.808 40.824 11.808C42.28 11.808 43.416 12.264 44.232 13.176C45.048 14.072 45.456 15.408 45.456 17.184V24H42.816V17.448C42.816 16.328 42.584 15.488 42.12 14.928C41.672 14.352 40.984 14.064 40.056 14.064C39.128 14.064 38.36 14.392 37.752 15.048C37.144 15.704 36.84 16.64 36.84 17.856V24H34.2ZM53.5761 24.288C52.3921 24.288 51.3281 24.032 50.3841 23.52C49.4401 22.992 48.6881 22.256 48.1281 21.312C47.5841 20.368 47.3121 19.28 47.3121 18.048C47.3121 16.8 47.5841 15.712 48.1281 14.784C48.6881 13.84 49.4401 13.112 50.3841 12.6C51.3441 12.072 52.4081 11.808 53.5761 11.808C54.7761 11.808 55.8401 12.072 56.7681 12.6C57.7121 13.112 58.4561 13.84 59.0001 14.784C59.5601 15.712 59.8401 16.8 59.8401 18.048C59.8401 19.28 59.5601 20.368 59.0001 21.312C58.4561 22.256 57.7121 22.992 56.7681 23.52C55.8241 24.032 54.7601 24.288 53.5761 24.288ZM53.5521 22.008C54.2081 22.008 54.8001 21.864 55.3281 21.576C55.8721 21.272 56.3041 20.832 56.6241 20.256C56.9441 19.664 57.1041 18.928 57.1041 18.048C57.1041 17.168 56.9441 16.44 56.6241 15.864C56.3041 15.272 55.8721 14.832 55.3281 14.544C54.8001 14.24 54.2241 14.088 53.6001 14.088C52.9601 14.088 52.3681 14.24 51.8241 14.544C51.2801 14.832 50.8481 15.272 50.5281 15.864C50.2081 16.44 50.0481 17.168 50.0481 18.048C50.0481 18.928 50.2081 19.664 50.5281 20.256C50.8481 20.832 51.2721 21.272 51.8001 21.576C52.3441 21.864 52.9281 22.008 53.5521 22.008ZM66.9962 24.288C65.8602 24.288 64.8442 24.016 63.9482 23.472C63.0682 22.928 62.3722 22.184 61.8602 21.24C61.3642 20.28 61.1162 19.208 61.1162 18.024C61.1162 16.824 61.3642 15.76 61.8602 14.832C62.3722 13.888 63.0682 13.152 63.9482 12.624C64.8442 12.08 65.8682 11.808 67.0202 11.808C67.9482 11.808 68.7642 11.992 69.4682 12.36C70.1722 12.728 70.7242 13.232 71.1242 13.872V6.72H73.7642V24H71.1242V22.176C70.7562 22.72 70.2362 23.208 69.5642 23.64C68.8922 24.072 68.0362 24.288 66.9962 24.288ZM67.4762 21.984C68.1962 21.984 68.8282 21.816 69.3722 21.48C69.9322 21.144 70.3642 20.68 70.6682 20.088C70.9882 19.496 71.1482 18.816 71.1482 18.048C71.1482 17.264 70.9882 16.576 70.6682 15.984C70.3642 15.392 69.9322 14.936 69.3722 14.616C68.8282 14.28 68.1962 14.112 67.4762 14.112C66.7722 14.112 66.1402 14.28 65.5802 14.616C65.0362 14.936 64.6042 15.392 64.2842 15.984C63.9642 16.576 63.8042 17.256 63.8042 18.024C63.8042 18.808 63.9642 19.496 64.2842 20.088C64.6042 20.68 65.0362 21.144 65.5802 21.48C66.1402 21.816 66.7722 21.984 67.4762 21.984ZM79.8313 24.288C78.9033 24.288 78.1113 24.128 77.4553 23.808C76.8153 23.472 76.3273 23.032 75.9913 22.488C75.6713 21.944 75.5113 21.352 75.5113 20.712C75.5113 19.448 75.9673 18.472 76.8793 17.784C77.7913 17.096 78.9913 16.752 80.4793 16.752C81.1513 16.752 81.7513 16.808 82.2793 16.92C82.8073 17.016 83.2393 17.12 83.5753 17.232V16.68C83.5753 15.752 83.3193 15.064 82.8073 14.616C82.3113 14.168 81.6473 13.944 80.8153 13.944C80.1913 13.944 79.6393 14.072 79.1593 14.328C78.6793 14.584 78.3753 15.032 78.2473 15.672H75.7033C75.7993 14.808 76.0873 14.096 76.5673 13.536C77.0633 12.96 77.6793 12.528 78.4153 12.24C79.1513 11.952 79.9513 11.808 80.8153 11.808C82.5433 11.808 83.8713 12.24 84.7993 13.104C85.7433 13.968 86.2153 15.16 86.2153 16.68V19.8C86.2153 20.408 86.2473 20.848 86.3113 21.12C86.3913 21.392 86.5113 21.568 86.6713 21.648C86.8473 21.712 87.0793 21.744 87.3673 21.744H87.4873V24H86.9113C86.1113 24 85.4393 23.88 84.8953 23.64C84.3673 23.4 83.9993 22.92 83.7913 22.2C83.4073 22.792 82.8873 23.288 82.2313 23.688C81.5753 24.088 80.7753 24.288 79.8313 24.288ZM80.3593 22.224C80.9673 22.224 81.4873 22.08 81.9193 21.792C82.3513 21.488 82.6953 21.096 82.9513 20.616C83.2233 20.12 83.3913 19.592 83.4553 19.032C83.1033 18.936 82.6873 18.84 82.2073 18.744C81.7273 18.648 81.2393 18.6 80.7433 18.6C79.8953 18.6 79.2553 18.776 78.8233 19.128C78.3913 19.48 78.1753 19.944 78.1753 20.52C78.1753 21.016 78.3673 21.424 78.7513 21.744C79.1353 22.064 79.6713 22.224 80.3593 22.224Z" fill="black"/>
<defs>
<radialGradient id="paint0_radial_105_2667" cx="0" cy="0" r="1" gradientUnits="userSpaceOnUse" gradientTransform="translate(16 26) rotate(-90) scale(20 94.08)">
<stop stop-color="#368CFB"/>
<stop offset="0.3" stop-color="#5CAEFE"/>
<stop offset="1" stop-color="#FFEB85"/>
</radialGradient>
<linearGradient id="paint1_linear_105_2667" x1="16" y1="26" x2="16" y2="6" gradientUnits="userSpaceOnUse">
<stop stop-color="#368CFB"/>
<stop offset="0.3" stop-color="#5CAEFE"/>
<stop offset="1" stop-color="#FFEB85"/>
</linearGradient>
</defs>
</svg>
