<svg width="148" height="140" viewBox="0 0 148 140" fill="none" xmlns="http://www.w3.org/2000/svg">
<g clip-path="url(#clip0_2501_3983)">
<g clip-path="url(#clip1_2501_3983)">
<path fill-rule="evenodd" clip-rule="evenodd" d="M111.073 31.5481C111.317 31.6242 111.454 31.8817 111.379 32.1275C111.304 32.3675 111.044 32.508 110.8 32.4319C109.092 31.9578 106.039 31.3549 103.296 31.1091C101.329 30.9335 99.5317 30.916 98.6075 31.3667C98.4492 31.4427 98.3622 31.6476 98.2539 31.8935C98.0751 32.2915 97.9504 32.8124 97.8674 33.4094C97.758 34.1879 97.7374 35.0893 97.8003 36.0317C97.8874 37.3077 98.141 38.6599 98.611 39.8774C99.3487 41.7855 100.605 43.3834 102.689 43.6176C104.937 43.881 106.548 43.2078 107.687 41.9786C108.899 40.6675 109.607 38.771 110.013 36.7458C110.057 36.4941 110.297 36.3302 110.548 36.3712C110.801 36.418 110.97 36.6522 110.926 36.9038C110.588 39.1632 109.878 41.2763 108.608 42.7806C107.275 44.3668 105.332 45.2975 102.548 45.0985C99.2316 44.8351 97.2632 42.0079 96.4502 38.8062C96.2149 37.8813 96.0808 36.9214 96.0337 36.0024C95.949 34.3342 96.1514 32.7831 96.5414 31.712C96.8815 30.7696 97.3938 30.155 97.9374 29.9151C99.0475 29.441 101.155 29.4468 103.452 29.7746C106.253 30.1667 109.347 30.9686 111.073 31.5481Z" fill="#11023B"/>
<path fill-rule="evenodd" clip-rule="evenodd" d="M103.142 26.7601C102.976 26.9532 102.683 26.9766 102.489 26.8127C102.294 26.6488 102.271 26.3562 102.437 26.163C102.863 25.5133 103.748 24.8928 104.845 24.5182C105.148 24.4129 105.468 24.3426 105.797 24.3016C106.121 24.2607 106.456 24.2489 106.786 24.2782C107.285 24.3309 107.78 24.4538 108.242 24.6704C109.221 25.1211 110.085 25.8821 110.584 27.1054C110.706 27.3278 110.622 27.6087 110.397 27.7317C110.172 27.8487 109.891 27.7668 109.769 27.5444C109.132 26.6254 108.253 26.245 107.359 26.0928C107.078 26.0401 106.795 26.0343 106.513 26.0226C106.22 26.0108 105.93 26.0109 105.644 26.0284C104.962 26.0694 104.321 26.1689 103.809 26.3913C103.548 26.5025 103.314 26.6079 103.142 26.7601Z" fill="#11023B"/>
<path fill-rule="evenodd" clip-rule="evenodd" d="M78.2731 29.6576C78.2808 29.6459 78.2802 29.64 78.2672 29.6283C78.2372 29.6049 78.2184 29.6342 78.2031 29.6869C78.1772 29.6986 78.1519 29.7102 78.1266 29.7219C78.1431 29.7161 78.1725 29.7043 78.2013 29.6926C78.1808 29.7746 78.1684 29.8975 78.1466 29.9853C78.0831 30.2429 78.0419 30.5648 78.0172 30.9335C77.9472 31.9637 78.0419 33.3217 78.3484 34.7323C78.6108 35.9439 79.0291 37.1848 79.6656 38.2794C80.651 39.9768 82.1593 41.329 84.4501 41.5163C87.2856 41.7622 89.3264 40.5797 90.7165 38.8647C92.3572 36.8395 93.1308 34.1118 93.2361 32.0047C93.2432 31.7471 93.4567 31.5481 93.712 31.5539C93.9679 31.5657 94.1697 31.7764 94.1621 32.0281C94.145 34.3343 93.4132 37.3487 91.7089 39.6314C90.1329 41.7386 87.7368 43.2137 84.3454 43.0498C80.7357 42.8508 78.5214 40.3983 77.3554 37.5185C76.3359 34.9957 76.1441 32.1686 76.3677 30.4302C76.4618 29.6986 76.6406 29.1366 76.8436 28.803C77.0242 28.5103 77.2395 28.3288 77.4501 28.241C78.8979 27.6206 81.424 27.4977 84.0836 27.685C88.2439 27.9718 92.7278 28.9259 93.615 29.2947C93.8526 29.3883 93.9697 29.6576 93.8756 29.8916C93.782 30.1316 93.5126 30.2487 93.2749 30.155C92.4031 29.8331 88.0386 29.1542 84.0183 29.0547C81.7334 28.9961 79.5621 29.1132 78.2731 29.6576ZM78.2731 29.6576C78.2619 29.6693 78.2319 29.6868 78.2013 29.6926C78.2019 29.6926 78.2025 29.6869 78.2031 29.6869C78.2261 29.6751 78.2496 29.6693 78.2731 29.6576Z" fill="#11023B"/>
<path fill-rule="evenodd" clip-rule="evenodd" d="M97.2959 32.2504C97.536 32.3382 97.6583 32.6075 97.5695 32.8416C97.4807 33.0816 97.2136 33.2045 96.9742 33.1167C96.9742 33.1167 96.5223 32.9996 95.7235 33.1928C95.4275 33.263 95.0916 33.3801 94.7151 33.5616C94.5816 34.2581 94.1851 36.2424 93.5733 38.6071C93.2844 39.7192 92.9497 40.9192 92.5608 42.1016C92.2379 43.0849 91.8743 44.0565 91.4943 44.9638C91.0595 45.9998 90.5919 46.948 90.1295 47.7441C89.77 48.3586 89.4094 48.9381 89.2218 49.4532C89.1623 49.6112 89.1129 49.7634 89.1088 49.898C89.107 49.9683 89.0976 50.0327 89.1406 50.0795C89.3029 50.2668 89.6253 50.3545 90.1395 50.4072C90.9242 50.4891 92.0479 50.4423 93.6227 50.2433C93.8745 50.2023 94.1139 50.3722 94.1563 50.6238C94.198 50.8755 94.028 51.1096 93.7757 51.1506C91.6955 51.5837 90.3324 51.6716 89.4771 51.5546C88.8464 51.4668 88.4417 51.2384 88.1781 50.9808C87.784 50.5886 87.6751 50.0619 87.7828 49.4239C87.8963 48.7508 88.3258 47.9021 88.7729 47.0124C89.1647 46.2456 89.5335 45.3266 89.9059 44.3374C90.2412 43.4477 90.566 42.4995 90.8889 41.5454C91.2831 40.3923 91.6702 39.2334 92.0167 38.1622C92.9379 35.2941 93.5903 33.023 93.5903 33.023C93.6321 32.8416 93.7539 32.6953 93.9215 32.6133C94.6998 32.2914 95.3469 32.1509 95.8576 32.11C96.7953 32.0339 97.2959 32.2504 97.2959 32.2504Z" fill="#11023B"/>
<path fill-rule="evenodd" clip-rule="evenodd" d="M127.895 39.0753C128.025 39.567 128.098 40.0938 128.11 40.6557C128.161 42.9736 127.164 45.7832 125.065 47.8318C124.204 48.6688 123.323 49.1605 122.463 49.4415C120.944 49.9273 119.494 49.74 118.357 49.623C118.022 49.5879 117.721 49.5585 117.463 49.5702C117.337 49.5761 117.222 49.5645 117.154 49.6406C117.115 49.6815 117.1 49.7458 117.085 49.8278C115.858 56.3249 113.526 61.4759 110.546 65.2864C106.518 70.4314 101.305 73.1473 95.9939 73.4341C91.4176 73.68 88.0485 70.3142 85.7236 65.4912C82.9299 59.7023 81.6097 51.8472 81.2427 46.2925C81.225 46.0408 81.4174 45.8183 81.6721 45.8008C81.9274 45.7832 82.1492 45.9764 82.1669 46.228C82.5792 51.6657 83.9335 59.357 86.7261 65.0054C88.858 69.3251 91.8071 72.4683 95.9215 72.2049C100.887 71.8947 105.731 69.2957 109.461 64.4493C112.292 60.7675 114.477 55.804 115.603 49.5527C115.722 48.8913 116.043 48.5167 116.466 48.2943C116.94 48.0426 117.646 48.025 118.512 48.1069C119.96 48.2533 122.038 48.6103 123.956 46.7139C125.383 45.3033 126.199 43.4712 126.423 41.7855C126.684 39.8188 126.192 38.0101 124.652 37.6647C123.638 37.4306 122.754 37.6062 121.988 37.9398C120.698 38.5018 119.711 39.5026 118.961 40.0645C118.48 40.4274 118.045 40.6323 117.692 40.6733C117.407 40.7084 117.127 40.6323 116.874 40.3923C116.763 40.2811 116.644 40.1173 116.547 39.8832C116.442 39.6256 116.344 39.2217 116.263 38.7008C115.876 36.219 115.721 30.5471 114.745 26.1162C114.308 24.1378 113.745 22.4111 112.844 21.457C111.171 21.8024 105.086 23.0023 98.447 23.6344C95.0673 23.9564 91.5447 24.132 88.3844 23.974C82.138 23.6637 77.6441 22.6102 74.6874 20.9068C71.3236 18.9694 69.8388 16.2125 69.9523 12.6888C70.0112 10.927 70.8459 9.25884 72.3419 7.77795C73.9044 6.22683 76.2023 4.86297 79.0266 3.78011C84.0464 1.85438 90.7505 0.789114 97.8258 1.03495C102.082 1.18128 107.758 2.19387 112.113 5.16734C114.67 6.91162 116.778 9.32909 117.901 12.6361C119.105 12.3962 121.992 12.0098 124.857 13.0809C126.909 13.8419 128.957 15.3403 130.369 18.1616C132.43 22.2823 132.985 26.1279 132.657 29.4116C132.206 33.9186 130.084 37.3779 127.895 39.0753ZM127.556 38.1564C129.487 36.5058 131.27 33.3509 131.64 29.3122C131.926 26.1924 131.363 22.5516 129.375 18.6591C128.101 16.1598 126.28 14.837 124.451 14.1697C121.064 12.9347 117.66 13.9414 117.66 13.9414C117.338 14.0351 117 13.8477 116.903 13.5316C115.897 10.2539 113.862 7.90672 111.381 6.23854C107.225 3.44066 101.824 2.53925 97.7817 2.42804C90.9246 2.23488 84.4329 3.29431 79.5814 5.19663C76.9964 6.20925 74.8845 7.45603 73.4603 8.88424C72.2925 10.0607 71.6007 11.3543 71.5642 12.7356C71.4854 15.6388 72.7367 17.8924 75.5151 19.4786C78.3142 21.0707 82.5704 21.9955 88.4668 22.2589C91.5488 22.4053 94.9826 22.218 98.2782 21.9019C105.975 21.1527 112.92 19.6484 112.92 19.6484C113.182 19.5898 113.456 19.6542 113.664 19.8239C114.966 20.8775 115.878 23.0959 116.456 25.7475C117.429 30.2135 117.571 35.9439 117.951 38.4432C117.963 38.5193 117.977 38.6013 117.992 38.6774C118.091 38.6013 118.194 38.5193 118.302 38.4374C119.09 37.7993 120.09 36.9389 121.317 36.4121C122.385 35.9497 123.614 35.7273 125.022 36.0551C126.18 36.3185 127.042 37.0853 127.556 38.1564Z" fill="#11023B"/>
<path fill-rule="evenodd" clip-rule="evenodd" d="M127.053 39.1048C126.697 37.9576 125.955 37.1147 124.837 36.8572C121.082 36.0026 118.809 39.696 117.594 39.8306C116.379 39.9711 117.197 23.8161 113.108 20.5031C113.108 20.5031 98.7985 23.6112 88.4259 23.1195C75.8754 22.5225 70.5738 18.9286 70.7586 12.7124C70.9539 6.14507 83.6161 1.28678 97.8037 1.73163C104.477 1.93649 114.743 4.28957 117.489 13.3563C117.489 13.3563 126.057 10.8628 129.873 18.4076C134.896 28.3465 130.892 36.6698 127.053 39.1048ZM76.3161 8.31658C75.5013 8.91947 74.5259 9.93209 73.8082 11.173C73.5811 11.5652 73.4117 11.9807 73.2799 12.4139C73.137 12.8763 73.0611 13.3562 73.0629 13.8303C73.0646 14.3454 73.1394 14.8606 73.327 15.3405C73.8918 16.7804 75.1124 18.1032 77.7209 18.5188C78.1292 18.6417 78.5604 18.4076 78.6833 18.0037C78.8057 17.5999 78.5739 17.1667 78.1662 17.0438C76.7179 16.3941 76.1567 15.522 75.9984 14.6089C75.9484 14.3221 75.9849 14.0294 76.0078 13.7367C76.0337 13.4031 76.0731 13.0635 76.1425 12.7241C76.4084 11.4305 76.8767 10.1546 77.4215 9.39364C77.7191 9.08926 77.7133 8.60345 77.4079 8.30493C77.1026 8.00641 76.6132 8.01221 76.3161 8.31658Z" fill="#11023B"/>
<path fill-rule="evenodd" clip-rule="evenodd" d="M116.778 6.78284C116.675 6.55456 116.781 6.27951 117.015 6.17415C117.249 6.07464 117.522 6.17995 117.626 6.41408C117.626 6.41408 118.142 7.16336 118.549 8.44523C118.62 8.6735 118.679 8.90763 118.726 9.17103C118.768 9.40516 118.799 9.651 118.804 9.90855C118.812 10.2715 118.781 10.646 118.719 11.0265C118.588 11.8342 118.34 12.6595 117.93 13.4965C117.851 13.7365 117.588 13.8712 117.345 13.7951C117.102 13.7131 116.969 13.4497 117.049 13.2097C117.173 12.5308 117.173 11.8869 117.151 11.2665C117.14 10.9563 117.101 10.6636 117.079 10.3768C117.057 10.0665 117.032 9.77387 117.013 9.49292C116.995 9.20611 116.995 8.93685 116.981 8.68516C116.918 7.53791 116.778 6.78284 116.778 6.78284Z" fill="#11023B"/>
<path fill-rule="evenodd" clip-rule="evenodd" d="M137.767 9.53395C138.013 9.46371 138.269 9.60414 138.339 9.84998C138.409 10.0958 138.266 10.3534 138.019 10.4178C138.019 10.4178 137.514 10.7338 136.796 11.167C136.632 11.2665 136.465 11.3719 136.28 11.4714C136.146 11.5416 136.006 11.6118 135.861 11.6762C135.648 11.7699 135.427 11.8401 135.211 11.922C134.635 12.1444 134.087 12.32 133.747 12.6478C133.599 12.8527 133.309 12.9054 133.101 12.7591C132.893 12.6069 132.844 12.3201 132.992 12.1152C133.249 11.5651 133.757 11.0441 134.38 10.5583C134.601 10.3885 134.836 10.2305 135.087 10.1017C135.252 10.0139 135.425 9.94368 135.596 9.891C135.777 9.82661 135.953 9.77978 136.128 9.74466C137.066 9.55151 137.767 9.53395 137.767 9.53395Z" fill="#11023B"/>
<path fill-rule="evenodd" clip-rule="evenodd" d="M133.149 14.8313C132.924 14.7083 132.84 14.4332 132.962 14.2049C133.084 13.9825 133.365 13.9006 133.59 14.0235C133.59 14.0235 134.434 14.2751 135.482 14.7727C135.681 14.8663 135.881 14.9717 136.082 15.0888C136.274 15.2058 136.465 15.3288 136.645 15.4751C136.92 15.6917 137.172 15.9316 137.403 16.1833C138.133 16.9735 138.657 17.7813 138.717 18.4486C138.777 18.6944 138.623 18.9461 138.374 19.0047C138.126 19.0632 137.876 18.911 137.816 18.6593C137.705 18.3959 137.42 18.1735 137.097 17.9042C136.753 17.6174 136.324 17.3716 135.9 17.0848C135.626 16.8975 135.352 16.7043 135.095 16.5053C134.885 16.3414 134.699 16.1716 134.515 16.0136C133.729 15.3346 133.149 14.8313 133.149 14.8313Z" fill="#11023B"/>
<path fill-rule="evenodd" clip-rule="evenodd" d="M80.8697 25.9876C80.662 26.1397 80.372 26.0871 80.2226 25.8822C80.0738 25.6774 80.1208 25.3905 80.3285 25.2383C80.7844 24.8227 81.8757 24.4013 83.2493 24.1789C83.567 24.1262 83.8982 24.0969 84.24 24.0794C84.5659 24.0677 84.9006 24.0735 85.2354 24.1028C85.733 24.1496 86.2301 24.2491 86.7114 24.3838C87.9526 24.7291 89.0745 25.2852 89.8351 26.0812C90.0293 26.2451 90.0522 26.5378 89.8857 26.7309C89.7193 26.9241 89.4263 26.9475 89.2322 26.7836C88.7909 26.4792 88.2585 26.2978 87.6814 26.1515C87.1396 26.011 86.5625 25.9466 85.9748 25.8997C85.626 25.8705 85.2765 25.8588 84.93 25.8412C84.5735 25.8237 84.2223 25.8003 83.8805 25.7827C83.0411 25.7417 82.2781 25.7242 81.6798 25.8061C81.3333 25.853 81.0521 25.8939 80.8697 25.9876Z" fill="#11023B"/>
<path fill-rule="evenodd" clip-rule="evenodd" d="M91.1194 60.6387C90.8664 60.6036 90.6899 60.3695 90.7258 60.1178C90.7611 59.8662 90.9958 59.6906 91.2494 59.7257C92.3648 59.7433 93.2737 59.5267 94.0785 59.2867C94.3838 59.1931 94.6673 59.0936 94.9385 58.9999C95.2385 58.8887 95.5209 58.7892 95.7821 58.6721C97.4199 57.9463 98.2547 56.881 98.2547 56.881C98.377 56.6585 98.6588 56.5765 98.883 56.6936C99.1077 56.8165 99.1906 57.0975 99.0683 57.32C99.0683 57.32 98.6077 58.4614 97.3434 59.556C96.9075 59.9306 96.3781 60.3052 95.7262 60.5744C95.3103 60.75 94.8432 60.8787 94.3361 60.9372C93.3913 61.0485 92.3295 60.9607 91.1194 60.6387Z" fill="#11023B"/>
<path fill-rule="evenodd" clip-rule="evenodd" d="M89.2021 35.8979C89.3416 36.2494 89.3146 36.6496 89.1269 37.0107C88.9393 37.3717 88.6064 37.6639 88.2015 37.8231C87.7966 37.9822 87.3528 37.9953 86.9678 37.8593C86.5829 37.7233 86.2882 37.4495 86.1487 37.098C86.0091 36.7466 86.0361 36.3463 86.2238 35.9853C86.4114 35.6243 86.7444 35.332 87.1493 35.1729C87.5542 35.0137 87.9979 35.0007 88.3829 35.1367C88.7679 35.2726 89.0626 35.5465 89.2021 35.8979Z" fill="#11023B"/>
<path fill-rule="evenodd" clip-rule="evenodd" d="M103.02 37.3525C103.16 37.7039 103.133 38.1042 102.945 38.4653C102.758 38.8263 102.425 39.1185 102.02 39.2777C101.615 39.4368 101.171 39.4499 100.786 39.3139C100.401 39.1779 100.107 38.9041 99.967 38.5526C99.8275 38.2012 99.8545 37.8009 100.042 37.4399C100.23 37.0788 100.563 36.7866 100.968 36.6275C101.373 36.4683 101.816 36.4553 102.201 36.5913C102.586 36.7272 102.881 37.0011 103.02 37.3525Z" fill="#11023B"/>
<path fill-rule="evenodd" clip-rule="evenodd" d="M84.1935 85.9835C83.9911 85.8254 83.954 85.5387 84.1105 85.3338C84.267 85.1348 84.5582 85.0996 84.7606 85.2518C86.2148 86.241 87.8491 87.0781 89.5927 87.6224C90.1475 87.798 90.7128 87.9326 91.2882 88.0438C91.8488 88.1433 92.4183 88.2136 92.9977 88.2488C93.8337 88.2956 94.689 88.2722 95.5703 88.1259C97.3628 87.8156 99.2465 87.0605 101.194 85.6148C101.391 85.4509 101.683 85.4744 101.847 85.6734C102.01 85.8665 101.983 86.1591 101.787 86.323C99.8183 88.1258 97.8399 89.1794 95.9027 89.6711C94.892 89.9286 93.8901 90.034 92.9136 89.9989C92.2382 89.9755 91.5741 89.876 90.9281 89.7238C90.2816 89.5716 89.6527 89.3667 89.0444 89.1092C87.239 88.3483 85.6171 87.2185 84.1935 85.9835Z" fill="#11023B"/>
<path fill-rule="evenodd" clip-rule="evenodd" d="M108.492 93.4873C108.503 93.2356 108.718 93.0366 108.974 93.0483C109.229 93.06 109.428 93.2708 109.418 93.5284C109.463 94.9917 109.738 96.4726 110.104 97.9476C110.224 98.4334 110.356 98.9075 110.489 99.3875C110.623 99.8675 110.765 100.347 110.903 100.822C111.116 101.553 111.327 102.267 111.561 102.964C112.188 104.825 112.899 106.499 113.648 107.781C113.79 107.992 113.732 108.279 113.519 108.419C113.307 108.56 113.019 108.507 112.877 108.29C111.931 107.055 110.926 105.422 110.079 103.537C109.761 102.835 109.463 102.098 109.217 101.331C109.057 100.833 108.923 100.318 108.809 99.8031C108.696 99.288 108.607 98.7612 108.54 98.2403C108.337 96.6423 108.316 95.0326 108.492 93.4873Z" fill="#11023B"/>
<path fill-rule="evenodd" clip-rule="evenodd" d="M105.453 81.6289C105.317 81.4123 105.382 81.1313 105.598 80.9967C105.814 80.8562 106.101 80.9264 106.237 81.1371C106.543 81.4415 106.905 81.7635 107.279 82.1849C107.387 82.3078 107.489 82.4366 107.585 82.5829C107.677 82.7175 107.765 82.858 107.835 83.0102C107.942 83.2443 108.02 83.4843 108.085 83.7301C108.244 84.3388 108.328 84.9299 108.319 85.5328C108.366 85.7845 108.2 86.0246 107.949 86.0714C107.697 86.1183 107.455 85.9543 107.409 85.7026C107.212 85.2168 106.902 84.7896 106.603 84.333C106.486 84.1516 106.362 83.9819 106.257 83.8004C106.187 83.6716 106.127 83.5428 106.071 83.414C105.996 83.2384 105.937 83.0687 105.876 82.899C105.703 82.419 105.58 81.9976 105.453 81.6289Z" fill="#11023B"/>
<path fill-rule="evenodd" clip-rule="evenodd" d="M106.717 79.1996C106.728 79.0299 106.811 78.8894 107.059 78.9011C107.16 78.9069 107.343 78.9479 107.62 79.024C107.874 79.0942 108.144 79.2347 108.464 79.4512C108.604 79.5449 108.73 79.662 108.86 79.8025C108.974 79.9254 109.079 80.0659 109.163 80.2298C109.273 80.4405 109.361 80.6805 109.409 80.9556C109.493 81.4414 109.515 81.9683 109.403 82.6238C109.418 82.8755 109.222 83.0978 108.967 83.1096C108.712 83.1213 108.492 82.9281 108.478 82.6764C108.355 82.255 108.176 81.9447 108.01 81.6462C107.927 81.4999 107.823 81.3829 107.743 81.2541C107.662 81.1253 107.576 81.0083 107.509 80.8913C107.093 80.1655 106.734 79.7849 106.734 79.7849C106.487 79.7147 106.341 79.463 106.408 79.2172C106.455 79.0474 106.595 78.9245 106.717 79.1996Z" fill="#11023B"/>
<path fill-rule="evenodd" clip-rule="evenodd" d="M87.4305 76.8465C83.7584 78.9537 79.0533 84.1632 74.9059 89.7062C70.0338 96.2268 65.9387 103.227 65.2928 106.388C65.2434 106.64 64.9998 106.798 64.7486 106.751C64.498 106.704 64.3339 106.458 64.3833 106.207C65.0004 102.97 69.049 95.7293 73.9464 89.0097C78.5903 82.6297 84.0084 76.7354 87.9205 75.0204C88.3123 74.8506 88.5882 74.9618 88.7735 75.1081C88.9188 75.2135 89.0547 75.3949 89.0895 75.6876C89.1065 75.8339 89.0883 76.0682 89.0253 76.3667C88.8859 77.0222 88.5129 78.1929 88.4223 79.4045C88.3559 80.2942 88.4323 81.219 88.9988 81.9097C89.8313 82.9223 91.5991 83.3262 95.0211 82.7291C96.7454 82.4248 98.192 81.7868 99.4221 81.0376C101.116 80.0133 102.406 78.7664 103.441 77.8533C104.279 77.1099 104.995 76.5773 105.599 76.39C107.437 75.8222 112.297 75.079 117.199 76.8057C120.438 77.9471 123.694 80.1595 126.119 84.1807C129.696 90.1569 132.641 98.4393 134.504 107.676C136.089 115.525 136.891 124.071 136.683 132.453C136.627 134.653 136.082 137.762 134.69 139.945C133.642 141.584 132.132 142.713 130.048 142.696C123.433 142.655 118.531 141.525 114.64 139.459C109.976 136.983 106.758 133.155 103.804 128.168C103.672 127.951 103.744 127.665 103.964 127.536C104.184 127.407 104.468 127.477 104.6 127.694C107.504 132.47 110.631 136.146 115.155 138.487C118.929 140.437 123.671 141.455 130.05 141.426C131.649 141.42 132.772 140.501 133.563 139.237C134.805 137.252 135.25 134.425 135.281 132.423C135.41 124.153 134.526 115.736 132.905 107.998C131.019 98.9896 128.132 90.9062 124.606 85.0822C122.434 81.4707 119.517 79.4805 116.613 78.4445C112.171 76.8641 107.763 77.4904 106.093 77.9938C105.651 78.1284 105.162 78.5616 104.548 79.1001C103.447 80.0601 102.066 81.3536 100.264 82.4247C98.8714 83.2559 97.2331 83.9524 95.2876 84.2743C91.0043 84.9825 88.8565 84.1222 87.8311 82.8462C87.2481 82.1204 86.9899 81.2307 86.9416 80.3059C86.8775 79.0826 87.1822 77.7948 87.4305 76.8465Z" fill="#11023B"/>
<path fill-rule="evenodd" clip-rule="evenodd" d="M128.811 125.323C128.968 125.522 128.931 125.815 128.729 125.967C128.527 126.125 128.236 126.09 128.079 125.885C127.177 124.861 125.765 123.439 124.164 121.893C123.605 121.349 123.021 120.799 122.436 120.237C121.801 119.622 121.162 119.002 120.527 118.399C119.871 117.778 119.23 117.164 118.592 116.608C116.884 115.109 115.281 113.95 114.007 113.669C113.755 113.629 113.584 113.388 113.627 113.143C113.669 112.891 113.908 112.721 114.16 112.762C115.2 112.879 116.496 113.453 117.903 114.325C118.926 114.963 120.008 115.753 121.083 116.637C121.677 117.129 122.27 117.644 122.839 118.188C123.405 118.727 123.951 119.289 124.467 119.856C126.328 121.905 127.867 123.965 128.811 125.323Z" fill="#11023B"/>
<path fill-rule="evenodd" clip-rule="evenodd" d="M112.035 114.694C111.844 114.864 111.551 114.846 111.381 114.659C111.211 114.466 111.227 114.179 111.418 114.009C112.054 113.389 112.702 112.944 113.255 112.745C113.74 112.569 114.177 112.593 114.538 112.762C115.072 113.008 115.507 113.681 115.541 115.022C115.552 115.467 115.499 115.947 115.401 116.456C115.279 117.088 115.074 117.755 114.809 118.446C114.327 119.652 113.658 120.916 112.854 122.069C112.316 122.836 111.718 123.562 111.1 124.188C109.714 125.604 108.212 126.547 106.973 126.711C105.031 126.956 103.924 126.155 103.396 124.949C102.689 123.327 103.128 120.863 103.996 119.523C104.127 119.3 104.412 119.23 104.631 119.359C104.851 119.488 104.924 119.775 104.794 119.991C104.274 120.945 104.023 122.502 104.328 123.737C104.465 124.293 104.729 124.779 105.182 125.054C105.563 125.288 106.074 125.341 106.736 125.218C107.706 125.042 108.779 124.141 109.841 123C110.386 122.409 110.918 121.747 111.42 121.056C112.174 120.02 112.866 118.914 113.357 117.831C113.584 117.351 113.778 116.877 113.92 116.421C114.078 115.917 114.184 115.437 114.207 115.004C114.228 114.594 114.211 114.284 114.133 114.05C114.072 113.874 113.986 113.757 113.833 113.763C113.34 113.769 112.703 114.15 112.035 114.694Z" fill="#11023B"/>
<path fill-rule="evenodd" clip-rule="evenodd" d="M80.9149 105.779C81.0338 105.826 81.2985 105.844 81.465 105.838C81.562 105.832 81.662 105.826 81.7632 105.803C82.065 105.732 82.375 105.58 82.6192 105.305C83.3204 104.515 84.0658 103.374 84.827 102.583C85.3088 102.086 85.8053 101.723 86.2924 101.594C86.7442 101.477 87.3796 101.489 88.0232 101.582C89.1674 101.752 90.3375 102.127 90.3375 102.127C90.5822 102.203 90.7199 102.46 90.6446 102.706C90.5693 102.946 90.3098 103.087 90.0657 103.011C90.0657 103.011 88.965 102.695 87.8955 102.577C87.4043 102.525 86.9207 102.507 86.5813 102.612C86.2571 102.706 85.9542 102.993 85.6418 103.338C84.917 104.14 84.2205 105.299 83.5551 106.101C82.8957 106.897 81.9362 107.166 81.1679 107.12C80.1084 107.055 79.4683 106.335 79.5831 105.592C79.7542 104.491 80.4355 102.8 81.4538 101.214C82.3539 99.8147 83.5228 98.5153 84.8082 97.7544C85.7259 97.21 87.699 96.9466 89.9886 97.011C92.4129 97.0754 95.202 97.4734 97.3463 98.0588C98.6205 98.4158 99.9541 99.1767 101.278 100.23C102.8 101.442 104.325 103.046 105.773 104.807C109.725 109.619 113.124 115.619 114.478 117.901C114.612 118.118 114.544 118.399 114.327 118.534C114.109 118.668 113.823 118.598 113.689 118.381C112.267 116.181 108.67 110.403 104.612 105.785C103.184 104.158 101.7 102.677 100.232 101.559C99.0888 100.687 97.9634 100.037 96.8774 99.7444C94.8543 99.1825 92.2194 98.8079 89.9292 98.7143C88.0332 98.6323 86.383 98.7027 85.613 99.1358C84.497 99.7563 83.4863 100.857 82.6839 102.027C81.7591 103.374 81.1026 104.819 80.9149 105.779ZM80.9114 105.779C80.912 105.732 80.9002 105.668 80.8737 105.691C80.8355 105.726 80.8567 105.756 80.9114 105.779Z" fill="#11023B"/>
<path fill-rule="evenodd" clip-rule="evenodd" d="M100.851 112.013C100.67 111.837 100.669 111.545 100.85 111.363C101.03 111.182 101.323 111.182 101.505 111.357C101.505 111.357 103.016 112.61 104.884 114.518C105.229 114.869 105.582 115.244 105.935 115.648C106.267 116.022 106.6 116.42 106.919 116.836C107.384 117.445 107.825 118.083 108.246 118.744C109.281 120.354 110.165 122.045 110.719 123.596C110.819 123.831 110.709 124.106 110.474 124.205C110.239 124.305 109.966 124.193 109.866 123.959C109.254 122.748 108.373 121.489 107.413 120.248C106.986 119.692 106.537 119.154 106.101 118.615C105.653 118.059 105.209 117.509 104.786 116.976C104.376 116.461 103.992 115.958 103.625 115.484C102.051 113.447 100.851 112.013 100.851 112.013Z" fill="#11023B"/>
<path fill-rule="evenodd" clip-rule="evenodd" d="M107.747 119.412C108.771 120.863 109.689 122.373 110.292 123.778C109.125 124.96 107.904 125.797 106.855 125.961C105.782 126.131 105.022 125.885 104.508 125.399C104.172 120.705 107.747 119.412 107.747 119.412Z" fill="#11023B"/>
<path fill-rule="evenodd" clip-rule="evenodd" d="M99.9485 109.707C100.154 109.555 100.444 109.596 100.597 109.8C100.749 110.005 100.706 110.298 100.5 110.45C100.063 110.866 99.032 111.287 97.6324 111.27C97.3242 111.264 97.0012 111.229 96.6641 111.158C96.3623 111.094 96.0505 111.006 95.7393 110.872C95.3246 110.702 94.9087 110.462 94.4975 110.163C93.7303 109.607 92.9826 108.858 92.279 107.851C92.1108 107.658 92.1302 107.371 92.3226 107.202C92.5155 107.032 92.8085 107.055 92.9768 107.243C93.4156 107.641 93.8551 107.951 94.2816 108.232C95.0169 108.718 95.7317 109.01 96.387 109.244C96.6341 109.332 96.8682 109.42 97.0971 109.49C97.3495 109.566 97.5865 109.642 97.8183 109.695C98.4284 109.83 98.9525 109.888 99.372 109.836C99.6132 109.806 99.8114 109.783 99.9485 109.707Z" fill="#11023B"/>
<path fill-rule="evenodd" clip-rule="evenodd" d="M91.3052 101.659C91.5511 101.589 91.8076 101.735 91.877 101.975C91.947 102.221 91.8035 102.478 91.5576 102.548C90.801 102.824 90.1092 103.239 89.5533 103.737C89.0156 104.217 88.6456 104.796 88.5691 105.434C88.4667 106.072 88.4267 106.827 88.4708 107.483C88.492 107.793 88.5144 108.08 88.6055 108.302C88.6291 108.361 88.642 108.419 88.6773 108.46C88.692 108.478 88.6944 108.507 88.7185 108.507C88.7444 108.513 88.7609 108.548 88.7785 108.536C88.8385 108.495 88.8909 108.443 88.9321 108.367C88.9915 108.255 89.048 108.133 89.0968 108.004C89.3933 107.202 89.6033 106.16 90.1463 105.51C90.4422 105.153 90.8075 104.878 91.314 104.779C91.5617 104.72 91.8152 104.866 91.8799 105.112C91.9441 105.358 91.7958 105.61 91.5487 105.674C91.004 105.855 90.8575 106.4 90.7257 106.95C90.5398 107.74 90.4498 108.589 90.178 109.145C89.8798 109.76 89.3897 110.087 88.6408 110.099C87.8102 110.093 87.2372 109.561 86.9295 108.7C86.7472 108.185 86.6725 107.524 86.6983 106.839C86.7201 106.254 86.8213 105.657 86.936 105.136C87.139 104.34 87.5902 103.62 88.2749 103.046C89.0821 102.379 90.1586 101.887 91.3052 101.659Z" fill="#11023B"/>
<path fill-rule="evenodd" clip-rule="evenodd" d="M83.9329 91.4447C83.9588 91.193 84.1865 91.0057 84.4406 91.035C84.6954 91.0584 84.8807 91.2866 84.8548 91.5383C84.8548 91.5383 84.9348 92.3754 85.0525 93.5285C85.0795 93.7978 85.1154 94.0787 85.1307 94.3713C85.1489 94.7342 85.1554 95.1088 85.1536 95.4834C85.1519 96.0512 85.1142 96.6073 85.1436 97.1341C85.1713 97.6258 85.2007 98.0647 85.3172 98.4394C85.426 98.6676 85.326 98.9428 85.0942 99.054C84.863 99.1593 84.5865 99.0599 84.4783 98.8316C84.06 98.1819 83.7535 97.2628 83.5523 96.2502C83.4788 95.8815 83.4211 95.5069 83.3982 95.1264C83.3823 94.8748 83.387 94.623 83.4005 94.3772C83.4147 94.1197 83.4417 93.8738 83.4764 93.6338C83.6635 92.3637 83.9329 91.4447 83.9329 91.4447Z" fill="#11023B"/>
<path fill-rule="evenodd" clip-rule="evenodd" d="M134.091 110.801C133.841 110.749 133.683 110.497 133.739 110.251C133.795 110.005 134.042 109.847 134.292 109.9C138.355 110.737 143.228 114.003 146.929 119.277C149.676 123.187 151.764 128.209 152.426 134.127C152.651 136.322 152.792 138.798 152.804 141.379C152.82 144.967 152.604 148.754 152.163 152.225C151.52 157.288 150.359 161.69 148.712 163.955C147.319 165.869 145.269 167.133 143.057 167.953C139.215 169.375 134.905 169.457 133.043 169.48C132.788 169.486 132.574 169.287 132.568 169.03C132.562 168.778 132.763 168.567 133.019 168.556C134.811 168.485 138.962 168.31 142.628 166.846C144.584 166.068 146.403 164.915 147.604 163.176C149.109 161.005 150.033 156.82 150.555 152.038C150.927 148.625 151.071 144.908 151.039 141.391C151.017 138.868 150.913 136.445 150.702 134.296C150.197 128.654 148.299 123.842 145.781 120.05C142.405 114.969 137.916 111.709 134.091 110.801Z" fill="#11023B"/>
<path fill-rule="evenodd" clip-rule="evenodd" d="M139.225 133.366C139.044 133.19 139.044 132.897 139.225 132.716C139.405 132.534 139.699 132.534 139.88 132.716C141.269 133.974 142.983 135.777 144.381 138.546C144.733 139.242 145.061 140.003 145.349 140.829C145.607 141.566 145.837 142.356 146.018 143.211C146.257 144.323 146.416 145.54 146.496 146.863C146.645 149.31 146.501 152.108 146 155.321C145.971 155.579 145.741 155.76 145.487 155.731C145.233 155.702 145.05 155.473 145.079 155.222C145.324 151.967 145.199 149.187 144.881 146.776C144.725 145.593 144.512 144.504 144.276 143.498C144.099 142.743 143.912 142.034 143.705 141.367C143.415 140.425 143.099 139.564 142.753 138.78C141.67 136.322 140.35 134.595 139.225 133.366Z" fill="#11023B"/>
<path fill-rule="evenodd" clip-rule="evenodd" d="M105.83 166.987C106.234 170.639 106 173.197 104.703 174.731C103.719 175.896 102.119 176.522 99.6501 176.557C98.8389 176.569 84.7883 176.036 68.9135 175.41C48.2094 174.59 24.401 173.607 22.8391 173.508C21.1407 173.396 19.3806 172.951 18.0934 172.126C16.9815 171.418 16.2103 170.429 16.0079 169.17C15.7603 167.613 12.5094 151.856 10.458 136.386C9.37031 128.191 8.62966 120.073 8.80968 114.179C8.85144 112.85 9.48797 111.984 10.5728 111.422C11.9293 110.725 14.1642 110.585 16.7768 110.556C17.7522 110.55 31.4962 110.702 47.0117 110.901C67.258 111.159 90.5211 111.48 92.3407 111.521C94.1332 111.556 95.9951 112.212 97.4864 113.863C98.8724 115.408 99.9507 117.843 100.279 121.542C100.34 122.227 100.769 125.774 101.363 130.615C102.913 143.246 105.589 164.64 105.83 166.987ZM104.908 167.081C104.651 164.739 101.826 143.375 100.19 130.761C99.5595 125.903 99.1054 122.344 99.0395 121.653C98.7865 119.014 98.1423 117.07 97.2552 115.689C95.9392 113.64 94.0867 112.873 92.3166 112.844L16.7968 112.276C14.8984 112.3 13.2183 112.353 12.0088 112.715C11.1593 112.967 10.5828 113.383 10.5581 114.231C10.3833 120.055 11.1428 128.063 12.2041 136.158C14.2289 151.61 17.3863 167.362 17.6286 168.919C17.7522 169.715 18.2728 170.317 18.974 170.768C20.0477 171.465 21.526 171.822 22.9473 171.921C24.3163 172.021 42.809 172.905 61.2952 173.783C80.0008 174.667 98.6994 175.539 99.6389 175.527C101.726 175.515 103.109 175.07 103.949 174.093C105.132 172.717 105.246 170.394 104.908 167.081Z" fill="#11023B"/>
<path fill-rule="evenodd" clip-rule="evenodd" d="M55.6859 132.341C57.4396 132.066 59.0662 132.833 60.2887 134.431C61.5047 136.017 62.2924 138.47 62.3588 141.548C62.3694 143.749 60.9911 145.868 59.1833 146.74C57.3684 147.618 55.1153 147.361 53.4299 144.82C51.9162 142.491 51.6309 139.26 52.2274 136.679C52.781 134.285 54.0923 132.494 55.6859 132.341ZM55.8001 133.26C55.2971 133.336 54.8729 133.664 54.5117 134.138C53.8017 135.063 53.3816 136.544 53.2946 138.148C53.1869 140.126 53.6069 142.304 54.7665 143.919C55.8801 145.499 57.2602 145.722 58.4115 145.16C59.6857 144.545 60.6893 143.088 60.7164 141.537C60.8099 138.821 60.2604 136.614 59.2757 135.151C58.3968 133.846 57.1849 133.132 55.8001 133.26Z" fill="#11023B"/>
<path fill-rule="evenodd" clip-rule="evenodd" d="M55.9189 127.753C55.9559 127.501 56.1912 127.325 56.4442 127.36C56.6972 127.396 56.8725 127.63 56.836 127.881C56.836 127.881 56.9225 128.496 57.0031 129.368C57.0178 129.526 57.0319 129.684 57.0348 129.854C57.0372 130.012 57.0366 130.17 57.0225 130.334C57.0066 130.521 56.9696 130.714 56.9396 130.902C56.8937 131.194 56.836 131.469 56.7966 131.75C56.7489 132.096 56.6948 132.394 56.6907 132.687C56.7378 132.933 56.5725 133.179 56.3207 133.225C56.0695 133.272 55.8271 133.108 55.78 132.857C55.5765 132.336 55.4212 131.709 55.3241 131.03C55.2871 130.767 55.26 130.509 55.2623 130.246C55.2635 130.076 55.2829 129.901 55.3088 129.737C55.3365 129.555 55.3741 129.391 55.4182 129.228C55.6594 128.344 55.9189 127.753 55.9189 127.753Z" fill="#11023B"/>
<path fill-rule="evenodd" clip-rule="evenodd" d="M64.3635 133.746C64.6029 133.658 64.8706 133.775 64.9612 134.015C65.0512 134.249 64.9306 134.519 64.6911 134.607C64.6911 134.607 64.2588 134.958 63.6181 135.414C63.5034 135.496 63.3875 135.584 63.2569 135.66C63.1375 135.73 63.0128 135.801 62.881 135.865C62.7257 135.935 62.5639 135.982 62.4033 136.046C62.1545 136.134 61.9156 136.205 61.6856 136.298C61.4026 136.409 61.1503 136.491 60.9473 136.626C60.7679 136.807 60.4743 136.807 60.292 136.632C60.1096 136.45 60.1066 136.158 60.2861 135.976C60.5526 135.561 60.9791 135.128 61.4962 134.712C61.6815 134.56 61.8739 134.419 62.0815 134.302C62.2198 134.22 62.3651 134.162 62.5092 134.109C62.6627 134.051 62.8116 134.01 62.9598 133.974C63.7734 133.787 64.3635 133.746 64.3635 133.746Z" fill="#11023B"/>
<path fill-rule="evenodd" clip-rule="evenodd" d="M47.5558 137.984C47.301 138.007 47.0769 137.814 47.0563 137.563C47.0351 137.311 47.2246 137.088 47.4799 137.065C47.4799 137.065 48.1187 136.843 49.0741 136.679C49.2471 136.649 49.4253 136.632 49.6147 136.62C49.7906 136.609 49.9736 136.609 50.1577 136.626C50.4284 136.649 50.6984 136.708 50.969 136.778C51.6408 136.948 52.2661 137.182 52.8091 137.481C53.0515 137.557 53.1827 137.82 53.1015 138.06C53.0203 138.3 52.7574 138.435 52.515 138.353C51.9667 138.277 51.3708 138.329 50.7519 138.353C50.5113 138.364 50.2754 138.382 50.0413 138.376C49.8795 138.376 49.7212 138.359 49.5677 138.341C49.3559 138.318 49.16 138.277 48.9706 138.247C48.1264 138.101 47.5558 137.984 47.5558 137.984Z" fill="#11023B"/>
</g>
</g>
<defs>
<clipPath id="clip0_2501_3983">
<rect width="148" height="140" fill="white"/>
</clipPath>
<clipPath id="clip1_2501_3983">
<rect width="164" height="180" fill="white" transform="translate(0 1)"/>
</clipPath>
</defs>
</svg>
