<svg width="115" height="76" viewBox="0 0 115 76" fill="none" xmlns="http://www.w3.org/2000/svg">
<g clip-path="url(#clip0_2996_4086)">
<path d="M21.9622 82.9969C17.0256 77.7567 14.375 71.875 14.375 62.3415C14.375 45.5731 26.1458 30.5407 43.2716 23.1113L47.549 29.7124C31.5677 38.3594 28.4442 49.575 27.1958 56.6475C29.7689 55.3169 33.1372 54.8487 36.4392 55.1549C45.0852 55.9561 51.8995 63.054 51.8995 71.875C51.8995 81.1373 44.3908 88.6458 35.1285 88.6458C29.9867 88.6458 25.0698 86.296 21.9622 82.9969ZM69.8788 82.9969C64.9424 77.7567 62.2917 71.875 62.2917 62.3415C62.2917 45.5731 74.0624 30.5407 91.1883 23.1113L95.4658 29.7124C79.4842 38.3594 76.361 49.575 75.1122 56.6475C77.6854 55.3169 81.0539 54.8487 84.3559 55.1549C93.0019 55.9561 99.8162 63.054 99.8162 71.875C99.8162 81.1373 92.3076 88.6458 83.0453 88.6458C77.9034 88.6458 72.9867 86.296 69.8788 82.9969Z" fill="#EDEEF1"/>
</g>
<defs>
<clipPath id="clip0_2996_4086">
<rect width="115" height="115" fill="white"/>
</clipPath>
</defs>
</svg>
