<svg width="16" height="18" viewBox="0 0 16 18" fill="none" xmlns="http://www.w3.org/2000/svg">
<path d="M8.44221 17.9226C8.0938 18.0518 7.7722 18.0001 7.46845 17.8881C3.32328 16.2854 0.491347 12.52 0.232274 8.22032L1.64937e-06 4.53243C-0.0357326 3.91204 0.303743 3.28303 0.902291 3.02453L7.52206 0.0862809C7.799 -0.034351 8.23674 -0.0257344 8.51368 0.0948975L15.0173 2.97283C15.6516 3.24856 16.0447 3.85172 16 4.53243L15.7677 8.25478C15.4997 12.5631 12.6321 16.3457 8.44221 17.9139V17.9226ZM4.54718 9.2543L6.99498 11.4171C7.27192 11.6669 7.70073 11.6325 7.95087 11.3567L11.5154 7.50514C11.7655 7.22941 11.703 6.82443 11.4439 6.60902C11.1848 6.39361 10.756 6.38499 10.5059 6.66072L7.40592 10.0212L5.4048 8.25478C5.12786 8.0049 4.68119 8.1083 4.47571 8.35818C4.25238 8.62529 4.27024 8.99581 4.55612 9.2543H4.54718Z" fill="#B5D3F5"/>
</svg>
