<svg width="17" height="12" viewBox="0 0 17 12" fill="none" xmlns="http://www.w3.org/2000/svg">
<path d="M8.25 3.375C7.65326 3.375 7.08097 3.61205 6.65901 4.03401C6.23705 4.45597 6 5.02826 6 5.625C6 6.22174 6.23705 6.79403 6.65901 7.21599C7.08097 7.63795 7.65326 7.875 8.25 7.875C8.84674 7.875 9.41903 7.63795 9.84099 7.21599C10.2629 6.79403 10.5 6.22174 10.5 5.625C10.5 5.02826 10.2629 4.45597 9.84099 4.03401C9.41903 3.61205 8.84674 3.375 8.25 3.375ZM8.25 9.375C7.25544 9.375 6.30161 8.97991 5.59835 8.27665C4.89509 7.57339 4.5 6.61956 4.5 5.625C4.5 4.63044 4.89509 3.67661 5.59835 2.97335C6.30161 2.27009 7.25544 1.875 8.25 1.875C9.24456 1.875 10.1984 2.27009 10.9017 2.97335C11.6049 3.67661 12 4.63044 12 5.625C12 6.61956 11.6049 7.57339 10.9017 8.27665C10.1984 8.97991 9.24456 9.375 8.25 9.375ZM8.25 0C4.5 0 1.2975 2.3325 0 5.625C1.2975 8.9175 4.5 11.25 8.25 11.25C12 11.25 15.2025 8.9175 16.5 5.625C15.2025 2.3325 12 0 8.25 0Z" fill="white"/>
</svg>
