<svg width="67" height="67" viewBox="0 0 67 67" fill="none" xmlns="http://www.w3.org/2000/svg">
<g clip-path="url(#clip0_4235_3407)">
<path d="M33.5 0C29.1192 0 25.7692 3.35 25.7692 7.73077V23.1923C25.7692 27.5731 29.1192 30.9231 33.5 30.9231H48.9615L59.2692 41.2308V30.9231C63.65 30.9231 67 27.5731 67 23.1923V7.73077C67 3.35 63.65 0 59.2692 0H33.5ZM44.2922 7.73077H48.7193L53.0692 23.1923H49.2038L48.155 19.3269H44.2896L43.3258 23.1923H39.9423L44.2922 7.73077ZM46.3846 10.3077C46.1269 11.3385 45.8383 12.596 45.578 13.3691L44.8565 16.75H47.9153L47.1886 13.3665C46.6758 12.596 46.3846 11.3385 46.3846 10.3077ZM7.73077 25.7692C3.35 25.7692 0 29.1192 0 33.5V48.9615C0 53.3423 3.35 56.6923 7.73077 56.6923V67L18.0385 56.6923H33.5C37.8808 56.6923 41.2308 53.3423 41.2308 48.9615V33.5H33.5C28.6038 33.5 24.723 30.15 23.4345 25.7692H7.73077ZM19.5692 33.2578C23.9499 33.2578 26.0115 36.8655 26.0115 40.9885C26.0115 44.5962 24.772 46.8845 22.7104 47.9153C23.7412 48.4307 24.9627 48.7038 26.2511 48.9615L25.2873 51.5385C23.4835 51.0231 21.6127 50.2191 19.8088 49.4434C19.5511 49.1857 19.1002 49.2038 18.8425 49.2038C15.7502 48.9461 12.8846 46.3846 12.8846 41.2308C12.8846 36.85 15.4461 33.2578 19.5692 33.2578ZM19.5692 36.0769C17.5076 36.0769 16.5078 38.3962 16.5078 41.2308C16.5078 44.3231 17.5076 46.3846 19.5692 46.3846C21.6307 46.3846 22.7078 44.0654 22.7078 41.2308C22.7078 38.3962 21.6307 36.0769 19.5692 36.0769Z" fill="url(#paint0_linear_4235_3407)"/>
</g>
<defs>
<linearGradient id="paint0_linear_4235_3407" x1="0" y1="33.5" x2="67" y2="33.5" gradientUnits="userSpaceOnUse">
<stop stop-color="#21CFFF"/>
<stop offset="1" stop-color="#019AE6"/>
</linearGradient>
<clipPath id="clip0_4235_3407">
<rect width="67" height="67" fill="white"/>
</clipPath>
</defs>
</svg>
